/* XPM */
static const char *back_blue_2_xpm[] = {
"47 62 356 2",
"  	c None",
". 	c #000000",
"+ 	c #2E2E2E",
"@ 	c #B8B8B8",
"# 	c #FEFEFE",
"$ 	c #FFFFFF",
"% 	c #B5B5B5",
"& 	c #B6B6B6",
"* 	c #F7F7F7",
"= 	c #FDFEFE",
"- 	c #B8D4E2",
"; 	c #73AAC5",
"> 	c #6EA7C3",
", 	c #428DB1",
"' 	c #4A91B4",
") 	c #4B92B5",
"! 	c #5497B8",
"~ 	c #70A8C4",
"{ 	c #589ABA",
"] 	c #4890B3",
"^ 	c #418CB1",
"/ 	c #6CA6C2",
"( 	c #6DA7C3",
"_ 	c #4991B4",
": 	c #5598B9",
"< 	c #5799BA",
"[ 	c #4891B4",
"} 	c #6DA6C2",
"| 	c #72A9C5",
"1 	c #B4D2E0",
"2 	c #FCFDFE",
"3 	c #8FBBD1",
"4 	c #1B75A1",
"5 	c #62A0BE",
"6 	c #016596",
"7 	c #2B7EA7",
"8 	c #408BB0",
"9 	c #4B92B4",
"0 	c #4C92B5",
"a 	c #3E8AAF",
"b 	c #5195B7",
"c 	c #468FB2",
"d 	c #458EB2",
"e 	c #5095B7",
"f 	c #3F8AB0",
"g 	c #4990B4",
"h 	c #478FB3",
"i 	c #5296B7",
"j 	c #4D93B5",
"k 	c #428CB1",
"l 	c #2C7FA8",
"m 	c #5F9EBD",
"n 	c #1F77A2",
"o 	c #87B7CE",
"p 	c #3785AC",
"q 	c #94BED3",
"r 	c #CADFE9",
"s 	c #3081A9",
"t 	c #2F81A9",
"u 	c #A2C7D9",
"v 	c #79ADC7",
"w 	c #76ACC6",
"x 	c #65A1BF",
"y 	c #98C1D5",
"z 	c #3C89AE",
"A 	c #A7CADB",
"B 	c #82B4CC",
"C 	c #75ABC6",
"D 	c #69A4C1",
"E 	c #8BB9CF",
"F 	c #448DB2",
"G 	c #ABCCDC",
"H 	c #85B5CD",
"I 	c #80B2CB",
"J 	c #AACCDC",
"K 	c #90BCD1",
"L 	c #6BA5C2",
"M 	c #7FB1CA",
"N 	c #5397B8",
"O 	c #CBE0EA",
"P 	c #97C0D4",
"Q 	c #2D80A8",
"R 	c #13709D",
"S 	c #247AA4",
"T 	c #3283AA",
"U 	c #3A87AD",
"V 	c #438DB1",
"W 	c #3987AD",
"X 	c #3685AC",
"Y 	c #418CB0",
"Z 	c #3B88AE",
"` 	c #3484AB",
" .	c #3383AB",
"..	c #3182AA",
"+.	c #3786AC",
"@.	c #3D89AF",
"#.	c #257BA5",
"$.	c #16729F",
"%.	c #14709E",
"&.	c #026696",
"*.	c #1A74A0",
"=.	c #88B7CE",
"-.	c #1E76A1",
";.	c #61A0BE",
">.	c #9AC2D5",
",.	c #1D76A1",
"'.	c #98C1D4",
").	c #126F9C",
"!.	c #A8CADB",
"~.	c #4D93B6",
"{.	c #ADCDDD",
"].	c #1974A0",
"^.	c #66A3C0",
"/.	c #9BC2D6",
"(.	c #6AA5C2",
"_.	c #15719F",
":.	c #67A3C0",
"<.	c #98C0D4",
"[.	c #9BC3D5",
"}.	c #18739F",
"|.	c #87B6CE",
"1.	c #1973A0",
"2.	c #036697",
"3.	c #106E9C",
"4.	c #267BA5",
"5.	c #297DA6",
"6.	c #5C9CBB",
"7.	c #6FA7C3",
"8.	c #2279A4",
"9.	c #D2E4ED",
"0.	c #DCEAF1",
"a.	c #17729F",
"b.	c #277CA6",
"c.	c #D7E7EF",
"d.	c #D8E7EF",
"e.	c #64A1BF",
"f.	c #74AAC5",
"g.	c #71A9C4",
"h.	c #287DA6",
"i.	c #7BAFC8",
"j.	c #CDE1EA",
"k.	c #8CBAD0",
"l.	c #D7E7EE",
"m.	c #A1C6D8",
"n.	c #C0DAE5",
"o.	c #BFD8E5",
"p.	c #A6C9DA",
"q.	c #3584AB",
"r.	c #D0E3EC",
"s.	c #D5E5EE",
"t.	c #81B3CB",
"u.	c #A5C9DA",
"v.	c #C1DAE5",
"w.	c #A4C8DA",
"x.	c #D2E4EC",
"y.	c #83B4CC",
"z.	c #7CAFC9",
"A.	c #19739F",
"B.	c #1E77A2",
"C.	c #96C0D4",
"D.	c #93BED3",
"E.	c #D0E2EC",
"F.	c #C4DBE7",
"G.	c #609EBD",
"H.	c #599ABA",
"I.	c #8EBBD0",
"J.	c #9CC3D6",
"K.	c #D6E6EE",
"L.	c #8AB8CF",
"M.	c #5B9BBB",
"N.	c #5E9DBC",
"O.	c #C3DBE6",
"P.	c #D2E3EC",
"Q.	c #99C1D5",
"R.	c #D4E5EE",
"S.	c #1C75A1",
"T.	c #77ACC7",
"U.	c #68A3C0",
"V.	c #F7FAFC",
"W.	c #2A7EA7",
"X.	c #F9FBFD",
"Y.	c #A0C6D8",
"Z.	c #5799B9",
"`.	c #C7DDE8",
" +	c #066898",
".+	c #C0D9E5",
"++	c #BAD5E3",
"@+	c #E5EFF4",
"#+	c #EAF2F6",
"$+	c #C6DDE8",
"%+	c #076998",
"&+	c #B3D1E0",
"*+	c #E8F0F5",
"=+	c #AFCFDE",
"-+	c #B7D4E2",
";+	c #15719E",
">+	c #2078A2",
",+	c #95BFD3",
"'+	c #237AA4",
")+	c #D3E4ED",
"!+	c #63A0BE",
"~+	c #D8E7EE",
"{+	c #DBEAF0",
"]+	c #619FBE",
"^+	c #D9E8EF",
"/+	c #DAE9F0",
"(+	c #9DC4D7",
"_+	c #5D9DBC",
":+	c #2E80A9",
"<+	c #448EB1",
"[+	c #DAE9EF",
"}+	c #5A9BBB",
"|+	c #5698B9",
"1+	c #D9E8F0",
"2+	c #2078A3",
"3+	c #BED8E4",
"4+	c #CEE1EB",
"5+	c #B6D3E1",
"6+	c #EBF4F7",
"7+	c #F1F7F9",
"8+	c #A9CBDC",
"9+	c #C9DEE9",
"0+	c #B0CFDE",
"a+	c #EEF5F8",
"b+	c #BCD7E3",
"c+	c #2077A3",
"d+	c #F6F9FC",
"e+	c #ACCDDD",
"f+	c #FBFCFE",
"g+	c #F8FAFD",
"h+	c #2178A3",
"i+	c #2B7EA8",
"j+	c #80B2CA",
"k+	c #D1E3EC",
"l+	c #B9D5E2",
"m+	c #91BDD2",
"n+	c #92BDD2",
"o+	c #D3E5ED",
"p+	c #D6E6ED",
"q+	c #3886AD",
"r+	c #D8E8EF",
"s+	c #86B6CD",
"t+	c #B7D4E1",
"u+	c #B5D2E1",
"v+	c #AECEDE",
"w+	c #D6E7EE",
"x+	c #D4E5ED",
"y+	c #89B8CE",
"z+	c #126F9D",
"A+	c #DDEAF1",
"B+	c #0F6E9B",
"C+	c #14719E",
"D+	c #1A73A0",
"E+	c #BBD5E2",
"F+	c #84B5CC",
"G+	c #E7F1F5",
"H+	c #7AAEC8",
"I+	c #ECF4F7",
"J+	c #1D76A2",
"K+	c #DAE8F0",
"L+	c #17739F",
"M+	c #CCE0EA",
"N+	c #C5DCE7",
"O+	c #D6E6EF",
"P+	c #4E94B6",
"Q+	c #D7E6EF",
"R+	c #CDE0EA",
"S+	c #D5E6ED",
"T+	c #DCEAF0",
"U+	c #CEE2EA",
"V+	c #DBE9F0",
"W+	c #DBE9F1",
"X+	c #CEE1EA",
"Y+	c #2E81A9",
"Z+	c #EDF4F8",
"`+	c #8DBAD0",
" @	c #1E77A1",
".@	c #FEFEFF",
"+@	c #1C76A2",
"@@	c #7DB0C9",
"#@	c #BBD6E3",
"$@	c #D5E6EE",
"%@	c #2B7FA7",
"&@	c #91BCD2",
"*@	c #D4E4ED",
"=@	c #297DA7",
"-@	c #1F77A3",
";@	c #BCD6E3",
">@	c #E9F2F6",
",@	c #EBF3F7",
"'@	c #BAD5E2",
")@	c #1E76A2",
"!@	c #78ADC7",
"~@	c #14719D",
"{@	c #D9E7EF",
"]@	c #1F78A3",
"^@	c #056798",
"/@	c #C2DAE6",
"(@	c #66A2C0",
"_@	c #9BC3D6",
":@	c #A3C7D9",
"<@	c #94BFD3",
"[@	c #BCD7E4",
"}@	c #CFE2EC",
"|@	c #BDD7E4",
"1@	c #6AA4C1",
"2@	c #F0F6F9",
"3@	c #C1DAE6",
"4@	c #C8DEE8",
"5@	c #CFE2EB",
"6@	c #247AA5",
"7@	c #1A74A1",
"8@	c #E3EEF3",
"9@	c #E6F0F5",
"0@	c #7EB0C9",
"a@	c #0D6C9B",
"b@	c #0E6D9B",
"c@	c #0F6D9C",
"d@	c #0C6B9B",
"e@	c #B2D0DF",
"f@	c #8FBCD1",
"g@	c #2C80A8",
"h@	c #8CB9D0",
"i@	c #9EC4D7",
"j@	c #D5E5ED",
"k@	c #F5F9FB",
"l@	c #FAFCFD",
"m@	c #E0ECF2",
"n@	c #DAE8EF",
"o@	c #E6EFF4",
"p@	c #4F94B6",
"q@	c #B1D0DF",
"r@	c #B7D3E1",
"s@	c #15729F",
"t@	c #3082AA",
"u@	c #9FC5D7",
"v@	c #D1E4EC",
"w@	c #7CB0C9",
"x@	c #C2DBE6",
"y@	c #16719F",
"z@	c #89B7CE",
"A@	c #116E9C",
"B@	c #AFCEDE",
"C@	c #99C2D5",
"D@	c #6BA6C2",
"E@	c #F6F6F6",
"F@	c #448EB2",
"G@	c #5699B9",
"H@	c #599BBB",
"I@	c #448DB1",
"J@	c #FDFDFD",
"K@	c #B1B1B1",
"L@	c #B2B2B2",
"M@	c #2A2A2A",
"N@	c #B0B0B0",
"O@	c #FCFCFC",
"        . . . . . . . . . . . . . . . . . . . . . . . . . . . . . . . . . . . . . . .         ",
"    . . . . . . . . . . . . . . . . . . . . . . . . . . . . . . . . . . . . . . . . . . .     ",
"  . + @ # $ $ $ $ $ $ $ $ $ $ $ $ $ $ $ $ $ $ $ $ $ $ $ $ $ $ $ $ $ $ $ $ $ $ $ $ $ # @ + .   ",
"  . % $ $ $ $ $ $ $ $ $ $ $ $ $ $ $ $ $ $ $ $ $ $ $ $ $ $ $ $ $ $ $ $ $ $ $ $ $ $ $ $ $ & .   ",
"  . * $ = - ; > , ' ) ! ~ { ) ] ^ / ( ^ _ ) : ~ < ) [ ^ } ( , _ ) < ~ : ) _ , ( | 1 2 $ # . . ",
"  . * $ 3 4 5 6 7 8 ] ! 9 ' ] 0 a ] b c d e ] f g b h g i ] f g j k h ! ] 8 l 6 m n o $ $ . . ",
"  . * $ p q r s t u i v w x y z A j B C D E F G h H | } I 0 J f K / L M N A s s O P t $ $ . . ",
"  . * $ Q R g 6 S T U V W X U Y t Z f `  .f a ..a 8 ` +.Y z ..f @...X k U T #.6 c $.#.$ $ . . ",
"  . * $ %.&.*.&.=.-.;.>.,.'.~ ).!.b ~.{.].^./.,.y (._.G ~.b G $.:.<.,.[.:.}.|.&.1.2.3.$ $ . . ",
"  . * $ ].} ; 4.R 5.s 6.= 7.t 8.$.9.0.a.b.s m = / s #.a.c.d.a.b.s :.= e.s b.R #.f.g.a.$ $ . . ",
"  . * $ 4 g.w h.H U i.j.k.l.H l m.n.o.p.q.M r.k.s.t.s u.o.v.w.` M x.k.x.M q.y.b.z.~ A.$ $ . . ",
"  . * $ 8.x | B.C.D.E.>.4 y l.o F.G.H.v.I.9.J.B.P K.L.v.M.N.O.L.P.Q.4 Q.R.k.C.S.T.U.,.$ $ . . ",
"  . * $ X 7.o 7 *.V.A 1.}.B.y 2 W.5.b.S X.Y.S.1.4 Y.X.S 5.b.W.2 y n }.1.u.V.*.7 =.7...$ $ . . ",
"  . * $ ].m Z.W.- 0 p.`. +.+++8 @+M.: #+] {.$+%+v.&+F *+: M.*+V =+.+ +`.=+c -+5.m N.;+$ $ . . ",
"  . * $ >+:.,+'+0 Z G.P )+!.!+Q m ~+{+m X ]+>.)+w.5 ..G.^+/+G.q.]+m.)+(+]+X 0 S I.} B.$ $ . . ",
"  . * $ a._+e :+<++.{ k./+(+M.W.: s.[+:  .H.3 /+>.}+t |+l.1+: T H.C./+D.H. .V l { M.R $ $ . . ",
"  . * $ 2+/ q h.3+d u 4+ +`.5+W 6+M.! 7+Y 8+j. +9+0+z a+! M.a+z G `. +4+G f b+h.3 g.c+$ $ . . ",
"  . * $ t ]+_+b.n d+e+2+*.#.(+f+s s t W.g+u.'+S.'+u.g+W.t s s f+(+#.*.h+J d+n #.e.]+b.$ $ . . ",
"  . * $ i+g.j+l K >.k+D.4 D.^+3 b+_+{ l+C.)+,+B.m+l.n+l+{ _+b+n+o+D.4 D.p+q K l B g.h.$ $ . . ",
"  . * $ a.U.C B.E q+z.r.j+r+s+5.!.t+u+v+T M 9.M w+B :+e+u+t+e+..j+R.j+x+j+ .y+S.v L R $ $ . . ",
"  . * $ }.} ; '+3.b.l H.$ / l h+z+x.A+z+#.l 6.$ D l '+R c.d.z+#.l e.$ ]+l #.B+8.v } C+$ $ . . ",
"  . * $ D+g.C W.E+b.F+^+X c.y a.G+H+C I+h+E ^+X d.m+S.#+C H+#+J+k.l.X K+k.2+l+5.i.7.L+$ $ . . ",
"  . * $ l ]+L n ! d.M+N.4 ]+N+O+| e P+> Q+9+]+B.G.r K.> P+e | O+N+]+4 m R+S+! J+g.5 #.$ $ . . ",
"  . * $  .} L.h.! T+U+G.J+!+$+K+| N e > V+r !+n 5 r K+> e N | W+N+!+J+]+X+^+! b.L.7.Y+$ $ . . ",
"  . * $ %.N.{ 7 E+h.H l.:+s.Q.}.G+C ~ Z+8.k.c.:+K.n+J+#+~ C #+B.`+s.:+d.`+h+l+W.G._+3.$ $ . . ",
"  . * $  @U.q '+3.b.l H..@/ l h+z+x.A+z+#.l 6..@D l '+R c.d.z+#.l e..@]+l #.B+'+K } +@$ $ . . ",
"  . * $ a._+! Q E W @@k+F+^+=.7 8+#@l+v+` I o+F+c.F+t e+l+#@e+T I s.F+$@I ` y+l 6.M.R $ $ . . ",
"  . * $ %@L m+5.&@>.x.,+J+,+1+3 3+G.}+#@C.*@P n q l.n+#@}+G.3+n+x+,+J+C.w+q &@5.`+~ =@$ $ . . ",
"  . * $ t m !+8.S.d+8+S.1.8.>.f+Q l l b.g+u n 4 n u g+b.l l Q f+>.8.1.J+A d+S.2+D G.b.$ $ . . ",
"  . * $ -@g.H+:+;@d u O  +F.5+W >@M.! a+Y 8+r  +N+0+z ,@! M.,@z G F. +O G f '@:+z.| )@$ $ . . ",
"  . * $ }.L !@2+' U m D./+w.5 Q _+1+0._+X G.C./+m.]+..N.K+{+_+q.G.(+/+>.G.X ' n H+7.~@$ $ . . ",
"  . * $ }.L g.h+' q+6.D.)+w.m W.6.K./+_+ ._+P )+m.N.t N.l.{@_+T _+(+)+>._+ .' n T./ ;+$ $ . . ",
"  . * $ ]@| i.Q ;@0 p.r ^@/@++8 >@}+N a+] {.9+ +F.&+F ,@N }+,@V =+/@^@r =+c '@l @@C B.$ $ . . ",
"  . * $ t G.(@8.S.V.!.J+*.8._@2 Q l l b.X.:@n 4 n :@X.b.l l Q 2 _@8.*.J+!.V.S.h+} G.b.$ $ . . ",
"  . * $ W.L `+#.<@C.r.y 4 P r+L./@N.H..+m+o+>.J+C.l.`+.+H.N./@`+)+P 4 y K.3 <@#.k.} b.$ $ . . ",
"  . * $ a.G.{ Q H +.!@j.o K.B 5.Y.[@#@p.T z.}@s+x+M :+w.#@|@w...z.k+o P.z.T y.7 ]+N.R $ $ . . ",
"  . * $ J+1@n+2+R 5.s 6..@7.s 8.$.)+A+a.b.s m .@/ s #.a.d.^+a.b.s :..@e.s b.R h+m+L S.$ $ . . ",
"  . * $ %.6.! 7 |@b.s+d.:+K.>.a.#+C ~ 2@h+k.1+:+K.D.S.Z+~ C a+J+I.s.:+K+I.2+;@5._+}+3.$ $ . . ",
"  . * $ ` 1@E 4.j V+`.H.4 M.3@/+1@P+0 (@V+N+M.B.}+N+[+(@0 P+1@{+.+M.4 H.4@^+j 4.=.> Y+$ $ . . ",
"  . * $ l ]+D 2+}+r+}@:.J+D r R.H+: i w c.j.D n U.5@O+w i : H+s.9+D J+:.k+$@}+B.~ ]+6@$ $ . . ",
"  . * $ 7@f.z.t - h.F+K.X K.P }.8@H+C >@8.L.l.X K.K J+9@C H+9@n E $@X d.E 8.5+:+0@T.}.$ $ . . ",
"  . * $ a./ C '+a@#.5.Z.$ D 5.2+b@x.A+b@S 5.H.$ :.5.8.c@c.d.b@S 5.]+$ m 5.S d@h+i./ C+$ $ . . ",
"  . * $ a.(@| B.&@q+M o+@@V+L.5.0+u+e@5+T B $@@@d.s+Q 1 e@u+1 ..B l.@@c.B T f@S.C 1@R $ $ . . ",
"  . * $ g@f.j+s h@u )+m+J+m+/+P t+m }+1 i@K.n+n 3 1+>.1 }+m t+>.j@m+J+m+r+J.h@t t.C 5.$ $ . . ",
"  . * $ t m _+S n k@J h+*.#.(+l@s s t W.V.w.'+S.'+w.V.W.t s s l@(+#.*.h+J k@n '+e.m b.$ $ . . ",
"  . * $ >+U.3 4.3+f i@4+%+`.&+T 6+M.: 7+U u.j.%+9+e+X a+: M.a+X A `.%+4+A W b+4.L.} B.$ $ . . ",
"  . * $ }._+b Q <+U M.k.m@(+_+Q : d.T+: X 6.3 m@>.6...|+n@V+: ` M.C.m@D.6.X V l H.M.R $ $ . . ",
"  . * $ n 1@C.'+b q+G.>.M+G e.W.e.$@d.x  .]+i@M+!.5 t x K.d.x T ]+w.M+m.]+ .e S m+7.B.$ $ . . ",
"  . * $ 7@]+6.7 - ! G $+ +3+|@] o@}+N #+p@q@N+%+.+t+9 *+N }+*+9 &+3+ +$+&+j r@5.e.G.s@$ $ . . ",
"  . * $ X 7.=.5.4 V.p.*.}.n y 2 7 5.5.#.X.Y.J+*.J+Y.X.#.5.5.7 2 y n }.*.p.V.4 5.=.~ t@$ $ . . ",
"  . * $ 8.N.D S.>.y+r.i@*.J.l.B 4@N.H.$+y+k+u@S._@$@H $+H.N.4@H v@J.*.i@x+o >.4 > m ,.$ $ . . ",
"  . * $ S./ ; 5.w@X C M+3 )+M W.Q.v.v.i@ .v M+I.k+z.t (+n.x@J.T v }@3 4+v  .w@h.C 7.A.$ $ . . ",
"  . * $ ].7.~ #.y@7 ` 5 = | ` S 4 )+A+S.5.` 5 = 7.` 4.S.c.d.S.5.` 1@= :.` 5.a.S w > y@$ $ . . ",
"  . * $ %.&.}.&.z@].5 /.,.Q.~ A@J b ~.B@}.^./.,.C@D@%.{.~.b {._.:.'.,.J.:.L+z@&.a.2.3.$ $ . . ",
"  . * $ Q %.p@6 #. .@.d z U Z F ..a Y q++.8 Y T Y Y q+U V f T k a q.W F @. .b.6 9 }.#.$ $ . . ",
"  . * $ q+n+9+t q.8+Z.M i.U.i@Y G ! H T.7.3 ' v+j k.w g.o i v+d q 7.> I H.G q.t 9+,+s $ $ . . ",
"  . * $ K 1.G.6 7 k ] : 9 ' ' 0 8 ] i h d b g Y ' i c g ! g Y ' P+V h : ] k l 6 6.J+=.$ $ . . ",
"  . E@$ = - ; > F@0 j G@~ H@j ' V / ( V 9 j G@~ { j 9 I@} ( I@9 j { ~ G@j 9 I@( | 1 2 $ J@. . ",
"  . K@$ $ $ $ $ $ $ $ $ $ $ $ $ $ $ $ $ $ $ $ $ $ $ $ $ $ $ $ $ $ $ $ $ $ $ $ $ $ $ $ $ L@.   ",
"  . M@N@O@$ $ $ $ $ $ $ $ $ $ $ $ $ $ $ $ $ $ $ $ $ $ $ $ $ $ $ $ $ $ $ $ $ $ $ $ $ O@N@M@.   ",
"    . . . . . . . . . . . . . . . . . . . . . . . . . . . . . . . . . . . . . . . . . . .     ",
"        . . . . . . . . . . . . . . . . . . . . . . . . . . . . . . . . . . . . . . .         "};
