/* XPM */
static const char *back_grey_1_xpm[] = {
"47 62 473 2",
"  	c None",
". 	c #000000",
"+ 	c #060606",
"@ 	c #070707",
"# 	c #2E2E2E",
"$ 	c #B8B8B8",
"% 	c #FEFEFE",
"& 	c #FFFFFF",
"* 	c #2F2F2F",
"= 	c #B6B6B6",
"- 	c #B9B9B9",
"; 	c #E0DBD8",
"> 	c #BCB0A9",
", 	c #B9ACA6",
"' 	c #8E8590",
") 	c #968C94",
"! 	c #978D95",
"~ 	c #9F9499",
"{ 	c #BAAEA7",
"] 	c #A4999C",
"^ 	c #948A94",
"/ 	c #8E8490",
"( 	c #B7ABA6",
"_ 	c #B9ACA7",
": 	c #968B94",
"< 	c #A2979B",
"[ 	c #A3989C",
"} 	c #DFDBD8",
"| 	c #CAC1BC",
"1 	c #8F786D",
"2 	c #9E8A80",
"3 	c #8B7367",
"4 	c #765A4C",
"5 	c #887064",
"6 	c #9E8B81",
"7 	c #90796E",
"8 	c #785D4F",
"9 	c #A08C83",
"0 	c #9C877D",
"a 	c #947E72",
"b 	c #82695C",
"c 	c #9B867C",
"d 	c #907A6E",
"e 	c #81685B",
"f 	c #A08C82",
"g 	c #958074",
"h 	c #9B857C",
"i 	c #9F8B82",
"j 	c #7A5F52",
"k 	c #9D897F",
"l 	c #8A7367",
"m 	c #9D877E",
"n 	c #9D8A80",
"o 	c #917971",
"p 	c #947D72",
"q 	c #8F796D",
"r 	c #775B4D",
"s 	c #8A7266",
"t 	c #937C70",
"u 	c #958075",
"v 	c #856B5F",
"w 	c #795E50",
"x 	c #917B70",
"y 	c #917B6F",
"z 	c #9A847A",
"A 	c #8C7368",
"B 	c #91796E",
"C 	c #7B6052",
"D 	c #82685B",
"E 	c #978176",
"F 	c #927A6E",
"G 	c #8C7569",
"H 	c #9D887E",
"I 	c #8F766B",
"J 	c #957E73",
"K 	c #937E72",
"L 	c #927C72",
"M 	c #958179",
"N 	c #9D8980",
"O 	c #8F796E",
"P 	c #9F8B81",
"Q 	c #9B867D",
"R 	c #937D71",
"S 	c #99857A",
"T 	c #948074",
"U 	c #9A857B",
"V 	c #9C887E",
"W 	c #766469",
"X 	c #CFC8C5",
"Y 	c #856D61",
"Z 	c #AE9E97",
"` 	c #CEC6C2",
" .	c #866D61",
"..	c #CCC5C0",
"+.	c #B3A59F",
"@.	c #81675B",
"#.	c #D6D1CE",
"$.	c #A49289",
"%.	c #A18F86",
"&.	c #D8D3D0",
"*.	c #836B5F",
"=.	c #AFA29A",
"-.	c #CCC4C0",
";.	c #CFC7C3",
">.	c #B2A49D",
",.	c #D7D2CF",
"'.	c #82685C",
").	c #B0A29A",
"!.	c #CEC7C3",
"~.	c #836A5E",
"{.	c #77666A",
"].	c #78666B",
"^.	c #99847A",
"/.	c #886F63",
"(.	c #806659",
"_.	c #897266",
":.	c #8D766B",
"<.	c #A29087",
"[.	c #F0F1F1",
"}.	c #AB9B93",
"|.	c #8C756A",
"1.	c #876F63",
"2.	c #80675A",
"3.	c #DCD7D5",
"4.	c #E1DDDB",
"5.	c #887165",
"6.	c #A6958C",
"7.	c #A7968E",
"8.	c #81675A",
"9.	c #DED9D7",
"0.	c #DEDAD8",
"a.	c #876F62",
"b.	c #988378",
"c.	c #8D7569",
"d.	c #78676B",
"e.	c #7B696C",
"f.	c #A18D84",
"g.	c #8E796E",
"h.	c #998379",
"i.	c #BEB2AC",
"j.	c #917C71",
"k.	c #AFA099",
"l.	c #D8D2D0",
"m.	c #BAADA7",
"n.	c #DDD9D6",
"o.	c #B3A59E",
"p.	c #C2B8B3",
"q.	c #D3CDCA",
"r.	c #D2CCC8",
"s.	c #C4BBB5",
"t.	c #B1A39C",
"u.	c #D9D4D1",
"v.	c #DBD6D4",
"w.	c #C3B9B4",
"x.	c #DAD6D2",
"y.	c #DAD5D2",
"z.	c #BDB1AB",
"A.	c #8F796F",
"B.	c #897673",
"C.	c #8E776C",
"D.	c #A28E85",
"E.	c #CAC1BD",
"F.	c #BCB0AA",
"G.	c #DAD6D4",
"H.	c #C1B7B2",
"I.	c #83695D",
"J.	c #C0B6B0",
"K.	c #DDDAD7",
"L.	c #B8ACA5",
"M.	c #D4CECB",
"N.	c #A4938A",
"O.	c #BAAFA8",
"P.	c #DBD7D5",
"Q.	c #BFB5AF",
"R.	c #846B5F",
"S.	c #DDD9D8",
"T.	c #A19087",
"U.	c #D5CFCC",
"V.	c #C0B5B0",
"W.	c #DCD8D6",
"X.	c #9F8D83",
"Y.	c #98847A",
"Z.	c #EDEDED",
"`.	c #C6BCB7",
" +	c #846B5E",
".+	c #846C60",
"++	c #C2B8B2",
"@+	c #EFEFEF",
"#+	c #897165",
"$+	c #EEEEEE",
"%+	c #8A7267",
"&+	c #F0F0F0",
"*+	c #7D6B6D",
"=+	c #876E62",
"-+	c #DDDAD8",
";+	c #99867C",
">+	c #C7BEB9",
",+	c #D3CCC9",
"'+	c #CDC6C2",
")+	c #958176",
"!+	c #E5E4E3",
"~+	c #9E8B82",
"{+	c #E7E5E4",
"]+	c #C9C1BD",
"^+	c #D6D0CD",
"/+	c #CCC5C1",
"(+	c #968278",
"_+	c #9F8C83",
":+	c #968177",
"<+	c #CAC2BE",
"[+	c #978379",
"}+	c #DCD8D7",
"|+	c #7E6C6D",
"1+	c #A49087",
"2+	c #937D72",
"3+	c #9A867B",
"4+	c #A29088",
"5+	c #927D72",
"6+	c #A5948B",
"7+	c #DCD8D5",
"8+	c #C8C0BB",
"9+	c #A6968D",
"0+	c #DFDBD9",
"a+	c #E0DDDC",
"b+	c #907A6F",
"c+	c #C4BAB5",
"d+	c #C5BCB7",
"e+	c #8D776B",
"f+	c #DFDCDA",
"g+	c #E0DCDA",
"h+	c #947E73",
"i+	c #A39087",
"j+	c #A18E84",
"k+	c #8C7468",
"l+	c #9B887E",
"m+	c #9F8D84",
"n+	c #DCD9D6",
"o+	c #8E786D",
"p+	c #A08E85",
"q+	c #BDB2AC",
"r+	c #BEB3AE",
"s+	c #DEDBD9",
"t+	c #9B877E",
"u+	c #8B7368",
"v+	c #7C696C",
"w+	c #785C4F",
"x+	c #CBC4BF",
"y+	c #E9E8E7",
"z+	c #EBEAE9",
"A+	c #958076",
"B+	c #C8BFBA",
"C+	c #D8D4D1",
"D+	c #CBC3BF",
"E+	c #947F74",
"F+	c #937C71",
"G+	c #866F63",
"H+	c #EDECEC",
"I+	c #C8BFBB",
"J+	c #866E62",
"K+	c #C5BBB6",
"L+	c #EFEEEE",
"M+	c #8B7469",
"N+	c #EEEDED",
"O+	c #F0EFEF",
"P+	c #8B7874",
"Q+	c #A49188",
"R+	c #957F74",
"S+	c #9B877D",
"T+	c #C1B6B1",
"U+	c #BEB3AD",
"V+	c #DFDBDA",
"W+	c #D0C9C5",
"X+	c #A29188",
"Y+	c #CFC8C4",
"Z+	c #D1CAC6",
"`+	c #DCD9D7",
" @	c #BFB4AE",
".@	c #A49288",
"+@	c #8C7974",
"@@	c #7A686C",
"#@	c #927C70",
"$@	c #A08E84",
"%@	c #8D766A",
"&@	c #C3BAB4",
"*@	c #B0A29B",
"=@	c #DBD6D3",
"-@	c #B3A69F",
";@	c #DEDBD8",
">@	c #B4A7A0",
",@	c #B2A59D",
"'@	c #8B7468",
")@	c #C9C1BC",
"!@	c #9F8C82",
"~@	c #7E6457",
"{@	c #F1F2F2",
"]@	c #AA9A92",
"^@	c #E1DEDC",
"/@	c #7F6558",
"(@	c #7D6356",
"_@	c #77656A",
":@	c #7D6255",
"<@	c #8F786C",
"[@	c #7C6154",
"}@	c #B6A9A3",
"|@	c #BCB1AB",
"1@	c #AE9F98",
"2@	c #E8E7E6",
"3@	c #DFDCDB",
"4@	c #B9ADA6",
"5@	c #856C60",
"6@	c #7B6053",
"7@	c #8E776B",
"8@	c #7E6356",
"9@	c #968075",
"0@	c #A4938B",
"a@	c #AB9C94",
"b@	c #9C897F",
"c@	c #DDD9D7",
"d@	c #D6D2CE",
"e@	c #D7D3CF",
"f@	c #DDD8D6",
"g@	c #AD9D96",
"h@	c #D4CFCB",
"i@	c #D8D4D0",
"j@	c #978177",
"k@	c #DFDDDA",
"l@	c #A39189",
"m@	c #A39289",
"n@	c #D6D1CD",
"o@	c #A99990",
"p@	c #9D8A81",
"q@	c #A8978F",
"r@	c #97847A",
"s@	c #9C887F",
"t@	c #D8D3D1",
"u@	c #A18D83",
"v@	c #998479",
"w@	c #B7AAA4",
"x@	c #AC9C94",
"y@	c #927C71",
"z@	c #937E73",
"A@	c #BAAEA8",
"B@	c #7A5F51",
"C@	c #785C4E",
"D@	c #F1F1F1",
"E@	c #866E61",
"F@	c #D9D5D2",
"G@	c #B9ABA4",
"H@	c #BDAFA9",
"I@	c #9A867C",
"J@	c #988478",
"K@	c #B6A9A2",
"L@	c #CEC3BE",
"M@	c #E6E1DE",
"N@	c #AC9D95",
"O@	c #DBD7D4",
"P@	c #BEB4AE",
"Q@	c #988276",
"R@	c #8A7773",
"S@	c #9B877B",
"T@	c #9D8A7E",
"U@	c #C9C0BC",
"V@	c #D0C9C6",
"W@	c #A8978E",
"X@	c #968176",
"Y@	c #A7958C",
"Z@	c #9E8A7F",
"`@	c #9C887D",
" #	c #7F6457",
".#	c #A28F86",
"+#	c #F4F1F0",
"@#	c #F6F4F3",
"##	c #F6F5F4",
"$#	c #DFDCD9",
"%#	c #AE9D96",
"&#	c #E4DFDC",
"*#	c #C6BAB5",
"=#	c #AF9F96",
"-#	c #C9BEB8",
";#	c #CCC2BC",
">#	c #AD9D94",
",#	c #AC9B92",
"'#	c #998378",
")#	c #988379",
"!#	c #795D50",
"~#	c #D9D1CD",
"{#	c #8A7366",
"]#	c #B8AAA2",
"^#	c #897065",
"/#	c #A39086",
"(#	c #9E8C82",
"_#	c #978277",
":#	c #A08D83",
"<#	c #988479",
"[#	c #887065",
"}#	c #DAD2CF",
"|#	c #897166",
"1#	c #9C867C",
"2#	c #C6BDB8",
"3#	c #AD9D95",
"4#	c #E5E0DD",
"5#	c #C6BAB4",
"6#	c #AB9A92",
"7#	c #DDDBD8",
"8#	c #F5F3F2",
"9#	c #927B70",
"0#	c #9B877C",
"a#	c #9F8A81",
"b#	c #9E887F",
"c#	c #9C897E",
"d#	c #978278",
"e#	c #AFA199",
"f#	c #D0C7C2",
"g#	c #E6E1DF",
"h#	c #8C7367",
"i#	c #A5938A",
"j#	c #A7978E",
"k#	c #E0DCDB",
"l#	c #B8ABA5",
"m#	c #BBAFA9",
"n#	c #A18D85",
"o#	c #7F6458",
"p#	c #9A877D",
"q#	c #A18C83",
"r#	c #958073",
"s#	c #D4CFCC",
"t#	c #968076",
"u#	c #E5E4E2",
"v#	c #DEDBDA",
"w#	c #7C6254",
"x#	c #7C6255",
"y#	c #E0DDDB",
"z#	c #7E6456",
"A#	c #7D6355",
"B#	c #A18E85",
"C#	c #DAD6D3",
"D#	c #9B887D",
"E#	c #ECECEC",
"F#	c #917A6E",
"G#	c #CAC2BD",
"H#	c #EAEAE8",
"I#	c #A59289",
"J#	c #99847B",
"K#	c #A59388",
"L#	c #866D60",
"M#	c #968074",
"N#	c #978378",
"O#	c #DBD8D6",
"P#	c #836A5D",
"Q#	c #7F6D6E",
"R#	c #846C5F",
"S#	c #A28E84",
"T#	c #DCD7D4",
"U#	c #D2CCC9",
"V#	c #D9D5D1",
"W#	c #907B6E",
"X#	c #A08E83",
"Y#	c #79676B",
"Z#	c #98837A",
"`#	c #DFDAD8",
" $	c #81685A",
".$	c #9E8A81",
"+$	c #9B887C",
"@$	c #9D8A7F",
"#$	c #907A6D",
"$$	c #9B867B",
"%$	c #917C70",
"&$	c #8B7267",
"*$	c #92796E",
"=$	c #957F73",
"-$	c #947C70",
";$	c #8E756B",
">$	c #927A71",
"        . . . . . . . . . . . . . . . . . . . . . . . . . . . . . . . . . . . . . . .         ",
"    . . + @ @ @ @ @ @ @ @ @ @ @ @ @ @ @ @ @ @ @ @ @ @ @ @ @ @ @ @ @ @ @ @ @ @ @ @ @ + . .     ",
"  . # $ % & & & & & & & & & & & & & & & & & & & & & & & & & & & & & & & & & & & & & % $ * .   ",
"  . = & & & & & & & & & & & & & & & & & & & & & & & & & & & & & & & & & & & & & & & & & - .   ",
". . % & % ; > , ' ) ! ~ { ] ! ^ / ( _ ' : ! < { [ ! ^ / ( _ ' : ! [ { < ! : ' _ > } % & & . . ",
". . & & | 1 2 3 4 5 6 7 4 8 9 0 4 4 a 9 b 4 1 c d 4 e f g 4 4 h i j 4 7 k l 4 l m d | & & . . ",
". . & & n 2 o g 4 p q k r s t u v w c x y 4 z A c 4 1 B 0 C D E F G 4 H I J 4 K L k n & & . . ",
". . & & M 1 k 3 4 5 N O 4 8 P Q 4 4 R P b 4 1 S d 4 e P T 4 4 U 6 j 4 7 V l 4 l c d M & & . . ",
". . & & W 4 4 4 X Y Z `  ...+.@.#.$.%.&.*.=.-. .;.>.D ,.%.$.,.'.).-. .!.).~.;.4 4 4 {.& & . . ",
". . & & ].3 ^./.(._.:.<.[.}.|.1.2.3.4.e 5.:.6.[.7.:.1.8.9.0.8.5.:.7.[.6.:.5.(.a.b.c.d.& & . . ",
". . & & e.f.g.h.i.j.k.l.m.n.o.:.p.q.r.s.O t.u.m.v.o.:.w.r.q.w.1 t.x.m.y.t.O z.E A.f.e.& & . . ",
". . & & B.C.D.3 E.F.G.H.I.J.K.L.M.N.%.q.O.P.Q.R.H.S., q.T.N.U., P.V.I.H.W.m.E.s X.d B.& & . . ",
". . & & Y.4 4 4 R.Z.`. +8..+++@+5._.#+1.$+w.~.'.~.w.$+1._._.%+&+Q..+8. +`.Z.R.4 4 4 Y.& & . . ",
". . & & *+=+u v -+;+>+#.8 ,+'+)+!+T.~+{+Y.]+q.w ^+/+(+!+_+T.!+:+<+,+8 #.<+[+}+ +J /.|+& & . . ",
". . & & e.1+2+3+4+5+6+J.7+8+9+C.9+0+a+7.b+6.c+7+d+9+e+7.f+g+9+O 6.d+7+c+6.b+T.b.h+i+e.& & . . ",
". . & & e.q j+k+l+b+m+m.f+++%.|._+n+f+X.o+p+q+f+r+%.|.X.0.s+_+C.p+r+f+q+p+o+t+u+i y e.& & . . ",
". . & & v+4 4 4 4.:+d+u.w+^+x+5+y+%.6 z+A+B+#.w+C+D+5+y+6 %.y+5+8+^+w+u.8+E+g+4 4 4 *+& & . . ",
". . & & Y.e F+(.G+H+I+J+b 1.K+L+M+:.|.%+N+`.J+ +J+`.N+%+:.:.:.O+++1.b J+I+H+G+(.x b Y.& & . . ",
". . & & P+Q+R+S+>+T+W.U+I.q+V+q+W+X+m+Y+V.n+F.R.U+s+U+Y+p+X+Z+U+`+q+I.U+0. @>+S g .@+@& & . . ",
". . & & @@#@$@%@&@b+*@=@-@;@>@M+8+!.'+<+e+,@7+o.S.>@'@)@'+!.)@:.,@n+-@n.,@e+++G !@a e.& & . . ",
". . & & ].4 r 4 ~@5.l p+{@]@'@1.~@P.^@/@1.'@N.{@6.'@J+/@0.s+~@1.'@6.{@N.'@1.(@4 r 4 ].& & . . ",
". . & & _@:@<@[@s+5 }@0+b+0.|@I.{+*@1@2@Y , 0.b+3@F.I.{+1@*@{+ +4@K.b+V+4@5@-+6@7@8@{.& & . . ",
". . & & M i+9@k 0@K.&.N.I.6+#.n+a@b@S+]@c@d@N.R.N.e@f@}.l+b@g@n.h@N.I.N.i@7+0@c u $.M & & . . ",
". . & & M j@j+7 4+k@e@l@~.m@n@0+o@p@l+q@&+r.r@/@Y.r.&+q@s@p@]@f+M.m@~.l@t@s+4+<@u@v@M & & . . ",
". . & & W 4 j 4 s+5.w@0.G c@q+~.{+1@x@U.h+y@2+h+2+y@z@U.x@1@{+R.A@`+G 0.A@Y -+4 B@4 {.& & . . ",
". . & & ].8 3 C@~@5 l %.D@]@l E@/@F@}.h+S+G@H@C@H@G@I@5+o@P./@1.l 6.D@6+l 1.~@C@s 8 ].& & . . ",
". . & & e.Q+J@V V.b+k.u.K@c@o.G K+1@!@s L@M@=+#+=+M@L@#+k N@d+e+t.G.K@O@t.C.P@c Q@$.e.& & . . ",
". . & & R@S@T@L U@Q.c@H.~.J.V+F.V@E+W@4 j D X@D X@D C 4 Y@y@W+|@n.V.~.H.} q+U@#@Z@`@R@& & . . ",
". . & & Y.4  #4 Y H+>+.+e E@w.D@z@.#+# +<@v @#R ## .7  ++#6 z@D@T+E@e .+>+H+Y 4  #4 Y.& & . . ",
". . & & *+4  .4 $#:+d+&.8 U.x+5+d %#&#'@*#=#-#K ;#>#*#G &#,#d j.8+U.8 &.8+E+;@4 5@4 *+& & . . ",
". . & & e.!@0 '#_+j.m@q+f+d+N.s )#x !#v j+~#{#]#^#~#/#~.!#x b.l N.++f+J.N.b+(#_#v@:#e.& & . . ",
". . & & e.!@S <#_+x T.q+c@d+l@[#)#h+B@v j+}#3 ]#|#}#/#~.B@h+b.#+X+++c@J.X+o+(#_#1#u@e.& & . . ",
". . & & *+4 v 4 $#[+2#,.w+M./+z@d 3#4#3 5#=#-#R+;#>#5#k+4#6#d z@]+M.w+,.]+A+7#4  +4 |+& & . . ",
". . & & Y.4  #4 Y H+>+.+e E@w.D@z@.#+# +<@v 8#9#8# .7  ++#6 z@D@T+E@'..+>+H+Y 4  #4 Y.& & . . ",
". . & & R@0#a#K U@Q.c@T+I.V.V+F.V@E+W@4 j D h+D h+D C 4 Y@y@W+|@n+Q.~.V.} q+U@#@b#c#R@& & . . ",
". . & & @@$.d#2 V.b+e#u.K@c@o.G K+1@!@G f#g#=+a.=+g#f#h#k N@d+e+t.O@K@O@t.C.Q.V ^.i#e.& & . . ",
". . & & d.r 3 r (._.|.<.D@a@|.1.2.x.}.u P G@H@C@H@G@6 h+o@3.8.5.:.j#D@6.:.5.2.r s r d.& & . . ",
". . & & _@4 j 4 k#5.l#s+G -+r+~.2@1@x@U.h+E+R+h+R+E+z@U.x@1@y+R.m#c@G f+m#Y $#4 B@4 {.& & . . ",
". . & & M E n#q 4+k@,.T.I.<.n@0+o@l+I@q@&+r.d#o#[+r.&+q@p#l+]@f+M.<.I.T.&.s+4+7@q#b.M & & . . ",
". . & & M Q+r#k 0@K.&.N.I.6+#.n+a@b@S+]@c@d@N.R.N.e@f@}.l+b@g@n.s#N.I.m@i@7+0@0#t#$.M & & . . ",
". . & & W [@o+6@`+5.}@;@b+-+|@~.u#*@1@{+E@4@c@b+v#F. +u#1@*@u#.+4@c@b+s+m.E@W.6@7@w#{.& & . . ",
". . & & ].4 r 4 x#5 l m+{@o@l J+(@P.y#z#1.l m@{@6+l J+(@K.s+(@1.l 6+{@m@l 1.A#4 C@4 ].& & . . ",
". . & & e.#@B#%@&@b+).C#>.0.>@M+8+'+-.<+e+,@v.>.c@>@'@)@-.'+)@:.,@W.>.W.,@e+p.G _+K e.& & . . ",
". . & & P+.@R+D#>+w.c@ @~.U+k#V.W+N.%.Y+p.K.q+.+ @f+J.Y+T.N.Z+J.-+U+~. @V+H.>+S g Q++@& & . . ",
". . & & Y.e x (.G+E#I+J+'.1.K+$+M+:.G %+Z.`.J+~.J+`.Z.%+|.:.:.@+++1.b Y I+E#G+(.F#b Y.& & . . ",
". . & & e.4 4 4 4.z@w.F@w+^+G#1 y+%.6 H#j.`.#.8 u.)@b+y+6 %.y+b+>+^+w+u.>+x $#4 4 4 *+& & . . ",
". . & & e.C.f.u+l+x %.m.y#++T.:._+n+f+X.1 %.q+y#r+T.:.X.0.s+_+o+%.r+y#q+%.1 l+s 9 b+e.& & . . ",
". . & & e.I#h+V 4+x l@J.7+8+6+|.6.0+a+7.o+N.c+7+d+6+|.9+f+g+9+C.N.d+7+c+N.o+4+J#h+K#e.& & . . ",
". . & & |+L#M#~.S.S+8+#.8 ,+!.N#!+T.~+{+;+<+q.w ^+'+[+!+_+T.!+[+x+,+8 #.x+Y.O#P#h+=+Q#& & . . ",
". . & & Y.4 4 4 R#Z.2# +8..+p.@+5._.#+1.$+w. +'. +w.$+1._._.l &+Q..+8.~.2#Z.R#4 4 4 Y.& & . . ",
". . & & B.<@S#3 -.O.f@c+I.p.s+L.#.N.T.^+O.7+++R.w.0., ^+<.N.#., 7+p.~.w.0.m.-.s _+d B.& & . . ",
". . & & @@B#<@J@m#o+).&.m.T#t.|.H.U#r.w.o+).t@m.v.t.|.++r.q.H.C.).y.m.V#).o+F.E W#X#e.& & . . ",
". . & & Y#l Z#/.8.#+o+N.[.x@C.5 '.3.4.b #+o+9+[.q@o+5 '.0.`#'.#+C.q@[.9+o+#+ $=+_#G Y#& & . . ",
". . & & _@4 4 4 ;.*.=.!. ...+.@.,.$.%.&.*.=.-. .;.o.D ,.%.$.,.'.).-. .!.).~.Y+4 4 4 {.& & . . ",
". . & & M <@k 3 4 5 n 7 4 8 !@0 4 4 R P b 4 1 U d 4 e 2 T 4 4 U .$j 4 O V l 4 l +$d M & & . . ",
". . & & n @$o g 4 p 1 H r s #$_#v w $$%$y 4 z &$c 4 1 *$1#C D =$-$G 4 `@;$J 4 K >$V n & & . . ",
". . & & | 1 k 3 4 5 N 7 4 8 P 0#4 4 R P b 4 1 S d 4 e 2 R+4 4 U .$j 4 7 `@l 4 l S+d | & & . . ",
". . % & % ; > _ / : ! < { ] ! ^ / ( _ ' : ! < { [ ! ^ / ( _ ' : ! [ { < ! : ' _ > } % & & . . ",
"  . = & & & & & & & & & & & & & & & & & & & & & & & & & & & & & & & & & & & & & & & & & - .   ",
"  . # $ % & & & & & & & & & & & & & & & & & & & & & & & & & & & & & & & & & & & & & % $ * .   ",
"    . . . . . . . . . . . . . . . . . . . . . . . . . . . . . . . . . . . . . . . . . . .     ",
"        . . . . . . . . . . . . . . . . . . . . . . . . . . . . . . . . . . . . . . .         "};
