/* XPM */
static const char* back_red_1_xpm[] = {
"47 62 501 2",
"  	c None",
". 	c #000000",
"+ 	c #060606",
"@ 	c #070707",
"# 	c #2E2E2E",
"$ 	c #B8B8B8",
"% 	c #FEFEFE",
"& 	c #FFFFFF",
"* 	c #B6B6B6",
"= 	c #B5B5B5",
"- 	c #F4D7D7",
"; 	c #EDA7A5",
"> 	c #EAA3A2",
", 	c #BF7B8C",
"' 	c #C78290",
") 	c #C98391",
"! 	c #D28C96",
"~ 	c #ECA4A3",
"{ 	c #D58E98",
"] 	c #C68190",
"^ 	c #E9A1A1",
"/ 	c #D38D97",
"( 	c #ECA7A5",
"_ 	c #F4D8D8",
": 	c #F7F7F7",
"< 	c #EEBAB9",
"[ 	c #E56866",
"} 	c #E97B7A",
"| 	c #E4625F",
"1 	c #DF4643",
"2 	c #E4605E",
"3 	c #E97E7C",
"4 	c #E56765",
"5 	c #E04A47",
"6 	c #E97F7D",
"7 	c #E77674",
"8 	c #E66F6C",
"9 	c #E25552",
"0 	c #E56A67",
"a 	c #E87775",
"b 	c #E25855",
"c 	c #E77D7A",
"d 	c #E87876",
"e 	c #E04946",
"f 	c #E56A68",
"g 	c #E87B79",
"h 	c #E35F5C",
"i 	c #E46461",
"j 	c #E87A77",
"k 	c #E56966",
"l 	c #EFBFBE",
"m 	c #E67C7A",
"n 	c #E87C7A",
"o 	c #E56C69",
"p 	c #E66E6B",
"q 	c #E76F6D",
"r 	c #E87A78",
"s 	c #E66F6E",
"t 	c #E6706F",
"u 	c #E25653",
"v 	c #E04D4A",
"w 	c #E77977",
"x 	c #E56865",
"y 	c #E87776",
"z 	c #E36360",
"A 	c #E87574",
"B 	c #E56D6A",
"C 	c #E77876",
"D 	c #E25A57",
"E 	c #E67370",
"F 	c #E66A68",
"G 	c #E4615E",
"H 	c #DF4744",
"I 	c #E46865",
"J 	c #E66D6B",
"K 	c #E56E6B",
"L 	c #E78280",
"M 	c #E17373",
"N 	c #E77978",
"O 	c #E97D7C",
"P 	c #E77573",
"Q 	c #E87D7A",
"R 	c #E77472",
"S 	c #E87D7C",
"T 	c #E87977",
"U 	c #E35F5D",
"V 	c #E77875",
"W 	c #E27979",
"X 	c #C35764",
"Y 	c #ECC3C2",
"Z 	c #E25C59",
"` 	c #E79391",
" .	c #ECC1C0",
"..	c #E25C5A",
"+.	c #ECBFBE",
"@.	c #E89B99",
"#.	c #E15553",
"$.	c #EDCDCC",
"%.	c #E58281",
"&.	c #E68583",
"*.	c #EDCFCE",
"=.	c #E15956",
"-.	c #E79796",
";.	c #E79795",
">.	c #E5807F",
",.	c #E68785",
"'.	c #E89B9A",
").	c #ECBBBA",
"!.	c #ECC4C3",
"~.	c #E79491",
"{.	c #ECBEBD",
"].	c #C05A68",
"^.	c #C45864",
"/.	c #E46360",
"(.	c #E35E5B",
"_.	c #E15451",
":.	c #E2615E",
"<.	c #E26461",
"[.	c #E68584",
"}.	c #F1F1F1",
"|.	c #E78E8C",
"1.	c #E26563",
"2.	c #E25E5C",
"3.	c #E05451",
"4.	c #EED3D3",
"5.	c #EED8D7",
"6.	c #E15552",
"7.	c #E2605D",
"8.	c #E68987",
"9.	c #E68B89",
"0.	c #E26663",
"a.	c #E15350",
"b.	c #E87572",
"c.	c #C35C69",
"d.	c #C75B65",
"e.	c #E9807E",
"f.	c #E46764",
"g.	c #E77572",
"h.	c #EAADAC",
"i.	c #E36C6A",
"j.	c #E79694",
"k.	c #EED3D2",
"l.	c #E9A4A3",
"m.	c #EED6D5",
"n.	c #E89C9B",
"o.	c #EBB5B4",
"p.	c #ECC6C5",
"q.	c #EDC8C7",
"r.	c #EBB6B5",
"s.	c #E36967",
"t.	c #E89A98",
"u.	c #EED5D5",
"v.	c #E89897",
"w.	c #EDCACA",
"x.	c #E89D9C",
"y.	c #EED5D4",
"z.	c #E9A5A4",
"A.	c #E9AAA8",
"B.	c #E77270",
"C.	c #E46664",
"D.	c #E97E7B",
"E.	c #C65E6A",
"F.	c #D4676D",
"G.	c #E9817E",
"H.	c #E46260",
"I.	c #ECBCBB",
"J.	c #E9A8A7",
"K.	c #EDD3D2",
"L.	c #EAAFAE",
"M.	c #E15855",
"N.	c #EAAEAD",
"O.	c #EED6D6",
"P.	c #E9A2A1",
"Q.	c #EDCAC9",
"R.	c #E58381",
"S.	c #E68684",
"T.	c #EED4D3",
"U.	c #EDCBCA",
"V.	c #EAACAB",
"W.	c #E15856",
"X.	c #EAB1B0",
"Y.	c #EAB6B5",
"Z.	c #E97F7C",
"`.	c #D36B71",
" +	c #E57674",
".+	c #E15A57",
"++	c #F0EDED",
"@+	c #E15A58",
"#+	c #EAB0AF",
"$+	c #F1EFEF",
"%+	c #E15C59",
"&+	c #E26361",
"*+	c #F1F0F0",
"=+	c #EAABA9",
"-+	c #E15C5A",
";+	c #E15653",
">+	c #E15754",
",+	c #EBBBBA",
"'+	c #F0EBEA",
")+	c #E15654",
"!+	c #E57C7A",
"~+	c #C95D67",
"{+	c #E35D5B",
"]+	c #E47775",
"^+	c #EBB7B6",
"/+	c #EDCCCB",
"(+	c #DF4946",
"_+	c #ECC0BF",
":+	c #E47270",
"<+	c #EFE2E2",
"[+	c #E57F7D",
"}+	c #F0E4E4",
"|+	c #E47572",
"1+	c #EBBCBB",
"2+	c #E57E7C",
"3+	c #ECC3C3",
"4+	c #DF4A47",
"5+	c #EDD0CF",
"6+	c #EED1D1",
"7+	c #E35B58",
"8+	c #C8616C",
"9+	c #EA8382",
"0+	c #E87674",
"a+	c #E58482",
"b+	c #E36D6B",
"c+	c #EAB1AF",
"d+	c #EED4D4",
"e+	c #E26664",
"f+	c #E68988",
"g+	c #EED7D7",
"h+	c #EFDADA",
"i+	c #E36A67",
"j+	c #E68786",
"k+	c #EAB3B1",
"l+	c #E68A88",
"m+	c #E5817F",
"n+	c #EA827F",
"o+	c #C75A65",
"p+	c #E97F7E",
"q+	c #E47A78",
"r+	c #E36A68",
"s+	c #E9A6A5",
"t+	c #EED9D9",
"u+	c #EFD8D8",
"v+	c #E36865",
"w+	c #E9A9A8",
"x+	c #EAABAA",
"y+	c #EFD6D6",
"z+	c #EED8D8",
"A+	c #E58280",
"B+	c #E47876",
"C+	c #E97D7B",
"D+	c #C45D69",
"E+	c #C75B66",
"F+	c #EEDBDA",
"G+	c #E47370",
"H+	c #EDD0D0",
"I+	c #EDCCCC",
"J+	c #EBBDBC",
"K+	c #EFE7E7",
"L+	c #F0E9E9",
"M+	c #E3706E",
"N+	c #EBB9B8",
"O+	c #E57D7B",
"P+	c #C65F6A",
"Q+	c #E56C6A",
"R+	c #E25E5B",
"S+	c #F0ECEC",
"T+	c #E15D5A",
"U+	c #EBB4B3",
"V+	c #F1EEEE",
"W+	c #E26462",
"X+	c #E26765",
"Y+	c #EAAFAD",
"Z+	c #E2605E",
"`+	c #E15B58",
" @	c #F0EAE9",
".@	c #D76A6E",
"+@	c #EA8483",
"@@	c #E66F6D",
"#@	c #EED8D6",
"$@	c #ECC2C1",
"%@	c #ECC5C5",
"&@	c #EED7D6",
"*@	c #E66D6A",
"=@	c #EA8381",
"-@	c #D76F73",
";@	c #C65A65",
">@	c #E56562",
",@	c #EAB2B1",
"'@	c #EDD4D4",
")@	c #ECC1C1",
"!@	c #EBBAB9",
"~@	c #EED6D4",
"{@	c #E89C9A",
"]@	c #E89896",
"^@	c #E9AEAD",
"/@	c #E56664",
"(@	c #E0514E",
"_@	c #E2625F",
":@	c #F1F2F2",
"<@	c #E68C8A",
"[@	c #E26260",
"}@	c #E0514F",
"|@	c #E0524F",
"1@	c #E0504D",
"2@	c #E14F4D",
"3@	c #E04E4B",
"4@	c #E25F5C",
"5@	c #E89E9D",
"6@	c #E79593",
"7@	c #F0E5E5",
"8@	c #E9A4A2",
"9@	c #EFDAD9",
"0@	c #E9A3A2",
"a@	c #E79291",
"b@	c #EFDBDB",
"c@	c #E8A09E",
"d@	c #E98482",
"e@	c #E6716F",
"f@	c #E87A79",
"g@	c #E58685",
"h@	c #EECFCF",
"i@	c #EDCDCD",
"j@	c #E7908E",
"k@	c #E57B79",
"l@	c #EED0CF",
"m@	c #E68D8C",
"n@	c #E79492",
"o@	c #E97A78",
"p@	c #E98381",
"q@	c #E27978",
"r@	c #E67270",
"s@	c #EFD9D9",
"t@	c #E68886",
"u@	c #EED9D8",
"v@	c #ECC7C7",
"w@	c #E47977",
"x@	c #E77271",
"y@	c #E04C49",
"z@	c #EFD7D7",
"A@	c #E7918F",
"B@	c #E79493",
"C@	c #E46F6C",
"D@	c #E66E6C",
"E@	c #E46F6D",
"F@	c #E78F8D",
"G@	c #E79695",
"H@	c #EED2D2",
"I@	c #E9A1A0",
"J@	c #E04B48",
"K@	c #E68D8B",
"L@	c #EFA09F",
"M@	c #F0A6A4",
"N@	c #DF4845",
"O@	c #E87976",
"P@	c #E87978",
"Q@	c #E36C69",
"R@	c #E89F9E",
"S@	c #E79290",
"T@	c #E4605D",
"U@	c #F3BCBB",
"V@	c #F9DDDC",
"W@	c #E35C5A",
"X@	c #E4615F",
"Y@	c #EDD4D3",
"Z@	c #E9ABA9",
"`@	c #EA8482",
" #	c #D5686D",
".#	c #EAADAB",
"+#	c #EB8987",
"@#	c #E7726F",
"##	c #EB8A89",
"$#	c #EED7D5",
"%#	c #EAB5B4",
"&#	c #E66C6A",
"*#	c #E87875",
"=#	c #D56D72",
"-#	c #E1524F",
";#	c #E36E6C",
">#	c #FCF0F0",
",#	c #E25956",
"'#	c #E35C59",
")#	c #FDF3F3",
"!#	c #E36F6C",
"~#	c #E15E5B",
"{#	c #EDCECE",
"]#	c #E56967",
"^#	c #EB8F8D",
"/#	c #F9DBDA",
"(#	c #F2B2B1",
"_#	c #EC918F",
":#	c #F3B8B7",
"<#	c #F2B6B5",
"[#	c #EC9391",
"}#	c #F2B1B0",
"|#	c #E3615F",
"1#	c #EC9290",
"2#	c #E35A58",
"3#	c #C75F6B",
"4#	c #E15F5D",
"5#	c #E77471",
"6#	c #E66C69",
"7#	c #E98280",
"8#	c #F6CBCB",
"9#	c #E3605D",
"0#	c #EFA4A2",
"a#	c #E1605E",
"b#	c #E9807D",
"c#	c #E36B69",
"d#	c #E15F5C",
"e#	c #F7D1D1",
"f#	c #EE9F9E",
"g#	c #E1605D",
"h#	c #E87573",
"i#	c #EDCECD",
"j#	c #E4716F",
"k#	c #EB8E8C",
"l#	c #F9DCDC",
"m#	c #E3605E",
"n#	c #FDF1F1",
"o#	c #E56B69",
"p#	c #E87D7B",
"q#	c #E66D6C",
"r#	c #EB8886",
"s#	c #EB8A88",
"t#	c #EA8683",
"u#	c #EED1D0",
"v#	c #E89A99",
"w#	c #F4BEBD",
"x#	c #F9DEDD",
"y#	c #EED2D1",
"z#	c #E98584",
"A#	c #EED0D0",
"B#	c #EE9B9A",
"C#	c #E87C79",
"D#	c #E6706E",
"E#	c #EEDAD9",
"F#	c #F0E6E6",
"G#	c #EFDCDB",
"H#	c #E9A2A0",
"I#	c #C15A68",
"J#	c #E17372",
"K#	c #E47472",
"L#	c #E47976",
"M#	c #EDC7C6",
"N#	c #E07272",
"O#	c #EA8583",
"P#	c #EDCFCF",
"Q#	c #E58483",
"R#	c #E87B78",
"S#	c #E07777",
"T#	c #EFE3E3",
"U#	c #EFD8D7",
"V#	c #EEDADA",
"W#	c #E56764",
"X#	c #E04F4C",
"Y#	c #E9807F",
"Z#	c #EDD3D3",
"`#	c #EA8582",
" $	c #E77774",
".$	c #E36866",
"+$	c #F0E8E8",
"@$	c #E46361",
"#$	c #EFDDDD",
"$$	c #E5807E",
"%$	c #E46562",
"&$	c #EA8484",
"*$	c #CA5E67",
"=$	c #E56F6D",
"-$	c #F0E3E3",
";$	c #E47674",
">$	c #C9626C",
",$	c #E9A6A4",
"'$	c #E46766",
")$	c #E77371",
"!$	c #E9A7A6",
"~$	c #ECC4C2",
"{$	c #EDC9C9",
"]$	c #E89997",
"^$	c #EDD1D1",
"/$	c #E9A5A3",
"($	c #E46967",
"_$	c #E87472",
":$	c #E77370",
"<$	c #ECBFBF",
"[$	c #E79896",
"}$	c #E8807D",
"|$	c #E77877",
"1$	c #E56B68",
"2$	c #E77A78",
"3$	c #E36D6A",
"4$	c #E46966",
"5$	c #E57271",
"6$	c #E77776",
"7$	c #E2605F",
"8$	c #E26865",
"9$	c #EFBAB9",
"0$	c #E97D7A",
"a$	c #E87673",
"b$	c #F0C0BF",
"        . . . . . . . . . . . . . . . . . . . . . . . . . . . . . . . . . . . . . . .         ",
"    . . + @ @ @ @ @ @ @ @ @ @ @ @ @ @ @ @ @ @ @ @ @ @ @ @ @ @ @ @ @ @ @ @ @ @ @ @ @ + . .     ",
"  . # $ % & & & & & & & & & & & & & & & & & & & & & & & & & & & & & & & & & & & & & % $ # .   ",
"  . * & & & & & & & & & & & & & & & & & & & & & & & & & & & & & & & & & & & & & & & & & = .   ",
". . % & % - ; > , ' ) ! ~ { ) ] , ^ > , ' ) / ~ / ) ' , > ^ , ] ) { ~ / ) ' , > ( _ % & : .   ",
". . & & < [ } | 1 2 3 4 1 5 6 7 1 1 8 3 9 1 0 a [ 1 b c 8 1 1 d 6 e 1 f g h 1 i j k l & : .   ",
". . & & m n o p 1 q 0 r 1 i s t u v w o x 1 y z A 1 f B C 5 D E F G H r I J 1 p K r L & : .   ",
". . & & M [ N | 1 2 g 4 1 5 O P 1 1 8 Q u 1 0 R k 1 b g p 1 1 C S e 1 f T U 1 i V k W & : .   ",
". . & & X 1 1 1 Y Z `  ...+.@.#.$.%.&.*.=.-.+... .;.=.*.>.,.$.#.'.)...!.~.Z {.1 1 1 ].& : .   ",
". . & & ^./.a (._.:.<.[.}.|.1.2.3.4.5.6.7.1.8.}.9.<.7.6.5.5.6.2.0.|.}.[.0.:.a.U b.i c.& : .   ",
". . & & d.e.f.g.h.i.j.k.l.m.n.0.o.p.q.r.s.t.4.l.u.v.s.r.!.w.o.0.x.y.z.k.v.i.A.B.C.D.E.& : .   ",
". . & & F.[ G.H.I.J.K.L.M.N.O.P.Q.R.S.Q.l.T.N.M.L.u.l.q.R.&.U.P.u.V.W.X.T.J.Y.i Z.k `.& : .   ",
". . & &  +1 1 1 .+++o.=.6.@+#+$+7.:.:.7.$+#+@+6.=.o.++%+:.:.&+*+=+-+;+>+,+'+)+1 1 1 !+& : .   ",
". . & & ~+{+8 D O.]+^+/+(+q._+:+<+[+R.}+|+1+q.(+/+1+|+}+2+&.<+:+_+3+4+5+^+]+6+7+o {+8+& : .   ",
". . & & d.9+J 0+a+b+[.c+d+^+8.e+f+g+h+f+i+j+k+d+o.S.i+f+g+h+l+e+f+^+d+c+j+b+m+R J n+E.& : .   ",
". . & & o+k p+H.q+r+[+s+t+N.m+1.[+y.u+[+v+m+w+t+x+[+v+[+y+z+[+1.A+N.t+s+m+r+B+i C+k D+& : .   ",
". . & & E+1 1 1 F+G+o.H+(+I+J+b+K+2+A+L+M+N+I+(+H+N+M+L+O+R.K+b+J+q.(+d+o.G+u.1 1 1 P+& : .   ",
". . & &  +u Q+a.R+S+N+T+>+2.U+V+<.0.0.<.V+U+2.>+T+N+S+7.0.W+X+$+Y+Z+>+`+J+ @.+9 o u !+& : .   ",
". . & & .@+@@@d r.Y+y.=+M.w+z+w+3+A+a+3+V.m.w+M.=+#@V.$@m+[.%@w+&@J.M.V.m.Y+c+a *@=@-@& : .   ",
". . & & ;@*@p+>@,@i+j.'@@.&@n.&+N+_+)@,+e+t.T.@.&@v.e+,+{.!.!@&+x.~@{@u.]@i+^@/@6 *@D+& : .   ",
". . & & ^.1 H 1 (@7._@R.:@<@[@T+}@T.5.}@2.[@,.:@8._@2.}@5.g+|@T+&+<@:@R.&+7.1@1 H 1 c.& : .   ",
". . & & X 2@[ 3@z+4@5@u+i+g+J.M.}+6@]@7@`+8@m.i+9@0@`+7@a@t.}+M.J.T.i+b@c@4@k.3@x 2@].& : .   ",
". . & & M d@e@f@g@m.h@,.M.j+i@m.j@k@k@j@O.I+j+M.,.l@d+m@q+q+n@u.Q.j+W.,.k.m.%.o@@@p@q@& : .   ",
". . & & M r@p+k g@s@h@t@W.8.i@u@j@O+O+j@}.v@w@}@B+U.$+m@k@2+n@u@Q.8.=.j+k.s@%.0 Z.x@q@& : .   ",
". . & & X 1 y@1 z+7.c@z@W+m.w+W.}+A@B@w.C@*@J D@J *@E@U.F@G@}+W.w+H@1.h+I@7.k.1 J@1 ].& : .   ",
". . & & ^.e | e (@7._@R.}.<@[@T+}@l@K@J C L@M@N@M@L@O@8 j@4.|@T+&+<@}.R.&+7.1@e G e c.& : .   ",
". . & & o++@B.P@N.Q@j.H@R@u.n.1.r.S@r T@U@V@W@U W@V@U@X@3 6@^+1.x.Y@c@4.v.Q@Z@j B.`@D+& : .   ",
". . & &  #T r *@!@.#y.L.W.N.u@J.3+*@+#1 v u @#u @#u y@1 ##@@!.J.g+V.=.c+$#.#%#&#j *#=#& : .   ",
". . & &  +1 -#1 %+S+^+@+;+-+,@}.;#3 >#,#k '#)#D@)#D 4 ,#>#=@!#}..#~#;+=.1+ @M.1 -#1 !+& : .   ",
". . & & ~+1 '#1 u@G+o.{#(+U.J+i.]#^#/#i (#_#:#D@<#[#}#|#/#1#0 b+J+p.4+H@o.G+T.1 2#1 3#& : .   ",
". . & & d.e.d R [+i.R.x+t+k+S.4#5#6#5 b 7#8#9#0#H.8#e.D 5 6#R a#,.k+t+x+[.i.O+P g.6 E.& : .   ",
". . & & o+b#P R [+c#m+x+m.k+a+d#5#D@J@b `@e#2 f#H.e#7#D J@D@R g#&.k+m.x+R.c#O+h#*#b#D+& : .   ",
". . & & ~+1 D 1 u@]+^+i#(+w._+j#]#k#l#/.}#_#:#s <#[#}#m#l#_#0 j#_+%@(+H@^+]+T.1 ,#1 8+& : .   ",
". . & &  +1 -#1 %+++^+@+;+-+,@:@;#C+>#,#k '#n#o#n#D 4 ,#>#7#!#:@.#~#;+=.1+'+M.1 -#1 !+& : .   ",
". . & &  #T p#q#!@.#y.Y+M.h.u@J.3+*@r#1 v u 8 u 8 u y@1 s#@@!.J.g+x+W.#+$#.#%#8 O@d =#& : .   ",
". . & & o+t#R g h.r+n@u#R@y.v#W+U+A@r H.w#x#W@{+W@x#w#/.3 6@o.W+@.4.c@y#G@r+A.g g.z#D+& : .   ",
". . & & ^.H H.H _.:.<.[.}.|.1.2.3.A#K@8 g B#0#N@0#B#C#D#j@y.6.2.0.|.}.[.0.:.a.H | H c.& : .   ",
". . & & X 1 y@1 E#7.I@u+W+m.=+W.F#A@B@w.C@@@@@8 @@@@E@U.F@G@F#W.=+H@1.G#H#7.y.1 J@1 I#& : .   ",
". . & & J#B.6 [ A+s@I+R.M.R.Q.g+9.w@q+9.$+!.K#(@K#v@$+t@L#k@|.u@M#R.W.A+l@z@2+]#C+E W & : .   ",
". . & & N#O#@@o@8.5.6+f+W.f+P#m.a@O+2+a@O.{#f+W.f+y#O.j@!+[+j.m./+f+=.8.d+m.Q#R#@@d@S#& : .   ",
". . & & X 3@x v m.7.R@g+i+m.J.W.<+6@]@T#-+8@d+i+U#0@-+T#a@v#<+W.J.4.i+V#c@7.u#3@W#3@].& : .   ",
". . & & ^.1 N@1 X#4@:.A+:@9._@T+1@T.5.1@2._@[.:@j+:.2.1@5.O.1@T+[@9.:@A+[@4@X#1 N@1 c.& : .   ",
". . & & ;@*@Y#>@,@i+j.Z#t.~@n.&+N+{._+,+e+t.k.t.m.v.e+,+1+$@!@&+x.d+v#d+]@i+^@/@Z.*@D+& : .   ",
". . & & .@`#8 C r.,@m.V.W.=+E#h.3+a+S.3+L.g+=+W.V.u@L.$@R.j+%@h.z+w+=.h.g+,@c+ $p =@-@& : .   ",
". . & &  +u o#a.R+S+N+T+;+2.U+V+<.0.0.<.V+U+2.;+T+N+S+7.1.0.X+$+Y+Z+>+`+J+ @.+9 [ u !+& : .   ",
". . & & E+1 1 1 F+;#,@u#(+$.,+.$K+[+R.+$c#^+$.(+u#^+c#+$O+&.K+.$,+q.4+y.,@;#u.1 1 1 P+& : .   ",
". . & & d.k Y#@$q+Q@[+s+#$N.A+0.[+&@h+[+.$m+w+#$x+$$.$[+u+V#[+0.R.N.#$s+m+Q@B+%$Z.k E.& : .   ",
". . & & o+&$D@d a+c#R.c+d+^+,.1.8.g+h+f+v+S.k+d+o.a+v+f+g+h+f+1.j+^+d+c+[.c#m+ $&#=@D+& : .   ",
". . & & *$'#=$b O.w@N+/+(+q.)@K#<+[+R.-$;$J+q.(+/+J+;$-$2+&.<+K#)@3+4+5+N+w@6+,#p '#>$& : .   ",
". . & &  +1 1 1 @+++r.=.6.@+c+$+7.:.:.7.$+c+@+6.=.r.++-+:.:.<.*+x+-+;+>+,+'+>+1 1 1 !+& : .   ",
". . & & F.[ Y#H.{.,$y.k+M.c+z+P.I+a+,.I+l.u.c+M.k+O.l.U.R.t@{#P.m.Y+W.U+d+J.N+i Z.k `.& : .   ",
". . & & o+G.'$)$!$v+;.l@l.H@v.1.L.p.M#c+v+G@l@l.k.B@v+c+~${$#+1.]$^$z.l@B@c#/$@#($6 D+& : .   ",
". . & & ^.H._$(.>+:..$9.}.j@v+4@M.d+5.W.:.v+9.}.K@X+:.W.5.5.W.4@.$j@}.j+.$[@)+h :$H.c.& : .   ",
". . & & X 1 1 1 3+=.-. ...<$n.#.*.%.&.H+=.[$+...$@-.=.H+>.,.*.#.n.I...!.B@Z _+1 1 1 ].& : .   ",
". . & & M [ } H.1 2 p#4 1 5 }$7 1 1 @@3 9 1 0 a [ 1 b n 8 1 1 |$6 e 1 1$g h 1 i 2$[ W & : .   ",
". . & & m g 3$p 1 q 4$j 1 i F 5$u v 6$($x 1 y 7$A 1 f ($V 5 D =$Q+G H r 8$J 1 p 3$O@L & : .   ",
". . & & 9$[ o@| 1 2 C#4 1 5 3 a 1 1 8 0$9 1 0 a$[ 1 b g p 1 1 C 3 e 1 f w h 1 i V [ b$& : .   ",
". . % & % - ; > , ' ) / ~ { ) ] , ^ > , ' ) / ~ / ) ' , > ^ , ] ) { ~ / ) ' , > ( _ % & : .   ",
"  . * & & & & & & & & & & & & & & & & & & & & & & & & & & & & & & & & & & & & & & & & & = .   ",
"  . # $ % & & & & & & & & & & & & & & & & & & & & & & & & & & & & & & & & & & & & & % $ # .   ",
"    . . . . . . . . . . . . . . . . . . . . . . . . . . . . . . . . . . . . . . . . . . .     ",
"        . . . . . . . . . . . . . . . . . . . . . . . . . . . . . . . . . . . . . . .         "};
