/* XPM */
static const char* back_grey_2_xpm[] = {
"47 62 341 2",
"  	c None",
". 	c #000000",
"+ 	c #060606",
"@ 	c #070707",
"# 	c #2E2E2E",
"$ 	c #B8B8B8",
"% 	c #FEFEFE",
"& 	c #FFFFFF",
"* 	c #B5B5B5",
"= 	c #B6B6B6",
"- 	c #F7F7F7",
"; 	c #FDFCFC",
"> 	c #D3CBC6",
", 	c #AE9E96",
"' 	c #AC9B93",
") 	c #978277",
"! 	c #9A867C",
"~ 	c #9B867C",
"{ 	c #9F8C82",
"] 	c #AD9D94",
"^ 	c #A28F86",
"/ 	c #9A867B",
"( 	c #968176",
"_ 	c #AC9A92",
": 	c #9A857B",
"< 	c #A18D84",
"[ 	c #A18E84",
"} 	c #978176",
"| 	c #D2C9C5",
"1 	c #FCFCFB",
"2 	c #C2B5AF",
"3 	c #866D60",
"4 	c #A8968D",
"5 	c #765A4C",
"6 	c #8D766A",
"7 	c #9B877C",
"8 	c #9E8A80",
"9 	c #A6948A",
"0 	c #A08D83",
"a 	c #A08C83",
"b 	c #99857A",
"c 	c #A49188",
"d 	c #9D897F",
"e 	c #9E8B81",
"f 	c #9F8B81",
"g 	c #A59289",
"h 	c #A28E85",
"i 	c #9C877D",
"j 	c #8E776C",
"k 	c #BDB0A9",
"l 	c #937D72",
"m 	c #C7BBB5",
"n 	c #E3DDDA",
"o 	c #8F786D",
"p 	c #8F786C",
"q 	c #CCC2BD",
"r 	c #B6A8A0",
"s 	c #B5A69E",
"t 	c #958075",
"u 	c #CFC5C1",
"v 	c #BCAEA7",
"w 	c #B4A59D",
"x 	c #AE9D95",
"y 	c #C0B3AD",
"z 	c #B2A29B",
"A 	c #AF9F97",
"B 	c #BBADA6",
"C 	c #D1C7C3",
"D 	c #978278",
"E 	c #C5B9B3",
"F 	c #AF9F96",
"G 	c #B9ABA4",
"H 	c #D0C6C1",
"I 	c #C7BCB6",
"J 	c #8E776B",
"K 	c #81685B",
"L 	c #886F63",
"M 	c #8E766B",
"N 	c #927C71",
"O 	c #978177",
"P 	c #8C7569",
"Q 	c #947E73",
"R 	c #957F74",
"S 	c #968075",
"T 	c #917A6F",
"U 	c #907A6E",
"V 	c #897165",
"W 	c #806659",
"X 	c #775B4D",
"Y 	c #836A5E",
"Z 	c #BFB2AC",
"` 	c #856C5F",
" .	c #AB9990",
"..	c #C8BDB8",
"+.	c #856D60",
"@.	c #C9BDB8",
"#.	c #B2A29A",
"$.	c #7F6558",
"%.	c #D0C6C2",
"&.	c #D2C9C4",
"*.	c #82695C",
"=.	c #AB9B92",
"-.	c #CABFB9",
";.	c #AE9E95",
">.	c #D1C8C3",
",.	c #C8BCB7",
"'.	c #AD9C94",
").	c #82685C",
"!.	c #BFB1AB",
"~.	c #7E6456",
"{.	c #846B5F",
"].	c #B1A199",
"^.	c #8A7367",
"/.	c #7F6659",
"(.	c #8B7468",
"_.	c #A7958C",
":.	c #E6E2DF",
"<.	c #ECE8E6",
"[.	c #AB9A91",
"}.	c #E9E5E3",
"|.	c #EAE5E3",
"1.	c #82685B",
"2.	c #B4A49D",
"3.	c #B3A39B",
"4.	c #846B5E",
"5.	c #8B7367",
"6.	c #B7A8A1",
"7.	c #E4DFDC",
"8.	c #C1B5AE",
"9.	c #BCAFA8",
"0.	c #DDD6D2",
"a.	c #917B70",
"b.	c #B9AAA3",
"c.	c #E6E1DF",
"d.	c #E8E3E0",
"e.	c #CEC3BE",
"f.	c #DED7D3",
"g.	c #CEC4BF",
"h.	c #E7E1DF",
"i.	c #E7E2DF",
"j.	c #836A5D",
"k.	c #887064",
"l.	c #C5BAB4",
"m.	c #C4B8B2",
"n.	c #E6E1DE",
"o.	c #E9E4E2",
"p.	c #DED8D4",
"q.	c #A5938A",
"r.	c #DDD6D3",
"s.	c #C2B6B0",
"t.	c #856C60",
"u.	c #C9BEB8",
"v.	c #E8E4E2",
"w.	c #E8E2E1",
"x.	c #E8E3E1",
"y.	c #937F73",
"z.	c #B0A098",
"A.	c #8D7569",
"B.	c #FBFAF9",
"C.	c #856B5F",
"D.	c #876F62",
"E.	c #C8BDB7",
"F.	c #FDFDFD",
"G.	c #FCFBFB",
"H.	c #D0C7C2",
"I.	c #83695D",
"J.	c #90796F",
"K.	c #846A5E",
"L.	c #AA988F",
"M.	c #A49288",
"N.	c #D8D1CD",
"O.	c #E1DBD8",
"P.	c #795D50",
"Q.	c #DAD2CF",
"R.	c #988378",
"S.	c #F2EFED",
"T.	c #A6948B",
"U.	c #A39087",
"V.	c #F3F2F0",
"W.	c #9C887E",
"X.	c #D3CAC5",
"Y.	c #795E50",
"Z.	c #D6CECA",
"`.	c #F2F1EF",
" +	c #F2F0EE",
".+	c #D4CBC7",
"++	c #D8D1CC",
"@+	c #81675A",
"#+	c #887063",
"$+	c #8A7266",
"%+	c #9E8980",
"&+	c #E7E3E0",
"*+	c #A9978E",
"=+	c #EAE6E3",
"-+	c #EBE8E6",
";+	c #A7968D",
">+	c #CAC0BA",
",+	c #EBE7E5",
"'+	c #866E61",
")+	c #E8E4E1",
"!+	c #EBE7E4",
"~+	c #A39086",
"{+	c #EAE6E4",
"]+	c #9A857A",
"^+	c #897164",
"/+	c #AC9B92",
"(+	c #DCD5D2",
"_+	c #E5DFDD",
":+	c #D8D0CC",
"<+	c #F4F2F1",
"[+	c #F7F6F5",
"}+	c #988379",
"|+	c #E2DCD9",
"1+	c #D5CCC8",
"2+	c #F6F4F3",
"3+	c #DBD4D0",
"4+	c #8E786C",
"5+	c #AB9991",
"6+	c #FAF9F8",
"7+	c #FCFCFC",
"8+	c #FBFAFA",
"9+	c #CFC5C0",
"0+	c #876E62",
"a+	c #8B7368",
"b+	c #8E776A",
"c+	c #BAACA5",
"d+	c #C4B7B1",
"e+	c #E9E6E3",
"f+	c #C3B7B0",
"g+	c #D9D2CE",
"h+	c #C6BAB5",
"i+	c #E9E5E2",
"j+	c #C6BAB4",
"k+	c #BBADA7",
"l+	c #8B7467",
"m+	c #C1B4AE",
"n+	c #B8AAA2",
"o+	c #BDAFA9",
"p+	c #EAE6E5",
"q+	c #BEB1AA",
"r+	c #DAD3CF",
"s+	c #BAACA4",
"t+	c #C0B3AC",
"u+	c #B3A49C",
"v+	c #EDE9E7",
"w+	c #7E6356",
"x+	c #816659",
"y+	c #DAD3D0",
"z+	c #F2EFEE",
"A+	c #F5F3F2",
"B+	c #F4F1F0",
"C+	c #D9D1CE",
"D+	c #83695C",
"E+	c #866D61",
"F+	c #E3DEDA",
"G+	c #E0DAD6",
"H+	c #A9978F",
"I+	c #E5E0DE",
"J+	c #E9E4E1",
"K+	c #AA9990",
"L+	c #927C70",
"M+	c #E4DEDB",
"N+	c #E0DAD7",
"O+	c #E3DDD9",
"P+	c #EBE6E4",
"Q+	c #876F63",
"R+	c #BFB1AA",
"S+	c #B8A9A2",
"T+	c #E4E0DC",
"U+	c #E7E2E0",
"V+	c #8D766B",
"W+	c #C4B7B2",
"X+	c #EAE7E4",
"Y+	c #DCD5D1",
"Z+	c #EAE5E4",
"`+	c #8C7468",
" @	c #CDC3BE",
".@	c #DFD9D6",
"+@	c #F5F4F3",
"@@	c #E0D9D6",
"#@	c #F4F2F0",
"$@	c #90796E",
"%@	c #806759",
"&@	c #785D4F",
"*@	c #DFD8D5",
"=@	c #F5F2F1",
"-@	c #C9BEB9",
";@	c #B6A7A0",
">@	c #E3DEDB",
",@	c #E5E0DD",
"'@	c #866E62",
")@	c #C3B7B1",
"!@	c #BFB2AB",
"~@	c #F7F5F4",
"{@	c #EAE4E2",
"]@	c #ECE7E5",
"^@	c #DDD7D3",
"/@	c #DDD7D2",
"(@	c #E2DCD8",
"_@	c #E7E3E1",
":@	c #D9D1CD",
"<@	c #F0EEEC",
"[@	c #EAE7E5",
"}@	c #D9D0CC",
"|@	c #82695B",
"1@	c #7D6255",
"2@	c #7E6457",
"3@	c #7F6457",
"4@	c #7D6154",
"5@	c #D7CFCB",
"6@	c #D6CDC9",
"7@	c #8F776B",
"8@	c #CCC2BC",
"9@	c #E8E3E2",
"0@	c #CBC0BB",
"a@	c #8C7568",
"b@	c #D7CECA",
"c@	c #A18E85",
"d@	c #ECE9E7",
"e@	c #A08D84",
"f@	c #F1EFED",
"g@	c #F3F1F0",
"h@	c #937E72",
"i@	c #897064",
"j@	c #C7BBB6",
"k@	c #CABFBA",
"l@	c #C6BBB5",
"m@	c #E4DEDC",
"n@	c #E5DFDC",
"o@	c #B9ACA5",
"p@	c #81675B",
"q@	c #CABEB9",
"r@	c #B1A29A",
"s@	c #99847A",
"t@	c #B1A098",
"u@	c #998479",
"v@	c #9C887F",
"w@	c #9E8A81",
"x@	c #A6938A",
"y@	c #B1A198",
"z@	c #A59389",
"        . . . . . . . . . . . . . . . . . . . . . . . . . . . . . . . . . . . . . . .         ",
"    . . + @ @ @ @ @ @ @ @ @ @ @ @ @ @ @ @ @ @ @ @ @ @ @ @ @ @ @ @ @ @ @ @ @ @ @ @ @ + . .     ",
"  . # $ % & & & & & & & & & & & & & & & & & & & & & & & & & & & & & & & & & & & & & % $ # .   ",
"  . * & & & & & & & & & & & & & & & & & & & & & & & & & & & & & & & & & & & & & & & & & = .   ",
"  . - & ; > , ' ) ! ~ { ] ^ ~ / ( _ ' ) : ~ < ] [ ~ / } _ _ ( / ~ [ ] < ~ : ) ' , | 1 & % . . ",
"  . - & 2 3 4 5 6 7 8 9 0 8 0 a b 8 c 8 d c e ~ e c 8 f g 8 ~ { h i 8 9 8 7 j 5 4 3 k & & . . ",
"  . - & l m n o p q [ r s ] m t u f v w x y 7 | i k z A B e C D E F F G ^ H o o n I p & & . . ",
"  . - & J K 7 5 L M N O N o l O P Q R o p R S 6 t t o T S Q 6 O l M U ( l M V 5 7 K V & & . . ",
"  . - & W X Y X Z `  ...+.@.#.$.%.h 0 &.*.=.@.+.-.;.W >.0 h >.W ;.,.+.-.'.).!.X Y X ~.& & . . ",
"  . - & {.].w ^./.(.o _.% ].o V K :.<.*.^.o [.% '.o V K }.|.1.V o '.% [.o ^./.V 2.3.).& & . . ",
"  . - & 4.#.s 5.k Q 6.7.8.}.9.j q 0.0.H a.b.c.8.d.B p e.0.f.g.p B h.8.i.b.a.v ^.r ].j.& & . . ",
"  . - & k.'.3.3 l.m.n.,.4.I o.!.p.4 q.r.s.c.m t.u.v.y r.q.4 p.y w.I 4.,.x.8.E 4.2.] t.& & . . ",
"  . - & y.z.!.A.4.B.u C.j.D.E.F.A.A.A.V G.q 3 Y 3 q G.V A.A.A.F.E.D.j.4.H.B.I.A.!.z.J.& & . . ",
"  . - & K.L.M.P N.d H.O.P.r.Q.R.S.T.U.V.W.X.p.Y.O.Z.: `.U.T. +: Z.r.P.O..+7 ++5.T.4 @+& & . . ",
"  . - & #+] I $+%+Q _.I &+H.*+j 4 =+-+*+T ;+>+&+q 4 p 4 ,+,+4 p 4 q &+>+;+T d ^.E ].'+& & . . ",
"  . - & 1.*+a j / l g 8.,+>+T.j U.)+!+c T q.E ,+m 9 p ~+|.{+U.p 9 m ,+E q.T ]+6 ^ T.W & & . . ",
"  . - & ^+/+m.^.(+b g._+P.O.:+Q <+T.~+[+}+C |+P.7.1+S 2+~+T.2+S 1+O.P._+&.D 3+^.s.F '+& & . . ",
"  . - & 4+5+;+^.'+6+>.D.Y V >+7+o o p P 8+9+k.C.k.9+8+P p o o 7+>+V Y 0+| 6+` V L.L.a+& & . . ",
"  . - & b+].c+6 d+,.i.E 4.E e+f+3+;+g g+m w.m.3 h+o.m.g+g ;+3+m.)+E 4.E i+j+s.6 k+].l+& & . . ",
"  . - & 1.x w 3 m+Q n+c.o+p+q+M C r+g+.+T s+d.o+}.v j &.g+r+&.j v v.o+o.c+T t+C.s F W & & . . ",
"  . - & j.].u+k.~.^.6 q.& A 6 k.$.i.v+W V 6 L.& [.6 k.$.|.{+$.k.6 [.& L.6 V w+D.s z.x+& & . . ",
"  . - & K.#.w P y+$+k {+N }.,.*.z+6.w A+D.m+}.N <.m.C.B+w 6.B+C.m.|.N ,+8.0+C+(.r ].D+& & . . ",
"  . - & 6 5+F E+~+|.F+*+4.L.G+o.3.0 { ].v.|+H+3 L.n )+].{ 0 3.}.G+L.4.4 I+J+^ C.z.K+V & & . . ",
"  . - & L+F y 5.~+<.M+L.t.5+N+,+3.^ 0 ].,+n K+E+5+O+{+].0 ^ 3.,+G+5+t.H+I+P+^ ^.y z.J & & . . ",
"  . - & W L.g A.y+^.!.}.j v.E.j.z+w #.A+L 8.x.j P+m.t.B+#.w B+t.m.o.j {+2 D.C+(.;+_.~.& & . . ",
"  . - & Q+/+j+k.~.^.6 q.% F 6 k.$.i.<.W V 6 L.% 5+6 k.$.o.{+$.k.6 5+% L.6 V w+k.m.F C.& & . . ",
"  . - & 1.*+~+M R+Q S+T+o+o.k j e.r+g+>.a.G n.o+x.k+p u g+r+u p k+i.o+U+G a.k A.q.T.W & & . . ",
"  . - & V+'.2 ^.W+,.U+m t.h+X+f+Y+H+9 r+m U+j+E+I }.m.r+9 H+Y+m.i+h+t.h+Z+j+d+^.y F `+& & . . ",
"  . - & 4+L.5+L ` 6+H t.j.L u.7+M 6 6 ^.8+ @E+4.E+ @8+^.6 6 M 7+u.L j.C.C 6+4.0+/+H+a+& & . . ",
"  . - & Q+u+b.o y+b g.n P..@:+Q B+T.~++@}+C @@P.n 1+S #@~+T.#@S 1+.@P.n &.D g+p G u+t.& & . . ",
"  . - & j.] w E+d R *+E ,+g.K+o ;+{+<.4 N H+u.,+>+L.$@_.{+<.;+$@L.>+,+u.H+N d t.w , %@& & . . ",
"  . - & D+A z D.d Q _.E v.g.*+j ;+o.,+4 T ;+u.v.>+4 p _.=+P+;+p 4 >+v.u.;+T d E+2.F @+& & . . ",
"  . - & V u+s+p y+d H.n &@*@Q.R.B+9 ^ +@W.X.@@P.|+Z.: =@^ 9 =@: Z.*@&@n .+7 g+j G w E+& & . . ",
"  . - & 4+K+' L ` B.H.E+*.L -@F.M 6 6 ^.G.e.E+4.E+e.G.^.6 6 M F.-@L j.C.>.B.4.0+x H+a+& & . . ",
"  . - & J ' 2 V l.,.x.-@4.,.,+f+p.*+9 r.m v.I 3 -@p+m.r.9 *+p.m.o.,.C.E.|.m E V m+, l+& & . . ",
"  . - & 1.4 ^ 6 k l ;@>@o+v.v M q g+g+H U n+,@o+h.s+j e.g+r+g.j s+I+o+c.n+U v P g 9 W & & . . ",
"  . - & '@/+f+0+/.(.o _.% ].p V K &+v+*.^.o [.% '.o V K {+P+1.V o '.% [.o ^./.D.)@' {.& & . . ",
"  . - & W *+c A.Y+^.!@{+j }.-@j.<+w #.~@L s.{@j {+j+t.A+#.w A+t.j+v.j ]@s.L r+(._.9 ~.& & . . ",
"  . - & L+x m+$+f ,+O.T.4.T.^@,+, { e ' ,+N+9 3 T.G+P+' e { , ,+/@T.4.g n X+f $+y z.J & & . . ",
"  . - & 6 K+, 0+c |.T+K+4.K+(@_@2.0 { #.i+n H+3 L.7.v.#.{ 0 2.o.|+K+4.*+n.v.U.3 z.L.V & & . . ",
"  . - & {.3.S+M :@^.k }.N |.I Y <@6.w B+L m+x.N [@m.t.z+w 6.z+t.m.v.N =+m+L }@6 S+u+|@& & . . ",
"  . - & j.].w k.1@$+A.M.& , A.k.2@i.<.3@V A.*+& K+A.k.w+o.{+2@k.A.K+& *+A.V 4@D.;@z.x+& & . . ",
"  . - & ).x z 3 m+N S+_+b.}.k A.C 5@6@.+$@G c.b.v.k+6 &.6@5@| 6 k+U+b.d.G $@t+C.3.F W & & . . ",
"  . - & 7@].s+M d+8@9@m 4.j+<.I 3+*+9 g+0@o.E E+m ,+u.g+9 *+3+u.e+j+C.j+{+0@s.6 s+].a@& & . . ",
"  . - & 4+K+4 $+'+6+>.k.j.V >+7+o o p P 8+9+k.C.k.9+8+P p o o 7+>+V Y 0+| 6+` V L.L.a+& & . . ",
"  . - & ^+' m.^.(+D  @_+&@N+b@N <+9 ^ [+( H O.P.7.> Q 2+^ 9 2+Q > N+&@7.H ( 3+^.s.F '+& & . . ",
"  . - & 1.*+[ M / l g 8.<.>+T.j U.)+,+c T q.E <.m 9 p ~+=+{+U.p 9 m <.E q.T ]+A.U.9 W & & . . ",
"  . - & #+'.m V c@R L.u.&+&./+p [.P+d@' N K+q &+g.[.o [.p+]@/+o [.g.&+q K+N e@$+E A '+& & . . ",
"  . - & j.L.g P N.d H.O.P.r.g+R.f@T.U.g@W.X.f.Y.N+Z.: `.U.T.`.: Z.r.P.O.X.W.5@5.;+4 @+& & . . ",
"  . - & h@F !.(.j.B.9+t.1.E+,.F.P (.(.V G.8@C.j.C.8@G.V (.(.P F.,.E+*.j.H B.).(.!.A $@& & . . ",
"  . - & i@K+A t.j@s.h.k@4.E.}.!..@H+T.f.s.i.,.3 k@i+y f.T.H+.@y U+E.C.u.x.s.l@Y ].5+t.& & . . ",
"  . - & 4.x 3.^.G T r m@8.x.c+j u.0.0.q T r 7.8.n.n+p k@Y+f.>+j n+_+8.n@r T o@V 3.F j.& & . . ",
"  . - & {.3.3.5.$.$+p 4 % ].p V K :.<.*.$+p [.% ' p V K o.}.1.V p ' % [.p $+/.$+s z p@& & . . ",
"  . - & W X Y X !.I.'.q@` ,.r@$.C [ f &.I.'.,.` -@F @+>.f [ >.@+F j@` -@'.I.!.X Y X ~.& & . . ",
"  . - & J K 7 5 V U R b Q a.S }+p t D a.T D O $@O R.a.l }+S $@}+S $@N s@R U V 5 7 K V & & . . ",
"  . - & l h+|+o T H c G 6.F -@D >.h o+s ].2 d .+d m+s z k a | s@m ].].c+M.>.T o n I o & & . . ",
"  . - & f+3 *+5 j W.f _.[ e h [ ~ f g e 8 g a i { q.e a 9 { i [ ~+W.f _.f W.p 5 *+3 !@& & . . ",
"  . - & % :+3.t@u@v@w@c #.x@w@d s@z.y@u@d w@c #.z@w@d }+z.z.s@d w@z@#.c w@d u@y@3.b@F.& % . . ",
"  . * & & & & & & & & & & & & & & & & & & & & & & & & & & & & & & & & & & & & & & & & & = .   ",
"  . # $ % & & & & & & & & & & & & & & & & & & & & & & & & & & & & & & & & & & & & & % $ # .   ",
"    . . . . . . . . . . . . . . . . . . . . . . . . . . . . . . . . . . . . . . . . . . .     ",
"        . . . . . . . . . . . . . . . . . . . . . . . . . . . . . . . . . . . . . . .         "};
