/* XPM */
static const char* back_red_2_xpm[] = {
"47 62 324 2",
"  	c None",
". 	c #000000",
"+ 	c #2E2E2E",
"@ 	c #B8B8B8",
"# 	c #FEFEFE",
"$ 	c #FFFFFF",
"% 	c #B5B5B5",
"& 	c #B6B6B6",
"* 	c #F7F7F7",
"= 	c #FFFEFE",
"- 	c #F6CBCB",
"; 	c #ED9997",
"> 	c #EC9594",
", 	c #E77573",
"' 	c #E87B79",
") 	c #E97C7A",
"! 	c #E98380",
"~ 	c #ED9795",
"{ 	c #EA8684",
"] 	c #E87977",
"^ 	c #EC9392",
"/ 	c #EC9593",
"( 	c #E98382",
"_ 	c #EA8583",
": 	c #E87A78",
"< 	c #EC9493",
"[ 	c #ED9896",
"} 	c #F6C9C8",
"| 	c #FFFDFD",
"1 	c #F1AEAC",
"2 	c #E25956",
"3 	c #EB8C8B",
"4 	c #DF4643",
"5 	c #E46462",
"6 	c #E77471",
"7 	c #E87A77",
"8 	c #E98280",
"9 	c #E87C7A",
"0 	c #E77270",
"a 	c #E9807E",
"b 	c #E87876",
"c 	c #E87775",
"d 	c #E97F7D",
"e 	c #E77371",
"f 	c #E9817F",
"g 	c #E97D7B",
"h 	c #E46563",
"i 	c #EB8A88",
"j 	c #E35C59",
"k 	c #F0A8A7",
"l 	c #E66D6B",
"m 	c #F2B1B0",
"n 	c #F8D9D8",
"o 	c #E56866",
"p 	c #E56765",
"q 	c #F3BCBA",
"r 	c #EE9D9B",
"s 	c #EE9B99",
"t 	c #EC8F8D",
"u 	c #F2B4B3",
"v 	c #E6716E",
"w 	c #F4BFBE",
"x 	c #EFA4A3",
"y 	c #EE9A99",
"z 	c #EC9190",
"A 	c #F0ABA9",
"B 	c #E77774",
"C 	c #F4C2C1",
"D 	c #F0A6A5",
"E 	c #ED9493",
"F 	c #EFA3A1",
"G 	c #F4C1C0",
"H 	c #F1AEAD",
"I 	c #EC9492",
"J 	c #EC9391",
"K 	c #EFA1A0",
"L 	c #F8D9D9",
"M 	c #F2B4B2",
"N 	c #E56663",
"O 	c #E15350",
"P 	c #E35F5D",
"Q 	c #E56A67",
"R 	c #E66F6D",
"S 	c #E77674",
"T 	c #E66F6C",
"U 	c #E66C6A",
"V 	c #E77472",
"W 	c #E6706E",
"X 	c #E56B69",
"Y 	c #E56A68",
"Z 	c #E56966",
"` 	c #E7726F",
" .	c #E4605E",
"..	c #E25552",
"+.	c #E15451",
"@.	c #DF4744",
"#.	c #E25855",
"$.	c #F0A9A7",
"%.	c #E35B58",
"&.	c #F2B5B4",
"*.	c #E35A58",
"=.	c #ED9695",
"-.	c #E1524F",
";.	c #F4C0BF",
">.	c #E87D7B",
",.	c #F5C3C2",
"'.	c #EC908E",
").	c #F2B7B4",
"!.	c #ED9391",
"~.	c #E25452",
"{.	c #F5C2C1",
"].	c #EC918E",
"^.	c #F2B6B5",
"/.	c #E25754",
"(.	c #F0A8A6",
"_.	c #E25755",
":.	c #E1514E",
"<.	c #E4615E",
"[.	c #E46360",
"}.	c #EA8886",
"|.	c #ED9694",
"1.	c #E35E5B",
"2.	c #F9DEDE",
"3.	c #FBE5E5",
"4.	c #E25653",
"5.	c #E4625F",
"6.	c #FAE2E1",
"7.	c #FAE3E2",
"8.	c #EB8E8C",
"9.	c #ED9998",
"0.	c #ED9796",
"a.	c #E25957",
"b.	c #E46260",
"c.	c #EFA6A5",
"d.	c #EE9F9D",
"e.	c #F8DADA",
"f.	c #F1ACAA",
"g.	c #FAE2E2",
"h.	c #F3BBBA",
"i.	c #F7D1D0",
"j.	c #F4BEBD",
"k.	c #E66C69",
"l.	c #F9DCDC",
"m.	c #FAE1E0",
"n.	c #EFA4A2",
"o.	c #F7D2D1",
"p.	c #F4BDBC",
"q.	c #F9DEDD",
"r.	c #EE9F9E",
"s.	c #E35E5C",
"t.	c #F2B2B2",
"u.	c #F1B1AF",
"v.	c #F9DDDD",
"w.	c #F8D4D4",
"x.	c #EB8B89",
"y.	c #F1ADAC",
"z.	c #F3B7B6",
"A.	c #FAE1E1",
"B.	c #F0AAA9",
"C.	c #EA8785",
"D.	c #EB8988",
"E.	c #F7D3D3",
"F.	c #FADEDE",
"G.	c #FAE0DF",
"H.	c #E25A57",
"I.	c #EE9C9A",
"J.	c #EC918F",
"K.	c #E35A57",
"L.	c #E66D6A",
"M.	c #E25856",
"N.	c #FEF9F9",
"O.	c #E46461",
"P.	c #FEFBFB",
"Q.	c #F3BAB9",
"R.	c #E56967",
"S.	c #EA8482",
"T.	c #F6CCCB",
"U.	c #F8D6D6",
"V.	c #E04A47",
"W.	c #F7D1D1",
"X.	c #F6CDCC",
"Y.	c #FCECEB",
"Z.	c #EA8381",
"`.	c #FCF0F0",
" +	c #F5C4C3",
".+	c #F8D6D5",
"++	c #F5C8C7",
"@+	c #FCEEED",
"#+	c #F5C5C4",
"$+	c #F6CBC9",
"%+	c #E15452",
"&+	c #E35C5A",
"*+	c #F2B2B1",
"=+	c #E35F5C",
"-+	c #E87D7A",
";+	c #F9DFDF",
">+	c #EB8D8B",
",+	c #FAE5E5",
"'+	c #EB8C8A",
")+	c #FAE3E3",
"!+	c #FAE5E4",
"~+	c #F3B8B7",
"{+	c #E25B58",
"]+	c #EB8987",
"^+	c #E56764",
"/+	c #E87674",
"(+	c #FAE4E4",
"_+	c #FAE0E0",
":+	c #FBE4E3",
"<+	c #F2B3B2",
"[+	c #E35D5A",
"}+	c #F7D0CF",
"|+	c #F9DBDB",
"1+	c #F6CAC9",
"2+	c #FDF0F0",
"3+	c #FDF5F4",
"4+	c #F9DBDA",
"5+	c #F8D8D7",
"6+	c #F5C6C5",
"7+	c #FDF2F2",
"8+	c #F6CFCD",
"9+	c #E56865",
"0+	c #FEF8F8",
"a+	c #FFFCFC",
"b+	c #FEFAFA",
"c+	c #E35D5B",
"d+	c #E46562",
"e+	c #EFA2A1",
"f+	c #F7CECE",
"g+	c #F9DFDE",
"h+	c #F1AFAE",
"i+	c #F9E1E1",
"j+	c #F1B0AF",
"k+	c #E66E6C",
"l+	c #F0A7A6",
"m+	c #F6CBCA",
"n+	c #F0A9A8",
"o+	c #E15250",
"p+	c #FBE6E6",
"q+	c #E1504D",
"r+	c #F0A6A4",
"s+	c #EE9E9C",
"t+	c #FDF1F1",
"u+	c #FAE3E1",
"v+	c #F6CCCC",
"w+	c #E25654",
"x+	c #F8D5D5",
"y+	c #E97E7C",
"z+	c #ED9593",
"A+	c #F9D8D7",
"B+	c #F8D5D4",
"C+	c #F9E0E0",
"D+	c #E66B68",
"E+	c #F8DBDB",
"F+	c #FBE5E4",
"G+	c #F9D9D8",
"H+	c #F1ACAB",
"I+	c #EFA09E",
"J+	c #F6CECD",
"K+	c #FAE4E3",
"L+	c #FADFDF",
"M+	c #E46361",
"N+	c #FCEEEE",
"O+	c #FDF1F0",
"P+	c #E25B59",
"Q+	c #EE9C9B",
"R+	c #FBE6E5",
"S+	c #E87A79",
"T+	c #E04946",
"U+	c #F7D3D2",
"V+	c #F3BCBB",
"W+	c #F2B2B0",
"X+	c #FADFDE",
"Y+	c #F8DBDA",
"Z+	c #F7CECD",
"`+	c #F7CFCE",
" @	c #EC9290",
".@	c #F6CFCE",
"+@	c #FDF4F4",
"@@	c #FBE3E2",
"#@	c #FDF3F2",
"$@	c #FBE3E3",
"%@	c #F8D7D6",
"&@	c #F9DCDB",
"*@	c #E3605D",
"=@	c #FBEBEA",
"-@	c #FCEFEF",
";@	c #F9E1E0",
">@	c #FCEDED",
",@	c #EFA19F",
"'@	c #E14F4C",
")@	c #E14F4D",
"!@	c #E14E4B",
"~@	c #F5C7C6",
"{@	c #E46663",
"]@	c #F0ABAA",
"^@	c #F3B9B7",
"/@	c #F7CFCF",
"(@	c #FBE9E8",
"_@	c #F9DAD9",
":@	c #FCECEC",
"<@	c #F3B6B4",
"[@	c #F9DDDC",
"}@	c #F3B9B8",
"|@	c #E35956",
"1@	c #F9DADA",
"2@	c #F7D2D2",
"3@	c #F8DAD9",
"4@	c #E15653",
"5@	c #E15552",
"6@	c #F2B7B5",
"7@	c #F5C1C1",
"8@	c #ED9492",
"9@	c #F2B7B6",
"0@	c #F6F6F6",
"a@	c #E77775",
"b@	c #E87C79",
"c@	c #EA8683",
"d@	c #FDFDFD",
"e@	c #B1B1B1",
"f@	c #B2B2B2",
"g@	c #2A2A2A",
"h@	c #B0B0B0",
"i@	c #FCFCFC",
"        . . . . . . . . . . . . . . . . . . . . . . . . . . . . . . . . . . . . . . .         ",
"    . . . . . . . . . . . . . . . . . . . . . . . . . . . . . . . . . . . . . . . . . . .     ",
"  . + @ # $ $ $ $ $ $ $ $ $ $ $ $ $ $ $ $ $ $ $ $ $ $ $ $ $ $ $ $ $ $ $ $ $ $ $ $ $ # @ + .   ",
"  . % $ $ $ $ $ $ $ $ $ $ $ $ $ $ $ $ $ $ $ $ $ $ $ $ $ $ $ $ $ $ $ $ $ $ $ $ $ $ $ $ $ & .   ",
"  . * $ = - ; > , ' ) ! ~ { ) ] , ^ / , ' ) ( ~ _ ) : , < / , ' ) _ ~ ( ) ' , / [ } | $ # . . ",
"  . * $ 1 2 3 4 5 6 7 8 9 ' 7 9 0 7 a b c d 7 e : a ] : f 7 e : g , ] 8 7 6 h 4 i j k $ $ . . ",
"  . * $ l m n o p q f r s t u v w g x y z A B C ] D [ E F 9 G e H I J K f w o o L M p $ $ . . ",
"  . * $ N O : 4 P Q R S T U R V p W e X Y e 0 Z 0 6 X l V v Z e ` Z U , R Q  .4 b .. .$ $ . . ",
"  . * $ +.@.#.@.$.%.3 &.*.&.=.-.;.a >.,.#.'.).*.&.!.~.{.>.a {...].u *.^.]./.(.@._.@.:.$ $ . . ",
"  . * $ /.E ; <.O [.o }.= |.p 1...2.3.4.5.o i = I o  .4.6.7.4.5.o '.= 8.o 5.O  .9.0...$ $ . . ",
"  . * $ a.0.s b.c.R d.e.f.g.D h h.i.i.j.k.K l.f.m.n.o j.i.o.p.X K 2.f.q.K k.x 5.r.~ /.$ $ . . ",
"  . * $ s.t [ %.t.u.v.^.2 u g.k w.x.{ o.y.2.z.%.M A.B.o.C.D.E.B.F.&.2 &.G.f.t.H.I.J.K.$ $ . . ",
"  . * $ L.|.k 5 M.N.w _./.%.u | O.[.5.P P.Q.H._.2 Q.P.P [.5.O.| u j /._.j.N.M.5 $.|.R.$ $ . . ",
"  . * $ #.i S.O.T.9 j.U.V.W.X.6 Y.C.Z.`.7  +.+V.o.++B @+Z.C.@+S #+W.V.U.#+b $+[.i D.%+$ $ . . ",
"  . * $ &+'.*+=+-+W x.M ;+;.>+N i 7.,+i U '+^.;+p.3 Z x.)+!+x.k.'+h.;+~+'+U -+P y.E {+$ $ . . ",
"  . * $ 4.]+d ^+/+l _ f.(+~+C.O.Z._+:+Z.Y { 1 (+^.C.p S.6.)+Z.Q { <+(+u.{ Y /+h _ C.O $ $ . . ",
"  . * $ [+I m b.}+c q |+V.U.1+T 2+C.8 3+V G 4+V.5+6+v 7+8 C.7+v C U.V.|+C e 8+b.1 0.[+$ $ . . ",
"  . * $ 9+'+]+5.j 0+,.&+#. .~+a+o o p O.b+j.=+H.=+j.b+O.p o o a+~+ .#.c+G 0+j  .8.'+5.$ $ . . ",
"  . * $ d+0.e+h H ^.v.u.2 u.)+1 f+]+_ T.<+g+*+%.h+i+j+T._ ]+f+j+;+u.2 u.m.m H h x 0.b.$ $ . . ",
"  . * $ 4.J.y %.A k+r.v.e+)+l+[.;.m+}  +Q K 2.K A.x ^+,.} m+,.Z e+_+e+G.e+Y n+H.r J O $ $ . . ",
"  . * $ 4.E ; =+:.5.h { $ I h c+o+2.p+o+ .h }.$ z h =+O g.7.o+ .h 8.$ '+h  .q+1.r E +.$ $ . . ",
"  . * $ #.0.y O.X.5.r+)+U g.u 4.@+s+y t+c+A )+U u+h+H.`.y s+`.*.f.6.U (+f.&+v+[.d.|.w+$ $ . . ",
"  . * $ N '+J j 8 u+e.D.2 '+x+A.[ d y+z+6.A+'+%.x.A+A.z+y+d [ A.B+'+2 i 4+C+8 *.0.3  .$ $ . . ",
"  . * $ D+E B.b.8 ,+E+x.*.>+x+(+[ f d z+F+A+>+j 3 G+:+z+d f [ F+x+>+*.'+|+)+8 5.B.|.p $ $ . . ",
"  . * $ +.D._ 5 X.b.D g.^+m.&./.@+y ~ 7+1.f.6.^+m.j+*.`.~ y `.%.H+m.^+7.H+c+v+O.x.]+:.$ $ . . ",
"  . * $ %.J.m =+:.5.h { = I h c+o+2.p+o+ .h }.= z h =+O g.7.o+ .h 8.= '+h  .q+=+H E H.$ $ . . ",
"  . * $ 4.]+8 N A T I+v.r+)+$.5 G J+T. +X F ;+r+6.r+p ,.T.J+,.Q F _+r+C+F X n+h }.C.O $ $ . . ",
"  . * $ d+J h+[.h+^.2.*+*.*+K+1 }+x.C.J+<+L+M j m g.j+J+C.x.}+j+G.*+*.<+6.m h+[.H+~ M+$ $ . . ",
"  . * $ 9+i >+1.H.0+G H._.1.^.a+N h h 5.b+q j 2 j q b+5.h h N a+^.1._.*.w 0+H.&+z x.5.$ $ . . ",
"  . * $ j 0.s+^+J+c q L V.w.1+T N+C.8 7+V G n V.B+6+v O+8 C.O+v C w.V.L C e X.^+r.[ P+$ $ . . ",
"  . * $ w+J Q+&+' R i u.(+p.3 N ]+)+R+]+U x.<+(+h.'+Z D.)+3.]+k.x.~+(+^.x.U S+j s+|.+.$ $ . . ",
"  . * $ /.J 0.c+' k+}.u.;+p.i O.}.i+K+]+Y ]+M ;+h.D.p D.g.)+]+Q ]+~+;+^.]+Y S+j I.I +.$ $ . . ",
"  . * $ [+[ d.N J+9 j.n T+U+X.6 N+C.f 7+7  +5+V.w.++B `.f C.`.S #+U+T+n #+b X.h I+y P+$ $ . . ",
"  . * $ 9+x.t 1.H.N.;.*.#.1.^.| N h h 5.P.V+j 2 j V+P.5.h h N | ^.1.#.*.;.N.H.c+E x.5.$ $ . . ",
"  . * $ O.J H+ .W+<+v.u 2 M 7.B.U+D.{ W.h+X+^.*.<+6.H+W.{ D.U+H+g+M 2 u A.1 W+ .f.E 5.$ $ . . ",
"  . * $ 4.x._ N c.l Q+Y+k A.x [.Q.Z+J+j.Q r.l.l+G.K ^+p.J+`+p.Z r.q.k 2.r.Q x 5 '+D.O $ $ . . ",
"  . * $ K. @j+&+O [.o }.= |.o 1...;+p+4.5.o i = I o  .4.7.)+4.5.o '.= 8.o 5.O c+h+J a.$ $ . . ",
"  . * $ +.}.8 5 .@5.l+g.^+6.^.4.`.y ~ +@c+f.@@^+A.u.H.7+~ y #@*.y.m.^+$@y.&+J+[.]+C.:.$ $ . . ",
"  . * $ D+ @A <.>.(+%@{ 2 C.o.F+ @y+9 t (+w.C.%.C.x+K+t 9 y+ @3.o.C.2 { 5+7.>.<.$.z+p $ $ . . ",
"  . * $ h '+z &+C.)+l.'.*.z G+G.s+Z.f s 6.Y+z j J.&@A.s f Z.s+_+A+z *.'.v.A.C.%.~ '+*@$ $ . . ",
"  . * $ 2 9.r.p m+b.r+6.U i+M /.=@s+y -@1.B.g.U ;@H *.>@y s+>@j A C+U 7.A 1.1+^+,@I./.$ $ . . ",
"  . * $ 4.I y =+'@ .[.S.$ z [.&+)@2.p+)@P [.{ $ '.[.1.q+g.7.)@P [.'+$ i [.P !@c+d.I +.$ $ . . ",
"  . * $ 4.t [ %.h+k+K ;+I+3.B.[.6+} ~@1+Q x _+I+)+l+N } ~@} } Z x g.I+6.x Q 1 H.y  @O $ $ . . ",
"  . * $ {@9.e+o ]@q F.h+*.h+(+M m+i C.} ^@;@j+j 1 K+^.} C.i m+^._+h+*.h+7.z.]@p n.y M+$ $ . . ",
"  . * $ 9+i ]+P j 0+G c+#. .~+a+o o p O.b+p.=+H.=+p.b+O.p o o a+~+ .#.c+G 0+j =+8.i 5.$ $ . . ",
"  . * $ &+J.1 <./@e ^@|+V.U.++Q 2+C.Z.3+R j.4+V.5+,.U 7+Z.C.7+U w U.V.|+w T .@<.B.E {+$ $ . . ",
"  . * $ w+]+a N /+R C.f.(@~+]+N Z.g.3.Z.U }.1 (@^.}.Z S.)+,+Z.X C.<+(@u.}.U /+h { C.O $ $ . . ",
"  . * $ j  @<+=+a k+x.^._@C 8.O.8.m.)+t Y '+^@_@;.3 p t A.7.t Q '+p._@h.'+Y d P h+|.{+$ $ . . ",
"  . * $ M.'+}.5 T.8 C .+V.}+`+7 :@C.f `.d 6+B+V.W.m+9 @+f C.@+9 ++}+V..+++g m+[.8.x...$ $ . . ",
"  . * $ L.|.$.[.2 N.j.#./.j u | 5 [.[. .P.Q.*.#.*.Q.P. .[.[.5 | u j /.#.j.N.2 [.$.~ Z $ $ . . ",
"  . * $ s.D.z H.<@n+[@^@#.z.6.x %@D.{ .+n+q.}@H.^.m.D .+{ D.%@D v.z.#.^@;+k <@2 z+i K.$ $ . . ",
"  . * $ |@I ; [.I+U y 1@1 ;+K O.&.2@o.^@Y r 3@y.v.r.p ~+i.2@z.Q r l.1 &@r Y I+b.y |./.$ $ . . ",
"  . * $ _.|.~  .4@5 X 3 = [ X P 2 X+p+H.[.X 3 = |.X <.H.6.7.H.[.X  @= '.X [.4.P s z+5@$ $ . . ",
"  . * $ +.@./.@.$.#.>+6@*.&.0.:.7@a >. +/.'.6@*.&.8@+.,.>.a ,.~.].&.*.9@].w+$.@.4.@.:.$ $ . . ",
"  . * $ N +.d 4  .Y ` c v R W B Z 0 V k+l 6 V Q V V k+R S e Q , 0 k.T B ` Y 5.4 9 /.<.$ $ . . ",
"  . * $ k+j+5+p k.G S.K d.J.^@V C 8 D I.|.1 '  +g f.s 0.k f  +c m |.z+F { C k.p 5+*+o $ $ . . ",
"  . * $ H _.x.4 5 , 7 Z.9 ' ' 9 6 7 f ] c a : V ' f b : 8 : V ' y+S ] Z.7 , h 4 }.*.$.$ $ . . ",
"  . 0@$ = - ; > a@g g S.~ { g b@S ^ / S 9 g S.~ c@g b@a@< / a@9 g c@~ S.g 9 a@/ [ } | $ d@. . ",
"  . e@$ $ $ $ $ $ $ $ $ $ $ $ $ $ $ $ $ $ $ $ $ $ $ $ $ $ $ $ $ $ $ $ $ $ $ $ $ $ $ $ $ f@.   ",
"  . g@h@i@$ $ $ $ $ $ $ $ $ $ $ $ $ $ $ $ $ $ $ $ $ $ $ $ $ $ $ $ $ $ $ $ $ $ $ $ $ i@h@g@.   ",
"    . . . . . . . . . . . . . . . . . . . . . . . . . . . . . . . . . . . . . . . . . . .     ",
"        . . . . . . . . . . . . . . . . . . . . . . . . . . . . . . . . . . . . . . .         "};
