/* XPM */
static const char *back_blue_1_xpm[] = {
"47 62 643 2",
"  	c None",
". 	c #000000",
"+ 	c #2E2E2E",
"@ 	c #B8B8B8",
"# 	c #FEFEFE",
"$ 	c #FFFFFF",
"% 	c #B5B5B5",
"& 	c #B6B6B6",
"* 	c #F7F7F7",
"= 	c #CBDFE8",
"- 	c #87B5CC",
"; 	c #82B2C9",
"> 	c #578AB4",
", 	c #5F90B7",
"' 	c #6092B8",
") 	c #699ABD",
"! 	c #84B3CA",
"~ 	c #6D9EBF",
"{ 	c #5D8FB6",
"] 	c #5789B3",
"^ 	c #80B0C8",
"/ 	c #82B1C9",
"( 	c #5E90B7",
"_ 	c #6A9CBD",
": 	c #6C9DBE",
"< 	c #5D8FB7",
"[ 	c #81B1C9",
"} 	c #86B5CB",
"| 	c #C8DDE6",
"1 	c #AAC9D9",
"2 	c #3283AA",
"3 	c #458EB2",
"4 	c #2A7EA7",
"5 	c #016596",
"6 	c #237AA4",
"7 	c #488FB3",
"8 	c #3383AA",
"9 	c #056798",
"0 	c #4D93B6",
"a 	c #478FB3",
"b 	c #3785AD",
"c 	c #4B92B4",
"d 	c #1A74A0",
"e 	c #3081A9",
"f 	c #408BB0",
"g 	c #16729F",
"h 	c #4C93B4",
"i 	c #3A87AD",
"j 	c #438EB2",
"k 	c #4E93B6",
"l 	c #066898",
"m 	c #3082A9",
"n 	c #4A91B5",
"o 	c #257BA5",
"p 	c #277CA6",
"q 	c #4A92B3",
"r 	c #3182AA",
"s 	c #A2C5D6",
"t 	c #5396B6",
"u 	c #4991B4",
"v 	c #3483AA",
"w 	c #3987AD",
"x 	c #3584AC",
"y 	c #2E80A8",
"z 	c #468FB3",
"A 	c #026696",
"B 	c #267BA5",
"C 	c #3586AB",
"D 	c #3887AC",
"E 	c #1C75A1",
"F 	c #076998",
"G 	c #458FB3",
"H 	c #3284AA",
"I 	c #428DB1",
"J 	c #267AA5",
"K 	c #2E81A8",
"L 	c #3182A9",
"M 	c #468EB3",
"N 	c #0A6A9A",
"O 	c #17729F",
"P 	c #3D8AAF",
"Q 	c #3384AB",
"R 	c #4790B4",
"S 	c #2F81A9",
"T 	c #3987AC",
"U 	c #3785AE",
"V 	c #4B92B5",
"W 	c #4C91B3",
"X 	c #498EB2",
"Y 	c #4890B3",
"Z 	c #4B91B5",
"` 	c #4E94B6",
" .	c #3885AD",
"..	c #4C92B5",
"+.	c #428CB0",
"@.	c #4E94B5",
"#.	c #3B88AE",
"$.	c #448EB1",
"%.	c #5095B7",
"&.	c #4C93B5",
"*.	c #4C91B5",
"=.	c #418AAF",
"-.	c #276FA1",
";.	c #AAC8D7",
">.	c #2178A2",
",.	c #6CA4BF",
"'.	c #ABC9D7",
").	c #2078A2",
"!.	c #A9C8D6",
"~.	c #7CAEC5",
"{.	c #14709D",
"].	c #BBD3DE",
"^.	c #5998B8",
"/.	c #5597B6",
"(.	c #C0D5DF",
"_.	c #1C75A0",
":.	c #72A8C1",
"<.	c #ACC9D8",
"[.	c #76AAC3",
"}.	c #17729E",
"|.	c #BED4DF",
"1.	c #AECBD9",
"2.	c #226D9F",
"3.	c #2A71A2",
"4.	c #3F8BAF",
"5.	c #16719E",
"6.	c #267BA4",
"7.	c #2C7EA7",
"8.	c #5898B7",
"9.	c #EFF1F1",
"0.	c #69A2BE",
"a.	c #2077A2",
"b.	c #C7D9E2",
"c.	c #D0DEE6",
"d.	c #2479A3",
"e.	c #5A9AB8",
"f.	c #67A1BD",
"g.	c #2278A3",
"h.	c #CBDCE4",
"i.	c #CCDCE4",
"j.	c #629EBB",
"k.	c #5F9CBA",
"l.	c #2078A3",
"m.	c #438DB1",
"n.	c #287DA6",
"o.	c #246FA0",
"p.	c #2C73A3",
"q.	c #2F82A7",
"r.	c #418BB1",
"s.	c #86B4C9",
"t.	c #3583AA",
"u.	c #6EA5C0",
"v.	c #BDD3DE",
"w.	c #85B2C9",
"x.	c #C6D9E1",
"y.	c #79ABC4",
"z.	c #287CA5",
"A.	c #91BACD",
"B.	c #B6CFDB",
"C.	c #B5CFDB",
"D.	c #96BCCF",
"E.	c #3081A8",
"F.	c #72A7C1",
"G.	c #C4D8E1",
"H.	c #75A9C2",
"I.	c #95BCCF",
"J.	c #B4CFDB",
"K.	c #B6D0DC",
"L.	c #94BBCE",
"M.	c #2B7EA6",
"N.	c #C3D7E0",
"O.	c #C2D6E0",
"P.	c #89B5CA",
"Q.	c #3E8AAF",
"R.	c #5096B7",
"S.	c #2671A1",
"T.	c #3B81AB",
"U.	c #4E93B5",
"V.	c #A2C3D4",
"W.	c #8BB6CB",
"X.	c #C5D8E1",
"Y.	c #97BDCF",
"Z.	c #CEDDE5",
"`.	c #80B0C7",
" +	c #BDD4DE",
".+	c #5B9AB9",
"++	c #5797B7",
"@+	c #BBD2DD",
"#+	c #87B4C9",
"$+	c #C7DAE2",
"%+	c #98BDD0",
"&+	c #CBDCE3",
"*+	c #83B1C8",
"=+	c #CADBE3",
"-+	c #C9DAE3",
";+	c #A8C7D6",
">+	c #2E80A9",
",+	c #347EA8",
"'+	c #4C92B3",
")+	c #E9EEEF",
"!+	c #9FC2D3",
"~+	c #18729F",
"{+	c #1D76A1",
"]+	c #90B9CD",
"^+	c #EEF0F1",
"/+	c #297CA5",
"(+	c #277BA4",
"_+	c #2379A3",
":+	c #EBEFF0",
"<+	c #1B74A0",
"[+	c #448DB0",
"}+	c #2F77A5",
"|+	c #3886AD",
"1+	c #1B75A1",
"2+	c #488EB1",
"3+	c #9DC1D2",
"4+	c #BCD3DE",
"5+	c #B0CCD9",
"6+	c #3C88AD",
"7+	c #D8E3E8",
"8+	c #5697B6",
"9+	c #5093B4",
"0+	c #DEE6EA",
"a+	c #448CB0",
"b+	c #A4C5D4",
"c+	c #076898",
"d+	c #B7D0DC",
"e+	c #A9C8D7",
"f+	c #408AAE",
"g+	c #DBE5E9",
"h+	c #C9DAE2",
"i+	c #3D88B0",
"j+	c #2178A3",
"k+	c #2A74A3",
"l+	c #2C74A3",
"m+	c #5598B9",
"n+	c #3685AB",
"o+	c #448EB2",
"p+	c #5596B6",
"q+	c #3885AB",
"r+	c #5C9BB9",
"s+	c #92BACE",
"t+	c #C8DAE2",
"u+	c #A2C4D4",
"v+	c #609DBA",
"w+	c #2A7DA6",
"x+	c #5E9CBA",
"y+	c #CDDCE4",
"z+	c #D0DFE5",
"A+	c #3382A9",
"B+	c #2E80A7",
"C+	c #CDDDE4",
"D+	c #CFDEE5",
"E+	c #9BC0D1",
"F+	c #99BED0",
"G+	c #5798B7",
"H+	c #418CAF",
"I+	c #2771A2",
"J+	c #4D93B5",
"K+	c #488FB1",
"L+	c #3483A9",
"M+	c #5395B5",
"N+	c #C9DBE3",
"O+	c #5496B6",
"P+	c #88B4CA",
"Q+	c #5194B5",
"R+	c #CDDDE5",
"S+	c #8EB8CC",
"T+	c #4990B2",
"U+	c #5296B8",
"V+	c #2771A1",
"W+	c #2D74A4",
"X+	c #418BAF",
"Y+	c #99BFD0",
"Z+	c #056797",
"`+	c #ACCAD8",
" @	c #3684AA",
".@	c #DFE7EB",
"+@	c #4E92B4",
"@@	c #E4EAED",
"#@	c #3D88AD",
"$@	c #A0C2D3",
"%@	c #A7C6D5",
"&@	c #3986AB",
"*@	c #E2E9EC",
"=@	c #CFDDE5",
"-@	c #2872A2",
";@	c #18739F",
">@	c #3485AA",
",@	c #15719E",
"'@	c #2076A1",
")@	c #E9EDEF",
"!@	c #A3C4D4",
"~@	c #1E76A1",
"{@	c #19739F",
"]@	c #EDEFF1",
"^@	c #2D7FA7",
"/@	c #EAEEF0",
"(@	c #9CC0D2",
"_@	c #E8EDEF",
":@	c #2177A2",
"<@	c #13709D",
"[@	c #3485AB",
"}@	c #3D84AC",
"|@	c #3786AC",
"1@	c #97BDD0",
"2@	c #8AB6CB",
"3@	c #B2CDDA",
"4@	c #AFCBD9",
"5@	c #8DB7CC",
"6@	c #CBDBE3",
"7@	c #9DC0D2",
"8@	c #438DB2",
"9@	c #3C89AF",
"0@	c #5799B9",
"a@	c #3781AA",
"b@	c #2B73A3",
"c@	c #3886AC",
"d@	c #2D7FA9",
"e@	c #73A8C2",
"f@	c #7EAFC6",
"g@	c #ADCAD8",
"h@	c #A5C5D5",
"i@	c #77AAC3",
"j@	c #C6DAE2",
"k@	c #78ABC3",
"l@	c #7AACC5",
"m@	c #297DA6",
"n@	c #96BDCF",
"o@	c #5296B7",
"p@	c #3685AC",
"q@	c #2670A1",
"r@	c #116F9C",
"s@	c #257AA4",
"t@	c #F1F2F2",
"u@	c #66A0BD",
"v@	c #1F77A2",
"w@	c #116E9C",
"x@	c #D1DFE6",
"y@	c #639FBC",
"z@	c #126F9C",
"A@	c #106E9B",
"B@	c #036697",
"C@	c #0F6D9C",
"D@	c #0C6C9B",
"E@	c #C6D8E1",
"F@	c #7DAEC6",
"G@	c #CCDDE4",
"H@	c #8FB8CC",
"I@	c #DAE5E9",
"J@	c #DDE6EA",
"K@	c #CEDEE5",
"L@	c #0B6B9A",
"M@	c #0E6D9B",
"N@	c #488DB1",
"O@	c #3987AE",
"P@	c #C1D6E0",
"Q@	c #6BA3BF",
"R@	c #4B91B3",
"S@	c #68A1BD",
"T@	c #BDD4DF",
"U@	c #BFD5DF",
"V@	c #CADCE4",
"W@	c #BAD1DD",
"X@	c #5B9AB8",
"Y@	c #468EB2",
"Z@	c #3D89AF",
"`@	c #4089AF",
" #	c #488EB2",
".#	c #3F8BB0",
"+#	c #CFDFE6",
"@#	c #C2D7E1",
"##	c #5D9BB9",
"$#	c #B4CEDB",
"%#	c #468DB0",
"&#	c #126F9D",
"*#	c #458DB0",
"=#	c #C3D7E1",
"-#	c #2F80AA",
";#	c #4189AF",
">#	c #086999",
",#	c #3584AB",
"'#	c #B3CEDA",
")#	c #096A99",
"!#	c #F0F1F2",
"~#	c #65A0BC",
"{#	c #3A88AD",
"]#	c #7DB0C9",
"^#	c #85B5CD",
"/#	c #84B5CC",
"(#	c #4790B3",
"_#	c #3F8AAF",
":#	c #4990B3",
"<#	c #90B9CC",
"[#	c #74A8C2",
"}#	c #9ABFD1",
"|#	c #4A91B4",
"1#	c #A2C7D9",
"2#	c #D2E4EC",
"3#	c #2279A4",
"4#	c #D0E3EC",
"5#	c #A3C7D9",
"6#	c #448DB2",
"7#	c #C6D9E2",
"8#	c #3181A8",
"9#	c #92BACD",
"0#	c #3E89AF",
"a#	c #5799BA",
"b#	c #3C82AB",
"c#	c #4891B3",
"d#	c #3785AC",
"e#	c #99BED1",
"f#	c #CEDDE4",
"g#	c #5E9DBC",
"h#	c #418CB0",
"i#	c #5C9CBC",
"j#	c #3585AB",
"k#	c #AECBD8",
"l#	c #9FC1D3",
"m#	c #3484AB",
"n#	c #478FB2",
"o#	c #367FA9",
"p#	c #116F9D",
"q#	c #3B87AC",
"r#	c #5598B8",
"s#	c #EBF3F7",
"t#	c #F2F7FA",
"u#	c #3C89AE",
"v#	c #EFF5F8",
"w#	c #247AA4",
"x#	c #3A86AC",
"y#	c #1D75A1",
"z#	c #1D76A2",
"A#	c #C7D8E2",
"B#	c #B9D1DD",
"C#	c #3584AA",
"D#	c #6AA5C1",
"E#	c #CDE1EA",
"F#	c #94BED3",
"G#	c #6BA5C2",
"H#	c #9AC2D5",
"I#	c #A0C6D8",
"J#	c #68A3C1",
"K#	c #287DA7",
"L#	c #65A2BF",
"M#	c #3282AA",
"N#	c #5195B7",
"O#	c #458EB1",
"P#	c #3785AB",
"Q#	c #5999B8",
"R#	c #1E77A2",
"S#	c #B8D4E2",
"T#	c #287CA6",
"U#	c #81B3CB",
"V#	c #5193B5",
"W#	c #428CB2",
"X#	c #2772A2",
"Y#	c #428EB2",
"Z#	c #438CB1",
"`#	c #5497B8",
" $	c #C0D9E5",
".$	c #7CAFC9",
"+$	c #2379A4",
"@$	c #3E8BAF",
"#$	c #4F95B6",
"$$	c #2F76A5",
"%$	c #3B88AD",
"&$	c #68A3C0",
"*$	c #CFE2EB",
"=$	c #8EBBD0",
"-$	c #69A4C1",
";$	c #66A2C0",
">$	c #64A1BE",
",$	c #3F89AE",
"'$	c #2973A3",
")$	c #A1C3D3",
"!$	c #93BBCE",
"~$	c #5397B8",
"{$	c #EAF2F6",
"]$	c #F0F6F9",
"^$	c #3986AD",
"/$	c #ECF4F7",
"($	c #3B87AD",
"_$	c #3B89AE",
":$	c #9DC1D1",
"<$	c #CBDBE4",
"[$	c #5E9DBD",
"}$	c #5C9CBB",
"|$	c #357FA9",
"1$	c #599ABA",
"2$	c #4B91B4",
"3$	c #8DB7CB",
"4$	c #C2D7E0",
"5$	c #7CADC5",
"6$	c #71A6C1",
"7$	c #A9CBDC",
"8$	c #DAE9F0",
"9$	c #D8E7EF",
"0$	c #277DA6",
"a$	c #428CB1",
"b$	c #79ACC4",
"c$	c #589ABA",
"d$	c #76ACC6",
"e$	c #82B4CC",
"f$	c #80B2CB",
"g$	c #649FBC",
"h$	c #619DBB",
"i$	c #15719D",
"j$	c #7FAFC6",
"k$	c #BAD2DD",
"l$	c #3F8AB0",
"m$	c #3986AC",
"n$	c #E0E8EC",
"o$	c #3383AB",
"p$	c #EDF0F1",
"q$	c #428BAE",
"r$	c #418AAE",
"s$	c #B7CFDB",
"t$	c #2F81A8",
"u$	c #5194B6",
"v$	c #478DB1",
"w$	c #5699B9",
"x$	c #3988AC",
"y$	c #5E9BBA",
"z$	c #C5D9E2",
"A$	c #4D92B3",
"B$	c #6FA6C0",
"C$	c #C4D8E0",
"D$	c #468FB2",
"E$	c #3F89B0",
"F$	c #4089AE",
"G$	c #0D6C9B",
"H$	c #2B7FA7",
"I$	c #CADCE3",
"J$	c #D7E3E8",
"K$	c #DCE6EA",
"L$	c #D9E4E9",
"M$	c #2C7FA7",
"N$	c #2971A2",
"O$	c #046797",
"P$	c #0D6C9A",
"Q$	c #5295B5",
"R$	c #246EA0",
"S$	c #3887AD",
"T$	c #C8DAE3",
"U$	c #D0DEE5",
"V$	c #A9C7D6",
"W$	c #2F80A8",
"X$	c #7BADC5",
"Y$	c #AAC9D7",
"Z$	c #5295B7",
"`$	c #4990B4",
" %	c #86B3C9",
".%	c #579ABA",
"+%	c #3780A9",
"@%	c #E7EDEE",
"#%	c #ECEFF0",
"$%	c #C4D7E1",
"%%	c #438BAF",
"&%	c #81B0C7",
"*%	c #D4E1E7",
"=%	c #4A90B2",
"-%	c #3282A9",
";%	c #84B2C8",
">%	c #5296B6",
",%	c #5698B9",
"'%	c #458FB2",
")%	c #438EB1",
"!%	c #3A86AE",
"~%	c #3077A5",
"{%	c #4F93B4",
"]%	c #096999",
"^%	c #478EB1",
"/%	c #3A81AA",
"(%	c #82B1C7",
"_%	c #BCD4DE",
":%	c #347DA8",
"<%	c #5095B6",
"[%	c #3082A8",
"}%	c #418BB0",
"|%	c #8CB7CB",
"1%	c #BAD1DC",
"2%	c #B8D1DD",
"3%	c #8AB5CB",
"4%	c #3284AB",
"5%	c #CCDCE3",
"6%	c #256FA1",
"7%	c #A5C5D4",
"8%	c #1F77A1",
"9%	c #6AA3BE",
"0%	c #1C74A1",
"a%	c #A3C5D5",
"b%	c #7AACC4",
"c%	c #B6CFDC",
"d%	c #A6C6D5",
"e%	c #498FB2",
"f%	c #4D94B5",
"g%	c #4F94B6",
"h%	c #3885AC",
"i%	c #1973A0",
"j%	c #4F95B7",
"k%	c #458DB1",
"l%	c #428AAF",
"m%	c #5496B7",
"n%	c #3585AC",
"o%	c #3083AA",
"p%	c #3D8AB0",
"q%	c #287DA5",
"r%	c #3686AD",
"s%	c #2C7FA8",
"t%	c #4C92B4",
"u%	c #3183AA",
"v%	c #3C8AAE",
"w%	c #3A87AE",
"x%	c #4D92B4",
"y%	c #AFCCDA",
"z%	c #4790B2",
"A%	c #4891B4",
"B%	c #A7C7D7",
"C%	c #F6F6F6",
"D%	c #D4E3EB",
"E%	c #8FBACF",
"F%	c #8AB6CC",
"G%	c #5F8EB7",
"H%	c #6795BA",
"I%	c #729FC0",
"J%	c #8CB8CE",
"K%	c #75A3C2",
"L%	c #6896BB",
"M%	c #6594BA",
"N%	c #5E8DB6",
"O%	c #88B4CB",
"P%	c #6695BA",
"Q%	c #73A1C1",
"R%	c #89B5CC",
"S%	c #8EB9CE",
"T%	c #D1E1EA",
"U%	c #FDFDFD",
"V%	c #B1B1B1",
"W%	c #B2B2B2",
"X%	c #2A2A2A",
"Y%	c #B0B0B0",
"Z%	c #FCFCFC",
"        . . . . . . . . . . . . . . . . . . . . . . . . . . . . . . . . . . . . . . .         ",
"    . . . . . . . . . . . . . . . . . . . . . . . . . . . . . . . . . . . . . . . . . . .     ",
"  . + @ # $ $ $ $ $ $ $ $ $ $ $ $ $ $ $ $ $ $ $ $ $ $ $ $ $ $ $ $ $ $ $ $ $ $ $ $ $ # @ + .   ",
"  . % $ $ $ $ $ $ $ $ $ $ $ $ $ $ $ $ $ $ $ $ $ $ $ $ $ $ $ $ $ $ $ $ $ $ $ $ $ $ $ $ $ & .   ",
"  . * $ # = - ; > , ' ) ! ~ ' { ] ^ / ] ( ' _ ! : ' < ] [ [ ] < ' : ! _ ' ( > / } | # $ # . . ",
"  . * $ 1 2 3 4 5 6 7 8 5 9 0 a 5 5 b c d 5 e f 2 5 g h i 5 5 j k l 5 m n o 5 p q r s $ $ . . ",
"  . * $ t u v w 5 x y z A B C D E F G e H 5 I J 3 5 K L M N O P Q 4 5 R S w 5 T U V W $ $ . . ",
"  . * $ X 2 Y 4 5 6 Z 8 5 9 ` a 5 5  ...d 5 e +.2 5 g @.#.5 5 $.%.l 5 m &.o 5 p *.r =.$ $ . . ",
"  . * $ -.5 5 5 ;.>.,.'.).!.~.{.].^./.(._.:.<.).;.[.}.|./.^.|.}.[.!.).<.:._.1.5 5 5 2.$ $ . . ",
"  . * $ 3.4 4.6 5.6.7.8.9.0.7.a.5.b.c.}.d.7.e.9.f.7.g.}.h.i.}.g.7.j.9.k.7.d.5.l.m.n.o.$ $ . . ",
"  . * $ p.%.q.r.s.t.u.v.w.x.y.z.A.B.C.D.E.F.(.w.G.H.7.I.J.K.L.M.H.N.w.O.F.E.P.Q.H R.S.$ $ . . ",
"  . * $ T.2 U.4 V.W.X.Y.d D.Z.`. +.+++@+#+$+%+_.I.&+*+@+++.+ +*+=+D.d Y.-+#+;+o %.>+,+$ $ . . ",
"  . * $ '+5 5 5 d )+!+~+}.{+]+^+/+(+(+_+:+%+<+~+<+%+:+_+(+(+/+^+]+{+}.~+!+)+<+5 5 5 [+$ $ . . ",
"  . * $ }+l.|+1+N.2+3+4+l B.5+6+7+8+9+0+a+b+@+c+d+e+f+g+9+8+g+f+e+B.l 4+b+a+h+1+i+j+k+$ $ . . ",
"  . * $ l+m+n+o+p+q+r+s+t+u+v+w+x+y+z+k.A+x+D.t+!+k.B+v+C+D+k.B+k.E+t+F+x+A+G+H+w m+I+$ $ . . ",
"  . * $ p.2 J+4 K+L+M+w.D+I.8+z.9+N+D+9+E.O+P+D+s+p+7.Q+i.R+9+7.p+S+D+W.O+E.T+n.U+2 V+$ $ . . ",
"  . * $ W+5 5 5 -+X+Y+O.Z+@+`+ @.@p++@@@#@$@O.l  +%@&@*@+@p+*@&@%@@+Z+O.$@#@=@5 5 5 -@$ $ . . ",
"  . * $ '+;@>@,@'@)@!@~@{@_+I.]@^@^@7.z./@(@>.d >.(@/@z.7.^@^@]@I._+{@~@!@_@:@<@[@O [+$ $ . . ",
"  . * $ }@m+|@a 1@I.b.W.{@W.=@2@3@8.M+4@A.-+5@_.P.y+5@4@M+8.3@5@6@W.{@W.6@A.7@8@9@0@a@$ $ . . ",
"  . * $ b@c@J+d@L.A+e@X.y.y+f@6.!+g@'.h@B+i@j@k@6@l@m@!@'.g@u+m@l@h+y.t+i@B+n@4 o@p@q@$ $ . . ",
"  . * $ 3.5 A 5 r@s@m@O+t@u@m@v@w@b.x@w@_+m@++t@y@m@>.z@h.i.w@>.m@x+t@.+m@_+A@5 B@5 o.$ $ . . ",
"  . * $ -.C@>+D@E@s@F@C+A+G@H@5.I@e@u..@v@*+C+A+i.P.{@J@u.e@J@{@P.h.A+K@*+v@h.L@r M@2.$ $ . . ",
"  . * $ N@m+O@u 8.h.P@^.{@.+@+-+Q@R@T+S@=+T@.+_.e.U@-+S@T+R@Q@V@W@.+{@^.O.N+X@Y@Z@0@`@$ $ . . ",
"  . * $  #.#&.8 8.+#@#e.<+##].Z.Q@+@R@S@^+$#%#&#*#$#^+S@R@+@Q@D+@+##<+e.=#Z.X@-#%.Q.;#$ $ . . ",
"  . * $ -.5 >#5 E@6.f@&+M.=+A.}.I@u.0.C.,##.i w i #.,#'#0.u.J@<+2@-+M.G@w.a.h.5 )#5 2.$ $ . . ",
"  . * $ 3.9 B 9 r@s@m@O+!#~#m@v@w@O.v+{#Y ]#^#9 /#]#(#|@r+X.w@>.m@##!#.+m@_+A@9 p 9 o.$ $ . . ",
"  . * $ p.0@_#:#<# @[#N.F@6@f@/+}#Q@|#o 1#2#6 3#l.4#5#6 6#f.3+7.l@$+F@7#i@8#9#3 0#a#V+$ $ . . ",
"  . * $ b#a c#d#e#s+b.5@<+5@f#P+5+w g#5 N O h#g Z@d N 5 i#j#k#2@=+5@<+5@=+S+l#m#k n#o#$ $ . . ",
"  . * $ '+5 p#5 _._@$@d ~+a.s+!#q#r#s#1+>+E t#u#v#w#e 1+s#0 x#!#s+a.~+d $@_@y#5 p#5 [+$ $ . . ",
"  . * $ W+5 z#5 A#X+Y+(.l B#`+C#L D#E#B F#G#H#i I#J#F#K#E#L#M#q+%@B#l (.$@#@y+5 v@5 -@$ $ . . ",
"  . * $ l+N#O#6#+@P#Q#W.K@E+r+_+h#,#l R#..S#T#U#w#S#%.z#l ,#f s@.+I.K@s+e.A+V#f W#N#X#$ $ . . ",
"  . * $ p.N#Y#Z#+@t.++W.t+E+Q#>.h#|+>#E `# $n..$o  $0@d >#|+f +$^.I.t+s+8.E.V#@$*.#$V+$ $ . . ",
"  . * $ $$5 1+5 A#2+3+(.l B#5+%$L &$*$B =$-$H#9@I#;$=$K#*$>$M#,$e+B#l (.b+a+y+5 E 5 '$$ $ . . ",
"  . * $ '+5 &#5 _.)+)$d ~+a.!$t@6+~${$1+>+E ]$^$/$w#r 1+{$..($t@!$a.~+d )$)+y#5 <@5 [+$ $ . . ",
"  . * $ b#Y |#_$:$W.G.]+{@H@<$`.C.|+[$5 F O Z@O w d F 5 }$m#'#*+b.H@{@]+$+#+u+j#..a |$$ $ . . ",
"  . * $ p.1$u#2$3$ @F.4$w.&+5$/+F+6$Y m@7$8$p j+w#9$7$0$a$,.E+7.b$x.w.x.[.8#H@a o+c$V+$ $ . . ",
"  . * $ 3.A o A {.(+^@++!#0.^@a.,@G.S@p@|#d$e$9 f$d$:#j#g$$+5.g.^@h$!#x+^@s@i$A p A o.$ $ . . ",
"  . * $ -.5 >#5 t+s@j$i.M.=+s+5.J@u.0.k$x#u#l$f l$u#m$B#0.u.n$d W.=+M.Z.w.v@Z.5 )#5 2.$ $ . . ",
"  . * $ X f V o$Q+D+|.M+{@8+d+K@g$T+2+v+p$3@q$z@r$3@p$v+2+T+g$D+s$8+{@M+U@f#t t$u$.#=.$ $ . . ",
"  . * $ v$w$x$u y$G@z$v+<+y@U@-+e@9+A$B$h.4$y@{+j.C$<$B$A$9+e@<$U@y@<+v+7#&+h$D$E$a#F$$ $ . . ",
"  . * $ -.G$H$D@4$6.F@6@A+I$H@}.J$e@u.K$a.*+&+A+=+P.<+L$u.e@L$<+P.N+A+G@*+a.$+L@M$D@2.$ $ . . ",
"  . * $ N$5 O$5 P$_+(+Q$t@y@(+~@G$b.x@G$g.(+O+t@h$(+a.M@h.i.G$a.(+.+t@Q#(+g.G$5 O$5 R$$ $ . . ",
"  . * $ b@S$0 S }#t.k@T$[.U$*+(+%@'.V$`+W$X$=+[.C+j$w+Y$V$'.Y$w+j$i.[.&+X$W$7@4 Z$d#q@$ $ . . ",
"  . * $ }@a#D `$9#Y+b. %{@#+K@H@'.++Q$V$D.T$P._. %i.s+V$Q$++'.s+I$#+{@ %<$D.Y.3 u#.%+%$ $ . . ",
"  . * $ W g o$<@a.@%b+a.d s@D.#%B+W$W$m@)+3+_+_._+3+)+m@W$W$B+#%D.s@d a.b+@%g.p#m#,@[+$ $ . . ",
"  . * $ l+5 5 5 -+q#D.$%c+4+e+W$.@8+9+@@P#(@N.c+|.!@A+*@9+8+*@A+!@4+c+$%(@P#=@5 5 5 V+$ $ . . ",
"  . * $ l+8 k H$%% @M+&%*%s+p+w+=%h.z+=%-%O+;%*%H@p+B+R@C+D+R@B+p+W.*%P+O+-%*#n.>%M#I+$ $ . . ",
"  . * $ p.,%m#'%p+t.e.s+P@u+x+z.x+N+C+k.E..+D.P@!+r+7.k.&+h.k.7.r+E+P@F+.+E.G+)%!%,%V+$ $ . . ",
"  . * $ ~%v@|@1+N.{%u+4+>#B.'#a+L$++9+0+=%;+@+]%d+g@^%g+9+++g+^%g@B.>#4+;+=%h+;@w R#k+$ $ . . ",
"  . * $ '+5 5 5 d )+!+~+5.{+]+^+/+(+(+_+:+%+<+~+<+%+:+_+(+(+/+^+]+{+5.~+!+)+<+5 5 5 [+$ $ . . ",
"  . * $ /%2 ` 4 V.(%=#I.{@L.=+y._%Q#O+@+j$N.Y.d !$$+X$@+O+Q# +X$7#L.{@I.X.j$;+p Z$r :%$ $ . . ",
"  . * $ l+<%[%}% %q+u.O.|%t+X$w+s+1%B#D.A+H.P@|%7#k@B+I.2%k$L.B+k@G.|%C$H.A+3%Q.4%N#I+$ $ . . ",
"  . * $ 3.m@4.6 O /+B+r+p$Q@8#g.{@b.z+d 6.8#r+p$0.8#d.d &+5%d d.8#g$p$h$8#6.{@l.}%n.6%$ $ . . ",
"  . * $ -.5 5 5 7%8%9%%@0%a%b%{.c%O+9+@+0%B$d%0%!@[#}.2%9+O+2%}.[#u+0%%@B$0%;.5 5 5 2.$ $ . . ",
"  . * $ e%2 n 4 5 6 f%8 5 9 g%7 5 5 h%g%i%5 e 6#2 5 g j%#.5 5 k%Z$l 5 S 0 o 5 p k e l%$ $ . . ",
"  . * $ m%&.n%Z@5 w o%|#A n.j#p%z#>#Y n%[@5 3 q%:#5 m r%2$N ;@P %$s%5 t%u%v%5 w%T @.x%$ $ . . ",
"  . * $ y%2 z%4 5 6 |#8 5 9 J+D$5 5 d#..i%5 e f 2 5 g &.i 5 5 m.g%l 5 S u o 5 p A%e B%$ $ . . ",
"  . C%$ # D%E%F%G%H%H%I%J%K%L%M%N%O%F%N%P%L%I%J%Q%L%M%N%R%F%N%M%L%Q%J%I%L%P%N%F%S%T%# $ U%. . ",
"  . V%$ $ $ $ $ $ $ $ $ $ $ $ $ $ $ $ $ $ $ $ $ $ $ $ $ $ $ $ $ $ $ $ $ $ $ $ $ $ $ $ $ W%.   ",
"  . X%Y%Z%$ $ $ $ $ $ $ $ $ $ $ $ $ $ $ $ $ $ $ $ $ $ $ $ $ $ $ $ $ $ $ $ $ $ $ $ $ Z%Y%X%.   ",
"    . . . . . . . . . . . . . . . . . . . . . . . . . . . . . . . . . . . . . . . . . . .     ",
"        . . . . . . . . . . . . . . . . . . . . . . . . . . . . . . . . . . . . . . .         "};
