/* XPM */
static const char* clubs1_xpm[] = {
"47 62 150 2",
"  	c None",
". 	c #000000",
"+ 	c #2E2E2E",
"@ 	c #B2B2B2",
"# 	c #FCFCFC",
"$ 	c #FFFFFF",
"% 	c #B0B0B0",
"& 	c #2A2A2A",
"* 	c #B9B9B9",
"= 	c #FEFEFE",
"- 	c #CACACA",
"; 	c #AFAFAF",
"> 	c #EAEAEA",
", 	c #FDFDFD",
"' 	c #272727",
") 	c #919191",
"! 	c #E1E1E1",
"~ 	c #4F4F4F",
"{ 	c #9B9B9B",
"] 	c #101010",
"^ 	c #545454",
"/ 	c #2C2C2C",
"( 	c #CBCBCB",
"_ 	c #111111",
": 	c #151515",
"< 	c #9C9C9C",
"[ 	c #898989",
"} 	c #C8C8C8",
"| 	c #414141",
"1 	c #A8A8A8",
"2 	c #464646",
"3 	c #828282",
"4 	c #0A0A0A",
"5 	c #F9F9F9",
"6 	c #3B3B3B",
"7 	c #5E5E5E",
"8 	c #5F5F5F",
"9 	c #C2C2C2",
"0 	c #F1F1F1",
"a 	c #040404",
"b 	c #2F2F2F",
"c 	c #A5A5A5",
"d 	c #808080",
"e 	c #F2F2F2",
"f 	c #BFBFBF",
"g 	c #D7D7D7",
"h 	c #FAFAFA",
"i 	c #F4F4F4",
"j 	c #D5D5D5",
"k 	c #636363",
"l 	c #080808",
"m 	c #8E8E8E",
"n 	c #333333",
"o 	c #E0E0E0",
"p 	c #676767",
"q 	c #171717",
"r 	c #262626",
"s 	c #7D7D7D",
"t 	c #616161",
"u 	c #9A9A9A",
"v 	c #979797",
"w 	c #010101",
"x 	c #161616",
"y 	c #030303",
"z 	c #0C0C0C",
"A 	c #060606",
"B 	c #E5E5E5",
"C 	c #888888",
"D 	c #A4A4A4",
"E 	c #F7F7F7",
"F 	c #B8B8B8",
"G 	c #B7B7B7",
"H 	c #E9E9E9",
"I 	c #9F9F9F",
"J 	c #757575",
"K 	c #959595",
"L 	c #DBDBDB",
"M 	c #131313",
"N 	c #070707",
"O 	c #8C8C8C",
"P 	c #5D5D5D",
"Q 	c #3A3A3A",
"R 	c #7B7B7B",
"S 	c #4B4B4B",
"T 	c #C3C3C3",
"U 	c #B6B6B6",
"V 	c #ACACAC",
"W 	c #232323",
"X 	c #303030",
"Y 	c #CFCFCF",
"Z 	c #0D0D0D",
"` 	c #646464",
" .	c #292929",
"..	c #2B2B2B",
"+.	c #5C5C5C",
"@.	c #E2E2E2",
"#.	c #0F0F0F",
"$.	c #0B0B0B",
"%.	c #C9C9C9",
"&.	c #282828",
"*.	c #1B1B1B",
"=.	c #A3A3A3",
"-.	c #8F8F8F",
";.	c #202020",
">.	c #BEBEBE",
",.	c #9E9E9E",
"'.	c #C7C7C7",
").	c #8B8B8B",
"!.	c #EEEEEE",
"~.	c #B3B3B3",
"{.	c #8D8D8D",
"].	c #BABABA",
"^.	c #F5F5F5",
"/.	c #E7E7E7",
"(.	c #1E1E1E",
"_.	c #141414",
":.	c #D8D8D8",
"<.	c #D9D9D9",
"[.	c #2D2D2D",
"}.	c #1D1D1D",
"|.	c #E4E4E4",
"1.	c #717171",
"2.	c #6B6B6B",
"3.	c #4C4C4C",
"4.	c #373737",
"5.	c #B1B1B1",
"6.	c #626262",
"7.	c #585858",
"8.	c #666666",
"9.	c #D0D0D0",
"0.	c #656565",
"a.	c #F3F3F3",
"b.	c #747474",
"c.	c #FBFBFB",
"d.	c #DADADA",
"e.	c #7A7A7A",
"f.	c #DFDFDF",
"g.	c #3F3F3F",
"h.	c #939393",
"i.	c #6F6F6F",
"j.	c #575757",
"k.	c #3E3E3E",
"l.	c #050505",
"m.	c #686868",
"n.	c #707070",
"o.	c #F0F0F0",
"p.	c #353535",
"q.	c #777777",
"r.	c #C1C1C1",
"s.	c #B4B4B4",
"        . . . . . . . . . . . . . . . . . . . . . . . . . . . . . . . . . . . . . . .         ",
"    . . . . . . . . . . . . . . . . . . . . . . . . . . . . . . . . . . . . . . . . . . .     ",
"  . + @ # $ $ $ $ $ $ $ $ $ $ $ $ $ $ $ $ $ $ $ $ $ $ $ $ $ $ $ $ $ $ $ $ $ $ $ $ $ # % & .   ",
"  . * $ $ $ $ $ $ $ $ $ $ $ $ $ $ $ $ $ $ $ $ $ $ $ $ $ $ $ $ $ $ $ $ $ $ $ $ $ $ $ $ $ @ .   ",
". . = $ $ $ $ - ; > $ $ $ $ $ $ $ $ $ $ $ $ $ $ $ $ $ $ $ $ $ $ $ $ $ $ $ $ $ $ $ $ $ $ , . . ",
". . $ $ $ $ $ ' . ) $ $ $ $ $ $ $ $ $ $ $ $ $ $ $ $ $ $ $ $ $ $ $ $ $ $ $ $ $ $ $ $ $ $ $ . . ",
". . $ $ $ $ ! . . ~ $ $ $ $ $ $ $ $ $ $ $ $ $ $ $ $ $ $ $ $ $ $ $ $ $ $ $ $ $ $ $ $ $ $ $ . . ",
". . $ $ $ $ { . . ] , $ $ $ $ $ $ $ $ $ $ $ $ $ $ $ $ $ $ $ $ $ $ $ $ $ $ $ $ $ $ $ $ $ $ . . ",
". . $ $ $ $ ^ . / . ( $ $ $ $ $ $ $ $ $ $ $ $ $ $ $ $ $ $ $ $ $ $ $ $ $ $ $ $ $ $ $ $ $ $ . . ",
". . $ $ $ , _ : < . [ $ $ $ $ $ $ $ $ $ $ $ $ $ $ $ $ $ $ $ $ $ $ $ $ $ $ $ $ $ $ $ $ $ $ . . ",
". . $ $ $ } . | 1 . 2 $ $ $ $ $ $ $ $ $ $ $ $ $ $ $ $ $ $ $ $ $ $ $ $ $ $ $ $ $ $ $ $ $ $ . . ",
". . $ $ $ 3 . . . . 4 5 $ $ $ $ $ $ $ $ $ $ $ $ $ $ $ $ $ $ $ $ $ $ $ $ $ $ $ $ $ $ $ $ $ . . ",
". . $ $ $ 6 . 7 8 / . 9 $ $ $ $ $ $ $ $ $ $ $ $ $ $ $ $ $ $ $ $ $ $ $ $ $ $ $ $ $ $ $ $ $ . . ",
". . $ $ 0 a b $ $ c . d $ $ $ $ $ $ $ $ $ $ $ $ $ $ $ $ $ $ $ $ $ $ $ $ $ $ $ $ $ $ $ $ $ . . ",
". . $ $ e f g $ h i f j $ $ $ $ $ $ $ $ $ $ $ $ $ $ $ $ $ $ $ $ $ $ $ $ $ $ $ $ $ $ $ $ $ . . ",
". . $ $ $ $ $ k l m $ $ $ $ $ $ $ $ $ $ $ $ $ $ $ $ $ $ $ $ $ $ $ $ $ $ $ $ $ $ $ $ $ $ $ . . ",
". . $ $ $ $ h 4 . n $ $ $ $ $ $ $ $ $ $ $ $ $ $ $ $ $ $ $ $ $ $ $ $ $ $ $ $ $ $ $ $ $ $ $ . . ",
". . $ $ $ o p q . r s i $ $ $ $ $ $ $ $ $ $ $ $ $ $ $ $ $ $ $ $ $ $ $ $ $ $ $ $ $ $ $ $ $ . . ",
". . $ $ $ t . . . . . u $ $ $ $ $ $ $ $ $ $ $ $ $ $ $ $ $ $ $ $ $ $ $ $ $ $ $ $ $ $ $ $ $ . . ",
". . $ $ $ v w x y z A } $ $ $ $ $ $ $ $ $ $ $ $ $ $ $ $ $ $ $ $ $ $ $ $ $ $ $ $ $ $ $ $ $ . . ",
". . $ $ $ $ B C . D > $ $ $ $ $ $ $ $ $ $ $ $ $ $ $ $ $ $ $ $ $ $ $ $ $ $ $ $ $ $ $ $ $ $ . . ",
". . $ $ $ $ E F G f = $ $ $ $ $ $ $ $ $ $ H I J K L $ $ $ $ $ $ $ $ $ $ $ $ $ $ $ $ $ $ $ . . ",
". . $ $ $ $ $ $ $ $ $ $ $ $ $ $ $ $ $ $ ; M . . . N O $ $ $ $ $ $ $ $ $ $ $ $ $ $ $ $ $ $ . . ",
". . $ $ $ $ $ $ $ $ $ $ $ $ $ $ $ $ $ j l . . . . . . @ $ $ $ $ $ $ $ $ $ $ $ $ $ $ $ $ $ . . ",
". . $ $ $ $ $ $ $ $ $ $ $ $ $ $ $ $ $ P . . . . . . . n $ $ $ $ $ $ $ $ $ $ $ $ $ $ $ $ $ . . ",
". . $ $ $ $ $ $ $ $ $ $ $ $ $ $ $ $ $ & . . . . . . . a E $ $ $ $ $ $ $ $ $ $ $ $ $ $ $ $ . . ",
". . $ $ $ $ $ $ $ $ $ $ $ $ $ $ $ $ $ Q . . . . . . . z , $ $ $ $ $ $ $ $ $ $ $ $ $ $ $ $ . . ",
". . $ $ $ $ $ $ $ $ $ $ $ $ $ $ $ $ $ R . . . . . . . S $ $ $ $ $ $ $ $ $ $ $ $ $ $ $ $ $ . . ",
". . $ $ $ $ $ $ $ $ $ $ $ $ $ $ E T < U q . . . . . a D V j , $ $ $ $ $ $ $ $ $ $ $ $ $ $ . . ",
". . $ $ $ $ $ $ $ $ $ $ $ $ $ T W . . . . . . . . . . . . . X Y $ $ $ $ $ $ $ $ $ $ $ $ $ . . ",
". . $ $ $ $ $ $ $ $ $ $ $ $ o Z . . . . . . . . . . . . . . . _ B $ $ $ $ $ $ $ $ $ $ $ $ . . ",
". . $ $ $ $ $ $ $ $ $ $ $ $ t . . . . . . . . . . . . . . . . . ` $ $ $ $ $ $ $ $ $ $ $ $ . . ",
". . $ $ $ $ $ $ $ $ $ $ $ $  .. . . . . . . . . . . . . . . . . ..$ $ $ $ $ $ $ $ $ $ $ $ . . ",
". . $ $ $ $ $ $ $ $ $ $ $ $  .. . . . . . . . . . . . . . . . . ' $ $ $ $ $ $ $ $ $ $ $ $ . . ",
". . $ $ $ $ $ $ $ $ $ $ $ $ t . . . . . . . . . . . . . . . . . +.$ $ $ $ $ $ $ $ $ $ $ $ . . ",
". . $ $ $ $ $ $ $ $ $ $ $ $ @.#.. . . . . y . . . . . . . . . $.L $ $ $ $ $ $ $ $ $ $ $ $ . . ",
". . $ $ $ $ $ $ $ $ $ $ $ $ $ %.&.. . . *.=.w . . -._ . . . ;.>.$ $ $ $ $ $ $ $ $ $ $ $ $ . . ",
". . $ $ $ $ $ $ $ $ $ $ $ $ $ $ h } ,.'.5 ).. . . -.!.~.{.].^.$ $ $ $ $ $ $ $ $ $ $ $ $ $ . . ",
". . $ $ $ $ $ $ $ $ $ $ $ $ $ $ $ $ $ $ /.(.. . . _.:.$ $ $ $ $ $ $ $ $ $ $ $ $ $ $ $ $ $ . . ",
". . $ $ $ $ $ $ $ $ $ $ $ $ $ $ $ $ $ <.[.. . . . . }.} $ $ $ $ $ $ $ $ $ $ $ $ $ $ $ $ $ . . ",
". . $ $ $ $ $ $ $ $ $ $ $ $ $ $ $ $ |.1.p p p p p p p 2.g $ $ $ $ $ $ $ $ $ $ $ $ $ $ $ $ . . ",
". . $ $ $ $ $ $ $ $ $ $ $ $ $ $ $ $ $ $ $ $ $ $ $ $ $ $ $ $ $ $ $ $ $ $ $ B 3.4.5.$ $ $ $ . . ",
". . $ $ $ $ $ $ $ $ $ $ $ $ $ $ $ $ $ $ $ $ $ $ $ $ $ $ $ $ $ $ $ $ $ $ 9 6.7.q 8.O $ $ $ . . ",
". . $ $ $ $ $ $ $ $ $ $ $ $ $ $ $ $ $ $ $ $ $ $ $ $ $ $ $ $ $ $ $ $ $ $  .. . . . . 9.$ $ . . ",
". . $ $ $ $ $ $ $ $ $ $ $ $ $ $ $ $ $ $ $ $ $ $ $ $ $ $ $ $ $ $ $ $ $ $ 0.. . . . *.a.$ $ . . ",
". . $ $ $ $ $ $ $ $ $ $ $ $ $ $ $ $ $ $ $ $ $ $ $ $ $ $ $ $ $ $ $ $ $ $ $ } a . b.c.$ $ $ . . ",
". . $ $ $ $ $ $ $ $ $ $ $ $ $ $ $ $ $ $ $ $ $ $ $ $ $ $ $ $ $ $ $ $ $ $ $ d.w . e.$ $ $ $ . . ",
". . $ $ $ $ $ $ $ $ $ $ $ $ $ $ $ $ $ $ $ $ $ $ $ $ $ $ $ $ $ $ $ $ $ $ $ $ 5.O 0 $ $ $ $ . . ",
". . $ $ $ $ $ $ $ $ $ $ $ $ $ $ $ $ $ $ $ $ $ $ $ $ $ $ $ $ $ $ $ $ $ f.g.s $ $ %.g.h.$ $ . . ",
". . $ $ $ $ $ $ $ $ $ $ $ $ $ $ $ $ $ $ $ $ $ $ $ $ $ $ $ $ $ $ $ $ $ , M _.f.f.i.. 1 $ $ . . ",
". . $ $ $ $ $ $ $ $ $ $ $ $ $ $ $ $ $ $ $ $ $ $ $ $ $ $ $ $ $ $ $ $ $ $ j.. . . . w H $ $ . . ",
". . $ $ $ $ $ $ $ $ $ $ $ $ $ $ $ $ $ $ $ $ $ $ $ $ $ $ $ $ $ $ $ $ $ $ ,.. (.g.. [.$ $ $ . . ",
". . $ $ $ $ $ $ $ $ $ $ $ $ $ $ $ $ $ $ $ $ $ $ $ $ $ $ $ $ $ $ $ $ $ $ |.. k.G . i.$ $ $ . . ",
". . $ $ $ $ $ $ $ $ $ $ $ $ $ $ $ $ $ $ $ $ $ $ $ $ $ $ $ $ $ $ $ $ $ $ $ & l.m.. 5.$ $ $ . . ",
". . $ $ $ $ $ $ $ $ $ $ $ $ $ $ $ $ $ $ $ $ $ $ $ $ $ $ $ $ $ $ $ $ $ $ $ n.. A y o.$ $ $ . . ",
". . $ $ $ $ $ $ $ $ $ $ $ $ $ $ $ $ $ $ $ $ $ $ $ $ $ $ $ $ $ $ $ $ $ $ $ G . . p.$ $ $ $ . . ",
". . $ $ $ $ $ $ $ $ $ $ $ $ $ $ $ $ $ $ $ $ $ $ $ $ $ $ $ $ $ $ $ $ $ $ $ ^.N . q.$ $ $ $ . . ",
". . = $ $ $ $ $ $ $ $ $ $ $ $ $ $ $ $ $ $ $ $ $ $ $ $ $ $ $ $ $ $ $ $ $ $ $ t b r.$ $ $ , . . ",
"  . G $ $ $ $ $ $ $ $ $ $ $ $ $ $ $ $ $ $ $ $ $ $ $ $ $ $ $ $ $ $ $ $ $ $ $ $ $ $ $ $ $ s..   ",
"  . + s.# $ $ $ $ $ $ $ $ $ $ $ $ $ $ $ $ $ $ $ $ $ $ $ $ $ $ $ $ $ $ $ $ $ $ $ $ $ # s.+ .   ",
"    . . . . . . . . . . . . . . . . . . . . . . . . . . . . . . . . . . . . . . . . . . .     ",
"        . . . . . . . . . . . . . . . . . . . . . . . . . . . . . . . . . . . . . . .         "};
