/* XPM */
static const char* clubs10_xpm[] = {
"47 62 220 2",
"  	c None",
". 	c #000000",
"+ 	c #2A2A2A",
"@ 	c #B0B0B0",
"# 	c #FCFCFC",
"$ 	c #FFFFFF",
"% 	c #B2B2B2",
"& 	c #2E2E2E",
"* 	c #BABABA",
"= 	c #FDFDFD",
"- 	c #EFEFEF",
"; 	c #AFAFAF",
"> 	c #E3E3E3",
", 	c #C7C7C7",
"' 	c #EEEEEE",
") 	c #FEFEFE",
"! 	c #CBCBCB",
"~ 	c #A4A4A4",
"{ 	c #040404",
"] 	c #3D3D3D",
"^ 	c #F8F8F8",
"/ 	c #3E3E3E",
"( 	c #171717",
"_ 	c #777777",
": 	c #585858",
"< 	c #B3B3B3",
"[ 	c #323232",
"} 	c #BDBDBD",
"| 	c #A8A8A8",
"1 	c #454545",
"2 	c #8D8D8D",
"3 	c #F9F9F9",
"4 	c #939393",
"5 	c #444444",
"6 	c #A0A0A0",
"7 	c #DBDBDB",
"8 	c #A7A7A7",
"9 	c #B4B4B4",
"0 	c #CFCFCF",
"a 	c #989898",
"b 	c #676767",
"c 	c #707070",
"d 	c #8F8F8F",
"e 	c #020202",
"f 	c #9E9E9E",
"g 	c #C3C3C3",
"h 	c #D1D1D1",
"i 	c #272727",
"j 	c #232323",
"k 	c #C0C0C0",
"l 	c #B7B7B7",
"m 	c #191919",
"n 	c #313131",
"o 	c #D9D9D9",
"p 	c #404040",
"q 	c #141414",
"r 	c #4D4D4D",
"s 	c #626262",
"t 	c #434343",
"u 	c #3A3A3A",
"v 	c #6B6B6B",
"w 	c #C4C4C4",
"x 	c #070707",
"y 	c #474747",
"z 	c #FBFBFB",
"A 	c #515151",
"B 	c #303030",
"C 	c #E6E6E6",
"D 	c #292929",
"E 	c #F2F2F2",
"F 	c #BFBFBF",
"G 	c #E9E9E9",
"H 	c #D4D4D4",
"I 	c #F3F3F3",
"J 	c #0D0D0D",
"K 	c #202020",
"L 	c #050505",
"M 	c #1E1E1E",
"N 	c #060606",
"O 	c #2F2F2F",
"P 	c #212121",
"Q 	c #0B0B0B",
"R 	c #C2C2C2",
"S 	c #EDEDED",
"T 	c #828282",
"U 	c #F0F0F0",
"V 	c #CECECE",
"W 	c #9C9C9C",
"X 	c #505050",
"Y 	c #CCCCCC",
"Z 	c #E4E4E4",
"` 	c #B1B1B1",
" .	c #E5E5E5",
"..	c #747474",
"+.	c #888888",
"@.	c #B9B9B9",
"#.	c #111111",
"$.	c #080808",
"%.	c #D2D2D2",
"&.	c #999999",
"*.	c #090909",
"=.	c #121212",
"-.	c #C1C1C1",
";.	c #EBEBEB",
">.	c #757575",
",.	c #A1A1A1",
"'.	c #FAFAFA",
").	c #F7F7F7",
"!.	c #373737",
"~.	c #7B7B7B",
"{.	c #949494",
"].	c #DFDFDF",
"^.	c #010101",
"/.	c #ECECEC",
"(.	c #4F4F4F",
"_.	c #181818",
":.	c #414141",
"<.	c #575757",
"[.	c #E7E7E7",
"}.	c #9A9A9A",
"|.	c #646464",
"1.	c #BBBBBB",
"2.	c #5C5C5C",
"3.	c #E1E1E1",
"4.	c #A2A2A2",
"5.	c #727272",
"6.	c #838383",
"7.	c #767676",
"8.	c #3C3C3C",
"9.	c #DCDCDC",
"0.	c #808080",
"a.	c #C9C9C9",
"b.	c #D7D7D7",
"c.	c #AAAAAA",
"d.	c #8C8C8C",
"e.	c #282828",
"f.	c #1F1F1F",
"g.	c #737373",
"h.	c #4B4B4B",
"i.	c #787878",
"j.	c #555555",
"k.	c #262626",
"l.	c #4A4A4A",
"m.	c #252525",
"n.	c #343434",
"o.	c #595959",
"p.	c #1C1C1C",
"q.	c #656565",
"r.	c #5F5F5F",
"s.	c #606060",
"t.	c #DEDEDE",
"u.	c #CDCDCD",
"v.	c #CACACA",
"w.	c #101010",
"x.	c #1B1B1B",
"y.	c #909090",
"z.	c #A9A9A9",
"A.	c #636363",
"B.	c #8E8E8E",
"C.	c #ACACAC",
"D.	c #ABABAB",
"E.	c #858585",
"F.	c #9D9D9D",
"G.	c #0E0E0E",
"H.	c #7C7C7C",
"I.	c #797979",
"J.	c #848484",
"K.	c #616161",
"L.	c #E0E0E0",
"M.	c #BEBEBE",
"N.	c #969696",
"O.	c #D8D8D8",
"P.	c #535353",
"Q.	c #717171",
"R.	c #D0D0D0",
"S.	c #979797",
"T.	c #C5C5C5",
"U.	c #9B9B9B",
"V.	c #696969",
"W.	c #424242",
"X.	c #2B2B2B",
"Y.	c #0C0C0C",
"Z.	c #919191",
"`.	c #EAEAEA",
" +	c #030303",
".+	c #F5F5F5",
"++	c #333333",
"@+	c #2D2D2D",
"#+	c #0F0F0F",
"$+	c #ADADAD",
"%+	c #898989",
"&+	c #5A5A5A",
"*+	c #868686",
"=+	c #3B3B3B",
"-+	c #5E5E5E",
";+	c #151515",
">+	c #F6F6F6",
",+	c #353535",
"'+	c #B8B8B8",
")+	c #B6B6B6",
"!+	c #484848",
"~+	c #D3D3D3",
"{+	c #383838",
"]+	c #4C4C4C",
"^+	c #3F3F3F",
"/+	c #545454",
"(+	c #363636",
"_+	c #2C2C2C",
":+	c #1A1A1A",
"<+	c #F1F1F1",
"[+	c #0A0A0A",
"}+	c #131313",
"|+	c #DDDDDD",
"1+	c #5D5D5D",
"2+	c #929292",
"3+	c #A6A6A6",
"4+	c #878787",
"5+	c #6A6A6A",
"6+	c #7D7D7D",
"7+	c #393939",
"        . . . . . . . . . . . . . . . . . . . . . . . . . . . . . . . . . . . . . . .         ",
"    . . . . . . . . . . . . . . . . . . . . . . . . . . . . . . . . . . . . . . . . . . .     ",
"  . + @ # $ $ $ $ $ $ $ $ $ $ $ $ $ $ $ $ $ $ $ $ $ $ $ $ $ $ $ $ $ $ $ $ $ $ $ $ $ # % & .   ",
"  . % $ $ $ $ $ $ $ $ $ $ $ $ $ $ $ $ $ $ $ $ $ $ $ $ $ $ $ $ $ $ $ $ $ $ $ $ $ $ $ $ $ * .   ",
". . = - ; > $ , ; ; ' $ $ $ $ $ $ $ $ $ $ $ $ $ $ $ $ $ $ $ $ $ $ $ $ $ $ $ $ $ $ $ $ $ ) . . ",
". . $ ! . ~ * { . . ] ^ $ $ $ $ $ $ $ $ $ $ $ $ $ $ $ $ $ $ $ $ $ $ $ $ $ $ $ $ $ $ $ $ $ . . ",
". . $ ! . ~ / ( _ : . < $ $ $ $ $ $ $ $ $ $ $ $ $ $ $ $ $ $ $ $ $ $ $ $ $ $ $ $ $ $ $ $ $ . . ",
". . $ ! . ~ ] [ $ } . % $ $ $ | 1 2 3 $ $ $ $ $ $ $ $ $ # 4 5 6 $ $ $ $ $ $ $ $ $ $ $ $ $ . . ",
". . $ ! . ~ ] [ $ } . % $ $ 7 . . . 8 $ $ $ $ $ $ $ $ $ 9 . . . 0 $ $ $ $ $ $ $ $ $ $ $ $ . . ",
". . $ ! . ~ ] [ $ } . % $ $ a . . . b $ $ $ $ $ $ $ $ $ c . . . d $ $ $ $ $ $ $ $ $ $ $ $ . . ",
". . $ ! . ~ ] [ $ } . % $ ) , e . . f = $ $ $ $ $ $ $ 3 8 . . . g $ $ $ $ $ $ $ $ $ $ $ $ . . ",
". . $ ! . ~ ] [ $ } . % h i . . . . . j k $ $ $ $ $ l m . . . . . n o $ $ $ $ $ $ $ $ $ $ . . ",
". . $ ! . ~ p q b r . 9 s . . . . . . . t $ $ $ $ $ u . . . . . . . v $ $ $ $ $ $ $ $ $ $ . . ",
". . $ ! . ~ w x . . y z A . . . . . . . B $ ^ | C $ D . . . . . . . : $ $ $ $ $ $ $ $ $ $ . . ",
". . $ E F G $ H F F I $ F J . [ . K . L 6 3 M . x , f N e O . P . Q R $ $ $ $ $ $ $ $ $ $ . . ",
". . $ $ $ $ S c T = $ $ $ U V W . X Y Z $ ` . . . s $  .o ... _ g ' $ $ $ $ $ $ $ $ $ $ $ . . ",
". . $ $ $ $ +.. . @.$ $ $ $ @.#.x $.~ $ $ %.. . . T $ $ &.*.x =.-.$ $ $ $ $ $ $ $ $ $ $ $ . . ",
". . $ $ $ ;.>.. . ,.'.$ $ $ $ $ $ $ $ ).d t x . . !.~.;.$ $ $ $ $ $ $ $ $ $ $ $ $ $ $ $ $ . . ",
". . $ $ U J . . . . y $ $ $ $ $ $ $ $ {.. . . . . . . s $ $ $ $ $ $ $ $ $ $ $ $ $ $ $ $ $ . . ",
". . $ $ ].^.. . . . i $ $ $ $ $ /.$ $ (.. . . . . . . _.$ $ /.$ $ $ $ $ $ $ $ $ $ $ $ $ $ . . ",
". . $ $ $ % 2 n :.~.%.$ $ $ ) <.e u [.}.. . ^.. . . . |.- p ^.r '.$ $ $ $ $ $ $ $ $ $ $ $ . . ",
". . $ $ $ $ 1.: 2.3.$ $ $ $ 1.. . . +.'.4.v ,.. <.5.6.' 4 . . . @ $ $ $ $ $ $ $ $ $ $ $ $ . . ",
". . $ $ $ $ $ $ $ $ $ $ $ $ | . . . 7.$ $ U 8.. $.9.$ $ 0.. . . f $ $ $ $ $ $ $ $ $ $ $ $ . . ",
". . $ $ $ $ $ $ $ $ $ $ $ h 6.e . . v a.$ V 8 8 8 @.$ F c . . . 6.b.$ $ $ $ $ $ $ $ $ $ $ . . ",
". . $ $ $ $ $ $ $ $ $ $ c.. . . . . . . d.$ $ $ $ $ T . . . . . . ^.% $ $ $ $ $ $ $ $ $ $ . . ",
". . $ $ $ $ $ $ $ $ $ $ y . . . . . . . e.$ $ $ $ $ f.. . . . . . . X $ $ $ $ $ $ $ $ $ $ . . ",
". . $ $ $ $ $ $ $ $ $ $ g.. . . . . . . X $ $ $ $ $ h.. . . . . . . i.$ $ $ $ $ $ $ $ $ $ . . ",
". . $ $ $ $ $ $ $ $ $ $ Z j.k.5.. l.m.:.h $ $ $ $ $ h t n.s . o.p.A Z $ $ $ $ $ $ $ $ $ $ . . ",
". . $ $ $ $ $ $ $ $ $ $ $ $ $ q.. k.z $ $ $ $ $ $ $ $ $ ^ t . l.$ $ $ $ $ $ $ $ $ $ $ $ $ . . ",
". . $ $ $ $ $ $ $ $ $ $ $ $ * r.r.r.| $ $ $ $ $ $ $ $ $ ,.r.r.s.-.$ $ $ $ $ $ $ $ $ $ $ $ . . ",
". . $ $ $ $ $ $ $ $ $ $ $ $ $ $ $ $ $ $ $ $ $ $ $ $ $ $ $ $ $ $ $ $ $ $ $ $ $ $ $ $ $ $ $ . . ",
". . $ $ $ $ $ $ $ $ $ $ $ $ $ $ $ $ $ $ $ $ $ $ $ $ $ $ $ $ $ $ $ $ $ $ $ $ $ $ $ $ $ $ $ . . ",
". . $ $ $ $ $ $ $ $ $ $ $ $ t.u.Y v.%.$ $ $ $ $ $ $ $ $ b.u.! v.7 $ $ $ $ $ $ $ $ $ $ $ $ . . ",
". . $ $ $ $ $ $ $ $ $ $ $ $ o K . x %.$ $ $ $ $ $ $ $ $ R w.. x.C $ $ $ $ $ $ $ $ $ $ $ $ . . ",
". . $ $ $ $ $ $ $ $ $ $ $ } y.z.. A.B.C.= $ $ $ $ $ # D.f +.. 6.E.} $ $ $ $ $ $ $ $ $ $ $ . . ",
". . $ $ $ $ $ $ $ $ $ $ F.. . G.. N . . H.$ $ $ $ $ >.. . G.. N . . ~ $ $ $ $ $ $ $ $ $ $ . . ",
". . $ $ $ $ $ $ $ $ $ $ 5 . . . . . . . j $ $ $ $ $ p.. . . . . . . h.$ $ $ $ $ $ $ $ $ $ . . ",
". . $ $ $ $ $ $ $ $ $ $ I.. . . . . . . 2.$ $ $ $ $ A . . . . . . . J.$ $ $ $ $ $ $ $ $ $ . . ",
". . $ $ $ $ $ $ $ $ $ $ G q.j e . . f.K.L.M.m.f.f.N.O.P.K . . . k.Q.' $ $ $ $ $ $ $ $ $ $ . . ",
". . $ $ $ $ $ $ $ $ $ $ $ $ R.. . . F.$ # 3.S.. n.> - $ | . . . T.$ $ $ $ $ $ $ $ $ $ $ $ . . ",
". . $ $ $ $ $ $ $ $ $ $ $ $ U.. . . V.R.M ^.W.. X.N Y.| g.. . . Z.$ $ $ $ $ `.[.[.).$ $ $ . . ",
". . $ $ $ $ $ $ $ $ $ $ $ $ /.$.. . F b . . . . . . . O Y . .  +> $ $ $ $ $ @ e p .+$ $ $ . . ",
". . $ $ $ $ $ $ $ $ $ $ $ $ $ 3.E.u.$ b . . . . . . . n.$ %.J.9.$ $ $ $ /.++@+#.D #+,.$ $ . . ",
". . $ $ $ $ $ $ $ $ $ $ $ $ $ $ $ $ $ R.p.. . . . . w.$+$ $ $ $ $ $ $ $ D.. . . . . t $ $ . . ",
". . $ $ $ $ $ $ $ $ $ $ $ $ $ $ $ $ $ $ '.F x . . %+I $ $ $ $ $ $ $ $ $ E h.=.. N n * $ $ . . ",
". . $ $ $ $ $ $ $ $ $ $ $ $ @.n O O ~ $ $ c.. . . &+$ $ }.O O ++-.$ $ $ $ $ |..  +> $ $ $ . . ",
". . $ $ $ $ $ $ $ $ $ $ $ ) ' *+. =+;.3 $ ].^.. . {.$ 3 E -+. A.[.= $ $ $ $ d.. ;+>+$ $ $ . . ",
". . $ $ $ $ $ $ $ $ $ $ h i $.X . ,+*._.'+$ F.B >.I )+m #.!+. 8. +j ~+$ $ $ $ R.E $ $ $ $ . . ",
". . $ $ $ $ $ $ $ $ $ $ s.. . . . . . . ] $ $ $ $ $ {+. . . . . . . q.$ /.]+^+p u.$ t y.$ . . ",
". . $ $ $ $ $ $ $ $ $ $ /+. . . . . . . (+$ $ $ $ $ _+. . . . . . . -+$ :.. . . :+<+{ v $ . . ",
". . $ $ $ $ $ $ $ $ $ $ R #+. . . . . [+c.$ $ $ $ $ 4.x . . . . . }+a.$ =.j.[.J.. |+{ v $ . . ",
". . $ $ $ $ $ $ $ $ $ $ $ <+c.e . . +.' $ $ $ $ $ $ $ [.d . . . 8 .+$ $ =.1+$ 2+. |+{ v $ . . ",
". . $ $ $ $ $ $ $ $ $ $ $ $ F.. . . v $ $ $ $ $ $ $ $ $ >.. . . 4 $ $ $ =.1+$ 2+. |+{ v $ . . ",
". . $ $ $ $ $ $ $ $ $ $ $ $ V . . . }.$ $ $ $ $ $ $ $ $ 3+. . . R $ $ $ =.1+$ 2+. |+{ v $ . . ",
". . $ $ $ $ $ $ $ $ $ $ $ $ $ 4+M 5+I $ $ $ $ $ $ $ $ $ ^ c M 6+$ $ $ $ =.1+$ 2+. |+{ v $ . . ",
". . $ $ $ $ $ $ $ $ $ $ $ $ $ $ $ $ $ $ $ $ $ $ $ $ $ $ $ $ $ $ $ $ $ $ =.&+).2 . |+{ v $ . . ",
". . $ $ $ $ $ $ $ $ $ $ $ $ $ $ $ $ $ $ $ $ $ $ $ $ $ $ $ $ $ $ $ $ $ $ 7+. . . q - { v $ . . ",
". . = $ $ $ $ $ $ $ $ $ $ $ $ $ $ $ $ $ $ $ $ $ $ $ $ $ $ $ $ $ $ $ $ $ C 8.O B g $ ++4+) . . ",
"  . 9 $ $ $ $ $ $ $ $ $ $ $ $ $ $ $ $ $ $ $ $ $ $ $ $ $ $ $ $ $ $ $ $ $ $ $ $ $ $ $ $ $ l .   ",
"  . & 9 # $ $ $ $ $ $ $ $ $ $ $ $ $ $ $ $ $ $ $ $ $ $ $ $ $ $ $ $ $ $ $ $ $ $ $ $ $ # 9 & .   ",
"    . . . . . . . . . . . . . . . . . . . . . . . . . . . . . . . . . . . . . . . . . . .     ",
"        . . . . . . . . . . . . . . . . . . . . . . . . . . . . . . . . . . . . . . .         "};
