/* XPM */
static const char* clubs11_xpm[] = {
"47 62 183 2",
"  	c None",
". 	c #000000",
"+ 	c #2A2A2A",
"@ 	c #B0B0B0",
"# 	c #FCFCFC",
"$ 	c #FFFFFF",
"% 	c #B2B2B2",
"& 	c #2E2E2E",
"* 	c #BABABA",
"= 	c #FDFDFD",
"- 	c #F3F3F3",
"; 	c #AFAFAF",
"> 	c #C8C8C8",
", 	c #FEFEFE",
"' 	c #D9D9D9",
") 	c #4E4E4E",
"! 	c #B1B1B1",
"~ 	c #767676",
"{ 	c #B4B4B4",
"] 	c #303030",
"^ 	c #676767",
"/ 	c #585858",
"( 	c #525252",
"_ 	c #5C5C5C",
": 	c #1B1B1B",
"< 	c #DBDBDB",
"[ 	c #C1C1C1",
"} 	c #BFBFBF",
"| 	c #E5E5E5",
"1 	c #D6D6D6",
"2 	c #A9A9A9",
"3 	c #FAFAFA",
"4 	c #171717",
"5 	c #DFDFDF",
"6 	c #DEDEDE",
"7 	c #8B8B8B",
"8 	c #1A1A1A",
"9 	c #696969",
"0 	c #C6C6C6",
"a 	c #E8E8E8",
"b 	c #060606",
"c 	c #9A9A9A",
"d 	c #EDEDED",
"e 	c #DDDDDD",
"f 	c #CDCDCD",
"g 	c #BDBDBD",
"h 	c #B5B5B5",
"i 	c #C7C7C7",
"j 	c #EEEEEE",
"k 	c #ABABAB",
"l 	c #535353",
"m 	c #C0C0C0",
"n 	c #969696",
"o 	c #6C6C6C",
"p 	c #414141",
"q 	c #010101",
"r 	c #181818",
"s 	c #545454",
"t 	c #919191",
"u 	c #E6E6E6",
"v 	c #F4F4F4",
"w 	c #1F1F1F",
"x 	c #141414",
"y 	c #040404",
"z 	c #B7B7B7",
"A 	c #777777",
"B 	c #373737",
"C 	c #F9F9F9",
"D 	c #C3C3C3",
"E 	c #B8B8B8",
"F 	c #434343",
"G 	c #353535",
"H 	c #E2E2E2",
"I 	c #474747",
"J 	c #292929",
"K 	c #959595",
"L 	c #030303",
"M 	c #E9E9E9",
"N 	c #0F0F0F",
"O 	c #484848",
"P 	c #717171",
"Q 	c #A4A4A4",
"R 	c #2C2C2C",
"S 	c #505050",
"T 	c #ECECEC",
"U 	c #C9C9C9",
"V 	c #A7A7A7",
"W 	c #848484",
"X 	c #616161",
"Y 	c #3E3E3E",
"Z 	c #1C1C1C",
"` 	c #3D3D3D",
" .	c #1E1E1E",
"..	c #575757",
"+.	c #A0A0A0",
"@.	c #6A6A6A",
"#.	c #878787",
"$.	c #A3A3A3",
"%.	c #F1F1F1",
"&.	c #161616",
"*.	c #7C7C7C",
"=.	c #7A7A7A",
"-.	c #0A0A0A",
";.	c #252525",
">.	c #202020",
",.	c #686868",
"'.	c #282828",
").	c #727272",
"!.	c #D7D7D7",
"~.	c #CBCBCB",
"{.	c #AAAAAA",
"].	c #8A8A8A",
"^.	c #272727",
"/.	c #D3D3D3",
"(.	c #515151",
"_.	c #101010",
":.	c #5B5B5B",
"<.	c #4A4A4A",
"[.	c #888888",
"}.	c #8E8E8E",
"|.	c #A6A6A6",
"1.	c #EFEFEF",
"2.	c #C2C2C2",
"3.	c #4C4C4C",
"4.	c #939393",
"5.	c #EBEBEB",
"6.	c #080808",
"7.	c #050505",
"8.	c #979797",
"9.	c #4B4B4B",
"0.	c #F8F8F8",
"a.	c #212121",
"b.	c #7B7B7B",
"c.	c #404040",
"d.	c #0D0D0D",
"e.	c #F2F2F2",
"f.	c #5D5D5D",
"g.	c #020202",
"h.	c #2F2F2F",
"i.	c #D2D2D2",
"j.	c #2B2B2B",
"k.	c #444444",
"l.	c #E3E3E3",
"m.	c #838383",
"n.	c #0B0B0B",
"o.	c #313131",
"p.	c #ACACAC",
"q.	c #7E7E7E",
"r.	c #F0F0F0",
"s.	c #A8A8A8",
"t.	c #757575",
"u.	c #606060",
"v.	c #7F7F7F",
"w.	c #FBFBFB",
"x.	c #3C3C3C",
"y.	c #909090",
"z.	c #121212",
"A.	c #363636",
"B.	c #323232",
"C.	c #4F4F4F",
"D.	c #C5C5C5",
"E.	c #4D4D4D",
"F.	c #6E6E6E",
"G.	c #868686",
"H.	c #232323",
"I.	c #6F6F6F",
"J.	c #8D8D8D",
"K.	c #F7F7F7",
"L.	c #454545",
"M.	c #131313",
"N.	c #656565",
"O.	c #A1A1A1",
"P.	c #828282",
"Q.	c #0C0C0C",
"R.	c #797979",
"S.	c #464646",
"T.	c #3F3F3F",
"U.	c #0E0E0E",
"V.	c #AEAEAE",
"W.	c #6D6D6D",
"X.	c #E7E7E7",
"Y.	c #BEBEBE",
"Z.	c #929292",
"        . . . . . . . . . . . . . . . . . . . . . . . . . . . . . . . . . . . . . . .         ",
"    . . . . . . . . . . . . . . . . . . . . . . . . . . . . . . . . . . . . . . . . . . .     ",
"  . + @ # $ $ $ $ $ $ $ $ $ $ $ $ $ $ $ $ $ $ $ $ $ $ $ $ $ $ $ $ $ $ $ $ $ $ $ $ $ # % & .   ",
"  . % $ $ $ $ $ $ $ $ $ $ $ $ $ $ $ $ $ $ $ $ $ $ $ $ $ $ $ $ $ $ $ $ $ $ $ $ $ $ $ $ $ * .   ",
". . = $ $ $ $ $ - ; > $ $ $ $ $ $ $ $ $ $ $ $ $ $ $ $ $ $ $ $ $ $ $ $ $ $ $ $ $ $ $ $ $ , . . ",
". . $ $ $ $ $ $ ' . ) $ $ $ $ $ $ $ $ $ $ $ $ $ $ $ $ $ $ $ $ $ $ $ $ $ $ $ $ $ $ $ $ $ $ . . ",
". . $ $ $ $ $ $ ' . ) $ $ $ $ $ $ $ $ $ $ $ $ $ $ $ $ $ $ $ $ $ $ $ $ $ $ $ $ $ $ $ $ $ $ . . ",
". . $ $ $ $ $ $ ' . ) $ $ $ $ $ $ $ $ $ $ $ $ $ $ $ $ $ $ $ $ $ $ $ $ $ $ $ $ $ $ $ $ $ $ . . ",
". . $ $ $ $ $ $ ' . ) $ $ $ $ $ $ $ $ $ $ $ $ $ $ $ $ $ $ $ $ $ $ $ $ $ $ $ $ $ $ $ $ $ $ . . ",
". . $ $ $ $ $ $ ' . ) $ $ $ $ $ $ $ $ $ $ $ $ $ $ $ $ $ $ $ $ $ $ $ $ $ $ $ $ $ $ $ $ $ $ . . ",
". . $ $ $ $ $ $ ' . ) $ $ $ $ $ $ $ $ $ $ $ $ $ $ $ $ $ $ $ $ $ $ $ $ $ $ $ $ $ $ $ $ $ $ . . ",
". . $ $ ! . ~ $ ' . ) $ $ $ $ $ $ $ $ $ $ $ $ $ $ $ $ $ $ $ $ $ $ $ $ $ $ $ $ $ $ $ $ $ $ . . ",
". . $ $ { . ] ^ / . ( $ $ $ $ $ $ $ $ $ $ $ $ $ $ $ $ $ $ $ $ $ $ $ $ $ $ $ $ $ $ $ $ $ $ . . ",
". . $ $ = _ . . . : < $ $ $ $ $ $ $ $ $ $ $ $ $ $ $ $ $ $ $ $ $ $ $ $ $ $ $ $ $ $ $ $ $ $ . . ",
". . $ $ $ = [ } } | $ $ $ $ $ $ $ $ $ $ $ $ $ $ $ $ $ $ $ $ $ $ $ $ $ $ $ $ $ $ $ $ $ $ $ . . ",
". . $ $ $ $ 1 ~ 2 # $ $ $ $ $ $ $ $ $ $ $ $ $ $ $ $ $ $ $ $ $ $ $ $ $ $ $ $ $ $ $ $ $ $ $ . . ",
". . $ $ $ 3 4 . . 2 $ $ $ $ $ $ $ $ $ $ $ $ $ $ $ $ $ $ $ $ $ $ $ $ $ $ $ $ $ $ $ $ $ $ $ . . ",
". . $ $ $ 5 . . . ~ $ $ $ $ $ $ $ $ $ $ $ $ $ $ $ $ $ $ $ $ $ $ $ $ $ $ $ $ $ $ $ $ $ $ $ . . ",
". . $ $ 6 7 8 . . 9 0 $ $ $ $ $ $ $ $ $ $ $ $ $ $ $ $ $ $ $ $ $ $ $ $ $ $ $ $ $ $ $ $ $ $ . . ",
". . $ a b . . . . . . c $ $ $ $ $ $ $ $ $ $ $ # d e f g h i < j $ $ $ $ $ $ $ $ $ $ $ $ $ . . ",
". . $ k . . . . . . . l $ $ $ $ $ - m n o p 4 q . . . . . . . . r s t u $ $ $ $ $ $ $ $ $ . . ",
". . $ v 8 . w . x . y ! $ v z A B y . . . . . . . . . . . . . . . . . ' $ $ $ $ $ $ $ $ $ . . ",
". . $ $ C D E . F i | $ $ * . . . . . . . . . . . . . . . . . . . . G $ $ $ $ $ $ $ $ $ $ . . ",
". . $ $ $ H s I I { $ $ $ , J . . . . . . . . . . . . . . . . . . . t $ $ $ $ $ $ $ $ $ $ . . ",
". . $ $ $ $ $ $ $ $ $ $ $ $ K . . . . . . . . . . . . . . . . . . L M $ $ $ $ $ $ $ $ $ $ . . ",
". . $ $ $ $ $ $ $ $ $ $ $ $ - N . . . . . . . . . . . . . . . . . O $ $ $ $ $ $ $ $ $ $ $ . . ",
". . $ $ $ $ $ $ $ $ $ $ $ $ $ P . . . . . . . . . . . . . . . . . Q $ $ $ $ $ $ $ $ $ $ $ . . ",
". . $ $ $ $ $ $ $ $ $ $ $ $ $ A . . . . . . . . . . . . R l ^ S . @ $ $ $ $ $ $ $ $ $ $ $ . . ",
". . $ $ $ $ $ $ $ $ $ $ $ $ $ $ T U V W X Y Z q . . ` E $ $ $ ,  ...$ $ $ $ $ $ $ $ $ $ $ . . ",
". . $ $ $ $ $ $ $ $ $ $ $ $ +.@.#.$.m e C $ %.&.. *.$ $ $ $ $ $ =.-.- $ $ $ $ $ $ $ $ $ $ . . ",
". . $ $ $ $ $ $ $ $ $ $ $ = ;.. . . . . q 4 >.. S $ $ , ,.'.).$ !.. $.$ $ $ $ $ $ $ $ $ $ . . ",
". . $ $ $ $ $ $ $ $ $ $ $ $ $ T ~.{.].9 O ^.. q /.$ $ = (._.:., $ G <.$ $ $ $ $ $ $ $ $ $ . . ",
". . $ $ $ $ $ $ $ $ $ $ $ [.}.|.} !.1.$ $ 2.. 3.$ $ $ $ $ $ $ $ $ 4.y 5.$ $ $ $ $ $ $ $ $ . . ",
". . $ $ $ $ $ $ $ $ $ $ 0 . . . . . . 6.>.8 . % $ $ $ $ $ $ $ $ $ 5.7.8.$ $ $ $ $ $ $ $ $ . . ",
". . $ $ $ $ $ $ $ $ $ $ !.].'.. . . . . . . 8 # $ $ $ $ $ $ $ $ $ $ 9.` $ $ $ $ $ $ $ $ $ . . ",
". . $ $ $ $ $ $ $ $ $ $ $ 0.| a.. . . . . . b.$ $ $ $ $ $ = {.9 c.4 . d.d $ $ $ $ $ $ $ $ . . ",
". . $ $ $ $ $ $ $ $ e.f. .g.>./ . . . . . q 6 $ $ $ $ $ [ h.. . . A i.# $ $ $ $ $ $ $ $ $ . . ",
". . $ $ $ $ $ $ $ e j.. . . . 6.. . . . . k.$ $ $ $ l./ . . . . . i $ $ $ $ $ $ $ $ $ $ $ . . ",
". . $ $ $ $ $ $ $ c.. . . . . . . . . . . 2 $ $ u m.n.. . . g.o.b 1 $ $ $ p.A A q.a $ $ $ . . ",
". . $ $ $ $ $ $ # . . . . . . . . . . . x C $ $ r.s.t.u.v.@ j , 7.| $ $ w.T x.. y.5.$ $ $ . . ",
". . $ $ $ $ $ $ = z.. . . . . . . . . . 4.$ $ w.$ $ $ $ $ $ $ T . v $ g 8 z.A.g.B.q C., $ . . ",
". . $ $ $ $ $ $ $ ^ . . . . . . . . . s $ $ $ D._ E.F.b.G.W ( : y $ $ k.. . . . . . . [ $ . . ",
". . $ $ $ $ $ $ $ i.-.. . . . . . . ^.%.$ $ $ $ $ {.3.H.g.. . y ^.$ $ I.. . . . . . 7.a $ . . ",
". . $ $ $ $ $ $ $ $ @ 6.. . . . x J.K.$ $ $ $ $ $ $ $ $ K.6 1.$ $ $ $ 1.G.L.. . M.N.D $ $ . . ",
". . $ $ $ $ $ $ $ $ $ e.O.P.K {.e.$ $ $ $ $ $ $ $ $ $ $ $ $ $ $ $ $ $ $ $ P.. . L u $ $ $ . . ",
". . $ $ $ $ $ $ $ $ $ $ $ $ $ $ $ $ $ $ $ $ $ $ $ $ $ $ $ $ $ $ $ $ $ $ $ n . . Q.%.$ $ $ . . ",
". . $ $ $ $ $ $ $ $ $ $ $ $ $ $ $ $ $ $ $ $ $ $ $ $ $ $ $ $ $ $ $ $ $ $ $ v R.S.% $ $ $ $ . . ",
". . $ $ $ $ $ $ $ $ $ $ $ $ $ $ $ $ $ $ $ $ $ $ $ $ $ $ $ $ $ $ $ $ $ $ $ $ $ $ $ $ $ $ $ . . ",
". . $ $ $ $ $ $ $ $ $ $ $ $ $ $ $ $ $ $ $ $ $ $ $ $ $ $ $ $ $ $ $ $ $ $ $ > p T.T.P.$ $ $ . . ",
". . $ $ $ $ $ $ $ $ $ $ $ $ $ $ $ $ $ $ $ $ $ $ $ $ $ $ $ $ $ $ $ $ $ $ !.U.. . . . [.$ $ . . ",
". . $ $ $ $ $ $ $ $ $ $ $ $ $ $ $ $ $ $ $ $ $ $ $ $ $ $ $ $ $ $ $ $ $ $ V.. W.X.2.. (.$ $ . . ",
". . $ $ $ $ $ $ $ $ $ $ $ $ $ $ $ $ $ $ $ $ $ $ $ $ $ $ $ $ $ $ $ $ $ $ V.. R.$ 5.v.s.$ $ . . ",
". . $ $ $ $ $ $ $ $ $ $ $ $ $ $ $ $ $ $ $ $ $ $ $ $ $ $ $ $ $ $ $ $ $ $ V.. R.$ $ $ $ $ $ . . ",
". . $ $ $ $ $ $ $ $ $ $ $ $ $ $ $ $ $ $ $ $ $ $ $ $ $ $ $ $ $ $ $ $ $ $ V.. R.$ $ $ $ $ $ . . ",
". . $ $ $ $ $ $ $ $ $ $ $ $ $ $ $ $ $ $ $ $ $ $ $ $ $ $ $ $ $ $ $ $ $ $ V.. R.$ $ $ $ $ $ . . ",
". . $ $ $ $ $ $ $ $ $ $ $ $ $ $ $ $ $ $ $ $ $ $ $ $ $ $ $ $ $ $ $ $ $ $ V.. R.$ $ $ $ $ $ . . ",
". . $ $ $ $ $ $ $ $ $ $ $ $ $ $ $ $ $ $ $ $ $ $ $ $ $ $ $ $ $ $ $ $ $ $ V.. R.$ $ $ $ $ $ . . ",
". . = $ $ $ $ $ $ $ $ $ $ $ $ $ $ $ $ $ $ $ $ $ $ $ $ $ $ $ $ $ $ $ $ $ Y.h.Z.$ $ $ $ $ , . . ",
"  . { $ $ $ $ $ $ $ $ $ $ $ $ $ $ $ $ $ $ $ $ $ $ $ $ $ $ $ $ $ $ $ $ $ $ $ $ $ $ $ $ $ z .   ",
"  . & { # $ $ $ $ $ $ $ $ $ $ $ $ $ $ $ $ $ $ $ $ $ $ $ $ $ $ $ $ $ $ $ $ $ $ $ $ $ # { & .   ",
"    . . . . . . . . . . . . . . . . . . . . . . . . . . . . . . . . . . . . . . . . . . .     ",
"        . . . . . . . . . . . . . . . . . . . . . . . . . . . . . . . . . . . . . . .         "};
