/* XPM */
static const char* clubs12_xpm[] = {
"47 62 189 2",
"  	c None",
". 	c #000000",
"+ 	c #2A2A2A",
"@ 	c #B0B0B0",
"# 	c #FCFCFC",
"$ 	c #FFFFFF",
"% 	c #B2B2B2",
"& 	c #2E2E2E",
"* 	c #BABABA",
"= 	c #FDFDFD",
"- 	c #F9F9F9",
"; 	c #B1B1B1",
"> 	c #AFAFAF",
", 	c #DCDCDC",
"' 	c #FEFEFE",
") 	c #F8F8F8",
"! 	c #4B4B4B",
"~ 	c #131313",
"{ 	c #CECECE",
"] 	c #3B3B3B",
"^ 	c #7F7F7F",
"/ 	c #6C6C6C",
"( 	c #4F4F4F",
"_ 	c #767676",
": 	c #D9D9D9",
"< 	c #4E4E4E",
"[ 	c #F3F3F3",
"} 	c #B4B4B4",
"| 	c #303030",
"1 	c #323232",
"2 	c #0F0F0F",
"3 	c #525252",
"4 	c #5C5C5C",
"5 	c #BFBFBF",
"6 	c #C1C1C1",
"7 	c #010101",
"8 	c #A1A1A1",
"9 	c #E4E4E4",
"0 	c #5D5D5D",
"a 	c #383838",
"b 	c #ADADAD",
"c 	c #707070",
"d 	c #121212",
"e 	c #F6F6F6",
"f 	c #C8C8C8",
"g 	c #B7B7B7",
"h 	c #BBBBBB",
"i 	c #181818",
"j 	c #FAFAFA",
"k 	c #F7F7F7",
"l 	c #282828",
"m 	c #020202",
"n 	c #848484",
"o 	c #A6A6A6",
"p 	c #090909",
"q 	c #0C0C0C",
"r 	c #CCCCCC",
"s 	c #414141",
"t 	c #1A1A1A",
"u 	c #313131",
"v 	c #9A9A9A",
"w 	c #747474",
"x 	c #757575",
"y 	c #505050",
"z 	c #727272",
"A 	c #171717",
"B 	c #DDDDDD",
"C 	c #797979",
"D 	c #3D3D3D",
"E 	c #040404",
"F 	c #BCBCBC",
"G 	c #0E0E0E",
"H 	c #545454",
"I 	c #080808",
"J 	c #C7C7C7",
"K 	c #515151",
"L 	c #0A0A0A",
"M 	c #EDEDED",
"N 	c #4A4A4A",
"O 	c #E1E1E1",
"P 	c #717171",
"Q 	c #777777",
"R 	c #4C4C4C",
"S 	c #070707",
"T 	c #7C7C7C",
"U 	c #555555",
"V 	c #979797",
"W 	c #A7A7A7",
"X 	c #656565",
"Y 	c #A2A2A2",
"Z 	c #D1D1D1",
"` 	c #B3B3B3",
" .	c #F0F0F0",
"..	c #EFEFEF",
"+.	c #0B0B0B",
"@.	c #565656",
"#.	c #5B5B5B",
"$.	c #E6E6E6",
"%.	c #ECECEC",
"&.	c #D8D8D8",
"*.	c #585858",
"=.	c #252525",
"-.	c #F1F1F1",
";.	c #222222",
">.	c #7E7E7E",
",.	c #D2D2D2",
"'.	c #141414",
").	c #FBFBFB",
"!.	c #8F8F8F",
"~.	c #666666",
"{.	c #606060",
"].	c #1E1E1E",
"^.	c #454545",
"/.	c #A3A3A3",
"(.	c #2B2B2B",
"_.	c #373737",
":.	c #D4D4D4",
"<.	c #C3C3C3",
"[.	c #F4F4F4",
"}.	c #737373",
"|.	c #EEEEEE",
"1.	c #696969",
"2.	c #212121",
"3.	c #5A5A5A",
"4.	c #333333",
"5.	c #444444",
"6.	c #C2C2C2",
"7.	c #232323",
"8.	c #6E6E6E",
"9.	c #E8E8E8",
"0.	c #B9B9B9",
"a.	c #3F3F3F",
"b.	c #AEAEAE",
"c.	c #E9E9E9",
"d.	c #9B9B9B",
"e.	c #030303",
"f.	c #161616",
"g.	c #6A6A6A",
"h.	c #1C1C1C",
"i.	c #838383",
"j.	c #858585",
"k.	c #191919",
"l.	c #1F1F1F",
"m.	c #202020",
"n.	c #A5A5A5",
"o.	c #3C3C3C",
"p.	c #050505",
"q.	c #DBDBDB",
"r.	c #8A8A8A",
"s.	c #BEBEBE",
"t.	c #959595",
"u.	c #A4A4A4",
"v.	c #262626",
"w.	c #A0A0A0",
"x.	c #353535",
"y.	c #E7E7E7",
"z.	c #E3E3E3",
"A.	c #3A3A3A",
"B.	c #828282",
"C.	c #7B7B7B",
"D.	c #404040",
"E.	c #EBEBEB",
"F.	c #424242",
"G.	c #272727",
"H.	c #6F6F6F",
"I.	c #575757",
"J.	c #626262",
"K.	c #ABABAB",
"L.	c #B6B6B6",
"M.	c #2D2D2D",
"N.	c #878787",
"O.	c #888888",
"P.	c #F2F2F2",
"Q.	c #C6C6C6",
"R.	c #A9A9A9",
"S.	c #BDBDBD",
"T.	c #E5E5E5",
"U.	c #2C2C2C",
"V.	c #787878",
"W.	c #7D7D7D",
"X.	c #151515",
"Y.	c #363636",
"Z.	c #D7D7D7",
"`.	c #494949",
" +	c #646464",
".+	c #D6D6D6",
"++	c #CFCFCF",
"@+	c #7A7A7A",
"#+	c #2F2F2F",
"        . . . . . . . . . . . . . . . . . . . . . . . . . . . . . . . . . . . . . . .         ",
"    . . . . . . . . . . . . . . . . . . . . . . . . . . . . . . . . . . . . . . . . . . .     ",
"  . + @ # $ $ $ $ $ $ $ $ $ $ $ $ $ $ $ $ $ $ $ $ $ $ $ $ $ $ $ $ $ $ $ $ $ $ $ $ $ # % & .   ",
"  . % $ $ $ $ $ $ $ $ $ $ $ $ $ $ $ $ $ $ $ $ $ $ $ $ $ $ $ $ $ $ $ $ $ $ $ $ $ $ $ $ $ * .   ",
". . = $ $ - ; > > , $ $ $ $ $ $ $ $ $ $ $ $ $ $ $ $ $ $ $ $ $ $ $ $ $ $ $ $ $ $ $ $ $ $ ' . . ",
". . $ $ ) ! . . . ~ { $ $ $ $ $ $ $ $ $ $ $ $ $ $ $ $ $ $ $ $ $ $ $ $ $ $ $ $ $ $ $ $ $ $ . . ",
". . $ $ ; . ] ^ / . ( $ $ $ $ $ $ $ $ $ $ $ $ $ $ $ $ $ $ $ $ $ $ $ $ $ $ $ $ $ $ $ $ $ $ . . ",
". . $ $ ; . _ $ : . < $ $ $ $ $ $ $ $ $ $ $ $ $ $ $ $ $ $ $ $ $ $ $ $ $ $ $ $ $ $ $ $ $ $ . . ",
". . $ $ ; . _ $ : . < $ $ $ $ $ $ $ $ $ $ $ $ $ $ $ $ $ $ $ $ $ $ $ $ $ $ $ $ $ $ $ $ $ $ . . ",
". . $ $ ; . _ $ : . < $ $ $ $ $ $ $ $ $ $ $ $ $ $ $ $ $ $ $ $ $ $ $ $ $ $ $ $ $ $ $ $ $ $ . . ",
". . $ $ ; . _ $ : . < $ $ $ $ $ $ $ $ $ $ $ $ $ $ $ $ $ $ $ $ $ $ $ $ $ $ $ $ $ $ $ $ $ $ . . ",
". . $ $ ; . _ [ * . < $ $ $ $ $ $ $ $ $ $ $ $ $ $ $ $ $ $ $ $ $ $ $ $ $ $ $ $ $ $ $ $ $ $ . . ",
". . $ $ } . | 1 2 . 3 $ $ $ $ $ $ $ $ $ $ $ $ $ $ $ $ $ $ $ $ $ $ $ $ $ $ $ $ $ $ $ $ $ $ . . ",
". . $ $ = 4 . . . . 5 $ $ $ $ $ $ $ $ $ $ $ $ $ $ $ $ $ $ $ $ $ $ $ $ $ $ $ $ $ $ $ $ $ $ . . ",
". . $ $ $ = 6 5 4 7 8 $ $ $ $ $ $ $ $ $ $ $ $ $ $ $ $ $ $ $ $ $ $ $ $ $ $ $ $ $ $ $ $ $ $ . . ",
". . $ $ $ $ $ $ = 5 $ $ $ $ $ $ $ $ $ $ $ $ $ $ $ $ $ $ $ $ $ $ $ $ $ $ $ $ $ $ $ $ $ $ $ . . ",
". . $ $ $ $ 9 0 a b $ $ $ $ $ $ $ $ $ $ $ $ $ $ $ $ $ $ $ $ $ $ $ $ $ $ $ $ $ $ $ $ $ $ $ . . ",
". . $ $ $ $ c . . d e $ $ $ $ $ $ $ $ $ $ $ $ f g $ $ $ $ { h $ $ $ $ $ $ $ $ $ $ $ $ $ $ . . ",
". . $ $ $ $ ^ . . i j $ $ $ $ $ $ $ $ $ $ $ k l m n ' $ o p q r $ $ ' f $ $ $ $ $ $ $ $ $ . . ",
". . $ $ f s t . . 2 u v $ $ $ $ $ $ w @ ) $ x . . . y z . . . A B % & C $ $ $ $ $ $ $ $ $ . . ",
". . $ $ D . . . . . . E 9 $ $ $ $ F . . G H m . . . . . . . . . I . . J $ $ $ $ $ $ $ $ $ . . ",
". . $ $ K . . . . . . L M $ $ $ $ N . . . . . . . . . . . . . . . . i ' $ $ $ $ $ $ $ $ $ . . ",
". . $ $ O P Q R S T U * = c c V W 7 . . . . . . . . . . . . . . . . X $ $ $ $ $ $ $ $ $ $ . . ",
". . $ $ $ $ Y I . H e $ $ Z I . . . . . . . . . . . . . . . . . . . ` $ $ $ $ $ $ $ $ $ $ . . ",
". . $ $ $ $  .......- $ $ $ V . . . . . . . . . . . . . . m . . . +.k $ $ $ $ $ $ $ $ $ $ . . ",
". . $ $ $ $ $ $ $ $ $ $ $ $ $ @.. . . . . . . . . . #.> $.= %.&.*.=.$ $ $ $ $ $ $ $ $ $ $ . . ",
". . $ $ $ $ $ $ $ $ $ $ $ $ $ -.;.. . . . . . . . >.$ $ $ $ $ $ * . ,.$ $ $ $ $ $ $ $ $ $ . . ",
". . $ $ $ $ $ $ $ $ $ $ $ $ $ $ } . . . . . . . '.) $ $ $ $ $ $ ).d Q $ $ $ $ $ $ $ $ $ $ . . ",
". . $ $ $ $ $ $ $ $ $ $ $ $ $ $ !.. . . . . . . ~.$ $ $ $ $ $ $ $ {.].' $ $ $ $ $ $ $ $ $ . . ",
". . $ $ $ $ $ $ $ $ $ $ $ $ $ $ ^.. . . . . . . F $ $ $ $ /.(._.:.` . <.$ $ $ $ $ $ $ $ $ . . ",
". . $ $ $ $ $ $ $ $ $ $ $ $ $ [.S . . . . . . m e $ $ $ $ Z }.^ |.) G 1.$ $ $ $ $ $ $ $ $ . . ",
". . $ $ $ $ $ $ $ $ $ $ $ $ $ /.. . . . . . . 2.$ $ $ $ $ $ $ $ $ $ 3.~ j $ $ $ $ $ $ $ $ . . ",
". . $ $ $ $ $ $ $ $ $ $ $ $ $ 4.. . . . . . . 5.$ $ $ $ $ $ $ $ $ $ ^ . } $ $ $ $ $ $ $ $ . . ",
". . $ $ $ $ $ $ $ $ $ $ $ $ 6.. . . . . . . . 7.$ $ $ $ $ $ $ $ ).8.. q W $ $ $ $ $ $ $ $ . . ",
". . $ $ $ $ $ $ $ $ $ $ $ $ ( . . . . . . . . . ..$ $ $ $ $ $ $ :.. 0 9.$ $ $ $ $ $ $ $ $ . . ",
". . $ $ $ $ $ $ $ $ $ $ $ <.. . . . . . . . . . 0.$ $ $ $ $ $ $ 6 . ,.$ $ $ $ $ $ $ $ $ $ . . ",
". . $ $ $ $ $ $ $ $ $ $ = u . . . . . . . . . . a.$ $ $ $ $ $ $ b.. c.$ $ $ $ $ $ $ $ $ $ . . ",
". . $ $ $ $ $ $ $ $ $ $ d.. . . . . . . . . . d . W $ $ $ $ $ $ d.e.= $ $ $ $ $ $ $ $ $ $ . . ",
". . $ $ $ $ $ $ $ $ $  .f.. . . . . . . . . g.W . h.[.B Q ^ i.j.N k.$ $ $ %.R l.m.n.$ $ $ . . ",
". . $ $ $ $ $ $ $ $ $ z . . . . . . . . . >.' g . . d.$ M i.o.p.. | $ $ q.r.s.E a.t.u.) $ . . ",
". . $ $ $ $ $ $ $ $ e v.. . . . . . . q W $ w.p.. x.) $ $ $ $ ' ..y.$ |.+.. . m . . . w $ . . ",
". . $ $ $ $ $ $ $ ).z.= } y =.I G A.B.|.- C.. . D.E.$ $ $ $ $ $ $ $ $ 6.. . . . . . . F.$ . . ",
". . $ $ $ $ $ $ $ T 2 8 $ $ $ $ $ $ $ h G.. . H.).$ $ $ $ $ $ $ $ $ $ $ I.e.. . . . ;.F $ . . ",
". . $ $ $ $ $ $ # ~.p . t J.K.J L.^ M.. . +.8 $ $ $ $ $ $ $ $ $ $ $ $ $ $ -.(.. . N.' $ $ . . ",
". . $ $ $ $ $ $ $ $ M r.m.. . . . . . h.O.|.$ $ $ $ $ $ $ $ $ $ $ $ $ $ $ P.I . . J.$ $ $ . . ",
". . $ $ $ $ $ $ $ $ $ $ ' 9 Q.R.v S.T.$ $ $ $ $ $ $ $ $ $ $ $ $ $ $ $ $ $ $ O.2 U.Z $ $ $ . . ",
". . $ $ $ $ $ $ $ $ $ $ $ $ $ $ $ $ $ $ $ $ $ $ $ $ $ $ $ $ $ $ $ $ $ $ $ $ $ j $ $ $ $ $ . . ",
". . $ $ $ $ $ $ $ $ $ $ $ $ $ $ $ $ $ $ $ $ $ $ $ $ $ $ $ $ $ $ $ $ $ $ $ V.W.$ $ $ $ $ $ . . ",
". . $ $ $ $ $ $ $ $ $ $ $ $ $ $ $ $ $ $ $ $ $ $ $ $ $ $ $ $ $ $ $ $ $ $ $.X.. Y.a.B.$ $ $ . . ",
". . $ $ $ $ $ $ $ $ $ $ $ $ $ $ $ $ $ $ $ $ $ $ $ $ $ $ $ $ $ $ $ $ $ $ Z.G . . . . O.$ $ . . ",
". . $ $ $ $ $ $ $ $ $ $ $ $ $ $ $ $ $ $ $ $ $ $ $ $ $ $ $ $ $ $ $ $ $ $ b.. `. +6 . K $ $ . . ",
". . $ $ $ $ $ $ $ $ $ $ $ $ $ $ $ $ $ $ $ $ $ $ $ $ $ $ $ $ $ $ $ $ $ $ b.. C $ .+. K $ $ . . ",
". . $ $ $ $ $ $ $ $ $ $ $ $ $ $ $ $ $ $ $ $ $ $ $ $ $ $ $ $ $ $ $ $ $ $ b.. C $ .+. K $ $ . . ",
". . $ $ $ $ $ $ $ $ $ $ $ $ $ $ $ $ $ $ $ $ $ $ $ $ $ $ $ $ $ $ $ $ $ $ b.. C $ .+. K $ $ . . ",
". . $ $ $ $ $ $ $ $ $ $ $ $ $ $ $ $ $ $ $ $ $ $ $ $ $ $ $ $ $ $ $ $ $ $ b.. C $ .+. K $ $ . . ",
". . $ $ $ $ $ $ $ $ $ $ $ $ $ $ $ $ $ $ $ $ $ $ $ $ $ $ $ $ $ $ $ $ $ $ b.. C $ .+. K $ $ . . ",
". . $ $ $ $ $ $ $ $ $ $ $ $ $ $ $ $ $ $ $ $ $ $ $ $ $ $ $ $ $ $ $ $ $ $ ++I . . . . @+$ $ . . ",
". . = $ $ $ $ $ $ $ $ $ $ $ $ $ $ $ $ $ $ $ $ $ $ $ $ $ $ $ $ $ $ $ $ $ $ h u #+#+P ' $ ' . . ",
"  . } $ $ $ $ $ $ $ $ $ $ $ $ $ $ $ $ $ $ $ $ $ $ $ $ $ $ $ $ $ $ $ $ $ $ $ $ $ $ $ $ $ g .   ",
"  . & } # $ $ $ $ $ $ $ $ $ $ $ $ $ $ $ $ $ $ $ $ $ $ $ $ $ $ $ $ $ $ $ $ $ $ $ $ $ # } & .   ",
"    . . . . . . . . . . . . . . . . . . . . . . . . . . . . . . . . . . . . . . . . . . .     ",
"        . . . . . . . . . . . . . . . . . . . . . . . . . . . . . . . . . . . . . . .         "};
