/* XPM */
static const char* clubs13_xpm[] = {
"47 62 203 2",
"  	c None",
". 	c #000000",
"+ 	c #2A2A2A",
"@ 	c #B0B0B0",
"# 	c #FCFCFC",
"$ 	c #FFFFFF",
"% 	c #B2B2B2",
"& 	c #2E2E2E",
"* 	c #BABABA",
"= 	c #FDFDFD",
"- 	c #D3D3D3",
"; 	c #AFAFAF",
"> 	c #E9E9E9",
", 	c #D8D8D8",
"' 	c #CFCFCF",
") 	c #FEFEFE",
"! 	c #717171",
"~ 	c #B6B6B6",
"{ 	c #F9F9F9",
"] 	c #262626",
"^ 	c #010101",
"/ 	c #C6C6C6",
"( 	c #8A8A8A",
"_ 	c #5C5C5C",
": 	c #9E9E9E",
"< 	c #0D0D0D",
"[ 	c #0C0C0C",
"} 	c #E5E5E5",
"| 	c #202020",
"1 	c #868686",
"2 	c #030303",
"3 	c #EDEDED",
"4 	c #7D7D7D",
"5 	c #A3A3A3",
"6 	c #121212",
"7 	c #080808",
"8 	c #DFDFDF",
"9 	c #949494",
"0 	c #535353",
"a 	c #2C2C2C",
"b 	c #BEBEBE",
"c 	c #DCDCDC",
"d 	c #BFBFBF",
"e 	c #E1E1E1",
"f 	c #D6D6D6",
"g 	c #767676",
"h 	c #A9A9A9",
"i 	c #FAFAFA",
"j 	c #171717",
"k 	c #F3F3F3",
"l 	c #EBEBEB",
"m 	c #DEDEDE",
"n 	c #8B8B8B",
"o 	c #1A1A1A",
"p 	c #696969",
"q 	c #838383",
"r 	c #FBFBFB",
"s 	c #F4F4F4",
"t 	c #343434",
"u 	c #6C6C6C",
"v 	c #E6E6E6",
"w 	c #E8E8E8",
"x 	c #060606",
"y 	c #9A9A9A",
"z 	c #9F9F9F",
"A 	c #3C3C3C",
"B 	c #C8C8C8",
"C 	c #585858",
"D 	c #4A4A4A",
"E 	c #606060",
"F 	c #020202",
"G 	c #494949",
"H 	c #575757",
"I 	c #ABABAB",
"J 	c #414141",
"K 	c #131313",
"L 	c #515151",
"M 	c #040404",
"N 	c #1D1D1D",
"O 	c #4B4B4B",
"P 	c #1F1F1F",
"Q 	c #141414",
"R 	c #B1B1B1",
"S 	c #F6F6F6",
"T 	c #A0A0A0",
"U 	c #B5B5B5",
"V 	c #050505",
"W 	c #C3C3C3",
"X 	c #B8B8B8",
"Y 	c #434343",
"Z 	c #C7C7C7",
"` 	c #5F5F5F",
" .	c #090909",
"..	c #272727",
"+.	c #313131",
"@.	c #E2E2E2",
"#.	c #545454",
"$.	c #474747",
"%.	c #B4B4B4",
"&.	c #F7F7F7",
"*.	c #363636",
"=.	c #757575",
"-.	c #161616",
";.	c #D0D0D0",
">.	c #6E6E6E",
",.	c #0A0A0A",
"'.	c #E4E4E4",
").	c #8C8C8C",
"!.	c #787878",
"~.	c #616161",
"{.	c #F1F1F1",
"].	c #424242",
"^.	c #9C9C9C",
"/.	c #737373",
"(.	c #3A3A3A",
"_.	c #F2F2F2",
":.	c #8E8E8E",
"<.	c #C2C2C2",
"[.	c #242424",
"}.	c #8D8D8D",
"|.	c #212121",
"1.	c #4F4F4F",
"2.	c #252525",
"3.	c #A2A2A2",
"4.	c #A6A6A6",
"5.	c #404040",
"6.	c #4D4D4D",
"7.	c #151515",
"8.	c #AAAAAA",
"9.	c #0E0E0E",
"0.	c #EEEEEE",
"a.	c #808080",
"b.	c #5E5E5E",
"c.	c #878787",
"d.	c #303030",
"e.	c #989898",
"f.	c #626262",
"g.	c #4E4E4E",
"h.	c #6F6F6F",
"i.	c #DBDBDB",
"j.	c #E0E0E0",
"k.	c #B9B9B9",
"l.	c #666666",
"m.	c #B3B3B3",
"n.	c #858585",
"o.	c #9D9D9D",
"p.	c #6D6D6D",
"q.	c #929292",
"r.	c #0B0B0B",
"s.	c #555555",
"t.	c #A4A4A4",
"u.	c #565656",
"v.	c #6A6A6A",
"w.	c #EAEAEA",
"x.	c #232323",
"y.	c #3E3E3E",
"z.	c #5B5B5B",
"A.	c #A8A8A8",
"B.	c #F0F0F0",
"C.	c #101010",
"D.	c #CCCCCC",
"E.	c #B7B7B7",
"F.	c #828282",
"G.	c #CACACA",
"H.	c #A7A7A7",
"I.	c #222222",
"J.	c #BCBCBC",
"K.	c #ACACAC",
"L.	c #777777",
"M.	c #7E7E7E",
"N.	c #DADADA",
"O.	c #353535",
"P.	c #F8F8F8",
"Q.	c #2F2F2F",
"R.	c #ECECEC",
"S.	c #909090",
"T.	c #282828",
"U.	c #BBBBBB",
"V.	c #CDCDCD",
"W.	c #BDBDBD",
"X.	c #323232",
"Y.	c #C0C0C0",
"Z.	c #3D3D3D",
"`.	c #333333",
" +	c #2B2B2B",
".+	c #979797",
"++	c #686868",
"@+	c #3F3F3F",
"#+	c #1B1B1B",
"$+	c #969696",
"%+	c #444444",
"&+	c #C1C1C1",
"*+	c #D7D7D7",
"=+	c #727272",
"-+	c #D5D5D5",
";+	c #EFEFEF",
">+	c #454545",
",+	c #656565",
"'+	c #797979",
")+	c #464646",
"!+	c #F5F5F5",
"~+	c #4C4C4C",
"{+	c #111111",
"        . . . . . . . . . . . . . . . . . . . . . . . . . . . . . . . . . . . . . . .         ",
"    . . . . . . . . . . . . . . . . . . . . . . . . . . . . . . . . . . . . . . . . . . .     ",
"  . + @ # $ $ $ $ $ $ $ $ $ $ $ $ $ $ $ $ $ $ $ $ $ $ $ $ $ $ $ $ $ $ $ $ $ $ $ $ $ # % & .   ",
"  . % $ $ $ $ $ $ $ $ $ $ $ $ $ $ $ $ $ $ $ $ $ $ $ $ $ $ $ $ $ $ $ $ $ $ $ $ $ $ $ $ $ * .   ",
". . = $ - ; > $ , ; ' $ $ $ $ $ $ $ $ $ $ $ $ $ $ $ $ $ $ $ $ $ $ $ $ $ $ $ $ $ $ $ $ $ ) . . ",
". . $ $ ! . ~ { ] ^ / $ $ $ $ $ $ $ $ $ $ $ $ $ $ $ $ $ $ $ $ $ $ $ $ $ $ $ $ $ $ $ $ $ $ . . ",
". . $ $ ! . ~ ( . _ $ $ $ $ $ $ $ $ $ $ $ $ $ $ $ $ $ $ $ $ $ $ $ $ $ $ $ $ $ $ $ $ $ $ $ . . ",
". . $ $ ! . : < [ } $ $ $ $ $ $ $ $ $ $ $ $ $ $ $ $ $ $ $ $ $ $ $ $ $ $ $ $ $ $ $ $ $ $ $ . . ",
". . $ $ ! . | . 1 $ $ $ $ $ $ $ $ $ $ $ $ $ $ $ $ $ $ $ $ $ $ $ $ $ $ $ $ $ $ $ $ $ $ $ $ . . ",
". . $ $ ! . . 2 3 $ $ $ $ $ $ $ $ $ $ $ $ $ $ $ $ $ $ $ $ $ $ $ $ $ $ $ $ $ $ $ $ $ $ $ $ . . ",
". . $ $ ! . ] . 4 $ $ $ $ $ $ $ $ $ $ $ $ $ $ $ $ $ $ $ $ $ $ $ $ $ $ $ $ $ $ $ $ $ $ $ $ . . ",
". . $ $ ! . 5 6 7 8 $ $ $ $ $ $ $ $ $ $ $ $ $ $ $ $ $ $ $ $ $ $ $ $ $ $ $ $ $ $ $ $ $ $ $ . . ",
". . $ $ ! . ~ 9 . 0 $ $ $ $ $ $ $ $ $ $ $ $ $ $ $ $ $ $ $ $ $ $ $ $ $ $ $ $ $ $ $ $ $ $ $ . . ",
". . $ $ ! . ~ # a . b $ $ $ $ $ $ $ $ $ $ $ $ $ $ $ $ $ $ $ $ $ $ $ $ $ $ $ $ $ $ $ $ $ $ . . ",
". . $ $ c d 3 $ e d , $ $ $ $ $ $ $ $ $ $ $ $ $ $ $ $ $ $ $ $ $ $ $ $ $ $ $ $ $ $ $ $ $ $ . . ",
". . $ $ $ $ f g h # $ $ $ $ $ $ $ $ $ $ $ $ $ $ $ $ $ $ $ $ $ $ $ $ $ $ $ $ $ $ $ $ $ $ $ . . ",
". . $ $ $ i j . . h $ $ $ $ $ $ $ $ $ $ $ $ $ $ $ $ $ $ $ $ $ $ $ $ $ $ $ $ $ $ $ $ $ $ $ . . ",
". . $ $ $ 8 . . . g $ $ $ $ $ $ $ $ $ $ $ $ $ k $ $ $ $ $ l $ $ $ $ $ $ $ $ $ $ $ $ $ $ $ . . ",
". . $ $ m n o . . p / $ $ $ $ $ $ ) q r $ $ s t u # $ $ g a v $ $ $ $ $ $ $ $ $ $ $ $ $ $ . . ",
". . $ w x . . . . . . y $ $ $ $ $ z ^ A B $ C . . D v E F . G = $ B H w $ $ $ $ $ $ $ $ $ . . ",
". . $ I . . . . . . . 0 $ $ $ $ $ J . . K L M . . . N . . . . C O [ L $ $ $ $ $ $ $ $ $ $ . . ",
". . $ s o . P . Q . M R S T m $ U V . . . . . . . . . . . . . . . ^ 5 $ $ $ $ $ $ $ $ $ $ . . ",
". . $ $ { W X . Y Z } $ $ `  ...] . . . . . . . . . . . . . . . . +.# $ $ $ $ $ $ $ $ $ $ . . ",
". . $ $ $ @.#.$.$.%.$ $ $ &.*.. . . . . . . . . . . . . . . . . . =.$ $ $ $ $ $ $ $ $ $ $ . . ",
". . $ $ $ $ $ $ $ $ $ $ $ $ B -.. . . . . . . . . . . . . . . . ^ ;.$ $ $ $ $ $ $ $ $ $ $ . . ",
". . $ $ $ $ $ $ $ $ $ $ $ $ $ >.. . . . . . . . . . . . . . . . V m $ $ $ $ $ $ $ $ $ $ $ . . ",
". . $ $ $ $ $ $ $ $ $ $ $ $ $ _ . . . . . . . . . . . . . . . . ,.'.$ $ $ $ $ $ $ $ $ $ $ . . ",
". . $ $ $ $ $ $ $ $ $ $ $ $ $ ).!.!.!.!.!.!.!.!.!.!.!.!.!.!.!.~.M B $ $ $ $ $ $ $ $ $ $ $ . . ",
". . $ $ $ $ $ $ $ $ $ $ $ $ {.].W ^.*.~ /.(._.H :.$ $ $ $ 5 <.r [.g $ $ $ $ $ $ $ $ $ $ $ . . ",
". . $ $ $ $ $ $ $ $ $ $ $ $ }.|.S 1.+ S 2.H 3.^ 4.$ $ $ - ..(.{.` 5.$ $ $ $ $ $ $ $ $ $ $ . . ",
". . $ $ $ $ $ $ $ $ $ $ $ $ 6.~.v 7.u T . z _ ] i $ $ $ $ k # $ 8.9.v $ $ $ $ $ $ $ $ $ $ . . ",
". . $ $ $ $ $ $ $ $ $ $ $ 0.7.R a. .B 0 2.{.|.b.$ $ $ $ $ $ $ $ # ] c.$ $ $ $ $ $ $ $ $ $ . . ",
". . $ $ $ $ $ $ $ $ $ $ $ ( d.) ].].$ e.% <.2 c.$ $ $ $ $ $ $ $ $ f.g.$ $ $ $ $ $ $ $ $ $ . . ",
". . $ $ $ $ $ $ $ $ $ $ $ ].h.# }./ $ $ $ $ Y 5.= $ $ $ $ $ $ $ $ ; o S $ $ $ $ $ $ $ $ $ . . ",
". . $ $ $ $ $ $ $ $ $ $ $ / i.$ $ $ $ $ r j.k.K l.$ $ $ $ S m.n.4 g 6 o.$ $ $ $ $ $ $ $ $ . . ",
". . $ $ $ $ $ $ $ $ $ i g.,.9.p.$ $ $ $ 4 $.$ q.r.f.r e s.Q  .Q < $._ t.$ $ $ $ $ $ $ $ $ . . ",
". . $ $ $ $ $ $ $ $ = u.9.u.v.|.U $ $ w.P 2 y $ T x.y.x.z.b > A.9.0.$ $ $ $ $ $ $ $ $ $ $ . . ",
". . $ $ $ $ $ $ $ $ / 2 g $ $ B.t.$ $ E K C.[.D.$ D.[.Z $ $ $ E.. ; $ $ $ $ $ $ $ $ $ $ $ . . ",
". . $ $ $ $ $ $ $ $ F.F / $ $ $ $ $ G.C./.H.N I.<.J.j.$ $ $ $ &.P p.$ $ $ K.L.L.M.w $ $ $ . . ",
". . $ $ $ $ $ $ $ $ z . L.$ $ $ $ N.O.t P.$ G.+.-.! S $ $ $ $ $ L Q.= $ r R.A . S.l $ $ $ . . ",
". . $ $ $ $ $ $ $ $ &...| R $ $ b T.C.@ $ $ $ P.4 P |.z.n 3.U.V.0 F K.W.o 6 *.F X.^ 1.) $ . . ",
". . $ $ $ $ $ $ $ $ $ Y.|  .Z.`.Q  +U $ $ $ $ $ $ 0..+++@+j ^ < #+`.$+%+. . . . . . . &+$ . . ",
". . $ $ $ $ $ $ $ $ $ $ *+=+%+s./.R.$ $ $ $ $ $ $ $ $ $ $ k -+l = $ $ h.. . . . . . V w $ . . ",
". . $ $ $ $ $ $ $ $ $ $ $ $ $ $ $ $ $ $ $ $ $ $ $ $ $ $ $ $ $ $ $ $ $ ;+1 >+. . K ,+W $ $ . . ",
". . $ $ $ $ $ $ $ $ $ $ $ $ $ $ $ $ $ $ $ $ $ $ $ $ $ $ $ $ $ $ $ $ $ $ $ F.. . 2 v $ $ $ . . ",
". . $ $ $ $ $ $ $ $ $ $ $ $ $ $ $ $ $ $ $ $ $ $ $ $ $ $ $ $ $ $ $ $ $ $ $ $+. . [ {.$ $ $ . . ",
". . $ $ $ $ $ $ $ $ $ $ $ $ $ $ $ $ $ $ $ $ $ $ $ $ $ $ $ $ $ $ $ $ $ $ $ s '+)+% $ $ $ $ . . ",
". . $ $ $ $ $ $ $ $ $ $ $ $ $ $ $ $ $ $ $ $ $ $ $ $ $ $ $ $ $ $ $ $ $ $ $ $ $ $ $ $ $ $ $ . . ",
". . $ $ $ $ $ $ $ $ $ $ $ $ $ $ $ $ $ $ $ $ $ $ $ $ $ $ $ $ $ $ $ $ $ $ > Y D !+$ L ~+$ $ . . ",
". . $ $ $ $ $ $ $ $ $ $ $ $ $ $ $ $ $ $ $ $ $ $ $ $ $ $ $ $ $ $ $ $ $ $ $ ++. M.$ -.{+$ $ . . ",
". . $ $ $ $ $ $ $ $ $ $ $ $ $ $ $ $ $ $ $ $ $ $ $ $ $ $ $ $ $ $ $ $ $ $ $ R.{+ .j.-.{+$ $ . . ",
". . $ $ $ $ $ $ $ $ $ $ $ $ $ $ $ $ $ $ $ $ $ $ $ $ $ $ $ $ $ $ $ $ $ $ $ $ q.. #.-.{+$ $ . . ",
". . $ $ $ $ $ $ $ $ $ $ $ $ $ $ $ $ $ $ $ $ $ $ $ $ $ $ $ $ $ $ $ $ $ $ $ $ r  +. 2 {+$ $ . . ",
". . $ $ $ $ $ $ $ $ $ $ $ $ $ $ $ $ $ $ $ $ $ $ $ $ $ $ $ $ $ $ $ $ $ $ $ $ = `.. ^ {+$ $ . . ",
". . $ $ $ $ $ $ $ $ $ $ $ $ $ $ $ $ $ $ $ $ $ $ $ $ $ $ $ $ $ $ $ $ $ $ $ $ ^.. O -.{+$ $ . . ",
". . $ $ $ $ $ $ $ $ $ $ $ $ $ $ $ $ $ $ $ $ $ $ $ $ $ $ $ $ $ $ $ $ $ $ $ B.-.x N.-.{+$ $ . . ",
". . $ $ $ $ $ $ $ $ $ $ $ $ $ $ $ $ $ $ $ $ $ $ $ $ $ $ $ $ $ $ $ $ $ $ $ =+. =.$ -.{+$ $ . . ",
". . = $ $ $ $ $ $ $ $ $ $ $ $ $ $ $ $ $ $ $ $ $ $ $ $ $ $ $ $ $ $ $ $ $ > O.(._.$ ].Z.$ ) . . ",
"  . %.$ $ $ $ $ $ $ $ $ $ $ $ $ $ $ $ $ $ $ $ $ $ $ $ $ $ $ $ $ $ $ $ $ $ $ $ $ $ $ $ $ E..   ",
"  . & %.# $ $ $ $ $ $ $ $ $ $ $ $ $ $ $ $ $ $ $ $ $ $ $ $ $ $ $ $ $ $ $ $ $ $ $ $ $ # %.& .   ",
"    . . . . . . . . . . . . . . . . . . . . . . . . . . . . . . . . . . . . . . . . . . .     ",
"        . . . . . . . . . . . . . . . . . . . . . . . . . . . . . . . . . . . . . . .         "};
