/* XPM */
static const char* clubs2_xpm[] = {
"47 62 157 2",
"  	c None",
". 	c #000000",
"+ 	c #2A2A2A",
"@ 	c #B0B0B0",
"# 	c #FCFCFC",
"$ 	c #FFFFFF",
"% 	c #B2B2B2",
"& 	c #FDFDFD",
"* 	c #FBFBFB",
"= 	c #B1B1B1",
"- 	c #AFAFAF",
"; 	c #DBDBDB",
"> 	c #525252",
", 	c #121212",
"' 	c #CFCFCF",
") 	c #B7B7B7",
"! 	c #353535",
"~ 	c #777777",
"{ 	c #686868",
"] 	c #4B4B4B",
"^ 	c #BABABA",
"/ 	c #0F0F0F",
"( 	c #7A7A7A",
"_ 	c #DDDDDD",
": 	c #4A4A4A",
"< 	c #F2F2F2",
"[ 	c #919191",
"} 	c #8F8F8F",
"| 	c #7C7C7C",
"1 	c #3B3B3B",
"2 	c #CACACA",
"3 	c #B5B5B5",
"4 	c #474747",
"5 	c #9F9F9F",
"6 	c #D3D3D3",
"7 	c #F6F6F6",
"8 	c #F0F0F0",
"9 	c #727272",
"0 	c #A0A0A0",
"a 	c #101010",
"b 	c #0A0A0A",
"c 	c #8D8D8D",
"d 	c #2E2E2E",
"e 	c #676767",
"f 	c #5A5A5A",
"g 	c #1F1F1F",
"h 	c #0D0D0D",
"i 	c #BCBCBC",
"j 	c #EDEDED",
"k 	c #BFBFBF",
"l 	c #D2D2D2",
"m 	c #343434",
"n 	c #1A1A1A",
"o 	c #C4C4C4",
"p 	c #373737",
"q 	c #767676",
"r 	c #D9D9D9",
"s 	c #6E6E6E",
"t 	c #222222",
"u 	c #1D1D1D",
"v 	c #151515",
"w 	c #2F2F2F",
"x 	c #E1E1E1",
"y 	c #535353",
"z 	c #E2E2E2",
"A 	c #FEFEFE",
"B 	c #272727",
"C 	c #B3B3B3",
"D 	c #454545",
"E 	c #989898",
"F 	c #BEBEBE",
"G 	c #C2C2C2",
"H 	c #C1C1C1",
"I 	c #5B5B5B",
"J 	c #010101",
"K 	c #DADADA",
"L 	c #C9C9C9",
"M 	c #020202",
"N 	c #5F5F5F",
"O 	c #505050",
"P 	c #CBCBCB",
"Q 	c #696969",
"R 	c #ABABAB",
"S 	c #F4F4F4",
"T 	c #737373",
"U 	c #ACACAC",
"V 	c #515151",
"W 	c #9D9D9D",
"X 	c #6A6A6A",
"Y 	c #848484",
"Z 	c #8A8A8A",
"` 	c #9E9E9E",
" .	c #050505",
"..	c #D1D1D1",
"+.	c #F5F5F5",
"@.	c #EEEEEE",
"#.	c #ECECEC",
"$.	c #EAEAEA",
"%.	c #E9E9E9",
"&.	c #DCDCDC",
"*.	c #393939",
"=.	c #DFDFDF",
"-.	c #E7E7E7",
";.	c #F7F7F7",
">.	c #F1F1F1",
",.	c #232323",
"'.	c #212121",
").	c #757575",
"!.	c #464646",
"~.	c #4C4C4C",
"{.	c #404040",
"].	c #252525",
"^.	c #3F3F3F",
"/.	c #C3C3C3",
"(.	c #414141",
"_.	c #292929",
":.	c #1E1E1E",
"<.	c #FAFAFA",
"[.	c #191919",
"}.	c #1B1B1B",
"|.	c #6B6B6B",
"1.	c #838383",
"2.	c #B6B6B6",
"3.	c #333333",
"4.	c #0E0E0E",
"5.	c #434343",
"6.	c #E0E0E0",
"7.	c #060606",
"8.	c #090909",
"9.	c #242424",
"0.	c #262626",
"a.	c #868686",
"b.	c #E8E8E8",
"c.	c #A1A1A1",
"d.	c #2D2D2D",
"e.	c #A9A9A9",
"f.	c #C0C0C0",
"g.	c #7F7F7F",
"h.	c #E4E4E4",
"i.	c #030303",
"j.	c #C8C8C8",
"k.	c #545454",
"l.	c #707070",
"m.	c #EBEBEB",
"n.	c #323232",
"o.	c #7B7B7B",
"p.	c #E3E3E3",
"q.	c #D5D5D5",
"r.	c #B4B4B4",
"s.	c #CDCDCD",
"t.	c #070707",
"u.	c #555555",
"v.	c #787878",
"w.	c #CCCCCC",
"x.	c #080808",
"y.	c #818181",
"z.	c #303030",
"        . . . . . . . . . . . . . . . . . . . . . . . . . . . . . . . . . . . . . . .         ",
"    . . . . . . . . . . . . . . . . . . . . . . . . . . . . . . . . . . . . . . . . . . .     ",
"  . + @ # $ $ $ $ $ $ $ $ $ $ $ $ $ $ $ $ $ $ $ $ $ $ $ $ $ $ $ $ $ $ $ $ $ $ $ $ $ # @ + .   ",
"  . % $ $ $ $ $ $ $ $ $ $ $ $ $ $ $ $ $ $ $ $ $ $ $ $ $ $ $ $ $ $ $ $ $ $ $ $ $ $ $ $ $ % .   ",
". . & $ $ $ * = - - ; $ $ $ $ $ $ $ $ $ $ $ $ $ $ $ $ $ $ $ $ $ $ $ $ $ $ $ $ $ $ $ $ $ & . . ",
". . $ $ $ * > . . . , ' $ $ $ $ $ $ $ $ $ $ $ $ $ $ $ $ $ $ $ $ $ $ $ $ $ $ $ $ $ $ $ $ $ . . ",
". . $ $ $ ) . ! ~ { . ] $ $ $ $ $ $ $ $ $ $ $ $ $ $ $ $ $ $ $ $ $ $ $ $ $ $ $ $ $ $ $ $ $ . . ",
". . $ $ $ ^ / ( $ _ . : $ $ $ $ $ $ $ $ $ $ $ $ $ $ $ $ $ $ $ $ $ $ $ $ $ $ $ $ $ $ $ $ $ . . ",
". . $ $ $ $ < [ } | . : $ $ $ $ $ $ $ $ $ $ $ $ $ $ $ $ $ $ $ $ $ $ $ $ $ $ $ $ $ $ $ $ $ . . ",
". . $ $ $ < 1 . . . / 2 $ $ $ $ $ $ $ $ $ $ $ $ $ $ $ $ $ $ $ $ $ $ $ $ $ $ $ $ $ $ $ $ $ . . ",
". . $ $ $ 3 . 4 5 5 6 $ $ $ $ $ $ $ $ $ $ $ 7 % 8 $ $ $ $ $ $ $ $ $ $ $ $ $ $ $ $ $ $ $ $ . . ",
". . $ $ $ 3 . 9 $ _ . : $ $ $ $ $ $ $ $ $ 0 a . b c $ $ $ $ $ $ $ $ $ $ $ $ $ $ $ $ $ $ $ . . ",
". . $ $ $ 3 . d e f . : $ $ $ $ $ $ $ $ & g . . . h < $ $ $ $ $ $ $ $ $ $ $ $ $ $ $ $ $ $ . . ",
". . $ $ $ 3 . . . . . : $ $ $ $ $ $ $ $ ; . . . . . i $ $ $ $ $ $ $ $ $ $ $ $ $ $ $ $ $ $ . . ",
". . $ $ $ j k k k k k l $ $ $ $ $ $ $ $ $ m . . . n * $ $ $ $ $ $ $ $ $ $ $ $ $ $ $ $ $ $ . . ",
". . $ $ $ $ $ o p q $ $ $ $ $ $ $ $ r s t u . . . v w | x $ $ $ $ $ $ $ $ $ $ $ $ $ $ $ $ . . ",
". . $ $ $ $ $ y . . z $ $ $ $ $ $ A B . . . . . . . . . w $ $ $ $ $ $ $ $ $ $ $ $ $ $ $ $ . . ",
". . $ $ $ $ C D . b E 8 $ $ $ $ $ F . . . . . . . . . . . G $ $ $ $ $ $ $ $ $ $ $ $ $ $ $ . . ",
". . $ $ $ H . . . . . I $ $ $ $ $ ; J . . . . . . . . . J K $ $ $ $ $ $ $ $ $ $ $ $ $ $ $ . . ",
". . $ $ $ L . . M . . N $ $ $ $ $ $ O . . . v . h . . . O $ $ $ $ $ $ $ $ $ $ $ $ $ $ $ $ . . ",
". . $ $ $ $ P C / Q R S $ $ $ $ $ $ $ F T U > . V W X ) A $ $ $ $ $ $ $ $ $ $ $ $ $ $ $ $ . . ",
". . $ $ $ $ $ U Y Z 8 $ $ $ $ $ $ $ $ $ $ `  .. M - $ $ $ $ $ $ $ $ $ $ $ $ $ $ $ $ $ $ $ . . ",
". . $ $ $ $ $ $ $ $ $ $ $ $ $ $ $ $ $ $ ..{ e e e X ..$ $ $ $ $ $ $ $ $ $ $ $ $ $ $ $ $ $ . . ",
". . $ $ $ $ $ $ $ $ $ $ $ $ $ $ $ $ $ $ $ $ $ $ $ $ $ $ $ $ $ $ $ $ $ $ $ $ $ $ $ $ $ $ $ . . ",
". . $ $ $ $ $ $ $ $ $ $ $ $ $ $ $ $ $ $ $ $ $ $ $ $ $ $ $ $ $ $ $ $ $ $ $ $ $ $ $ $ $ $ $ . . ",
". . $ $ $ $ $ $ $ $ $ $ $ $ $ $ $ $ $ $ $ $ $ $ $ $ $ $ $ $ $ $ $ $ $ $ $ $ $ $ $ $ $ $ $ . . ",
". . $ $ $ $ $ $ $ $ $ $ $ $ $ $ $ $ $ $ $ $ $ $ $ $ $ $ $ $ $ $ $ $ $ $ $ $ $ $ $ $ $ $ $ . . ",
". . $ $ $ $ $ $ $ $ $ $ $ $ $ $ $ $ $ $ $ $ $ $ $ $ $ $ $ $ $ $ $ $ $ $ $ $ $ $ $ $ $ $ $ . . ",
". . $ $ $ $ $ $ $ $ $ $ $ $ $ $ $ $ $ $ $ $ $ $ $ $ $ $ $ $ $ $ $ $ $ $ $ $ $ $ $ $ $ $ $ . . ",
". . $ $ $ $ $ $ $ $ $ $ $ $ $ $ $ $ $ $ $ $ $ $ $ $ $ $ $ $ $ $ $ $ $ $ $ $ $ $ $ $ $ $ $ . . ",
". . $ $ $ $ $ $ $ $ $ $ $ $ $ $ $ $ $ $ $ $ $ $ $ $ $ $ $ $ $ $ $ $ $ $ $ $ $ $ $ $ $ $ $ . . ",
". . $ $ $ $ $ $ $ $ $ $ $ $ $ $ $ $ $ $ $ $ $ $ $ $ $ $ $ $ $ $ $ $ $ $ $ $ $ $ $ $ $ $ $ . . ",
". . $ $ $ $ $ $ $ $ $ $ $ $ $ $ $ $ $ $ $ $ $ $ $ $ $ $ $ $ $ $ $ $ $ $ $ $ $ $ $ $ $ $ $ . . ",
". . $ $ $ $ $ $ $ $ $ $ $ $ $ $ $ $ $ $ $ $ $ $ $ $ $ $ $ $ $ $ $ $ $ $ $ $ $ $ $ $ $ $ $ . . ",
". . $ $ $ $ $ $ $ $ $ $ $ $ $ $ $ $ $ $ $ $ $ $ $ $ $ $ $ $ $ $ $ $ $ $ $ $ $ $ $ $ $ $ $ . . ",
". . $ $ $ $ $ $ $ $ $ $ $ $ $ $ $ $ $ $ $ $ $ $ $ $ $ $ $ $ $ $ $ $ $ $ $ $ $ $ $ $ $ $ $ . . ",
". . $ $ $ $ $ $ $ $ $ $ $ $ $ $ $ $ $ $ $ $ $ $ $ $ $ $ $ $ $ $ $ $ $ $ $ $ $ $ $ $ $ $ $ . . ",
". . $ $ $ $ $ $ $ $ $ $ $ $ $ $ $ $ $ $ $ $ $ $ $ $ $ $ $ $ $ $ $ $ $ $ $ $ $ $ $ $ $ $ $ . . ",
". . $ $ $ $ $ $ $ $ $ $ $ $ $ $ $ $ $ $ $ $ $ $ $ $ $ $ $ $ $ $ $ $ $ $ $ $ $ $ $ $ $ $ $ . . ",
". . $ $ $ $ $ $ $ $ $ $ $ $ $ $ $ $ $ $ +.@.j #.$.%.8 $ $ $ $ $ $ $ $ $ $ $ $ $ $ $ $ $ $ . . ",
". . $ $ $ $ $ $ $ $ $ $ $ $ $ $ $ $ $ $ &.+ . . . *.=.$ $ $ $ $ $ $ $ $ $ # -.-.-.& $ $ $ . . ",
". . $ $ $ $ $ $ $ $ $ $ $ $ $ $ $ $ $ $ ;.>.,.. '.>.>.$ $ $ $ $ $ $ $ $ $ A ).. ~ & $ $ $ . . ",
". . $ $ $ $ $ $ $ $ $ $ $ $ $ $ $ $ F !.M d ~.. {.].. ^.i $ $ $ $ $ $ $ /.u (.. _.:...$ $ . . ",
". . $ $ $ $ $ $ $ $ $ $ $ $ $ $ $ <.[.. . . . . . . . . }.* $ $ $ $ $ $ |.. . . . . 1.$ $ . . ",
". . $ $ $ $ $ $ $ $ $ $ $ $ $ $ $ 3 . . . . . . . . . . . 2.$ $ $ $ $ $ ' 3.h . 4.5.6.$ $ . . ",
". . $ $ $ $ $ $ $ $ $ $ $ $ $ $ $ $.7.. . . . . . . . . 8.#.$ $ $ $ $ $ $ $ 9.. 0.$ $ $ $ . . ",
". . $ $ $ $ $ $ $ $ $ $ $ $ $ $ $ $ (  .. . . . . . . 8.a.$ $ $ $ $ $ $ $ $ ~.. ~.$ $ $ $ . . ",
". . $ $ $ $ $ $ $ $ $ $ $ $ $ $ $ $ $ b.c.5.. . . d.e.@.$ $ $ $ $ $ $ $ $ $ # 2 # $ $ $ $ . . ",
". . $ $ $ $ $ $ $ $ $ $ $ $ $ $ $ $ $ $ S 4.. . . M x $ $ $ $ $ $ $ $ $ f.^.^.^.^.^.g.$ $ . . ",
". . $ $ $ $ $ $ $ $ $ $ $ $ $ $ $ $ $ $ h.i.. . . . j.$ $ $ $ $ $ $ $ $ R . . . . . k.$ $ . . ",
". . $ $ $ $ $ $ $ $ $ $ $ $ $ $ $ $ $ $ $ O . . . ! $ $ $ $ $ $ $ $ $ $ R . l.-.k . k.$ $ . . ",
". . $ $ $ $ $ $ $ $ $ $ $ $ $ $ $ $ $ $ $ m.a.n.o.p.$ $ $ $ $ $ $ $ $ $ q.g.F $ 6 . k.$ $ . . ",
". . $ $ $ $ $ $ $ $ $ $ $ $ $ $ $ $ $ $ $ $ $ $ $ $ $ $ $ $ $ $ $ $ $ $ $ r.'.g n . l.$ $ . . ",
". . $ $ $ $ $ $ $ $ $ $ $ $ $ $ $ $ $ $ $ $ $ $ $ $ $ $ $ $ $ $ $ $ $ $ s.7.t./ / u.<.$ $ . . ",
". . $ $ $ $ $ $ $ $ $ $ $ $ $ $ $ $ $ $ $ $ $ $ $ $ $ $ $ $ $ $ $ $ $ $ R . | $ #.} r.$ $ . . ",
". . $ $ $ $ $ $ $ $ $ $ $ $ $ $ $ $ $ $ $ $ $ $ $ $ $ $ $ $ $ $ $ $ $ $ R . v.;.w.. k.$ $ . . ",
". . $ $ $ $ $ $ $ $ $ $ $ $ $ $ $ $ $ $ $ $ $ $ $ $ $ $ $ $ $ $ $ $ $ $ ' x.. . . . y.$ $ . . ",
". . & $ $ $ $ $ $ $ $ $ $ $ $ $ $ $ $ $ $ $ $ $ $ $ $ $ $ $ $ $ $ $ $ $ $ ^ z.w w ).$ $ & . . ",
"  . r.$ $ $ $ $ $ $ $ $ $ $ $ $ $ $ $ $ $ $ $ $ $ $ $ $ $ $ $ $ $ $ $ $ $ $ $ $ $ $ $ $ r..   ",
"  . d r.# $ $ $ $ $ $ $ $ $ $ $ $ $ $ $ $ $ $ $ $ $ $ $ $ $ $ $ $ $ $ $ $ $ $ $ $ $ # r.d .   ",
"    . . . . . . . . . . . . . . . . . . . . . . . . . . . . . . . . . . . . . . . . . . .     ",
"        . . . . . . . . . . . . . . . . . . . . . . . . . . . . . . . . . . . . . . .         "};
