/* XPM */
static const char* clubs3_xpm[] = {
"47 62 175 2",
"  	c None",
". 	c #000000",
"+ 	c #2A2A2A",
"@ 	c #B0B0B0",
"# 	c #FCFCFC",
"$ 	c #FFFFFF",
"% 	c #B2B2B2",
"& 	c #2E2E2E",
"* 	c #BABABA",
"= 	c #FDFDFD",
"- 	c #FAFAFA",
"; 	c #B1B1B1",
"> 	c #AFAFAF",
", 	c #DBDBDB",
"' 	c #FEFEFE",
") 	c #505050",
"! 	c #131313",
"~ 	c #D0D0D0",
"{ 	c #B4B4B4",
"] 	c #363636",
"^ 	c #777777",
"/ 	c #666666",
"( 	c #4D4D4D",
"_ 	c #B8B8B8",
": 	c #0F0F0F",
"< 	c #7D7D7D",
"[ 	c #4C4C4C",
"} 	c #A2A2A2",
"| 	c #7B7B7B",
"1 	c #2B2B2B",
"2 	c #8A8A8A",
"3 	c #898989",
"4 	c #F6F6F6",
"5 	c #F0F0F0",
"6 	c #B3B3B3",
"7 	c #747474",
"8 	c #A0A0A0",
"9 	c #101010",
"0 	c #0A0A0A",
"a 	c #8D8D8D",
"b 	c #B6B6B6",
"c 	c #2F2F2F",
"d 	c #676767",
"e 	c #595959",
"f 	c #4F4F4F",
"g 	c #1F1F1F",
"h 	c #0D0D0D",
"i 	c #F2F2F2",
"j 	c #5D5D5D",
"k 	c #1A1A1A",
"l 	c #DADADA",
"m 	c #BCBCBC",
"n 	c #C1C1C1",
"o 	c #BFBFBF",
"p 	c #E5E5E5",
"q 	c #343434",
"r 	c #FBFBFB",
"s 	c #818181",
"t 	c #D9D9D9",
"u 	c #6E6E6E",
"v 	c #222222",
"w 	c #1D1D1D",
"x 	c #151515",
"y 	c #7A7A7A",
"z 	c #DFDFDF",
"A 	c #4A4A4A",
"B 	c #020202",
"C 	c #272727",
"D 	c #292929",
"E 	c #ACACAC",
"F 	c #3E3E3E",
"G 	c #121212",
"H 	c #9D9D9D",
"I 	c #F4F4F4",
"J 	c #BEBEBE",
"K 	c #6B6B6B",
"L 	c #010101",
"M 	c #D8D8D8",
"N 	c #B9B9B9",
"O 	c #6F6F6F",
"P 	c #C4C4C4",
"Q 	c #070707",
"R 	c #ADADAD",
"S 	c #F7F7F7",
"T 	c #737373",
"U 	c #525252",
"V 	c #515151",
"W 	c #6A6A6A",
"X 	c #A4A4A4",
"Y 	c #848484",
"Z 	c #9E9E9E",
"` 	c #050505",
" .	c #D1D1D1",
"..	c #686868",
"+.	c #636363",
"@.	c #D5D5D5",
"#.	c #474747",
"$.	c #2D2D2D",
"%.	c #E1E1E1",
"&.	c #C3C3C3",
"*.	c #040404",
"=.	c #E6E6E6",
"-.	c #3D3D3D",
";.	c #919191",
">.	c #DCDCDC",
",.	c #656565",
"'.	c #6C6C6C",
").	c #E3E3E3",
"!.	c #030303",
"~.	c #B7B7B7",
"{.	c #1E1E1E",
"].	c #1C1C1C",
"^.	c #CACACA",
"/.	c #5A5A5A",
"(.	c #111111",
"_.	c #464646",
":.	c #545454",
"<.	c #353535",
"[.	c #4E4E4E",
"}.	c #E8E8E8",
"|.	c #EAEAEA",
"1.	c #F5F5F5",
"2.	c #EEEEEE",
"3.	c #EDEDED",
"4.	c #ECECEC",
"5.	c #E9E9E9",
"6.	c #393939",
"7.	c #E7E7E7",
"8.	c #F1F1F1",
"9.	c #232323",
"0.	c #212121",
"a.	c #696969",
"b.	c #808080",
"c.	c #404040",
"d.	c #252525",
"e.	c #BDBDBD",
"f.	c #1B1B1B",
"g.	c #3C3C3C",
"h.	c #202020",
"i.	c #D6D6D6",
"j.	c #191919",
"k.	c #171717",
"l.	c #8B8B8B",
"m.	c #B5B5B5",
"n.	c #313131",
"o.	c #0C0C0C",
"p.	c #E4E4E4",
"q.	c #060606",
"r.	c #EBEBEB",
"s.	c #080808",
"t.	c #444444",
"u.	c #575757",
"v.	c #A1A1A1",
"w.	c #434343",
"x.	c #A9A9A9",
"y.	c #0E0E0E",
"z.	c #C8C8C8",
"A.	c #414141",
"B.	c #3F3F3F",
"C.	c #828282",
"D.	c #D7D7D7",
"E.	c #878787",
"F.	c #6D6D6D",
"G.	c #868686",
"H.	c #323232",
"I.	c #787878",
"J.	c #7F7F7F",
"K.	c #A8A8A8",
"L.	c #C9C9C9",
"M.	c #CFCFCF",
"N.	c #CCCCCC",
"O.	c #8F8F8F",
"P.	c #D2D2D2",
"Q.	c #090909",
"R.	c #727272",
"        . . . . . . . . . . . . . . . . . . . . . . . . . . . . . . . . . . . . . . .         ",
"    . . . . . . . . . . . . . . . . . . . . . . . . . . . . . . . . . . . . . . . . . . .     ",
"  . + @ # $ $ $ $ $ $ $ $ $ $ $ $ $ $ $ $ $ $ $ $ $ $ $ $ $ $ $ $ $ $ $ $ $ $ $ $ $ # % & .   ",
"  . % $ $ $ $ $ $ $ $ $ $ $ $ $ $ $ $ $ $ $ $ $ $ $ $ $ $ $ $ $ $ $ $ $ $ $ $ $ $ $ $ $ * .   ",
". . = $ $ $ - ; > > , $ $ $ $ $ $ $ $ $ $ $ $ $ $ $ $ $ $ $ $ $ $ $ $ $ $ $ $ $ $ $ $ $ ' . . ",
". . $ $ $ - ) . . . ! ~ $ $ $ $ $ $ $ $ $ $ $ $ $ $ $ $ $ $ $ $ $ $ $ $ $ $ $ $ $ $ $ $ $ . . ",
". . $ $ $ { . ] ^ / . ( $ $ $ $ $ $ $ $ $ $ $ $ $ $ $ $ $ $ $ $ $ $ $ $ $ $ $ $ $ $ $ $ $ . . ",
". . $ $ $ _ : < $ , . [ $ $ $ $ $ $ $ $ $ $ $ $ $ $ $ $ $ $ $ $ $ $ $ $ $ $ $ $ $ $ $ $ $ . . ",
". . $ $ $ $ $ $ } | . [ $ $ $ $ $ $ $ $ $ $ $ $ $ $ $ $ $ $ $ $ $ $ $ $ $ $ $ $ $ $ $ $ $ . . ",
". . $ $ $ $ $ $ 1 . . 2 $ $ $ $ $ $ $ $ $ $ $ $ $ $ $ $ $ $ $ $ $ $ $ $ $ $ $ $ $ $ $ $ $ . . ",
". . $ $ $ $ $ $ @ 3 . [ $ $ $ $ $ $ $ $ $ $ 4 % 5 $ $ $ $ $ $ $ $ $ $ $ $ $ $ $ $ $ $ $ $ . . ",
". . $ $ $ 6 . 7 $ , . [ $ $ $ $ $ $ $ $ $ 8 9 . 0 a $ $ $ $ $ $ $ $ $ $ $ $ $ $ $ $ $ $ $ . . ",
". . $ $ $ b . c d e . f $ $ $ $ $ $ $ $ = g . . . h i $ $ $ $ $ $ $ $ $ $ $ $ $ $ $ $ $ $ . . ",
". . $ $ $ = j . . . k l $ $ $ $ $ $ $ $ , . . . . . m $ $ $ $ $ $ $ $ $ $ $ $ $ $ $ $ $ $ . . ",
". . $ $ $ $ = n o o p $ $ $ $ $ $ $ $ $ $ q . . . k r $ $ $ $ $ $ $ $ $ $ $ $ $ $ $ $ $ $ . . ",
". . $ $ $ $ $ o ] s $ $ $ $ $ $ $ $ t u v w . . . x c y z $ $ $ $ $ $ $ $ $ $ $ $ $ $ $ $ . . ",
". . $ $ $ $ $ A . B 5 $ $ $ $ $ $ ' C . . . . . . . . . D $ $ $ $ $ $ $ $ $ $ $ $ $ $ $ $ . . ",
". . $ $ $ = E F . G H I $ $ $ $ $ J . . . . . . . . . . . n $ $ $ $ $ $ $ $ $ $ $ $ $ $ $ . . ",
". . $ $ $ ; . . . . . K $ $ $ $ $ , L . . . . . . . . . L M $ $ $ $ $ $ $ $ $ $ $ $ $ $ $ . . ",
". . $ $ $ N . . B . . O $ $ $ $ $ $ ) . . . x . h . . . A $ $ $ $ $ $ $ $ $ $ $ $ $ $ $ $ . . ",
". . $ $ $ $ P % Q 7 R S $ $ $ $ $ $ $ J T E U . V H W b = $ $ $ $ $ $ $ $ $ $ $ $ $ $ $ $ . . ",
". . $ $ $ $ $ X Y a I $ $ $ $ $ $ $ $ $ $ Z ` . B > $ $ $ $ $ $ $ $ $ $ $ $ $ $ $ $ $ $ $ . . ",
". . $ $ $ $ $ $ $ $ $ $ $ $ $ $ $ $ $ $  ...d d d W  .$ $ $ $ $ $ $ $ $ $ $ $ $ $ $ $ $ $ . . ",
". . $ $ $ $ $ $ $ $ $ $ $ $ $ $ $ $ $ $ $ $ $ $ $ $ $ $ $ $ $ $ $ $ $ $ $ $ $ $ $ $ $ $ $ . . ",
". . $ $ $ $ $ $ $ $ $ $ $ $ $ $ $ $ $ $ $ $ $ $ $ $ $ $ $ $ $ $ $ $ $ $ $ $ $ $ $ $ $ $ $ . . ",
". . $ $ $ $ $ $ $ $ $ $ $ $ $ $ $ $ $ $ $ z u k +.@.$ $ $ $ $ $ $ $ $ $ $ $ $ $ $ $ $ $ $ . . ",
". . $ $ $ $ $ $ $ $ $ $ $ $ $ $ $ $ $ $ $ #.. . . $.$ $ $ $ $ $ $ $ $ $ $ $ $ $ $ $ $ $ $ . . ",
". . $ $ $ $ $ $ $ $ $ $ $ $ $ $ $ $ $ $ %.L . . . . &.$ $ $ $ $ $ $ $ $ $ $ $ $ $ $ $ $ $ . . ",
". . $ $ $ $ $ $ $ $ $ $ $ $ $ $ $ $ $ $ S ! . . . *.=.$ $ $ $ $ $ $ $ $ $ $ $ $ $ $ $ $ $ . . ",
". . $ $ $ $ $ $ $ $ $ $ $ $ $ $ $ $ $ @.3 -.. . . + ;.>.$ $ $ $ $ $ $ $ $ $ $ $ $ $ $ $ $ . . ",
". . $ $ $ $ $ $ $ $ $ $ $ $ $ $ $ $ ,.. . . . . . . . L '.$ $ $ $ $ $ $ $ $ $ $ $ $ $ $ $ . . ",
". . $ $ $ $ $ $ $ $ $ $ $ $ $ $ $ ).!.. . . . . . . . . *.p $ $ $ $ $ $ $ $ $ $ $ $ $ $ $ . . ",
". . $ $ $ $ $ $ $ $ $ $ $ $ $ $ $ N . . . . . . . . . . . ~.$ $ $ $ $ $ $ $ $ $ $ $ $ $ $ . . ",
". . $ $ $ $ $ $ $ $ $ $ $ $ $ $ $ = {.. . . . . . . . . ].# $ $ $ $ $ $ $ $ $ $ $ $ $ $ $ . . ",
". . $ $ $ $ $ $ $ $ $ $ $ $ $ $ $ $ ^./.(._.:.. _.<.` [.P $ $ $ $ $ $ $ $ $ $ $ $ $ $ $ $ . . ",
". . $ $ $ $ $ $ $ $ $ $ $ $ $ $ $ $ $ $ $ }.].. k |.# $ $ $ $ $ $ $ $ $ $ $ $ $ $ $ $ $ $ . . ",
". . $ $ $ $ $ $ $ $ $ $ $ $ $ $ $ $ $ $  .{.. . . &  .$ $ $ $ $ $ $ $ $ $ $ $ $ $ $ $ $ $ . . ",
". . $ $ $ $ $ $ $ $ $ $ $ $ $ $ $ $ $ $ $ $ $ $ $ $ $ $ $ $ $ $ $ $ $ $ $ $ $ $ $ $ $ $ $ . . ",
". . $ $ $ $ $ $ $ $ $ $ $ $ $ $ $ $ $ $ $ $ $ $ $ $ $ $ $ $ $ $ $ $ $ $ $ $ $ $ $ $ $ $ $ . . ",
". . $ $ $ $ $ $ $ $ $ $ $ $ $ $ $ $ $ $ 1.2.3.4.|.5.5 $ $ $ $ $ $ $ $ $ $ $ $ $ $ $ $ $ $ . . ",
". . $ $ $ $ $ $ $ $ $ $ $ $ $ $ $ $ $ $ >.+ . . . 6.z $ $ $ $ $ $ $ $ $ $ r 7.7.7.= $ $ $ . . ",
". . $ $ $ $ $ $ $ $ $ $ $ $ $ $ $ $ $ $ S 8.9.. 0.8.8.$ $ $ $ $ $ $ $ $ $ = a.. b.= $ $ $ . . ",
". . $ $ $ $ $ $ $ $ $ $ $ $ $ $ $ $ J _.B & [ . c.d.. F N $ $ $ $ $ $ $ e.f.g.L + h.i.$ $ . . ",
". . $ $ $ $ $ $ $ $ $ $ $ $ $ $ $ - j.. . . . . . . . . k.- $ $ $ $ $ $ +.. . . . . l.$ $ . . ",
". . $ $ $ $ $ $ $ $ $ $ $ $ $ $ $ m.. . . . . . . . . . . m.$ $ $ $ $ $ ^.n.o.. : _.p.$ $ . . ",
". . $ $ $ $ $ $ $ $ $ $ $ $ $ $ $ |.q.. . . . . . . . . Q r.$ $ $ $ $ $ $ $ ].. q $ $ $ $ . . ",
". . $ $ $ $ $ $ $ $ $ $ $ $ $ $ $ $ y ` . . . . . . . s.b.$ $ $ $ $ $ $ $ $ t.. u.$ $ $ $ . . ",
". . $ $ $ $ $ $ $ $ $ $ $ $ $ $ $ $ $ }.v.w.. . . $.x.3.$ $ $ $ $ $ $ $ $ $ r ^.= $ $ $ $ . . ",
". . $ $ $ $ $ $ $ $ $ $ $ $ $ $ $ $ $ $ I y.. . . B %.$ $ $ $ $ $ $ $ $ $ z.A.B.B.C.$ $ $ . . ",
". . $ $ $ $ $ $ $ $ $ $ $ $ $ $ $ $ $ $ p.!.. . . . z.$ $ $ $ $ $ $ $ $ D.y.. . . . E.$ $ . . ",
". . $ $ $ $ $ $ $ $ $ $ $ $ $ $ $ $ $ $ $ ) . . . <.$ $ $ $ $ $ $ $ $ $ > . F.7.&.. ) $ $ . . ",
". . $ $ $ $ $ $ $ $ $ $ $ $ $ $ $ $ $ $ $ r.G.H.| ).$ $ $ $ $ $ $ $ $ $ > . I.$ r.J.K.$ $ . . ",
". . $ $ $ $ $ $ $ $ $ $ $ $ $ $ $ $ $ $ $ $ $ $ $ $ $ $ $ $ $ $ $ $ $ $ L.*.: g M.$ $ $ $ . . ",
". . $ $ $ $ $ $ $ $ $ $ $ $ $ $ $ $ $ $ $ $ $ $ $ $ $ $ $ $ $ $ $ $ $ $ ^.*.Q : N.$ $ $ $ . . ",
". . $ $ $ $ $ $ $ $ $ $ $ $ $ $ $ $ $ $ $ $ $ $ $ $ $ $ $ $ $ $ $ $ $ $ > . I.$ 2.O.6 $ $ . . ",
". . $ $ $ $ $ $ $ $ $ $ $ $ $ $ $ $ $ $ $ $ $ $ $ $ $ $ $ $ $ $ $ $ $ $ > . 7 S ~ . ) $ $ . . ",
". . $ $ $ $ $ $ $ $ $ $ $ $ $ $ $ $ $ $ $ $ $ $ $ $ $ $ $ $ $ $ $ $ $ $ P.Q.. . . . < $ $ . . ",
". . = $ $ $ $ $ $ $ $ $ $ $ $ $ $ $ $ $ $ $ $ $ $ $ $ $ $ $ $ $ $ $ $ $ $ e.n.c c R.' $ ' . . ",
"  . { $ $ $ $ $ $ $ $ $ $ $ $ $ $ $ $ $ $ $ $ $ $ $ $ $ $ $ $ $ $ $ $ $ $ $ $ $ $ $ $ $ ~..   ",
"  . & { # $ $ $ $ $ $ $ $ $ $ $ $ $ $ $ $ $ $ $ $ $ $ $ $ $ $ $ $ $ $ $ $ $ $ $ $ $ # { & .   ",
"    . . . . . . . . . . . . . . . . . . . . . . . . . . . . . . . . . . . . . . . . . . .     ",
"        . . . . . . . . . . . . . . . . . . . . . . . . . . . . . . . . . . . . . . .         "};
