/* XPM */
static const char* clubs4_xpm[] = {
"47 62 168 2",
"  	c None",
". 	c #000000",
"+ 	c #2A2A2A",
"@ 	c #B0B0B0",
"# 	c #FCFCFC",
"$ 	c #FFFFFF",
"% 	c #B1B1B1",
"& 	c #B2B2B2",
"* 	c #F6F6F6",
"= 	c #B5B5B5",
"- 	c #B6B6B6",
"; 	c #F4F4F4",
"> 	c #AFAFAF",
", 	c #C8C8C8",
"' 	c #FDFDFD",
") 	c #F7F7F7",
"! 	c #131313",
"~ 	c #141414",
"{ 	c #DBDBDB",
"] 	c #4C4C4C",
"^ 	c #0B0B0B",
"/ 	c #8F8F8F",
"( 	c #7B7B7B",
"_ 	c #A7A7A7",
": 	c #9F9F9F",
"< 	c #888888",
"[ 	c #D0D0D0",
"} 	c #DCDCDC",
"| 	c #A9A9A9",
"1 	c #F9F9F9",
"2 	c #5C5C5C",
"3 	c #1F1F1F",
"4 	c #EDEDED",
"5 	c #7A7A7A",
"6 	c #020202",
"7 	c #171717",
"8 	c #010101",
"9 	c #939393",
"0 	c #F2F2F2",
"a 	c #0C0C0C",
"b 	c #767676",
"c 	c #BABABA",
"d 	c #717171",
"e 	c #DADADA",
"f 	c #515151",
"g 	c #BFBFBF",
"h 	c #D3D3D3",
"i 	c #FEFEFE",
"j 	c #DFDFDF",
"k 	c #1C1C1C",
"l 	c #E2E2E2",
"m 	c #383838",
"n 	c #C9C9C9",
"o 	c #6F6F6F",
"p 	c #282828",
"q 	c #1D1D1D",
"r 	c #979797",
"s 	c #C4C4C4",
"t 	c #343434",
"u 	c #151515",
"v 	c #858585",
"w 	c #5B5B5B",
"x 	c #242424",
"y 	c #050505",
"z 	c #E7E7E7",
"A 	c #3F3F3F",
"B 	c #D4D4D4",
"C 	c #494949",
"D 	c #070707",
"E 	c #959595",
"F 	c #EEEEEE",
"G 	c #D9D9D9",
"H 	c #A1A1A1",
"I 	c #F5F5F5",
"J 	c #030303",
"K 	c #898989",
"L 	c #535353",
"M 	c #2B2B2B",
"N 	c #060606",
"O 	c #EAEAEA",
"P 	c #464646",
"Q 	c #D8D8D8",
"R 	c #D1D1D1",
"S 	c #575757",
"T 	c #232323",
"U 	c #9E9E9E",
"V 	c #3A3A3A",
"W 	c #333333",
"X 	c #707070",
"Y 	c #202020",
"Z 	c #1A1A1A",
"` 	c #8D8D8D",
" .	c #CECECE",
"..	c #B3B3B3",
"+.	c #646464",
"@.	c #AAAAAA",
"#.	c #F3F3F3",
"$.	c #F8F8F8",
"%.	c #989898",
"&.	c #E3E3E3",
"*.	c #787878",
"=.	c #FAFAFA",
"-.	c #848484",
";.	c #BDBDBD",
">.	c #040404",
",.	c #080808",
"'.	c #9D9D9D",
").	c #C1C1C1",
"!.	c #7E7E7E",
"~.	c #7C7C7C",
"{.	c #A8A8A8",
"].	c #7D7D7D",
"^.	c #999999",
"/.	c #FBFBFB",
"(.	c #686868",
"_.	c #454545",
":.	c #2D2D2D",
"<.	c #F1F1F1",
"[.	c #B7B7B7",
"}.	c #737373",
"|.	c #BCBCBC",
"1.	c #111111",
"2.	c #C3C3C3",
"3.	c #8C8C8C",
"4.	c #F0F0F0",
"5.	c #414141",
"6.	c #292929",
"7.	c #1B1B1B",
"8.	c #CBCBCB",
"9.	c #626262",
"0.	c #0D0D0D",
"a.	c #262626",
"b.	c #0E0E0E",
"c.	c #ECECEC",
"d.	c #B8B8B8",
"e.	c #A0A0A0",
"f.	c #363636",
"g.	c #404040",
"h.	c #EBEBEB",
"i.	c #BEBEBE",
"j.	c #161616",
"k.	c #A6A6A6",
"l.	c #2C2C2C",
"m.	c #5D5D5D",
"n.	c #777777",
"o.	c #191919",
"p.	c #545454",
"q.	c #444444",
"r.	c #6A6A6A",
"s.	c #676767",
"t.	c #5A5A5A",
"u.	c #949494",
"v.	c #CACACA",
"w.	c #9A9A9A",
"x.	c #0F0F0F",
"y.	c #6D6D6D",
"z.	c #D6D6D6",
"A.	c #4E4E4E",
"B.	c #C7C7C7",
"C.	c #ACACAC",
"D.	c #CDCDCD",
"E.	c #3E3E3E",
"F.	c #9B9B9B",
"G.	c #B9B9B9",
"H.	c #2F2F2F",
"I.	c #919191",
"J.	c #B4B4B4",
"K.	c #2E2E2E",
"        . . . . . . . . . . . . . . . . . . . . . . . . . . . . . . . . . . . . . . .         ",
"    . . . . . . . . . . . . . . . . . . . . . . . . . . . . . . . . . . . . . . . . . . .     ",
"  . + @ # $ $ $ $ $ $ $ $ $ $ $ $ $ $ $ $ $ $ $ $ $ $ $ $ $ $ $ $ $ $ $ $ $ $ $ $ $ # @ + .   ",
"  . % $ $ $ $ $ $ $ $ $ $ $ $ $ $ $ $ $ $ $ $ $ $ $ $ $ $ $ $ $ $ $ $ $ $ $ $ $ $ $ $ $ & .   ",
"  . * $ $ $ = - $ ; > , $ $ $ $ $ $ $ $ $ $ $ $ $ $ $ $ $ $ $ $ $ $ $ $ $ $ $ $ $ $ $ $ ' . . ",
"  . ) $ $ $ ! ~ $ { . ] $ $ $ $ $ $ $ $ $ $ $ $ $ $ $ $ $ $ $ $ $ $ $ $ $ $ $ $ $ $ $ $ $ . . ",
"  . ) $ $ $ ! ~ $ { . ] $ $ $ $ $ $ $ $ $ $ $ $ $ $ $ $ $ $ $ $ $ $ $ $ $ $ $ $ $ $ $ $ $ . . ",
"  . ) $ $ $ ! ~ $ { . ] $ $ $ $ $ $ $ $ $ $ $ $ $ $ $ $ $ $ $ $ $ $ $ $ $ $ $ $ $ $ $ $ $ . . ",
"  . ) $ $ $ ! ^ / ( . ] $ $ $ $ $ $ $ $ $ $ $ $ $ $ $ $ $ $ $ $ $ $ $ $ $ $ $ $ $ $ $ $ $ . . ",
"  . ) $ $ $ ! . . . . ] $ $ $ $ $ $ $ $ $ $ $ $ $ $ $ $ $ $ $ $ $ $ $ $ $ $ $ $ $ $ $ $ $ . . ",
"  . ) $ $ $ _ : : < . ] $ $ $ $ $ [ @ # $ $ $ $ $ $ $ $ $ } | 1 $ $ $ $ $ $ $ $ $ $ $ $ $ . . ",
"  . ) $ $ $ $ $ $ { . ] $ $ $ $ 2 . . 3 4 $ $ $ $ $ $ $ 5 6 . 7 } $ $ $ $ $ $ $ $ $ $ $ $ . . ",
"  . ) $ $ $ $ $ $ { . ] $ $ $ } 8 . . . 9 $ $ $ $ $ $ 0 a . . . b $ $ $ $ $ $ $ $ $ $ $ $ . . ",
"  . ) $ $ $ $ $ $ { . ] $ $ $ c . . . . d $ $ $ $ $ $ e . . . . f $ $ $ $ $ $ $ $ $ $ $ $ . . ",
"  . ) $ $ $ $ $ $ * g h $ $ i j k . . . c # $ $ $ $ $ l m . . . : ) $ $ $ $ $ $ $ $ $ $ $ . . ",
"  . ) $ $ $ $ n m o $ $ $ = p . . . . . . q r $ $ s t . . . . . . u v $ $ $ $ $ $ $ $ $ $ . . ",
"  . ) $ $ $ $ w . . e $ i x . . . . . . . . y z $ A . . . . . . . . . B $ $ $ $ $ $ $ $ $ . . ",
"  . ) $ $ $ - C . D E F G . . . . . . . . . . H I J . . . . . . . . . K $ $ $ $ $ $ $ $ $ . . ",
"  . ) $ $ n . . . . . L $ M . . . . . . . . N O $ P . . . . . . . . . Q $ $ $ $ $ $ $ $ $ . . ",
"  . ) $ $ R . . 6 . . S $ s A J ] 3 8 5 7 T U $ $ R ] 6 V W . X Y Z ` $ $ $ $ $ $ $ $ $ $ . . ",
"  . ) $ $ $  ...~ +.@.#.$ $ $ $. .. . %.1 ' $ $ $ $ $ $.&.a . *.# =.$ $ $ $ $ $ $ $ $ $ $ . . ",
"  . ) $ $ $ $ @ -.< 4 $ $ $ $ ;.~ >.J ,.'.$ $ $ $ $ $ [ 3 y J J v ' $ $ $ $ $ $ $ $ $ $ $ . . ",
"  . ) $ $ $ $ $ $ $ $ $ $ $ $ $ $ $ $ $ $ $ $ $ $ $ $ $ $ $ $ $ $ $ $ $ $ $ $ $ $ $ $ $ $ . . ",
"  . ) $ $ $ $ $ $ $ $ $ $ $ $ $ $ $ $ $ $ $ $ $ $ $ $ $ $ $ $ $ $ $ $ $ $ $ $ $ $ $ $ $ $ . . ",
"  . ) $ $ $ $ $ $ $ $ $ $ $ $ $ $ $ $ $ $ $ $ $ $ $ $ $ $ $ $ $ $ $ $ $ $ $ $ $ $ $ $ $ $ . . ",
"  . ) $ $ $ $ $ $ $ $ $ $ $ $ $ $ $ $ $ $ $ $ $ $ $ $ $ $ $ $ $ $ $ $ $ $ $ $ $ $ $ $ $ $ . . ",
"  . ) $ $ $ $ $ $ $ $ $ $ $ $ $ $ $ $ $ $ $ $ $ $ $ $ $ $ $ $ $ $ $ $ $ $ $ $ $ $ $ $ $ $ . . ",
"  . ) $ $ $ $ $ $ $ $ $ $ $ $ $ $ $ $ $ $ $ $ $ $ $ $ $ $ $ $ $ $ $ $ $ $ $ $ $ $ $ $ $ $ . . ",
"  . ) $ $ $ $ $ $ $ $ $ $ $ $ $ $ $ $ $ $ $ $ $ $ $ $ $ $ $ $ $ $ $ $ $ $ $ $ $ $ $ $ $ $ . . ",
"  . ) $ $ $ $ $ $ $ $ $ $ $ $ $ $ $ $ $ $ $ $ $ $ $ $ $ $ $ $ $ $ $ $ $ $ $ $ $ $ $ $ $ $ . . ",
"  . ) $ $ $ $ $ $ $ $ $ $ $ $ $ $ $ $ $ $ $ $ $ $ $ $ $ $ $ $ $ $ $ $ $ $ $ $ $ $ $ $ $ $ . . ",
"  . ) $ $ $ $ $ $ $ $ $ $ $ $ $ $ $ $ $ $ $ $ $ $ $ $ $ $ $ $ $ $ $ $ $ $ $ $ $ $ $ $ $ $ . . ",
"  . ) $ $ $ $ $ $ $ $ $ $ $ $ $ $ $ $ $ $ $ $ $ $ $ $ $ $ $ $ $ $ $ $ $ $ $ $ $ $ $ $ $ $ . . ",
"  . ) $ $ $ $ $ $ $ $ $ $ $ $ $ $ $ $ $ $ $ $ $ $ $ $ $ $ $ $ $ $ $ $ $ $ $ $ $ $ $ $ $ $ . . ",
"  . ) $ $ $ $ $ $ $ $ $ $ $ $ $ $ $ $ $ $ $ $ $ $ $ $ $ $ $ $ $ $ $ $ $ $ $ $ $ $ $ $ $ $ . . ",
"  . ) $ $ $ $ $ $ $ $ $ $ $ $ $ $ $ $ $ $ $ $ $ $ $ $ $ $ $ $ $ $ $ $ $ $ $ $ $ $ $ $ $ $ . . ",
"  . ) $ $ $ $ $ $ $ $ $ $ $ $ $ $ $ $ $ $ $ $ $ $ $ $ $ $ $ $ $ $ $ $ $ $ $ $ $ $ $ $ $ $ . . ",
"  . ) $ $ $ $ $ $ $ $ $ $ $ $ $ $ $ $ $ $ $ $ $ $ $ $ $ $ $ $ $ $ $ $ $ $ $ $ $ $ $ $ $ $ . . ",
"  . ) $ $ $ $ $ $ $ $ $ $ $ $ $ $ $ $ $ $ $ $ $ $ $ $ $ $ $ $ $ $ $ $ $ $ $ $ $ $ $ $ $ $ . . ",
"  . ) $ $ $ $ $ $ $ $ $ $ $ $ $ $ $ $ $ $ $ $ $ $ $ $ $ $ $ $ $ $ $ $ $ $ $ $ $ $ $ $ $ $ . . ",
"  . ) $ $ $ $ $ $ $ $ $ $ $ $ ).!.~.( 5 {.$ $ $ $ $ $ R !.].( 5 ^.' $ $ $ # z z z # $ $ $ . . ",
"  . ) $ $ $ $ $ $ $ $ $ $ $ $ /.(.. . _.1 $ $ $ $ $ $ $ -.. . :.<.$ $ $ $ i ].. o ' $ $ $ . . ",
"  . ) $ $ $ $ $ $ $ $ $ $ i [.}.|.1.. n < ^.I $ $ $ 2.}.% :.. > E 3.4.$ n 3 5.. 6.7.8.$ $ . . ",
"  . ) $ $ $ $ $ $ $ $ $ $ 9.. . 6 a 8 0.. . a.i $ ( . . . b.. 0.. . u ) }.. . . . . ( $ $ . . ",
"  . ) $ $ $ $ $ $ $ $ $ c.D . . . . . . . . . d.=.7 . . . . . . . . . e.B f.b.. 0.g.{ $ $ . . ",
"  . ) $ $ $ $ $ $ $ $ $ h.D . . . . . . . . . i.=.j.. . . . . . . . . k.$ $ l.. 3 $ $ $ $ . . ",
"  . ) $ $ $ $ $ $ $ $ $ $ m.. . . . . . . . M i $ n.. . . . . . . . o.$.$ $ p.. q.$ $ $ $ . . ",
"  . ) $ $ $ $ $ $ $ $ $ $ ' > r.Z . . . s.H $.$ $ $ |.r.+ . . . t.u.; $ $ $ ' v./.$ $ $ $ . . ",
"  . ) $ $ $ $ $ $ $ $ $ $ $ $ &.6 . . . w.$ $ $ $ $ $ * x.. . . 5 $ $ $ s A ^.$ $ $ $ $ $ . . ",
"  . ) $ $ $ $ $ $ $ $ $ $ $ $ - . . . . y.$ $ $ $ $ $ z.. . . . A.$ $ $ @ . n.$ $ $ $ $ $ . . ",
"  . ) $ $ $ $ $ $ $ $ $ $ $ $ /.o.. . . B.$ $ $ $ $ $ $ t . . . C.$ $ $ @ . n.$ $ $ $ $ $ . . ",
"  . ) $ $ $ $ $ $ $ $ $ $ $ $ $ D.m.E.k.$ $ $ $ $ $ $ $ e r.m F.# $ $ $ @ . n.$ $ $ $ $ $ . . ",
"  . ) $ $ $ $ $ $ $ $ $ $ $ $ $ $ $ $ $ $ $ $ $ $ $ $ $ $ $ $ $ $ $ $ $ @ . b.3 3 3 G.$ $ . . ",
"  . ) $ $ $ $ $ $ $ $ $ $ $ $ $ $ $ $ $ $ $ $ $ $ $ $ $ $ $ $ $ $ $ $ $ @ . D x.D . > $ $ . . ",
"  . ) $ $ $ $ $ $ $ $ $ $ $ $ $ $ $ $ $ $ $ $ $ $ $ $ $ $ $ $ $ $ $ $ $ @ . n.$ *.. > $ $ . . ",
"  . ) $ $ $ $ $ $ $ $ $ $ $ $ $ $ $ $ $ $ $ $ $ $ $ $ $ $ $ $ $ $ $ $ $ @ . n.$ *.. > $ $ . . ",
"  . ) $ $ $ $ $ $ $ $ $ $ $ $ $ $ $ $ $ $ $ $ $ $ $ $ $ $ $ $ $ $ $ $ $ @ . n.$ *.. > $ $ . . ",
"  . * $ $ $ $ $ $ $ $ $ $ $ $ $ $ $ $ $ $ $ $ $ $ $ $ $ $ $ $ $ $ $ $ $ g H.I.$ I.H.i.$ ' . . ",
"  . ..$ $ $ $ $ $ $ $ $ $ $ $ $ $ $ $ $ $ $ $ $ $ $ $ $ $ $ $ $ $ $ $ $ $ $ $ $ $ $ $ $ J..   ",
"  . K.J.# $ $ $ $ $ $ $ $ $ $ $ $ $ $ $ $ $ $ $ $ $ $ $ $ $ $ $ $ $ $ $ $ $ $ $ $ $ # J.K..   ",
"    . . . . . . . . . . . . . . . . . . . . . . . . . . . . . . . . . . . . . . . . . . .     ",
"        . . . . . . . . . . . . . . . . . . . . . . . . . . . . . . . . . . . . . . .         "};
