/* XPM */
static const char* clubs5_xpm[] = {
"47 62 198 2",
"  	c None",
". 	c #000000",
"+ 	c #2A2A2A",
"@ 	c #B0B0B0",
"# 	c #FCFCFC",
"$ 	c #FFFFFF",
"% 	c #B2B2B2",
"& 	c #2E2E2E",
"* 	c #BABABA",
"= 	c #FDFDFD",
"- 	c #E8E8E8",
"; 	c #AFAFAF",
"> 	c #C7C7C7",
", 	c #FEFEFE",
"' 	c #B4B4B4",
") 	c #4B4B4B",
"! 	c #363636",
"~ 	c #777777",
"{ 	c #A0A0A0",
"] 	c #737373",
"^ 	c #3D3D3D",
"/ 	c #878787",
"( 	c #C0C0C0",
"_ 	c #060606",
": 	c #B5B5B5",
"< 	c #E3E3E3",
"[ 	c #9F9F9F",
"} 	c #898989",
"| 	c #C9C9C9",
"1 	c #D6D6D6",
"2 	c #ACACAC",
"3 	c #FAFAFA",
"4 	c #DCDCDC",
"5 	c #4C4C4C",
"6 	c #272727",
"7 	c #F5F5F5",
"8 	c #6B6B6B",
"9 	c #1A1A1A",
"0 	c #E2E2E2",
"a 	c #B7B7B7",
"b 	c #676767",
"c 	c #595959",
"d 	c #4E4E4E",
"e 	c #CECECE",
"f 	c #9E9E9E",
"g 	c #050505",
"h 	c #7E7E7E",
"i 	c #5E5E5E",
"j 	c #D9D9D9",
"k 	c #7A7A7A",
"l 	c #CCCCCC",
"m 	c #5A5A5A",
"n 	c #C1C1C1",
"o 	c #BFBFBF",
"p 	c #E4E4E4",
"q 	c #161616",
"r 	c #C6C6C6",
"s 	c #AAAAAA",
"t 	c #F9F9F9",
"u 	c #D7D7D7",
"v 	c #3E3E3E",
"w 	c #636363",
"x 	c #ABABAB",
"y 	c #232323",
"z 	c #222222",
"A 	c #A1A1A1",
"B 	c #303030",
"C 	c #181818",
"D 	c #8C8C8C",
"E 	c #727272",
"F 	c #CACACA",
"G 	c #0B0B0B",
"H 	c #F1F1F1",
"I 	c #333333",
"J 	c #010101",
"K 	c #DBDBDB",
"L 	c #BEBEBE",
"M 	c #535353",
"N 	c #020202",
"O 	c #8E8E8E",
"P 	c #EAEAEA",
"Q 	c #B1B1B1",
"R 	c #E9E9E9",
"S 	c #919191",
"T 	c #D8D8D8",
"U 	c #434343",
"V 	c #1E1E1E",
"W 	c #0D0D0D",
"X 	c #F3F3F3",
"Y 	c #3B3B3B",
"Z 	c #DFDFDF",
"` 	c #474747",
" .	c #BCBCBC",
"..	c #383838",
"+.	c #040404",
"@.	c #565656",
"#.	c #141414",
"$.	c #787878",
"%.	c #131313",
"&.	c #292929",
"*.	c #A8A8A8",
"=.	c #CDCDCD",
"-.	c #484848",
";.	c #424242",
">.	c #282828",
",.	c #767676",
"'.	c #1C1C1C",
").	c #939393",
"!.	c #D4D4D4",
"~.	c #1F1F1F",
"{.	c #545454",
"].	c #A9A9A9",
"^.	c #EFEFEF",
"/.	c #F8F8F8",
"(.	c #F7F7F7",
"_.	c #808080",
":.	c #848484",
"<.	c #E7E7E7",
"[.	c #B6B6B6",
"}.	c #101010",
"|.	c #030303",
"1.	c #0A0A0A",
"2.	c #A3A3A3",
"3.	c #CBCBCB",
"4.	c #1B1B1B",
"5.	c #8B8B8B",
"6.	c #BDBDBD",
"7.	c #646464",
"8.	c #949494",
"9.	c #2D2D2D",
"0.	c #171717",
"a.	c #FBFBFB",
"b.	c #393939",
"c.	c #202020",
"d.	c #A5A5A5",
"e.	c #5F5F5F",
"f.	c #B3B3B3",
"g.	c #151515",
"h.	c #6E6E6E",
"i.	c #696969",
"j.	c #414141",
"k.	c #AEAEAE",
"l.	c #ADADAD",
"m.	c #454545",
"n.	c #5B5B5B",
"o.	c #6A6A6A",
"p.	c #707070",
"q.	c #828282",
"r.	c #404040",
"s.	c #DEDEDE",
"t.	c #F0F0F0",
"u.	c #EEEEEE",
"v.	c #7C7C7C",
"w.	c #7B7B7B",
"x.	c #9D9D9D",
"y.	c #5C5C5C",
"z.	c #8F8F8F",
"A.	c #747474",
"B.	c #080808",
"C.	c #CFCFCF",
"D.	c #838383",
"E.	c #B8B8B8",
"F.	c #929292",
"G.	c #F2F2F2",
"H.	c #3A3A3A",
"I.	c #2B2B2B",
"J.	c #525252",
"K.	c #343434",
"L.	c #0C0C0C",
"M.	c #0F0F0F",
"N.	c #E1E1E1",
"O.	c #C8C8C8",
"P.	c #F4F4F4",
"Q.	c #E0E0E0",
"R.	c #0E0E0E",
"S.	c #444444",
"T.	c #4D4D4D",
"U.	c #6D6D6D",
"V.	c #6C6C6C",
"W.	c #252525",
"X.	c #606060",
"Y.	c #9A9A9A",
"Z.	c #F6F6F6",
"`.	c #090909",
" +	c #858585",
".+	c #3F3F3F",
"++	c #818181",
"@+	c #A6A6A6",
"#+	c #868686",
"$+	c #C4C4C4",
"%+	c #4F4F4F",
"&+	c #ECECEC",
"*+	c #7F7F7F",
"=+	c #A7A7A7",
"-+	c #656565",
";+	c #070707",
">+	c #D1D1D1",
",+	c #2F2F2F",
"        . . . . . . . . . . . . . . . . . . . . . . . . . . . . . . . . . . . . . . .         ",
"    . . . . . . . . . . . . . . . . . . . . . . . . . . . . . . . . . . . . . . . . . . .     ",
"  . + @ # $ $ $ $ $ $ $ $ $ $ $ $ $ $ $ $ $ $ $ $ $ $ $ $ $ $ $ $ $ $ $ $ $ $ $ $ $ # % & .   ",
"  . % $ $ $ $ $ $ $ $ $ $ $ $ $ $ $ $ $ $ $ $ $ $ $ $ $ $ $ $ $ $ $ $ $ $ $ $ $ $ $ $ $ * .   ",
". . = $ $ - ; ; ; ; ; > $ $ $ $ $ $ $ $ $ $ $ $ $ $ $ $ $ $ $ $ $ $ $ $ $ $ $ $ $ $ $ $ , . . ",
". . $ $ $ ' . . . . . ) $ $ $ $ $ $ $ $ $ $ $ $ $ $ $ $ $ $ $ $ $ $ $ $ $ $ $ $ $ $ $ $ $ . . ",
". . $ $ $ ' . ! ~ ~ ~ { $ $ $ $ $ $ $ $ $ $ $ $ $ $ $ $ $ $ $ $ $ $ $ $ $ $ $ $ $ $ $ $ $ . . ",
". . $ $ $ ' . ] $ $ $ $ $ $ $ $ $ $ $ $ $ $ $ $ $ $ $ $ $ $ $ $ $ $ $ $ $ $ $ $ $ $ $ $ $ . . ",
". . $ $ $ ' . ^ / / ( $ $ $ $ $ $ $ $ $ $ $ $ $ $ $ $ $ $ $ $ $ $ $ $ $ $ $ $ $ $ $ $ $ $ . . ",
". . $ $ $ ' . . . . _ : $ $ $ $ $ $ $ $ $ $ $ $ $ $ $ $ $ $ $ $ $ $ $ $ $ $ $ $ $ $ $ $ $ . . ",
". . $ $ $ < [ [ [ } . ) $ $ $ $ $ | : , $ $ $ $ $ $ $ $ $ 1 2 3 $ $ $ $ $ $ $ $ $ $ $ $ $ . . ",
". . $ $ $ ' . ] $ 4 . ) $ $ $ $ 5 . . 6 7 $ $ $ $ $ $ $ 8 . . 9 0 $ $ $ $ $ $ $ $ $ $ $ $ . . ",
". . $ $ $ a . & b c . d $ $ $ e . . . . f $ $ $ $ $ $ - g . . . h $ $ $ $ $ $ $ $ $ $ $ $ . . ",
". . $ $ $ = i . . . 9 j $ $ $ 2 . . . . k $ $ $ $ $ $ l . . . . m $ $ $ $ $ $ $ $ $ $ $ $ . . ",
". . $ $ $ $ = n o o p $ $ $ = 4 q . . . r = $ $ $ $ $ 0 & . . . s t $ $ $ $ $ $ $ $ $ $ $ . . ",
". . $ $ $ $ $ u v w , $ $ x y . . . . . . z A $ $ o B . . . . . . C D $ $ $ $ $ $ $ $ $ $ . . ",
". . $ $ $ $ $ E . . F $ 3 C . . . . . . . . G H $ I . . . . . . . . J K $ $ $ $ $ $ $ $ $ . . ",
". . $ $ $ $ L M . N O P | . . . . . . . . . . Q R . . . . . . . . . . S $ $ $ $ $ $ $ $ $ . . ",
". . $ $ $ T . . . . . U = V . . . . . . . . W X $ Y . . . . . . . . N Z $ $ $ $ $ $ $ $ $ . . ",
". . $ $ $ Z N . N . . ` $  ...+.@.#._ $.%.&.*.$ $ =.-.N ;.>.. ,.'.V ).$ $ $ $ $ $ $ $ $ $ . . ",
". . $ $ $ $ !.Q ~.{.].^.$ $ $ /.o . . { (.$ $ $ $ $ $ /.K +.. _.3 # $ $ $ $ $ $ $ $ $ $ $ . . ",
". . $ $ $ $ $ a :.:.<.$ $ $ $ [.}.+.|.1.2.$ $ $ $ $ $ 3.4.+.|.+.5., $ $ $ $ $ $ $ $ $ $ $ . . ",
". . $ $ $ $ $ $ $ $ $ $ $ $ $ $ $ $ $ $ $ $ $ $ $ $ $ $ $ $ $ $ $ $ $ $ $ $ $ $ $ $ $ $ $ . . ",
". . $ $ $ $ $ $ $ $ $ $ $ $ $ $ $ $ $ $ $ $ $ $ $ $ $ $ $ $ $ $ $ $ $ $ $ $ $ $ $ $ $ $ $ . . ",
". . $ $ $ $ $ $ $ $ $ $ $ $ $ $ $ $ $ $ $ $ $ $ $ $ $ $ $ $ $ $ $ $ $ $ $ $ $ $ $ $ $ $ $ . . ",
". . $ $ $ $ $ $ $ $ $ $ $ $ $ $ $ $ $ $ $ $ 6.7.; = $ $ $ $ $ $ $ $ $ $ $ $ $ $ $ $ $ $ $ . . ",
". . $ $ $ $ $ $ $ $ $ $ $ $ $ $ $ $ $ $ $ 8.. . . ,.$ $ $ $ $ $ $ $ $ $ $ $ $ $ $ $ $ $ $ . . ",
". . $ $ $ $ $ $ $ $ $ $ $ $ $ $ $ $ $ $ $ 9.. . . 0.a.$ $ $ $ $ $ $ $ $ $ $ $ $ $ $ $ $ $ . . ",
". . $ $ $ $ $ $ $ $ $ $ $ $ $ $ $ $ $ $ $ b.. . . c., $ $ $ $ $ $ $ $ $ $ $ $ $ $ $ $ $ $ . . ",
". . $ $ $ $ $ $ $ $ $ $ $ $ $ $ $ $ $ (.d.e.. . . d f.a.$ $ $ $ $ $ $ $ $ $ $ $ $ $ $ $ $ . . ",
". . $ $ $ $ $ $ $ $ $ $ $ $ $ $ $ $ 1 g.. . . . . . . 9 !.$ $ $ $ $ $ $ $ $ $ $ $ $ $ $ $ . . ",
". . $ $ $ $ $ $ $ $ $ $ $ $ $ $ $ $ h.. . . . . . . . . i.$ $ $ $ $ $ $ $ $ $ $ $ $ $ $ $ . . ",
". . $ $ $ $ $ $ $ $ $ $ $ $ $ $ $ $ ) . . . . . . . . . j.$ $ $ $ $ $ $ $ $ $ $ $ $ $ $ $ . . ",
". . $ $ $ $ $ $ $ $ $ $ $ $ $ $ $ $ k.. . . N . . . . . 2.$ $ $ $ $ $ $ $ $ $ $ $ $ $ $ $ . . ",
". . $ $ $ $ $ $ $ $ $ $ $ $ $ $ $ $ = l.m.n.o.. p.q.r.2.a.$ $ $ $ $ $ $ $ $ $ $ $ $ $ $ $ . . ",
". . $ $ $ $ $ $ $ $ $ $ $ $ $ $ $ $ $ $ $ s.c.. '.<.$ $ $ $ $ $ $ $ $ $ $ $ $ $ $ $ $ $ $ . . ",
". . $ $ $ $ $ $ $ $ $ $ $ $ $ $ $ $ $ $ t.i ` ` ` b u.$ $ $ $ $ $ $ $ $ $ $ $ $ $ $ $ $ $ . . ",
". . $ $ $ $ $ $ $ $ $ $ $ $ $ $ $ $ $ $ $ $ $ $ $ $ $ $ $ $ $ $ $ $ $ $ $ $ $ $ $ $ $ $ $ . . ",
". . $ $ $ $ $ $ $ $ $ $ $ $ $ $ $ $ $ $ $ $ $ $ $ $ $ $ $ $ $ $ $ $ $ $ $ $ $ $ $ $ $ $ $ . . ",
". . $ $ $ $ $ $ $ $ $ $ $ $ $ $ $ $ $ $ $ $ $ $ $ $ $ $ $ $ $ $ $ $ $ $ $ $ $ $ $ $ $ $ $ . . ",
". . $ $ $ $ $ $ $ $ $ $ $ $ $  .h v.w.k 2 $ $ $ $ $ $ l h v.w.k x., $ $ $ $ - <.<.3 $ $ $ . . ",
". . $ $ $ $ $ $ $ $ $ $ $ $ $ t y.. . ) 3 $ $ $ $ $ $ , $.. . I X $ $ $ $ $ z.. n.3 $ $ $ . . ",
". . $ $ $ $ $ $ $ $ $ $ $ = @ A.6.B.J C.D.{ /.$ $ $ ( ] a V . E.z.F.G.$ j 6 H.|.I.g.* $ $ . . ",
". . $ $ $ $ $ $ $ $ $ $ $ J.. . +.1.g 1.. . K.$ $ E . . . L.. M.. . 9 3 5.. . . . . w $ $ . . ",
". . $ $ $ $ $ $ $ $ $ $ N.N . . . . . . . . . O.P.M.. . . . . . . . . *.N.v }.. 1.b.e $ $ . . ",
". . $ $ $ $ $ $ $ $ $ $ Q.N . . . . . . . . . e P.R.. . . . . . . . . k.$ $ S.. M.(.$ $ $ . . ",
". . $ $ $ $ $ $ $ $ $ $ $ T.. . . . . . . . H.$ $ U.. . . . . . . . ~.a.$ $ V.. 9.$ $ $ $ . . ",
". . $ $ $ $ $ $ $ $ $ $ $ a.*.o.g.. . J V.*.a.$ $ , E.o.W.. . . X.Y.Z.$ $ $ $ 3./.$ $ $ $ . . ",
". . $ $ $ $ $ $ $ $ $ $ $ $ $ T . . . . d.$ $ $ $ $ $ ^.`.. . .  +$ $ $ $ | j..+.+++$ $ $ . . ",
". . $ $ $ $ $ $ $ $ $ $ $ $ $ @+. . . . ,.$ $ $ $ $ $ r . . . . @.$ $ $ T M.. . . . #+$ $ . . ",
". . $ $ $ $ $ $ $ $ $ $ $ $ $ 7 M.. . . !.$ $ $ $ $ $ , W.. . . ' $ $ $ @ . V.<.$+. %+$ $ . . ",
". . $ $ $ $ $ $ $ $ $ $ $ $ $ $ r @.U k.$ $ $ $ $ $ $ $ !.7.H.[ = $ $ $ @ . ~ $ &+*+=+$ $ . . ",
". . $ $ $ $ $ $ $ $ $ $ $ $ $ $ $ $ $ $ $ $ $ $ $ $ $ $ $ $ $ $ $ $ $ $ r N R.~.~.~.-+$ $ . . ",
". . $ $ $ $ $ $ $ $ $ $ $ $ $ $ $ $ $ $ $ $ $ $ $ $ $ $ $ $ $ $ $ $ $ $ $ f `.;+_ . %+$ $ . . ",
". . $ $ $ $ $ $ $ $ $ $ $ $ $ $ $ $ $ $ $ $ $ $ $ $ $ $ $ $ $ $ $ $ $ $ $ $ $ $ T . %+$ $ . . ",
". . $ $ $ $ $ $ $ $ $ $ $ $ $ $ $ $ $ $ $ $ $ $ $ $ $ $ $ $ $ $ $ $ $ $ = (.(.(.>+. %+$ $ . . ",
". . $ $ $ $ $ $ $ $ $ $ $ $ $ $ $ $ $ $ $ $ $ $ $ $ $ $ $ $ $ $ $ $ $ $ @ . . . . . %+$ $ . . ",
". . = $ $ $ $ $ $ $ $ $ $ $ $ $ $ $ $ $ $ $ $ $ $ $ $ $ $ $ $ $ $ $ $ $ o ,+,+,+,+,+p.$ , . . ",
"  . ' $ $ $ $ $ $ $ $ $ $ $ $ $ $ $ $ $ $ $ $ $ $ $ $ $ $ $ $ $ $ $ $ $ $ $ $ $ $ $ $ $ a .   ",
"  . & ' # $ $ $ $ $ $ $ $ $ $ $ $ $ $ $ $ $ $ $ $ $ $ $ $ $ $ $ $ $ $ $ $ $ $ $ $ $ # ' & .   ",
"    . . . . . . . . . . . . . . . . . . . . . . . . . . . . . . . . . . . . . . . . . . .     ",
"        . . . . . . . . . . . . . . . . . . . . . . . . . . . . . . . . . . . . . . .         "};
