/* XPM */
static const char* clubs6_xpm[] = {
"47 62 204 2",
"  	c None",
". 	c #000000",
"+ 	c #2A2A2A",
"@ 	c #B0B0B0",
"# 	c #FCFCFC",
"$ 	c #FFFFFF",
"% 	c #B1B1B1",
"& 	c #B2B2B2",
"* 	c #F6F6F6",
"= 	c #FBFBFB",
"- 	c #AFAFAF",
"; 	c #DBDBDB",
"> 	c #FDFDFD",
", 	c #F7F7F7",
"' 	c #535353",
") 	c #121212",
"! 	c #CFCFCF",
"~ 	c #B7B7B7",
"{ 	c #353535",
"] 	c #777777",
"^ 	c #686868",
"/ 	c #4A4A4A",
"( 	c #B6B6B6",
"_ 	c #717171",
": 	c #E0E0E0",
"< 	c #0F0F0F",
"[ 	c #555555",
"} 	c #3C3C3C",
"| 	c #878787",
"1 	c #BFBFBF",
"2 	c #3D3D3D",
"3 	c #B5B5B5",
"4 	c #C2C2C2",
"5 	c #474747",
"6 	c #343434",
"7 	c #A8A8A8",
"8 	c #060606",
"9 	c #B3B3B3",
"0 	c #F8F8F8",
"a 	c #111111",
"b 	c #FEFEFE",
"c 	c #212121",
"d 	c #E9E9E9",
"e 	c #9F9F9F",
"f 	c #8A8A8A",
"g 	c #494949",
"h 	c #C9C9C9",
"i 	c #C1C1C1",
"j 	c #DADADA",
"k 	c #A9A9A9",
"l 	c #DEDEDE",
"m 	c #F5F5F5",
"n 	c #1C1C1C",
"o 	c #181818",
"p 	c #2E2E2E",
"q 	c #0A0A0A",
"r 	c #EDEDED",
"s 	c #B9B9B9",
"t 	c #676767",
"u 	c #5A5A5A",
"v 	c #4C4C4C",
"w 	c #DDDDDD",
"x 	c #030303",
"y 	c #040404",
"z 	c #5B5B5B",
"A 	c #E7E7E7",
"B 	c #E8E8E8",
"C 	c #575757",
"D 	c #070707",
"E 	c #515151",
"F 	c #DCDCDC",
"G 	c #606060",
"H 	c #191919",
"I 	c #D8D8D8",
"J 	c #666666",
"K 	c #7C7C7C",
"L 	c #7E7E7E",
"M 	c #636363",
"N 	c #E4E4E4",
"O 	c #2C2C2C",
"P 	c #424242",
"Q 	c #444444",
"R 	c #CECECE",
"S 	c #3A3A3A",
"T 	c #696969",
"U 	c #888888",
"V 	c #999999",
"W 	c #A0A0A0",
"X 	c #818181",
"Y 	c #D2D2D2",
"Z 	c #FAFAFA",
"` 	c #A4A4A4",
" .	c #5E5E5E",
"..	c #101010",
"+.	c #1D1D1D",
"@.	c #545454",
"#.	c #A3A3A3",
"$.	c #5D5D5D",
"%.	c #BBBBBB",
"&.	c #232323",
"*.	c #0D0D0D",
"=.	c #4D4D4D",
"-.	c #929292",
";.	c #ECECEC",
">.	c #727272",
",.	c #D1D1D1",
"'.	c #4B4B4B",
").	c #D9D9D9",
"!.	c #010101",
"~.	c #020202",
"{.	c #4F4F4F",
"].	c #D0D0D0",
"^.	c #AAAAAA",
"/.	c #F1F1F1",
"(.	c #848484",
"_.	c #828282",
":.	c #0B0B0B",
"<.	c #949494",
"[.	c #6D6D6D",
"}.	c #050505",
"|.	c #D5D5D5",
"1.	c #CBCBCB",
"2.	c #E2E2E2",
"3.	c #BDBDBD",
"4.	c #0E0E0E",
"5.	c #BCBCBC",
"6.	c #F9F9F9",
"7.	c #C0C0C0",
"8.	c #141414",
"9.	c #1F1F1F",
"0.	c #1B1B1B",
"a.	c #171717",
"b.	c #656565",
"c.	c #646464",
"d.	c #4E4E4E",
"e.	c #525252",
"f.	c #363636",
"g.	c #A6A6A6",
"h.	c #131313",
"i.	c #080808",
"j.	c #090909",
"k.	c #9E9E9E",
"l.	c #E6E6E6",
"m.	c #DFDFDF",
"n.	c #E5E5E5",
"o.	c #9C9C9C",
"p.	c #EAEAEA",
"q.	c #979797",
"r.	c #D7D7D7",
"s.	c #EEEEEE",
"t.	c #404040",
"u.	c #C7C7C7",
"v.	c #E3E3E3",
"w.	c #868686",
"x.	c #B8B8B8",
"y.	c #272727",
"z.	c #A7A7A7",
"A.	c #D3D3D3",
"B.	c #939393",
"C.	c #565656",
"D.	c #6B6B6B",
"E.	c #C5C5C5",
"F.	c #2F2F2F",
"G.	c #C4C4C4",
"H.	c #161616",
"I.	c #CDCDCD",
"J.	c #747474",
"K.	c #C3C3C3",
"L.	c #7D7D7D",
"M.	c #CCCCCC",
"N.	c #0C0C0C",
"O.	c #8E8E8E",
"P.	c #5C5C5C",
"Q.	c #323232",
"R.	c #484848",
"S.	c #303030",
"T.	c #CACACA",
"U.	c #595959",
"V.	c #6F6F6F",
"W.	c #3F3F3F",
"X.	c #838383",
"Y.	c #2D2D2D",
"Z.	c #3B3B3B",
"`.	c #373737",
" +	c #313131",
".+	c #D6D6D6",
"++	c #898989",
"@+	c #E1E1E1",
"#+	c #ADADAD",
"$+	c #6E6E6E",
"%+	c #ACACAC",
"&+	c #7A7A7A",
"*+	c #F3F3F3",
"=+	c #F0F0F0",
"-+	c #1A1A1A",
";+	c #9B9B9B",
">+	c #ABABAB",
",+	c #242424",
"'+	c #151515",
")+	c #8F8F8F",
"!+	c #767676",
"~+	c #7F7F7F",
"{+	c #737373",
"]+	c #B4B4B4",
"        . . . . . . . . . . . . . . . . . . . . . . . . . . . . . . . . . . . . . . .         ",
"    . . . . . . . . . . . . . . . . . . . . . . . . . . . . . . . . . . . . . . . . . . .     ",
"  . + @ # $ $ $ $ $ $ $ $ $ $ $ $ $ $ $ $ $ $ $ $ $ $ $ $ $ $ $ $ $ $ $ $ $ $ $ $ $ # @ + .   ",
"  . % $ $ $ $ $ $ $ $ $ $ $ $ $ $ $ $ $ $ $ $ $ $ $ $ $ $ $ $ $ $ $ $ $ $ $ $ $ $ $ $ $ & .   ",
"  . * $ $ = % - - ; $ $ $ $ $ $ $ $ $ $ $ $ $ $ $ $ $ $ $ $ $ $ $ $ $ $ $ $ $ $ $ $ $ $ > . . ",
"  . , $ = ' . . . ) ! $ $ $ $ $ $ $ $ $ $ $ $ $ $ $ $ $ $ $ $ $ $ $ $ $ $ $ $ $ $ $ $ $ $ . . ",
"  . , $ ~ . { ] ^ . / $ $ $ $ $ $ $ $ $ $ $ $ $ $ $ $ $ $ $ $ $ $ $ $ $ $ $ $ $ $ $ $ $ $ . . ",
"  . , $ ( . _ $ : < [ $ $ $ $ $ $ $ $ $ $ $ $ $ $ $ $ $ $ $ $ $ $ $ $ $ $ $ $ $ $ $ $ $ $ . . ",
"  . , $ ( . } | | 1 $ $ $ $ $ ( 2 2 3 $ $ $ $ $ $ $ $ $ 4 5 6 7 $ $ $ $ $ $ $ $ $ $ $ $ $ . . ",
"  . , $ ( . . . . 8 9 $ $ $ 0 ) . . a * $ $ $ $ $ $ $ b c . . 8 d $ $ $ $ $ $ $ $ $ $ $ $ . . ",
"  . , $ ( . 5 e f . g $ $ $ h . . . . i $ $ $ $ $ $ $ j . . . . k $ $ $ $ $ $ $ $ $ $ $ $ . . ",
"  . , $ ( . _ $ l . g $ $ $ m n . . o , $ $ $ $ $ $ $ 0 p . . q r $ $ $ $ $ $ $ $ $ $ $ $ . . ",
"  . , $ s . p t u . v $ w v x 8 . . y 8 z A $ $ $ B C y D . . x y E F $ $ $ $ $ $ $ $ $ $ . . ",
"  . , $ > G . . . H I $ J . . . . . . . . K $ $ $ L . . . . . . . . M $ $ $ $ $ $ $ $ $ $ . . ",
"  . , $ $ > i 1 1 N $ $ O . . . . . . . . P $ $ $ Q . . . . . . . . + $ $ $ $ $ $ $ $ $ $ . . ",
"  . , $ $ $ R S T $ $ $ U . . . x . . . . V $ $ $ W . . . x . . . . X $ $ $ $ $ $ $ $ $ $ . . ",
"  . , $ $ $ M . . Y $ $ Z `  .4 ..+.% @.#.Z $ $ $ > - $.%.&.*.3 C V * $ $ $ $ $ $ $ $ $ $ . . ",
"  . , $ $ s =.. y -.;.$ $ $ b >.. . U $ $ $ $ $ $ $ $ $ U . . _ $ $ $ $ $ $ $ $ $ $ $ $ $ . . ",
"  . , $ ,.. . . . . '.$ $ $ ,.| | | U ).$ $ $ $ $ $ $ F | | | | R $ $ $ $ $ $ $ $ $ $ $ $ . . ",
"  . , $ I !.. ~.. . {.$ $ $ $ $ $ $ $ $ $ $ $ $ $ $ $ $ $ $ $ $ $ $ $ $ $ $ $ $ $ $ $ $ $ . . ",
"  . , $ $ ].9 H  .^./.$ $ $ $ $ $ $ $ $ $ $ $ $ $ $ $ $ $ $ $ $ $ $ $ $ $ $ $ $ $ $ $ $ $ . . ",
"  . , $ $ $ % (.| r $ $ $ $ $ $ $ $ $ $ $ $ $ $ $ $ $ $ $ $ $ $ $ $ $ $ $ $ $ $ $ $ $ $ $ . . ",
"  . , $ $ $ $ $ $ $ $ $ $ $ $ $ $ $ $ $ $ $ $ $ $ $ $ $ $ $ $ $ $ $ $ $ $ $ $ $ $ $ $ $ $ . . ",
"  . , $ $ $ $ $ $ $ $ $ $ $ $ $ $ $ $ $ $ $ $ $ $ $ $ $ $ $ $ $ $ $ $ $ $ $ $ $ $ $ $ $ $ . . ",
"  . , $ $ $ $ $ $ $ $ $ $ $ $ $ $ $ $ $ $ $ $ $ $ $ $ $ $ $ $ $ $ $ $ $ $ $ $ $ $ $ $ $ $ . . ",
"  . , $ $ $ $ $ $ $ $ $ $ $ $ $ /./.$ $ $ $ $ $ $ $ $ $ $ * ;.$ $ $ $ $ $ $ $ $ $ $ $ $ $ . . ",
"  . , $ $ $ $ $ $ $ $ $ $ $ $ _.:.:.X $ $ $ $ $ $ $ $ $ <.a D [.$ $ $ $ $ $ $ $ $ $ $ $ $ . . ",
"  . , $ $ $ $ $ $ $ $ $ $ $ ;.8 . . }.B $ $ $ $ $ $ $ * ... . . |.$ $ $ $ $ $ $ $ $ $ $ $ . . ",
"  . , $ $ $ $ $ $ $ $ $ $ $ Y . . . . 1.$ $ $ $ $ $ $ 2.~.. . . 9 $ $ $ $ $ $ $ $ $ $ $ $ . . ",
"  . , $ $ $ $ $ $ $ $ $ $ , %.&.. . +.4 # $ $ $ $ $ = 3.6 . . 4.5.6.$ $ $ $ $ $ $ $ $ $ $ . . ",
"  . , $ $ $ $ $ $ $ $ $ 7.8.. . . . . . 9.].$ $ $ ,.0.. . . . . . a.1 $ $ $ $ $ $ $ $ $ $ . . ",
"  . , $ $ $ $ $ $ $ $ $ v . . . . . . . . b.$ $ $ c.. . . . . . . . =.$ $ $ $ $ $ $ $ $ $ . . ",
"  . , $ $ $ $ $ $ $ $ $ S . . . . . . . . d.$ $ $ e.. . . . . . . . f.$ $ $ $ $ $ $ $ $ $ . . ",
"  . , $ $ $ $ $ $ $ $ $ g.~.. h.*.4.i.. x ( $ $ $ 5.y . *.h.j.*.. !.W $ $ $ $ $ $ $ $ $ $ . . ",
"  . , $ $ $ $ $ $ $ $ $ $ l k.l.8 < m.<.: $ $ $ $ $ n.o.p.8.y I q.r.$ $ $ $ $ $ $ $ $ $ $ . . ",
"  . , $ $ $ $ $ $ $ $ $ $ $ s.t.. . E m $ $ $ $ $ $ $ m E . . t.s.$ $ $ $ $ $ $ $ $ $ $ $ . . ",
"  . , $ $ $ $ $ $ $ $ $ $ $ 2.u.u.u.u.v.$ $ $ $ $ $ $ A u.u.u.u.l $ $ $ $ $ $ $ $ $ $ $ $ . . ",
"  . , $ $ $ $ $ $ $ $ $ $ $ $ $ $ $ $ $ $ $ $ $ $ $ $ $ $ $ $ $ $ $ $ $ $ $ $ $ $ $ $ $ $ . . ",
"  . , $ $ $ $ $ $ $ $ $ $ $ $ $ $ $ $ $ $ $ $ $ $ $ $ $ $ $ $ $ $ $ $ $ $ $ $ $ $ $ $ $ $ . . ",
"  . , $ $ $ $ $ $ $ $ $ $ $ $ $ $ $ $ $ $ $ $ $ $ $ $ $ $ $ $ $ $ $ $ $ $ $ $ $ $ $ $ $ $ . . ",
"  . , $ $ $ $ $ $ $ $ $ $ $ $ $ $ $ $ $ $ $ $ $ $ $ $ $ $ $ $ $ $ $ $ $ $ Z A A B b $ $ $ . . ",
"  . , $ $ $ $ $ $ $ $ $ $ $ $ $ $ $ $ $ $ $ $ $ $ $ $ $ $ $ $ $ $ $ $ $ $ # t . w.b $ $ $ . . ",
"  . , $ $ $ $ $ $ $ $ $ $ $ $ $ $ $ $ $ $ $ $ $ $ $ $ $ $ $ $ $ $ $ $ $ x.H t.!.y.&.; $ $ . . ",
"  . , $ $ $ $ $ $ $ $ $ $ $ r.z.z.z.z.; $ $ $ $ $ $ $ m.z.z.z.z.A.$ $ $ z . . . . . B.$ $ . . ",
"  . , $ $ $ $ $ $ $ $ $ $ $ 0 C.. . D.> $ $ $ $ $ $ $ # T . . C.6.$ $ $ E.F.:.. ..g B $ $ . . ",
"  . , $ $ $ $ $ $ $ $ $ $ G.L I q H.I.J.K.$ $ $ $ $ R L.r.0.i.M.] s b $ $ > H.. f.$ $ $ $ . . ",
"  . , $ $ $ $ $ $ $ $ $ q.. . }.j.D . . . g.$ $ $ - . . ~.N.}.~.. . O.$ $ $ } . P.$ $ $ $ . . ",
"  . , $ $ $ $ $ $ $ $ $ Q.. . . . . . . . R.$ $ $ / . . . . . . . . S.$ $ $ Z T.> $ $ $ $ . . ",
"  . , $ $ $ $ $ $ $ $ $ U.. . . . . . . . V.$ $ $ _ . . . . . . . . C $ $ u.t.W.W.X.$ $ $ . . ",
"  . , $ $ $ $ $ $ $ $ $ ! Y.. . . . . . Z.F $ $ $ w `.. . . . . .  +R $ .+4.. . . . ++$ $ . . ",
"  . , $ $ $ $ $ $ $ $ $ $ $ ; &.. . +.@+$ $ $ $ $ $ $ w f.. . 4.I $ $ $ #+. $+A i . e.$ $ . . ",
"  . , $ $ $ $ $ $ $ $ $ $ $ M.. . . . G.$ $ $ $ $ $ $ w . . . . %+$ $ $ #+. &+$ |.. e.$ $ . . ",
"  . , $ $ $ $ $ $ $ $ $ $ $ *+:.. . q =+$ $ $ $ $ $ $ Z o . . ~.: $ $ $ G.!.< 9.-+. e.$ $ . . ",
"  . , $ $ $ $ $ $ $ $ $ $ $ $ ;+n n ;+$ $ $ $ $ $ $ $ $ >+,+'+f $ $ $ $ $ ;+i.D 8 . e.$ $ . . ",
"  . , $ $ $ $ $ $ $ $ $ $ $ $ $ = = $ $ $ $ $ $ $ $ $ $ $ > 0 $ $ $ $ $ ; )+E.$ |.. e.$ $ . . ",
"  . , $ $ $ $ $ $ $ $ $ $ $ $ $ $ $ $ $ $ $ $ $ $ $ $ $ $ $ $ $ $ $ $ $ #+. !+, R . e.$ $ . . ",
"  . , $ $ $ $ $ $ $ $ $ $ $ $ $ $ $ $ $ $ $ $ $ $ $ $ $ $ $ $ $ $ $ $ $ ,.j.. . . . ~+$ $ . . ",
"  . * $ $ $ $ $ $ $ $ $ $ $ $ $ $ $ $ $ $ $ $ $ $ $ $ $ $ $ $ $ $ $ $ $ $ 5.S.F.F.{+$ $ > . . ",
"  . 9 $ $ $ $ $ $ $ $ $ $ $ $ $ $ $ $ $ $ $ $ $ $ $ $ $ $ $ $ $ $ $ $ $ $ $ $ $ $ $ $ $ ]+.   ",
"  . p ]+# $ $ $ $ $ $ $ $ $ $ $ $ $ $ $ $ $ $ $ $ $ $ $ $ $ $ $ $ $ $ $ $ $ $ $ $ $ # ]+p .   ",
"    . . . . . . . . . . . . . . . . . . . . . . . . . . . . . . . . . . . . . . . . . . .     ",
"        . . . . . . . . . . . . . . . . . . . . . . . . . . . . . . . . . . . . . . .         "};
