/* XPM */
static const char* clubs7_xpm[] = {
"47 62 204 2",
"  	c None",
". 	c #000000",
"+ 	c #2A2A2A",
"@ 	c #B0B0B0",
"# 	c #FCFCFC",
"$ 	c #FFFFFF",
"% 	c #B2B2B2",
"& 	c #FDFDFD",
"* 	c #CFCFCF",
"= 	c #AFAFAF",
"- 	c #CACACA",
"; 	c #F6F6F6",
"> 	c #646464",
", 	c #7A7A7A",
"' 	c #F7F7F7",
") 	c #ADADAD",
"! 	c #777777",
"~ 	c #242424",
"{ 	c #B4B4B4",
"] 	c #232323",
"^ 	c #010101",
"/ 	c #EDEDED",
"( 	c #E9E9E9",
"_ 	c #272727",
": 	c #DCDCDC",
"< 	c #5E5E5E",
"[ 	c #262626",
"} 	c #898989",
"| 	c #E6E6E6",
"1 	c #666666",
"2 	c #7F7F7F",
"3 	c #F9F9F9",
"4 	c #616161",
"5 	c #585858",
"6 	c #C0C0C0",
"7 	c #6F6F6F",
"8 	c #A8A8A8",
"9 	c #757575",
"0 	c #9B9B9B",
"a 	c #121212",
"b 	c #797979",
"c 	c #292929",
"d 	c #3B3B3B",
"e 	c #D5D5D5",
"f 	c #F8F8F8",
"g 	c #C7C7C7",
"h 	c #787878",
"i 	c #080808",
"j 	c #101010",
"k 	c #FEFEFE",
"l 	c #FBFBFB",
"m 	c #6C6C6C",
"n 	c #0C0C0C",
"o 	c #070707",
"p 	c #050505",
"q 	c #3C3C3C",
"r 	c #C4C4C4",
"s 	c #111111",
"t 	c #323232",
"u 	c #B6B6B6",
"v 	c #484848",
"w 	c #AEAEAE",
"x 	c #303030",
"y 	c #C6C6C6",
"z 	c #1B1B1B",
"A 	c #E8E8E8",
"B 	c #BFBFBF",
"C 	c #DBDBDB",
"D 	c #747474",
"E 	c #030303",
"F 	c #F0F0F0",
"G 	c #8C8C8C",
"H 	c #D7D7D7",
"I 	c #3E3E3E",
"J 	c #5F5F5F",
"K 	c #D0D0D0",
"L 	c #4E4E4E",
"M 	c #E4E4E4",
"N 	c #363636",
"O 	c #737373",
"P 	c #C2C2C2",
"Q 	c #606060",
"R 	c #A4A4A4",
"S 	c #505050",
"T 	c #848484",
"U 	c #ECECEC",
"V 	c #CECECE",
"W 	c #989898",
"X 	c #999999",
"Y 	c #696969",
"Z 	c #E5E5E5",
"` 	c #555555",
" .	c #8A8A8A",
"..	c #B1B1B1",
"+.	c #464646",
"@.	c #8D8D8D",
"#.	c #CBCBCB",
"$.	c #C1C1C1",
"%.	c #0F0F0F",
"&.	c #343434",
"*.	c #F3F3F3",
"=.	c #DFDFDF",
"-.	c #020202",
";.	c #878787",
">.	c #B7B7B7",
",.	c #D8D8D8",
"'.	c #040404",
").	c #959595",
"!.	c #8F8F8F",
"~.	c #ACACAC",
"{.	c #3F3F3F",
"].	c #2D2D2D",
"^.	c #D6D6D6",
"/.	c #525252",
"(.	c #A9A9A9",
"_.	c #919191",
":.	c #474747",
"<.	c #B8B8B8",
"[.	c #E7E7E7",
"}.	c #EFEFEF",
"|.	c #8B8B8B",
"1.	c #595959",
"2.	c #3D3D3D",
"3.	c #808080",
"4.	c #F4F4F4",
"5.	c #A1A1A1",
"6.	c #F1F1F1",
"7.	c #0B0B0B",
"8.	c #949494",
"9.	c #161616",
"0.	c #181818",
"a.	c #5B5B5B",
"b.	c #414141",
"c.	c #212121",
"d.	c #090909",
"e.	c #6E6E6E",
"f.	c #E3E3E3",
"g.	c #BCBCBC",
"h.	c #202020",
"i.	c #494949",
"j.	c #393939",
"k.	c #CCCCCC",
"l.	c #A6A6A6",
"m.	c #1F1F1F",
"n.	c #707070",
"o.	c #565656",
"p.	c #8E8E8E",
"q.	c #838383",
"r.	c #6B6B6B",
"s.	c #C5C5C5",
"t.	c #5A5A5A",
"u.	c #A3A3A3",
"v.	c #929292",
"w.	c #EAEAEA",
"x.	c #2C2C2C",
"y.	c #9A9A9A",
"z.	c #FAFAFA",
"A.	c #3A3A3A",
"B.	c #868686",
"C.	c #828282",
"D.	c #1C1C1C",
"E.	c #151515",
"F.	c #1E1E1E",
"G.	c #171717",
"H.	c #575757",
"I.	c #9F9F9F",
"J.	c #B3B3B3",
"K.	c #B9B9B9",
"L.	c #222222",
"M.	c #D1D1D1",
"N.	c #F2F2F2",
"O.	c #D4D4D4",
"P.	c #C3C3C3",
"Q.	c #1D1D1D",
"R.	c #A7A7A7",
"S.	c #BABABA",
"T.	c #939393",
"U.	c #EEEEEE",
"V.	c #333333",
"W.	c #0D0D0D",
"X.	c #0E0E0E",
"Y.	c #434343",
"Z.	c #E0E0E0",
"`.	c #818181",
" +	c #A2A2A2",
".+	c #5C5C5C",
"++	c #0A0A0A",
"@+	c #444444",
"#+	c #4C4C4C",
"$+	c #131313",
"%+	c #888888",
"&+	c #626262",
"*+	c #767676",
"=+	c #7C7C7C",
"-+	c #4B4B4B",
";+	c #636363",
">+	c #353535",
",+	c #CDCDCD",
"'+	c #676767",
")+	c #DADADA",
"!+	c #060606",
"~+	c #AAAAAA",
"{+	c #2E2E2E",
"]+	c #2F2F2F",
"        . . . . . . . . . . . . . . . . . . . . . . . . . . . . . . . . . . . . . . .         ",
"    . . . . . . . . . . . . . . . . . . . . . . . . . . . . . . . . . . . . . . . . . . .     ",
"  . + @ # $ $ $ $ $ $ $ $ $ $ $ $ $ $ $ $ $ $ $ $ $ $ $ $ $ $ $ $ $ $ $ $ $ $ $ $ $ # @ + .   ",
"  . % $ $ $ $ $ $ $ $ $ $ $ $ $ $ $ $ $ $ $ $ $ $ $ $ $ $ $ $ $ $ $ $ $ $ $ $ $ $ $ $ $ % .   ",
". . & $ $ * = = = = - $ $ $ $ $ $ $ $ $ $ $ $ $ $ $ $ $ $ $ $ $ $ $ $ $ $ $ $ $ $ $ $ $ ; .   ",
". . $ $ $ > . . . . , $ $ $ $ $ $ $ $ $ $ $ $ $ $ $ $ $ $ $ $ $ $ $ $ $ $ $ $ $ $ $ $ $ ' .   ",
". . $ $ $ ) ! ! ~ . { $ $ $ $ $ $ $ $ $ $ $ $ $ $ $ $ $ $ $ $ $ $ $ $ $ $ $ $ $ $ $ $ $ ' .   ",
". . $ $ $ $ $ $ ] ^ / $ $ $ $ $ $ $ $ $ $ $ $ $ $ $ $ $ $ $ $ $ $ $ $ $ $ $ $ $ $ $ $ $ ' .   ",
". . $ $ $ $ $ ( . _ $ $ $ $ $ : < [ } $ $ $ $ $ $ $ $ $ | 1 ~ 2 3 $ $ $ $ $ $ $ $ $ $ $ ' .   ",
". . $ $ $ $ $ = . 4 $ $ $ $ $ 5 . . . 6 $ $ $ $ $ $ $ $ 7 . . . 8 $ $ $ $ $ $ $ $ $ $ $ ' .   ",
". . $ $ $ $ $ 9 . 0 $ $ $ $ $ a . . . b $ $ $ $ $ $ $ $ c . . . 4 $ $ $ $ $ $ $ $ $ $ $ ' .   ",
". . $ $ $ $ $ d . e $ $ $ $ f 4 . . . g $ $ $ $ $ $ $ 3 h . . . @ $ $ $ $ $ $ $ $ $ $ $ ' .   ",
". . $ $ $ $ 3 i j k $ $ l m n o . . . p q r $ $ $ $ , s o . . . p t u $ $ $ $ $ $ $ $ $ ' .   ",
". . $ $ $ $ g . v $ $ $ w . . . . . . . . x $ $ $ y . . . . . . . . z # $ $ $ $ $ $ $ $ ' .   ",
". . $ $ $ $ A B C $ $ $ D . . . . . . . . E F $ $ G . . . . . . . . . : $ $ $ $ $ $ $ $ ' .   ",
". . $ $ $ $ H I J # $ $ K . . . E . . . . L $ $ $ M E . . E . . . . N $ $ $ $ $ $ $ $ $ ' .   ",
". . $ $ $ $ O . . P $ $ $ r Q R S . R 4 T U $ $ $ $ V > W > . X Y b Z $ $ $ $ $ $ $ $ $ ' .   ",
". . $ $ $ 6 ` . ^  .A $ $ $ $ ..o . +.3 $ $ | @.#.$ $ $ $.%.. &.*.$ $ $ $ $ $ $ $ $ $ $ ' .   ",
". . $ $ =.-.. . . . d $ $ $ F  .;.;.;.>.$ ,.'.. . ).$ ' !.;.;.;.~.$ $ $ $ $ $ $ $ $ $ $ ' .   ",
". . $ $ M '.. -.. . {.$ $ $ $ $ $ $ $ $ $ 9 . . . ].$ $ $ $ $ $ $ $ $ $ $ $ $ $ $ $ $ $ ' .   ",
". . $ $ $ ^.% ~ /.(./ $ $ $ $ $ $ $ $ $ $ _.. . . :.$ $ $ $ $ $ $ $ $ $ $ $ $ $ $ $ $ $ ' .   ",
". . $ $ $ $ <.T T [.$ $ $ $ $ $ $ $ $ }.|.1.. . . 2.3.[.$ $ $ $ $ $ $ $ $ $ $ $ $ $ $ $ ' .   ",
". . $ $ $ $ $ $ $ $ $ $ $ $ $ $ $ $ $ x . . . . . . . %.4.$ $ $ $ $ $ $ $ $ $ $ $ $ $ $ ' .   ",
". . $ $ $ $ $ $ $ $ $ $ $ $ $ $ $ $ * . . . . . . . . . 5.$ $ $ $ $ $ $ $ $ $ $ $ $ $ $ ' .   ",
". . $ $ $ $ $ $ $ $ $ $ $ $ $ $ $ $ 6.7.. . . . . . . . - $ $ $ $ $ $ $ $ $ $ $ $ $ $ $ ' .   ",
". . $ $ $ $ $ $ $ $ $ $ $ $ $ $ & Z $ 8.9.0.a.. b.c.d.e.$ k f.$ $ $ $ $ $ $ $ $ $ $ $ $ ' .   ",
". . $ $ $ $ $ $ $ $ $ $ $ $ $ g.h.^ i.f 3 f m . j.f }.$ k._ . {./ $ $ $ $ $ $ $ $ $ $ $ ' .   ",
". . $ $ $ $ $ $ $ $ $ $ $ $ $ I . . . l.$ |.m.m.m.n.f $ o.. . . p.$ $ $ $ $ $ $ $ $ $ $ ' .   ",
". . $ $ $ $ $ $ $ $ $ $ $ $ $ z . . . q.$ $ $ $ $ $ $ $ t . . . r.$ $ $ $ $ $ $ $ $ $ $ ' .   ",
". . $ $ $ $ $ $ $ $ $ $ $ $ s.t.. . . u.F $ $ $ $ $ $ #.r.. . . v.w.$ $ $ $ $ $ $ $ $ $ ' .   ",
". . $ $ $ $ $ $ $ $ $ $ F x.. . . . . . n y.$ $ $ z.A.. . . . . . o B.$ $ $ $ $ $ $ $ $ ' .   ",
". . $ $ $ $ $ $ $ $ $ $ 8.. . . . . . . . z # $ $ ~.. . . . . . . . n *.$ $ $ $ $ $ $ $ ' .   ",
". . $ $ $ $ $ $ $ $ $ $ C.. . . . . . . . n 4.$ $ y.. . . . . . . . E Z $ $ $ $ $ $ $ $ ' .   ",
". . $ $ $ $ $ $ $ $ $ $ M n . '.D.. E.. . 7 $ $ $ *.E.. -.F.. G.. . H.$ $ $ $ $ $ $ $ $ ' .   ",
". . $ $ $ $ $ $ $ $ $ $ $ 6.I.=.b.. J.5.r $ $ $ $ $ ; u.^.1.. 5.(.K.$ $ $ $ $ $ $ $ $ $ ' .   ",
". . $ $ $ $ $ $ $ $ $ $ $ $ k h . . L.: $ $ $ $ $ $ $ $ @.-.. E.M.$ $ $ $ $ $ $ $ $ $ $ ' .   ",
". . $ $ $ $ $ $ $ $ $ $ $ $ N.g g g g O.$ $ $ $ $ $ $ ' g g g g * $ $ $ $ $ $ $ $ $ $ $ ' .   ",
". . $ $ $ $ $ $ $ $ $ $ $ $ $ $ $ $ $ $ $ $ $ $ $ $ $ $ $ $ $ $ $ $ $ $ $ $ $ $ $ $ $ $ ' .   ",
". . $ $ $ $ $ $ $ $ $ $ $ $ $ $ $ $ $ $ $ $ $ $ $ $ $ $ $ $ $ $ $ $ $ $ $ $ $ $ $ $ $ $ ' .   ",
". . $ $ $ $ $ $ $ $ $ $ $ $ $ $ $ $ $ $ $ $ $ $ $ $ $ $ $ $ $ $ $ $ $ $ $ $ $ $ $ $ $ $ ' .   ",
". . $ $ $ $ $ $ $ $ $ $ $ $ $ $ $ $ $ $ $ $ $ $ $ $ $ $ $ $ $ $ $ $ $ $ $ # [.[.[.& $ $ ' .   ",
". . $ $ $ $ $ $ $ $ $ $ $ $ $ $ $ $ $ $ $ $ $ $ $ $ $ $ $ $ $ $ $ $ $ $ $ k 9 . ! & $ $ ' .   ",
". . $ $ $ $ $ $ $ $ $ $ $ $ $ $ $ $ $ $ $ $ $ $ $ $ $ $ $ $ $ $ $ $ $ $ P.Q.b.. c F.M.$ ' .   ",
". . $ $ $ $ $ $ $ $ $ $ $ $ F 8 R.R.R.P.$ $ $ $ $ $ $ ' (.R.R.R.S.$ $ $ r.. . . . . q.$ ' .   ",
". . $ $ $ $ $ $ $ $ $ $ $ $ $ T.-.. t U.$ $ $ $ $ $ $ $ R.o . ] Z $ $ $ * V.W.. X.Y.Z.$ ' .   ",
". . $ $ $ $ $ $ $ $ $ $ $ Z.3.r i.. ..`.R z.$ $ $ $ [.T <.4 .  +} X ; $ $ $ ~ . [ $ $ $ ' .   ",
". . $ $ $ $ $ $ $ $ $ $ : E . . X.. o . . .+$ $ $ / ++. . X.. i . . @+$ $ $ #+. #+$ $ $ ' .   ",
". . $ $ $ $ $ $ $ $ $ $ , . . . . . . . . o 6.$ $ v.. . . . . . . . ^ Z.$ $ # - # $ $ $ ' .   ",
". . $ $ $ $ $ $ $ $ $ $ 5.. . . . . . . . ~ k $ $ K.. . . . . . . . $+' $ $ k.{.2 $ $ $ ' .   ",
". . $ $ $ $ $ $ $ $ $ $ ; #+^ . . . . . m.@ $ $ $ k t.'.. . . . . 0.I.$ $ $ %+. ;.$ $ $ ' .   ",
". . $ $ $ $ $ $ $ $ $ $ $ $ f.&+. . . K.# $ $ $ $ $ $ [.*+. . . R 3 $ $ $ $ L . $.$ $ $ ' .   ",
". . $ $ $ $ $ $ $ $ $ $ $ $ $ E.. . . =+$ $ $ $ $ $ $ $ x.. . . > $ $ $ $ $ E.p ; $ $ $ ' .   ",
". . $ $ $ $ $ $ $ $ $ $ $ $ $ -+. . . J.$ $ $ $ $ $ $ $ ;+. . . 0 $ $ $ $ C . >+$ $ $ $ ' .   ",
". . $ $ $ $ $ $ $ $ $ $ $ $ $ ,+A.d.'+# $ $ $ $ $ $ $ $ )+Y.!+.+4.$ $ $ $ 5.. n.$ $ $ $ ' .   ",
". . $ $ $ $ $ $ $ $ $ $ $ $ $ $ $ ; $ $ $ $ $ $ $ $ $ $ $ $ ; $ $ $ $ $ $ '+. ~+$ $ $ $ ' .   ",
". . $ $ $ $ $ $ $ $ $ $ $ $ $ $ $ $ $ $ $ $ $ $ $ $ $ $ $ $ $ $ $ $ $ $ $ {+. : ' f $ $ ' .   ",
". . $ $ $ $ $ $ $ $ $ $ $ $ $ $ $ $ $ $ $ $ $ $ $ $ $ $ $ $ $ $ $ $ $ $ 6.-.. . . o $ $ ' .   ",
". . & $ $ $ $ $ $ $ $ $ $ $ $ $ $ $ $ $ $ $ $ $ $ $ $ $ $ $ $ $ $ $ $ $ k.]+]+]+]+>+$ $ ; .   ",
"  . { $ $ $ $ $ $ $ $ $ $ $ $ $ $ $ $ $ $ $ $ $ $ $ $ $ $ $ $ $ $ $ $ $ $ $ $ $ $ $ $ $ J..   ",
"  . {+{ # $ $ $ $ $ $ $ $ $ $ $ $ $ $ $ $ $ $ $ $ $ $ $ $ $ $ $ $ $ $ $ $ $ $ $ $ $ # { {+.   ",
"    . . . . . . . . . . . . . . . . . . . . . . . . . . . . . . . . . . . . . . . . . . .     ",
"        . . . . . . . . . . . . . . . . . . . . . . . . . . . . . . . . . . . . . . .         "};
