/* XPM */
static const char* clubs8_xpm[] = {
"47 62 213 2",
"  	c None",
". 	c #000000",
"+ 	c #2E2E2E",
"@ 	c #B2B2B2",
"# 	c #FCFCFC",
"$ 	c #FFFFFF",
"% 	c #B0B0B0",
"& 	c #2A2A2A",
"* 	c #B9B9B9",
"= 	c #FEFEFE",
"- 	c #F9F9F9",
"; 	c #B1B1B1",
"> 	c #AFAFAF",
", 	c #DCDCDC",
"' 	c #FDFDFD",
") 	c #4E4E4E",
"! 	c #151515",
"~ 	c #D2D2D2",
"{ 	c #383838",
"] 	c #777777",
"^ 	c #656565",
"/ 	c #515151",
"( 	c #D8D8D8",
"_ 	c #4F4F4F",
": 	c #434343",
"< 	c #8F8F8F",
"[ 	c #797979",
"} 	c #BEBEBE",
"| 	c #363636",
"1 	c #ACACAC",
"2 	c #CACACA",
"3 	c #4D4D4D",
"4 	c #2F2F2F",
"5 	c #9E9E9E",
"6 	c #E2E2E2",
"7 	c #060606",
"8 	c #888888",
"9 	c #1B1B1B",
"0 	c #0A0A0A",
"a 	c #F1F1F1",
"b 	c #303030",
"c 	c #010101",
"d 	c #DEDEDE",
"e 	c #4A4A4A",
"f 	c #9F9F9F",
"g 	c #878787",
"h 	c #D1D1D1",
"i 	c #B8B8B8",
"j 	c #E9E9E9",
"k 	c #999999",
"l 	c #F7F7F7",
"m 	c #232323",
"n 	c #0F0F0F",
"o 	c #F3F3F3",
"p 	c #F8F8F8",
"q 	c #3E3E3E",
"r 	c #040404",
"s 	c #E3E3E3",
"t 	c #B3B3B3",
"u 	c #676767",
"v 	c #575757",
"w 	c #535353",
"x 	c #E1E1E1",
"y 	c #505050",
"z 	c #030303",
"A 	c #070707",
"B 	c #585858",
"C 	c #EFEFEF",
"D 	c #5C5C5C",
"E 	c #050505",
"F 	c #020202",
"G 	c #D5D5D5",
"H 	c #5B5B5B",
"I 	c #1C1C1C",
"J 	c #DBDBDB",
"K 	c #727272",
"L 	c #6F6F6F",
"M 	c #8E8E8E",
"N 	c #C1C1C1",
"O 	c #BFBFBF",
"P 	c #E5E5E5",
"Q 	c #3B3B3B",
"R 	c #343434",
"S 	c #545454",
"T 	c #1A1A1A",
"U 	c #CECECE",
"V 	c #3A3A3A",
"W 	c #696969",
"X 	c #939393",
"Y 	c #717171",
"Z 	c #636363",
"` 	c #FBFBFB",
" .	c #A8A8A8",
"..	c #5D5D5D",
"+.	c #131313",
"@.	c #555555",
"#.	c #A0A0A0",
"$.	c #B4B4B4",
"%.	c #B5B5B5",
"&.	c #595959",
"*.	c #929292",
"=.	c #BABABA",
"-.	c #ECECEC",
";.	c #808080",
">.	c #D0D0D0",
",.	c #8B8B8B",
"'.	c #626262",
").	c #4B4B4B",
"!.	c #9D9D9D",
"~.	c #C6C6C6",
"{.	c #353535",
"].	c #191919",
"^.	c #5E5E5E",
"/.	c #AAAAAA",
"(.	c #828282",
"_.	c #848484",
":.	c #EBEBEB",
"<.	c #737373",
"[.	c #474747",
"}.	c #969696",
"|.	c #F4F4F4",
"1.	c #EEEEEE",
"2.	c #090909",
"3.	c #3C3C3C",
"4.	c #979797",
"5.	c #D9D9D9",
"6.	c #C4C4C4",
"7.	c #0E0E0E",
"8.	c #EDEDED",
"9.	c #101010",
"0.	c #161616",
"a.	c #080808",
"b.	c #757575",
"c.	c #F2F2F2",
"d.	c #6E6E6E",
"e.	c #606060",
"f.	c #0C0C0C",
"g.	c #616161",
"h.	c #1F1F1F",
"i.	c #202020",
"j.	c #9A9A9A",
"k.	c #DADADA",
"l.	c #A3A3A3",
"m.	c #BCBCBC",
"n.	c #292929",
"o.	c #C0C0C0",
"p.	c #404040",
"q.	c #B6B6B6",
"r.	c #F6F6F6",
"s.	c #C7C7C7",
"t.	c #171717",
"u.	c #5A5A5A",
"v.	c #747474",
"w.	c #3D3D3D",
"x.	c #484848",
"y.	c #262626",
"z.	c #111111",
"A.	c #0B0B0B",
"B.	c #ADADAD",
"C.	c #919191",
"D.	c #E0E0E0",
"E.	c #E8E8E8",
"F.	c #DDDDDD",
"G.	c #959595",
"H.	c #CFCFCF",
"I.	c #D3D3D3",
"J.	c #9C9C9C",
"K.	c #1D1D1D",
"L.	c #464646",
"M.	c #E4E4E4",
"N.	c #989898",
"O.	c #565656",
"P.	c #A6A6A6",
"Q.	c #373737",
"R.	c #E7E7E7",
"S.	c #C3C3C3",
"T.	c #6C6C6C",
"U.	c #BDBDBD",
"V.	c #D6D6D6",
"W.	c #A7A7A7",
"X.	c #838383",
"Y.	c #646464",
"Z.	c #C8C8C8",
"`.	c #313131",
" +	c #E6E6E6",
".+	c #7D7D7D",
"++	c #121212",
"@+	c #0D0D0D",
"#+	c #D4D4D4",
"$+	c #252525",
"%+	c #A1A1A1",
"&+	c #7E7E7E",
"*+	c #444444",
"=+	c #393939",
"-+	c #666666",
";+	c #818181",
">+	c #3F3F3F",
",+	c #D7D7D7",
"'+	c #2B2B2B",
")+	c #C5C5C5",
"!+	c #898989",
"~+	c #525252",
"{+	c #BBBBBB",
"]+	c #EAEAEA",
"^+	c #7A7A7A",
"/+	c #242424",
"(+	c #6A6A6A",
"_+	c #212121",
":+	c #909090",
"<+	c #C9C9C9",
"[+	c #767676",
"}+	c #7F7F7F",
"|+	c #B7B7B7",
"        . . . . . . . . . . . . . . . . . . . . . . . . . . . . . . . . . . . . . . .         ",
"    . . . . . . . . . . . . . . . . . . . . . . . . . . . . . . . . . . . . . . . . . . .     ",
"  . + @ # $ $ $ $ $ $ $ $ $ $ $ $ $ $ $ $ $ $ $ $ $ $ $ $ $ $ $ $ $ $ $ $ $ $ $ $ $ # % & .   ",
"  . * $ $ $ $ $ $ $ $ $ $ $ $ $ $ $ $ $ $ $ $ $ $ $ $ $ $ $ $ $ $ $ $ $ $ $ $ $ $ $ $ $ @ .   ",
". . = $ $ - ; > > , $ $ $ $ $ $ $ $ $ $ $ $ $ $ $ $ $ $ $ $ $ $ $ $ $ $ $ $ $ $ $ $ $ $ ' . . ",
". . $ $ - ) . . . ! ~ $ $ $ $ $ $ $ $ $ $ $ $ $ $ $ $ $ $ $ $ $ $ $ $ $ $ $ $ $ $ $ $ $ $ . . ",
". . $ $ ; . { ] ^ . / $ $ $ $ $ $ $ $ $ $ $ $ $ $ $ $ $ $ $ $ $ $ $ $ $ $ $ $ $ $ $ $ $ $ . . ",
". . $ $ % . ] $ ( . _ $ $ $ $ $ $ $ $ $ $ $ $ $ $ $ $ $ $ $ $ $ $ $ $ $ $ $ $ $ $ $ $ $ $ . . ",
". . $ $ % . : < [ . _ $ $ $ $ } : | 1 $ $ $ $ $ $ $ $ $ 2 3 4 5 $ $ $ $ $ $ $ $ $ $ $ $ $ . . ",
". . $ $ 6 7 . . . . 8 $ $ $ # 9 . . 0 a $ $ $ $ $ $ $ $ b . . c d $ $ $ $ $ $ $ $ $ $ $ $ . . ",
". . $ $ % . e f g . _ $ $ $ h . . . . i $ $ $ $ $ $ $ j . . . . k $ $ $ $ $ $ $ $ $ $ $ $ . . ",
". . $ $ % . ] $ ( . _ $ $ $ l m . . n o $ $ $ $ $ $ $ p q . . r s $ $ $ $ $ $ $ $ $ $ $ $ . . ",
". . $ $ t . b u v . w $ x y z A . . r 7 B s $ $ $ C D E A . . F r e G $ $ $ $ $ $ $ $ $ $ . . ",
". . $ $ # H . . . I J $ K . . . . . . . . L $ $ $ M . . . . . . . . w $ $ $ $ $ $ $ $ $ $ . . ",
". . $ $ $ # N O O P $ $ Q . . . . . . . . R $ $ $ S . . . . . . . . T $ $ $ $ $ $ $ $ $ $ . . ",
". . $ $ $ $ U V W $ $ $ X . . . z . . . . M $ $ $ % . . . z . . . . Y $ $ $ $ $ $ $ $ $ $ . . ",
". . $ $ $ $ Z . . ~ $ $ `  ...} T +.t @.#.- $ $ $ = $...%.4 E $.&.*.o $ $ $ $ $ $ $ $ $ $ . . ",
". . $ $ $ =.3 . r *.-.$ $ $ $ [ . . ;.$ $ $ >.,.x $ $ $ *.. . '.= $ $ $ $ $ $ $ $ $ $ $ $ . . ",
". . $ $ h . . . . . ).$ $ $ G g g g g G $ !.. . z 2 $ s 8 g g g ~.$ $ $ $ $ $ $ $ $ $ $ $ . . ",
". . $ $ ( c . F . . _ $ $ $ $ $ $ $ $ $ $ {.. . . ^ $ $ $ $ $ $ $ $ $ $ $ $ $ $ $ $ $ $ $ . . ",
". . $ $ $ h @ ].^./.a $ $ $ $ $ $ $ $ $ $ S . . . (.$ $ $ $ $ $ $ $ $ $ $ $ $ $ $ $ $ $ $ . . ",
". . $ $ $ $ ; _.g :.$ $ $ $ $ $ $ $ $ d <.[.. . . S }.|.$ $ $ $ $ $ $ $ $ $ $ $ $ $ $ $ $ . . ",
". . $ $ $ $ $ $ $ $ $ $ $ $ $ $ $ $ 1.2.. . . . . . . 3.$ $ $ $ $ $ $ $ $ $ $ $ $ $ $ $ $ . . ",
". . $ $ $ $ $ $ $ $ $ $ $ $ $ $ $ $ 4.. . . . . . . . . 5.$ $ $ $ $ $ $ $ $ $ $ $ $ $ $ $ . . ",
". . $ $ $ $ $ $ $ $ $ $ $ $ $ $ $ $ 6.. . . . . . . . 7.|.$ $ $ $ $ $ $ $ $ $ $ $ $ $ $ $ . . ",
". . $ $ $ $ $ $ $ $ $ $ $ $ $ $ |.8.$ W 2.4 e . @.9.0.k $ p j $ $ $ $ $ $ $ $ $ $ $ $ $ $ . . ",
". . $ $ $ $ $ $ $ $ $ $ $ $ $ M n a.b.$ c.- V . d.o p $ #.! E e.$ $ $ $ $ $ $ $ $ $ $ $ $ . . ",
". . $ $ $ $ $ $ $ $ $ $ $ $ c.f.. . F x - g.h.h.i.j.$ ` T . . . ~.$ $ $ $ $ $ $ $ $ $ $ $ . . ",
". . $ $ $ $ $ $ $ $ $ $ $ $ k.. . . . N $ $ $ $ $ $ $ 8.7 . . . l.$ $ $ $ $ $ $ $ $ $ $ $ . . ",
". . $ $ $ $ $ $ $ $ $ $ $ - m.n.. . +.o.` $ $ $ $ $ # } p.. . A q.r.$ $ $ $ $ $ $ $ $ $ $ . . ",
". . $ $ $ $ $ $ $ $ $ $ s.t.. . . . . . I 2 $ $ $ , i.. . . . . . +.t $ $ $ $ $ $ $ $ $ $ . . ",
". . $ $ $ $ $ $ $ $ $ $ u.. . . . . . . . B $ $ $ v.. . . . . . . . w.$ $ $ $ $ $ $ $ $ $ . . ",
". . $ $ $ $ $ $ $ $ $ $ x.. . . . . . . . p.$ $ $ '.. . . . . . . . y.$ $ $ $ $ $ $ $ $ $ . . ",
". . $ $ $ $ $ $ $ $ $ $ > F . n z.A.0 . F B.$ $ $ 2 7 . 0 0.E z.. . C.$ $ $ $ $ $ $ $ $ $ . . ",
". . $ $ $ $ $ $ $ $ $ $ $ D.!.E.f.a.F.G.( H.H.H.H.I.j J.j K.. H.k h $ $ $ $ $ $ $ $ $ $ $ . . ",
". . $ $ $ $ $ $ $ $ $ $ $ $ a L.. . ).o $ g c . n ~.$ - &.. . {.j $ $ $ $ $ $ $ $ $ $ $ $ . . ",
". . $ $ $ $ $ $ $ $ $ $ $ $ M.s.s.s.s.d B.J H . N.$.} :.s.s.s.s.J $ $ $ $ $ $ $ $ $ $ $ $ . . ",
". . $ $ $ $ $ $ $ $ $ $ $ $ $ $ $ $ p m . z m . I . . O.$ $ $ $ $ $ $ $ $ $ $ $ $ $ $ $ $ . . ",
". . $ $ $ $ $ $ $ $ $ $ $ $ $ $ $ $ P.. . . . . . . . F 6 $ $ $ $ $ $ $ $ $ $ $ $ $ $ $ $ . . ",
". . $ $ $ $ $ $ $ $ $ $ $ $ $ $ $ $ ; . . . . . . . . A :.$ $ $ $ $ $ $ $ $ $ $ $ $ $ $ $ . . ",
". . $ $ $ $ $ $ $ $ $ $ $ $ $ $ $ $ # Q.. . . . . . r [ $ $ $ $ $ $ $ $ $ ` R.R.R.' $ $ $ . . ",
". . $ $ $ $ $ $ $ $ $ $ $ $ $ $ $ $ $ $ S.T.. . . g 6 $ $ $ $ $ $ $ $ $ $ ' W . ;.' $ $ $ . . ",
". . $ $ $ $ $ $ $ $ $ $ $ $ $ $ $ $ $ $ $ | . . . ^ $ $ $ $ $ $ $ $ $ $ U.9 3.c & i.V.$ $ . . ",
". . $ $ $ $ $ $ $ $ $ $ $ $ k.W.W.W.W.5.$ w . . . X.$ M.W.W.W.W.U $ $ $ Z . . . . . ,.$ $ . . ",
". . $ $ $ $ $ $ $ $ $ $ $ $ - D . . Y.# $ Z.h.. `. +$ = <.. . e r.$ $ $ 2 `.f.. n L.M.$ $ . . ",
". . $ $ $ $ $ $ $ $ $ $ $ Z..+( ++@+U b.o.$ # #+$ $ I..+I.$+F Z.[ @ ' $ $ $ I . R $ $ $ $ . . ",
". . $ $ $ $ $ $ $ $ $ $ %+. . z A.E c . . J.$ $ $ } . . c @+z r . . &+$ $ $ *+. v $ $ $ $ . . ",
". . $ $ $ $ $ $ $ $ $ $ p.. . . . . . . . =+$ $ $ u.. . . . . . . . i.$ $ $ ` 2 ' $ $ $ $ . . ",
". . $ $ $ $ $ $ $ $ $ $ -+. . . . . . . . '.$ $ $ ;+. . . . . . . . [.$ $ s.p.>+>+X.$ $ $ . . ",
". . $ $ $ $ $ $ $ $ $ $ G b . . . . . . { ,+$ $ $  +3.. . . . . . '+)+$ V.7.. . . . !+$ $ . . ",
". . $ $ $ $ $ $ $ $ $ $ $ $ , & . . +.F.$ $ $ $ $ $ $ d *+. . A H.$ $ $ B.. d.R.N . ~+$ $ . . ",
". . $ $ $ $ $ $ $ $ $ $ $ $ #+. . . . {+$ $ $ $ $ $ $ ]+F . . . J.$ $ $ B.. ^+$ G . ~+$ $ . . ",
". . $ $ $ $ $ $ $ $ $ $ $ $ p +.. . E ]+$ $ $ $ $ $ $ = /+. . . ~ $ $ $ 6.c n h.T . (+$ $ . . ",
". . $ $ $ $ $ $ $ $ $ $ $ $ $ P._+t.:+$ $ $ $ $ $ $ $ $ %.n.z.&+$ $ $ $ <+z A n @+. Y $ $ . . ",
". . $ $ $ $ $ $ $ $ $ $ $ $ $ $ ' - $ $ $ $ $ $ $ $ $ $ $ $ l $ $ $ $ $ B.. ^+$ G . ~+$ $ . . ",
". . $ $ $ $ $ $ $ $ $ $ $ $ $ $ $ $ $ $ $ $ $ $ $ $ $ $ $ $ $ $ $ $ $ $ B.. [+l H.. ~+$ $ . . ",
". . $ $ $ $ $ $ $ $ $ $ $ $ $ $ $ $ $ $ $ $ $ $ $ $ $ $ $ $ $ $ $ $ $ $ h 2.. . . . }+$ $ . . ",
". . = $ $ $ $ $ $ $ $ $ $ $ $ $ $ $ $ $ $ $ $ $ $ $ $ $ $ $ $ $ $ $ $ $ $ m.b 4 4 <.$ $ ' . . ",
"  . |+$ $ $ $ $ $ $ $ $ $ $ $ $ $ $ $ $ $ $ $ $ $ $ $ $ $ $ $ $ $ $ $ $ $ $ $ $ $ $ $ $ $..   ",
"  . + $.# $ $ $ $ $ $ $ $ $ $ $ $ $ $ $ $ $ $ $ $ $ $ $ $ $ $ $ $ $ $ $ $ $ $ $ $ $ # $.+ .   ",
"    . . . . . . . . . . . . . . . . . . . . . . . . . . . . . . . . . . . . . . . . . . .     ",
"        . . . . . . . . . . . . . . . . . . . . . . . . . . . . . . . . . . . . . . .         "};
