/* XPM */
static const char* clubs9_xpm[] = {
"47 62 209 2",
"  	c None",
". 	c #000000",
"+ 	c #2A2A2A",
"@ 	c #B0B0B0",
"# 	c #FCFCFC",
"$ 	c #FFFFFF",
"% 	c #B2B2B2",
"& 	c #FDFDFD",
"* 	c #FAFAFA",
"= 	c #B1B1B1",
"- 	c #AFAFAF",
"; 	c #DBDBDB",
"> 	c #515151",
", 	c #131313",
"' 	c #D0D0D0",
") 	c #B4B4B4",
"! 	c #363636",
"~ 	c #777777",
"{ 	c #676767",
"] 	c #4D4D4D",
"^ 	c #B3B3B3",
"/ 	c #747474",
"( 	c #4C4C4C",
"_ 	c #F3F3F3",
": 	c #848484",
"< 	c #454545",
"[ 	c #A6A6A6",
"} 	c #BFBFBF",
"| 	c #4E4E4E",
"1 	c #717171",
"2 	c #E4E4E4",
"3 	c #414141",
"4 	c #8F8F8F",
"5 	c #7B7B7B",
"6 	c #888888",
"7 	c #D4D4D4",
"8 	c #0D0D0D",
"9 	c #5C5C5C",
"0 	c #F4F4F4",
"a 	c #3F3F3F",
"b 	c #424242",
"c 	c #909090",
"d 	c #BABABA",
"e 	c #181818",
"f 	c #999999",
"g 	c #979797",
"h 	c #828282",
"i 	c #F1F1F1",
"j 	c #010101",
"k 	c #C7C7C7",
"l 	c #121212",
"m 	c #5E5E5E",
"n 	c #F2F2F2",
"o 	c #818181",
"p 	c #0B0B0B",
"q 	c #2F2F2F",
"r 	c #CFCFCF",
"s 	c #D6D6D6",
"t 	c #2E2E2E",
"u 	c #7A7A7A",
"v 	c #B6B6B6",
"w 	c #595959",
"x 	c #4F4F4F",
"y 	c #EBEBEB",
"z 	c #060606",
"A 	c #565656",
"B 	c #6A6A6A",
"C 	c #DCDCDC",
"D 	c #1A1A1A",
"E 	c #D9D9D9",
"F 	c #DFDFDF",
"G 	c #CACACA",
"H 	c #C1C1C1",
"I 	c #E5E5E5",
"J 	c #5D5D5D",
"K 	c #080808",
"L 	c #282828",
"M 	c #212121",
"N 	c #090909",
"O 	c #C5C5C5",
"P 	c #101010",
"Q 	c #1B1B1B",
"R 	c #070707",
"S 	c #444444",
"T 	c #5A5A5A",
"U 	c #E7E7E7",
"V 	c #838383",
"W 	c #EDEDED",
"X 	c #F5F5F5",
"Y 	c #C3C3C3",
"Z 	c #171717",
"` 	c #C6C6C6",
" .	c #6E6E6E",
"..	c #151515",
"+.	c #CBCBCB",
"@.	c #1C1C1C",
"#.	c #646464",
"$.	c #F8F8F8",
"%.	c #C4C4C4",
"&.	c #858585",
"*.	c #E6E6E6",
"=.	c #040404",
"-.	c #333333",
";.	c #EAEAEA",
">.	c #020202",
",.	c #373737",
"'.	c #ECECEC",
").	c #EEEEEE",
"!.	c #A9A9A9",
"~.	c #D8D8D8",
"{.	c #313131",
"].	c #545454",
"^.	c #797979",
"/.	c #202020",
"(.	c #BBBBBB",
"_.	c #BCBCBC",
":.	c #666666",
"<.	c #3B3B3B",
"[.	c #525252",
"}.	c #A0A0A0",
"|.	c #868686",
"1.	c #8A8A8A",
"2.	c #A5A5A5",
"3.	c #F9F9F9",
"4.	c #A1A1A1",
"5.	c #2B2B2B",
"6.	c #FEFEFE",
"7.	c #D7D7D7",
"8.	c #3A3A3A",
"9.	c #6B6B6B",
"0.	c #B8B8B8",
"a.	c #C2C2C2",
"b.	c #0E0E0E",
"c.	c #636363",
"d.	c #050505",
"e.	c #2C2C2C",
"f.	c #474747",
"g.	c #191919",
"h.	c #DDDDDD",
"i.	c #727272",
"j.	c #616161",
"k.	c #1F1F1F",
"l.	c #7C7C7C",
"m.	c #1E1E1E",
"n.	c #272727",
"o.	c #B5B5B5",
"p.	c #A3A3A3",
"q.	c #5F5F5F",
"r.	c #606060",
"s.	c #C0C0C0",
"t.	c #0C0C0C",
"u.	c #434343",
"v.	c #C8C8C8",
"w.	c #808080",
"x.	c #303030",
"y.	c #CDCDCD",
"z.	c #0F0F0F",
"A.	c #E3E3E3",
"B.	c #CECECE",
"C.	c #CCCCCC",
"D.	c #C9C9C9",
"E.	c #9D9D9D",
"F.	c #E8E8E8",
"G.	c #A7A7A7",
"H.	c #BEBEBE",
"I.	c #929292",
"J.	c #949494",
"K.	c #8C8C8C",
"L.	c #ADADAD",
"M.	c #E9E9E9",
"N.	c #E2E2E2",
"O.	c #0A0A0A",
"P.	c #343434",
"Q.	c #F7F7F7",
"R.	c #111111",
"S.	c #707070",
"T.	c #EFEFEF",
"U.	c #3C3C3C",
"V.	c #6F6F6F",
"W.	c #222222",
"X.	c #939393",
"Y.	c #A2A2A2",
"Z.	c #757575",
"`.	c #7D7D7D",
" +	c #E1E1E1",
".+	c #8E8E8E",
"++	c #292929",
"@+	c #737373",
"#+	c #404040",
"$+	c #353535",
"%+	c #1D1D1D",
"&+	c #3E3E3E",
"*+	c #030303",
"=+	c #535353",
"-+	c #252525",
";+	c #FBFBFB",
">+	c #505050",
",+	c #686868",
"'+	c #484848",
")+	c #8B8B8B",
"!+	c #ABABAB",
"~+	c #D5D5D5",
"{+	c #F6F6F6",
"]+	c #7F7F7F",
"^+	c #AAAAAA",
"/+	c #464646",
"(+	c #959595",
"_+	c #D3D3D3",
":+	c #787878",
"        . . . . . . . . . . . . . . . . . . . . . . . . . . . . . . . . . . . . . . .         ",
"    . . . . . . . . . . . . . . . . . . . . . . . . . . . . . . . . . . . . . . . . . . .     ",
"  . + @ # $ $ $ $ $ $ $ $ $ $ $ $ $ $ $ $ $ $ $ $ $ $ $ $ $ $ $ $ $ $ $ $ $ $ $ $ $ # @ + .   ",
"  . % $ $ $ $ $ $ $ $ $ $ $ $ $ $ $ $ $ $ $ $ $ $ $ $ $ $ $ $ $ $ $ $ $ $ $ $ $ $ $ $ $ % .   ",
". . & $ $ * = - - ; $ $ $ $ $ $ $ $ $ $ $ $ $ $ $ $ $ $ $ $ $ $ $ $ $ $ $ $ $ $ $ $ $ $ & . . ",
". . $ $ * > . . . , ' $ $ $ $ $ $ $ $ $ $ $ $ $ $ $ $ $ $ $ $ $ $ $ $ $ $ $ $ $ $ $ $ $ $ . . ",
". . $ $ ) . ! ~ { . ] $ $ $ $ $ $ $ $ $ $ $ $ $ $ $ $ $ $ $ $ $ $ $ $ $ $ $ $ $ $ $ $ $ $ . . ",
". . $ $ ^ . / $ ; . ( $ $ $ _ : < [ $ $ $ $ $ $ $ $ $ $ $ } | 1 2 $ $ $ $ $ $ $ $ $ $ $ $ . . ",
". . $ $ ^ . 3 4 5 . ( $ $ $ 6 . . . 7 $ $ $ $ $ $ $ $ $ _ 8 . . 9 $ $ $ $ $ $ $ $ $ $ $ $ . . ",
". . $ $ 0 a . . . . ( $ $ $ b . . . c $ $ $ $ $ $ $ $ $ d . . . e $ $ $ $ $ $ $ $ $ $ $ $ . . ",
". . $ $ $ 0 f g h . ( $ $ i : . . j k $ $ $ $ $ $ $ $ $ ; l . . m n $ $ $ $ $ $ $ $ $ $ $ . . ",
". . $ $ ^ . / $ ; . ( $ o p . . . . . q r $ $ $ $ $ s t . . . . . p u $ $ $ $ $ $ $ $ $ $ . . ",
". . $ $ v . q { w . x y z . . . . . . . A $ $ $ $ $ B . . . . . . . j C $ $ $ $ $ $ $ $ $ . . ",
". . $ $ & m . . . D E F j . . . . . . . b $ $ $ $ $ w . . . . . . . . G $ $ $ $ $ $ $ $ $ . . ",
". . $ $ $ & H } } I $ $ J . K L . M . N ^ $ $ $ $ $ O P . q j Q R . S $ $ $ $ $ $ $ $ $ $ . . ",
". . $ $ $ $ ; 3 T * $ $ $ 7 U ( . V H W $ $ $ $ $ $ $ X k Y . Z C ` $ $ $ $ $ $ $ $ $ $ $ . . ",
". . $ $ $ $ 5 . . d $ $ $ &  .R R ..Y $ $ $ $ $ $ $ $ $ +.@.R R #.$.$ $ $ $ $ $ $ $ $ $ $ . . ",
". . $ $ $ %.T . . &.*.$ $ $ $ $ $ $ $ $ $ $ $ $ $ $ $ $ $ $ $ $ $ $ $ $ $ $ $ $ $ $ $ $ $ . . ",
". . $ $ I =.. . . . -.$ $ $ $ $ $ $ $ $ $ $ $ $ $ $ $ $ $ $ $ $ $ $ $ $ $ $ $ $ $ $ $ $ $ . . ",
". . $ $ ;.R . >.. . ,.$ $ $ $ $ '.$ $ $ $ $ $ $ $ $ $ $ $ $ ).# $ $ $ $ $ $ $ $ $ $ $ $ $ . . ",
". . $ $ $ E = + ( !.y $ $ $ ~.{.>.].# $ $ $ $ $ $ $ $ $ $ ^.K /.(.$ $ $ $ $ $ $ $ $ $ $ $ . . ",
". . $ $ $ $ _.: V 2 $ $ $ $ :.. . . ^ $ $ $ $ $ $ $ $ $ C j . . <.$ $ $ $ $ $ $ $ $ $ $ $ . . ",
". . $ $ $ $ $ $ $ $ $ $ $ $ [.. . . }.$ $ $ $ $ $ $ $ $ G . . . L $ $ $ $ $ $ $ $ $ $ $ $ . . ",
". . $ $ $ $ $ $ $ $ $ $ * [ 9 . . j |.s $ $ $ $ $ $ $ ~.1.l . . < 2.3.$ $ $ $ $ $ $ $ $ $ . . ",
". . $ $ $ $ $ $ $ $ $ $ <.. . . . . . . 4.$ $ $ $ $ = j . . . . . . 5.6.$ $ $ $ $ $ $ $ $ . . ",
". . $ $ $ $ $ $ $ $ $ 7.. . . . . . . . 8.$ H 9.0.6.x . . . . . . . . a.$ $ $ $ $ $ $ $ $ . . ",
". . $ $ $ $ $ $ $ $ $ X b.. . . . . . . c.k . . . % 5 . . . . . . . d.*.$ $ $ $ $ $ $ $ $ . . ",
". . $ $ $ $ $ $ $ $ $ $ !.e.f.| . J g.x h.i.. . . j.U m k.l.j t f.m.g $ $ $ $ $ $ $ $ $ $ . . ",
". . $ $ $ $ $ $ $ $ $ $ $ $ ;.n.. ].$ $ $ o.. . . p.$ $ $ 1.. =.~.$ $ $ $ $ $ $ $ $ $ $ $ . . ",
". . $ $ $ $ $ $ $ $ $ $ $ & V q.q.r.Y s.,.8 . . . t.u.v.+.r.q.q.w.$.$ $ $ $ $ $ $ $ $ $ $ . . ",
". . $ $ $ $ $ $ $ $ $ $ $ $ $ $ $ $ $ x.. . . . . . . ,.$ $ $ $ $ $ $ $ $ $ $ $ $ $ $ $ $ . . ",
". . $ $ $ $ $ $ $ $ $ $ $ $ $ $ $ $ * b.. . . . . . . b.* $ $ $ $ $ $ $ $ $ $ $ $ $ $ $ $ . . ",
". . $ $ $ $ $ $ $ $ $ $ $ & r y.+.G ; 1 . . g.. z.. . 1 A.B.C.G D.$.$ $ $ $ $ $ $ $ $ $ $ . . ",
". . $ $ $ $ $ $ $ $ $ $ $ $ E.d.. M F.$ a.) 1.. c.G.H.$ U -.. . I.$ $ $ $ $ $ $ $ $ $ $ $ . . ",
". . $ $ $ $ $ $ $ $ $ $ n J.% c.. K.h (.$ L.N . =.} $ ` 6 ` . e.@ 6 '.$ $ $ $ $ $ $ $ $ $ . . ",
". . $ $ $ $ $ $ $ $ $ $ t . . 8 . z . . I.M.I 2 N.A.2.. . O.>.z . . m.# $ $ $ $ $ $ $ $ $ . . ",
". . $ $ $ $ $ $ $ $ $ 7 . . . . . . . . P.$ $ $ $ $ ( . . . . . . . . _.$ $ $ $ $ $ $ $ $ . . ",
". . $ $ $ $ $ $ $ $ $ Q.R.. . . . . . . S.$ $ $ $ $ o . . . . . . . N T.$ $ $ $ $ $ $ $ $ . . ",
". . $ $ $ $ $ $ $ $ $ $ o.U.m.. . j n.V.M.$ $ $ $ $ '. .W.p . . Z U.% $ $ $ $ $ $ $ $ $ $ . . ",
". . $ $ $ $ $ $ $ $ $ $ $ $ l.. . . G $ $ $ $ $ $ $ $ $ W R . . [.$ $ $ $ $ $ $ $ $ $ $ $ . . ",
". . $ $ $ $ $ $ $ $ $ $ $ $ S . . . X.$ $ $ $ $ $ $ $ $ _.. . . Q $ $ $ $ # U U U # $ $ $ . . ",
". . $ $ $ $ $ $ $ $ $ $ $ $ Y.. . d.U $ $ $ $ $ $ $ $ $ # m.. . Z.$ $ $ $ 6.`.. V.& $ $ $ . . ",
". . $ $ $ $ $ $ $ $ $ $ $ $ $ %.&. +$ $ $ $ $ $ $ $ $ $ $ W .+= & $ $ $ D.k.3 . ++Q +.$ $ . . ",
". . $ $ $ $ $ $ $ $ $ $ $ $ $ $ $ $ $ $ $ $ $ $ $ $ $ $ $ $ $ $ $ $ $ $ @+. . . . . 5 $ $ . . ",
". . $ $ $ $ $ $ $ $ $ $ $ $ $ $ $ $ $ $ $ $ $ $ $ $ $ $ $ $ $ $ $ $ $ $ 7 ! b.. 8 #+; $ $ . . ",
". . $ $ $ $ $ $ $ $ $ $ $ & @+q q $+Y $ $ $ $ $ $ $ $ $ +.! q q V.$.$ $ $ $ e.. k.$ $ $ $ . . ",
". . $ $ $ $ $ $ $ $ $ $ $ i X 8..  .*.& $ $ $ $ $ $ $ $ '.L.. t.2 M.$ $ $ $ ].. S $ $ $ $ . . ",
". . $ $ $ $ $ $ $ $ $ $ o p %+8.. &+>.M k $ $ $ $ $ s t *+=+j -+@.d.9.$ $ $ & G ;+$ $ $ $ . . ",
". . $ $ $ $ $ $ $ $ $ ;.d.. . . . . . . >+$ $ $ $ $ ,+. . . . . . . . 7.$ O #+a a &.$ $ $ . . ",
". . $ $ $ $ $ $ $ $ $  +>.. . . . . . . '+$ $ $ $ $ 9 . . . . . . . . ' 7 8 . . . . )+$ $ . . ",
". . $ $ $ $ $ $ $ $ $ $ c.. . . . . . R._.$ $ $ $ $ v., . . . . . . ].$ !+. 1 U } . ].$ $ . . ",
". . $ $ $ $ $ $ $ $ $ $ $ ~+@+. . j !+X $ $ $ $ $ $ $ {+0.l . . ].7 $ $ !+. l.$ M.]+^+$ $ . . ",
". . $ $ $ $ $ $ $ $ $ $ $ $ /+. . . (+$ $ $ $ $ $ $ $ $ H.. . . %+$ $ $ !+. p Z Z J # $ $ . . ",
". . $ $ $ $ $ $ $ $ $ $ $ $ u . . . ` $ $ $ $ $ $ $ $ $ y R . . | $ $ $ !+. R z.8 . / $ $ . . ",
". . $ $ $ $ $ $ $ $ $ $ $ $ M.r.k.: $ $ $ $ $ $ $ $ $ $ $ p.n.] ~+$ $ $ !+. l.$ _+. ].$ $ . . ",
". . $ $ $ $ $ $ $ $ $ $ $ $ $ $ $ $ $ $ $ $ $ $ $ $ $ $ $ $ $ $ $ $ $ $ !+. :+Q.C.. ].$ $ . . ",
". . $ $ $ $ $ $ $ $ $ $ $ $ $ $ $ $ $ $ $ $ $ $ $ $ $ $ $ $ $ $ $ $ $ $ r K . . . . o $ $ . . ",
". . & $ $ $ $ $ $ $ $ $ $ $ $ $ $ $ $ $ $ $ $ $ $ $ $ $ $ $ $ $ $ $ $ $ $ d x.q q Z.$ $ & . . ",
"  . ) $ $ $ $ $ $ $ $ $ $ $ $ $ $ $ $ $ $ $ $ $ $ $ $ $ $ $ $ $ $ $ $ $ $ $ $ $ $ $ $ $ ) .   ",
"  . t ) # $ $ $ $ $ $ $ $ $ $ $ $ $ $ $ $ $ $ $ $ $ $ $ $ $ $ $ $ $ $ $ $ $ $ $ $ $ # ) t .   ",
"    . . . . . . . . . . . . . . . . . . . . . . . . . . . . . . . . . . . . . . . . . . .     ",
"        . . . . . . . . . . . . . . . . . . . . . . . . . . . . . . . . . . . . . . .         "};
