/* XPM */
static const char* diamond10_xpm[] = {
"47 62 222 2",
"  	c None",
". 	c #000000",
"+ 	c #2E2E2E",
"@ 	c #B2B2B2",
"# 	c #FCFCFC",
"$ 	c #FFFFFF",
"% 	c #B0B0B0",
"& 	c #2A2A2A",
"* 	c #B9B9B9",
"= 	c #FEFEFE",
"- 	c #FEF1F3",
"; 	c #FBB7C3",
"> 	c #FCD2D9",
", 	c #FFFBFB",
"' 	c #FBB9C4",
") 	c #FDDFE4",
"! 	c #FDFDFD",
"~ 	c #FCCFD7",
"{ 	c #F21A3F",
"] 	c #F76E85",
"^ 	c #F6637C",
"/ 	c #F32B4D",
"( 	c #FDD5DC",
"_ 	c #FFFEFE",
": 	c #FBBDC7",
"< 	c #F54A68",
"[ 	c #F88599",
"} 	c #F7768D",
"| 	c #F65E78",
"1 	c #F66780",
"2 	c #FDD7DE",
"3 	c #FCCFD6",
"4 	c #F76F87",
"5 	c #FBBCC7",
"6 	c #F88196",
"7 	c #FDE0E5",
"8 	c #F65D77",
"9 	c #FAA4B3",
"0 	c #F44260",
"a 	c #FFF8F9",
"b 	c #FEF5F7",
"c 	c #F43B5B",
"d 	c #FAADBA",
"e 	c #F32447",
"f 	c #F87C91",
"g 	c #F3274A",
"h 	c #FDE2E7",
"i 	c #FFFCFD",
"j 	c #F54B68",
"k 	c #FBBBC6",
"l 	c #F54E6B",
"m 	c #F98D9F",
"n 	c #F32E50",
"o 	c #FEEBEE",
"p 	c #FCD1D9",
"q 	c #F21E42",
"r 	c #F6607A",
"s 	c #F21D41",
"t 	c #FCD0D8",
"u 	c #FBBEC9",
"v 	c #F44462",
"w 	c #F76A82",
"x 	c #FEE9EC",
"y 	c #F32C4E",
"z 	c #F8889B",
"A 	c #F32A4D",
"B 	c #FEE7EB",
"C 	c #FFFDFD",
"D 	c #F76E86",
"E 	c #F33153",
"F 	c #FDDDE2",
"G 	c #FBB6C2",
"H 	c #F54966",
"I 	c #FCCED6",
"J 	c #F21E43",
"K 	c #FBC0CA",
"L 	c #FEF3F5",
"M 	c #FCC6CF",
"N 	c #FDDBE1",
"O 	c #FCC7D0",
"P 	c #F7738A",
"Q 	c #F32548",
"R 	c #FDDEE3",
"S 	c #FEF4F6",
"T 	c #F43959",
"U 	c #F33051",
"V 	c #FEECEF",
"W 	c #FDDCE2",
"X 	c #F32347",
"Y 	c #FAA2B1",
"Z 	c #FAA8B6",
"` 	c #F77188",
" .	c #F43F5E",
"..	c #FEF6F7",
"+.	c #F77289",
"@.	c #F21B40",
"#.	c #FCCDD5",
"$.	c #FBB4C1",
"%.	c #F99DAD",
"&.	c #F21F44",
"*.	c #FDD4DB",
"=.	c #FBB1BD",
"-.	c #FAA3B1",
";.	c #F22145",
">.	c #FDD7DD",
",.	c #FAA5B4",
"'.	c #F98FA1",
").	c #F7768C",
"!.	c #FEE5E9",
"~.	c #F3294C",
"{.	c #F87B90",
"].	c #FDE1E6",
"^.	c #F43A5A",
"/.	c #F32D4F",
"(.	c #FEE9ED",
"_.	c #FDD9DF",
":.	c #F88397",
"<.	c #FBB5C1",
"[.	c #F33354",
"}.	c #FEEEF1",
"|.	c #FBB4C0",
"1.	c #F54D6A",
"2.	c #FBBAC5",
"3.	c #FFFAFA",
"4.	c #F44664",
"5.	c #FEE8EB",
"6.	c #F88B9E",
"7.	c #F7798F",
"8.	c #FEEAEE",
"9.	c #F65974",
"0.	c #FCCAD3",
"a.	c #F4405F",
"b.	c #FFF7F8",
"c.	c #FCC8D1",
"d.	c #F21C41",
"e.	c #F65C76",
"f.	c #F99CAC",
"g.	c #F43757",
"h.	c #FEF2F4",
"i.	c #FDDAE0",
"j.	c #F76D84",
"k.	c #F22044",
"l.	c #FDD8DF",
"m.	c #F7788E",
"n.	c #FAA6B4",
"o.	c #F43D5C",
"p.	c #F6627B",
"q.	c #F6657D",
"r.	c #FEEDF0",
"s.	c #F996A7",
"t.	c #F990A2",
"u.	c #FEEFF1",
"v.	c #F55671",
"w.	c #FCC5CE",
"x.	c #F8889C",
"y.	c #FDD3DA",
"z.	c #F66981",
"A.	c #F99EAE",
"B.	c #F43858",
"C.	c #FAA7B5",
"D.	c #F22246",
"E.	c #F7758B",
"F.	c #FBB3BF",
"G.	c #F54865",
"H.	c #F88498",
"I.	c #FEE6EA",
"J.	c #F65A74",
"K.	c #FCCBD3",
"L.	c #F33052",
"M.	c #F991A3",
"N.	c #F5506C",
"O.	c #FCCCD4",
"P.	c #F54F6B",
"Q.	c #F77A90",
"R.	c #FDE3E8",
"S.	c #F32649",
"T.	c #F87F93",
"U.	c #F43E5D",
"V.	c #FAAFBC",
"W.	c #FAA9B7",
"X.	c #F44362",
"Y.	c #FFF9FA",
"Z.	c #FBB8C4",
"`.	c #F6647D",
" +	c #F54C69",
".+	c #FFFBFC",
"++	c #FAAEBB",
"@+	c #F7748A",
"#+	c #F32F50",
"$+	c #FDD6DC",
"%+	c #FBBDC8",
"&+	c #FAA0AF",
"*+	c #F87D92",
"=+	c #F87E93",
"-+	c #F5526E",
";+	c #FCC3CD",
">+	c #F43C5C",
",+	c #F44261",
"'+	c #FBC1CB",
")+	c #F55470",
"!+	c #F5536F",
"~+	c #F5536E",
"{+	c #F992A4",
"]+	c #F99BAB",
"^+	c #F993A5",
"/+	c #F998A8",
"(+	c #F6667F",
"_+	c #F87F94",
":+	c #F88296",
"<+	c #F3284B",
"[+	c #FDE4E8",
"}+	c #F88A9D",
"|+	c #FBB0BD",
"1+	c #F76C84",
"2+	c #F43556",
"3+	c #F99AAA",
"4+	c #F65F79",
"5+	c #F8879A",
"6+	c #F44563",
"7+	c #B6B6B6",
"8+	c #2F2F2F",
"9+	c #B8B8B8",
"        . . . . . . . . . . . . . . . . . . . . . . . . . . . . . . . . . . . . . . .         ",
"    . . . . . . . . . . . . . . . . . . . . . . . . . . . . . . . . . . . . . . . . . . .     ",
"  . + @ # $ $ $ $ $ $ $ $ $ $ $ $ $ $ $ $ $ $ $ $ $ $ $ $ $ $ $ $ $ $ $ $ $ $ $ $ $ # % & .   ",
"  . * $ $ $ $ $ $ $ $ $ $ $ $ $ $ $ $ $ $ $ $ $ $ $ $ $ $ $ $ $ $ $ $ $ $ $ $ $ $ $ $ $ @ .   ",
". . = - ; > $ , ' ; ; ) $ $ $ $ $ $ $ $ $ $ $ $ $ $ $ $ $ $ $ $ $ $ $ $ $ $ $ $ $ $ $ $ ! . . ",
". . $ ~ { ] , ^ { { { / ( $ $ $ $ _ $ $ $ $ $ $ $ $ $ $ $ _ $ $ $ $ $ $ $ $ $ $ $ $ $ $ $ . . ",
". . $ ~ { ] : { < [ } { | $ $ $ $ 1 2 $ $ $ $ $ $ $ $ $ 3 4 $ $ $ $ $ $ $ $ $ $ $ $ $ $ $ . . ",
". . $ ~ { ] 5 { 6 $ 7 { 8 $ $ $ 9 { 0 a $ $ $ $ $ $ $ b c { d $ $ $ $ $ $ $ $ $ $ $ $ $ $ . . ",
". . $ ~ { ] 5 { 6 $ 7 { 8 $ $ ) e { { f $ $ $ $ $ $ $ } { { g h $ $ $ $ $ $ $ $ $ $ $ $ $ . . ",
". . $ ~ { ] 5 { 6 $ 7 { 8 $ i j { { { { : $ $ $ $ $ k { { { { l i $ $ $ $ $ $ $ $ $ $ $ $ . . ",
". . $ ~ { ] 5 { 6 $ 7 { 8 $ m { { { { { n o $ $ $ o n { { { { { m $ $ $ $ $ $ $ $ $ $ $ $ . . ",
". . $ ~ { ] 5 { 6 $ 7 { 8 p q { { { { { { r $ $ $ ^ { { { { { { s t $ $ $ $ $ $ $ $ $ $ $ . . ",
". . $ ~ { ] u { v } w { r x y { { { { { { [ $ p $ z { { { { { { A B $ $ $ $ $ $ $ $ $ $ $ . . ",
". . $ ~ { ] C D { { { E F $ G { { { { { H , I J K , H { { { { { G $ $ $ $ $ $ $ $ $ $ $ $ . . ",
". . $ L M N $ C O M M B $ $ $ P { { { Q R S T { U V W X { { { } $ $ $ $ $ $ $ $ $ $ $ $ $ . . ",
". . $ $ $ $ $ b Y $ $ $ $ $ $ S T { { Z $ ` { { { 8 $ Y { {  ...$ $ $ $ $ $ $ $ $ $ $ $ $ . . ",
". . $ $ $ $ $ +.@.u $ $ $ $ $ $ #.s 1 $ $.{ { { { { %.$ | &.*.$ $ $ $ $ $ $ $ $ $ $ $ $ $ . . ",
". . $ $ $ $ =.{ { y B $ $ $ $ $ $ -.- B A { { { { { ;.>.o Z $ $ $ $ $ $ $ $ $ $ $ $ $ $ $ . . ",
". . $ $ $ $ 8 { { { ,.$ $ $ $ $ $ $ $ '.{ { { { { { { ).$ $ $ $ $ $ $ $ $ $ $ $ $ $ $ $ $ . . ",
". . $ $ $ $ !.~.{ 8 _ $ $ $ $ $ $ {.].S ^.{ { { { { /.(._.:.$ $ $ $ $ $ $ $ $ $ $ $ $ $ $ . . ",
". . $ $ $ $ $ <.[.}.$ $ $ $ $ $ |.{ 1.i I q { { { { 2.3.4.{ 5 $ $ $ $ $ $ $ $ $ $ $ $ $ $ . . ",
". . $ $ $ $ $ $ 5.$ $ $ $ $ $ 5.A { { 6.$ m { { { 7.$ [ { { n 8.$ $ $ $ $ $ $ $ $ $ $ $ $ . . ",
". . $ $ $ $ $ $ $ $ $ $ $ $ _ 9.{ { { s 0.i 1.{ a.b.c.d.{ { { e._ $ $ $ $ $ $ $ $ $ $ $ $ . . ",
". . $ $ $ $ $ $ $ $ $ $ $ $ f.{ { { { { g.h.7 y ( h.g.{ { { { { f.$ $ $ $ $ $ $ $ $ $ $ $ . . ",
". . $ $ $ $ $ $ $ $ $ $ $ i.;.{ { { { { { j.$ x $ 4 { { { { { { k.l.$ $ $ $ $ $ $ $ $ $ $ . . ",
". . $ $ $ $ $ $ $ $ $ $ $ 7 Q { { { { { { ).$ $ $ m.{ { { { { { e R $ $ $ $ $ $ $ $ $ $ $ . . ",
". . $ $ $ $ $ $ $ $ $ $ $ $ n.{ { { { { o...$ $ $ ..o.{ { { { { n.$ $ $ $ $ $ $ $ $ $ $ $ . . ",
". . $ $ $ $ $ $ $ $ $ $ $ $ $ p.{ { { &.> $ $ $ $ $ t q { { { q.$ $ $ $ $ $ $ $ $ $ $ $ $ . . ",
". . $ $ $ $ $ $ $ $ $ $ $ $ $ r.U { { s.$ $ $ $ $ $ $ t.{ { [.u.$ $ $ $ $ $ $ $ $ $ $ $ $ . . ",
". . $ $ $ $ $ $ $ $ $ $ $ $ $ $ : { v._ $ $ $ $ $ $ $ i 1.d.w.$ $ $ $ $ $ $ $ $ $ $ $ $ $ . . ",
". . $ $ $ $ $ $ $ $ $ $ $ $ $ $ $ x.B $ $ $ $ $ $ $ $ $ 7 t.$ $ $ $ $ $ $ $ $ $ $ $ $ $ $ . . ",
". . $ $ $ $ $ $ $ $ $ $ $ $ $ $ $ C $ $ $ $ $ $ $ $ $ $ $ C $ $ $ $ $ $ $ $ $ $ $ $ $ $ $ . . ",
". . $ $ $ $ $ $ $ $ $ $ $ $ $ $ $ r y.$ $ $ $ $ $ $ $ $ 0.z.$ $ $ $ $ $ $ $ $ $ $ $ $ $ $ . . ",
". . $ $ $ $ $ $ $ $ $ $ $ $ $ $ A.{ o...$ $ $ $ $ $ $ L B.{ C.$ $ $ $ $ $ $ $ $ $ $ $ $ $ . . ",
". . $ $ $ $ $ $ $ $ $ $ $ $ $ i.D.{ { E.$ $ $ $ $ $ $ 4 { { e F $ $ $ $ $ $ $ $ $ $ $ $ $ . . ",
". . $ $ $ $ $ $ $ $ $ $ $ $ 3.4.{ { { { <.$ $ $ $ $ F.{ { { { G., $ $ $ $ $ $ $ $ $ $ $ $ . . ",
". . $ $ $ $ $ $ $ $ $ $ $ $ H.{ { { { { A I.$ $ $ B A { { { { { :.$ $ $ $ $ $ $ $ $ $ $ $ . . ",
". . $ $ $ $ $ $ $ $ $ $ $ #.d.{ { { { { { J.$ $ $ e.{ { { { { { @.K.$ $ $ $ $ $ $ $ $ $ $ . . ",
". . $ $ $ $ $ $ $ $ $ $ $ }.L.{ { { { { { '.$ W $ M.{ { { { { { U V $ $ $ $ $ $ $ $ $ $ $ . . ",
". . $ $ $ $ $ $ $ $ $ $ $ $ u { { { { { N.i O.X *.i P.{ { { { @.u $ $ $ $ $ $ $ $ $ $ $ $ . . ",
". . $ $ $ $ $ $ $ $ $ $ $ $ $ Q.{ { { g R.S T {  .b.].S.{ { { T.$ $ $ $ $ $ $ $ $ $ $ $ $ . . ",
". . $ $ $ $ $ $ $ $ $ $ $ $ $ b.U.{ { V.$ P { { { m.$ W.{ { X.Y.$ $ $ $ $ $ $ 9 h $ $ $ $ . . ",
". . $ $ $ $ $ $ $ $ $ $ $ $ $ $ p J ] $ Z.{ { { { { ' $ `.;.l.$ $ $ $ $ $ $ p &. +.+$ $ $ . . ",
". . $ $ $ $ $ $ $ $ $ $ $ $ $ $ $ W.L 8./.{ { { { { y x }.++$ $ $ $ $ $ $ L ^.{ { [ $ $ $ . . ",
". . $ $ $ $ $ $ $ $ $ $ $ $ $ $ $ $ $ [ { { { { { { { [ $ $ $ $ $ $ $ $ $ #.d.{ { o._ $ $ . . ",
". . $ $ $ $ $ $ $ $ $ $ $ $ $ $ $ @+R 8./.{ { { { { #+o $+f $ $ $ $ $ $ $ $ x.{ k.*.$ $ $ . . ",
". . $ $ $ $ $ $ $ $ $ $ $ $ $ $ d { H , 2.{ { { { @.%+a 0 { G $ $ $ $ $ $ $ .+P.&+$ $ $ $ . . ",
". . $ $ $ $ $ $ $ $ $ $ $ $ $ R.g { { H.$ ).{ { { *+$ =+{ { A B $ $ $ $ $ $ $ u.$ $ $ $ $ . . ",
". . $ $ $ $ $ $ $ $ $ $ $ $ C -+{ { { @.;+b >+{ ,+Y.'+@.{ { { )+C $ $ K.!+~+~+{+$ > ~+]+$ . . ",
". . $ $ $ $ $ $ $ $ $ $ $ $ ^+{ { { { { E }.~ S.2 u.E { { { { { ^+$ l.S.{ { { { /+;+{ Q.$ . . ",
". . $ $ $ $ $ $ $ $ $ $ $ ( J { { { { { { q.$ 7 $ (+{ { { { { { J y.F.{ _+(.w.{ (+;+{ Q.$ . . ",
". . $ $ $ $ $ $ $ $ $ $ $ I.~.{ { { { { { _+$ $ $ :+{ { { { { { <+[+F.{ }+$ >.{ (+;+{ Q.$ . . ",
". . $ $ $ $ $ $ $ $ $ $ $ $ |+{ { { { { v Y.$ $ $ 3.X.{ { { { { |+$ F.{ }+$ >.{ (+;+{ Q.$ . . ",
". . $ $ $ $ $ $ $ $ $ $ $ $ $ 1+{ { { D._.$ $ $ $ $ 2 k.{ { { D $ $ F.{ }+$ >.{ (+;+{ Q.$ . . ",
". . $ $ $ $ $ $ $ $ $ $ $ $ $ h.2+{ { &+$ $ $ $ $ $ $ 3+{ { T L $ $ F.{ }+$ >.{ (+;+{ Q.$ . . ",
". . $ $ $ $ $ $ $ $ $ $ $ $ $ $ M d.4+$ $ $ $ $ $ $ $ _ v.q I $ $ $ F.{ 5+a p { (+;+{ Q.$ . . ",
". . $ $ $ $ $ $ $ $ $ $ $ $ $ $ $ s.V $ $ $ $ $ $ $ $ $ I.f.$ $ $ $ *.;.{ { { { '.;+{ Q.$ . . ",
". . $ $ $ $ $ $ $ $ $ $ $ $ $ $ $ $ $ $ $ $ $ $ $ $ $ $ $ $ $ $ $ $ $ K 6+v v H.$ I v ^+= . . ",
"  . * $ $ $ $ $ $ $ $ $ $ $ $ $ $ $ $ $ $ $ $ $ $ $ $ $ $ $ $ $ $ $ $ $ $ $ $ $ $ $ $ $ 7+.   ",
"  . 8+9+= $ $ $ $ $ $ $ $ $ $ $ $ $ $ $ $ $ $ $ $ $ $ $ $ $ $ $ $ $ $ $ $ $ $ $ $ $ = 9++ .   ",
"    . . . . . . . . . . . . . . . . . . . . . . . . . . . . . . . . . . . . . . . . . . .     ",
"        . . . . . . . . . . . . . . . . . . . . . . . . . . . . . . . . . . . . . . .         "};
