/* XPM */
static const char* diamond11_xpm[] = {
"47 62 182 2",
"  	c None",
". 	c #000000",
"+ 	c #2A2A2A",
"@ 	c #B0B0B0",
"# 	c #FCFCFC",
"$ 	c #FFFFFF",
"% 	c #B2B2B2",
"& 	c #2E2E2E",
"* 	c #BABABA",
"= 	c #FDFDFD",
"- 	c #FEF4F6",
"; 	c #FBB7C3",
"> 	c #FCCED6",
", 	c #FEFEFE",
"' 	c #FDDDE2",
") 	c #F21A3F",
"! 	c #F6607A",
"~ 	c #FBB9C4",
"{ 	c #F88498",
"] 	c #FBBCC7",
"^ 	c #F44563",
"/ 	c #F7768D",
"( 	c #F66981",
"_ 	c #F6647D",
": 	c #FFFDFD",
"< 	c #F76D84",
"[ 	c #F33253",
"} 	c #FDDFE4",
"| 	c #FCC7D0",
"1 	c #FCC6CF",
"2 	c #FEE8EB",
"3 	c #FFFBFB",
"4 	c #FBB5C1",
"5 	c #F88296",
"6 	c #F21E43",
"7 	c #FCCFD6",
"8 	c #FBC1CB",
"9 	c #F21B40",
"0 	c #F43757",
"a 	c #FEF2F4",
"b 	c #FEECEF",
"c 	c #F33051",
"d 	c #F6657D",
"e 	c #F76B83",
"f 	c #FBB0BD",
"g 	c #FDE4E8",
"h 	c #FDD7DD",
"i 	c #FCC9D2",
"j 	c #FCC3CD",
"k 	c #FCD1D9",
"l 	c #FDE1E6",
"m 	c #FEF1F3",
"n 	c #FBBEC9",
"o 	c #F33153",
"p 	c #FEEDF0",
"q 	c #FCC6D0",
"r 	c #FAA1B0",
"s 	c #F87B90",
"t 	c #F55470",
"u 	c #F6657E",
"v 	c #F99CAC",
"w 	c #FEE9EC",
"x 	c #F87F93",
"y 	c #F21D41",
"z 	c #FEF5F7",
"A 	c #F88599",
"B 	c #F54B68",
"C 	c #F21E42",
"D 	c #FFFAFA",
"E 	c #F98EA0",
"F 	c #F54A67",
"G 	c #FDDBE1",
"H 	c #F65E78",
"I 	c #FFFEFE",
"J 	c #F43F5E",
"K 	c #FAA0AF",
"L 	c #FEEBEE",
"M 	c #F3274A",
"N 	c #F65B75",
"O 	c #F87F94",
"P 	c #FAADBA",
"Q 	c #F44260",
"R 	c #F6627B",
"S 	c #FBB8C4",
"T 	c #FEEEF1",
"U 	c #F991A2",
"V 	c #F77188",
"W 	c #F5526E",
"X 	c #F33354",
"Y 	c #F5516D",
"Z 	c #FBBFCA",
"` 	c #F43556",
" .	c #F66881",
"..	c #FAAAB7",
"+.	c #F7798F",
"@.	c #F993A5",
"#.	c #FAACBA",
"$.	c #FDE0E5",
"%.	c #F32E50",
"&.	c #F8899C",
"*.	c #F8889B",
"=.	c #F32347",
"-.	c #F43B5B",
";.	c #F32F50",
">.	c #F7788E",
",.	c #F43E5D",
"'.	c #F88196",
").	c #FCD0D8",
"!.	c #FBB3BF",
"~.	c #F996A7",
"{.	c #F43D5C",
"].	c #FDD7DE",
"^.	c #F3284B",
"/.	c #F65C77",
"(.	c #F994A5",
"_.	c #F99AAA",
":.	c #FAAFBC",
"<.	c #FCC8D1",
"[.	c #F99EAE",
"}.	c #FCCCD4",
"|.	c #F22145",
"1.	c #FBBAC5",
"2.	c #FAA2B1",
"3.	c #FFFCFD",
"4.	c #F65D77",
"5.	c #FFF9FA",
"6.	c #F8889C",
"7.	c #F5536F",
"8.	c #F32649",
"9.	c #FEEFF1",
"0.	c #FEF3F5",
"a.	c #F76E85",
"b.	c #F21C41",
"c.	c #F44462",
"d.	c #F4415F",
"e.	c #F22246",
"f.	c #F55772",
"g.	c #FEE9ED",
"h.	c #FCCDD5",
"i.	c #FBB2BE",
"j.	c #F997A8",
"k.	c #F44664",
"l.	c #F21F44",
"m.	c #FDDAE0",
"n.	c #F54D6A",
"o.	c #F32C4E",
"p.	c #FBB1BD",
"q.	c #F88397",
"r.	c #F77087",
"s.	c #F88C9F",
"t.	c #FEF0F2",
"u.	c #F6617A",
"v.	c #F32A4D",
"w.	c #FFFBFC",
"x.	c #F99DAD",
"y.	c #FCCBD3",
"z.	c #F65F79",
"A.	c #F87D92",
"B.	c #F992A4",
"C.	c #FDD4DB",
"D.	c #F22044",
"E.	c #FCCFD7",
"F.	c #F43959",
"G.	c #F991A3",
"H.	c #F88B9E",
"I.	c #F999A9",
"J.	c #FFF8F9",
"K.	c #FAABB8",
"L.	c #F98FA1",
"M.	c #FDE3E8",
"N.	c #FBB4C1",
"O.	c #FBBDC8",
"P.	c #F5536E",
"Q.	c #FBB6C2",
"R.	c #F87C91",
"S.	c #F6637C",
"T.	c #F8879A",
"U.	c #FCC5CE",
"V.	c #B6B6B6",
"W.	c #B9B9B9",
"X.	c #B8B8B8",
"Y.	c #2F2F2F",
"        . . . . . . . . . . . . . . . . . . . . . . . . . . . . . . . . . . . . . . .         ",
"    . . . . . . . . . . . . . . . . . . . . . . . . . . . . . . . . . . . . . . . . . . .     ",
"  . + @ # $ $ $ $ $ $ $ $ $ $ $ $ $ $ $ $ $ $ $ $ $ $ $ $ $ $ $ $ $ $ $ $ $ $ $ $ $ # % & .   ",
"  . % $ $ $ $ $ $ $ $ $ $ $ $ $ $ $ $ $ $ $ $ $ $ $ $ $ $ $ $ $ $ $ $ $ $ $ $ $ $ $ $ $ * .   ",
". . = $ $ $ $ $ - ; > $ $ $ $ $ $ $ $ $ $ $ $ $ $ $ $ $ $ $ $ $ $ $ $ $ $ $ $ $ $ $ $ $ , . . ",
". . $ $ $ $ $ $ ' ) ! $ $ $ $ $ $ $ $ $ $ $ $ $ $ $ $ $ $ $ $ $ $ $ $ $ $ $ $ $ $ $ $ $ $ . . ",
". . $ $ $ $ $ $ ' ) ! $ $ $ $ $ $ $ $ $ $ $ $ $ $ $ $ $ $ $ $ $ $ $ $ $ $ $ $ $ $ $ $ $ $ . . ",
". . $ $ $ $ $ $ ' ) ! $ $ $ $ $ $ $ $ $ $ $ $ $ $ $ $ $ $ $ $ $ $ $ $ $ $ $ $ $ $ $ $ $ $ . . ",
". . $ $ $ $ $ $ ' ) ! $ $ $ $ $ $ $ $ $ $ $ $ $ $ $ $ $ $ $ $ $ $ $ $ $ $ $ $ $ $ $ $ $ $ . . ",
". . $ $ $ $ $ $ ' ) ! $ $ $ $ $ $ $ $ $ $ $ $ $ $ $ $ $ $ $ $ $ $ $ $ $ $ $ $ $ $ $ $ $ $ . . ",
". . $ $ $ $ $ $ ' ) ! $ $ $ $ $ $ $ $ $ $ $ $ $ $ $ $ $ $ $ $ $ $ $ $ $ $ $ $ $ $ $ $ $ $ . . ",
". . $ $ ~ ) { $ ' ) ! $ $ $ $ $ $ $ $ $ $ $ $ $ $ $ $ $ $ $ $ $ $ $ $ $ $ $ $ $ $ $ $ $ $ . . ",
". . $ $ ] ) ^ / ( ) _ $ $ $ $ $ $ $ $ $ $ $ $ $ $ $ $ $ $ $ $ $ $ $ $ $ $ $ $ $ $ $ $ $ $ . . ",
". . $ $ : < ) ) ) [ } $ $ $ $ $ $ $ $ $ $ $ $ $ $ $ $ $ $ $ $ $ $ $ $ $ $ $ $ $ $ $ $ $ $ . . ",
". . $ $ $ : | 1 1 2 $ $ $ $ $ $ $ $ $ $ $ $ $ $ $ $ $ $ $ $ $ $ $ $ $ $ $ $ $ $ $ $ $ $ $ . . ",
". . $ $ $ $ $ 3 4 $ $ $ $ $ $ $ $ $ $ $ $ $ $ $ $ $ $ $ $ $ $ $ $ $ $ $ $ $ $ $ $ $ $ $ $ . . ",
". . $ $ $ $ $ 5 6 7 $ $ $ $ $ $ $ $ $ $ $ $ $ $ $ $ $ $ $ $ $ $ $ $ $ $ $ $ $ $ $ $ $ $ $ . . ",
". . $ $ $ $ 8 9 ) 0 a $ $ $ $ $ $ $ $ $ $ $ $ $ $ $ $ $ $ $ $ $ $ $ $ $ $ $ $ $ $ $ $ $ $ . . ",
". . $ $ $ b c ) ) ) d $ $ $ $ $ $ $ $ $ $ $ $ $ $ $ $ $ $ $ $ $ $ $ $ $ $ $ $ $ $ $ $ $ $ . . ",
". . $ $ $ e ) ) ) ) ) f $ $ $ $ $ $ $ $ $ $ $ : a g h i j k l m $ $ $ $ $ $ $ $ $ $ $ $ $ . . ",
". . $ $ $ n 9 ) ) ) o p $ $ $ $ $ - q r s t c 9 ) ) ) ) ) ) ) ) c u v w $ $ $ $ $ $ $ $ $ . . ",
". . $ $ $ $ x ) ) y q $ $ z n A B C ) ) ) ) ) ) ) ) ) ) ) ) ) ) ) ) ) ' $ $ $ $ $ $ $ $ $ . . ",
". . $ $ $ $ D ^ ) E $ $ $ 8 ) ) ) ) ) ) ) ) ) ) ) ) ) ) ) ) ) ) ) ) F $ $ $ $ $ $ $ $ $ $ . . ",
". . $ $ $ $ $ G H : $ $ $ I J ) ) ) ) ) ) ) ) ) ) ) ) ) ) ) ) ) ) ) v $ $ $ $ $ $ $ $ $ $ . . ",
". . $ $ $ $ $ $ I $ $ $ $ $ K ) ) ) ) ) ) ) ) ) ) ) ) ) ) ) ) ) ) y L $ $ $ $ $ $ $ $ $ $ . . ",
". . $ $ $ $ $ $ $ $ $ $ $ $ - M ) ) ) ) ) ) ) ) ) ) ) ) ) ) ) ) ) N $ $ $ $ $ $ $ $ $ $ $ . . ",
". . $ $ $ $ $ $ $ $ $ $ $ $ $ O ) ) ) ) ) ) ) ) ) ) ) ) ) ) ) ) ) P $ $ $ $ $ $ $ $ $ $ $ . . ",
". . $ $ $ $ $ $ $ $ $ $ $ $ $ A ) ) ) ) ) ) ) ) ) ) ) ) Q d / R ) S $ $ $ $ $ $ $ $ $ $ $ . . ",
". . $ $ $ $ $ $ $ $ $ $ $ $ $ $ T 7 f U V W X 9 ) ) Y Z $ $ $ I `  .$ $ $ $ $ $ $ $ $ $ $ . . ",
". . $ $ $ $ $ $ $ $ $ $ $ $ ..+.@.#.q $.D $ a %.) &.$ $ $ $ $ $ *.=.- $ $ $ $ $ $ $ $ $ $ . . ",
". . $ $ $ $ $ $ $ $ $ $ $ : -.) ) ) ) ) 9 ;.0 ) R $ $ $ >.,.'.$ G ) #.$ $ $ $ $ $ $ $ $ $ . . ",
". . $ $ $ $ $ $ $ $ $ $ $ $ $ T ).!.~.>.N {.) 9 ].$ $ : R ^.e I $ F /.$ $ $ $ $ $ $ $ $ $ . . ",
". . $ $ $ $ $ $ $ $ $ $ $ (._.:.1 G m $ $ <.) H $ $ $ $ $ $ $ $ $ [.C p $ $ $ $ $ $ $ $ $ . . ",
". . $ $ $ $ $ $ $ $ $ $ }.) ) ) ) ) ) |.0 o ) 1.$ $ $ $ $ $ $ $ $ p 6 2.$ $ $ $ $ $ $ $ $ . . ",
". . $ $ $ $ $ $ $ $ $ $ G ~.,.) ) ) ) ) ) ) o 3.$ $ $ $ $ $ $ $ $ $ 4.Y $ $ $ $ $ $ $ $ $ . . ",
". . $ $ $ $ $ $ $ $ $ $ $ 5.2 0 ) ) ) ) ) ) 6.$ $ $ $ $ $ : !.>.7.;.) 8.9.$ $ $ $ $ $ $ $ . . ",
". . $ $ $ $ $ $ $ $ 0.a.` b.0 ( ) ) ) ) ) 9 l $ $ $ $ $ i c.) ) ) A h 3.$ $ $ $ $ $ $ $ $ . . ",
". . $ $ $ $ $ $ $ $.d.) ) ) ) e.) ) ) ) ) f.$ $ $ $ g.< ) ) ) ) ) h.$ $ $ $ $ : $ $ $ $ $ . . ",
". . $ $ $ $ $ $ $ 7.) ) ) ) ) ) ) ) ) ) ) i.$ $ L j.8.) ) ) b.k.l.m.$ $ $ $ 9.n.T $ $ $ $ . . ",
". . $ $ $ $ $ $ 3.) ) ) ) ) ) ) ) ) ) ) o.D $ $ a p.q.r.s.S t.I 6 2 $ $ $ $ u.) H $ $ $ $ . . ",
". . $ $ $ $ $ $ : v.) ) ) ) ) ) ) ) ) ) [.$ $ w.$ $ $ $ $ $ $ T ) z $ $ $ x.) ) ) _.$ $ $ . . ",
". . $ $ $ $ $ $ $ / ) ) ) ) ) ) ) ) ) u $ $ $ y.< z.A.6.B.U _ [ C $ $ $ C.D.) ) ) 6 E.$ $ . . ",
". . $ $ $ $ $ $ $ h =.) ) ) ) ) ) ) {.a $ $ $ $ $ !.H F.b.) ) C {.$ $ $ G.) ) ) ) ) H.$ $ . . ",
". . $ $ $ $ $ $ $ $ S |.) ) ) ) o.I.J.$ $ $ $ $ $ $ $ $ J.l m $ $ $ $ $ w.n.) ) ) F 3 $ $ . . ",
". . $ $ $ $ $ $ $ $ $ 0.K.L.K !.0.$ $ $ $ $ $ $ $ $ $ $ $ $ $ $ $ $ $ $ $ M.^.) M $.$ $ $ . . ",
". . $ $ $ $ $ $ $ $ $ $ $ $ $ $ $ $ $ $ $ $ $ $ $ $ $ $ $ $ $ $ $ $ $ $ $ $ N.) !.$ $ $ $ . . ",
". . $ $ $ $ $ $ $ $ $ $ $ $ $ $ $ $ $ $ $ $ $ $ $ $ $ $ $ $ $ $ $ $ $ $ $ $ $ O.$ $ $ $ $ . . ",
". . $ $ $ $ $ $ $ $ $ $ $ $ $ $ $ $ $ $ $ $ $ $ $ $ $ $ $ $ $ $ $ $ $ $ $ $ $ $ $ $ $ $ $ . . ",
". . $ $ $ $ $ $ $ $ $ $ $ $ $ $ $ $ $ $ $ $ $ $ $ $ $ $ $ $ $ $ $ $ $ $ $ > t P.P.L.$ $ $ . . ",
". . $ $ $ $ $ $ $ $ $ $ $ $ $ $ $ $ $ $ $ $ $ $ $ $ $ $ $ $ $ $ $ $ $ $ G M ) ) ) ) (.$ $ . . ",
". . $ $ $ $ $ $ $ $ $ $ $ $ $ $ $ $ $ $ $ $ $ $ $ $ $ $ $ $ $ $ $ $ $ $ Q.) R.g.<.) S.$ $ . . ",
". . $ $ $ $ $ $ $ $ $ $ $ $ $ $ $ $ $ $ $ $ $ $ $ $ $ $ $ $ $ $ $ $ $ $ Q.) T.$ p s.p.$ $ . . ",
". . $ $ $ $ $ $ $ $ $ $ $ $ $ $ $ $ $ $ $ $ $ $ $ $ $ $ $ $ $ $ $ $ $ $ Q.) T.$ $ $ $ $ $ . . ",
". . $ $ $ $ $ $ $ $ $ $ $ $ $ $ $ $ $ $ $ $ $ $ $ $ $ $ $ $ $ $ $ $ $ $ Q.) T.$ $ $ $ $ $ . . ",
". . $ $ $ $ $ $ $ $ $ $ $ $ $ $ $ $ $ $ $ $ $ $ $ $ $ $ $ $ $ $ $ $ $ $ Q.) T.$ $ $ $ $ $ . . ",
". . $ $ $ $ $ $ $ $ $ $ $ $ $ $ $ $ $ $ $ $ $ $ $ $ $ $ $ $ $ $ $ $ $ $ Q.) T.$ $ $ $ $ $ . . ",
". . $ $ $ $ $ $ $ $ $ $ $ $ $ $ $ $ $ $ $ $ $ $ $ $ $ $ $ $ $ $ $ $ $ $ Q.) T.$ $ $ $ $ $ . . ",
". . , $ $ $ $ $ $ $ $ $ $ $ $ $ $ $ $ $ $ $ $ $ $ $ $ $ $ $ $ $ $ $ $ $ U.c.x.$ $ $ $ $ $ . . ",
"  . V.$ $ $ $ $ $ $ $ $ $ $ $ $ $ $ $ $ $ $ $ $ $ $ $ $ $ $ $ $ $ $ $ $ $ $ $ $ $ $ $ $ W..   ",
"  . & X., $ $ $ $ $ $ $ $ $ $ $ $ $ $ $ $ $ $ $ $ $ $ $ $ $ $ $ $ $ $ $ $ $ $ $ $ $ , X.Y..   ",
"    . . . . . . . . . . . . . . . . . . . . . . . . . . . . . . . . . . . . . . . . . . .     ",
"        . . . . . . . . . . . . . . . . . . . . . . . . . . . . . . . . . . . . . . .         "};
