/* XPM */
static const char* diamond12_xpm[] = {
"47 62 188 2",
"  	c None",
". 	c #000000",
"+ 	c #2A2A2A",
"@ 	c #B0B0B0",
"# 	c #FCFCFC",
"$ 	c #FFFFFF",
"% 	c #B2B2B2",
"& 	c #2E2E2E",
"* 	c #BABABA",
"= 	c #FDFDFD",
"- 	c #FFFAFA",
"; 	c #FBB9C4",
"> 	c #FBB7C3",
", 	c #FDE0E5",
"' 	c #FEFEFE",
") 	c #FFF9FA",
"! 	c #F65D77",
"~ 	c #F21A3F",
"{ 	c #F32B4D",
"] 	c #FDD3DA",
"^ 	c #F54F6B",
"/ 	c #F88C9F",
"( 	c #F87B90",
"_ 	c #F6617A",
": 	c #F88498",
"< 	c #FDDDE2",
"[ 	c #F6607A",
"} 	c #FEF4F6",
"| 	c #FBC1CB",
"1 	c #FBBCC7",
"2 	c #F44563",
"3 	c #F54765",
"4 	c #F3274A",
"5 	c #F6647D",
"6 	c #FFFDFD",
"7 	c #F76D84",
"8 	c #FCC6CF",
"9 	c #FCC7D0",
"0 	c #F21B40",
"a 	c #FAABB8",
"b 	c #FBBFCA",
"c 	c #FEEEF0",
"d 	c #FDE4E8",
"e 	c #F3294C",
"f 	c #FFFCFD",
"g 	c #F99CAC",
"h 	c #FCCED6",
"i 	c #FDD4DB",
"j 	c #FCC2CC",
"k 	c #F88A9D",
"l 	c #F21F44",
"m 	c #FCD1D9",
"n 	c #FFF8F9",
"o 	c #F43E5D",
"p 	c #F21C41",
"q 	c #F994A5",
"r 	c #FBB2BE",
"s 	c #F32347",
"t 	c #F32548",
"u 	c #FFFEFE",
"v 	c #FDD5DC",
"w 	c #F88296",
"x 	c #FBB8C4",
"y 	c #F88397",
"z 	c #F66780",
"A 	c #F8879A",
"B 	c #F32F50",
"C 	c #FBBAC5",
"D 	c #F44362",
"E 	c #FFFBFB",
"F 	c #F54A68",
"G 	c #F992A4",
"H 	c #FCC3CD",
"I 	c #F6657E",
"J 	c #F22145",
"K 	c #FCCDD5",
"L 	c #F65873",
"M 	c #F65C77",
"N 	c #F33051",
"O 	c #FAAFBC",
"P 	c #FEEBEE",
"Q 	c #F87F93",
"R 	c #FAA2B1",
"S 	c #FBB0BD",
"T 	c #F7758B",
"U 	c #F7738A",
"V 	c #FDD6DC",
"W 	c #FBBBC6",
"X 	c #F32447",
"Y 	c #F76C84",
"Z 	c #FEE9EC",
"` 	c #FEEEF1",
" .	c #FDDCE2",
"..	c #F66981",
"+.	c #F43B5B",
"@.	c #FEF2F4",
"#.	c #F43959",
"$.	c #F88B9E",
"%.	c #FDD7DD",
"&.	c #F32C4E",
"*.	c #FFFBFC",
"=.	c #F32A4D",
"-.	c #F88599",
";.	c #F99AAB",
">.	c #F7768C",
",.	c #F77087",
"'.	c #F43556",
").	c #FAACBA",
"!.	c #F4415F",
"~.	c #F54B68",
"{.	c #FDD8DF",
"].	c #FCC9D2",
"^.	c #FEF5F7",
"/.	c #F22044",
"(.	c #FFF7F8",
"_.	c #F87D92",
":.	c #F8889C",
"<.	c #FEF0F2",
"[.	c #F7788E",
"}.	c #F43858",
"|.	c #F76B83",
"1.	c #F54865",
"2.	c #F55772",
"3.	c #FCC8D1",
"4.	c #FEF1F3",
"5.	c #F76E85",
"6.	c #FEEAEE",
"7.	c #FBC0CA",
"8.	c #F44664",
"9.	c #F5536E",
"0.	c #FBB6C2",
"a.	c #FAA5B4",
"b.	c #F21D41",
"c.	c #F32E50",
"d.	c #F7798F",
"e.	c #F33354",
"f.	c #FDDFE4",
"g.	c #F990A2",
"h.	c #F991A3",
"i.	c #F33052",
"j.	c #F99BAB",
"k.	c #F88095",
"l.	c #FBBEC9",
"m.	c #FEECEF",
"n.	c #F54E6B",
"o.	c #F21E43",
"p.	c #FCCBD3",
"q.	c #F21E42",
"r.	c #FCCFD7",
"s.	c #F43C5C",
"t.	c #FAAAB7",
"u.	c #F54A67",
"v.	c #FEE9ED",
"w.	c #F43656",
"x.	c #F6627B",
"y.	c #F98FA1",
"z.	c #F5536F",
"A.	c #FEEDF0",
"B.	c #F6667F",
"C.	c #F43D5C",
"D.	c #F87E93",
"E.	c #FEEFF1",
"F.	c #F22246",
"G.	c #FBB4C1",
"H.	c #FBBDC8",
"I.	c #F44261",
"J.	c #F996A7",
"K.	c #F43757",
"L.	c #F33253",
"M.	c #FEE5E9",
"N.	c #FAABB9",
"O.	c #F99DAD",
"P.	c #FEE6EA",
"Q.	c #FDDAE0",
"R.	c #FDE2E7",
"S.	c #F88699",
"T.	c #F32D4F",
"U.	c #FDDBE1",
"V.	c #F65C76",
"W.	c #F7748A",
"X.	c #F6637C",
"Y.	c #F8889B",
"Z.	c #F44462",
"`.	c #F87F94",
" +	c #B6B6B6",
".+	c #B9B9B9",
"++	c #B8B8B8",
"@+	c #2F2F2F",
"        . . . . . . . . . . . . . . . . . . . . . . . . . . . . . . . . . . . . . . .         ",
"    . . . . . . . . . . . . . . . . . . . . . . . . . . . . . . . . . . . . . . . . . . .     ",
"  . + @ # $ $ $ $ $ $ $ $ $ $ $ $ $ $ $ $ $ $ $ $ $ $ $ $ $ $ $ $ $ $ $ $ $ $ $ $ $ # % & .   ",
"  . % $ $ $ $ $ $ $ $ $ $ $ $ $ $ $ $ $ $ $ $ $ $ $ $ $ $ $ $ $ $ $ $ $ $ $ $ $ $ $ $ $ * .   ",
". . = $ $ - ; > > , $ $ $ $ $ $ $ $ $ $ $ $ $ $ $ $ $ $ $ $ $ $ $ $ $ $ $ $ $ $ $ $ $ $ ' . . ",
". . $ $ ) ! ~ ~ ~ { ] $ $ $ $ $ $ $ $ $ $ $ $ $ $ $ $ $ $ $ $ $ $ $ $ $ $ $ $ $ $ $ $ $ $ . . ",
". . $ $ ; ~ ^ / ( ~ _ $ $ $ $ $ $ $ $ $ $ $ $ $ $ $ $ $ $ $ $ $ $ $ $ $ $ $ $ $ $ $ $ $ $ . . ",
". . $ $ ; ~ : $ < ~ [ $ $ $ $ $ $ $ $ $ $ $ $ $ $ $ $ $ $ $ $ $ $ $ $ $ $ $ $ $ $ $ $ $ $ . . ",
". . $ $ ; ~ : $ < ~ [ $ $ $ $ $ $ $ $ $ $ $ $ $ $ $ $ $ $ $ $ $ $ $ $ $ $ $ $ $ $ $ $ $ $ . . ",
". . $ $ ; ~ : $ < ~ [ $ $ $ $ $ $ $ $ $ $ $ $ $ $ $ $ $ $ $ $ $ $ $ $ $ $ $ $ $ $ $ $ $ $ . . ",
". . $ $ ; ~ : $ < ~ [ $ $ $ $ $ $ $ $ $ $ $ $ $ $ $ $ $ $ $ $ $ $ $ $ $ $ $ $ $ $ $ $ $ $ . . ",
". . $ $ ; ~ : } | ~ [ $ $ $ $ $ $ $ $ $ $ $ $ $ $ $ $ $ $ $ $ $ $ $ $ $ $ $ $ $ $ $ $ $ $ . . ",
". . $ $ 1 ~ 2 3 4 ~ 5 $ $ $ $ $ $ $ $ $ $ $ $ $ $ $ $ $ $ $ $ $ $ $ $ $ $ $ $ $ $ $ $ $ $ . . ",
". . $ $ 6 7 ~ ~ ~ ~ 8 $ $ $ $ $ $ $ $ $ $ $ $ $ $ $ $ $ $ $ $ $ $ $ $ $ $ $ $ $ $ $ $ $ $ . . ",
". . $ $ $ 6 9 8 7 0 a $ $ $ $ $ $ $ $ $ $ $ $ $ $ $ $ $ $ $ $ $ $ $ $ $ $ $ $ $ $ $ $ $ $ . . ",
". . $ $ $ $ $ b c 8 $ $ $ $ $ $ $ $ $ $ $ $ $ $ $ $ $ $ $ $ $ $ $ $ $ $ $ $ $ $ $ $ $ $ $ . . ",
". . $ $ $ $ d e _ $ $ $ $ $ $ $ $ $ $ $ $ $ $ $ $ $ $ $ $ $ $ $ $ $ $ $ $ $ $ $ $ $ $ $ $ . . ",
". . $ $ $ f ^ ~ ~ g $ $ $ $ $ $ $ $ $ $ $ $ $ h b $ $ $ $ i j $ $ $ $ $ $ $ $ $ $ $ $ $ $ . . ",
". . $ $ $ k ~ ~ ~ l m $ $ $ $ $ $ $ $ $ $ $ n o p q $ $ r s t m $ $ u h $ $ $ $ $ $ $ $ $ . . ",
". . $ $ v p ~ ~ ~ ~ o $ $ $ $ $ $ $ w x ) $ y ~ ~ ~ z A ~ ~ ~ B , C D A $ $ $ $ $ $ $ $ $ . . ",
". . $ $ E F ~ ~ ~ ~ G $ $ $ $ $ $ H ~ ~ 4 I p ~ ~ ~ ~ ~ ~ ~ ~ ~ J ~ ~ K $ $ $ $ $ $ $ $ $ . . ",
". . $ $ $ , 4 ~ ~ L u $ $ $ $ $ $ M ~ ~ ~ ~ ~ ~ ~ ~ ~ ~ ~ ~ ~ ~ ~ ~ N u $ $ $ $ $ $ $ $ $ . . ",
". . $ $ $ $ O ~ N P $ $ 6 Q Q R S 0 ~ ~ ~ ~ ~ ~ ~ ~ ~ ~ ~ ~ ~ ~ ~ ~ T $ $ $ $ $ $ $ $ $ $ . . ",
". . $ $ $ $ $ U H $ $ $ $ V J ~ ~ ~ ~ ~ ~ ~ ~ ~ ~ ~ ~ ~ ~ ~ ~ ~ ~ ~ W $ $ $ $ $ $ $ $ $ $ . . ",
". . $ $ $ $ $ u $ $ $ $ $ $ R ~ ~ ~ ~ ~ ~ ~ ~ ~ ~ ~ ~ ~ ~ p ~ ~ ~ X n $ $ $ $ $ $ $ $ $ $ . . ",
". . $ $ $ $ $ $ $ $ $ $ $ $ $ z ~ ~ ~ ~ ~ ~ ~ ~ ~ ~ Y > Z 6 `  ...+.$ $ $ $ $ $ $ $ $ $ $ . . ",
". . $ $ $ $ $ $ $ $ $ $ $ $ $ @.#.~ ~ ~ ~ ~ ~ ~ ~ $.$ $ $ $ $ $ | ~ %.$ $ $ $ $ $ $ $ $ $ . . ",
". . $ $ $ $ $ $ $ $ $ $ $ $ $ $ 1 ~ ~ ~ ~ ~ ~ ~ &.) $ $ $ $ $ $ *.=.-.$ $ $ $ $ $ $ $ $ $ . . ",
". . $ $ $ $ $ $ $ $ $ $ $ $ $ $ ;.~ ~ ~ ~ ~ ~ ~ >.$ $ $ $ $ $ $ $ ,.'.u $ $ $ $ $ $ $ $ $ . . ",
". . $ $ $ $ $ $ $ $ $ $ $ $ $ $ L ~ ~ ~ ~ ~ ~ ~ H $ $ $ $ ).!.~.{.W ~ ].$ $ $ $ $ $ $ $ $ . . ",
". . $ $ $ $ $ $ $ $ $ $ $ $ $ ^./.~ ~ ~ ~ ~ ~ p (.$ $ $ $ V _.:.<.) 4 [.$ $ $ $ $ $ $ $ $ . . ",
". . $ $ $ $ $ $ $ $ $ $ $ $ $ ).~ ~ ~ ~ ~ ~ ~ }.$ $ $ $ $ $ $ $ $ $ |.{ E $ $ $ $ $ $ $ $ . . ",
". . $ $ $ $ $ $ $ $ $ $ $ $ $ 1.~ ~ ~ ~ ~ ~ ~ 2.$ $ $ $ $ $ $ $ $ $ / ~ 1 $ $ $ $ $ $ $ $ . . ",
". . $ $ $ $ $ $ $ $ $ $ $ $ 3.~ ~ ~ ~ ~ ~ ~ ~ #.$ $ $ $ $ $ $ $ *._.~ t S $ $ $ $ $ $ $ $ . . ",
". . $ $ $ $ $ $ $ $ $ $ $ $ _ ~ ~ ~ ~ ~ ~ ~ ~ ~ 4.$ $ $ $ $ $ $ {.~ 5.6.$ $ $ $ $ $ $ $ $ . . ",
". . $ $ $ $ $ $ $ $ $ $ $ ].~ ~ ~ ~ ~ ~ ~ ~ ~ ~ 7.$ $ $ $ $ $ $ 9 ~ %.$ $ $ $ $ $ $ $ $ $ . . ",
". . $ $ $ $ $ $ $ $ $ $ 6 8.~ ~ ~ ~ ~ ~ ~ ~ ~ ~ 9.$ $ $ $ $ $ $ 0.~ P $ $ $ $ $ $ $ $ $ $ . . ",
". . $ $ $ $ $ $ $ $ $ $ a.~ ~ ~ ~ ~ ~ ~ ~ ~ ~ =.~ S $ $ $ $ $ $ a.b.6 $ $ $ 6 $ $ $ $ $ $ . . ",
". . $ $ $ $ $ $ $ $ $ @.c.~ ~ ~ ~ ~ ~ ~ ~ ~ d.S ~ e.^.f.w / g.h.M i.$ $ $ $ g.j.$ $ $ $ $ . . ",
". . $ $ $ $ $ $ $ $ $ k.~ ~ ~ ~ ~ ~ ~ ~ ~ $.u l.~ ~ a.$ m.k n.o.~ 2 $ $ $ p.q.l r.$ $ $ $ . . ",
". . $ $ $ $ $ $ $ $ (.s.~ ~ ~ ~ ~ ~ ~ t S $ t.o.~ u.) $ $ $ $ u 4.v.$ $ 4.w.~ ~ }.4.$ $ $ . . ",
". . $ $ $ $ $ $ $ f 6.6 1 x.+.J 4 n.y.<.- :.~ ~ z.A.$ $ $ $ $ $ $ $ $ $ B.~ ~ ~ ~ 5 $ $ $ . . ",
". . $ $ $ $ $ $ $ $.=.r $ $ $ $ $ $ $ j C.~ ~ D.*.$ $ $ $ $ $ $ $ $ $ @.{ ~ ~ ~ ~ e E.$ $ . . ",
". . $ $ $ $ $ $ f >.F.~ w.>.G.K H./ I.~ ~ X a $ $ $ $ $ $ $ $ $ $ $ $ $ C ~ ~ ~ ~ x $ $ $ . . ",
". . $ $ $ $ $ $ $ $ E.J.K.~ ~ ~ ~ ~ ~ L.q <.$ $ $ $ $ $ $ $ $ $ $ $ $ $ $ ( ~ ~ Q $ $ $ $ . . ",
". . $ $ $ $ $ $ $ $ $ $ u M.3.N.O.b P.$ $ $ $ $ $ $ $ $ $ $ $ $ $ $ $ $ $ ) D F E $ $ $ $ . . ",
". . $ $ $ $ $ $ $ $ $ $ $ $ $ $ $ $ $ $ $ $ $ $ $ $ $ $ $ $ $ $ $ $ $ $ $ $ Q.R.$ $ $ $ $ . . ",
". . $ $ $ $ $ $ $ $ $ $ $ $ $ $ $ $ $ $ $ $ $ $ $ $ $ $ $ $ $ $ $ $ $ $ $ S.k $ $ $ $ $ $ . . ",
". . $ $ $ $ $ $ $ $ $ $ $ $ $ $ $ $ $ $ $ $ $ $ $ $ $ $ $ $ $ $ $ $ $ $ Z T.~ F 9.y.$ $ $ . . ",
". . $ $ $ $ $ $ $ $ $ $ $ $ $ $ $ $ $ $ $ $ $ $ $ $ $ $ $ $ $ $ $ $ $ $ U.4 ~ ~ ~ ~ q $ $ . . ",
". . $ $ $ $ $ $ $ $ $ $ $ $ $ $ $ $ $ $ $ $ $ $ $ $ $ $ $ $ $ $ $ $ $ $ 0.~ V.W.9 ~ X.$ $ . . ",
". . $ $ $ $ $ $ $ $ $ $ $ $ $ $ $ $ $ $ $ $ $ $ $ $ $ $ $ $ $ $ $ $ $ $ 0.~ A $ Q.~ X.$ $ . . ",
". . $ $ $ $ $ $ $ $ $ $ $ $ $ $ $ $ $ $ $ $ $ $ $ $ $ $ $ $ $ $ $ $ $ $ 0.~ A $ Q.~ X.$ $ . . ",
". . $ $ $ $ $ $ $ $ $ $ $ $ $ $ $ $ $ $ $ $ $ $ $ $ $ $ $ $ $ $ $ $ $ $ 0.~ A $ Q.~ X.$ $ . . ",
". . $ $ $ $ $ $ $ $ $ $ $ $ $ $ $ $ $ $ $ $ $ $ $ $ $ $ $ $ $ $ $ $ $ $ 0.~ A $ Q.~ X.$ $ . . ",
". . $ $ $ $ $ $ $ $ $ $ $ $ $ $ $ $ $ $ $ $ $ $ $ $ $ $ $ $ $ $ $ $ $ $ 0.~ A $ Q.~ X.$ $ . . ",
". . $ $ $ $ $ $ $ $ $ $ $ $ $ $ $ $ $ $ $ $ $ $ $ $ $ $ $ $ $ $ $ $ $ $ i J ~ ~ ~ ~ Y.$ $ . . ",
". . ' $ $ $ $ $ $ $ $ $ $ $ $ $ $ $ $ $ $ $ $ $ $ $ $ $ $ $ $ $ $ $ $ $ $ j 8.Z.Z.`.u $ $ . . ",
"  .  +$ $ $ $ $ $ $ $ $ $ $ $ $ $ $ $ $ $ $ $ $ $ $ $ $ $ $ $ $ $ $ $ $ $ $ $ $ $ $ $ $ .+.   ",
"  . & ++' $ $ $ $ $ $ $ $ $ $ $ $ $ $ $ $ $ $ $ $ $ $ $ $ $ $ $ $ $ $ $ $ $ $ $ $ $ ' ++@+.   ",
"    . . . . . . . . . . . . . . . . . . . . . . . . . . . . . . . . . . . . . . . . . . .     ",
"        . . . . . . . . . . . . . . . . . . . . . . . . . . . . . . . . . . . . . . .         "};
