/* XPM */
static const char* diamond13_xpm[] = {
"47 62 271 2",
"  	c None",
". 	c #000000",
"+ 	c #2A2A2A",
"@ 	c #B0B0B0",
"# 	c #FCFCFC",
"$ 	c #FFFFFF",
"% 	c #B2B2B2",
"& 	c #2E2E2E",
"* 	c #BABABA",
"= 	c #FDFDFD",
"- 	c #FDD7DE",
"; 	c #FBB7C3",
"> 	c #FEEBEE",
", 	c #FDDCE2",
"' 	c #FDD4DB",
") 	c #FEFEFE",
"! 	c #F87F94",
"~ 	c #F21A3F",
"{ 	c #FBBDC8",
"] 	c #FFFAFA",
"^ 	c #F43C5C",
"/ 	c #F21B40",
"( 	c #FCCCD4",
"_ 	c #F996A7",
": 	c #F76D84",
"< 	c #FAA8B6",
"[ 	c #F32649",
"} 	c #F32548",
"| 	c #FEE8EB",
"1 	c #F43757",
"2 	c #F992A4",
"3 	c #F21D41",
"4 	c #FEEFF1",
"5 	c #F88A9D",
"6 	c #FAACBA",
"7 	c #F32A4D",
"8 	c #F22145",
"9 	c #FDE2E7",
"0 	c #FA9FAE",
"a 	c #F6657D",
"b 	c #FFFCFD",
"c 	c #F44260",
"d 	c #FCC5CE",
"e 	c #FDE0E5",
"f 	c #FCC6CF",
"g 	c #FDE4E8",
"h 	c #FDE1E6",
"i 	c #FCCED6",
"j 	c #FFFBFC",
"k 	c #F54B68",
"l 	c #F43656",
"m 	c #FEF1F3",
"n 	c #F88599",
"o 	c #F6637C",
"p 	c #FEF4F6",
"q 	c #FEEDF0",
"r 	c #FCC2CC",
"s 	c #F99EAE",
"t 	c #FFFEFE",
"u 	c #F998A8",
"v 	c #FFFDFD",
"w 	c #FEF5F7",
"x 	c #F54966",
"y 	c #F87B91",
"z 	c #F88196",
"A 	c #F4405F",
"B 	c #FEE8EC",
"C 	c #F33052",
"D 	c #F22044",
"E 	c #FDE3E8",
"F 	c #FAACB9",
"G 	c #F55570",
"H 	c #FCD0D7",
"I 	c #F66981",
"J 	c #F65D77",
"K 	c #FEE9EC",
"L 	c #F76F86",
"M 	c #F21C41",
"N 	c #F65A75",
"O 	c #FCD1D8",
"P 	c #F66C84",
"Q 	c #F65A74",
"R 	c #F55772",
"S 	c #F32C4E",
"T 	c #F6627C",
"U 	c #F21E42",
"V 	c #F33555",
"W 	c #F76981",
"X 	c #F65E78",
"Y 	c #F54765",
"Z 	c #FEECEF",
"` 	c #FFF7F8",
" .	c #FAAAB8",
"..	c #FCBDC7",
"+.	c #F21E43",
"@.	c #FDDEE3",
"#.	c #F76E86",
"$.	c #F32245",
"%.	c #F43C5B",
"&.	c #F54664",
"*.	c #FAABB8",
"=.	c #F88C9F",
"-.	c #FFF8F9",
";.	c #F88498",
">.	c #F32C4F",
",.	c #F77B91",
"'.	c #F76D85",
").	c #F32346",
"!.	c #FEE6EA",
"~.	c #F998A9",
"{.	c #F88699",
"].	c #F88397",
"^.	c #F88297",
"/.	c #F88296",
"(.	c #F88195",
"_.	c #FCCAD3",
":.	c #FEF2F4",
"<.	c #FCC9D2",
"[.	c #FAA5B4",
"}.	c #F54865",
"|.	c #FBBEC8",
"1.	c #F5516D",
"2.	c #FEF3F5",
"3.	c #F66880",
"4.	c #F999AA",
"5.	c #FAADBA",
"6.	c #FCC8D1",
"7.	c #F33959",
"8.	c #F33758",
"9.	c #F66079",
"0.	c #F43E5E",
"a.	c #F43D5D",
"b.	c #F6667F",
"c.	c #FAAFBC",
"d.	c #FDD8DE",
"e.	c #F54E6B",
"f.	c #F76E85",
"g.	c #F5526E",
"h.	c #F65F79",
"i.	c #F77188",
"j.	c #F7788E",
"k.	c #FFFBFB",
"l.	c #FAB1BD",
"m.	c #F32749",
"n.	c #FEE7EB",
"o.	c #FEF0F2",
"p.	c #F32D4E",
"q.	c #FBB9C4",
"r.	c #F98D9F",
"s.	c #F32246",
"t.	c #FCCDD5",
"u.	c #F66780",
"v.	c #F43A5A",
"w.	c #F43B5B",
"x.	c #F991A3",
"y.	c #F54563",
"z.	c #F5536E",
"A.	c #FAA2B1",
"B.	c #F993A5",
"C.	c #F77187",
"D.	c #F65671",
"E.	c #F77D92",
"F.	c #F997A8",
"G.	c #F55671",
"H.	c #F5536F",
"I.	c #FBB5C1",
"J.	c #F33253",
"K.	c #FEF6F7",
"L.	c #FEE3E7",
"M.	c #FCC0CA",
"N.	c #F32B4D",
"O.	c #F7748B",
"P.	c #FBBCC7",
"Q.	c #F98FA1",
"R.	c #F8899C",
"S.	c #F8859A",
"T.	c #FAA7B5",
"U.	c #F3264A",
"V.	c #F98A9D",
"W.	c #F65974",
"X.	c #F32447",
"Y.	c #F77289",
"Z.	c #FEE5E9",
"`.	c #F6677F",
" +	c #F32F51",
".+	c #F32549",
"++	c #F55A74",
"@+	c #FAAEBB",
"#+	c #F3274A",
"$+	c #F7798F",
"%+	c #F43758",
"&+	c #FCBCC7",
"*+	c #FEECF0",
"=+	c #F33656",
"-+	c #FAA5B3",
";+	c #FAAAB7",
">+	c #F76B83",
",+	c #FBC3CC",
"'+	c #FBB1BE",
")+	c #FCCDD4",
"!+	c #F21D42",
"~+	c #FEF1F4",
"{+	c #FAADBB",
"]+	c #F77087",
"^+	c #F3284B",
"/+	c #F43A59",
"(+	c #FCD2D9",
"_+	c #FDD3DA",
":+	c #FBBFC9",
"<+	c #FBB8C3",
"[+	c #FCD0D8",
"}+	c #F3294B",
"|+	c #FAB1BE",
"1+	c #F43556",
"2+	c #FCC8D0",
"3+	c #FBC4CE",
"4+	c #FEE3E8",
"5+	c #F77C91",
"6+	c #FCC6D0",
"7+	c #FAA9B7",
"8+	c #F8879A",
"9+	c #FFF9FA",
"0+	c #F42E50",
"a+	c #F44462",
"b+	c #F33354",
"c+	c #F99BAB",
"d+	c #F43D5C",
"e+	c #F43859",
"f+	c #FCC4CD",
"g+	c #F3284A",
"h+	c #F88B9D",
"i+	c #FAABB9",
"j+	c #FDD2D9",
"k+	c #F6657E",
"l+	c #FBB4C1",
"m+	c #F6627B",
"n+	c #F21F44",
"o+	c #FCCFD7",
"p+	c #FCC5CF",
"q+	c #F43857",
"r+	c #F32B4E",
"s+	c #FBBBC6",
"t+	c #FEEEF0",
"u+	c #FA9CAC",
"v+	c #F7768C",
"w+	c #F32E50",
"x+	c #F54866",
"y+	c #FAA1B0",
"z+	c #FAA0AF",
"A+	c #F43858",
"B+	c #FDDAE0",
"C+	c #F65772",
"D+	c #F88095",
"E+	c #FEEBEF",
"F+	c #FDD9DF",
"G+	c #F3294C",
"H+	c #F54A68",
"I+	c #F65C77",
"J+	c #F7778D",
"K+	c #F88B9E",
"L+	c #FEEEF1",
"M+	c #F22246",
"N+	c #F99DAD",
"O+	c #F4415F",
"P+	c #FAA6B4",
"Q+	c #F54A67",
"R+	c #F55571",
"S+	c #B6B6B6",
"T+	c #B9B9B9",
"U+	c #B8B8B8",
"V+	c #2F2F2F",
"        . . . . . . . . . . . . . . . . . . . . . . . . . . . . . . . . . . . . . . .         ",
"    . . . . . . . . . . . . . . . . . . . . . . . . . . . . . . . . . . . . . . . . . . .     ",
"  . + @ # $ $ $ $ $ $ $ $ $ $ $ $ $ $ $ $ $ $ $ $ $ $ $ $ $ $ $ $ $ $ $ $ $ $ $ $ $ # % & .   ",
"  . % $ $ $ $ $ $ $ $ $ $ $ $ $ $ $ $ $ $ $ $ $ $ $ $ $ $ $ $ $ $ $ $ $ $ $ $ $ $ $ $ $ * .   ",
". . = $ - ; > $ , ; ' $ $ $ $ $ $ $ $ $ $ $ $ $ $ $ $ $ $ $ $ $ $ $ $ $ $ $ $ $ $ $ $ $ ) . . ",
". . $ $ ! ~ { ] ^ / ( $ $ $ $ $ $ $ $ $ $ $ $ $ $ $ $ $ $ $ $ $ $ $ $ $ $ $ $ $ $ $ $ $ $ . . ",
". . $ $ ! ~ { _ ~ : $ $ $ $ $ $ $ $ $ $ $ $ $ $ $ $ $ $ $ $ $ $ $ $ $ $ $ $ $ $ $ $ $ $ $ . . ",
". . $ $ ! ~ < [ } | $ $ $ $ $ $ $ $ $ $ $ $ $ $ $ $ $ $ $ $ $ $ $ $ $ $ $ $ $ $ $ $ $ $ $ . . ",
". . $ $ ! ~ 1 ~ 2 $ $ $ $ $ $ $ $ $ $ $ $ $ $ $ $ $ $ $ $ $ $ $ $ $ $ $ $ $ $ $ $ $ $ $ $ . . ",
". . $ $ ! ~ ~ 3 4 $ $ $ $ $ $ $ $ $ $ $ $ $ $ $ $ $ $ $ $ $ $ $ $ $ $ $ $ $ $ $ $ $ $ $ $ . . ",
". . $ $ ! ~ ^ ~ 5 $ $ $ $ $ $ $ $ $ $ $ $ $ $ $ $ $ $ $ $ $ $ $ $ $ $ $ $ $ $ $ $ $ $ $ $ . . ",
". . $ $ ! ~ 6 7 8 9 $ $ $ $ $ $ $ $ $ $ $ $ $ $ $ $ $ $ $ $ $ $ $ $ $ $ $ $ $ $ $ $ $ $ $ . . ",
". . $ $ ! ~ { 0 ~ a $ $ $ $ $ $ $ $ $ $ $ $ $ $ $ $ $ $ $ $ $ $ $ $ $ $ $ $ $ $ $ $ $ $ $ . . ",
". . $ $ ! ~ { b c ~ d $ $ $ $ $ $ $ $ $ $ $ $ $ $ $ $ $ $ $ $ $ $ $ $ $ $ $ $ $ $ $ $ $ $ . . ",
". . $ $ e f 4 $ g f , $ $ $ $ $ $ $ $ $ $ $ $ $ $ $ $ $ $ $ $ $ $ $ $ $ $ $ $ $ $ $ $ $ $ . . ",
". . $ $ $ $ $ h i $ $ $ $ $ $ $ $ $ $ $ $ $ $ $ $ $ $ $ $ $ $ $ $ $ $ $ $ $ $ $ $ $ $ $ $ . . ",
". . $ $ $ $ j k l m $ $ $ $ $ $ $ $ $ $ $ $ $ $ $ $ $ $ $ $ $ $ $ $ $ $ $ $ $ $ $ $ $ $ $ . . ",
". . $ $ $ $ n ~ ~ o $ $ $ $ $ $ $ $ $ $ $ $ $ p $ $ $ $ $ q $ $ $ $ $ $ $ $ $ $ $ $ $ $ $ . . ",
". . $ $ $ r / ~ ~ ~ s $ $ $ $ $ $ t u v $ $ w x y b $ $ z A B $ $ $ $ $ $ $ $ $ $ $ $ $ $ . . ",
". . $ $ ] C ~ ~ ~ ~ D E $ $ $ $ $ F 3 G H $ I ~ ~ J K L M ~ N v $ O P > $ $ $ $ $ $ $ $ $ . . ",
". . $ $ $ ! ~ ~ ~ ~ Q t $ $ $ $ $ R ~ ~ S T U ~ ~ ~ V ~ ~ ~ ~ W X } o $ $ $ $ $ $ $ $ $ $ . . ",
". . $ $ $ ] Y ~ ~ C Z $ `  .h $ ..+.~ ~ ~ ~ ~ ~ ~ ~ ~ ~ ~ ~ ~ ~ ~ / F $ $ $ $ $ $ $ $ $ $ . . ",
". . $ $ $ $ @.} M d $ $ $ #.$.^ %.~ ~ ~ ~ ~ ~ ~ ~ ~ ~ ~ ~ ~ ~ ~ ~ &.b $ $ $ $ $ $ $ $ $ $ . . ",
". . $ $ $ $ $ *.=.$ $ $ $ -.k ~ ~ ~ ~ ~ ~ ~ ~ ~ ~ ~ ~ ~ ~ ~ ~ ~ ~ ;.$ $ $ $ $ $ $ $ $ $ $ . . ",
". . $ $ $ $ $ $ t $ $ $ $ $ ( >.~ ~ ~ ~ ~ ~ ~ ~ ~ ~ ~ ~ ~ ~ ~ ~ / ' $ $ $ $ $ $ $ $ $ $ $ . . ",
". . $ $ $ $ $ $ $ $ $ $ $ $ $ ,.~ ~ ~ ~ ~ ~ ~ ~ ~ ~ ~ ~ ~ ~ ~ ~ +.h $ $ $ $ $ $ $ $ $ $ $ . . ",
". . $ $ $ $ $ $ $ $ $ $ $ $ $ '.~ ~ ~ ~ ~ ~ ~ ~ ~ ~ ~ ~ ~ ~ ~ ~ ).!.$ $ $ $ $ $ $ $ $ $ $ . . ",
". . $ $ $ $ $ $ $ $ $ $ $ $ $ ~.{.n n ;.;.].].].].].^.^././.(.P 3 _.$ $ $ $ $ $ $ $ $ $ $ . . ",
". . $ $ $ $ $ $ $ $ $ $ $ $ :.G <.[.}.|.;.1.2.3.4.$ $ $ $ 5.6.j 7.(.$ $ $ $ $ $ $ $ $ $ $ . . ",
". . $ $ $ $ $ $ $ $ $ $ $ $ ~.8.` 9.0.` a.b.F / c.$ $ $ d.a.e.:.f.g.$ $ $ $ $ $ $ $ $ $ $ . . ",
". . $ $ $ $ $ $ $ $ $ $ $ $ h.i.K S j.F ~ < : ^ k.$ $ $ $ 2.b $ l.m.n.$ $ $ $ $ $ $ $ $ $ . . ",
". . $ $ $ $ $ $ $ $ $ $ $ o.p.q.r.s.t.u.v.:.8.f.$ $ $ $ $ $ $ $ b w.x.$ $ $ $ $ $ $ $ $ $ . . ",
". . $ $ $ $ $ $ $ $ $ $ $ _ y.t G z.$ A.q.6.3 B.$ $ $ $ $ $ $ $ $ C.9.$ $ $ $ $ $ $ $ $ $ . . ",
". . $ $ $ $ $ $ $ $ $ $ $ D.E.b F.<.$ $ $ $ G.H.v $ $ $ $ $ $ $ $ I.J.K.$ $ $ $ $ $ $ $ $ . . ",
". . $ $ $ $ $ $ $ $ $ $ $ f e $ $ $ $ $ j L.M.N.O.$ $ $ $ ` P.Q.R.S.7 T.$ $ $ $ $ $ $ $ $ . . ",
". . $ $ $ $ $ $ $ $ $ k.o [ U.E.$ $ $ $ V.W.$ s X.Y.j Z.`. +).S .+++: @+$ $ $ $ $ $ $ $ $ . . ",
". . $ $ $ $ $ $ $ $ t I #+3.$+%+&+$ $ *+=+3 -+$ ;+v.g.v.>+,+K '+m.m $ $ $ $ $ $ $ $ $ $ $ . . ",
". . $ $ $ $ $ $ $ $ )+!+;.$ $ ~+{+$ $ ]+S ^+/+(+$ _+%.t.$ $ $ :+~ <+$ $ $ $ $ v $ $ $ $ $ . . ",
". . $ $ $ $ $ $ $ $ Q.M ( $ $ $ $ $ [+}+z |+1+7.2+3+4+$ $ $ $ -.=+5+$ $ $ $ 6+a $ $ $ $ $ . . ",
". . $ $ $ $ $ $ $ $ 7+~ 8+$ $ $ $ @.x x 9+$ H Y 0+(.` $ $ $ $ $ o a+v $ $ 4 b+~ c+$ $ $ $ . . ",
". . $ $ $ $ $ $ $ $ -.d+e+<+$ $ f+a.g+<+$ $ $ 9+h+=+%.]+4.i+,+j+k+M l+$ $ m+~ ~ n+o+$ $ $ . . ",
". . $ $ $ $ $ $ $ $ $ p+q+).g.}.r+A s+$ $ $ $ $ $ t+u+v+g.w+/ } J.x+y+$ z+~ ~ ~ ~ A+:.$ $ . . ",
". . $ $ $ $ $ $ $ $ $ $ B+].C+b.D+E+$ $ $ $ $ $ $ $ $ $ $ p F+q v $ $ $ R ~ ~ ~ ~ ~ d $ $ . . ",
". . $ $ $ $ $ $ $ $ $ $ $ $ $ $ $ $ $ $ $ $ $ $ $ $ $ $ $ $ $ $ $ $ $ $ g G+~ ~ ~ ! $ $ $ . . ",
". . $ $ $ $ $ $ $ $ $ $ $ $ $ $ $ $ $ $ $ $ $ $ $ $ $ $ $ $ $ $ $ $ $ $ $ l+~ ~ H+k.$ $ $ . . ",
". . $ $ $ $ $ $ $ $ $ $ $ $ $ $ $ $ $ $ $ $ $ $ $ $ $ $ $ $ $ $ $ $ $ $ $ $ v+^+9 $ $ $ $ . . ",
". . $ $ $ $ $ $ $ $ $ $ $ $ $ $ $ $ $ $ $ $ $ $ $ $ $ $ $ $ $ $ $ $ $ $ $ $ ` 6+$ $ $ $ $ . . ",
". . $ $ $ $ $ $ $ $ $ $ $ $ $ $ $ $ $ $ $ $ $ $ $ $ $ $ $ $ $ $ $ $ $ $ $ $ $ $ $ $ $ $ $ . . ",
". . $ $ $ $ $ $ $ $ $ $ $ $ $ $ $ $ $ $ $ $ $ $ $ $ $ $ $ $ $ $ $ $ $ $ > G.I+K.$ o X $ $ . . ",
". . $ $ $ $ $ $ $ $ $ $ $ $ $ $ $ $ $ $ $ $ $ $ $ $ $ $ $ $ $ $ $ $ $ $ $ J+~ K+$ w+G+$ $ . . ",
". . $ $ $ $ $ $ $ $ $ $ $ $ $ $ $ $ $ $ $ $ $ $ $ $ $ $ $ $ $ $ $ $ $ $ $ L+G+M+E w+G+$ $ . . ",
". . $ $ $ $ $ $ $ $ $ $ $ $ $ $ $ $ $ $ $ $ $ $ $ $ $ $ $ $ $ $ $ $ $ $ $ $ N+~ k+w+G+$ $ . . ",
". . $ $ $ $ $ $ $ $ $ $ $ $ $ $ $ $ $ $ $ $ $ $ $ $ $ $ $ $ $ $ $ $ $ $ $ $ j O+~ 3 G+$ $ . . ",
". . $ $ $ $ $ $ $ $ $ $ $ $ $ $ $ $ $ $ $ $ $ $ $ $ $ $ $ $ $ $ $ $ $ $ $ $ v }.~ / G+$ $ . . ",
". . $ $ $ $ $ $ $ $ $ $ $ $ $ $ $ $ $ $ $ $ $ $ $ $ $ $ $ $ $ $ $ $ $ $ $ $ P+~ J w+G+$ $ . . ",
". . $ $ $ $ $ $ $ $ $ $ $ $ $ $ $ $ $ $ $ $ $ $ $ $ $ $ $ $ $ $ $ $ $ $ $ :.w+n+@.w+G+$ $ . . ",
". . $ $ $ $ $ $ $ $ $ $ $ $ $ $ $ $ $ $ $ $ $ $ $ $ $ $ $ $ $ $ $ $ $ $ $ D+~ ].$ w+G+$ $ . . ",
". . ) $ $ $ $ $ $ $ $ $ $ $ $ $ $ $ $ $ $ $ $ $ $ $ $ $ $ $ $ $ $ $ $ $ > Q+e.2.$ R+1.$ $ . . ",
"  . S+$ $ $ $ $ $ $ $ $ $ $ $ $ $ $ $ $ $ $ $ $ $ $ $ $ $ $ $ $ $ $ $ $ $ $ $ $ $ $ $ $ T+.   ",
"  . & U+) $ $ $ $ $ $ $ $ $ $ $ $ $ $ $ $ $ $ $ $ $ $ $ $ $ $ $ $ $ $ $ $ $ $ $ $ $ ) U+V+.   ",
"    . . . . . . . . . . . . . . . . . . . . . . . . . . . . . . . . . . . . . . . . . . .     ",
"        . . . . . . . . . . . . . . . . . . . . . . . . . . . . . . . . . . . . . . .         "};
