/* XPM */
static const char* diamond2_xpm[] = {
"47 62 142 2",
"  	c None",
". 	c #000000",
"+ 	c #2E2E2E",
"@ 	c #B2B2B2",
"# 	c #FCFCFC",
"$ 	c #FFFFFF",
"% 	c #B0B0B0",
"& 	c #2A2A2A",
"* 	c #B9B9B9",
"= 	c #FEFEFE",
"- 	c #FFFBFB",
"; 	c #FBB9C4",
"> 	c #FBB7C3",
", 	c #FDE0E5",
"' 	c #FDFDFD",
") 	c #F6617A",
"! 	c #F21A3F",
"~ 	c #F32C4E",
"{ 	c #FDD6DC",
"] 	c #FBBBC6",
"^ 	c #F54B68",
"/ 	c #F88599",
"( 	c #F7768C",
"_ 	c #F6607A",
": 	c #FBBEC9",
"< 	c #F3274A",
"[ 	c #F88B9E",
"} 	c #FDDEE3",
"| 	c #F65F79",
"1 	c #FEF2F4",
"2 	c #F99CAC",
"3 	c #F99AAB",
"4 	c #F8889B",
"5 	c #F54C69",
"6 	c #F3294C",
"7 	c #FCD1D9",
"8 	c #FBBAC5",
"9 	c #F65C76",
"0 	c #FAA9B7",
"a 	c #FDD9DF",
"b 	c #FFFEFE",
"c 	c #FAA1B0",
"d 	c #F88397",
"e 	c #F99AAA",
"f 	c #FAA3B2",
"g 	c #F44462",
"h 	c #F7768D",
"i 	c #F66981",
"j 	c #F21F44",
"k 	c #F22145",
"l 	c #FDD7DD",
"m 	c #FEF4F6",
"n 	c #F43A5A",
"o 	c #F43E5D",
"p 	c #FEF5F7",
"q 	c #FEEEF1",
"r 	c #FCC6CF",
"s 	c #FDD7DE",
"t 	c #F76D84",
"u 	c #F76E85",
"v 	c #FAA2B1",
"w 	c #FAABB8",
"x 	c #FAA8B6",
"y 	c #F77289",
"z 	c #F21B40",
"A 	c #F43959",
"B 	c #F43757",
"C 	c #FBB1BD",
"D 	c #FEE7EB",
"E 	c #FBBDC7",
"F 	c #F65D77",
"G 	c #FAA5B4",
"H 	c #F88296",
"I 	c #FEE5E9",
"J 	c #F54966",
"K 	c #FFFBFC",
"L 	c #FBB5C1",
"M 	c #F33354",
"N 	c #F32649",
"O 	c #FDE4E8",
"P 	c #FEE8EB",
"Q 	c #FAAEBB",
"R 	c #FBB8C4",
"S 	c #FBBDC8",
"T 	c #FFF7F8",
"U 	c #FDE3E8",
"V 	c #FEE9ED",
"W 	c #F54E6B",
"X 	c #F55571",
"Y 	c #FFFDFD",
"Z 	c #FAA4B3",
"` 	c #FDE2E7",
" .	c #F8889C",
"..	c #F98EA0",
"+.	c #FCC4CD",
"@.	c #F21C41",
"#.	c #F21D41",
"$.	c #FEF3F5",
"%.	c #FEEDF0",
"&.	c #F33052",
"*.	c #FEECEF",
"=.	c #FCCDD5",
"-.	c #F43D5C",
";.	c #F65B75",
">.	c #F22044",
",.	c #FDD4DB",
"'.	c #F6667F",
").	c #F6647D",
"!.	c #F54F6B",
"~.	c #FAA0AF",
"{.	c #FEF1F3",
"].	c #FEEFF1",
"^.	c #F21E42",
"/.	c #F21E43",
"(.	c #FCCFD6",
"_.	c #FCC8D1",
":.	c #F5536E",
"<.	c #F88A9D",
"[.	c #F992A4",
"}.	c #F999A9",
"|.	c #FBB6C2",
"1.	c #F6637C",
"2.	c #F55772",
"3.	c #F87D92",
"4.	c #F54865",
"5.	c #FDDBE1",
"6.	c #F88C9F",
"7.	c #FCC3CD",
"8.	c #FDDAE0",
"9.	c #F43858",
"0.	c #F43656",
"a.	c #F33153",
"b.	c #F87C91",
"c.	c #F6657D",
"d.	c #F8879A",
"e.	c #FFF8F9",
"f.	c #F22246",
"g.	c #F44563",
"h.	c #F88196",
"i.	c #B6B6B6",
"j.	c #2F2F2F",
"k.	c #B8B8B8",
"        . . . . . . . . . . . . . . . . . . . . . . . . . . . . . . . . . . . . . . .         ",
"    . . . . . . . . . . . . . . . . . . . . . . . . . . . . . . . . . . . . . . . . . . .     ",
"  . + @ # $ $ $ $ $ $ $ $ $ $ $ $ $ $ $ $ $ $ $ $ $ $ $ $ $ $ $ $ $ $ $ $ $ $ $ $ $ # % & .   ",
"  . * $ $ $ $ $ $ $ $ $ $ $ $ $ $ $ $ $ $ $ $ $ $ $ $ $ $ $ $ $ $ $ $ $ $ $ $ $ $ $ $ $ @ .   ",
". . = $ $ $ - ; > > , $ $ $ $ $ $ $ $ $ $ $ $ $ $ $ $ $ $ $ $ $ $ $ $ $ $ $ $ $ $ $ $ $ ' . . ",
". . $ $ $ - ) ! ! ! ~ { $ $ $ $ $ $ $ $ $ $ $ $ $ $ $ $ $ $ $ $ $ $ $ $ $ $ $ $ $ $ $ $ $ . . ",
". . $ $ $ ] ! ^ / ( ! _ $ $ $ $ $ $ $ $ $ $ $ $ $ $ $ $ $ $ $ $ $ $ $ $ $ $ $ $ $ $ $ $ $ . . ",
". . $ $ $ : < [ $ } ! | $ $ $ $ $ $ $ $ $ $ $ $ $ $ $ $ $ $ $ $ $ $ $ $ $ $ $ $ $ $ $ $ $ . . ",
". . $ $ $ $ 1 2 3 4 ! _ $ $ $ $ $ $ $ $ $ $ $ $ $ $ $ $ $ $ $ $ $ $ $ $ $ $ $ $ $ $ $ $ $ . . ",
". . $ $ $ 1 5 ! ! ! 6 7 $ $ $ $ $ $ $ $ $ $ $ $ $ $ $ $ $ $ $ $ $ $ $ $ $ $ $ $ $ $ $ $ $ . . ",
". . $ $ $ 8 ! 9 0 0 a $ $ $ $ $ $ $ $ $ $ $ b c $ $ $ $ $ $ $ $ $ $ $ $ $ $ $ $ $ $ $ $ $ . . ",
". . $ $ $ 8 ! d $ } ! | $ $ $ $ $ $ $ $ $ $ e ! f $ $ $ $ $ $ $ $ $ $ $ $ $ $ $ $ $ $ $ $ . . ",
". . $ $ $ 8 ! g h i ! | $ $ $ $ $ $ $ $ $ 7 j ! k l $ $ $ $ $ $ $ $ $ $ $ $ $ $ $ $ $ $ $ . . ",
". . $ $ $ 8 ! ! ! ! ! | $ $ $ $ $ $ $ $ m n ! ! ! o p $ $ $ $ $ $ $ $ $ $ $ $ $ $ $ $ $ $ . . ",
". . $ $ $ q r r r r r s $ $ $ $ $ $ $ $ t ! ! ! ! ! u $ $ $ $ $ $ $ $ $ $ $ $ $ $ $ $ $ $ . . ",
". . $ $ $ $ $ p v $ $ $ $ $ $ $ $ $ $ w ! ! ! ! ! ! ! x $ $ $ $ $ $ $ $ $ $ $ $ $ $ $ $ $ . . ",
". . $ $ $ $ $ y z : $ $ $ $ $ $ $ $ $ A ! ! ! ! ! ! ! B $ $ $ $ $ $ $ $ $ $ $ $ $ $ $ $ $ . . ",
". . $ $ $ $ C ! ! ~ D $ $ $ $ $ $ $ $ : z ! ! ! ! ! z E $ $ $ $ $ $ $ $ $ $ $ $ $ $ $ $ $ . . ",
". . $ $ $ $ F ! ! ! G $ $ $ $ $ $ $ $ $ H ! ! ! ! ! d $ $ $ $ $ $ $ $ $ $ $ $ $ $ $ $ $ $ . . ",
". . $ $ $ $ I 6 ! F b $ $ $ $ $ $ $ $ $ - J ! ! ! 5 K $ $ $ $ $ $ $ $ $ $ $ $ $ $ $ $ $ $ . . ",
". . $ $ $ $ $ L M q $ $ $ $ $ $ $ $ $ $ $ , N ! 6 O $ $ $ $ $ $ $ $ $ $ $ $ $ $ $ $ $ $ $ . . ",
". . $ $ $ $ $ $ P $ $ $ $ $ $ $ $ $ $ $ $ $ Q ! R $ $ $ $ $ $ $ $ $ $ $ $ $ $ $ $ $ $ $ $ . . ",
". . $ $ $ $ $ $ $ $ $ $ $ $ $ $ $ $ $ $ $ $ $ S $ $ $ $ $ $ $ $ $ $ $ $ $ $ $ $ $ $ $ $ $ . . ",
". . $ $ $ $ $ $ $ $ $ $ $ $ $ $ $ $ $ $ $ $ $ $ $ $ $ $ $ $ $ $ $ $ $ $ $ $ $ $ $ $ $ $ $ . . ",
". . $ $ $ $ $ $ $ $ $ $ $ $ $ $ $ $ $ $ $ $ $ $ $ $ $ $ $ $ $ $ $ $ $ $ $ $ $ $ $ $ $ $ $ . . ",
". . $ $ $ $ $ $ $ $ $ $ $ $ $ $ $ $ $ $ $ $ $ $ $ $ $ $ $ $ $ $ $ $ $ $ $ $ $ $ $ $ $ $ $ . . ",
". . $ $ $ $ $ $ $ $ $ $ $ $ $ $ $ $ $ $ $ $ $ $ $ $ $ $ $ $ $ $ $ $ $ $ $ $ $ $ $ $ $ $ $ . . ",
". . $ $ $ $ $ $ $ $ $ $ $ $ $ $ $ $ $ $ $ $ $ $ $ $ $ $ $ $ $ $ $ $ $ $ $ $ $ $ $ $ $ $ $ . . ",
". . $ $ $ $ $ $ $ $ $ $ $ $ $ $ $ $ $ $ $ $ $ $ $ $ $ $ $ $ $ $ $ $ $ $ $ $ $ $ $ $ $ $ $ . . ",
". . $ $ $ $ $ $ $ $ $ $ $ $ $ $ $ $ $ $ $ $ $ $ $ $ $ $ $ $ $ $ $ $ $ $ $ $ $ $ $ $ $ $ $ . . ",
". . $ $ $ $ $ $ $ $ $ $ $ $ $ $ $ $ $ $ $ $ $ $ $ $ $ $ $ $ $ $ $ $ $ $ $ $ $ $ $ $ $ $ $ . . ",
". . $ $ $ $ $ $ $ $ $ $ $ $ $ $ $ $ $ $ $ $ $ $ $ $ $ $ $ $ $ $ $ $ $ $ $ $ $ $ $ $ $ $ $ . . ",
". . $ $ $ $ $ $ $ $ $ $ $ $ $ $ $ $ $ $ $ $ $ $ $ $ $ $ $ $ $ $ $ $ $ $ $ $ $ $ $ $ $ $ $ . . ",
". . $ $ $ $ $ $ $ $ $ $ $ $ $ $ $ $ $ $ $ $ $ $ $ $ $ $ $ $ $ $ $ $ $ $ $ $ $ $ $ $ $ $ $ . . ",
". . $ $ $ $ $ $ $ $ $ $ $ $ $ $ $ $ $ $ $ $ $ $ $ $ $ $ $ $ $ $ $ $ $ $ $ $ $ $ $ $ $ $ $ . . ",
". . $ $ $ $ $ $ $ $ $ $ $ $ $ $ $ $ $ $ $ $ $ $ $ $ $ $ $ $ $ $ $ $ $ $ $ $ $ $ $ $ $ $ $ . . ",
". . $ $ $ $ $ $ $ $ $ $ $ $ $ $ $ $ $ $ $ $ $ $ $ $ $ $ $ $ $ $ $ $ $ $ $ $ $ $ $ $ $ $ $ . . ",
". . $ $ $ $ $ $ $ $ $ $ $ $ $ $ $ $ $ $ $ $ $ $ $ $ $ $ $ $ $ $ $ $ $ $ $ $ $ $ $ $ $ $ $ . . ",
". . $ $ $ $ $ $ $ $ $ $ $ $ $ $ $ $ $ $ $ $ $ $ $ $ $ $ $ $ $ $ $ $ $ $ $ $ $ $ $ $ $ $ $ . . ",
". . $ $ $ $ $ $ $ $ $ $ $ $ $ $ $ $ $ $ $ $ $ T $ $ $ $ $ $ $ $ $ $ $ $ $ $ $ $ $ $ $ $ $ . . ",
". . $ $ $ $ $ $ $ $ $ $ $ $ $ $ $ $ $ $ $ $ U o V $ $ $ $ $ $ $ $ $ $ $ $ $ $ $ $ $ $ $ $ . . ",
". . $ $ $ $ $ $ $ $ $ $ $ $ $ $ $ $ $ $ $ K W ! X Y $ $ $ $ $ $ $ $ $ $ $ $ $ Z ` $ $ $ $ . . ",
". . $ $ $ $ $ $ $ $ $ $ $ $ $ $ $ $ $ $ $  .! ! ! ..$ $ $ $ $ $ $ $ $ $ $ $ 7 j 5 K $ $ $ . . ",
". . $ $ $ $ $ $ $ $ $ $ $ $ $ $ $ $ $ $ +.@.! ! ! #.r $ $ $ $ $ $ $ $ $ $ $.n ! ! / $ $ $ . . ",
". . $ $ $ $ $ $ $ $ $ $ $ $ $ $ $ $ $ %.&.! ! ! ! ! &.*.$ $ $ $ $ $ $ $ $ =.@.! ! -.b $ $ . . ",
". . $ $ $ $ $ $ $ $ $ $ $ $ $ $ $ $ $ F ! ! ! ! ! ! ! ;.$ $ $ $ $ $ $ $ $ $  .! >.,.$ $ $ . . ",
". . $ $ $ $ $ $ $ $ $ $ $ $ $ $ $ $ $ '.! ! ! ! ! ! ! ).$ $ $ $ $ $ $ $ $ $ K !.~.$ $ $ $ . . ",
". . $ $ $ $ $ $ $ $ $ $ $ $ $ $ $ $ $ 1 B ! ! ! ! ! B {.$ $ $ $ $ $ $ $ $ $ $ ].$ $ $ $ $ . . ",
". . $ $ $ $ $ $ $ $ $ $ $ $ $ $ $ $ $ $ =.^.! ! ! /.(.$ $ $ $ $ $ $ $ $ _.:.:.:.:.:.<.$ $ . . ",
". . $ $ $ $ $ $ $ $ $ $ $ $ $ $ $ $ $ $ $ [.! ! ! }.$ $ $ $ $ $ $ $ $ $ |.! ! ! ! ! 1.$ $ . . ",
". . $ $ $ $ $ $ $ $ $ $ $ $ $ $ $ $ $ $ $ Y 2.! | $ $ $ $ $ $ $ $ $ $ $ |.! 3.V _.! 1.$ $ . . ",
". . $ $ $ $ $ $ $ $ $ $ $ $ $ $ $ $ $ $ $ $ V 4.].$ $ $ $ $ $ $ $ $ $ $ 5.6.7.$ 8.! 1.$ $ . . ",
". . $ $ $ $ $ $ $ $ $ $ $ $ $ $ $ $ $ $ $ $ $ K $ $ $ $ $ $ $ $ $ $ $ $ $ S 9.0.a.! b.$ $ . . ",
". . $ $ $ $ $ $ $ $ $ $ $ $ $ $ $ $ $ $ $ $ $ $ $ $ $ $ $ $ $ $ $ $ $ $ ,.>.>.< < c.- $ $ . . ",
". . $ $ $ $ $ $ $ $ $ $ $ $ $ $ $ $ $ $ $ $ $ $ $ $ $ $ $ $ $ $ $ $ $ $ |.! d.$ ].3 ] $ $ . . ",
". . $ $ $ $ $ $ $ $ $ $ $ $ $ $ $ $ $ $ $ $ $ $ $ $ $ $ $ $ $ $ $ $ $ $ |.! d e.,.! 1.$ $ . . ",
". . $ $ $ $ $ $ $ $ $ $ $ $ $ $ $ $ $ $ $ $ $ $ $ $ $ $ $ $ $ $ $ $ $ $ { f.! ! ! ! [ $ $ . . ",
". . $ $ $ $ $ $ $ $ $ $ $ $ $ $ $ $ $ $ $ $ $ $ $ $ $ $ $ $ $ $ $ $ $ $ $ 7.g.g g h.$ $ = . . ",
"  . * $ $ $ $ $ $ $ $ $ $ $ $ $ $ $ $ $ $ $ $ $ $ $ $ $ $ $ $ $ $ $ $ $ $ $ $ $ $ $ $ $ i..   ",
"  . j.k.= $ $ $ $ $ $ $ $ $ $ $ $ $ $ $ $ $ $ $ $ $ $ $ $ $ $ $ $ $ $ $ $ $ $ $ $ $ = k.+ .   ",
"    . . . . . . . . . . . . . . . . . . . . . . . . . . . . . . . . . . . . . . . . . . .     ",
"        . . . . . . . . . . . . . . . . . . . . . . . . . . . . . . . . . . . . . . .         "};
