/* XPM */
static const char* diamond3_xpm[] = {
"47 62 150 2",
"  	c None",
". 	c #000000",
"+ 	c #2E2E2E",
"@ 	c #B2B2B2",
"# 	c #FCFCFC",
"$ 	c #FFFFFF",
"% 	c #B0B0B0",
"& 	c #2A2A2A",
"* 	c #B9B9B9",
"= 	c #FEFEFE",
"- 	c #FFFBFB",
"; 	c #FBB9C4",
"> 	c #FBB7C3",
", 	c #FDE0E5",
"' 	c #FDFDFD",
") 	c #F6617A",
"! 	c #F21A3F",
"~ 	c #F32C4E",
"{ 	c #FDD6DC",
"] 	c #FBBBC6",
"^ 	c #F54B68",
"/ 	c #F88599",
"( 	c #F7768C",
"_ 	c #F6607A",
": 	c #FBBEC9",
"< 	c #F3274A",
"[ 	c #F88B9E",
"} 	c #FDDEE3",
"| 	c #F65F79",
"1 	c #FAABB9",
"2 	c #F8889B",
"3 	c #F4405F",
"4 	c #F997A8",
"5 	c #F994A5",
"6 	c #FFFEFE",
"7 	c #FAA1B0",
"8 	c #FBBAC5",
"9 	c #F88397",
"0 	c #F99AAA",
"a 	c #FAA3B2",
"b 	c #FBBDC7",
"c 	c #F44462",
"d 	c #F7768D",
"e 	c #F66981",
"f 	c #F6627B",
"g 	c #FCD1D9",
"h 	c #F21F44",
"i 	c #F22145",
"j 	c #FDD7DD",
"k 	c #FFFDFD",
"l 	c #F76E85",
"m 	c #F33253",
"n 	c #FEF4F6",
"o 	c #F43A5A",
"p 	c #F43E5D",
"q 	c #FEF5F7",
"r 	c #FCC7D0",
"s 	c #FCC6CF",
"t 	c #FEE8EB",
"u 	c #F76D84",
"v 	c #FAA2B1",
"w 	c #FAABB8",
"x 	c #FAA8B6",
"y 	c #F77289",
"z 	c #F21B40",
"A 	c #F43959",
"B 	c #F43757",
"C 	c #FBB1BD",
"D 	c #FEE7EB",
"E 	c #F65D77",
"F 	c #FAA5B4",
"G 	c #F88296",
"H 	c #FEE5E9",
"I 	c #F3294C",
"J 	c #F54966",
"K 	c #F54C69",
"L 	c #FFFBFC",
"M 	c #FBB5C1",
"N 	c #F33354",
"O 	c #FEEEF1",
"P 	c #F32649",
"Q 	c #FDE4E8",
"R 	c #FAAEBB",
"S 	c #FBB8C4",
"T 	c #FBBDC8",
"U 	c #FFFAFA",
"V 	c #F44261",
"W 	c #FEECEF",
"X 	c #F5536E",
"Y 	c #F65A74",
"Z 	c #F98EA0",
"` 	c #F993A5",
" .	c #FCC8D1",
"..	c #F21D41",
"+.	c #F21E42",
"@.	c #FCCAD3",
"#.	c #FEEFF1",
"$.	c #F33455",
"%.	c #FFF7F8",
"&.	c #FDE3E8",
"*.	c #FEE9ED",
"=.	c #F54E6B",
"-.	c #F55571",
";.	c #FAA4B3",
">.	c #FDE2E7",
",.	c #F8889C",
"'.	c #FCC4CD",
").	c #F21C41",
"!.	c #FEF3F5",
"~.	c #FEEDF0",
"{.	c #F33052",
"].	c #FCCDD5",
"^.	c #F43D5C",
"/.	c #F65B75",
"(.	c #F22044",
"_.	c #FDD4DB",
":.	c #F6667F",
"<.	c #F6647D",
"[.	c #F54F6B",
"}.	c #FAA0AF",
"|.	c #FEF2F4",
"1.	c #FEF1F3",
"2.	c #F21E43",
"3.	c #FCCFD6",
"4.	c #F5536F",
"5.	c #F990A2",
"6.	c #F992A4",
"7.	c #F999A9",
"8.	c #FDDAE0",
"9.	c #F55772",
"0.	c #FBB6C2",
"a.	c #F87D92",
"b.	c #F6637C",
"c.	c #F54865",
"d.	c #F8879A",
"e.	c #F88C9F",
"f.	c #FCCED6",
"g.	c #F43656",
"h.	c #FDD5DC",
"i.	c #FCCFD7",
"j.	c #FCD2D9",
"k.	c #F99AAB",
"l.	c #FFF8F9",
"m.	c #F22246",
"n.	c #FCC3CD",
"o.	c #F44563",
"p.	c #F88196",
"q.	c #B6B6B6",
"r.	c #2F2F2F",
"s.	c #B8B8B8",
"        . . . . . . . . . . . . . . . . . . . . . . . . . . . . . . . . . . . . . . .         ",
"    . . . . . . . . . . . . . . . . . . . . . . . . . . . . . . . . . . . . . . . . . . .     ",
"  . + @ # $ $ $ $ $ $ $ $ $ $ $ $ $ $ $ $ $ $ $ $ $ $ $ $ $ $ $ $ $ $ $ $ $ $ $ $ $ # % & .   ",
"  . * $ $ $ $ $ $ $ $ $ $ $ $ $ $ $ $ $ $ $ $ $ $ $ $ $ $ $ $ $ $ $ $ $ $ $ $ $ $ $ $ $ @ .   ",
". . = $ $ $ - ; > > , $ $ $ $ $ $ $ $ $ $ $ $ $ $ $ $ $ $ $ $ $ $ $ $ $ $ $ $ $ $ $ $ $ ' . . ",
". . $ $ $ - ) ! ! ! ~ { $ $ $ $ $ $ $ $ $ $ $ $ $ $ $ $ $ $ $ $ $ $ $ $ $ $ $ $ $ $ $ $ $ . . ",
". . $ $ $ ] ! ^ / ( ! _ $ $ $ $ $ $ $ $ $ $ $ $ $ $ $ $ $ $ $ $ $ $ $ $ $ $ $ $ $ $ $ $ $ . . ",
". . $ $ $ : < [ $ } ! | $ $ $ $ $ $ $ $ $ $ $ $ $ $ $ $ $ $ $ $ $ $ $ $ $ $ $ $ $ $ $ $ $ . . ",
". . $ $ $ $ $ $ 1 2 ! | $ $ $ $ $ $ $ $ $ $ $ $ $ $ $ $ $ $ $ $ $ $ $ $ $ $ $ $ $ $ $ $ $ . . ",
". . $ $ $ $ $ $ 3 ! ! 4 $ $ $ $ $ $ $ $ $ $ $ $ $ $ $ $ $ $ $ $ $ $ $ $ $ $ $ $ $ $ $ $ $ . . ",
". . $ $ $ $ $ $ > 5 ! | $ $ $ $ $ $ $ $ $ $ 6 7 $ $ $ $ $ $ $ $ $ $ $ $ $ $ $ $ $ $ $ $ $ . . ",
". . $ $ $ 8 ! 9 $ } ! | $ $ $ $ $ $ $ $ $ $ 0 ! a $ $ $ $ $ $ $ $ $ $ $ $ $ $ $ $ $ $ $ $ . . ",
". . $ $ $ b ! c d e ! f $ $ $ $ $ $ $ $ $ g h ! i j $ $ $ $ $ $ $ $ $ $ $ $ $ $ $ $ $ $ $ . . ",
". . $ $ $ k l ! ! ! m } $ $ $ $ $ $ $ $ n o ! ! ! p q $ $ $ $ $ $ $ $ $ $ $ $ $ $ $ $ $ $ . . ",
". . $ $ $ $ k r s s t $ $ $ $ $ $ $ $ $ u ! ! ! ! ! l $ $ $ $ $ $ $ $ $ $ $ $ $ $ $ $ $ $ . . ",
". . $ $ $ $ $ q v $ $ $ $ $ $ $ $ $ $ w ! ! ! ! ! ! ! x $ $ $ $ $ $ $ $ $ $ $ $ $ $ $ $ $ . . ",
". . $ $ $ $ $ y z : $ $ $ $ $ $ $ $ $ A ! ! ! ! ! ! ! B $ $ $ $ $ $ $ $ $ $ $ $ $ $ $ $ $ . . ",
". . $ $ $ $ C ! ! ~ D $ $ $ $ $ $ $ $ : z ! ! ! ! ! z b $ $ $ $ $ $ $ $ $ $ $ $ $ $ $ $ $ . . ",
". . $ $ $ $ E ! ! ! F $ $ $ $ $ $ $ $ $ G ! ! ! ! ! 9 $ $ $ $ $ $ $ $ $ $ $ $ $ $ $ $ $ $ . . ",
". . $ $ $ $ H I ! E 6 $ $ $ $ $ $ $ $ $ - J ! ! ! K L $ $ $ $ $ $ $ $ $ $ $ $ $ $ $ $ $ $ . . ",
". . $ $ $ $ $ M N O $ $ $ $ $ $ $ $ $ $ $ , P ! I Q $ $ $ $ $ $ $ $ $ $ $ $ $ $ $ $ $ $ $ . . ",
". . $ $ $ $ $ $ t $ $ $ $ $ $ $ $ $ $ $ $ $ R ! S $ $ $ $ $ $ $ $ $ $ $ $ $ $ $ $ $ $ $ $ . . ",
". . $ $ $ $ $ $ $ $ $ $ $ $ $ $ $ $ $ $ $ $ $ T $ $ $ $ $ $ $ $ $ $ $ $ $ $ $ $ $ $ $ $ $ . . ",
". . $ $ $ $ $ $ $ $ $ $ $ $ $ $ $ $ $ $ $ $ $ $ $ $ $ $ $ $ $ $ $ $ $ $ $ $ $ $ $ $ $ $ $ . . ",
". . $ $ $ $ $ $ $ $ $ $ $ $ $ $ $ $ $ $ $ $ $ U $ $ $ $ $ $ $ $ $ $ $ $ $ $ $ $ $ $ $ $ $ . . ",
". . $ $ $ $ $ $ $ $ $ $ $ $ $ $ $ $ $ $ $ $ D V W $ $ $ $ $ $ $ $ $ $ $ $ $ $ $ $ $ $ $ $ . . ",
". . $ $ $ $ $ $ $ $ $ $ $ $ $ $ $ $ $ $ $ k X ! Y 6 $ $ $ $ $ $ $ $ $ $ $ $ $ $ $ $ $ $ $ . . ",
". . $ $ $ $ $ $ $ $ $ $ $ $ $ $ $ $ $ $ $ Z ! ! ! ` $ $ $ $ $ $ $ $ $ $ $ $ $ $ $ $ $ $ $ . . ",
". . $ $ $ $ $ $ $ $ $ $ $ $ $ $ $ $ $ $  ...! ! ! +.@.$ $ $ $ $ $ $ $ $ $ $ $ $ $ $ $ $ $ . . ",
". . $ $ $ $ $ $ $ $ $ $ $ $ $ $ $ $ $ #.$.! ! ! ! ! $.O $ $ $ $ $ $ $ $ $ $ $ $ $ $ $ $ $ . . ",
". . $ $ $ $ $ $ $ $ $ $ $ $ $ $ $ $ $ f ! ! ! ! ! ! ! | $ $ $ $ $ $ $ $ $ $ $ $ $ $ $ $ $ . . ",
". . $ $ $ $ $ $ $ $ $ $ $ $ $ $ $ $ $ f ! ! ! ! ! ! ! | $ $ $ $ $ $ $ $ $ $ $ $ $ $ $ $ $ . . ",
". . $ $ $ $ $ $ $ $ $ $ $ $ $ $ $ $ $ #.$.! ! ! ! ! $.O $ $ $ $ $ $ $ $ $ $ $ $ $ $ $ $ $ . . ",
". . $ $ $ $ $ $ $ $ $ $ $ $ $ $ $ $ $ $  ...! ! ! +.@.$ $ $ $ $ $ $ $ $ $ $ $ $ $ $ $ $ $ . . ",
". . $ $ $ $ $ $ $ $ $ $ $ $ $ $ $ $ $ $ $ Z ! ! ! ` $ $ $ $ $ $ $ $ $ $ $ $ $ $ $ $ $ $ $ . . ",
". . $ $ $ $ $ $ $ $ $ $ $ $ $ $ $ $ $ $ $ k X ! Y 6 $ $ $ $ $ $ $ $ $ $ $ $ $ $ $ $ $ $ $ . . ",
". . $ $ $ $ $ $ $ $ $ $ $ $ $ $ $ $ $ $ $ $ D V W $ $ $ $ $ $ $ $ $ $ $ $ $ $ $ $ $ $ $ $ . . ",
". . $ $ $ $ $ $ $ $ $ $ $ $ $ $ $ $ $ $ $ $ $ U $ $ $ $ $ $ $ $ $ $ $ $ $ $ $ $ $ $ $ $ $ . . ",
". . $ $ $ $ $ $ $ $ $ $ $ $ $ $ $ $ $ $ $ $ $ $ $ $ $ $ $ $ $ $ $ $ $ $ $ $ $ $ $ $ $ $ $ . . ",
". . $ $ $ $ $ $ $ $ $ $ $ $ $ $ $ $ $ $ $ $ $ %.$ $ $ $ $ $ $ $ $ $ $ $ $ $ $ $ $ $ $ $ $ . . ",
". . $ $ $ $ $ $ $ $ $ $ $ $ $ $ $ $ $ $ $ $ &.p *.$ $ $ $ $ $ $ $ $ $ $ $ $ $ $ $ $ $ $ $ . . ",
". . $ $ $ $ $ $ $ $ $ $ $ $ $ $ $ $ $ $ $ L =.! -.k $ $ $ $ $ $ $ $ $ $ $ $ $ ;.>.$ $ $ $ . . ",
". . $ $ $ $ $ $ $ $ $ $ $ $ $ $ $ $ $ $ $ ,.! ! ! Z $ $ $ $ $ $ $ $ $ $ $ $ g h K L $ $ $ . . ",
". . $ $ $ $ $ $ $ $ $ $ $ $ $ $ $ $ $ $ '.).! ! ! ..s $ $ $ $ $ $ $ $ $ $ !.o ! ! / $ $ $ . . ",
". . $ $ $ $ $ $ $ $ $ $ $ $ $ $ $ $ $ ~.{.! ! ! ! ! {.W $ $ $ $ $ $ $ $ $ ].).! ! ^.6 $ $ . . ",
". . $ $ $ $ $ $ $ $ $ $ $ $ $ $ $ $ $ E ! ! ! ! ! ! ! /.$ $ $ $ $ $ $ $ $ $ ,.! (._.$ $ $ . . ",
". . $ $ $ $ $ $ $ $ $ $ $ $ $ $ $ $ $ :.! ! ! ! ! ! ! <.$ $ $ $ $ $ $ $ $ $ L [.}.$ $ $ $ . . ",
". . $ $ $ $ $ $ $ $ $ $ $ $ $ $ $ $ $ |.B ! ! ! ! ! B 1.$ $ $ $ $ $ $ $ $ $ $ #.$ $ $ $ $ . . ",
". . $ $ $ $ $ $ $ $ $ $ $ $ $ $ $ $ $ $ ].+.! ! ! 2.3.$ $ $ $ $ $ $ $ $ $ ].4.X X 5.$ $ $ . . ",
". . $ $ $ $ $ $ $ $ $ $ $ $ $ $ $ $ $ $ $ 6.! ! ! 7.$ $ $ $ $ $ $ $ $ $ 8.< ! ! ! ! 5 $ $ . . ",
". . $ $ $ $ $ $ $ $ $ $ $ $ $ $ $ $ $ $ $ k 9.! | $ $ $ $ $ $ $ $ $ $ $ 0.! a.*. .! b.$ $ . . ",
". . $ $ $ $ $ $ $ $ $ $ $ $ $ $ $ $ $ $ $ $ *.c.#.$ $ $ $ $ $ $ $ $ $ $ 0.! d.$ ~.e.C $ $ . . ",
". . $ $ $ $ $ $ $ $ $ $ $ $ $ $ $ $ $ $ $ $ $ L $ $ $ $ $ $ $ $ $ $ $ $ f...< g.h.$ $ $ $ . . ",
". . $ $ $ $ $ $ $ $ $ $ $ $ $ $ $ $ $ $ $ $ $ $ $ $ $ $ $ $ $ $ $ $ $ $ i.+.(.< j.$ $ $ $ . . ",
". . $ $ $ $ $ $ $ $ $ $ $ $ $ $ $ $ $ $ $ $ $ $ $ $ $ $ $ $ $ $ $ $ $ $ 0.! d.$ #.k.] $ $ . . ",
". . $ $ $ $ $ $ $ $ $ $ $ $ $ $ $ $ $ $ $ $ $ $ $ $ $ $ $ $ $ $ $ $ $ $ 0.! 9 l._.! b.$ $ . . ",
". . $ $ $ $ $ $ $ $ $ $ $ $ $ $ $ $ $ $ $ $ $ $ $ $ $ $ $ $ $ $ $ $ $ $ { m.! ! ! ! [ $ $ . . ",
". . $ $ $ $ $ $ $ $ $ $ $ $ $ $ $ $ $ $ $ $ $ $ $ $ $ $ $ $ $ $ $ $ $ $ $ n.o.c c p.$ $ = . . ",
"  . * $ $ $ $ $ $ $ $ $ $ $ $ $ $ $ $ $ $ $ $ $ $ $ $ $ $ $ $ $ $ $ $ $ $ $ $ $ $ $ $ $ q..   ",
"  . r.s.= $ $ $ $ $ $ $ $ $ $ $ $ $ $ $ $ $ $ $ $ $ $ $ $ $ $ $ $ $ $ $ $ $ $ $ $ $ = s.+ .   ",
"    . . . . . . . . . . . . . . . . . . . . . . . . . . . . . . . . . . . . . . . . . . .     ",
"        . . . . . . . . . . . . . . . . . . . . . . . . . . . . . . . . . . . . . . .         "};
