/* XPM */
static const char* diamond4_xpm[] = {
"47 62 123 2",
"  	c None",
". 	c #000000",
"+ 	c #2E2E2E",
"@ 	c #B2B2B2",
"# 	c #FCFCFC",
"$ 	c #FFFFFF",
"% 	c #B0B0B0",
"& 	c #2A2A2A",
"* 	c #B9B9B9",
"= 	c #FEFEFE",
"- 	c #FBBCC7",
"; 	c #FBBEC9",
"> 	c #FEF4F6",
", 	c #FBB7C3",
"' 	c #FCCFD6",
") 	c #FDFDFD",
"! 	c #F3274A",
"~ 	c #F33052",
"{ 	c #FDDAE0",
"] 	c #F21A3F",
"^ 	c #F6637C",
"/ 	c #F99AAB",
"( 	c #F88699",
"_ 	c #FAAEBB",
": 	c #FAA9B7",
"< 	c #F992A4",
"[ 	c #F76F87",
"} 	c #FEE7EB",
"| 	c #FDE0E5",
"1 	c #F7768C",
"2 	c #F5536E",
"3 	c #FFFCFD",
"4 	c #FFFBFB",
"5 	c #F54A68",
"6 	c #FAA3B2",
"7 	c #FCD2D9",
"8 	c #F21F44",
"9 	c #F88B9E",
"0 	c #F88599",
"a 	c #F22246",
"b 	c #FDD7DD",
"c 	c #F43B5B",
"d 	c #F21C41",
"e 	c #FCC5CE",
"f 	c #FCC2CC",
"g 	c #F21B40",
"h 	c #F43E5D",
"i 	c #FEF5F7",
"j 	c #FEF6F7",
"k 	c #FCC6CF",
"l 	c #FDD8DF",
"m 	c #F76E85",
"n 	c #FEECEF",
"o 	c #FAA2B1",
"p 	c #FAABB9",
"q 	c #F65A74",
"r 	c #FFFEFE",
"s 	c #F65C77",
"t 	c #F77289",
"u 	c #F7748A",
"v 	c #F32F50",
"w 	c #FEF2F4",
"x 	c #FEF3F5",
"y 	c #F77188",
"z 	c #FBB1BD",
"A 	c #F32C4E",
"B 	c #F43A5A",
"C 	c #FBC1CB",
"D 	c #FCC3CD",
"E 	c #F65D77",
"F 	c #FAA5B4",
"G 	c #FCD1D9",
"H 	c #F8889B",
"I 	c #F22044",
"J 	c #FEE5E9",
"K 	c #F3294C",
"L 	c #F99AAA",
"M 	c #F54F6B",
"N 	c #FFFBFC",
"O 	c #F99EAE",
"P 	c #FBB5C1",
"Q 	c #F33354",
"R 	c #FEEEF1",
"S 	c #F32A4D",
"T 	c #F6647D",
"U 	c #FEE8EB",
"V 	c #F33153",
"W 	c #FBB9C4",
"X 	c #F43858",
"Y 	c #FEF1F3",
"Z 	c #FEEBEE",
"` 	c #F33455",
" .	c #FBBDC8",
"..	c #FBB3BF",
"+.	c #F65F79",
"@.	c #FDE2E7",
"#.	c #F66780",
"$.	c #FAA4B3",
"%.	c #F99CAC",
"&.	c #F5526E",
"*.	c #F54D6A",
"=.	c #FAA1B0",
"-.	c #F54C69",
";.	c #FDD3DA",
">.	c #F8899C",
",.	c #FDD4DB",
"'.	c #FCC4CD",
").	c #FCCDD5",
"!.	c #F43D5C",
"~.	c #F8889C",
"{.	c #FAA0AF",
"].	c #FEEFF1",
"^.	c #FCCBD3",
"/.	c #FAA3B1",
"(.	c #FBBAC5",
"_.	c #F88397",
":.	c #F43656",
"<.	c #FBBFCA",
"[.	c #FCC6D0",
"}.	c #F44462",
"|.	c #B6B6B6",
"1.	c #2F2F2F",
"2.	c #B8B8B8",
"        . . . . . . . . . . . . . . . . . . . . . . . . . . . . . . . . . . . . . . .         ",
"    . . . . . . . . . . . . . . . . . . . . . . . . . . . . . . . . . . . . . . . . . . .     ",
"  . + @ # $ $ $ $ $ $ $ $ $ $ $ $ $ $ $ $ $ $ $ $ $ $ $ $ $ $ $ $ $ $ $ $ $ $ $ $ $ # % & .   ",
"  . * $ $ $ $ $ $ $ $ $ $ $ $ $ $ $ $ $ $ $ $ $ $ $ $ $ $ $ $ $ $ $ $ $ $ $ $ $ $ $ $ $ @ .   ",
". . = $ $ $ - ; $ > , ' $ $ $ $ $ $ $ $ $ $ $ $ $ $ $ $ $ $ $ $ $ $ $ $ $ $ $ $ $ $ $ $ ) . . ",
". . $ $ $ $ ! ~ $ { ] ^ $ $ $ $ $ $ $ $ $ $ $ $ $ $ $ $ $ $ $ $ $ $ $ $ $ $ $ $ $ $ $ $ $ . . ",
". . $ $ $ $ ! ~ $ { ] ^ $ $ $ $ $ $ $ $ $ $ $ $ $ $ $ $ $ $ $ $ $ $ $ $ $ $ $ $ $ $ $ $ $ . . ",
". . $ $ $ $ ! ~ $ { ] ^ $ $ $ $ $ $ $ $ $ $ $ $ $ $ $ $ $ $ $ $ $ $ $ $ $ $ $ $ $ $ $ $ $ . . ",
". . $ $ $ $ ! ! / ( ] ^ $ $ $ $ $ $ $ $ $ $ $ $ $ $ $ $ $ $ $ $ $ $ $ $ $ $ $ $ $ $ $ $ $ . . ",
". . $ $ $ $ ! ] ] ] ] ^ $ $ $ $ $ $ $ $ $ $ $ $ $ $ $ $ $ $ $ $ $ $ $ $ $ $ $ $ $ $ $ $ $ . . ",
". . $ $ $ $ _ : : < ] ^ $ $ $ $ $ [ } $ $ $ $ $ $ $ $ $ | 1 $ $ $ $ $ $ $ $ $ $ $ $ $ $ $ . . ",
". . $ $ $ $ $ $ $ { ] ^ $ $ $ $ / ] 2 3 $ $ $ $ $ $ $ 4 5 ] 6 $ $ $ $ $ $ $ $ $ $ $ $ $ $ . . ",
". . $ $ $ $ $ $ $ { ] ^ $ $ $ 7 8 ] ] 9 $ $ $ $ $ $ $ 0 ] ] a b $ $ $ $ $ $ $ $ $ $ $ $ $ . . ",
". . $ $ $ $ $ $ $ { ] ^ $ $ > c ] ] ] d e $ $ $ $ $ f g ] ] ] h i $ $ $ $ $ $ $ $ $ $ $ $ . . ",
". . $ $ $ $ $ $ $ j k l $ $ m ] ] ] ] ] ~ n $ $ $ n ~ ] ] ] ] ] m $ $ $ $ $ $ $ $ $ $ $ $ . . ",
". . $ $ $ $ $ i o $ $ $ $ p ] ] ] ] ] ] ] q r $ $ s ] ] ] ] ] ] ] : $ $ $ $ $ $ $ $ $ $ $ . . ",
". . $ $ $ $ $ t g ; $ $ $ u ] ] ] ] ] ] ] v w $ x ~ ] ] ] ] ] ] ] y $ $ $ $ $ $ $ $ $ $ $ . . ",
". . $ $ $ $ z ] ] A } $ $ x B ] ] ] ] ] g C $ $ $ D g ] ] ] ] ] B x $ $ $ $ $ $ $ $ $ $ $ . . ",
". . $ $ $ $ E ] ] ] F $ $ $ G 8 ] ] ] ] H $ $ $ $ $ 0 ] ] ] ] I 7 $ $ $ $ $ $ $ $ $ $ $ $ . . ",
". . $ $ $ $ J K ] E r $ $ $ $ L ] ] ] M N $ $ $ $ $ 4 5 ] ] ] O $ $ $ $ $ $ $ $ $ $ $ $ $ . . ",
". . $ $ $ $ $ P Q R $ $ $ $ $ r s ] S J $ $ $ $ $ $ $ | ! ] T $ $ $ $ $ $ $ $ $ $ $ $ $ $ . . ",
". . $ $ $ $ $ $ U $ $ $ $ $ $ $ n V W $ $ $ $ $ $ $ $ $ _ X Y $ $ $ $ $ $ $ $ $ $ $ $ $ $ . . ",
". . $ $ $ $ $ $ $ $ $ $ $ $ $ $ $ U $ $ $ $ $ $ $ $ $ $ $ U $ $ $ $ $ $ $ $ $ $ $ $ $ $ $ . . ",
". . $ $ $ $ $ $ $ $ $ $ $ $ $ $ $ $ $ $ $ $ $ $ $ $ $ $ $ $ $ $ $ $ $ $ $ $ $ $ $ $ $ $ $ . . ",
". . $ $ $ $ $ $ $ $ $ $ $ $ $ $ $ $ $ $ $ $ $ $ $ $ $ $ $ $ $ $ $ $ $ $ $ $ $ $ $ $ $ $ $ . . ",
". . $ $ $ $ $ $ $ $ $ $ $ $ $ $ $ $ $ $ $ $ $ $ $ $ $ $ $ $ $ $ $ $ $ $ $ $ $ $ $ $ $ $ $ . . ",
". . $ $ $ $ $ $ $ $ $ $ $ $ $ $ $ $ $ $ $ $ $ $ $ $ $ $ $ $ $ $ $ $ $ $ $ $ $ $ $ $ $ $ $ . . ",
". . $ $ $ $ $ $ $ $ $ $ $ $ $ $ $ $ $ $ $ $ $ $ $ $ $ $ $ $ $ $ $ $ $ $ $ $ $ $ $ $ $ $ $ . . ",
". . $ $ $ $ $ $ $ $ $ $ $ $ $ $ $ $ $ $ $ $ $ $ $ $ $ $ $ $ $ $ $ $ $ $ $ $ $ $ $ $ $ $ $ . . ",
". . $ $ $ $ $ $ $ $ $ $ $ $ $ $ $ $ $ $ $ $ $ $ $ $ $ $ $ $ $ $ $ $ $ $ $ $ $ $ $ $ $ $ $ . . ",
". . $ $ $ $ $ $ $ $ $ $ $ $ $ $ $ $ $ $ $ $ $ $ $ $ $ $ $ $ $ $ $ $ $ $ $ $ $ $ $ $ $ $ $ . . ",
". . $ $ $ $ $ $ $ $ $ $ $ $ $ $ $ $ $ $ $ $ $ $ $ $ $ $ $ $ $ $ $ $ $ $ $ $ $ $ $ $ $ $ $ . . ",
". . $ $ $ $ $ $ $ $ $ $ $ $ $ $ $ $ $ $ $ $ $ $ $ $ $ $ $ $ $ $ $ $ $ $ $ $ $ $ $ $ $ $ $ . . ",
". . $ $ $ $ $ $ $ $ $ $ $ $ $ $ $ $ $ $ $ $ $ $ $ $ $ $ $ $ $ $ $ $ $ $ $ $ $ $ $ $ $ $ $ . . ",
". . $ $ $ $ $ $ $ $ $ $ $ $ $ $ $ $ $ $ $ $ $ $ $ $ $ $ $ $ $ $ $ $ $ $ $ $ $ $ $ $ $ $ $ . . ",
". . $ $ $ $ $ $ $ $ $ $ $ $ $ $ $ $ $ $ $ $ $ $ $ $ $ $ $ $ $ $ $ $ $ $ $ $ $ $ $ $ $ $ $ . . ",
". . $ $ $ $ $ $ $ $ $ $ $ $ $ $ $ $ $ $ $ $ $ $ $ $ $ $ $ $ $ $ $ $ $ $ $ $ $ $ $ $ $ $ $ . . ",
". . $ $ $ $ $ $ $ $ $ $ $ $ $ $ $ $ $ $ $ $ $ $ $ $ $ $ $ $ $ $ $ $ $ $ $ $ $ $ $ $ $ $ $ . . ",
". . $ $ $ $ $ $ $ $ $ $ $ $ $ $ $ $ $ $ $ $ $ $ $ $ $ $ $ $ $ $ $ $ $ $ $ $ $ $ $ $ $ $ $ . . ",
". . $ $ $ $ $ $ $ $ $ $ $ $ $ $ $ Z $ $ $ $ $ $ $ $ $ $ $ Z $ $ $ $ $ $ $ $ $ $ $ $ $ $ $ . . ",
". . $ $ $ $ $ $ $ $ $ $ $ $ $ $ R `  .$ $ $ $ $ $ $ $ $ ..B w $ $ $ $ $ $ $ $ $ $ $ $ $ $ . . ",
". . $ $ $ $ $ $ $ $ $ $ $ $ $ $ +.] A } $ $ $ $ $ $ $ @.! ] #.$ $ $ $ $ $ $ $ $.@.$ $ $ $ . . ",
". . $ $ $ $ $ $ $ $ $ $ $ $ $ %.] ] ] &.3 $ $ $ $ $ N *.] ] ] =.$ $ $ $ $ $ G 8 -.N $ $ $ . . ",
". . $ $ $ $ $ $ $ $ $ $ $ $ ;.8 ] ] ] ] >.$ $ $ $ $ H ] ] ] ] I ,.$ $ $ $ x B ] ] 0 $ $ $ . . ",
". . $ $ $ $ $ $ $ $ $ $ $ > c ] ] ] ] ] d f $ $ $ '.d ] ] ] ] ] c x $ $ $ ).d ] ] !.r $ $ . . ",
". . $ $ $ $ $ $ $ $ $ $ $ u ] ] ] ] ] ] ] v w $ x ~ ] ] ] ] ] ] ] y $ $ $ $ ~.] I ,.$ $ $ . . ",
". . $ $ $ $ $ $ $ $ $ $ $ p ] ] ] ] ] ] ] q r $ $ s ] ] ] ] ] ] ] : $ $ $ $ N M {.$ $ $ $ . . ",
". . $ $ $ $ $ $ $ $ $ $ $ $ m ] ] ] ] ] ~ n $ $ $ n ~ ] ] ] ] ] m $ $ $ $ $ $ ].$ $ $ $ $ . . ",
". . $ $ $ $ $ $ $ $ $ $ $ $ > c ] ] ] d e $ $ $ $ $ f g ] ] ] h i $ $ $ ^.2 /.$ $ $ $ $ $ . . ",
". . $ $ $ $ $ $ $ $ $ $ $ $ $ 7 8 ] ] 9 $ $ $ $ $ $ $ 0 ] ] a b $ $ $ $ (.] _.$ $ $ $ $ $ . . ",
". . $ $ $ $ $ $ $ $ $ $ $ $ $ $ / ] 2 3 $ $ $ $ $ $ $ 4 5 ] 6 $ $ $ $ $ (.] _.$ $ $ $ $ $ . . ",
". . $ $ $ $ $ $ $ $ $ $ $ $ $ $ $ [ } $ $ $ $ $ $ $ $ $ | 1 $ $ $ $ $ $ (.] _.$ $ $ $ $ $ . . ",
". . $ $ $ $ $ $ $ $ $ $ $ $ $ $ $ $ $ $ $ $ $ $ $ $ $ $ $ $ $ $ $ $ $ $ (.] ! :.:.:.<.$ $ . . ",
". . $ $ $ $ $ $ $ $ $ $ $ $ $ $ $ $ $ $ $ $ $ $ $ $ $ $ $ $ $ $ $ $ $ $ (.] I ! I ] P $ $ . . ",
". . $ $ $ $ $ $ $ $ $ $ $ $ $ $ $ $ $ $ $ $ $ $ $ $ $ $ $ $ $ $ $ $ $ $ (.] _.$ H ] P $ $ . . ",
". . $ $ $ $ $ $ $ $ $ $ $ $ $ $ $ $ $ $ $ $ $ $ $ $ $ $ $ $ $ $ $ $ $ $ (.] _.$ H ] P $ $ . . ",
". . $ $ $ $ $ $ $ $ $ $ $ $ $ $ $ $ $ $ $ $ $ $ $ $ $ $ $ $ $ $ $ $ $ $ (.] _.$ H ] P $ $ . . ",
". . $ $ $ $ $ $ $ $ $ $ $ $ $ $ $ $ $ $ $ $ $ $ $ $ $ $ $ $ $ $ $ $ $ $ [.}./ $ O }.'.$ = . . ",
"  . * $ $ $ $ $ $ $ $ $ $ $ $ $ $ $ $ $ $ $ $ $ $ $ $ $ $ $ $ $ $ $ $ $ $ $ $ $ $ $ $ $ |..   ",
"  . 1.2.= $ $ $ $ $ $ $ $ $ $ $ $ $ $ $ $ $ $ $ $ $ $ $ $ $ $ $ $ $ $ $ $ $ $ $ $ $ = 2.+ .   ",
"    . . . . . . . . . . . . . . . . . . . . . . . . . . . . . . . . . . . . . . . . . . .     ",
"        . . . . . . . . . . . . . . . . . . . . . . . . . . . . . . . . . . . . . . .         "};
