/* XPM */
static const char* diamond5_xpm[] = {
"47 62 146 2",
"  	c None",
". 	c #000000",
"+ 	c #2E2E2E",
"@ 	c #B2B2B2",
"# 	c #FCFCFC",
"$ 	c #FFFFFF",
"% 	c #B0B0B0",
"& 	c #2A2A2A",
"* 	c #B9B9B9",
"= 	c #FEFEFE",
"- 	c #FEE9ED",
"; 	c #FBB7C3",
"> 	c #FCCED6",
", 	c #FDFDFD",
"' 	c #FBBAC5",
") 	c #F21A3F",
"! 	c #F65F79",
"~ 	c #F54B68",
"{ 	c #F88599",
"] 	c #FAABB8",
"^ 	c #F88397",
"/ 	c #F5526E",
"( 	c #F993A5",
"_ 	c #FCC7D0",
": 	c #F22044",
"< 	c #FBBDC8",
"[ 	c #FEE5E9",
"} 	c #FAA9B7",
"| 	c #F994A5",
"1 	c #F76F87",
"2 	c #FEE7EB",
"3 	c #FDE0E5",
"4 	c #F7768C",
"5 	c #FDDEE3",
"6 	c #F99AAB",
"7 	c #F5536E",
"8 	c #FFFCFD",
"9 	c #FFFBFB",
"0 	c #F54A68",
"a 	c #FAA3B2",
"b 	c #FBBDC7",
"c 	c #F44462",
"d 	c #F7768D",
"e 	c #F66981",
"f 	c #F6627B",
"g 	c #FCD2D9",
"h 	c #F21F44",
"i 	c #F88B9E",
"j 	c #F22246",
"k 	c #FDD7DD",
"l 	c #FFFDFD",
"m 	c #F76E85",
"n 	c #F33253",
"o 	c #FEF4F6",
"p 	c #F43B5B",
"q 	c #F21C41",
"r 	c #FCC5CE",
"s 	c #FCC2CC",
"t 	c #F21B40",
"u 	c #F43E5D",
"v 	c #FEF5F7",
"w 	c #FCC6CF",
"x 	c #FEE8EB",
"y 	c #F33052",
"z 	c #FEECEF",
"A 	c #FAA2B1",
"B 	c #FAABB9",
"C 	c #F65A74",
"D 	c #FFFEFE",
"E 	c #F65C77",
"F 	c #F77289",
"G 	c #FBBEC9",
"H 	c #F7748A",
"I 	c #F32F50",
"J 	c #FEF2F4",
"K 	c #FEF3F5",
"L 	c #F77188",
"M 	c #FBB1BD",
"N 	c #F32C4E",
"O 	c #F43A5A",
"P 	c #FBC1CB",
"Q 	c #FCC3CD",
"R 	c #F65D77",
"S 	c #FAA5B4",
"T 	c #FCD1D9",
"U 	c #F8889B",
"V 	c #F3294C",
"W 	c #F99AAA",
"X 	c #F54F6B",
"Y 	c #FFFBFC",
"Z 	c #F99EAE",
"` 	c #FBB5C1",
" .	c #F33354",
"..	c #FEEEF1",
"+.	c #F32A4D",
"@.	c #F3274A",
"#.	c #F6647D",
"$.	c #F33153",
"%.	c #FBB9C4",
"&.	c #FAAEBB",
"*.	c #F43858",
"=.	c #FEF1F3",
"-.	c #FFFAFA",
";.	c #F44261",
">.	c #F98EA0",
",.	c #FCC8D1",
"'.	c #F21D41",
").	c #F21E42",
"!.	c #FCCAD3",
"~.	c #FEEFF1",
"{.	c #F33455",
"].	c #FEEBEE",
"^.	c #FBB3BF",
"/.	c #FDE2E7",
"(.	c #F66780",
"_.	c #FAA4B3",
":.	c #F99CAC",
"<.	c #F54D6A",
"[.	c #FAA1B0",
"}.	c #F54C69",
"|.	c #FDD3DA",
"1.	c #F8899C",
"2.	c #FDD4DB",
"3.	c #FCC4CD",
"4.	c #FCCDD5",
"5.	c #F43D5C",
"6.	c #F8889C",
"7.	c #FAA0AF",
"8.	c #F5536F",
"9.	c #F990A2",
"0.	c #FDDAE0",
"a.	c #FBB6C2",
"b.	c #F87D92",
"c.	c #F6637C",
"d.	c #F8879A",
"e.	c #FEEDF0",
"f.	c #F88C9F",
"g.	c #FCCBD3",
"h.	c #F43656",
"i.	c #FAA6B4",
"j.	c #F22145",
"k.	c #FFF8F9",
"l.	c #F88095",
"m.	c #B6B6B6",
"n.	c #2F2F2F",
"o.	c #B8B8B8",
"        . . . . . . . . . . . . . . . . . . . . . . . . . . . . . . . . . . . . . . .         ",
"    . . . . . . . . . . . . . . . . . . . . . . . . . . . . . . . . . . . . . . . . . . .     ",
"  . + @ # $ $ $ $ $ $ $ $ $ $ $ $ $ $ $ $ $ $ $ $ $ $ $ $ $ $ $ $ $ $ $ $ $ $ $ $ $ # % & .   ",
"  . * $ $ $ $ $ $ $ $ $ $ $ $ $ $ $ $ $ $ $ $ $ $ $ $ $ $ $ $ $ $ $ $ $ $ $ $ $ $ $ $ $ @ .   ",
". . = $ $ - ; ; ; ; ; > $ $ $ $ $ $ $ $ $ $ $ $ $ $ $ $ $ $ $ $ $ $ $ $ $ $ $ $ $ $ $ $ , . . ",
". . $ $ $ ' ) ) ) ) ) ! $ $ $ $ $ $ $ $ $ $ $ $ $ $ $ $ $ $ $ $ $ $ $ $ $ $ $ $ $ $ $ $ $ . . ",
". . $ $ $ ' ) ~ { { { ] $ $ $ $ $ $ $ $ $ $ $ $ $ $ $ $ $ $ $ $ $ $ $ $ $ $ $ $ $ $ $ $ $ . . ",
". . $ $ $ ' ) ^ $ $ $ $ $ $ $ $ $ $ $ $ $ $ $ $ $ $ $ $ $ $ $ $ $ $ $ $ $ $ $ $ $ $ $ $ $ . . ",
". . $ $ $ ' ) / ( ( _ $ $ $ $ $ $ $ $ $ $ $ $ $ $ $ $ $ $ $ $ $ $ $ $ $ $ $ $ $ $ $ $ $ $ . . ",
". . $ $ $ ' ) ) ) ) : < $ $ $ $ $ $ $ $ $ $ $ $ $ $ $ $ $ $ $ $ $ $ $ $ $ $ $ $ $ $ $ $ $ . . ",
". . $ $ $ [ } } } | ) ! $ $ $ $ $ 1 2 $ $ $ $ $ $ $ $ $ 3 4 $ $ $ $ $ $ $ $ $ $ $ $ $ $ $ . . ",
". . $ $ $ ' ) ^ $ 5 ) ! $ $ $ $ 6 ) 7 8 $ $ $ $ $ $ $ 9 0 ) a $ $ $ $ $ $ $ $ $ $ $ $ $ $ . . ",
". . $ $ $ b ) c d e ) f $ $ $ g h ) ) i $ $ $ $ $ $ $ { ) ) j k $ $ $ $ $ $ $ $ $ $ $ $ $ . . ",
". . $ $ $ l m ) ) ) n 5 $ $ o p ) ) ) q r $ $ $ $ $ s t ) ) ) u v $ $ $ $ $ $ $ $ $ $ $ $ . . ",
". . $ $ $ $ l _ w w x $ $ $ m ) ) ) ) ) y z $ $ $ z y ) ) ) ) ) m $ $ $ $ $ $ $ $ $ $ $ $ . . ",
". . $ $ $ $ $ v A $ $ $ $ B ) ) ) ) ) ) ) C D $ $ E ) ) ) ) ) ) ) } $ $ $ $ $ $ $ $ $ $ $ . . ",
". . $ $ $ $ $ F t G $ $ $ H ) ) ) ) ) ) ) I J $ K y ) ) ) ) ) ) ) L $ $ $ $ $ $ $ $ $ $ $ . . ",
". . $ $ $ $ M ) ) N 2 $ $ K O ) ) ) ) ) t P $ $ $ Q t ) ) ) ) ) O K $ $ $ $ $ $ $ $ $ $ $ . . ",
". . $ $ $ $ R ) ) ) S $ $ $ T h ) ) ) ) U $ $ $ $ $ { ) ) ) ) : g $ $ $ $ $ $ $ $ $ $ $ $ . . ",
". . $ $ $ $ [ V ) R D $ $ $ $ W ) ) ) X Y $ $ $ $ $ 9 0 ) ) ) Z $ $ $ $ $ $ $ $ $ $ $ $ $ . . ",
". . $ $ $ $ $ `  ...$ $ $ $ $ D E ) +.[ $ $ $ $ $ $ $ 3 @.) #.$ $ $ $ $ $ $ $ $ $ $ $ $ $ . . ",
". . $ $ $ $ $ $ x $ $ $ $ $ $ $ z $.%.$ $ $ $ $ $ $ $ $ &.*.=.$ $ $ $ $ $ $ $ $ $ $ $ $ $ . . ",
". . $ $ $ $ $ $ $ $ $ $ $ $ $ $ $ x $ $ $ $ $ $ $ $ $ $ $ x $ $ $ $ $ $ $ $ $ $ $ $ $ $ $ . . ",
". . $ $ $ $ $ $ $ $ $ $ $ $ $ $ $ $ $ $ $ $ $ $ $ $ $ $ $ $ $ $ $ $ $ $ $ $ $ $ $ $ $ $ $ . . ",
". . $ $ $ $ $ $ $ $ $ $ $ $ $ $ $ $ $ $ $ $ $ -.$ $ $ $ $ $ $ $ $ $ $ $ $ $ $ $ $ $ $ $ $ . . ",
". . $ $ $ $ $ $ $ $ $ $ $ $ $ $ $ $ $ $ $ $ 2 ;.z $ $ $ $ $ $ $ $ $ $ $ $ $ $ $ $ $ $ $ $ . . ",
". . $ $ $ $ $ $ $ $ $ $ $ $ $ $ $ $ $ $ $ l 7 ) C D $ $ $ $ $ $ $ $ $ $ $ $ $ $ $ $ $ $ $ . . ",
". . $ $ $ $ $ $ $ $ $ $ $ $ $ $ $ $ $ $ $ >.) ) ) ( $ $ $ $ $ $ $ $ $ $ $ $ $ $ $ $ $ $ $ . . ",
". . $ $ $ $ $ $ $ $ $ $ $ $ $ $ $ $ $ $ ,.'.) ) ) ).!.$ $ $ $ $ $ $ $ $ $ $ $ $ $ $ $ $ $ . . ",
". . $ $ $ $ $ $ $ $ $ $ $ $ $ $ $ $ $ ~.{.) ) ) ) ) {...$ $ $ $ $ $ $ $ $ $ $ $ $ $ $ $ $ . . ",
". . $ $ $ $ $ $ $ $ $ $ $ $ $ $ $ $ $ f ) ) ) ) ) ) ) ! $ $ $ $ $ $ $ $ $ $ $ $ $ $ $ $ $ . . ",
". . $ $ $ $ $ $ $ $ $ $ $ $ $ $ $ $ $ f ) ) ) ) ) ) ) ! $ $ $ $ $ $ $ $ $ $ $ $ $ $ $ $ $ . . ",
". . $ $ $ $ $ $ $ $ $ $ $ $ $ $ $ $ $ ~.{.) ) ) ) ) {...$ $ $ $ $ $ $ $ $ $ $ $ $ $ $ $ $ . . ",
". . $ $ $ $ $ $ $ $ $ $ $ $ $ $ $ $ $ $ ,.'.) ) ) ).!.$ $ $ $ $ $ $ $ $ $ $ $ $ $ $ $ $ $ . . ",
". . $ $ $ $ $ $ $ $ $ $ $ $ $ $ $ $ $ $ $ >.) ) ) ( $ $ $ $ $ $ $ $ $ $ $ $ $ $ $ $ $ $ $ . . ",
". . $ $ $ $ $ $ $ $ $ $ $ $ $ $ $ $ $ $ $ l 7 ) C D $ $ $ $ $ $ $ $ $ $ $ $ $ $ $ $ $ $ $ . . ",
". . $ $ $ $ $ $ $ $ $ $ $ $ $ $ $ $ $ $ $ $ 2 ;.z $ $ $ $ $ $ $ $ $ $ $ $ $ $ $ $ $ $ $ $ . . ",
". . $ $ $ $ $ $ $ $ $ $ $ $ $ $ $ $ $ $ $ $ $ -.$ $ $ $ $ $ $ $ $ $ $ $ $ $ $ $ $ $ $ $ $ . . ",
". . $ $ $ $ $ $ $ $ $ $ $ $ $ $ $ $ $ $ $ $ $ $ $ $ $ $ $ $ $ $ $ $ $ $ $ $ $ $ $ $ $ $ $ . . ",
". . $ $ $ $ $ $ $ $ $ $ $ $ $ $ $ ].$ $ $ $ $ $ $ $ $ $ $ ].$ $ $ $ $ $ $ $ $ $ $ $ $ $ $ . . ",
". . $ $ $ $ $ $ $ $ $ $ $ $ $ $ ..{.< $ $ $ $ $ $ $ $ $ ^.O J $ $ $ $ $ $ $ $ $ $ $ $ $ $ . . ",
". . $ $ $ $ $ $ $ $ $ $ $ $ $ $ ! ) N 2 $ $ $ $ $ $ $ /.@.) (.$ $ $ $ $ $ $ $ _./.$ $ $ $ . . ",
". . $ $ $ $ $ $ $ $ $ $ $ $ $ :.) ) ) / 8 $ $ $ $ $ Y <.) ) ) [.$ $ $ $ $ $ T h }.Y $ $ $ . . ",
". . $ $ $ $ $ $ $ $ $ $ $ $ |.h ) ) ) ) 1.$ $ $ $ $ U ) ) ) ) : 2.$ $ $ $ K O ) ) { $ $ $ . . ",
". . $ $ $ $ $ $ $ $ $ $ $ o p ) ) ) ) ) q s $ $ $ 3.q ) ) ) ) ) p K $ $ $ 4.q ) ) 5.D $ $ . . ",
". . $ $ $ $ $ $ $ $ $ $ $ H ) ) ) ) ) ) ) I J $ K y ) ) ) ) ) ) ) L $ $ $ $ 6.) : 2.$ $ $ . . ",
". . $ $ $ $ $ $ $ $ $ $ $ B ) ) ) ) ) ) ) C D $ $ E ) ) ) ) ) ) ) } $ $ $ $ Y X 7.$ $ $ $ . . ",
". . $ $ $ $ $ $ $ $ $ $ $ $ m ) ) ) ) ) y z $ $ $ z y ) ) ) ) ) m $ $ $ $ $ $ ~.$ $ $ $ $ . . ",
". . $ $ $ $ $ $ $ $ $ $ $ $ o p ) ) ) q r $ $ $ $ $ s t ) ) ) u v $ $ $ $ 4.8.7 7 9.$ $ $ . . ",
". . $ $ $ $ $ $ $ $ $ $ $ $ $ g h ) ) i $ $ $ $ $ $ $ { ) ) j k $ $ $ $ 0.@.) ) ) ) | $ $ . . ",
". . $ $ $ $ $ $ $ $ $ $ $ $ $ $ 6 ) 7 8 $ $ $ $ $ $ $ 9 0 ) a $ $ $ $ $ a.) b.- ,.) c.$ $ . . ",
". . $ $ $ $ $ $ $ $ $ $ $ $ $ $ $ 1 2 $ $ $ $ $ $ $ $ $ 3 4 $ $ $ $ $ $ a.) d.$ e.f.M $ $ . . ",
". . $ $ $ $ $ $ $ $ $ $ $ $ $ $ $ $ $ $ $ $ $ $ $ $ $ $ $ $ $ $ $ $ $ $ g.t @.h.h.h.d $ $ . . ",
". . $ $ $ $ $ $ $ $ $ $ $ $ $ $ $ $ $ $ $ $ $ $ $ $ $ $ $ $ $ $ $ $ $ $ $ i.j.: h ) c.$ $ . . ",
". . $ $ $ $ $ $ $ $ $ $ $ $ $ $ $ $ $ $ $ $ $ $ $ $ $ $ $ $ $ $ $ $ $ $ $ $ $ $ 0.) c.$ $ . . ",
". . $ $ $ $ $ $ $ $ $ $ $ $ $ $ $ $ $ $ $ $ $ $ $ $ $ $ $ $ $ $ $ $ $ $ l k.k.k.2.) c.$ $ . . ",
". . $ $ $ $ $ $ $ $ $ $ $ $ $ $ $ $ $ $ $ $ $ $ $ $ $ $ $ $ $ $ $ $ $ $ a.) ) ) ) ) c.$ $ . . ",
". . $ $ $ $ $ $ $ $ $ $ $ $ $ $ $ $ $ $ $ $ $ $ $ $ $ $ $ $ $ $ $ $ $ $ 3.c c c c c l.$ = . . ",
"  . * $ $ $ $ $ $ $ $ $ $ $ $ $ $ $ $ $ $ $ $ $ $ $ $ $ $ $ $ $ $ $ $ $ $ $ $ $ $ $ $ $ m..   ",
"  . n.o.= $ $ $ $ $ $ $ $ $ $ $ $ $ $ $ $ $ $ $ $ $ $ $ $ $ $ $ $ $ $ $ $ $ $ $ $ $ = o.+ .   ",
"    . . . . . . . . . . . . . . . . . . . . . . . . . . . . . . . . . . . . . . . . . . .     ",
"        . . . . . . . . . . . . . . . . . . . . . . . . . . . . . . . . . . . . . . .         "};
