/* XPM */
static const char* diamond6_xpm[] = {
"47 62 187 2",
"  	c None",
". 	c #000000",
"+ 	c #2A2A2A",
"@ 	c #B0B0B0",
"# 	c #FCFCFC",
"$ 	c #FFFFFF",
"% 	c #B2B2B2",
"& 	c #FDFDFD",
"* 	c #FFFBFB",
"= 	c #FBB9C4",
"- 	c #FBB7C3",
"; 	c #FDDFE4",
"> 	c #F6637C",
", 	c #F21A3F",
"' 	c #F32B4D",
") 	c #FDD5DC",
"! 	c #FFFEFE",
"~ 	c #FBBDC7",
"{ 	c #F54A68",
"] 	c #F88599",
"^ 	c #F7768D",
"/ 	c #F65F79",
"( 	c #F66780",
"_ 	c #FDD7DE",
": 	c #FCCFD6",
"< 	c #F76F87",
"[ 	c #FBBBC6",
"} 	c #F88296",
"| 	c #FDE1E6",
"1 	c #F3274A",
"2 	c #F66881",
"3 	c #FAA4B3",
"4 	c #F44260",
"5 	c #FFF8F9",
"6 	c #FEF5F7",
"7 	c #F43B5B",
"8 	c #FAADBA",
"9 	c #F5516D",
"0 	c #F993A5",
"a 	c #FCC6D0",
"b 	c #F32447",
"c 	c #F87C91",
"d 	c #FDE2E7",
"e 	c #F22044",
"f 	c #FFFCFD",
"g 	c #F54B68",
"h 	c #F54E6B",
"i 	c #F65B75",
"j 	c #FAA9B7",
"k 	c #F995A6",
"l 	c #F65E78",
"m 	c #F98D9F",
"n 	c #F32E50",
"o 	c #FEEBEE",
"p 	c #FCD2D9",
"q 	c #F21E42",
"r 	c #F6607A",
"s 	c #F21D41",
"t 	c #FCD0D8",
"u 	c #FBBEC9",
"v 	c #F44462",
"w 	c #F76A82",
"x 	c #F6617A",
"y 	c #FEE9EC",
"z 	c #F32C4E",
"A 	c #F8889B",
"B 	c #F32A4D",
"C 	c #FEE7EB",
"D 	c #FFFDFD",
"E 	c #F76E86",
"F 	c #F33153",
"G 	c #FDDDE2",
"H 	c #FBB6C2",
"I 	c #F54966",
"J 	c #FCC7D0",
"K 	c #FCC6CF",
"L 	c #FEE8EB",
"M 	c #F7738A",
"N 	c #F32548",
"O 	c #FDDEE3",
"P 	c #FDDCE2",
"Q 	c #F32347",
"R 	c #FFF7F8",
"S 	c #FAA0AF",
"T 	c #FEF4F6",
"U 	c #F43959",
"V 	c #FAA8B6",
"W 	c #FAA2B1",
"X 	c #F43F5E",
"Y 	c #FEF6F7",
"Z 	c #F21B40",
"` 	c #FCCDD5",
" .	c #F21F44",
"..	c #FDD4DB",
"+.	c #FBB3BF",
"@.	c #FEE6EA",
"#.	c #FAA3B1",
"$.	c #FEF1F3",
"%.	c #FBBAC5",
"&.	c #FEECEF",
"*.	c #F8889C",
"=.	c #FDE0E5",
"-.	c #F990A2",
";.	c #FBBCC7",
">.	c #F55470",
",.	c #F54C69",
"'.	c #F21C41",
").	c #FCC4CD",
"!.	c #F33253",
"~.	c #FEEEF1",
"{.	c #F21E43",
"].	c #FCCFD7",
"^.	c #FCCED6",
"/.	c #F6627B",
"(.	c #F43A5A",
"_.	c #F77188",
":.	c #F7748A",
"<.	c #F22246",
"[.	c #FDDBE1",
"}.	c #FAA1B0",
"|.	c #F65D77",
"1.	c #FCCCD4",
"2.	c #FEEAEE",
"3.	c #F32D4F",
"4.	c #F991A2",
"5.	c #F88A9D",
"6.	c #F33052",
"7.	c #FEEDF0",
"8.	c #FBB8C4",
"9.	c #F5526E",
"0.	c #FFFBFC",
"a.	c #F54A67",
"b.	c #FBC0CA",
"c.	c #FDE4E8",
"d.	c #F8899C",
"e.	c #FCD1D9",
"f.	c #FEF3F5",
"g.	c #F43D5C",
"h.	c #FDD6DC",
"i.	c #F54F6B",
"j.	c #FDE3E8",
"k.	c #F88498",
"l.	c #F87E93",
"m.	c #FEEFF1",
"n.	c #FCC3CD",
"o.	c #FBC1CB",
"p.	c #FCCBD3",
"q.	c #F5536F",
"r.	c #F5536E",
"s.	c #F991A3",
"t.	c #FDD8DF",
"u.	c #F32649",
"v.	c #F997A8",
"w.	c #F6657D",
"x.	c #F6667F",
"y.	c #FDD3DA",
"z.	c #FBB4C0",
"A.	c #F87F94",
"B.	c #FEE9ED",
"C.	c #F6657E",
"D.	c #F3294C",
"E.	c #F3284B",
"F.	c #FBB0BD",
"G.	c #FFF9FA",
"H.	c #FFFAFA",
"I.	c #F44362",
"J.	c #FCC8D1",
"K.	c #F43656",
"L.	c #F76C84",
"M.	c #FDD9DF",
"N.	c #FAA3B2",
"O.	c #F22145",
"P.	c #FEF2F4",
"Q.	c #F43556",
"R.	c #F99AAA",
"S.	c #F99AAB",
"T.	c #F55671",
"U.	c #F88699",
"V.	c #F996A7",
"W.	c #F99CAC",
"X.	c #F98EA0",
"Y.	c #FEFEFE",
"Z.	c #F44563",
"`.	c #F88397",
" +	c #B6B6B6",
".+	c #2E2E2E",
"++	c #B8B8B8",
"        . . . . . . . . . . . . . . . . . . . . . . . . . . . . . . . . . . . . . . .         ",
"    . . . . . . . . . . . . . . . . . . . . . . . . . . . . . . . . . . . . . . . . . . .     ",
"  . + @ # $ $ $ $ $ $ $ $ $ $ $ $ $ $ $ $ $ $ $ $ $ $ $ $ $ $ $ $ $ $ $ $ $ $ $ $ $ # @ + .   ",
"  . % $ $ $ $ $ $ $ $ $ $ $ $ $ $ $ $ $ $ $ $ $ $ $ $ $ $ $ $ $ $ $ $ $ $ $ $ $ $ $ $ $ % .   ",
". . & $ $ * = - - ; $ $ $ $ $ $ $ $ $ $ $ $ $ $ $ $ $ $ $ $ $ $ $ $ $ $ $ $ $ $ $ $ $ $ & . . ",
". . $ $ * > , , , ' ) $ $ $ $ $ $ ! $ $ $ $ $ $ $ $ $ $ $ ! $ $ $ $ $ $ $ $ $ $ $ $ $ $ $ . . ",
". . $ $ ~ , { ] ^ , / $ $ $ $ $ $ ( _ $ $ $ $ $ $ $ $ $ : < $ $ $ $ $ $ $ $ $ $ $ $ $ $ $ . . ",
". . $ $ [ , } $ | 1 2 $ $ $ $ $ 3 , 4 5 $ $ $ $ $ $ $ 6 7 , 8 $ $ $ $ $ $ $ $ $ $ $ $ $ $ . . ",
". . $ $ [ , 9 0 0 a $ $ $ $ $ ; b , , c $ $ $ $ $ $ $ ^ , , 1 d $ $ $ $ $ $ $ $ $ $ $ $ $ . . ",
". . $ $ [ , , , , e ~ $ $ $ f g , , , , ~ $ $ $ $ $ [ , , , , h f $ $ $ $ $ $ $ $ $ $ $ $ . . ",
". . $ $ [ , i j k , l $ $ $ m , , , , , n o $ $ $ o n , , , , , m $ $ $ $ $ $ $ $ $ $ $ $ . . ",
". . $ $ [ , } $ ; , l $ $ p q , , , , , , r $ $ $ > , , , , , , s t $ $ $ $ $ $ $ $ $ $ $ . . ",
". . $ $ u , v ^ w , x $ $ y z , , , , , , ] $ $ $ A , , , , , , B C $ $ $ $ $ $ $ $ $ $ $ . . ",
". . $ $ D E , , , F G $ $ $ H , , , , , I * $ $ $ * I , , , , , H $ $ $ $ $ $ $ $ $ $ $ $ . . ",
". . $ $ $ D J K K L $ $ $ $ $ M , , , N O $ $ $ $ $ P Q , , , ^ $ $ $ $ $ $ $ $ $ $ $ $ $ . . ",
". . $ $ $ $ $ R S $ $ $ $ $ $ T U , , V $ $ $ $ $ $ $ W , , X Y $ $ $ $ $ $ $ $ $ $ $ $ $ . . ",
". . $ $ $ $ $ ^ Z [ $ $ $ $ $ $ ` s ( $ $ $ $ $ $ $ $ $ l  ...$ $ $ $ $ $ $ $ $ $ $ $ $ $ . . ",
". . $ $ $ $ +., , ' @.$ $ $ $ $ $ #.$.$ $ $ $ $ $ $ $ $ o V $ $ $ $ $ $ $ $ $ $ $ $ $ $ $ . . ",
". . $ $ $ $ l , , , 3 $ $ $ $ $ $ $ $ $ $ $ $ $ $ $ $ $ $ $ $ $ $ $ $ $ $ $ $ $ $ $ $ $ $ . . ",
". . $ $ $ $ @.' , i ! $ $ $ $ $ $ $ $ $ $ $ $ $ $ $ $ $ $ $ $ $ $ $ $ $ $ $ $ $ $ $ $ $ $ . . ",
". . $ $ $ $ $ %.F &.$ $ $ $ $ $ $ $ $ $ $ $ $ $ $ $ $ $ $ $ $ $ $ $ $ $ $ $ $ $ $ $ $ $ $ . . ",
". . $ $ $ $ $ $ L $ $ $ $ $ $ $ $ $ $ $ $ $ $ $ $ $ $ $ $ $ $ $ $ $ $ $ $ $ $ $ $ $ $ $ $ . . ",
". . $ $ $ $ $ $ $ $ $ $ $ $ $ $ $ $ $ $ $ $ $ $ $ $ $ $ $ $ $ $ $ $ $ $ $ $ $ $ $ $ $ $ $ . . ",
". . $ $ $ $ $ $ $ $ $ $ $ $ $ $ $ $ $ $ $ $ $ $ $ $ $ $ $ $ $ $ $ $ $ $ $ $ $ $ $ $ $ $ $ . . ",
". . $ $ $ $ $ $ $ $ $ $ $ $ $ $ $ $ $ $ $ $ $ $ $ $ $ $ $ $ $ $ $ $ $ $ $ $ $ $ $ $ $ $ $ . . ",
". . $ $ $ $ $ $ $ $ $ $ $ $ $ $ $ *.C $ $ $ $ $ $ $ $ $ =.-.$ $ $ $ $ $ $ $ $ $ $ $ $ $ $ . . ",
". . $ $ $ $ $ $ $ $ $ $ $ $ $ $ ;., >.D $ $ $ $ $ $ $ f ,.'.).$ $ $ $ $ $ $ $ $ $ $ $ $ $ . . ",
". . $ $ $ $ $ $ $ $ $ $ $ $ $ o n , , 0 $ $ $ $ $ $ $ m , , !.~.$ $ $ $ $ $ $ $ $ $ $ $ $ . . ",
". . $ $ $ $ $ $ $ $ $ $ $ $ $ / , , , {.].$ $ $ $ $ ^.q , , , /.$ $ $ $ $ $ $ $ $ $ $ $ $ . . ",
". . $ $ $ $ $ $ $ $ $ $ $ $ #., , , , , (.T $ $ $ 6 (., , , , , #.$ $ $ $ $ $ $ $ $ $ $ $ . . ",
". . $ $ $ $ $ $ $ $ $ $ $ O Q , , , , , , _.$ $ $ :., , , , , , <.[.$ $ $ $ $ $ $ $ $ $ $ . . ",
". . $ $ $ $ $ $ $ $ $ $ $ G Q , , , , , , _.$ $ $ :., , , , , , <.[.$ $ $ $ $ $ $ $ $ $ $ . . ",
". . $ $ $ $ $ $ $ $ $ $ $ $ W , , , , , U T $ $ $ T U , , , , , }.$ $ $ $ $ $ $ $ $ $ $ $ . . ",
". . $ $ $ $ $ $ $ $ $ $ $ $ $ |., , , q : $ $ $ $ $ 1.s , , , r $ $ $ $ $ $ $ $ $ $ $ $ $ . . ",
". . $ $ $ $ $ $ $ $ $ $ $ $ $ 2.3., , 4.$ $ $ $ $ $ $ 5., , 6.7.$ $ $ $ $ $ $ $ $ $ $ $ $ . . ",
". . $ $ $ $ $ $ $ $ $ $ $ $ $ $ 8., 9.D $ $ $ $ $ $ $ 0.a.Z b.$ $ $ $ $ $ $ $ $ $ $ $ $ $ . . ",
". . $ $ $ $ $ $ $ $ $ $ $ $ $ $ $ } c.$ $ $ $ $ $ $ $ $ G d.$ $ $ $ $ $ $ $ $ $ $ $ $ $ $ . . ",
". . $ $ $ $ $ $ $ $ $ $ $ $ $ $ $ $ $ $ $ $ $ $ $ $ $ $ $ $ $ $ $ $ $ $ $ $ $ $ $ $ $ $ $ . . ",
". . $ $ $ $ $ $ $ $ $ $ $ $ $ $ $ $ $ $ $ $ $ $ $ $ $ $ $ $ $ $ $ $ $ $ $ $ $ $ $ $ $ $ $ . . ",
". . $ $ $ $ $ $ $ $ $ $ $ $ $ $ $ $ $ $ $ $ $ $ $ $ $ $ $ $ $ $ $ $ $ $ $ $ $ $ $ $ $ $ $ . . ",
". . $ $ $ $ $ $ $ $ $ $ $ $ $ $ $ $ $ $ $ $ $ $ $ $ $ $ $ $ $ $ $ $ $ $ $ $ $ $ $ $ $ $ $ . . ",
". . $ $ $ $ $ $ $ $ $ $ $ $ $ $ $ $ $ $ $ $ $ $ $ $ $ $ $ $ $ $ $ $ $ $ $ $ $ 3 d $ $ $ $ . . ",
". . $ $ $ $ $ $ $ $ $ $ $ $ $ $ $ $ $ $ $ $ $ $ $ $ $ $ $ $ $ $ $ $ $ $ $ $ e. .,.0.$ $ $ . . ",
". . $ $ $ $ $ $ $ $ $ $ $ $ $ $ $ $ $ $ $ $ $ $ $ $ $ $ $ $ $ $ $ $ $ $ $ f.(., , ] $ $ $ . . ",
". . $ $ $ $ $ $ $ $ $ $ $ $ $ $ $ $ $ $ $ $ $ $ $ $ $ $ $ $ $ $ $ $ $ $ $ ` '., , g.! $ $ . . ",
". . $ $ $ $ $ $ $ $ $ $ $ $ $ $ $ :.O $ $ $ $ $ $ $ $ $ h.c $ $ $ $ $ $ $ $ *., e ..$ $ $ . . ",
". . $ $ $ $ $ $ $ $ $ $ $ $ $ $ 8 , I * $ $ $ $ $ $ $ 5 4 , H $ $ $ $ $ $ $ 0.i.S $ $ $ $ . . ",
". . $ $ $ $ $ $ $ $ $ $ $ $ $ j.1 , , k.$ $ $ $ $ $ $ l., , B C $ $ $ $ $ $ $ m.$ $ $ $ $ . . ",
". . $ $ $ $ $ $ $ $ $ $ $ $ D 9., , , Z n.$ $ $ $ $ o.Z , , , >.D $ $ $ $ p.q.r.r.s.$ $ $ . . ",
". . $ $ $ $ $ $ $ $ $ $ $ $ 0 , , , , , F ~.$ $ $ m.F , , , , , 0 $ $ $ t.u., , , , v.$ $ . . ",
". . $ $ $ $ $ $ $ $ $ $ $ ) {., , , , , , w.$ $ $ x., , , , , , {.y.$ $ z., A.B.K , C.$ $ . . ",
". . $ $ $ $ $ $ $ $ $ $ $ @.D., , , , , , A.$ $ $ } , , , , , , E.c.$ $ z., d.$ _ , C.$ $ . . ",
". . $ $ $ $ $ $ $ $ $ $ $ $ F., , , , , v G.$ $ $ H.I., , , , , F.$ $ $ J.Z 1 K.F , C.$ $ . . ",
". . $ $ $ $ $ $ $ $ $ $ $ $ $ L., , , <.M.$ $ $ $ $ _ e , , , E $ $ $ $ $ N.O.e  ., C.$ $ . . ",
". . $ $ $ $ $ $ $ $ $ $ $ $ $ P.Q., , S $ $ $ $ $ $ $ R., , U f.$ $ $ $ O S.1.$ _ , C.$ $ . . ",
". . $ $ $ $ $ $ $ $ $ $ $ $ $ $ K './ $ $ $ $ $ $ $ $ ! T.q ^.$ $ $ $ $ z., U.5 e., C.$ $ . . ",
". . $ $ $ $ $ $ $ $ $ $ $ $ $ $ $ V.&.$ $ $ $ $ $ $ $ $ @.W.$ $ $ $ $ $ ..O., , , , X.$ $ . . ",
". . Y.$ $ $ $ $ $ $ $ $ $ $ $ $ $ $ $ $ $ $ $ $ $ $ $ $ $ $ $ $ $ $ $ $ $ o.Z.v v `.$ $ Y.. . ",
"  .  +$ $ $ $ $ $ $ $ $ $ $ $ $ $ $ $ $ $ $ $ $ $ $ $ $ $ $ $ $ $ $ $ $ $ $ $ $ $ $ $ $  +.   ",
"  . .+++Y.$ $ $ $ $ $ $ $ $ $ $ $ $ $ $ $ $ $ $ $ $ $ $ $ $ $ $ $ $ $ $ $ $ $ $ $ $ Y.++.+.   ",
"    . . . . . . . . . . . . . . . . . . . . . . . . . . . . . . . . . . . . . . . . . . .     ",
"        . . . . . . . . . . . . . . . . . . . . . . . . . . . . . . . . . . . . . . .         "};
