/* XPM */
static const char* diamond7_xpm[] = {
"47 62 188 2",
"  	c None",
". 	c #000000",
"+ 	c #2A2A2A",
"@ 	c #B0B0B0",
"# 	c #FCFCFC",
"$ 	c #FFFFFF",
"% 	c #B2B2B2",
"& 	c #FDFDFD",
"* 	c #FDD4DB",
"= 	c #FBB7C3",
"- 	c #FCCFD7",
"; 	c #F7758B",
"> 	c #F21A3F",
", 	c #F8879A",
"' 	c #FFFEFE",
") 	c #FBB5C1",
"! 	c #F88599",
"~ 	c #F43B5B",
"{ 	c #FBBBC6",
"] 	c #F66780",
"^ 	c #FDD7DE",
"/ 	c #FCCFD6",
"( 	c #F76F87",
"_ 	c #FEEEF1",
": 	c #FAA4B3",
"< 	c #F44260",
"[ 	c #FFF8F9",
"} 	c #FEF5F7",
"| 	c #FAADBA",
"1 	c #FEECEF",
"2 	c #F43C5C",
"3 	c #FDDFE4",
"4 	c #F32447",
"5 	c #F87C91",
"6 	c #F7768D",
"7 	c #F3274A",
"8 	c #FDE2E7",
"9 	c #FBB8C4",
"0 	c #F77087",
"a 	c #FFFCFD",
"b 	c #F54B68",
"c 	c #FBBDC7",
"d 	c #F54E6B",
"e 	c #F88498",
"f 	c #F98D9F",
"g 	c #F32E50",
"h 	c #FEEBEE",
"i 	c #F5506C",
"j 	c #FCD2D9",
"k 	c #F21E42",
"l 	c #F6607A",
"m 	c #F6637C",
"n 	c #F21D41",
"o 	c #FCD0D8",
"p 	c #FFFBFB",
"q 	c #F22145",
"r 	c #FEE9EC",
"s 	c #F32C4E",
"t 	c #F8889B",
"u 	c #F32A4D",
"v 	c #FEE7EB",
"w 	c #FCCED6",
"x 	c #F65A74",
"y 	c #FBB6C2",
"z 	c #F54966",
"A 	c #FCC6CF",
"B 	c #FDDEE3",
"C 	c #F7738A",
"D 	c #F32548",
"E 	c #FDDCE2",
"F 	c #F32347",
"G 	c #FFF7F8",
"H 	c #FAA0AF",
"I 	c #FEF4F6",
"J 	c #F43959",
"K 	c #FAA8B6",
"L 	c #FFFAFA",
"M 	c #F7798F",
"N 	c #FAA2B1",
"O 	c #F43F5E",
"P 	c #FEF6F7",
"Q 	c #F21B40",
"R 	c #FCCDD5",
"S 	c #F88397",
"T 	c #F88C9F",
"U 	c #F65E78",
"V 	c #F21F44",
"W 	c #FBB3BF",
"X 	c #F32B4D",
"Y 	c #FEE6EA",
"Z 	c #FAA3B1",
"` 	c #FEF1F3",
" .	c #FCC5CE",
"..	c #F21C41",
"+.	c #FCCAD3",
"@.	c #F33455",
"#.	c #F43656",
"$.	c #FEF2F4",
"%.	c #F65B75",
"&.	c #F66981",
"*.	c #FBBAC5",
"=.	c #F33153",
"-.	c #FAABB8",
";.	c #FEE8EB",
">.	c #F66881",
",.	c #FEF0F2",
"'.	c #F33253",
").	c #F43556",
"!.	c #FCC3CD",
"~.	c #FCC7D0",
"{.	c #F8889C",
"].	c #F87F93",
"^.	c #FDE0E5",
"/.	c #F990A2",
"(.	c #FBBCC7",
"_.	c #F55470",
":.	c #FFFDFD",
"<.	c #F77289",
"[.	c #FFFBFC",
"}.	c #F54C69",
"|.	c #FCC4CD",
"1.	c #F993A5",
"2.	c #F65F79",
"3.	c #F21E43",
"4.	c #F6627B",
"5.	c #F43A5A",
"6.	c #F77188",
"7.	c #F7748A",
"8.	c #F22246",
"9.	c #FDDBE1",
"0.	c #FDDDE2",
"a.	c #FAA1B0",
"b.	c #F65D77",
"c.	c #FCCCD4",
"d.	c #FEEAEE",
"e.	c #F32D4F",
"f.	c #F991A2",
"g.	c #F88A9D",
"h.	c #F33052",
"i.	c #FEEDF0",
"j.	c #F5526E",
"k.	c #F54A67",
"l.	c #FBC0CA",
"m.	c #F88296",
"n.	c #FDE4E8",
"o.	c #F8899C",
"p.	c #FCD1D9",
"q.	c #FEF3F5",
"r.	c #F43D5C",
"s.	c #FDD6DC",
"t.	c #F22044",
"u.	c #F54F6B",
"v.	c #FDE3E8",
"w.	c #F87E93",
"x.	c #FEEFF1",
"y.	c #FBC1CB",
"z.	c #F5536E",
"A.	c #F88B9E",
"B.	c #F995A6",
"C.	c #F992A4",
"D.	c #FDD5DC",
"E.	c #F6657D",
"F.	c #F6667F",
"G.	c #FDD3DA",
"H.	c #F6617A",
"I.	c #FCC6D0",
"J.	c #F3294C",
"K.	c #F87F94",
"L.	c #F3284B",
"M.	c #FBB0BD",
"N.	c #F44462",
"O.	c #FFF9FA",
"P.	c #F44362",
"Q.	c #F76C84",
"R.	c #FDD9DF",
"S.	c #F76E86",
"T.	c #FAABB9",
"U.	c #F87D92",
"V.	c #F99AAA",
"W.	c #F7788E",
"X.	c #FBB1BD",
"Y.	c #F55671",
"Z.	c #F996A7",
"`.	c #F99CAC",
" +	c #FEFEFE",
".+	c #B6B6B6",
"++	c #2E2E2E",
"@+	c #B8B8B8",
"        . . . . . . . . . . . . . . . . . . . . . . . . . . . . . . . . . . . . . . .         ",
"    . . . . . . . . . . . . . . . . . . . . . . . . . . . . . . . . . . . . . . . . . . .     ",
"  . + @ # $ $ $ $ $ $ $ $ $ $ $ $ $ $ $ $ $ $ $ $ $ $ $ $ $ $ $ $ $ $ $ $ $ $ $ $ $ # @ + .   ",
"  . % $ $ $ $ $ $ $ $ $ $ $ $ $ $ $ $ $ $ $ $ $ $ $ $ $ $ $ $ $ $ $ $ $ $ $ $ $ $ $ $ $ % .   ",
". . & $ $ * = = = = - $ $ $ $ $ $ $ $ $ $ $ $ $ $ $ $ $ $ $ $ $ $ $ $ $ $ $ $ $ $ $ $ $ & . . ",
". . $ $ $ ; > > > > , $ $ $ $ $ $ ' $ $ $ $ $ $ $ $ $ $ $ ' $ $ $ $ $ $ $ $ $ $ $ $ $ $ $ . . ",
". . $ $ $ ) ! ! ~ > { $ $ $ $ $ $ ] ^ $ $ $ $ $ $ $ $ $ / ( $ $ $ $ $ $ $ $ $ $ $ $ $ $ $ . . ",
". . $ $ $ $ $ $ ~ > _ $ $ $ $ $ : > < [ $ $ $ $ $ $ $ } ~ > | $ $ $ $ $ $ $ $ $ $ $ $ $ $ . . ",
". . $ $ $ $ $ 1 > 2 $ $ $ $ $ 3 4 > > 5 $ $ $ $ $ $ $ 6 > > 7 8 $ $ $ $ $ $ $ $ $ $ $ $ $ . . ",
". . $ $ $ $ $ 9 > 0 $ $ $ $ a b > > > > c $ $ $ $ $ { > > > > d a $ $ $ $ $ $ $ $ $ $ $ $ . . ",
". . $ $ $ $ $ e > : $ $ $ $ f > > > > > g h $ $ $ h g > > > > > f $ $ $ $ $ $ $ $ $ $ $ $ . . ",
". . $ $ $ $ $ i > ^ $ $ $ j k > > > > > > l $ $ $ m > > > > > > n o $ $ $ $ $ $ $ $ $ $ $ . . ",
". . $ $ $ $ p q 7 ' $ $ $ r s > > > > > > ! $ $ $ t > > > > > > u v $ $ $ $ $ $ $ $ $ $ $ . . ",
". . $ $ $ $ w > x $ $ $ $ $ y > > > > > z p $ $ $ p z > > > > > y $ $ $ $ $ $ $ $ $ $ $ $ . . ",
". . $ $ $ $ h A B $ $ $ $ $ $ C > > > D B $ $ $ $ $ E F > > > 6 $ $ $ $ $ $ $ $ $ $ $ $ $ . . ",
". . $ $ $ $ $ G H $ $ $ $ $ $ I J > > K $ $ L M a $ $ N > > O P $ $ $ $ $ $ $ $ $ $ $ $ $ . . ",
". . $ $ $ $ $ 6 Q { $ $ $ $ $ $ R n ] $ $ $ S > T $ $ $ U V * $ $ $ $ $ $ $ $ $ $ $ $ $ $ . . ",
". . $ $ $ $ W > > X Y $ $ $ $ $ $ Z ` $ $  ...> n +.$ $ h K $ $ $ $ $ $ $ $ $ $ $ $ $ $ $ . . ",
". . $ $ $ $ U > > > : $ $ $ $ $ $ $ $ $ ` @.> > > #.$.$ $ $ $ $ $ $ $ $ $ $ $ $ $ $ $ $ $ . . ",
". . $ $ $ $ Y X > %.' $ $ $ $ $ $ $ $ $ &.> > > > > &.$ $ $ $ $ $ $ $ $ $ $ $ $ $ $ $ $ $ . . ",
". . $ $ $ $ $ *.=.1 $ $ $ $ $ $ $ $ $ | > > > > > > > -.$ $ $ $ $ $ $ $ $ $ $ $ $ $ $ $ $ . . ",
". . $ $ $ $ $ $ ;.$ $ $ $ $ $ $ $ $ $ | > > > > > > > -.$ $ $ $ $ $ $ $ $ $ $ $ $ $ $ $ $ . . ",
". . $ $ $ $ $ $ $ $ $ $ $ $ $ $ $ $ $ $ >.> > > > > ] $ $ $ $ $ $ $ $ $ $ $ $ $ $ $ $ $ $ . . ",
". . $ $ $ $ $ $ $ $ $ $ $ $ $ $ $ $ $ $ ,.'.> > > ).` $ $ $ $ $ $ $ $ $ $ $ $ $ $ $ $ $ $ . . ",
". . $ $ $ $ $ $ $ $ $ $ $ $ $ $ $ $ $ $ $ !.Q > ..~.$ $ $ $ $ $ $ $ $ $ $ $ $ $ $ $ $ $ $ . . ",
". . $ $ $ $ $ $ $ $ $ $ $ $ $ $ $ {.v $ $ $ ].> {.$ $ $ ^./.$ $ $ $ $ $ $ $ $ $ $ $ $ $ $ . . ",
". . $ $ $ $ $ $ $ $ $ $ $ $ $ $ (.> _.:.$ $ [ <.[.$ $ a }...|.$ $ $ $ $ $ $ $ $ $ $ $ $ $ . . ",
". . $ $ $ $ $ $ $ $ $ $ $ $ $ h g > > 1.$ $ $ $ $ $ $ f > > '._ $ $ $ $ $ $ $ $ $ $ $ $ $ . . ",
". . $ $ $ $ $ $ $ $ $ $ $ $ $ 2.> > > 3.- $ $ $ $ $ w k > > > 4.$ $ $ $ $ $ $ $ $ $ $ $ $ . . ",
". . $ $ $ $ $ $ $ $ $ $ $ $ Z > > > > > 5.I $ $ $ } 5.> > > > > Z $ $ $ $ $ $ $ $ $ $ $ $ . . ",
". . $ $ $ $ $ $ $ $ $ $ $ B F > > > > > > 6.$ $ $ 7.> > > > > > 8.9.$ $ $ $ $ $ $ $ $ $ $ . . ",
". . $ $ $ $ $ $ $ $ $ $ $ 0.F > > > > > > 6.$ $ $ 7.> > > > > > 8.9.$ $ $ $ $ $ $ $ $ $ $ . . ",
". . $ $ $ $ $ $ $ $ $ $ $ $ N > > > > > J I $ $ $ I J > > > > > a.$ $ $ $ $ $ $ $ $ $ $ $ . . ",
". . $ $ $ $ $ $ $ $ $ $ $ $ $ b.> > > k / $ $ $ $ $ c.n > > > l $ $ $ $ $ $ $ $ $ $ $ $ $ . . ",
". . $ $ $ $ $ $ $ $ $ $ $ $ $ d.e.> > f.$ $ $ $ $ $ $ g.> > h.i.$ $ $ $ $ $ $ $ $ $ $ $ $ . . ",
". . $ $ $ $ $ $ $ $ $ $ $ $ $ $ 9 > j.:.$ $ $ $ $ $ $ [.k.Q l.$ $ $ $ $ $ $ $ $ $ $ $ $ $ . . ",
". . $ $ $ $ $ $ $ $ $ $ $ $ $ $ $ m.n.$ $ $ $ $ $ $ $ $ 0.o.$ $ $ $ $ $ $ $ $ $ $ $ $ $ $ . . ",
". . $ $ $ $ $ $ $ $ $ $ $ $ $ $ $ $ $ $ $ $ $ $ $ $ $ $ $ $ $ $ $ $ $ $ $ $ $ $ $ $ $ $ $ . . ",
". . $ $ $ $ $ $ $ $ $ $ $ $ $ $ $ $ $ $ $ $ $ $ $ $ $ $ $ $ $ $ $ $ $ $ $ $ $ $ $ $ $ $ $ . . ",
". . $ $ $ $ $ $ $ $ $ $ $ $ $ $ $ $ $ $ $ $ $ $ $ $ $ $ $ $ $ $ $ $ $ $ $ $ $ $ $ $ $ $ $ . . ",
". . $ $ $ $ $ $ $ $ $ $ $ $ $ $ $ $ $ $ $ $ $ $ $ $ $ $ $ $ $ $ $ $ $ $ $ $ $ $ $ $ $ $ $ . . ",
". . $ $ $ $ $ $ $ $ $ $ $ $ $ $ $ $ $ $ $ $ $ $ $ $ $ $ $ $ $ $ $ $ $ $ $ $ $ : 8 $ $ $ $ . . ",
". . $ $ $ $ $ $ $ $ $ $ $ $ $ $ $ $ $ $ $ $ $ $ $ $ $ $ $ $ $ $ $ $ $ $ $ $ p.V }.[.$ $ $ . . ",
". . $ $ $ $ $ $ $ $ $ $ $ $ $ $ $ $ $ $ $ $ $ $ $ $ $ $ $ $ $ $ $ $ $ $ $ q.5.> > ! $ $ $ . . ",
". . $ $ $ $ $ $ $ $ $ $ $ $ $ $ $ $ $ $ $ $ $ $ $ $ $ $ $ $ $ $ $ $ $ $ $ R ..> > r.' $ $ . . ",
". . $ $ $ $ $ $ $ $ $ $ $ $ $ $ $ 7.B $ $ $ $ $ $ $ $ $ s.5 $ $ $ $ $ $ $ $ {.> t.* $ $ $ . . ",
". . $ $ $ $ $ $ $ $ $ $ $ $ $ $ | > z p $ $ $ $ $ $ $ [ < > y $ $ $ $ $ $ $ [.u.H $ $ $ $ . . ",
". . $ $ $ $ $ $ $ $ $ $ $ $ $ v.7 > > e $ $ $ $ $ $ $ w.> > u v $ $ $ $ $ $ $ x.$ $ $ $ $ . . ",
". . $ $ $ $ $ $ $ $ $ $ $ $ :.j.> > > Q !.$ $ $ $ $ y.Q > > > _.:.$ $ $ $ $ j z.A.$ $ $ $ . . ",
". . $ $ $ $ $ $ $ $ $ $ $ $ 1.> > > > > =._ $ $ $ x.=.> > > > > 1.$ $ $ $ $ B.> C.$ $ $ $ . . ",
". . $ $ $ $ $ $ $ $ $ $ $ D.3.> > > > > > E.$ $ $ F.> > > > > > 3.G.$ $ $ $ H.> I.$ $ $ $ . . ",
". . $ $ $ $ $ $ $ $ $ $ $ Y J.> > > > > > K.$ $ $ m.> > > > > > L.n.$ $ $ $ g k P $ $ $ $ . . ",
". . $ $ $ $ $ $ $ $ $ $ $ $ M.> > > > > N.O.$ $ $ L P.> > > > > M.$ $ $ $ ^.> z $ $ $ $ $ . . ",
". . $ $ $ $ $ $ $ $ $ $ $ $ $ Q.> > > 8.R.$ $ $ $ $ ^ t.> > > S.$ $ $ $ $ T.> U.$ $ $ $ $ . . ",
". . $ $ $ $ $ $ $ $ $ $ $ $ $ $.).> > H $ $ $ $ $ $ $ V.> > J q.$ $ $ $ $ W.> X.$ $ $ $ $ . . ",
". . $ $ $ $ $ $ $ $ $ $ $ $ $ $ A ..2.$ $ $ $ $ $ $ $ ' Y.k w $ $ $ $ $ $ N.> B [ O.$ $ $ . . ",
". . $ $ $ $ $ $ $ $ $ $ $ $ $ $ $ Z.1 $ $ $ $ $ $ $ $ $ Y `.$ $ $ $ $ $ q...> > > V $ $ $ . . ",
". .  +$ $ $ $ $ $ $ $ $ $ $ $ $ $ $ $ $ $ $ $ $ $ $ $ $ $ $ $ $ $ $ $ $ j N.N.N.N.k.$ $  +. . ",
"  . .+$ $ $ $ $ $ $ $ $ $ $ $ $ $ $ $ $ $ $ $ $ $ $ $ $ $ $ $ $ $ $ $ $ $ $ $ $ $ $ $ $ .+.   ",
"  . ++@+ +$ $ $ $ $ $ $ $ $ $ $ $ $ $ $ $ $ $ $ $ $ $ $ $ $ $ $ $ $ $ $ $ $ $ $ $ $  +@+++.   ",
"    . . . . . . . . . . . . . . . . . . . . . . . . . . . . . . . . . . . . . . . . . . .     ",
"        . . . . . . . . . . . . . . . . . . . . . . . . . . . . . . . . . . . . . . .         "};
