/* XPM */
static const char* diamond8_xpm[] = {
"47 62 193 2",
"  	c None",
". 	c #000000",
"+ 	c #2A2A2A",
"@ 	c #B0B0B0",
"# 	c #FCFCFC",
"$ 	c #FFFFFF",
"% 	c #B2B2B2",
"& 	c #FDFDFD",
"* 	c #FFFBFB",
"= 	c #FBB9C4",
"- 	c #FBB7C3",
"; 	c #FDDFE4",
"> 	c #F6637C",
", 	c #F21A3F",
"' 	c #F32B4D",
") 	c #FDD5DC",
"! 	c #FFFEFE",
"~ 	c #FBBCC7",
"{ 	c #F54A68",
"] 	c #F88599",
"^ 	c #F7768D",
"/ 	c #F65F79",
"( 	c #F66780",
"_ 	c #FDD7DE",
": 	c #FCCFD6",
"< 	c #F76F87",
"[ 	c #FBBBC6",
"} 	c #F88296",
"| 	c #F65E78",
"1 	c #FAA4B3",
"2 	c #F44260",
"3 	c #FFF8F9",
"4 	c #FEF5F7",
"5 	c #F43B5B",
"6 	c #FAADBA",
"7 	c #F55470",
"8 	c #F99AAB",
"9 	c #F8889C",
"0 	c #F32447",
"a 	c #F87C91",
"b 	c #F3274A",
"c 	c #FDE2E7",
"d 	c #FEE7EB",
"e 	c #F22044",
"f 	c #F991A2",
"g 	c #FFFCFD",
"h 	c #F54B68",
"i 	c #FBBDC7",
"j 	c #F54E6B",
"k 	c #F65B75",
"l 	c #FAA9B7",
"m 	c #F995A6",
"n 	c #F98D9F",
"o 	c #F32E50",
"p 	c #FEEBEE",
"q 	c #FCD2D9",
"r 	c #F21E42",
"s 	c #F6607A",
"t 	c #F21D41",
"u 	c #FCD0D8",
"v 	c #FBBDC8",
"w 	c #F44462",
"x 	c #F76A82",
"y 	c #F6617A",
"z 	c #FEE9EC",
"A 	c #F32C4E",
"B 	c #F8889B",
"C 	c #F32A4D",
"D 	c #FFFDFD",
"E 	c #F76E86",
"F 	c #F33153",
"G 	c #FDDDE2",
"H 	c #FBB6C2",
"I 	c #F54966",
"J 	c #FCC7D0",
"K 	c #FCC6CF",
"L 	c #FEE8EB",
"M 	c #F7738A",
"N 	c #F32548",
"O 	c #FDDEE3",
"P 	c #FDDCE2",
"Q 	c #F32347",
"R 	c #FFF7F8",
"S 	c #FAA0AF",
"T 	c #FEF4F6",
"U 	c #F43959",
"V 	c #FAA8B6",
"W 	c #FFFAFA",
"X 	c #F7798F",
"Y 	c #FAA2B1",
"Z 	c #F43F5E",
"` 	c #FEF6F7",
" .	c #F21B40",
"..	c #FCCDD5",
"+.	c #F88397",
"@.	c #F88C9F",
"#.	c #F21F44",
"$.	c #FDD4DB",
"%.	c #FBB3BF",
"&.	c #FEE6EA",
"*.	c #FAA3B1",
"=.	c #FEF1F3",
"-.	c #FCC5CE",
";.	c #F21C41",
">.	c #FCCAD3",
",.	c #F33455",
"'.	c #F43656",
").	c #FEF2F4",
"!.	c #F66981",
"~.	c #FBBAC5",
"{.	c #FEECEF",
"].	c #FAABB8",
"^.	c #F66881",
"/.	c #FEF0F2",
"(.	c #F33253",
"_.	c #F43556",
":.	c #FCC3CD",
"<.	c #F87F93",
"[.	c #FDE0E5",
"}.	c #F990A2",
"|.	c #F77289",
"1.	c #FFFBFC",
"2.	c #F54C69",
"3.	c #FCC4CD",
"4.	c #F993A5",
"5.	c #FEEEF1",
"6.	c #F21E43",
"7.	c #FCCFD7",
"8.	c #FCCED6",
"9.	c #F6627B",
"0.	c #F43A5A",
"a.	c #F77188",
"b.	c #F7748A",
"c.	c #F22246",
"d.	c #FDDBE1",
"e.	c #FAA1B0",
"f.	c #F65D77",
"g.	c #FCCCD4",
"h.	c #FEEAEE",
"i.	c #F32D4F",
"j.	c #F88A9D",
"k.	c #F33052",
"l.	c #FEEDF0",
"m.	c #FBB8C4",
"n.	c #F5526E",
"o.	c #F54A67",
"p.	c #FBC0CA",
"q.	c #FDE4E8",
"r.	c #F8899C",
"s.	c #FCD1D9",
"t.	c #FEF3F5",
"u.	c #F43D5C",
"v.	c #FDD6DC",
"w.	c #F54F6B",
"x.	c #FDE3E8",
"y.	c #F88498",
"z.	c #F87E93",
"A.	c #FEEFF1",
"B.	c #FBC1CB",
"C.	c #FCCBD3",
"D.	c #F5536F",
"E.	c #F5536E",
"F.	c #F991A3",
"G.	c #FDD8DF",
"H.	c #F32649",
"I.	c #F997A8",
"J.	c #F6657D",
"K.	c #F6667F",
"L.	c #FDD3DA",
"M.	c #FBB4C0",
"N.	c #F87F94",
"O.	c #FEE9ED",
"P.	c #F6657E",
"Q.	c #F3294C",
"R.	c #F3284B",
"S.	c #FBB0BD",
"T.	c #FFF9FA",
"U.	c #F44362",
"V.	c #FCC8D1",
"W.	c #F76C84",
"X.	c #FDD9DF",
"Y.	c #F99AAA",
"Z.	c #F55671",
"`.	c #F88699",
" +	c #F996A7",
".+	c #F99CAC",
"++	c #F22145",
"@+	c #F98EA0",
"#+	c #FEFEFE",
"$+	c #F44563",
"%+	c #B6B6B6",
"&+	c #2E2E2E",
"*+	c #B8B8B8",
"        . . . . . . . . . . . . . . . . . . . . . . . . . . . . . . . . . . . . . . .         ",
"    . . . . . . . . . . . . . . . . . . . . . . . . . . . . . . . . . . . . . . . . . . .     ",
"  . + @ # $ $ $ $ $ $ $ $ $ $ $ $ $ $ $ $ $ $ $ $ $ $ $ $ $ $ $ $ $ $ $ $ $ $ $ $ $ # @ + .   ",
"  . % $ $ $ $ $ $ $ $ $ $ $ $ $ $ $ $ $ $ $ $ $ $ $ $ $ $ $ $ $ $ $ $ $ $ $ $ $ $ $ $ $ % .   ",
". . & $ $ * = - - ; $ $ $ $ $ $ $ $ $ $ $ $ $ $ $ $ $ $ $ $ $ $ $ $ $ $ $ $ $ $ $ $ $ $ & . . ",
". . $ $ * > , , , ' ) $ $ $ $ $ $ ! $ $ $ $ $ $ $ $ $ $ $ ! $ $ $ $ $ $ $ $ $ $ $ $ $ $ $ . . ",
". . $ $ ~ , { ] ^ , / $ $ $ $ $ $ ( _ $ $ $ $ $ $ $ $ $ : < $ $ $ $ $ $ $ $ $ $ $ $ $ $ $ . . ",
". . $ $ [ , } $ ; , | $ $ $ $ $ 1 , 2 3 $ $ $ $ $ $ $ 4 5 , 6 $ $ $ $ $ $ $ $ $ $ $ $ $ $ . . ",
". . $ $ [ , 7 8 9 , | $ $ $ $ ; 0 , , a $ $ $ $ $ $ $ ^ , , b c $ $ $ $ $ $ $ $ $ $ $ $ $ . . ",
". . $ $ d e , , , , f $ $ $ g h , , , , i $ $ $ $ $ [ , , , , j g $ $ $ $ $ $ $ $ $ $ $ $ . . ",
". . $ $ [ , k l m , | $ $ $ n , , , , , o p $ $ $ p o , , , , , n $ $ $ $ $ $ $ $ $ $ $ $ . . ",
". . $ $ [ , } $ ; , | $ $ q r , , , , , , s $ $ $ > , , , , , , t u $ $ $ $ $ $ $ $ $ $ $ . . ",
". . $ $ v , w ^ x , y $ $ z A , , , , , , ] $ $ $ B , , , , , , C d $ $ $ $ $ $ $ $ $ $ $ . . ",
". . $ $ D E , , , F G $ $ $ H , , , , , I * $ $ $ * I , , , , , H $ $ $ $ $ $ $ $ $ $ $ $ . . ",
". . $ $ $ D J K K L $ $ $ $ $ M , , , N O $ $ $ $ $ P Q , , , ^ $ $ $ $ $ $ $ $ $ $ $ $ $ . . ",
". . $ $ $ $ $ R S $ $ $ $ $ $ T U , , V $ $ W X g $ $ Y , , Z ` $ $ $ $ $ $ $ $ $ $ $ $ $ . . ",
". . $ $ $ $ $ ^  .[ $ $ $ $ $ $ ..t ( $ $ $ +., @.$ $ $ | #.$.$ $ $ $ $ $ $ $ $ $ $ $ $ $ . . ",
". . $ $ $ $ %., , ' &.$ $ $ $ $ $ *.=.$ $ -.;., t >.$ $ p V $ $ $ $ $ $ $ $ $ $ $ $ $ $ $ . . ",
". . $ $ $ $ | , , , 1 $ $ $ $ $ $ $ $ $ =.,., , , '.).$ $ $ $ $ $ $ $ $ $ $ $ $ $ $ $ $ $ . . ",
". . $ $ $ $ &.' , k ! $ $ $ $ $ $ $ $ $ !., , , , , !.$ $ $ $ $ $ $ $ $ $ $ $ $ $ $ $ $ $ . . ",
". . $ $ $ $ $ ~.F {.$ $ $ $ $ $ $ $ $ 6 , , , , , , , ].$ $ $ $ $ $ $ $ $ $ $ $ $ $ $ $ $ . . ",
". . $ $ $ $ $ $ L $ $ $ $ $ $ $ $ $ $ 6 , , , , , , , ].$ $ $ $ $ $ $ $ $ $ $ $ $ $ $ $ $ . . ",
". . $ $ $ $ $ $ $ $ $ $ $ $ $ $ $ $ $ $ ^., , , , , ( $ $ $ $ $ $ $ $ $ $ $ $ $ $ $ $ $ $ . . ",
". . $ $ $ $ $ $ $ $ $ $ $ $ $ $ $ $ $ $ /.(., , , _.=.$ $ $ $ $ $ $ $ $ $ $ $ $ $ $ $ $ $ . . ",
". . $ $ $ $ $ $ $ $ $ $ $ $ $ $ $ $ $ $ $ :. ., ;.J $ $ $ $ $ $ $ $ $ $ $ $ $ $ $ $ $ $ $ . . ",
". . $ $ $ $ $ $ $ $ $ $ $ $ $ $ $ 9 d $ $ $ <., 9 $ $ $ [.}.$ $ $ $ $ $ $ $ $ $ $ $ $ $ $ . . ",
". . $ $ $ $ $ $ $ $ $ $ $ $ $ $ ~ , 7 D $ $ 3 |.1.$ $ g 2.;.3.$ $ $ $ $ $ $ $ $ $ $ $ $ $ . . ",
". . $ $ $ $ $ $ $ $ $ $ $ $ $ p o , , 4.$ $ $ $ $ $ $ n , , (.5.$ $ $ $ $ $ $ $ $ $ $ $ $ . . ",
". . $ $ $ $ $ $ $ $ $ $ $ $ $ / , , , 6.7.$ $ $ $ $ 8.r , , , 9.$ $ $ $ $ $ $ $ $ $ $ $ $ . . ",
". . $ $ $ $ $ $ $ $ $ $ $ $ *., , , , , 0.T $ $ $ 4 0., , , , , *.$ $ $ $ $ $ $ $ $ $ $ $ . . ",
". . $ $ $ $ $ $ $ $ $ $ $ O Q , , , , , , a.$ $ $ b., , , , , , c.d.$ $ $ $ $ $ $ $ $ $ $ . . ",
". . $ $ $ $ $ $ $ $ $ $ $ G Q , , , , , , a.$ $ $ b., , , , , , c.d.$ $ $ $ $ $ $ $ $ $ $ . . ",
". . $ $ $ $ $ $ $ $ $ $ $ $ Y , , , , , U T $ $ $ T U , , , , , e.$ $ $ $ $ $ $ $ $ $ $ $ . . ",
". . $ $ $ $ $ $ $ $ $ $ $ $ $ f., , , r : $ $ $ $ $ g.t , , , s $ $ $ $ $ $ $ $ $ $ $ $ $ . . ",
". . $ $ $ $ $ $ $ $ $ $ $ $ $ h.i., , f $ $ $ $ $ $ $ j., , k.l.$ $ $ $ $ $ $ $ $ $ $ $ $ . . ",
". . $ $ $ $ $ $ $ $ $ $ $ $ $ $ m., n.D $ $ W X g $ $ 1.o. .p.$ $ $ $ $ $ $ $ $ $ $ $ $ $ . . ",
". . $ $ $ $ $ $ $ $ $ $ $ $ $ $ $ } q.$ $ $ +., @.$ $ $ G r.$ $ $ $ $ $ $ $ $ $ $ $ $ $ $ . . ",
". . $ $ $ $ $ $ $ $ $ $ $ $ $ $ $ $ $ $ $ -.;., t >.$ $ $ $ $ $ $ $ $ $ $ $ $ $ $ $ $ $ $ . . ",
". . $ $ $ $ $ $ $ $ $ $ $ $ $ $ $ $ $ $ =.,., , , '.).$ $ $ $ $ $ $ $ $ $ $ $ $ $ $ $ $ $ . . ",
". . $ $ $ $ $ $ $ $ $ $ $ $ $ $ $ $ $ $ !., , , , , !.$ $ $ $ $ $ $ $ $ $ $ $ $ $ $ $ $ $ . . ",
". . $ $ $ $ $ $ $ $ $ $ $ $ $ $ $ $ $ 6 , , , , , , , ].$ $ $ $ $ $ $ $ $ $ $ $ $ $ $ $ $ . . ",
". . $ $ $ $ $ $ $ $ $ $ $ $ $ $ $ $ $ 6 , , , , , , , ].$ $ $ $ $ $ $ $ $ $ $ 1 c $ $ $ $ . . ",
". . $ $ $ $ $ $ $ $ $ $ $ $ $ $ $ $ $ $ ^., , , , , ( $ $ $ $ $ $ $ $ $ $ $ s.#.2.1.$ $ $ . . ",
". . $ $ $ $ $ $ $ $ $ $ $ $ $ $ $ $ $ $ /.(., , , _.=.$ $ $ $ $ $ $ $ $ $ t.0., , ] $ $ $ . . ",
". . $ $ $ $ $ $ $ $ $ $ $ $ $ $ $ $ $ $ $ :. ., ;.J $ $ $ $ $ $ $ $ $ $ $ ..;., , u.! $ $ . . ",
". . $ $ $ $ $ $ $ $ $ $ $ $ $ $ $ b.O $ $ $ <., 9 $ $ $ v.a $ $ $ $ $ $ $ $ 9 , e $.$ $ $ . . ",
". . $ $ $ $ $ $ $ $ $ $ $ $ $ $ 6 , I * $ $ 3 |.1.$ $ 3 2 , H $ $ $ $ $ $ $ 1.w.S $ $ $ $ . . ",
". . $ $ $ $ $ $ $ $ $ $ $ $ $ x.b , , y.$ $ $ $ $ $ $ z., , C d $ $ $ $ $ $ $ A.$ $ $ $ $ . . ",
". . $ $ $ $ $ $ $ $ $ $ $ $ D n., , ,  .:.$ $ $ $ $ B. ., , , 7 D $ $ $ $ C.D.E.E.F.$ $ $ . . ",
". . $ $ $ $ $ $ $ $ $ $ $ $ 4., , , , , F 5.$ $ $ A.F , , , , , 4.$ $ $ G.H., , , , I.$ $ . . ",
". . $ $ $ $ $ $ $ $ $ $ $ ) 6., , , , , , J.$ $ $ K., , , , , , 6.L.$ $ M., N.O.K , P.$ $ . . ",
". . $ $ $ $ $ $ $ $ $ $ $ &.Q., , , , , , N.$ $ $ } , , , , , , R.q.$ $ M., r.$ _ , P.$ $ . . ",
". . $ $ $ $ $ $ $ $ $ $ $ $ S., , , , , w T.$ $ $ W U., , , , , S.$ $ $ V. .b '.F , a $ $ . . ",
". . $ $ $ $ $ $ $ $ $ $ $ $ $ W., , , c.X.$ $ $ $ $ _ e , , , E $ $ $ $ ..t e b H., } $ $ . . ",
". . $ $ $ $ $ $ $ $ $ $ $ $ $ )._., , S $ $ $ $ $ $ $ Y., , U t.$ $ $ $ M., r.$ _ , P.$ $ . . ",
". . $ $ $ $ $ $ $ $ $ $ $ $ $ $ K ;./ $ $ $ $ $ $ $ $ ! Z.r 8.$ $ $ $ $ M., `.3 s., P.$ $ . . ",
". . $ $ $ $ $ $ $ $ $ $ $ $ $ $ $  +{.$ $ $ $ $ $ $ $ $ &..+$ $ $ $ $ $ $.++, , , , @+$ $ . . ",
". . #+$ $ $ $ $ $ $ $ $ $ $ $ $ $ $ $ $ $ $ $ $ $ $ $ $ $ $ $ $ $ $ $ $ $ B.$+w w +.$ $ #+. . ",
"  . %+$ $ $ $ $ $ $ $ $ $ $ $ $ $ $ $ $ $ $ $ $ $ $ $ $ $ $ $ $ $ $ $ $ $ $ $ $ $ $ $ $ %+.   ",
"  . &+*+#+$ $ $ $ $ $ $ $ $ $ $ $ $ $ $ $ $ $ $ $ $ $ $ $ $ $ $ $ $ $ $ $ $ $ $ $ $ #+*+&+.   ",
"    . . . . . . . . . . . . . . . . . . . . . . . . . . . . . . . . . . . . . . . . . . .     ",
"        . . . . . . . . . . . . . . . . . . . . . . . . . . . . . . . . . . . . . . .         "};
