/* XPM */
static const char* diamond9_xpm[] = {
"47 62 217 2",
"  	c None",
". 	c #000000",
"+ 	c #2A2A2A",
"@ 	c #B0B0B0",
"# 	c #FCFCFC",
"$ 	c #FFFFFF",
"% 	c #B1B1B1",
"& 	c #B2B2B2",
"* 	c #F6F6F6",
"= 	c #FFFBFB",
"- 	c #FBB9C4",
"; 	c #FBB7C3",
"> 	c #FDDFE4",
", 	c #FDFDFD",
"' 	c #F7F7F7",
") 	c #F6637C",
"! 	c #F21A3F",
"~ 	c #F32B4D",
"{ 	c #FDD4DB",
"] 	c #FFFEFE",
"^ 	c #FBBDC7",
"/ 	c #F54A67",
"( 	c #F88599",
"_ 	c #F7768D",
": 	c #F65E78",
"< 	c #F66780",
"[ 	c #FDD7DE",
"} 	c #FCCFD6",
"| 	c #F76F87",
"1 	c #FBBCC7",
"2 	c #F88196",
"3 	c #FDE0E5",
"4 	c #F65D77",
"5 	c #FAA4B3",
"6 	c #F44260",
"7 	c #FFF8F9",
"8 	c #FEF5F7",
"9 	c #F43B5B",
"0 	c #FAADBA",
"a 	c #F5536F",
"b 	c #F99AAB",
"c 	c #F8899C",
"d 	c #F32447",
"e 	c #F87C91",
"f 	c #F3274A",
"g 	c #FDE2E7",
"h 	c #F5536E",
"i 	c #FFFCFD",
"j 	c #F54B68",
"k 	c #FBBBC6",
"l 	c #F54E6B",
"m 	c #FAA3B2",
"n 	c #FAA2B1",
"o 	c #F990A2",
"p 	c #F98D9F",
"q 	c #F32E50",
"r 	c #FEEBEE",
"s 	c #FCD2D9",
"t 	c #F21E42",
"u 	c #F6607A",
"v 	c #F21D41",
"w 	c #FCD0D8",
"x 	c #FBBEC9",
"y 	c #F44362",
"z 	c #F76A82",
"A 	c #FEE9EC",
"B 	c #F32C4E",
"C 	c #F8889B",
"D 	c #F32A4D",
"E 	c #FEE7EB",
"F 	c #FFFDFD",
"G 	c #F33052",
"H 	c #FDDDE2",
"I 	c #FBB6C2",
"J 	c #F54966",
"K 	c #FCC7D0",
"L 	c #FCC6CF",
"M 	c #F7738A",
"N 	c #F32548",
"O 	c #FDDEE3",
"P 	c #FDDCE2",
"Q 	c #F32347",
"R 	c #FFF7F8",
"S 	c #FAA0AF",
"T 	c #FEF4F6",
"U 	c #F43959",
"V 	c #FAA8B6",
"W 	c #F43F5E",
"X 	c #FEF6F7",
"Y 	c #F21B40",
"Z 	c #FCCDD5",
"` 	c #F21F44",
" .	c #FBB3BF",
"..	c #FEE6EA",
"+.	c #FAA3B1",
"@.	c #FEF1F3",
"#.	c #F65B75",
"$.	c #F87B90",
"%.	c #FDE1E6",
"&.	c #FDD9DF",
"*.	c #F88397",
"=.	c #FBBAC5",
"-.	c #F33153",
";.	c #FEECEF",
">.	c #FBB4C0",
",.	c #F54D6A",
"'.	c #FFFAFA",
").	c #F44664",
"!.	c #FEE8EB",
"~.	c #F88B9E",
"{.	c #FEEAEE",
"].	c #F65974",
"^.	c #FCCAD3",
"/.	c #FCC8D1",
"(.	c #F21C41",
"_.	c #F65C76",
":.	c #F99CAC",
"<.	c #F43757",
"[.	c #FEF2F4",
"}.	c #FDDAE0",
"|.	c #F22145",
"1.	c #F76D84",
"2.	c #F22044",
"3.	c #FDD8DF",
"4.	c #F7768C",
"5.	c #FCD1D9",
"6.	c #F7788E",
"7.	c #FAA6B4",
"8.	c #F43D5C",
"9.	c #F21E43",
"0.	c #FBC0CA",
"a.	c #F6627B",
"b.	c #F33051",
"c.	c #F6657D",
"d.	c #FEEDF0",
"e.	c #F996A7",
"f.	c #F7758B",
"g.	c #F33354",
"h.	c #FEEFF1",
"i.	c #F55671",
"j.	c #F99DAD",
"k.	c #FCC5CE",
"l.	c #F8889C",
"m.	c #F32D4F",
"n.	c #FDD7DD",
"o.	c #F995A6",
"p.	c #FDD3DA",
"q.	c #F43E5D",
"r.	c #FEE9ED",
"s.	c #F66981",
"t.	c #F99EAE",
"u.	c #FEF3F5",
"v.	c #F43858",
"w.	c #FAA7B5",
"x.	c #F22246",
"y.	c #F991A2",
"z.	c #F7798F",
"A.	c #FBB5C1",
"B.	c #F54F6B",
"C.	c #F4405F",
"D.	c #F54865",
"E.	c #F88498",
"F.	c #FDD5DC",
"G.	c #F65A74",
"H.	c #FCCBD3",
"I.	c #FEEEF1",
"J.	c #F98FA1",
"K.	c #F991A3",
"L.	c #F5506C",
"M.	c #F77A90",
"N.	c #FDE3E8",
"O.	c #F32649",
"P.	c #F87F93",
"Q.	c #FAAFBC",
"R.	c #FAA9B7",
"S.	c #FFF9FA",
"T.	c #F76E85",
"U.	c #F6647D",
"V.	c #F54C69",
"W.	c #FFFBFC",
"X.	c #FAAEBB",
"Y.	c #F43A5A",
"Z.	c #F7748A",
"`.	c #FDD6DC",
" +	c #F87E93",
".+	c #F5526E",
"++	c #FCC3CD",
"@+	c #FBC1CB",
"#+	c #F55470",
"$+	c #FCCCD4",
"%+	c #F993A5",
"&+	c #F6667F",
"*+	c #FBB4C1",
"=+	c #FCC6D0",
"-+	c #F3294C",
";+	c #F87F94",
">+	c #F88296",
",+	c #F3284B",
"'+	c #FDE4E8",
")+	c #F88C9F",
"!+	c #FBB2BE",
"~+	c #FBB0BD",
"{+	c #F44462",
"]+	c #F32F50",
"^+	c #F76C84",
"/+	c #F76E86",
"(+	c #F43556",
"_+	c #F99AAA",
":+	c #F65F79",
"<+	c #FCCED6",
"[+	c #FCC2CC",
"}+	c #F44563",
"|+	c #FEFEFE",
"1+	c #B5B5B5",
"2+	c #B6B6B6",
"3+	c #2E2E2E",
"4+	c #B8B8B8",
"        . . . . . . . . . . . . . . . . . . . . . . . . . . . . . . . . . . . . . . .         ",
"    . . . . . . . . . . . . . . . . . . . . . . . . . . . . . . . . . . . . . . . . . . .     ",
"  . + @ # $ $ $ $ $ $ $ $ $ $ $ $ $ $ $ $ $ $ $ $ $ $ $ $ $ $ $ $ $ $ $ $ $ $ $ $ $ # @ + .   ",
"  . % $ $ $ $ $ $ $ $ $ $ $ $ $ $ $ $ $ $ $ $ $ $ $ $ $ $ $ $ $ $ $ $ $ $ $ $ $ $ $ $ $ & .   ",
"  . * $ $ = - ; ; > $ $ $ $ $ $ $ $ $ $ $ $ $ $ $ $ $ $ $ $ $ $ $ $ $ $ $ $ $ $ $ $ $ $ , . . ",
"  . ' $ = ) ! ! ! ~ { $ $ $ $ $ $ ] $ $ $ $ $ $ $ $ $ $ $ ] $ $ $ $ $ $ $ $ $ $ $ $ $ $ $ . . ",
"  . ' $ ^ ! / ( _ ! : $ $ $ $ $ $ < [ $ $ $ $ $ $ $ $ $ } | $ $ $ $ $ $ $ $ $ $ $ $ $ $ $ . . ",
"  . ' $ 1 ! 2 $ 3 ! 4 $ $ $ $ $ 5 ! 6 7 $ $ $ $ $ $ $ 8 9 ! 0 $ $ $ $ $ $ $ $ $ $ $ $ $ $ . . ",
"  . ' $ 1 ! a b c ! 4 $ $ $ $ > d ! ! e $ $ $ $ $ $ $ _ ! ! f g $ $ $ $ $ $ $ $ $ $ $ $ $ . . ",
"  . ' $ 8 h ! ! ! ! 4 $ $ $ i j ! ! ! ! ^ $ $ $ $ $ k ! ! ! ! l i $ $ $ $ $ $ $ $ $ $ $ $ . . ",
"  . ' $ $ 8 m n o ! 4 $ $ $ p ! ! ! ! ! q r $ $ $ r q ! ! ! ! ! p $ $ $ $ $ $ $ $ $ $ $ $ . . ",
"  . ' $ 1 ! 2 $ 3 ! 4 $ $ s t ! ! ! ! ! ! u $ $ $ ) ! ! ! ! ! ! v w $ $ $ $ $ $ $ $ $ $ $ . . ",
"  . ' $ x ! y _ z ! u $ $ A B ! ! ! ! ! ! ( $ $ $ C ! ! ! ! ! ! D E $ $ $ $ $ $ $ $ $ $ $ . . ",
"  . ' $ F | ! ! ! G H $ $ $ I ! ! ! ! ! J = $ $ $ = J ! ! ! ! ! I $ $ $ $ $ $ $ $ $ $ $ $ . . ",
"  . ' $ $ F K L L E $ $ $ $ $ M ! ! ! N O $ $ $ $ $ P Q ! ! ! _ $ $ $ $ $ $ $ $ $ $ $ $ $ . . ",
"  . ' $ $ $ $ R S $ $ $ $ $ $ T U ! ! V $ $ $ $ $ $ $ n ! ! W X $ $ $ $ $ $ $ $ $ $ $ $ $ . . ",
"  . ' $ $ $ $ _ Y k $ $ $ $ $ $ Z v < $ $ $ $ $ $ $ $ $ : ` { $ $ $ $ $ $ $ $ $ $ $ $ $ $ . . ",
"  . ' $ $ $  .! ! ~ ..$ $ $ $ $ $ +.@.$ $ $ $ $ $ $ $ $ r V $ $ $ $ $ $ $ $ $ $ $ $ $ $ $ . . ",
"  . ' $ $ $ : ! ! ! 5 $ $ $ $ $ $ $ $ $ $ $ $ $ $ $ $ $ $ $ $ $ $ $ $ $ $ $ $ $ $ $ $ $ $ . . ",
"  . ' $ $ $ ..~ ! #.] $ $ $ $ $ $ $.%.$ $ $ $ $ $ $ $ $ &.*.$ $ $ $ $ $ $ $ $ $ $ $ $ $ $ . . ",
"  . ' $ $ $ $ =.-.;.$ $ $ $ $ $ >.! ,.i $ $ $ $ $ $ $ '.).! 1 $ $ $ $ $ $ $ $ $ $ $ $ $ $ . . ",
"  . ' $ $ $ $ $ !.$ $ $ $ $ $ !.D ! ! ~.$ $ $ $ $ $ $ ( ! ! q {.$ $ $ $ $ $ $ $ $ $ $ $ $ . . ",
"  . ' $ $ $ $ $ $ $ $ $ $ $ ] ].! ! ! v ^.$ $ $ $ $ /.(.! ! ! _.] $ $ $ $ $ $ $ $ $ $ $ $ . . ",
"  . ' $ $ $ $ $ $ $ $ $ $ $ :.! ! ! ! ! <.[.$ $ $ [.<.! ! ! ! ! :.$ $ $ $ $ $ $ $ $ $ $ $ . . ",
"  . ' $ $ $ $ $ $ $ $ $ $ }.|.! ! ! ! ! ! 1.$ $ $ | ! ! ! ! ! ! 2.3.$ $ $ $ $ $ $ $ $ $ $ . . ",
"  . ' $ $ $ $ $ $ $ $ $ $ 3 N ! ! ! ! ! ! 4.$ 5.$ 6.! ! ! ! ! ! d O $ $ $ $ $ $ $ $ $ $ $ . . ",
"  . ' $ $ $ $ $ $ $ $ $ $ $ 7.! ! ! ! ! 8.X } 9.0.X 8.! ! ! ! ! 7.$ $ $ $ $ $ $ $ $ $ $ $ . . ",
"  . ' $ $ $ $ $ $ $ $ $ $ $ $ a.! ! ! ` s 8 9 ! b.;.w t ! ! ! c.$ $ $ $ $ $ $ $ $ $ $ $ $ . . ",
"  . ' $ $ $ $ $ $ $ $ $ $ $ $ d.b.! ! e.$ f.! ! ! 4 $ o ! ! g.h.$ $ $ $ $ $ $ $ $ $ $ $ $ . . ",
"  . ' $ $ $ $ $ $ $ $ $ $ $ $ $ ^ ! i.] - ! ! ! ! ! j.i ,.(.k.$ $ $ $ $ $ $ $ $ $ $ $ $ $ . . ",
"  . ' $ $ $ $ $ $ $ $ $ $ $ $ $ $ l.E {.m.! ! ! ! ! |.n.3 o $ $ $ $ $ $ $ $ $ $ $ $ $ $ $ . . ",
"  . ' $ $ $ $ $ $ $ $ $ $ $ $ $ $ F $ o.! ! ! ! ! ! ! 4.$ F $ $ $ $ $ $ $ $ $ $ $ $ $ $ $ . . ",
"  . ' $ $ $ $ $ $ $ $ $ $ $ $ $ $ u p.R q.! ! ! ! ! m.r.^.s.$ $ $ $ $ $ $ $ $ $ $ $ $ $ $ . . ",
"  . ' $ $ $ $ $ $ $ $ $ $ $ $ $ t.! 8.X 5.9.! ! ! ! =.u.v.! w.$ $ $ $ $ $ $ $ $ $ $ $ $ $ . . ",
"  . ' $ $ $ $ $ $ $ $ $ $ $ $ }.x.! ! f.$ y.! ! ! z.$ | ! ! d H $ $ $ $ $ $ $ $ $ $ $ $ $ . . ",
"  . ' $ $ $ $ $ $ $ $ $ $ $ '.).! ! ! ! A.i B.! C.R  .! ! ! ! D.= $ $ $ $ $ $ $ $ $ $ $ $ . . ",
"  . ' $ $ $ $ $ $ $ $ $ $ $ E.! ! ! ! ! D ..3 B F.E D ! ! ! ! ! *.$ $ $ $ $ $ $ $ $ $ $ $ . . ",
"  . ' $ $ $ $ $ $ $ $ $ $ Z (.! ! ! ! ! ! G.$ A $ _.! ! ! ! ! ! Y H.$ $ $ $ $ $ $ $ $ $ $ . . ",
"  . ' $ $ $ $ $ $ $ $ $ $ I.G ! ! ! ! ! ! J.$ $ $ K.! ! ! ! ! ! b.;.$ $ $ $ $ $ $ $ $ $ $ . . ",
"  . ' $ $ $ $ $ $ $ $ $ $ $ x ! ! ! ! ! L.i $ $ $ i B.! ! ! ! Y x $ $ $ $ $ $ $ $ $ $ $ $ . . ",
"  . ' $ $ $ $ $ $ $ $ $ $ $ $ M.! ! ! f N.$ $ $ $ $ %.O.! ! ! P.$ $ $ $ $ $ $ $ $ $ $ $ $ . . ",
"  . ' $ $ $ $ $ $ $ $ $ $ $ $ R q.! ! Q.$ $ $ $ $ $ $ R.! ! y S.$ $ $ $ $ $ $ 5 g $ $ $ $ . . ",
"  . ' $ $ $ $ $ $ $ $ $ $ $ $ $ 5.9.T.$ $ $ $ $ $ $ $ $ U.|.3.$ $ $ $ $ $ $ 5.` V.W.$ $ $ . . ",
"  . ' $ $ $ $ $ $ $ $ $ $ $ $ $ $ R.u.$ $ $ $ $ $ $ $ $ I.X.$ $ $ $ $ $ $ u.Y.! ! ( $ $ $ . . ",
"  . ' $ $ $ $ $ $ $ $ $ $ $ $ $ $ $ $ $ $ $ $ $ $ $ $ $ $ $ $ $ $ $ $ $ $ Z (.! ! 8.] $ $ . . ",
"  . ' $ $ $ $ $ $ $ $ $ $ $ $ $ $ Z.O $ $ $ $ $ $ $ $ $ `.e $ $ $ $ $ $ $ $ l.! 2.{ $ $ $ . . ",
"  . ' $ $ $ $ $ $ $ $ $ $ $ $ $ 0 ! J = $ $ $ $ $ $ $ 7 6 ! I $ $ $ $ $ $ $ W.B.S $ $ $ $ . . ",
"  . ' $ $ $ $ $ $ $ $ $ $ $ $ N.f ! ! E.$ $ $ $ $ $ $  +! ! D E $ $ $ $ $ $ $ h.$ $ $ $ $ . . ",
"  . ' $ $ $ $ $ $ $ $ $ $ $ F .+! ! ! Y ++$ $ $ $ $ @+Y ! ! ! #+F $ $ $ $ $+a h h y.$ $ $ . . ",
"  . ' $ $ $ $ $ $ $ $ $ $ $ %+! ! ! ! ! -.I.$ $ $ h.-.! ! ! ! ! %+$ $ $ &.O.! ! ! ! e.$ $ . . ",
"  . ' $ $ $ $ $ $ $ $ $ $ F.9.! ! ! ! ! ! c.$ $ $ &+! ! ! ! ! ! 9.p.$ $ *+! P.r.=+! c.$ $ . . ",
"  . ' $ $ $ $ $ $ $ $ $ $ ..-+! ! ! ! ! ! ;+$ $ $ >+! ! ! ! ! ! ,+'+$ $ *+! l.$ ;.)+!+$ $ . . ",
"  . ' $ $ $ $ $ $ $ $ $ $ $ ~+! ! ! ! ! {+S.$ $ $ '.y ! ! ! ! ! ~+$ $ $ *+! d ]+]+1.i $ $ . . ",
"  . ' $ $ $ $ $ $ $ $ $ $ $ $ ^+! ! ! x.&.$ $ $ $ $ [ 2.! ! ! /+$ $ $ $ *+! 2.f O.! 2 $ $ . . ",
"  . ' $ $ $ $ $ $ $ $ $ $ $ $ [.(+! ! S $ $ $ $ $ $ $ _+! ! U u.$ $ $ $ *+! l.$ 3.! c.$ $ . . ",
"  . ' $ $ $ $ $ $ $ $ $ $ $ $ $ L (.:+$ $ $ $ $ $ $ $ ] i.t <+$ $ $ $ $ *+! ( 7 s ! c.$ $ . . ",
"  . ' $ $ $ $ $ $ $ $ $ $ $ $ $ $ e.;.$ $ $ $ $ $ $ $ $ ..:.$ $ $ $ $ $ F.x.! ! ! ! p $ $ . . ",
"  . ' $ $ $ $ $ $ $ $ $ $ $ $ $ $ $ $ $ $ $ $ $ $ $ $ $ $ $ $ $ $ $ $ $ $ [+}+{+{+>+$ $ |+. . ",
"  . 1+$ $ $ $ $ $ $ $ $ $ $ $ $ $ $ $ $ $ $ $ $ $ $ $ $ $ $ $ $ $ $ $ $ $ $ $ $ $ $ $ $ 2+.   ",
"  . 3+4+|+$ $ $ $ $ $ $ $ $ $ $ $ $ $ $ $ $ $ $ $ $ $ $ $ $ $ $ $ $ $ $ $ $ $ $ $ $ |+4+3+.   ",
"    . . . . . . . . . . . . . . . . . . . . . . . . . . . . . . . . . . . . . . . . . . .     ",
"        . . . . . . . . . . . . . . . . . . . . . . . . . . . . . . . . . . . . . . .         "};
