/* XPM */
static const char* hearts1_xpm[] = {
"47 62 146 2",
"  	c None",
". 	c #000000",
"+ 	c #2E2E2E",
"@ 	c #B2B2B2",
"# 	c #FCFCFC",
"$ 	c #FFFFFF",
"% 	c #B0B0B0",
"& 	c #2A2A2A",
"* 	c #B9B9B9",
"= 	c #FEFEFE",
"- 	c #FCCFD7",
"; 	c #FBB7C3",
"> 	c #FEECEF",
", 	c #FDFDFD",
"' 	c #F43D5C",
") 	c #F21A3F",
"! 	c #F99CAC",
"~ 	c #FDE4E8",
"{ 	c #F6617A",
"] 	c #FAA5B4",
"^ 	c #F3284B",
"/ 	c #FFFDFD",
"( 	c #F6657E",
"_ 	c #F44260",
": 	c #FCD0D8",
"< 	c #F3294C",
"[ 	c #F32D4F",
"} 	c #FAA6B4",
"| 	c #F995A6",
"1 	c #FCCED6",
"2 	c #F55470",
"3 	c #FBB1BD",
"4 	c #F65974",
"5 	c #F98FA1",
"6 	c #F32347",
"7 	c #FFFAFA",
"8 	c #F54F6B",
"9 	c #F76E86",
"0 	c #F76F87",
"a 	c #FCC8D1",
"b 	c #FEF2F4",
"c 	c #F21E42",
"d 	c #F44462",
"e 	c #FAAEBB",
"f 	c #F98D9F",
"g 	c #FEF3F5",
"h 	c #FCC6CF",
"i 	c #FDDBE1",
"j 	c #FEF5F7",
"k 	c #FDD9DF",
"l 	c #FFFBFB",
"m 	c #FCCCD4",
"n 	c #FFF8F9",
"o 	c #FAAAB7",
"p 	c #FDD7DD",
"q 	c #F991A2",
"r 	c #F21E43",
"s 	c #F21F44",
"t 	c #FEEBEE",
"u 	c #F8889C",
"v 	c #FEE8EB",
"w 	c #FEF0F2",
"x 	c #F44362",
"y 	c #F991A3",
"z 	c #F43F5E",
"A 	c #F88599",
"B 	c #FEE9EC",
"C 	c #FEEDF0",
"D 	c #F88196",
"E 	c #F54C69",
"F 	c #F43757",
"G 	c #F6637C",
"H 	c #FCCFD6",
"I 	c #FBB0BD",
"J 	c #F55671",
"K 	c #F33455",
"L 	c #F65873",
"M 	c #F999A9",
"N 	c #FFFBFC",
"O 	c #FCCAD3",
"P 	c #F21C41",
"Q 	c #F99EAE",
"R 	c #F7738A",
"S 	c #F44563",
"T 	c #FEF1F3",
"U 	c #FAA4B3",
"V 	c #F65F79",
"W 	c #F99DAD",
"X 	c #F7768C",
"Y 	c #F54765",
"Z 	c #F77087",
"` 	c #F3274A",
" .	c #FAACBA",
"..	c #FDE0E5",
"+.	c #F43959",
"@.	c #F22246",
"#.	c #FBC0CA",
"$.	c #F22044",
"%.	c #F43656",
"&.	c #FEE5E9",
"*.	c #FBBCC7",
"=.	c #F33052",
"-.	c #F32B4D",
";.	c #FDD8DF",
">.	c #FBB2BE",
",.	c #F21D41",
"'.	c #FCD1D9",
").	c #FAADBA",
"!.	c #FCC9D2",
"~.	c #FAA8B6",
"{.	c #F21B40",
"].	c #FAA3B1",
"^.	c #FBB6C2",
"/.	c #FDDEE3",
"(.	c #F77289",
"_.	c #FDE2E7",
":.	c #F66881",
"<.	c #FEEAEE",
"[.	c #F43858",
"}.	c #F7778D",
"|.	c #F88699",
"1.	c #FAA3B2",
"2.	c #F22145",
"3.	c #FCCDD5",
"4.	c #FDE1E6",
"5.	c #FFFEFE",
"6.	c #FCC6D0",
"7.	c #FDDDE2",
"8.	c #FEEEF1",
"9.	c #F54A68",
"0.	c #F993A5",
"a.	c #F54966",
"b.	c #FFFCFD",
"c.	c #FCC7D0",
"d.	c #FAABB9",
"e.	c #F6607A",
"f.	c #F32548",
"g.	c #F33253",
"h.	c #FAA1B0",
"i.	c #F99BAB",
"j.	c #FA9FAE",
"k.	c #F66780",
"l.	c #FEEFF1",
"m.	c #B6B6B6",
"n.	c #2F2F2F",
"o.	c #B8B8B8",
"        . . . . . . . . . . . . . . . . . . . . . . . . . . . . . . . . . . . . . . .         ",
"    . . . . . . . . . . . . . . . . . . . . . . . . . . . . . . . . . . . . . . . . . . .     ",
"  . + @ # $ $ $ $ $ $ $ $ $ $ $ $ $ $ $ $ $ $ $ $ $ $ $ $ $ $ $ $ $ $ $ $ $ $ $ $ $ # % & .   ",
"  . * $ $ $ $ $ $ $ $ $ $ $ $ $ $ $ $ $ $ $ $ $ $ $ $ $ $ $ $ $ $ $ $ $ $ $ $ $ $ $ $ $ @ .   ",
". . = $ $ $ $ - ; > $ $ $ $ $ $ $ $ $ $ $ $ $ $ $ $ $ $ $ $ $ $ $ $ $ $ $ $ $ $ $ $ $ $ , . . ",
". . $ $ $ $ $ ' ) ! $ $ $ $ $ $ $ $ $ $ $ $ $ $ $ $ $ $ $ $ $ $ $ $ $ $ $ $ $ $ $ $ $ $ $ . . ",
". . $ $ $ $ ~ ) ) { $ $ $ $ $ $ $ $ $ $ $ $ $ $ $ $ $ $ $ $ $ $ $ $ $ $ $ $ $ $ $ $ $ $ $ . . ",
". . $ $ $ $ ] ) ) ^ / $ $ $ $ $ $ $ $ $ $ $ $ $ $ $ $ $ $ $ $ $ $ $ $ $ $ $ $ $ $ $ $ $ $ . . ",
". . $ $ $ $ ( ) _ ) : $ $ $ $ $ $ $ $ $ $ $ $ $ $ $ $ $ $ $ $ $ $ $ $ $ $ $ $ $ $ $ $ $ $ . . ",
". . $ $ $ / < [ } ) | $ $ $ $ $ $ $ $ $ $ $ $ $ $ $ $ $ $ $ $ $ $ $ $ $ $ $ $ $ $ $ $ $ $ . . ",
". . $ $ $ 1 ) 2 3 ) 4 $ $ $ $ $ $ $ $ $ $ $ $ $ $ $ $ $ $ $ $ $ $ $ $ $ $ $ $ $ $ $ $ $ $ . . ",
". . $ $ $ 5 ) ) ) ) 6 7 $ $ $ $ $ $ $ $ $ $ $ $ $ $ $ $ $ $ $ $ $ $ $ $ $ $ $ $ $ $ $ $ $ . . ",
". . $ $ $ 8 ) 9 0 _ ) a $ $ $ $ $ $ $ $ $ $ $ $ $ $ $ $ $ $ $ $ $ $ $ $ $ $ $ $ $ $ $ $ $ . . ",
". . $ $ b c d $ $ e ) f $ $ $ $ $ $ $ $ $ $ $ $ $ $ $ $ $ $ $ $ $ $ $ $ $ $ $ $ $ $ $ $ $ . . ",
". . $ $ g h i $ $ j h k $ $ $ $ $ $ $ $ $ $ $ $ $ $ $ $ $ $ $ $ $ $ $ $ $ $ $ $ $ $ $ $ $ . . ",
". . $ $ $ l 3 m n o p $ $ $ $ $ $ $ $ $ $ $ $ $ $ $ $ $ $ $ $ $ $ $ $ $ $ $ $ $ $ $ $ $ $ . . ",
". . $ $ $ q ) r 0 ) s t $ $ $ $ $ $ $ $ $ $ $ $ $ $ $ $ $ $ $ $ $ $ $ $ $ $ $ $ $ $ $ $ $ . . ",
". . $ $ $ u ) ) ) ) c v $ $ $ $ $ $ $ $ $ $ $ $ $ $ $ $ $ $ $ $ $ $ $ $ $ $ $ $ $ $ $ $ $ . . ",
". . $ $ $ w x ) ) ) y $ $ $ $ $ $ $ $ $ $ $ $ $ $ $ $ $ $ $ $ $ $ $ $ $ $ $ $ $ $ $ $ $ $ . . ",
". . $ $ $ $ > z ) A $ $ $ $ $ $ $ $ $ $ $ $ $ $ $ $ $ $ $ $ $ $ $ $ $ $ $ $ $ $ $ $ $ $ $ . . ",
". . $ $ $ $ $ B q $ $ $ $ $ $ $ $ $ $ $ $ $ $ $ $ $ $ $ $ $ $ $ $ $ $ $ $ $ $ $ $ $ $ $ $ . . ",
". . $ $ $ $ $ $ $ $ $ $ $ $ $ $ $ $ $ $ $ $ $ $ $ $ $ $ $ $ $ $ $ $ $ $ $ $ $ $ $ $ $ $ $ . . ",
". . $ $ $ $ $ $ $ $ $ $ $ $ $ $ $ $ $ $ $ $ $ $ $ $ $ $ $ $ $ $ $ $ $ $ $ $ $ $ $ $ $ $ $ . . ",
". . $ $ $ $ $ $ $ $ $ $ $ $ $ $ $ $ $ $ $ $ $ $ $ $ $ $ $ $ $ $ $ $ $ $ $ $ $ $ $ $ $ $ $ . . ",
". . $ $ $ $ $ $ $ $ $ $ $ $ $ $ C D E F G H $ $ $ $ I J K L M N $ $ $ $ $ $ $ $ $ $ $ $ $ . . ",
". . $ $ $ $ $ $ $ $ $ $ $ $ $ O [ ) ) ) ) P Q $ $ R ) ) ) ) ) S t $ $ $ $ $ $ $ $ $ $ $ $ . . ",
". . $ $ $ $ $ $ $ $ $ $ $ $ T K ) ) ) ) ) ) c : U ) ) ) ) ) ) ) V $ $ $ $ $ $ $ $ $ $ $ $ . . ",
". . $ $ $ $ $ $ $ $ $ $ $ $ W ) ) ) ) ) ) ) ) X Y ) ) ) ) ) ) ) ) p $ $ $ $ $ $ $ $ $ $ $ . . ",
". . $ $ $ $ $ $ $ $ $ $ $ $ Z ) ) ) ) ) ) ) ) ` ) ) ) ) ) ) ) ) ) o $ $ $ $ $ $ $ $ $ $ $ . . ",
". . $ $ $ $ $ $ $ $ $ $ $ $ Z ) ) ) ) ) ) ) ) ) ) ) ) ) ) ) ) ) )  .$ $ $ $ $ $ $ $ $ $ $ . . ",
". . $ $ $ $ $ $ $ $ $ $ $ $ Q ) ) ) ) ) ) ) ) ) ) ) ) ) ) ) ) ) ) ..$ $ $ $ $ $ $ $ $ $ $ . . ",
". . $ $ $ $ $ $ $ $ $ $ $ $ j +.) ) ) ) ) ) ) ) ) ) ) ) ) ) ) ) X $ $ $ $ $ $ $ $ $ $ $ $ . . ",
". . $ $ $ $ $ $ $ $ $ $ $ $ $ m @.) ) ) ) ) ) ) ) ) ) ) ) ) ) ' g $ $ $ $ $ $ $ $ $ $ $ $ . . ",
". . $ $ $ $ $ $ $ $ $ $ $ $ $ $ #.$.) ) ) ) ) ) ) ) ) ) ) ) %.&.$ $ $ $ $ $ $ $ $ $ $ $ $ . . ",
". . $ $ $ $ $ $ $ $ $ $ $ $ $ $ $ *.s ) ) ) ) ) ) ) ) ) ) =...$ $ $ $ $ $ $ $ $ $ $ $ $ $ . . ",
". . $ $ $ $ $ $ $ $ $ $ $ $ $ $ $ $ ; c ) ) ) ) ) ) ) ) -.;.$ $ $ $ $ $ $ $ $ $ $ $ $ $ $ . . ",
". . $ $ $ $ $ $ $ $ $ $ $ $ $ $ $ $ $ >.,.) ) ) ) ) ) ` '.$ $ $ $ $ $ $ $ $ $ $ $ $ $ $ $ . . ",
". . $ $ $ $ $ $ $ $ $ $ $ $ $ $ $ $ $ $ ).P ) ) ) ) 6 !.$ $ $ $ $ $ $ $ $ $ $ $ $ $ $ $ $ . . ",
". . $ $ $ $ $ $ $ $ $ $ $ $ $ $ $ $ $ $ $ ~.{.) ) s #.$ $ $ $ $ $ $ $ $ $ $ $ $ $ $ $ $ $ . . ",
". . $ $ $ $ $ $ $ $ $ $ $ $ $ $ $ $ $ $ $ $ ].) c ^.$ $ $ $ $ $ $ $ $ $ $ $ $ $ $ $ $ $ $ . . ",
". . $ $ $ $ $ $ $ $ $ $ $ $ $ $ $ $ $ $ $ $ $ W  .$ $ $ $ $ $ $ $ $ $ $ $ $ $ $ $ $ $ $ $ . . ",
". . $ $ $ $ $ $ $ $ $ $ $ $ $ $ $ $ $ $ $ $ $ $ $ $ $ $ $ $ $ $ $ $ $ $ $ $ /.(.l $ $ $ $ . . ",
". . $ $ $ $ $ $ $ $ $ $ $ $ $ $ $ $ $ $ $ $ $ $ $ $ $ $ $ $ $ $ $ $ $ $ $ _.K ) :./ $ $ $ . . ",
". . $ $ $ $ $ $ $ $ $ $ $ $ $ $ $ $ $ $ $ $ $ $ $ $ $ $ $ $ $ $ $ $ $ $ <.[.) ) ) }.$ $ $ . . ",
". . $ $ $ $ $ $ $ $ $ $ $ $ $ $ $ $ $ $ $ $ $ $ $ $ $ $ $ $ $ $ $ $ $ $ |.) ) ) ) ) i $ $ . . ",
". . $ $ $ $ $ $ $ $ $ $ $ $ $ $ $ $ $ $ $ $ $ $ $ $ $ $ $ $ $ $ $ $ $ $ 1.) 2.u ) 2.C $ $ . . ",
". . $ $ $ $ $ $ $ $ $ $ $ $ $ $ $ $ $ $ $ $ $ $ $ $ $ $ $ $ $ $ $ $ $ $ $ 3.4.5.6.B $ $ $ . . ",
". . $ $ $ $ $ $ $ $ $ $ $ $ $ $ $ $ $ $ $ $ $ $ $ $ $ $ $ $ $ $ $ $ $ b h 7.$ $ g h i $ $ . . ",
". . $ $ $ $ $ $ $ $ $ $ $ $ $ $ $ $ $ $ $ $ $ $ $ $ $ $ $ $ $ $ $ $ $ 8.P 9.$ $ ~.) 0.$ $ . . ",
". . $ $ $ $ $ $ $ $ $ $ $ $ $ $ $ $ $ $ $ $ $ $ $ $ $ $ $ $ $ $ $ $ $ $ a.P 0 0 z ) H $ $ . . ",
". . $ $ $ $ $ $ $ $ $ $ $ $ $ $ $ $ $ $ $ $ $ $ $ $ $ $ $ $ $ $ $ $ $ $ u ) ) ) ) ` b.$ $ . . ",
". . $ $ $ $ $ $ $ $ $ $ $ $ $ $ $ $ $ $ $ $ $ $ $ $ $ $ $ $ $ $ $ $ $ $ c.) 4 d.) e.$ $ $ . . ",
". . $ $ $ $ $ $ $ $ $ $ $ $ $ $ $ $ $ $ $ $ $ $ $ $ $ $ $ $ $ $ $ $ $ $ l f.g.h.) i.$ $ $ . . ",
". . $ $ $ $ $ $ $ $ $ $ $ $ $ $ $ $ $ $ $ $ $ $ $ $ $ $ $ $ $ $ $ $ $ $ $ V ) _ ) p $ $ $ . . ",
". . $ $ $ $ $ $ $ $ $ $ $ $ $ $ $ $ $ $ $ $ $ $ $ $ $ $ $ $ $ $ $ $ $ $ $ j.) ) [ 5.$ $ $ . . ",
". . $ $ $ $ $ $ $ $ $ $ $ $ $ $ $ $ $ $ $ $ $ $ $ $ $ $ $ $ $ $ $ $ $ $ $ /.) ) k.$ $ $ $ . . ",
". . $ $ $ $ $ $ $ $ $ $ $ $ $ $ $ $ $ $ $ $ $ $ $ $ $ $ $ $ $ $ $ $ $ $ $ $ F ) ].$ $ $ $ . . ",
". . $ $ $ $ $ $ $ $ $ $ $ $ $ $ $ $ $ $ $ $ $ $ $ $ $ $ $ $ $ $ $ $ $ $ $ $ 1 ; l.$ $ $ = . . ",
"  . * $ $ $ $ $ $ $ $ $ $ $ $ $ $ $ $ $ $ $ $ $ $ $ $ $ $ $ $ $ $ $ $ $ $ $ $ $ $ $ $ $ m..   ",
"  . n.o.= $ $ $ $ $ $ $ $ $ $ $ $ $ $ $ $ $ $ $ $ $ $ $ $ $ $ $ $ $ $ $ $ $ $ $ $ $ = o.+ .   ",
"    . . . . . . . . . . . . . . . . . . . . . . . . . . . . . . . . . . . . . . . . . . .     ",
"        . . . . . . . . . . . . . . . . . . . . . . . . . . . . . . . . . . . . . . .         "};
