/* XPM */
static const char* hearts10_xpm[] = {
"47 62 188 2",
"  	c None",
". 	c #000000",
"+ 	c #2A2A2A",
"@ 	c #B0B0B0",
"# 	c #FCFCFC",
"$ 	c #FFFFFF",
"% 	c #B2B2B2",
"& 	c #2E2E2E",
"* 	c #BABABA",
"= 	c #FDFDFD",
"- 	c #FEF1F3",
"; 	c #FBB7C3",
"> 	c #FEE6EA",
", 	c #FCCDD5",
"' 	c #FEF0F2",
") 	c #FEFEFE",
"! 	c #FCD0D8",
"~ 	c #F21A3F",
"{ 	c #FAADBA",
"] 	c #FBC1CB",
"^ 	c #F21E42",
"/ 	c #F5516D",
"( 	c #FFF9FA",
"_ 	c #FDE3E8",
": 	c #FEF2F4",
"< 	c #FEF5F7",
"[ 	c #FDE0E5",
"} 	c #FEEEF1",
"| 	c #FEE7EB",
"1 	c #FFFBFC",
"2 	c #FDD9DF",
"3 	c #F5526E",
"4 	c #F32F50",
"5 	c #F88599",
"6 	c #F66981",
"7 	c #FBBBC6",
"8 	c #F76E86",
"9 	c #F21C41",
"0 	c #F32447",
"a 	c #FBB5C1",
"b 	c #FCC7D0",
"c 	c #F3274A",
"d 	c #F21B40",
"e 	c #F6627B",
"f 	c #F993A5",
"g 	c #F22246",
"h 	c #F997A8",
"i 	c #FEE5E9",
"j 	c #F33354",
"k 	c #F54B68",
"l 	c #F54765",
"m 	c #FCC4CD",
"n 	c #FBBAC5",
"o 	c #FDD7DE",
"p 	c #F43E5D",
"q 	c #F55470",
"r 	c #FCC9D2",
"s 	c #FFF7F8",
"t 	c #F32649",
"u 	c #F76E85",
"v 	c #FAA2B1",
"w 	c #FAAAB7",
"x 	c #FDE1E6",
"y 	c #F87F94",
"z 	c #F32A4D",
"A 	c #FEF3F5",
"B 	c #F54F6B",
"C 	c #FDD8DF",
"D 	c #F21D41",
"E 	c #FAA8B6",
"F 	c #FDD7DD",
"G 	c #F88A9D",
"H 	c #FCC5CE",
"I 	c #F21F44",
"J 	c #F66881",
"K 	c #FFFEFE",
"L 	c #F5536F",
"M 	c #F32C4E",
"N 	c #F7768D",
"O 	c #F65F79",
"P 	c #FBBCC7",
"Q 	c #F88B9E",
"R 	c #F76D84",
"S 	c #FFFAFA",
"T 	c #FAA3B1",
"U 	c #F55772",
"V 	c #FCC8D1",
"W 	c #F65E78",
"X 	c #F8899C",
"Y 	c #FBB0BD",
"Z 	c #FCCAD3",
"` 	c #F22044",
" .	c #F65A74",
"..	c #F7748A",
"+.	c #FAA1B0",
"@.	c #F32D4F",
"#.	c #F999A9",
"$.	c #F43B5B",
"%.	c #FCC6CF",
"&.	c #FEEBEE",
"*.	c #FEF4F6",
"=.	c #FFFCFD",
"-.	c #F55571",
";.	c #F3294C",
">.	c #FFFBFB",
",.	c #FBB8C4",
"'.	c #F88699",
").	c #F7758B",
"!.	c #FDE2E7",
"~.	c #F3284B",
"{.	c #FBBFCA",
"].	c #F992A4",
"^.	c #F6617A",
"/.	c #FFFDFD",
"(.	c #FBB4C0",
"_.	c #F7768C",
":.	c #F6657D",
"<.	c #F55671",
"[.	c #FDE4E8",
"}.	c #FEF6F7",
"|.	c #F99CAC",
"1.	c #F65C77",
"2.	c #FEEFF1",
"3.	c #FEE8EB",
"4.	c #FDDBE1",
"5.	c #F8889C",
"6.	c #FBB9C4",
"7.	c #F21E43",
"8.	c #F99BAB",
"9.	c #F43858",
"0.	c #F5506C",
"a.	c #F43F5E",
"b.	c #F76F87",
"c.	c #F54C69",
"d.	c #FBB2BE",
"e.	c #FCD2D9",
"f.	c #F99EAE",
"g.	c #FAAEBB",
"h.	c #F7738A",
"i.	c #F998A8",
"j.	c #F7798F",
"k.	c #F65873",
"l.	c #F98FA1",
"m.	c #F77087",
"n.	c #FAA4B3",
"o.	c #F98D9F",
"p.	c #FCC6D0",
"q.	c #F76A82",
"r.	c #FAA9B7",
"s.	c #F5536E",
"t.	c #F990A2",
"u.	c #F65B75",
"v.	c #F33051",
"w.	c #F4405F",
"x.	c #FCC2CC",
"y.	c #F88C9F",
"z.	c #F44362",
"A.	c #F6667F",
"B.	c #F44664",
"C.	c #FFF8F9",
"D.	c #FBC0CA",
"E.	c #F32548",
"F.	c #FEECEF",
"G.	c #FEE9EC",
"H.	c #FAA5B4",
"I.	c #FDD5DC",
"J.	c #F33153",
"K.	c #F77A90",
"L.	c #F991A2",
"M.	c #FEE9ED",
"N.	c #F99DAD",
"O.	c #FDDAE0",
"P.	c #FAABB9",
"Q.	c #F88196",
"R.	c #FDD6DC",
"S.	c #F43C5C",
"T.	c #FAA0AF",
"U.	c #FBB4C1",
"V.	c #F996A7",
"W.	c #F76B83",
"X.	c #F54D6A",
"Y.	c #F44462",
"Z.	c #F44563",
"`.	c #F54865",
" +	c #B6B6B6",
".+	c #B9B9B9",
"++	c #B8B8B8",
"@+	c #2F2F2F",
"        . . . . . . . . . . . . . . . . . . . . . . . . . . . . . . . . . . . . . . .         ",
"    . . . . . . . . . . . . . . . . . . . . . . . . . . . . . . . . . . . . . . . . . . .     ",
"  . + @ # $ $ $ $ $ $ $ $ $ $ $ $ $ $ $ $ $ $ $ $ $ $ $ $ $ $ $ $ $ $ $ $ $ $ $ $ $ # % & .   ",
"  . % $ $ $ $ $ $ $ $ $ $ $ $ $ $ $ $ $ $ $ $ $ $ $ $ $ $ $ $ $ $ $ $ $ $ $ $ $ $ $ $ $ * .   ",
". . = - ; > $ , ; ; ' $ $ $ $ $ $ $ $ $ $ $ $ $ $ $ $ $ $ $ $ $ $ $ $ $ $ $ $ $ $ $ $ $ ) . . ",
". . $ ! ~ { ] ^ ~ ~ / ( $ $ _ : $ $ < [ $ $ $ $ $ $ $ } | $ $ 1 2 $ $ $ $ $ $ $ $ $ $ $ $ . . ",
". . $ ! ~ { 3 4 5 6 ~ 7 $ 8 9 0 a b c d e $ $ $ $ $ f g ^ h i j ~ k : $ $ $ $ $ $ $ $ $ $ . . ",
". . $ ! ~ { / l $ m ~ n o ~ ~ ~ p q ~ ~ ~ r $ $ $ s t ~ ~ c u ~ ~ ~ v $ $ $ $ $ $ $ $ $ $ . . ",
". . $ ! ~ { / l $ m ~ n ; ~ ~ ~ ~ ~ ~ ~ ~ w $ $ $ x ~ ~ ~ ~ ~ ~ ~ ~ y $ $ $ $ $ $ $ $ $ $ . . ",
". . $ ! ~ { / l $ m ~ n ( z ~ ~ ~ ~ ~ ~ 0 A $ $ $ $ B ~ ~ ~ ~ ~ ~ ~ C $ $ $ $ $ $ $ $ $ $ . . ",
". . $ ! ~ { / l $ m ~ n $ ; D ~ ~ ~ ~ ~ E $ $ $ $ $ F c ~ ~ ~ ~ ~ 5 $ $ $ $ $ $ $ $ $ $ $ . . ",
". . $ ! ~ { / l $ m ~ n $ $ v ~ ~ ~ ~ G $ $ $ $ $ $ $ H I ~ ~ ~ J K $ $ $ $ $ $ $ $ $ $ $ . . ",
". . $ ! ~ { L M N O ~ P $ $ $ Q ~ ~ R S T U E $ V W X } Y d ~ B ( $ $ $ $ $ $ $ $ $ $ $ $ . . ",
". . $ ! ~ { Z ` ~ ~  .1 $ $ $ $ ..L S +.~ ~ ~ b @.~ ~ R $ #.$.} $ $ $ $ $ $ $ $ $ $ $ $ $ . . ",
". . $ A %.&.$ C %.%.*.$ $ $ $ $ =.: $ -.~ ~ ~ ;.~ ~ ~ g >.$ ' $ $ $ $ $ $ $ $ $ $ $ $ $ $ . . ",
". . $ $ $ m a K ,.] $ $ $ $ $ $ $ $ $ '.~ ~ ~ ~ ~ ~ ~ B $ $ $ $ $ $ $ $ $ $ $ $ $ $ $ $ $ . . ",
". . $ $ %.~ ~ ).~ ~ P $ $ $ $ $ $ $ $ !.~.~ ~ ~ ~ ~ d ,.$ $ $ $ $ $ $ $ $ $ $ $ $ $ $ $ $ . . ",
". . $ $ {.~ ~ ~ ~ ~ a $ $ $ $ $ $ $ $ $ b ` ~ ~ ~ ~ ].$ $ $ $ $ $ $ $ $ $ $ $ $ $ $ $ $ $ . . ",
". . $ $ K 6 ~ ~ ~ ^./.$ $ $ $ $ $ $ $ $ $ (.9 ~ ~ _.$ $ $ $ $ $ $ $ $ $ $ $ $ $ $ $ $ $ $ . . ",
". . $ $ $ 1 :.~ <.( $ $ $ $ [.: $ $ }.x $ $ |.~ 1.=.$ 2.3.$ $ =.4.$ $ $ $ $ $ $ $ $ $ $ $ . . ",
". . $ $ $ $ >.5.*.$ $ $ $ ..D t 6.Z z 9 J $ $ v < $ #.0 7.8.| 9.~ 0.: $ $ $ $ $ $ $ $ $ $ . . ",
". . $ $ $ $ $ $ $ $ $ $ C ~ ~ ~ a.-.~ ~ ~ Z $ $ $ s c ~ ~ c b.~ ~ ~ T $ $ $ $ $ $ $ $ $ $ . . ",
". . $ $ $ $ $ $ $ $ $ $ ; ~ ~ ~ ~ ~ ~ ~ ~ w $ $ $ x ~ ~ ~ ~ ~ ~ ~ ~ y $ $ $ $ $ $ $ $ $ $ . . ",
". . $ $ $ $ $ $ $ $ $ $ ( ~.~ ~ ~ ~ ~ ~ 0 A $ $ $ $ c.~ ~ ~ ~ ~ ~ ~ C $ $ $ $ $ $ $ $ $ $ . . ",
". . $ $ $ $ $ $ $ $ $ $ $ d.9 ~ ~ ~ ~ ~ E $ $ $ $ $ e.t ~ ~ ~ ~ ~ 5 $ $ $ $ $ $ $ $ $ $ $ . . ",
". . $ $ $ $ $ $ $ $ $ $ $ $ f.~ ~ ~ ~ G $ $ $ $ $ $ $ ] 7.~ ~ ~ J K $ $ $ $ $ $ $ $ $ $ $ . . ",
". . $ $ $ $ $ $ $ $ $ $ $ $ $ 5.~ ~ R $ $ $ $ $ $ $ $ $ g.d ~ B ( $ $ $ $ $ $ $ $ $ $ $ $ . . ",
". . $ $ $ $ $ $ $ $ $ $ $ $ $ $ h.L S $ $ $ $ $ $ $ $ $ $ i.$.} $ $ $ $ $ $ $ $ $ $ $ $ $ . . ",
". . $ $ $ $ $ $ $ $ $ $ $ $ $ $ =.: $ $ $ $ $ $ $ $ $ $ $ $ ' $ $ $ $ $ $ $ $ $ $ $ $ $ $ . . ",
". . $ $ $ $ $ $ $ $ $ $ $ $ $ $ $ $ $ $ $ $ $ $ $ $ $ $ $ $ $ $ $ $ $ $ $ $ $ $ $ $ $ $ $ . . ",
". . $ $ $ $ $ $ $ $ $ $ $ $ $ $ $ $ $ $ $ $ $ $ $ $ $ $ $ $ $ $ $ $ $ $ $ $ $ $ $ $ $ $ $ . . ",
". . $ $ $ $ $ $ $ $ $ $ $ $ $ $ $ $ $ $ $ $ $ $ $ $ $ $ $ $ $ $ $ $ $ $ $ $ $ $ $ $ $ $ $ . . ",
". . $ $ $ $ $ $ $ $ $ $ $ $ $ $ $ $ $ $ $ $ $ $ $ $ $ $ $ $ $ $ $ $ $ $ $ $ $ $ $ $ $ $ $ . . ",
". . $ $ $ $ $ $ $ $ $ $ $ $ $ $ /.< $ $ $ $ $ $ $ $ $ $ $ $ : $ $ $ $ $ $ $ $ $ $ $ $ $ $ . . ",
". . $ $ $ $ $ $ $ $ $ $ $ $ $ $ j.k.>.$ $ $ $ $ $ $ $ $ $ f.a.' $ $ $ $ $ $ $ $ $ $ $ $ $ . . ",
". . $ $ $ $ $ $ $ $ $ $ $ $ $ l.~ ~ m.$ $ $ $ $ $ $ $ $ (.9 ~ 3 S $ $ $ $ $ $ $ $ $ $ $ $ . . ",
". . $ $ $ $ $ $ $ $ $ $ $ $ n.~ ~ ~ ~ o.$ $ $ $ $ $ $ p.` ~ ~ ~ q.K $ $ $ $ $ $ $ $ $ $ $ . . ",
". . $ $ $ $ $ $ $ $ $ $ $ ; D ~ ~ ~ ~ ~ r.$ $ $ $ $ F c ~ ~ ~ ~ ~ 5 $ $ $ $ $ $ $ $ $ $ $ . . ",
". . $ $ $ $ $ $ $ $ $ $ ( z ~ ~ ~ ~ ~ ~ 0 A $ $ $ $ B ~ ~ ~ ~ ~ ~ ~ C $ $ $ $ $ $ $ $ $ $ . . ",
". . $ $ $ $ $ $ $ $ $ $ ; ~ ~ ~ ~ ~ ~ ~ ~ w $ $ $ x ~ ~ ~ ~ ~ ~ ~ ~ y $ $ $ $ $ $ $ $ $ $ . . ",
". . $ $ $ $ $ $ $ $ $ $ o ~ ~ ~ p q ~ ~ ~ r $ $ $ s t ~ ~ c u ~ ~ ~ v $ $ $ $ $ $ $ $ $ $ . . ",
". . $ $ $ $ $ $ $ $ $ $ $ 8 9 0 a b c d e $ *.s.e.$ f g ^ h i j ~ k : $ $ $ $ P t.$ $ $ $ . . ",
". . $ $ $ $ $ $ $ $ $ $ $ $ _ : $ $ < [ $ 1 u.~ v._ $ } | $ $ 1 2 $ $ $ $ $ {.` ~ |.$ $ $ . . ",
". . $ $ $ $ $ $ $ $ $ $ $ $ $ $ $ $ $ $ $ m.~ ~ ~ w.- $ $ $ $ $ $ $ $ $ $ b g ~ ~ d g.$ $ . . ",
". . $ $ $ $ $ $ $ $ $ $ $ $ $ $ $ $ $ $ 5.~ ~ ~ ~ ~ s.S $ $ $ $ $ $ $ $ $ / ~ ~ ~ ~ 4 1 $ . . ",
". . $ $ $ $ $ $ $ $ $ $ $ $ $ $ $ $ $ x.~ ~ ~ ~ ~ ~ ~ y.$ $ $ $ $ $ $ $ $ R ~ z.A.~ B.$ $ . . ",
". . $ $ $ $ $ $ $ $ $ $ $ $ $ $ $ $ $ J ~ ~ ~ ~ ~ ~ ~ j /.$ $ $ $ $ $ $ $ 1 x.- C.D.< $ $ . . ",
". . $ $ $ $ $ $ $ $ $ $ $ $ $ $ /.< $ J ~ ~ ~ s.~ ~ ~ j /.$ : $ $ $ $ $ $ $ $ $ $ $ $ $ $ . . ",
". . $ $ $ $ $ $ $ $ $ $ $ $ $ $ j.k.1 x.7.~ E.F.c.~ ~ f $ f.a.- $ $ $ $ } W s.L e.$ <.8.$ . . ",
". . $ $ $ $ $ $ $ $ $ $ $ $ $ l.~ ~ h.$ G.H.F.$ ( { I.$ (.9 ~ q S $ $ $ q ~ ~ ~ J.: ^ K.$ . . ",
". . $ $ $ $ $ $ $ $ $ $ $ $ n.~ ~ ~ ~ L.$ $ $ $ $ $ $ p.` ~ ~ ~ u $ $ $ z A.M.L.~ [ ^ K.$ . . ",
". . $ $ $ $ $ $ $ $ $ $ $ ; D ~ ~ ~ ~ d g.$ $ $ $ $ F c ~ ~ ~ ~ ~ Q $ $ z u $ N.~ [ ^ K.$ . . ",
". . $ $ $ $ $ $ $ $ $ $ S z ~ ~ ~ ~ ~ ~ t < $ $ $ $ B ~ ~ ~ ~ ~ ~ ~ O.$ z u $ N.~ [ ^ K.$ . . ",
". . $ $ $ $ $ $ $ $ $ $ ,.~ ~ ~ ~ ~ ~ ~ ~ P.$ $ $ !.~ ~ ~ ~ ~ ~ ~ ~ Q.$ z u $ N.~ [ ^ K.$ . . ",
". . $ $ $ $ $ $ $ $ $ $ R.~ ~ ~ S.3 ~ ~ ~ b $ $ $ < t ~ ~ t q.~ ~ ~ T.$ z u $ N.~ [ ^ K.$ . . ",
". . $ $ $ $ $ $ $ $ $ $ $ 8 9 0 U.p.c d e K $ $ $ $ f g ^ V.i j ~ k : $ z W.C.#.~ [ ^ K.$ . . ",
". . $ $ $ $ $ $ $ $ $ $ $ $ _ : $ $ < [ $ $ $ $ $ $ $ } | $ $ 1 2 $ $ $ X.~ ~ ~ M - ^ K.$ . . ",
". . ) $ $ $ $ $ $ $ $ $ $ $ $ $ $ $ $ $ $ $ $ $ $ $ $ $ $ $ $ $ $ $ $ $ G.0.Y.Z.r $ `.f $ . . ",
"  .  +$ $ $ $ $ $ $ $ $ $ $ $ $ $ $ $ $ $ $ $ $ $ $ $ $ $ $ $ $ $ $ $ $ $ $ $ $ $ $ $ $ .+.   ",
"  . & ++) $ $ $ $ $ $ $ $ $ $ $ $ $ $ $ $ $ $ $ $ $ $ $ $ $ $ $ $ $ $ $ $ $ $ $ $ $ ) ++@+.   ",
"    . . . . . . . . . . . . . . . . . . . . . . . . . . . . . . . . . . . . . . . . . . .     ",
"        . . . . . . . . . . . . . . . . . . . . . . . . . . . . . . . . . . . . . . .         "};
