/* XPM */
static const char* hearts11_xpm[] = {
"47 62 184 2",
"  	c None",
". 	c #000000",
"+ 	c #2A2A2A",
"@ 	c #B0B0B0",
"# 	c #FCFCFC",
"$ 	c #FFFFFF",
"% 	c #B2B2B2",
"& 	c #2E2E2E",
"* 	c #BABABA",
"= 	c #FDFDFD",
"- 	c #FEF4F6",
"; 	c #FBB7C3",
"> 	c #FCCED6",
", 	c #FEFEFE",
"' 	c #FDDDE2",
") 	c #F21A3F",
"! 	c #F6607A",
"~ 	c #FBB9C4",
"{ 	c #F88498",
"] 	c #FBBCC7",
"^ 	c #F44563",
"/ 	c #F7768D",
"( 	c #F66981",
"_ 	c #F6647D",
": 	c #FFFDFD",
"< 	c #F76D84",
"[ 	c #F33253",
"} 	c #FDDFE4",
"| 	c #FCC7D0",
"1 	c #FCC6CF",
"2 	c #FEE8EB",
"3 	c #FCCDD5",
"4 	c #FAACBA",
"5 	c #FEF6F7",
"6 	c #FFF9FA",
"7 	c #FAAFBC",
"8 	c #FCC9D2",
"9 	c #FAABB8",
"0 	c #F7778D",
"a 	c #FA9FAE",
"b 	c #F6657D",
"c 	c #F21B40",
"d 	c #F21E42",
"e 	c #F65C77",
"f 	c #FBB4C0",
"g 	c #F88196",
"h 	c #FEF2F4",
"i 	c #FDE4E8",
"j 	c #FDD7DD",
"k 	c #FCC3CD",
"l 	c #FCD1D9",
"m 	c #FDE1E6",
"n 	c #FEF1F3",
"o 	c #F87B90",
"p 	c #F76B83",
"q 	c #FCC6D0",
"r 	c #FAA1B0",
"s 	c #F55470",
"t 	c #F33051",
"u 	c #F6657E",
"v 	c #F99CAC",
"w 	c #FEE9EC",
"x 	c #FFFEFE",
"y 	c #F7768C",
"z 	c #FFFBFC",
"A 	c #FEF5F7",
"B 	c #FBBEC9",
"C 	c #F88599",
"D 	c #F54B68",
"E 	c #FFFAFA",
"F 	c #FBC1CB",
"G 	c #F54A67",
"H 	c #F43F5E",
"I 	c #FAA0AF",
"J 	c #F21D41",
"K 	c #FEEBEE",
"L 	c #F3274A",
"M 	c #F65B75",
"N 	c #F87F94",
"O 	c #FAADBA",
"P 	c #F44260",
"Q 	c #F6627B",
"R 	c #FBB8C4",
"S 	c #FEEEF1",
"T 	c #FCCFD6",
"U 	c #FBB0BD",
"V 	c #F991A2",
"W 	c #F77188",
"X 	c #F5526E",
"Y 	c #F33354",
"Z 	c #F5516D",
"` 	c #FBBFCA",
" .	c #F43556",
"..	c #F66881",
"+.	c #FAAAB7",
"@.	c #F7798F",
"#.	c #F993A5",
"$.	c #FDE0E5",
"%.	c #F32E50",
"&.	c #F8899C",
"*.	c #F8889B",
"=.	c #F32347",
"-.	c #F43B5B",
";.	c #F32F50",
">.	c #F43757",
",.	c #F7788E",
"'.	c #F43E5D",
").	c #FDDBE1",
"!.	c #FCD0D8",
"~.	c #FBB3BF",
"{.	c #F996A7",
"].	c #F43D5C",
"^.	c #FDD7DE",
"/.	c #F3284B",
"(.	c #F994A5",
"_.	c #F99AAA",
":.	c #FCC8D1",
"<.	c #F65E78",
"[.	c #F99EAE",
"}.	c #FEEDF0",
"|.	c #FCCCD4",
"1.	c #F22145",
"2.	c #F33153",
"3.	c #FBBAC5",
"4.	c #F21E43",
"5.	c #FAA2B1",
"6.	c #FFFCFD",
"7.	c #F65D77",
"8.	c #F8889C",
"9.	c #F5536F",
"0.	c #F32649",
"a.	c #FEEFF1",
"b.	c #FEF3F5",
"c.	c #F76E85",
"d.	c #F21C41",
"e.	c #F44462",
"f.	c #F4415F",
"g.	c #F22246",
"h.	c #F55772",
"i.	c #FEE9ED",
"j.	c #FBB2BE",
"k.	c #F997A8",
"l.	c #F44664",
"m.	c #F21F44",
"n.	c #FDDAE0",
"o.	c #F32C4E",
"p.	c #FBB1BD",
"q.	c #F88397",
"r.	c #F77087",
"s.	c #F88C9F",
"t.	c #FEF0F2",
"u.	c #F32A4D",
"v.	c #FDD5DC",
"w.	c #F65974",
"x.	c #FCCBD3",
"y.	c #F65F79",
"z.	c #F87D92",
"A.	c #F992A4",
"B.	c #F5506C",
"C.	c #F43959",
"D.	c #FDD9DF",
"E.	c #F65873",
"F.	c #F999A9",
"G.	c #FFF8F9",
"H.	c #FFF7F8",
"I.	c #F33052",
"J.	c #F98FA1",
"K.	c #FDDCE2",
"L.	c #F995A6",
"M.	c #F54A68",
"N.	c #FAA4B3",
"O.	c #F88B9E",
"P.	c #FEE6EA",
"Q.	c #F5536E",
"R.	c #FBB6C2",
"S.	c #F87C91",
"T.	c #F6637C",
"U.	c #F8879A",
"V.	c #FCC5CE",
"W.	c #F99DAD",
"X.	c #B6B6B6",
"Y.	c #B9B9B9",
"Z.	c #B8B8B8",
"`.	c #2F2F2F",
"        . . . . . . . . . . . . . . . . . . . . . . . . . . . . . . . . . . . . . . .         ",
"    . . . . . . . . . . . . . . . . . . . . . . . . . . . . . . . . . . . . . . . . . . .     ",
"  . + @ # $ $ $ $ $ $ $ $ $ $ $ $ $ $ $ $ $ $ $ $ $ $ $ $ $ $ $ $ $ $ $ $ $ $ $ $ $ # % & .   ",
"  . % $ $ $ $ $ $ $ $ $ $ $ $ $ $ $ $ $ $ $ $ $ $ $ $ $ $ $ $ $ $ $ $ $ $ $ $ $ $ $ $ $ * .   ",
". . = $ $ $ $ $ - ; > $ $ $ $ $ $ $ $ $ $ $ $ $ $ $ $ $ $ $ $ $ $ $ $ $ $ $ $ $ $ $ $ $ , . . ",
". . $ $ $ $ $ $ ' ) ! $ $ $ $ $ $ $ $ $ $ $ $ $ $ $ $ $ $ $ $ $ $ $ $ $ $ $ $ $ $ $ $ $ $ . . ",
". . $ $ $ $ $ $ ' ) ! $ $ $ $ $ $ $ $ $ $ $ $ $ $ $ $ $ $ $ $ $ $ $ $ $ $ $ $ $ $ $ $ $ $ . . ",
". . $ $ $ $ $ $ ' ) ! $ $ $ $ $ $ $ $ $ $ $ $ $ $ $ $ $ $ $ $ $ $ $ $ $ $ $ $ $ $ $ $ $ $ . . ",
". . $ $ $ $ $ $ ' ) ! $ $ $ $ $ $ $ $ $ $ $ $ $ $ $ $ $ $ $ $ $ $ $ $ $ $ $ $ $ $ $ $ $ $ . . ",
". . $ $ $ $ $ $ ' ) ! $ $ $ $ $ $ $ $ $ $ $ $ $ $ $ $ $ $ $ $ $ $ $ $ $ $ $ $ $ $ $ $ $ $ . . ",
". . $ $ $ $ $ $ ' ) ! $ $ $ $ $ $ $ $ $ $ $ $ $ $ $ $ $ $ $ $ $ $ $ $ $ $ $ $ $ $ $ $ $ $ . . ",
". . $ $ ~ ) { $ ' ) ! $ $ $ $ $ $ $ $ $ $ $ $ $ $ $ $ $ $ $ $ $ $ $ $ $ $ $ $ $ $ $ $ $ $ . . ",
". . $ $ ] ) ^ / ( ) _ $ $ $ $ $ $ $ $ $ $ $ $ $ $ $ $ $ $ $ $ $ $ $ $ $ $ $ $ $ $ $ $ $ $ . . ",
". . $ $ : < ) ) ) [ } $ $ $ $ $ $ $ $ $ $ $ $ $ $ $ $ $ $ $ $ $ $ $ $ $ $ $ $ $ $ $ $ $ $ . . ",
". . $ $ $ : | 1 1 2 $ $ $ $ $ $ $ $ $ $ $ $ $ $ $ $ $ $ $ $ $ $ $ $ $ $ $ $ $ $ $ $ $ $ $ . . ",
". . $ $ $ 3 4 5 6 7 8 $ $ $ $ $ $ $ $ $ $ $ $ $ $ $ $ $ $ $ $ $ $ $ $ $ $ $ $ $ $ $ $ $ $ . . ",
". . $ $ 9 ) ) ( 0 ) ) a $ $ $ $ $ $ $ $ $ $ $ $ $ $ $ $ $ $ $ $ $ $ $ $ $ $ $ $ $ $ $ $ $ . . ",
". . $ $ b ) ) c d ) ) e $ $ $ $ $ $ $ $ $ $ $ $ $ $ $ $ $ $ $ $ $ $ $ $ $ $ $ $ $ $ $ $ $ . . ",
". . $ $ f ) ) ) ) ) ) 4 $ $ $ $ $ $ $ $ $ $ $ $ $ $ $ $ $ $ $ $ $ $ $ $ $ $ $ $ $ $ $ $ $ . . ",
". . $ $ $ g ) ) ) ) / $ $ $ $ $ $ $ $ $ $ $ $ : h i j 8 k l m n $ $ $ $ $ $ $ $ $ $ $ $ $ . . ",
". . $ $ $ $ o ) ) p : $ $ $ $ $ $ - q r o s t c ) ) ) ) ) ) ) ) t u v w $ $ $ $ $ $ $ $ $ . . ",
". . $ $ $ $ x y ! z $ $ $ A B C D d ) ) ) ) ) ) ) ) ) ) ) ) ) ) ) ) ) ' $ $ $ $ $ $ $ $ $ . . ",
". . $ $ $ $ $ x E $ $ $ $ F ) ) ) ) ) ) ) ) ) ) ) ) ) ) ) ) ) ) ) ) G $ $ $ $ $ $ $ $ $ $ . . ",
". . $ $ $ $ $ $ $ $ $ $ $ x H ) ) ) ) ) ) ) ) ) ) ) ) ) ) ) ) ) ) ) v $ $ $ $ $ $ $ $ $ $ . . ",
". . $ $ $ $ $ $ $ $ $ $ $ $ I ) ) ) ) ) ) ) ) ) ) ) ) ) ) ) ) ) ) J K $ $ $ $ $ $ $ $ $ $ . . ",
". . $ $ $ $ $ $ $ $ $ $ $ $ - L ) ) ) ) ) ) ) ) ) ) ) ) ) ) ) ) ) M $ $ $ $ $ $ $ $ $ $ $ . . ",
". . $ $ $ $ $ $ $ $ $ $ $ $ $ N ) ) ) ) ) ) ) ) ) ) ) ) ) ) ) ) ) O $ $ $ $ $ $ $ $ $ $ $ . . ",
". . $ $ $ $ $ $ $ $ $ $ $ $ $ C ) ) ) ) ) ) ) ) ) ) ) ) P b / Q ) R $ $ $ $ $ $ $ $ $ $ $ . . ",
". . $ $ $ $ $ $ $ $ $ $ $ $ $ $ S T U V W X Y c ) ) Z ` $ $ $ x  ...$ $ $ $ $ $ $ $ $ $ $ . . ",
". . $ $ $ $ $ $ $ $ $ $ $ $ +.@.#.4 q $.E $ h %.) &.$ $ $ $ $ $ *.=.- $ $ $ $ $ $ $ $ $ $ . . ",
". . $ $ $ $ $ $ $ $ $ $ $ : -.) ) ) ) ) c ;.>.) Q $ $ $ ,.'.g $ ).) 4 $ $ $ $ $ $ $ $ $ $ . . ",
". . $ $ $ $ $ $ $ $ $ $ $ $ $ S !.~.{.,.M ].) c ^.$ $ : Q /.p x $ G e $ $ $ $ $ $ $ $ $ $ . . ",
". . $ $ $ $ $ $ $ $ $ $ $ (._.7 1 ).n $ $ :.) <.$ $ $ $ $ $ $ $ $ [.d }.$ $ $ $ $ $ $ $ $ . . ",
". . $ $ $ $ $ $ $ $ $ $ |.) ) ) ) ) ) 1.>.2.) 3.$ $ $ $ $ $ $ $ $ }.4.5.$ $ $ $ $ $ $ $ $ . . ",
". . $ $ $ $ $ $ $ $ $ $ ).{.'.) ) ) ) ) ) ) 2.6.$ $ $ $ $ $ $ $ $ $ 7.Z $ $ $ $ $ $ $ $ $ . . ",
". . $ $ $ $ $ $ $ $ $ $ $ 6 2 >.) ) ) ) ) ) 8.$ $ $ $ $ $ : ~.,.9.;.) 0.a.$ $ $ $ $ $ $ $ . . ",
". . $ $ $ $ $ $ $ $ b.c. .d.>.( ) ) ) ) ) c m $ $ $ $ $ 8 e.) ) ) C j 6.$ $ $ $ $ $ $ $ $ . . ",
". . $ $ $ $ $ $ $ $.f.) ) ) ) g.) ) ) ) ) h.$ $ $ $ i.< ) ) ) ) ) 3 $ $ $ $ $ $ $ $ $ $ $ . . ",
". . $ $ $ $ $ $ $ 9.) ) ) ) ) ) ) ) ) ) ) j.$ $ K k.0.) ) ) d.l.m.n.$ $ $ $ $ $ $ $ $ $ $ . . ",
". . $ $ $ $ $ $ 6.) ) ) ) ) ) ) ) ) ) ) o.E $ $ h p.q.r.s.R t.x 4.2 $ $ $ $ $ $ $ $ $ $ $ . . ",
". . $ $ $ $ $ $ : u.) ) ) ) ) ) ) ) ) ) [.$ $ z $ $ $ $ $ $ $ S ) A $ $ $ $ v.w.h $ $ $ $ . . ",
". . $ $ $ $ $ $ $ / ) ) ) ) ) ) ) ) ) u $ $ $ x.< y.z.8.A.V _ [ d $ $ $ $ j o.) B.5 $ $ $ . . ",
". . $ $ $ $ $ $ $ j =.) ) ) ) ) ) ) ].h $ $ $ $ $ ~.<.C.d.) ) d ].$ $ $ D.%.) ) ) E.6 $ $ . . ",
". . $ $ $ $ $ $ $ $ R 1.) ) ) ) o.F.G.$ $ $ $ $ $ $ $ $ G.m n $ $ $ $ H.I.) ) ) ) ) @.$ $ . . ",
". . $ $ $ $ $ $ $ $ $ b.9 J.I ~.b.$ $ $ $ $ $ $ $ $ $ $ $ $ $ $ $ $ $ U ) ) ) ) ) ) g.H.$ . . ",
". . $ $ $ $ $ $ $ $ $ $ $ $ $ $ $ $ $ $ $ $ $ $ $ $ $ $ $ $ $ $ $ $ $ K.) ) 0.L.) ) M.$ $ . . ",
". . $ $ $ $ $ $ $ $ $ $ $ $ $ $ $ $ $ $ $ $ $ $ $ $ $ $ $ $ $ $ $ $ $ $ 1 N 3 6.N.O.P.$ $ . . ",
". . $ $ $ $ $ $ $ $ $ $ $ $ $ $ $ $ $ $ $ $ $ $ $ $ $ $ $ $ $ $ $ $ $ $ $ $ $ $ $ $ $ $ $ . . ",
". . $ $ $ $ $ $ $ $ $ $ $ $ $ $ $ $ $ $ $ $ $ $ $ $ $ $ $ $ $ $ $ $ $ $ $ > s Q.Q.J.$ $ $ . . ",
". . $ $ $ $ $ $ $ $ $ $ $ $ $ $ $ $ $ $ $ $ $ $ $ $ $ $ $ $ $ $ $ $ $ $ ).L ) ) ) ) (.$ $ . . ",
". . $ $ $ $ $ $ $ $ $ $ $ $ $ $ $ $ $ $ $ $ $ $ $ $ $ $ $ $ $ $ $ $ $ $ R.) S.i.:.) T.$ $ . . ",
". . $ $ $ $ $ $ $ $ $ $ $ $ $ $ $ $ $ $ $ $ $ $ $ $ $ $ $ $ $ $ $ $ $ $ R.) U.$ }.s.p.$ $ . . ",
". . $ $ $ $ $ $ $ $ $ $ $ $ $ $ $ $ $ $ $ $ $ $ $ $ $ $ $ $ $ $ $ $ $ $ R.) U.$ $ $ $ $ $ . . ",
". . $ $ $ $ $ $ $ $ $ $ $ $ $ $ $ $ $ $ $ $ $ $ $ $ $ $ $ $ $ $ $ $ $ $ R.) U.$ $ $ $ $ $ . . ",
". . $ $ $ $ $ $ $ $ $ $ $ $ $ $ $ $ $ $ $ $ $ $ $ $ $ $ $ $ $ $ $ $ $ $ R.) U.$ $ $ $ $ $ . . ",
". . $ $ $ $ $ $ $ $ $ $ $ $ $ $ $ $ $ $ $ $ $ $ $ $ $ $ $ $ $ $ $ $ $ $ R.) U.$ $ $ $ $ $ . . ",
". . $ $ $ $ $ $ $ $ $ $ $ $ $ $ $ $ $ $ $ $ $ $ $ $ $ $ $ $ $ $ $ $ $ $ R.) U.$ $ $ $ $ $ . . ",
". . , $ $ $ $ $ $ $ $ $ $ $ $ $ $ $ $ $ $ $ $ $ $ $ $ $ $ $ $ $ $ $ $ $ V.e.W.$ $ $ $ $ $ . . ",
"  . X.$ $ $ $ $ $ $ $ $ $ $ $ $ $ $ $ $ $ $ $ $ $ $ $ $ $ $ $ $ $ $ $ $ $ $ $ $ $ $ $ $ Y..   ",
"  . & Z., $ $ $ $ $ $ $ $ $ $ $ $ $ $ $ $ $ $ $ $ $ $ $ $ $ $ $ $ $ $ $ $ $ $ $ $ $ , Z.`..   ",
"    . . . . . . . . . . . . . . . . . . . . . . . . . . . . . . . . . . . . . . . . . . .     ",
"        . . . . . . . . . . . . . . . . . . . . . . . . . . . . . . . . . . . . . . .         "};
