/* XPM */
static const char* hearts12_xpm[] = {
"47 62 187 2",
"  	c None",
". 	c #000000",
"+ 	c #2A2A2A",
"@ 	c #B0B0B0",
"# 	c #FCFCFC",
"$ 	c #FFFFFF",
"% 	c #B2B2B2",
"& 	c #2E2E2E",
"* 	c #BABABA",
"= 	c #FDFDFD",
"- 	c #FFFAFA",
"; 	c #FBB9C4",
"> 	c #FBB7C3",
", 	c #FDE0E5",
"' 	c #FEFEFE",
") 	c #FFF9FA",
"! 	c #F65D77",
"~ 	c #F21A3F",
"{ 	c #F32B4D",
"] 	c #FDD3DA",
"^ 	c #F54F6B",
"/ 	c #F88C9F",
"( 	c #F87B90",
"_ 	c #F6617A",
": 	c #F88498",
"< 	c #FDDDE2",
"[ 	c #F6607A",
"} 	c #FEF4F6",
"| 	c #FBC1CB",
"1 	c #FBBCC7",
"2 	c #F44563",
"3 	c #F54765",
"4 	c #F3274A",
"5 	c #F6647D",
"6 	c #FFFDFD",
"7 	c #F76D84",
"8 	c #FCC6CF",
"9 	c #FCC7D0",
"0 	c #F21B40",
"a 	c #FAABB8",
"b 	c #FFFEFE",
"c 	c #FBC0CA",
"d 	c #FBB5C1",
"e 	c #FFFBFC",
"f 	c #FEF1F3",
"g 	c #F88598",
"h 	c #FDD6DC",
"i 	c #F8899C",
"j 	c #F88A9D",
"k 	c #F55671",
"l 	c #F21F44",
"m 	c #F77A90",
"n 	c #FCCED6",
"o 	c #FBBFCA",
"p 	c #FDD4DB",
"q 	c #FCC2CC",
"r 	c #F991A3",
"s 	c #FCC9D2",
"t 	c #FFF8F9",
"u 	c #F43E5D",
"v 	c #F21C41",
"w 	c #F994A5",
"x 	c #FBB2BE",
"y 	c #F32347",
"z 	c #F32548",
"A 	c #FCD1D9",
"B 	c #F6637C",
"C 	c #F992A4",
"D 	c #F88296",
"E 	c #FBB8C4",
"F 	c #F88397",
"G 	c #F66780",
"H 	c #F8879A",
"I 	c #F32F50",
"J 	c #FBBAC5",
"K 	c #F44362",
"L 	c #FFFBFB",
"M 	c #F65F79",
"N 	c #F88699",
"O 	c #FCC3CD",
"P 	c #F6657E",
"Q 	c #F22145",
"R 	c #FCCDD5",
"S 	c #F65C77",
"T 	c #F7798F",
"U 	c #F33051",
"V 	c #F87F93",
"W 	c #FAA2B1",
"X 	c #FBB0BD",
"Y 	c #F7758B",
"Z 	c #FBBBC6",
"` 	c #F32447",
" .	c #F76C84",
"..	c #FEE9EC",
"+.	c #FEEEF1",
"@.	c #FDDCE2",
"#.	c #F66981",
"$.	c #F43B5B",
"%.	c #FEF2F4",
"&.	c #F43959",
"*.	c #F88B9E",
"=.	c #FDD7DD",
"-.	c #F32C4E",
";.	c #F32A4D",
">.	c #F88599",
",.	c #F99AAB",
"'.	c #F7768C",
").	c #F77087",
"!.	c #F43556",
"~.	c #F65873",
"{.	c #FAACBA",
"].	c #F4415F",
"^.	c #F54B68",
"/.	c #FDD8DF",
"(.	c #FEF5F7",
"_.	c #F22044",
":.	c #FFF7F8",
"<.	c #F87D92",
"[.	c #F8889C",
"}.	c #FEF0F2",
"|.	c #F7788E",
"1.	c #F43858",
"2.	c #F76B83",
"3.	c #F54865",
"4.	c #F55772",
"5.	c #FCC8D1",
"6.	c #F76E85",
"7.	c #FEEAEE",
"8.	c #F44664",
"9.	c #F5536E",
"0.	c #FBB6C2",
"a.	c #FEEBEE",
"b.	c #FAA5B4",
"c.	c #F21D41",
"d.	c #F32E50",
"e.	c #F33354",
"f.	c #FDDFE4",
"g.	c #F990A2",
"h.	c #F33052",
"i.	c #F88095",
"j.	c #FBBEC9",
"k.	c #FEECEF",
"l.	c #F54E6B",
"m.	c #F21E43",
"n.	c #F43C5C",
"o.	c #FAAAB7",
"p.	c #F54A67",
"q.	c #FEE9ED",
"r.	c #FBBDC7",
"s.	c #FFFCFD",
"t.	c #F6627B",
"u.	c #F98FA1",
"v.	c #F5536F",
"w.	c #FEEDF0",
"x.	c #F43D5C",
"y.	c #F87E93",
"z.	c #F22246",
"A.	c #F43656",
"B.	c #FBB4C1",
"C.	c #FBBDC8",
"D.	c #F44261",
"E.	c #FEE5E9",
"F.	c #F99DAD",
"G.	c #FEEFF1",
"H.	c #F996A7",
"I.	c #F43757",
"J.	c #F33253",
"K.	c #F98D9F",
"L.	c #FAABB9",
"M.	c #FEE6EA",
"N.	c #F76A82",
"O.	c #F88196",
"P.	c #FDD9DF",
"Q.	c #F997A8",
"R.	c #F32D4F",
"S.	c #F54A68",
"T.	c #FDDBE1",
"U.	c #F65C76",
"V.	c #F7748A",
"W.	c #FDDAE0",
"X.	c #F8889B",
"Y.	c #F44462",
"Z.	c #F87F94",
"`.	c #B6B6B6",
" +	c #B9B9B9",
".+	c #B8B8B8",
"++	c #2F2F2F",
"        . . . . . . . . . . . . . . . . . . . . . . . . . . . . . . . . . . . . . . .         ",
"    . . . . . . . . . . . . . . . . . . . . . . . . . . . . . . . . . . . . . . . . . . .     ",
"  . + @ # $ $ $ $ $ $ $ $ $ $ $ $ $ $ $ $ $ $ $ $ $ $ $ $ $ $ $ $ $ $ $ $ $ $ $ $ $ # % & .   ",
"  . % $ $ $ $ $ $ $ $ $ $ $ $ $ $ $ $ $ $ $ $ $ $ $ $ $ $ $ $ $ $ $ $ $ $ $ $ $ $ $ $ $ * .   ",
". . = $ $ - ; > > , $ $ $ $ $ $ $ $ $ $ $ $ $ $ $ $ $ $ $ $ $ $ $ $ $ $ $ $ $ $ $ $ $ $ ' . . ",
". . $ $ ) ! ~ ~ ~ { ] $ $ $ $ $ $ $ $ $ $ $ $ $ $ $ $ $ $ $ $ $ $ $ $ $ $ $ $ $ $ $ $ $ $ . . ",
". . $ $ ; ~ ^ / ( ~ _ $ $ $ $ $ $ $ $ $ $ $ $ $ $ $ $ $ $ $ $ $ $ $ $ $ $ $ $ $ $ $ $ $ $ . . ",
". . $ $ ; ~ : $ < ~ [ $ $ $ $ $ $ $ $ $ $ $ $ $ $ $ $ $ $ $ $ $ $ $ $ $ $ $ $ $ $ $ $ $ $ . . ",
". . $ $ ; ~ : $ < ~ [ $ $ $ $ $ $ $ $ $ $ $ $ $ $ $ $ $ $ $ $ $ $ $ $ $ $ $ $ $ $ $ $ $ $ . . ",
". . $ $ ; ~ : $ < ~ [ $ $ $ $ $ $ $ $ $ $ $ $ $ $ $ $ $ $ $ $ $ $ $ $ $ $ $ $ $ $ $ $ $ $ . . ",
". . $ $ ; ~ : $ < ~ [ $ $ $ $ $ $ $ $ $ $ $ $ $ $ $ $ $ $ $ $ $ $ $ $ $ $ $ $ $ $ $ $ $ $ . . ",
". . $ $ ; ~ : } | ~ [ $ $ $ $ $ $ $ $ $ $ $ $ $ $ $ $ $ $ $ $ $ $ $ $ $ $ $ $ $ $ $ $ $ $ . . ",
". . $ $ 1 ~ 2 3 4 ~ 5 $ $ $ $ $ $ $ $ $ $ $ $ $ $ $ $ $ $ $ $ $ $ $ $ $ $ $ $ $ $ $ $ $ $ . . ",
". . $ $ 6 7 ~ ~ ~ ~ 8 $ $ $ $ $ $ $ $ $ $ $ $ $ $ $ $ $ $ $ $ $ $ $ $ $ $ $ $ $ $ $ $ $ $ . . ",
". . $ $ $ 6 9 8 7 0 a $ $ $ $ $ $ $ $ $ $ $ $ $ $ $ $ $ $ $ $ $ $ $ $ $ $ $ $ $ $ $ $ $ $ . . ",
". . $ $ b c d e f g h $ $ $ $ $ $ $ $ $ $ $ $ $ $ $ $ $ $ $ $ $ $ $ $ $ $ $ $ $ $ $ $ $ $ . . ",
". . $ $ i ~ ~ j k ~ ~ c $ $ $ $ $ $ $ $ $ $ $ $ $ $ $ $ $ $ $ $ $ $ $ $ $ $ $ $ $ $ $ $ $ . . ",
". . $ $ 3 ~ ~ l ~ ~ ~ m $ $ $ $ $ $ $ $ $ $ $ n o $ $ $ $ p q $ $ $ $ $ $ $ $ $ $ $ $ $ $ . . ",
". . $ $ r ~ ~ ~ ~ ~ ~ s $ $ $ $ $ $ $ $ $ $ t u v w $ $ x y z A $ $ b n $ $ $ $ $ $ $ $ $ . . ",
". . $ $ e B ~ ~ ~ ~ C $ $ $ $ $ $ $ D E ) $ F ~ ~ ~ G H ~ ~ ~ I , J K H $ $ $ $ $ $ $ $ $ . . ",
". . $ $ $ L M ~ ~ N $ $ $ $ $ $ $ O ~ ~ 4 P v ~ ~ ~ ~ ~ ~ ~ ~ ~ Q ~ ~ R $ $ $ $ $ $ $ $ $ . . ",
". . $ $ $ $ - S T $ $ $ $ $ $ $ $ S ~ ~ ~ ~ ~ ~ ~ ~ ~ ~ ~ ~ ~ ~ ~ ~ U b $ $ $ $ $ $ $ $ $ . . ",
". . $ $ $ $ $ - b $ $ $ 6 V V W X 0 ~ ~ ~ ~ ~ ~ ~ ~ ~ ~ ~ ~ ~ ~ ~ ~ Y $ $ $ $ $ $ $ $ $ $ . . ",
". . $ $ $ $ $ $ $ $ $ $ $ h Q ~ ~ ~ ~ ~ ~ ~ ~ ~ ~ ~ ~ ~ ~ ~ ~ ~ ~ ~ Z $ $ $ $ $ $ $ $ $ $ . . ",
". . $ $ $ $ $ $ $ $ $ $ $ $ W ~ ~ ~ ~ ~ ~ ~ ~ ~ ~ ~ ~ ~ ~ v ~ ~ ~ ` t $ $ $ $ $ $ $ $ $ $ . . ",
". . $ $ $ $ $ $ $ $ $ $ $ $ $ G ~ ~ ~ ~ ~ ~ ~ ~ ~ ~  .> ..6 +.@.#.$.$ $ $ $ $ $ $ $ $ $ $ . . ",
". . $ $ $ $ $ $ $ $ $ $ $ $ $ %.&.~ ~ ~ ~ ~ ~ ~ ~ *.$ $ $ $ $ $ | ~ =.$ $ $ $ $ $ $ $ $ $ . . ",
". . $ $ $ $ $ $ $ $ $ $ $ $ $ $ 1 ~ ~ ~ ~ ~ ~ ~ -.) $ $ $ $ $ $ e ;.>.$ $ $ $ $ $ $ $ $ $ . . ",
". . $ $ $ $ $ $ $ $ $ $ $ $ $ $ ,.~ ~ ~ ~ ~ ~ ~ '.$ $ $ $ $ $ $ $ ).!.b $ $ $ $ $ $ $ $ $ . . ",
". . $ $ $ $ $ $ $ $ $ $ $ $ $ $ ~.~ ~ ~ ~ ~ ~ ~ O $ $ $ $ {.].^./.Z ~ s $ $ $ $ $ $ $ $ $ . . ",
". . $ $ $ $ $ $ $ $ $ $ $ $ $ (._.~ ~ ~ ~ ~ ~ v :.$ $ $ $ h <.[.}.) 4 |.$ $ $ $ $ $ $ $ $ . . ",
". . $ $ $ $ $ $ $ $ $ $ $ $ $ {.~ ~ ~ ~ ~ ~ ~ 1.$ $ $ $ $ $ $ $ $ $ 2.{ L $ $ $ $ $ $ $ $ . . ",
". . $ $ $ $ $ $ $ $ $ $ $ $ $ 3.~ ~ ~ ~ ~ ~ ~ 4.$ $ $ $ $ $ $ $ $ $ / ~ 1 $ $ $ $ $ $ $ $ . . ",
". . $ $ $ $ $ $ $ $ $ $ $ $ 5.~ ~ ~ ~ ~ ~ ~ ~ &.$ $ $ $ $ $ $ $ e <.~ z X $ $ $ $ $ $ $ $ . . ",
". . $ $ $ $ $ $ $ $ $ $ $ $ _ ~ ~ ~ ~ ~ ~ ~ ~ ~ f $ $ $ $ $ $ $ /.~ 6.7.$ $ $ $ $ $ $ $ $ . . ",
". . $ $ $ $ $ $ $ $ $ $ $ s ~ ~ ~ ~ ~ ~ ~ ~ ~ ~ c $ $ $ $ $ $ $ 9 ~ =.$ $ $ $ $ $ $ $ $ $ . . ",
". . $ $ $ $ $ $ $ $ $ $ 6 8.~ ~ ~ ~ ~ ~ ~ ~ ~ ~ 9.$ $ $ $ $ $ $ 0.~ a.$ $ $ $ $ $ $ $ $ $ . . ",
". . $ $ $ $ $ $ $ $ $ $ b.~ ~ ~ ~ ~ ~ ~ ~ ~ ~ ;.~ X $ $ $ $ $ $ b.c.6 $ $ $ $ $ $ $ $ $ $ . . ",
". . $ $ $ $ $ $ $ $ $ %.d.~ ~ ~ ~ ~ ~ ~ ~ ~ T X ~ e.(.f.D / g.r S h.$ $ $ $ $ $ $ $ $ $ $ . . ",
". . $ $ $ $ $ $ $ $ $ i.~ ~ ~ ~ ~ ~ ~ ~ ~ *.b j.~ ~ b.$ k.j l.m.~ 2 $ $ $ $ $ $ $ $ $ $ $ . . ",
". . $ $ $ $ $ $ $ $ :.n.~ ~ ~ ~ ~ ~ ~ z X $ o.m.~ p.) $ $ $ $ b f q.$ $ $ $ r.#.s.$ $ $ $ . . ",
". . $ $ $ $ $ $ $ s.7.6 1 t.$.Q 4 l.u.}.- [.~ ~ v.w.$ $ $ $ $ $ $ $ $ $ $ | Q ~ 7 6 $ $ $ . . ",
". . $ $ $ $ $ $ $ *.;.x $ $ $ $ $ $ $ q x.~ ~ y.e $ $ $ $ $ $ $ $ $ $ $ 8 z.~ ~ ~ '.$ $ $ . . ",
". . $ $ $ $ $ $ s.'.z.~ A.'.B.R C./ D.~ ~ ` a $ $ $ $ $ $ $ $ $ $ $ $ E.z ~ ~ ~ ~ ~ F.$ $ . . ",
". . $ $ $ $ $ $ $ $ G.H.I.~ ~ ~ ~ ~ ~ J.w }.$ $ $ $ $ $ $ $ $ $ $ $ $ K.~ ~ ~ ~ ~ ~ u $ $ . . ",
". . $ $ $ $ $ $ $ $ $ $ b E.5.L.F.o M.$ $ $ $ $ $ $ $ $ $ $ $ $ $ $ $ C.~ ~ 1.F ~ ~ N.$ $ . . ",
". . $ $ $ $ $ $ $ $ $ $ $ $ $ $ $ $ $ $ $ $ $ $ $ $ $ $ $ $ $ $ $ $ $ b E O.P.(.Q.Q.G.$ $ . . ",
". . $ $ $ $ $ $ $ $ $ $ $ $ $ $ $ $ $ $ $ $ $ $ $ $ $ $ $ $ $ $ $ $ $ $ $ N j $ $ $ $ $ $ . . ",
". . $ $ $ $ $ $ $ $ $ $ $ $ $ $ $ $ $ $ $ $ $ $ $ $ $ $ $ $ $ $ $ $ $ $ ..R.~ S.9.u.$ $ $ . . ",
". . $ $ $ $ $ $ $ $ $ $ $ $ $ $ $ $ $ $ $ $ $ $ $ $ $ $ $ $ $ $ $ $ $ $ T.4 ~ ~ ~ ~ w $ $ . . ",
". . $ $ $ $ $ $ $ $ $ $ $ $ $ $ $ $ $ $ $ $ $ $ $ $ $ $ $ $ $ $ $ $ $ $ 0.~ U.V.9 ~ B $ $ . . ",
". . $ $ $ $ $ $ $ $ $ $ $ $ $ $ $ $ $ $ $ $ $ $ $ $ $ $ $ $ $ $ $ $ $ $ 0.~ H $ W.~ B $ $ . . ",
". . $ $ $ $ $ $ $ $ $ $ $ $ $ $ $ $ $ $ $ $ $ $ $ $ $ $ $ $ $ $ $ $ $ $ 0.~ H $ W.~ B $ $ . . ",
". . $ $ $ $ $ $ $ $ $ $ $ $ $ $ $ $ $ $ $ $ $ $ $ $ $ $ $ $ $ $ $ $ $ $ 0.~ H $ W.~ B $ $ . . ",
". . $ $ $ $ $ $ $ $ $ $ $ $ $ $ $ $ $ $ $ $ $ $ $ $ $ $ $ $ $ $ $ $ $ $ 0.~ H $ W.~ B $ $ . . ",
". . $ $ $ $ $ $ $ $ $ $ $ $ $ $ $ $ $ $ $ $ $ $ $ $ $ $ $ $ $ $ $ $ $ $ 0.~ H $ W.~ B $ $ . . ",
". . $ $ $ $ $ $ $ $ $ $ $ $ $ $ $ $ $ $ $ $ $ $ $ $ $ $ $ $ $ $ $ $ $ $ p Q ~ ~ ~ ~ X.$ $ . . ",
". . ' $ $ $ $ $ $ $ $ $ $ $ $ $ $ $ $ $ $ $ $ $ $ $ $ $ $ $ $ $ $ $ $ $ $ q 8.Y.Y.Z.b $ $ . . ",
"  . `.$ $ $ $ $ $ $ $ $ $ $ $ $ $ $ $ $ $ $ $ $ $ $ $ $ $ $ $ $ $ $ $ $ $ $ $ $ $ $ $ $  +.   ",
"  . & .+' $ $ $ $ $ $ $ $ $ $ $ $ $ $ $ $ $ $ $ $ $ $ $ $ $ $ $ $ $ $ $ $ $ $ $ $ $ ' .+++.   ",
"    . . . . . . . . . . . . . . . . . . . . . . . . . . . . . . . . . . . . . . . . . . .     ",
"        . . . . . . . . . . . . . . . . . . . . . . . . . . . . . . . . . . . . . . .         "};
