/* XPM */
static const char* hearts13_xpm[] = {
"47 62 269 2",
"  	c None",
". 	c #000000",
"+ 	c #2A2A2A",
"@ 	c #B0B0B0",
"# 	c #FCFCFC",
"$ 	c #FFFFFF",
"% 	c #B2B2B2",
"& 	c #2E2E2E",
"* 	c #BABABA",
"= 	c #FDFDFD",
"- 	c #FDD7DE",
"; 	c #FBB7C3",
"> 	c #FEEBEE",
", 	c #FDDCE2",
"' 	c #FDD4DB",
") 	c #FEFEFE",
"! 	c #F87F94",
"~ 	c #F21A3F",
"{ 	c #FBBDC8",
"] 	c #FFFAFA",
"^ 	c #F43C5C",
"/ 	c #F21B40",
"( 	c #FCCCD4",
"_ 	c #F996A7",
": 	c #F76D84",
"< 	c #FAA8B6",
"[ 	c #F32649",
"} 	c #F32548",
"| 	c #FEE8EB",
"1 	c #F43757",
"2 	c #F992A4",
"3 	c #F21D41",
"4 	c #FEEFF1",
"5 	c #F88A9D",
"6 	c #FAACBA",
"7 	c #F32A4D",
"8 	c #F22145",
"9 	c #FDE2E7",
"0 	c #FA9FAE",
"a 	c #F6657D",
"b 	c #FFFCFD",
"c 	c #F44260",
"d 	c #FCC5CE",
"e 	c #FDE0E5",
"f 	c #FCC6CF",
"g 	c #FDE4E8",
"h 	c #FEE5E9",
"i 	c #FAA3B2",
"j 	c #FEE7EB",
"k 	c #FCC6D0",
"l 	c #FBB1BD",
"m 	c #FFF9FA",
"n 	c #F21E43",
"o 	c #F33153",
"p 	c #FBB0BD",
"q 	c #F65E78",
"r 	c #FAA5B4",
"s 	c #F21F44",
"t 	c #FFFBFB",
"u 	c #FEF4F6",
"v 	c #FEEDF0",
"w 	c #FEECEF",
"x 	c #F22246",
"y 	c #F76C84",
"z 	c #FFFEFE",
"A 	c #F998A8",
"B 	c #FFFDFD",
"C 	c #FEF5F7",
"D 	c #F54966",
"E 	c #F87B91",
"F 	c #F88196",
"G 	c #F4405F",
"H 	c #FEE8EC",
"I 	c #FBBDC7",
"J 	c #F44462",
"K 	c #FEF1F3",
"L 	c #FAACB9",
"M 	c #F55570",
"N 	c #FCD0D7",
"O 	c #F66981",
"P 	c #F65D77",
"Q 	c #FEE9EC",
"R 	c #F76F86",
"S 	c #F21C41",
"T 	c #F65A75",
"U 	c #FCD1D8",
"V 	c #F66C84",
"W 	c #F21E42",
"X 	c #F55772",
"Y 	c #F32C4E",
"Z 	c #F6627C",
"` 	c #F33555",
" .	c #F76981",
"..	c #F6637C",
"+.	c #FBB2BE",
"@.	c #F43959",
"#.	c #FFF7F8",
"$.	c #FAAAB8",
"%.	c #FDE1E6",
"&.	c #FCBDC7",
"*.	c #FFF8F9",
"=.	c #F76E86",
"-.	c #F32245",
";.	c #F43C5B",
">.	c #F54664",
",.	c #F54B68",
"'.	c #F88498",
").	c #F32C4F",
"!.	c #F77B91",
"~.	c #F76D85",
"{.	c #F32346",
"].	c #FEE6EA",
"^.	c #F998A9",
"/.	c #F88699",
"(.	c #F88599",
"_.	c #F88397",
":.	c #F88297",
"<.	c #F88296",
"[.	c #F88195",
"}.	c #FCCAD3",
"|.	c #FEF2F4",
"1.	c #FCC9D2",
"2.	c #F54865",
"3.	c #FBBEC8",
"4.	c #F5516D",
"5.	c #FEF3F5",
"6.	c #F66880",
"7.	c #F999AA",
"8.	c #FAADBA",
"9.	c #FCC8D1",
"0.	c #FFFBFC",
"a.	c #F33959",
"b.	c #F33758",
"c.	c #F66079",
"d.	c #F43E5E",
"e.	c #F43D5D",
"f.	c #F6667F",
"g.	c #FAAFBC",
"h.	c #FDD8DE",
"i.	c #F54E6B",
"j.	c #F76E85",
"k.	c #F5526E",
"l.	c #F65F79",
"m.	c #F77188",
"n.	c #F7788E",
"o.	c #FAB1BD",
"p.	c #F32749",
"q.	c #FEF0F2",
"r.	c #F32D4E",
"s.	c #FBB9C4",
"t.	c #F98D9F",
"u.	c #F32246",
"v.	c #FCCDD5",
"w.	c #F66780",
"x.	c #F43A5A",
"y.	c #F43B5B",
"z.	c #F991A3",
"A.	c #F54563",
"B.	c #F5536E",
"C.	c #FAA2B1",
"D.	c #F993A5",
"E.	c #F77187",
"F.	c #F65671",
"G.	c #F77D92",
"H.	c #F997A8",
"I.	c #F55671",
"J.	c #F5536F",
"K.	c #FBB5C1",
"L.	c #F33253",
"M.	c #FEF6F7",
"N.	c #FEE3E7",
"O.	c #FCC0CA",
"P.	c #F32B4D",
"Q.	c #F7748B",
"R.	c #FBBCC7",
"S.	c #F98FA1",
"T.	c #F8899C",
"U.	c #F8859A",
"V.	c #FAA7B5",
"W.	c #F3264A",
"X.	c #F98A9D",
"Y.	c #F65974",
"Z.	c #F99EAE",
"`.	c #F32447",
" +	c #F77289",
".+	c #F6677F",
"++	c #F32F51",
"@+	c #F32549",
"#+	c #F55A74",
"$+	c #FAAEBB",
"%+	c #F3274A",
"&+	c #F7798F",
"*+	c #F43758",
"=+	c #FCBCC7",
"-+	c #FEECF0",
";+	c #F33656",
">+	c #FAA5B3",
",+	c #FAAAB7",
"'+	c #F76B83",
")+	c #FBC3CC",
"!+	c #FBB1BE",
"~+	c #FCCDD4",
"{+	c #F21D42",
"]+	c #FEF1F4",
"^+	c #FAADBB",
"/+	c #F77087",
"(+	c #F3284B",
"_+	c #F43A59",
":+	c #FCD2D9",
"<+	c #FDD3DA",
"[+	c #FBBFC9",
"}+	c #FBB8C3",
"|+	c #FCD0D8",
"1+	c #F3294B",
"2+	c #FAB1BE",
"3+	c #F43556",
"4+	c #FCC8D0",
"5+	c #FBC4CE",
"6+	c #FEE3E8",
"7+	c #F77C91",
"8+	c #FAA9B7",
"9+	c #F8879A",
"0+	c #FDDEE3",
"a+	c #F54765",
"b+	c #F42E50",
"c+	c #F43D5C",
"d+	c #F43859",
"e+	c #FCC4CD",
"f+	c #F3284A",
"g+	c #F88B9D",
"h+	c #FAABB9",
"i+	c #FDD2D9",
"j+	c #F6657E",
"k+	c #FBB4C1",
"l+	c #F65B75",
"m+	c #FCC5CF",
"n+	c #F43857",
"o+	c #F32B4E",
"p+	c #FBBBC6",
"q+	c #FEEEF0",
"r+	c #FA9CAC",
"s+	c #F7768C",
"t+	c #F32E50",
"u+	c #F54866",
"v+	c #FAA1B0",
"w+	c #F54F6B",
"x+	c #FDD9DF",
"y+	c #FDDAE0",
"z+	c #F65772",
"A+	c #F88095",
"B+	c #FEEBEF",
"C+	c #F33052",
"D+	c #FBBFCA",
"E+	c #F99AAB",
"F+	c #F65C77",
"G+	c #F7778D",
"H+	c #F88B9E",
"I+	c #F3294C",
"J+	c #FEEEF1",
"K+	c #FDE3E8",
"L+	c #F99DAD",
"M+	c #F4415F",
"N+	c #FAA6B4",
"O+	c #F54A67",
"P+	c #F55571",
"Q+	c #B6B6B6",
"R+	c #B9B9B9",
"S+	c #B8B8B8",
"T+	c #2F2F2F",
"        . . . . . . . . . . . . . . . . . . . . . . . . . . . . . . . . . . . . . . .         ",
"    . . . . . . . . . . . . . . . . . . . . . . . . . . . . . . . . . . . . . . . . . . .     ",
"  . + @ # $ $ $ $ $ $ $ $ $ $ $ $ $ $ $ $ $ $ $ $ $ $ $ $ $ $ $ $ $ $ $ $ $ $ $ $ $ # % & .   ",
"  . % $ $ $ $ $ $ $ $ $ $ $ $ $ $ $ $ $ $ $ $ $ $ $ $ $ $ $ $ $ $ $ $ $ $ $ $ $ $ $ $ $ * .   ",
". . = $ - ; > $ , ; ' $ $ $ $ $ $ $ $ $ $ $ $ $ $ $ $ $ $ $ $ $ $ $ $ $ $ $ $ $ $ $ $ $ ) . . ",
". . $ $ ! ~ { ] ^ / ( $ $ $ $ $ $ $ $ $ $ $ $ $ $ $ $ $ $ $ $ $ $ $ $ $ $ $ $ $ $ $ $ $ $ . . ",
". . $ $ ! ~ { _ ~ : $ $ $ $ $ $ $ $ $ $ $ $ $ $ $ $ $ $ $ $ $ $ $ $ $ $ $ $ $ $ $ $ $ $ $ . . ",
". . $ $ ! ~ < [ } | $ $ $ $ $ $ $ $ $ $ $ $ $ $ $ $ $ $ $ $ $ $ $ $ $ $ $ $ $ $ $ $ $ $ $ . . ",
". . $ $ ! ~ 1 ~ 2 $ $ $ $ $ $ $ $ $ $ $ $ $ $ $ $ $ $ $ $ $ $ $ $ $ $ $ $ $ $ $ $ $ $ $ $ . . ",
". . $ $ ! ~ ~ 3 4 $ $ $ $ $ $ $ $ $ $ $ $ $ $ $ $ $ $ $ $ $ $ $ $ $ $ $ $ $ $ $ $ $ $ $ $ . . ",
". . $ $ ! ~ ^ ~ 5 $ $ $ $ $ $ $ $ $ $ $ $ $ $ $ $ $ $ $ $ $ $ $ $ $ $ $ $ $ $ $ $ $ $ $ $ . . ",
". . $ $ ! ~ 6 7 8 9 $ $ $ $ $ $ $ $ $ $ $ $ $ $ $ $ $ $ $ $ $ $ $ $ $ $ $ $ $ $ $ $ $ $ $ . . ",
". . $ $ ! ~ { 0 ~ a $ $ $ $ $ $ $ $ $ $ $ $ $ $ $ $ $ $ $ $ $ $ $ $ $ $ $ $ $ $ $ $ $ $ $ . . ",
". . $ $ ! ~ { b c ~ d $ $ $ $ $ $ $ $ $ $ $ $ $ $ $ $ $ $ $ $ $ $ $ $ $ $ $ $ $ $ $ $ $ $ . . ",
". . $ $ e f 4 $ g f , $ $ $ $ $ $ $ $ $ $ $ $ $ $ $ $ $ $ $ $ $ $ $ $ $ $ $ $ $ $ $ $ $ $ . . ",
". . $ $ $ h i j $ k l m $ $ $ $ $ $ $ $ $ $ $ $ $ $ $ $ $ $ $ $ $ $ $ $ $ $ $ $ $ $ $ $ $ . . ",
". . $ $ j n ~ o p ~ ~ q $ $ $ $ $ $ $ $ $ $ $ $ $ $ $ $ $ $ $ $ $ $ $ $ $ $ $ $ $ $ $ $ $ . . ",
". . $ $ r ~ ~ ~ s ~ ~ 8 t $ $ $ $ $ $ $ $ $ $ u $ $ $ $ $ v $ $ $ $ $ $ $ $ $ $ $ $ $ $ $ . . ",
". . $ $ w x ~ ~ ~ ~ ~ y $ $ $ $ $ z A B $ $ C D E b $ $ F G H $ $ $ $ $ $ $ $ $ $ $ $ $ $ . . ",
". . $ $ $ I s ~ ~ ~ J K $ $ $ $ $ L 3 M N $ O ~ ~ P Q R S ~ T B $ U V > $ $ $ $ $ $ $ $ $ . . ",
". . $ $ $ $ ; W ~ ^ > $ $ $ $ $ $ X ~ ~ Y Z W ~ ~ ~ ` ~ ~ ~ ~  .q } ..$ $ $ $ $ $ $ $ $ $ . . ",
". . $ $ $ $ $ +.@.h $ $ #.$.%.$ &.n ~ ~ ~ ~ ~ ~ ~ ~ ~ ~ ~ ~ ~ ~ ~ / L $ $ $ $ $ $ $ $ $ $ . . ",
". . $ $ $ $ $ $ *.$ $ $ $ =.-.^ ;.~ ~ ~ ~ ~ ~ ~ ~ ~ ~ ~ ~ ~ ~ ~ ~ >.b $ $ $ $ $ $ $ $ $ $ . . ",
". . $ $ $ $ $ $ $ $ $ $ $ *.,.~ ~ ~ ~ ~ ~ ~ ~ ~ ~ ~ ~ ~ ~ ~ ~ ~ ~ '.$ $ $ $ $ $ $ $ $ $ $ . . ",
". . $ $ $ $ $ $ $ $ $ $ $ $ ( ).~ ~ ~ ~ ~ ~ ~ ~ ~ ~ ~ ~ ~ ~ ~ ~ / ' $ $ $ $ $ $ $ $ $ $ $ . . ",
". . $ $ $ $ $ $ $ $ $ $ $ $ $ !.~ ~ ~ ~ ~ ~ ~ ~ ~ ~ ~ ~ ~ ~ ~ ~ n %.$ $ $ $ $ $ $ $ $ $ $ . . ",
". . $ $ $ $ $ $ $ $ $ $ $ $ $ ~.~ ~ ~ ~ ~ ~ ~ ~ ~ ~ ~ ~ ~ ~ ~ ~ {.].$ $ $ $ $ $ $ $ $ $ $ . . ",
". . $ $ $ $ $ $ $ $ $ $ $ $ $ ^./.(.(.'.'._._._._._.:.:.<.<.[.V 3 }.$ $ $ $ $ $ $ $ $ $ $ . . ",
". . $ $ $ $ $ $ $ $ $ $ $ $ |.M 1.r 2.3.'.4.5.6.7.$ $ $ $ 8.9.0.a.[.$ $ $ $ $ $ $ $ $ $ $ . . ",
". . $ $ $ $ $ $ $ $ $ $ $ $ ^.b.#.c.d.#.e.f.L / g.$ $ $ h.e.i.|.j.k.$ $ $ $ $ $ $ $ $ $ $ . . ",
". . $ $ $ $ $ $ $ $ $ $ $ $ l.m.Q Y n.L ~ < : ^ t $ $ $ $ 5.b $ o.p.j $ $ $ $ $ $ $ $ $ $ . . ",
". . $ $ $ $ $ $ $ $ $ $ $ q.r.s.t.u.v.w.x.|.b.j.$ $ $ $ $ $ $ $ b y.z.$ $ $ $ $ $ $ $ $ $ . . ",
". . $ $ $ $ $ $ $ $ $ $ $ _ A.z M B.$ C.s.9.3 D.$ $ $ $ $ $ $ $ $ E.c.$ $ $ $ $ $ $ $ $ $ . . ",
". . $ $ $ $ $ $ $ $ $ $ $ F.G.b H.1.$ $ $ $ I.J.B $ $ $ $ $ $ $ $ K.L.M.$ $ $ $ $ $ $ $ $ . . ",
". . $ $ $ $ $ $ $ $ $ $ $ f e $ $ $ $ $ 0.N.O.P.Q.$ $ $ $ #.R.S.T.U.7 V.$ $ $ $ $ $ $ $ $ . . ",
". . $ $ $ $ $ $ $ $ $ t ..[ W.G.$ $ $ $ X.Y.$ Z.`. +0.h .+++{.Y @+#+: $+$ $ $ $ $ $ $ $ $ . . ",
". . $ $ $ $ $ $ $ $ z O %+6.&+*+=+$ $ -+;+3 >+$ ,+x.k.x.'+)+Q !+p.K $ $ $ $ $ $ $ $ $ $ $ . . ",
". . $ $ $ $ $ $ $ $ ~+{+'.$ $ ]+^+$ $ /+Y (+_+:+$ <+;.v.$ $ $ [+~ }+$ $ $ $ $ $ $ $ $ $ $ . . ",
". . $ $ $ $ $ $ $ $ S.S ( $ $ $ $ $ |+1+F 2+3+a.4+5+6+$ $ $ $ *.;+7+$ $ $ $ $ $ $ $ $ $ $ . . ",
". . $ $ $ $ $ $ $ $ 8+~ 9+$ $ $ $ 0+D D m $ N a+b+[.#.$ $ $ $ $ ..J B $ $ $ $ $ $ $ $ $ $ . . ",
". . $ $ $ $ $ $ $ $ *.c+d+}+$ $ e+e.f+}+$ $ $ m g+;+;./+7.h+)+i+j+S k+$ $ $ 5.l+<+$ $ $ $ . . ",
". . $ $ $ $ $ $ $ $ $ m+n+{.k.2.o+G p+$ $ $ $ $ $ q+r+s+k.t+/ } L.u+v+$ $ u w+~ Y x+$ $ $ . . ",
". . $ $ $ $ $ $ $ $ $ $ y+_.z+f.A+B+$ $ $ $ $ $ $ $ $ $ $ u x+v B $ $ $ M.k.~ ~ ~ C+e $ $ . . ",
". . $ $ $ $ $ $ $ $ $ $ $ $ $ $ $ $ $ $ $ $ $ $ $ $ $ $ $ $ $ $ $ $ $ $ O ~ ~ ~ ~ ~ y.b $ . . ",
". . $ $ $ $ $ $ $ $ $ $ $ $ $ $ $ $ $ $ $ $ $ $ $ $ $ $ $ $ $ $ $ $ $ v 3 ~ ~ ~ ~ ~ ~ D+$ . . ",
". . $ $ $ $ $ $ $ $ $ $ $ $ $ $ $ $ $ $ $ $ $ $ $ $ $ $ $ $ $ $ $ $ $ z @.~ ~ E+8 ~ W | $ . . ",
". . $ $ $ $ $ $ $ $ $ $ $ $ $ $ $ $ $ $ $ $ $ $ $ $ $ $ $ $ $ $ $ $ $ $ e 9+,+z k A+( $ $ . . ",
". . $ $ $ $ $ $ $ $ $ $ $ $ $ $ $ $ $ $ $ $ $ $ $ $ $ $ $ $ $ $ $ $ $ $ $ $ $ $ $ $ $ $ $ . . ",
". . $ $ $ $ $ $ $ $ $ $ $ $ $ $ $ $ $ $ $ $ $ $ $ $ $ $ $ $ $ $ $ $ $ $ > I.F+M.$ ..q $ $ . . ",
". . $ $ $ $ $ $ $ $ $ $ $ $ $ $ $ $ $ $ $ $ $ $ $ $ $ $ $ $ $ $ $ $ $ $ $ G+~ H+$ t+I+$ $ . . ",
". . $ $ $ $ $ $ $ $ $ $ $ $ $ $ $ $ $ $ $ $ $ $ $ $ $ $ $ $ $ $ $ $ $ $ $ J+I+x K+t+I+$ $ . . ",
". . $ $ $ $ $ $ $ $ $ $ $ $ $ $ $ $ $ $ $ $ $ $ $ $ $ $ $ $ $ $ $ $ $ $ $ $ L+~ j+t+I+$ $ . . ",
". . $ $ $ $ $ $ $ $ $ $ $ $ $ $ $ $ $ $ $ $ $ $ $ $ $ $ $ $ $ $ $ $ $ $ $ $ 0.M+~ 3 I+$ $ . . ",
". . $ $ $ $ $ $ $ $ $ $ $ $ $ $ $ $ $ $ $ $ $ $ $ $ $ $ $ $ $ $ $ $ $ $ $ $ B 2.~ / I+$ $ . . ",
". . $ $ $ $ $ $ $ $ $ $ $ $ $ $ $ $ $ $ $ $ $ $ $ $ $ $ $ $ $ $ $ $ $ $ $ $ N+~ P t+I+$ $ . . ",
". . $ $ $ $ $ $ $ $ $ $ $ $ $ $ $ $ $ $ $ $ $ $ $ $ $ $ $ $ $ $ $ $ $ $ $ |.t+s 0+t+I+$ $ . . ",
". . $ $ $ $ $ $ $ $ $ $ $ $ $ $ $ $ $ $ $ $ $ $ $ $ $ $ $ $ $ $ $ $ $ $ $ A+~ _.$ t+I+$ $ . . ",
". . ) $ $ $ $ $ $ $ $ $ $ $ $ $ $ $ $ $ $ $ $ $ $ $ $ $ $ $ $ $ $ $ $ $ > O+i.5.$ P+4.$ $ . . ",
"  . Q+$ $ $ $ $ $ $ $ $ $ $ $ $ $ $ $ $ $ $ $ $ $ $ $ $ $ $ $ $ $ $ $ $ $ $ $ $ $ $ $ $ R+.   ",
"  . & S+) $ $ $ $ $ $ $ $ $ $ $ $ $ $ $ $ $ $ $ $ $ $ $ $ $ $ $ $ $ $ $ $ $ $ $ $ $ ) S+T+.   ",
"    . . . . . . . . . . . . . . . . . . . . . . . . . . . . . . . . . . . . . . . . . . .     ",
"        . . . . . . . . . . . . . . . . . . . . . . . . . . . . . . . . . . . . . . .         "};
