/* XPM */
static const char* hearts2_xpm[] = {
"47 62 157 2",
"  	c None",
". 	c #000000",
"+ 	c #2A2A2A",
"@ 	c #B0B0B0",
"# 	c #FCFCFC",
"$ 	c #FFFFFF",
"% 	c #B2B2B2",
"& 	c #FDFDFD",
"* 	c #FFFBFC",
"= 	c #FBB9C4",
"- 	c #FBB7C3",
"; 	c #FDDFE4",
"> 	c #F6647D",
", 	c #F21A3F",
"' 	c #F32A4D",
") 	c #FDD4DB",
"! 	c #FBBEC9",
"~ 	c #F54A67",
"{ 	c #F88599",
"] 	c #F7778D",
"^ 	c #F65D77",
"/ 	c #FBC1CB",
"( 	c #F3274A",
"_ 	c #F8889B",
": 	c #FDE0E5",
"< 	c #F65C77",
"[ 	c #FEF3F5",
"} 	c #F99CAC",
"| 	c #F99AAB",
"1 	c #F8899C",
"2 	c #F54F6B",
"3 	c #FCCFD7",
"4 	c #FBBDC7",
"5 	c #F65A74",
"6 	c #FAA9B7",
"7 	c #FDD7DE",
"8 	c #F88095",
"9 	c #FFFDFD",
"0 	c #FBB5C1",
"a 	c #FBBBC6",
"b 	c #FCC2CC",
"c 	c #FBB0BD",
"d 	c #F44362",
"e 	c #F7768D",
"f 	c #F76B83",
"g 	c #FEECEF",
"h 	c #F43959",
"i 	c #F55470",
"j 	c #F66881",
"k 	c #F43556",
"l 	c #FEE7EB",
"m 	c #F99AAA",
"n 	c #F998A8",
"o 	c #F98EA0",
"p 	c #FEEFF1",
"q 	c #FCC6CF",
"r 	c #FDD7DD",
"s 	c #F6637C",
"t 	c #F55671",
"u 	c #FEE6EA",
"v 	c #FAA4B3",
"w 	c #FEEDF0",
"x 	c #FDDDE2",
"y 	c #FAA8B6",
"z 	c #FAAEBB",
"A 	c #FAA6B4",
"B 	c #FFFCFD",
"C 	c #F43656",
"D 	c #F65974",
"E 	c #FFF7F8",
"F 	c #F43B5B",
"G 	c #F43757",
"H 	c #FEF5F7",
"I 	c #FFFBFB",
"J 	c #F33052",
"K 	c #FDE2E7",
"L 	c #F33153",
"M 	c #FDDBE1",
"N 	c #F21E42",
"O 	c #F32D4F",
"P 	c #FDDCE2",
"Q 	c #F3294C",
"R 	c #F22145",
"S 	c #FCCAD3",
"T 	c #FBB1BD",
"U 	c #F21D41",
"V 	c #F3284B",
"W 	c #FCCBD3",
"X 	c #F32347",
"Y 	c #F21C41",
"Z 	c #FAACBA",
"` 	c #FCCDD5",
" .	c #FBBDC8",
"..	c #F21E43",
"+.	c #F99EAE",
"@.	c #FEF6F7",
"#.	c #FDDEE3",
"$.	c #F33354",
"%.	c #F997A8",
"&.	c #FBB4C1",
"*.	c #FEE8EB",
"=.	c #FDD8DF",
"-.	c #F99BAB",
";.	c #F21F44",
">.	c #FEF1F3",
",.	c #F44261",
"'.	c #F33455",
").	c #F32447",
"!.	c #FCD0D8",
"~.	c #F5506C",
"{.	c #F44462",
"].	c #FEF2F4",
"^.	c #FFF8F9",
"/.	c #F65B75",
"(.	c #FFFEFE",
"_.	c #F65F79",
":.	c #F55772",
"<.	c #F4405F",
"[.	c #F76A82",
"}.	c #F7748A",
"|.	c #FCC3CD",
"1.	c #FBBCC7",
"2.	c #FEF4F6",
"3.	c #FBC0CA",
"4.	c #FFF9FA",
"5.	c #F76D84",
"6.	c #F6607A",
"7.	c #F6657D",
"8.	c #F7798F",
"9.	c #FCC6D0",
"0.	c #F5536E",
"a.	c #F88C9F",
"b.	c #FFFAFA",
"c.	c #F44563",
"d.	c #F21B40",
"e.	c #FBB4C0",
"f.	c #F6657E",
"g.	c #F87C91",
"h.	c #F88196",
"i.	c #FDE3E8",
"j.	c #FEE9ED",
"k.	c #F8889C",
"l.	c #F87F93",
"m.	c #FDD9DF",
"n.	c #FCC5CE",
"o.	c #F43858",
"p.	c #FCD2D9",
"q.	c #F22044",
"r.	c #F6667F",
"s.	c #FEEEF1",
"t.	c #F88699",
"u.	c #FCD1D9",
"v.	c #FEFEFE",
"w.	c #F88397",
"x.	c #B6B6B6",
"y.	c #2E2E2E",
"z.	c #B8B8B8",
"        . . . . . . . . . . . . . . . . . . . . . . . . . . . . . . . . . . . . . . .         ",
"    . . . . . . . . . . . . . . . . . . . . . . . . . . . . . . . . . . . . . . . . . . .     ",
"  . + @ # $ $ $ $ $ $ $ $ $ $ $ $ $ $ $ $ $ $ $ $ $ $ $ $ $ $ $ $ $ $ $ $ $ $ $ $ $ # @ + .   ",
"  . % $ $ $ $ $ $ $ $ $ $ $ $ $ $ $ $ $ $ $ $ $ $ $ $ $ $ $ $ $ $ $ $ $ $ $ $ $ $ $ $ $ % .   ",
". . & $ $ $ * = - - ; $ $ $ $ $ $ $ $ $ $ $ $ $ $ $ $ $ $ $ $ $ $ $ $ $ $ $ $ $ $ $ $ $ & . . ",
". . $ $ $ * > , , , ' ) $ $ $ $ $ $ $ $ $ $ $ $ $ $ $ $ $ $ $ $ $ $ $ $ $ $ $ $ $ $ $ $ $ . . ",
". . $ $ $ ! , ~ { ] , ^ $ $ $ $ $ $ $ $ $ $ $ $ $ $ $ $ $ $ $ $ $ $ $ $ $ $ $ $ $ $ $ $ $ . . ",
". . $ $ $ / ( _ $ : , < $ $ $ $ $ $ $ $ $ $ $ $ $ $ $ $ $ $ $ $ $ $ $ $ $ $ $ $ $ $ $ $ $ . . ",
". . $ $ $ $ [ } | 1 , < $ $ $ $ $ $ $ $ $ $ $ $ $ $ $ $ $ $ $ $ $ $ $ $ $ $ $ $ $ $ $ $ $ . . ",
". . $ $ $ [ 2 , , , ( 3 $ $ $ $ $ $ $ $ $ $ $ $ $ $ $ $ $ $ $ $ $ $ $ $ $ $ $ $ $ $ $ $ $ . . ",
". . $ $ $ 4 , 5 6 6 7 $ $ $ $ $ $ $ $ $ $ $ $ $ $ $ $ $ $ $ $ $ $ $ $ $ $ $ $ $ $ $ $ $ $ . . ",
". . $ $ $ 4 , 8 $ : , < $ $ $ $ $ $ $ 9 0 a 9 $ $ b c * $ $ $ $ $ $ $ $ $ $ $ $ $ $ $ $ $ . . ",
". . $ $ $ 4 , d e f , < $ $ $ $ $ $ g h , , i $ j , , k l $ $ $ $ $ $ $ $ $ $ $ $ $ $ $ $ . . ",
". . $ $ $ 4 , , , , , < $ $ $ $ $ $ m , , , , n , , , , o $ $ $ $ $ $ $ $ $ $ $ $ $ $ $ $ . . ",
". . $ $ $ p q q q q q r $ $ $ $ $ $ s , , , , , , , , , t $ $ $ $ $ $ $ $ $ $ $ $ $ $ $ $ . . ",
". . $ $ $ $ u v w x y [ $ $ $ $ $ $ z , , , , , , , , , A $ $ $ $ $ $ $ $ $ $ $ $ $ $ $ $ . . ",
". . $ $ $ B C , D k , j $ $ $ $ $ $ E F , , , , , , , G H $ $ $ $ $ $ $ $ $ $ $ $ $ $ $ $ . . ",
". . $ $ $ I J , , , , > $ $ $ $ $ $ $ K L , , , , , ' M $ $ $ $ $ $ $ $ $ $ $ $ $ $ $ $ $ . . ",
". . $ $ $ $ = N , , O P $ $ $ $ $ $ $ $ 7 Q , , , R S $ $ $ $ $ $ $ $ $ $ $ $ $ $ $ $ $ $ . . ",
". . $ $ $ $ $ T U V ) $ $ $ $ $ $ $ $ $ $ W X , Y 0 $ $ $ $ $ $ $ $ $ $ $ $ $ $ $ $ $ $ $ . . ",
". . $ $ $ $ $ $ Z ` $ $ $ $ $ $ $ $ $ $ $ $  ...+.$ $ $ $ $ $ $ $ $ $ $ $ $ $ $ $ $ $ $ $ . . ",
". . $ $ $ $ $ $ $ $ $ $ $ $ $ $ $ $ $ $ $ $ $ 7 $ $ $ $ $ $ $ $ $ $ $ $ $ $ $ $ $ $ $ $ $ . . ",
". . $ $ $ $ $ $ $ $ $ $ $ $ $ $ $ $ $ $ $ $ $ $ $ $ $ $ $ $ $ $ $ $ $ $ $ $ $ $ $ $ $ $ $ . . ",
". . $ $ $ $ $ $ $ $ $ $ $ $ $ $ $ $ $ $ $ $ $ $ $ $ $ $ $ $ $ $ $ $ $ $ $ $ $ $ $ $ $ $ $ . . ",
". . $ $ $ $ $ $ $ $ $ $ $ $ $ $ $ $ $ $ $ $ $ $ $ $ $ $ $ $ $ $ $ $ $ $ $ $ $ $ $ $ $ $ $ . . ",
". . $ $ $ $ $ $ $ $ $ $ $ $ $ $ $ $ $ $ $ $ $ $ $ $ $ $ $ $ $ $ $ $ $ $ $ $ $ $ $ $ $ $ $ . . ",
". . $ $ $ $ $ $ $ $ $ $ $ $ $ $ $ $ $ $ $ $ $ $ $ $ $ $ $ $ $ $ $ $ $ $ $ $ $ $ $ $ $ $ $ . . ",
". . $ $ $ $ $ $ $ $ $ $ $ $ $ $ $ $ $ $ $ $ $ $ $ $ $ $ $ $ $ $ $ $ $ $ $ $ $ $ $ $ $ $ $ . . ",
". . $ $ $ $ $ $ $ $ $ $ $ $ $ $ $ $ $ $ $ $ $ $ $ $ $ $ $ $ $ $ $ $ $ $ $ $ $ $ $ $ $ $ $ . . ",
". . $ $ $ $ $ $ $ $ $ $ $ $ $ $ $ $ $ $ $ $ $ $ $ $ $ $ $ $ $ $ $ $ $ $ $ $ $ $ $ $ $ $ $ . . ",
". . $ $ $ $ $ $ $ $ $ $ $ $ $ $ $ $ $ $ $ $ $ $ $ $ $ $ $ $ $ $ $ $ $ $ $ $ $ $ $ $ $ $ $ . . ",
". . $ $ $ $ $ $ $ $ $ $ $ $ $ $ $ $ $ $ $ $ $ $ $ $ $ $ $ $ $ $ $ $ $ $ $ $ $ $ $ $ $ $ $ . . ",
". . $ $ $ $ $ $ $ $ $ $ $ $ $ $ $ $ $ $ $ $ $ $ $ $ $ $ $ $ $ $ $ $ $ $ $ $ $ $ $ $ $ $ $ . . ",
". . $ $ $ $ $ $ $ $ $ $ $ $ $ $ $ $ $ $ $ $ $ $ $ $ $ $ $ $ $ $ $ $ $ $ $ $ $ $ $ $ $ $ $ . . ",
". . $ $ $ $ $ $ $ $ $ $ $ $ $ $ $ $ $ $ $ $ $ $ $ $ $ $ $ $ $ $ $ $ $ $ $ $ $ $ $ $ $ $ $ . . ",
". . $ $ $ $ $ $ $ $ $ $ $ $ $ $ $ $ $ $ $ $ $ $ $ $ $ $ $ $ $ $ $ $ $ $ $ $ $ $ $ $ $ $ $ . . ",
". . $ $ $ $ $ $ $ $ $ $ $ $ $ $ $ $ $ $ $ $ $ $ $ $ $ $ $ $ $ $ $ $ $ $ $ $ $ $ $ $ $ $ $ . . ",
". . $ $ $ $ $ $ $ $ $ $ $ $ $ $ $ $ $ $ $ $ $ $ $ $ $ $ $ $ $ $ $ $ $ $ $ $ $ $ $ $ $ $ $ . . ",
". . $ $ $ $ $ $ $ $ $ $ $ $ $ $ $ $ $ $ $ $ $ $ $ $ $ $ $ $ $ $ $ $ $ $ $ $ $ $ $ $ $ $ $ . . ",
". . $ $ $ $ $ $ $ $ $ $ $ $ $ $ $ $ $ $ $ $ $ $ $ $ $ $ $ $ $ $ $ $ $ $ $ $ $ $ $ $ $ $ $ . . ",
". . $ $ $ $ $ $ $ $ $ $ $ $ $ $ $ $ $ $ $ $ $ @.$ $ $ $ $ $ $ $ $ $ $ $ $ $ $ $ $ $ $ $ $ . . ",
". . $ $ $ $ $ $ $ $ $ $ $ $ $ $ $ $ $ $ $ $ #.$.q $ $ $ $ $ $ $ $ $ $ $ $ $ $ %.&.$ $ $ $ . . ",
". . $ $ $ $ $ $ $ $ $ $ $ $ $ $ $ $ $ $ $ *.G , V =.$ $ $ $ $ $ $ $ $ $ $ $ -., ;./ $ $ $ . . ",
". . $ $ $ $ $ $ $ $ $ $ $ $ $ $ $ $ $ $ >.,., , , '.*.$ $ $ $ $ $ $ $ $ $ v , , , ).!.$ $ . . ",
". . $ $ $ $ $ $ $ $ $ $ $ $ $ $ $ $ $ E ~., , , , , {.].$ $ $ $ $ $ $ $ ^.V , , , , /.$ $ . . ",
". . $ $ $ $ $ $ $ $ $ $ $ $ $ $ $ $ (._., , , , , , , :.9 $ $ $ $ $ $ $ (.<., [.<., }.$ $ . . ",
". . $ $ $ $ $ $ $ $ $ $ $ $ $ $ $ $ |., , , , , , , , , 1.$ $ $ $ $ $ $ $ 2.3.4.p |.* $ $ . . ",
". . $ $ $ $ $ $ $ $ $ $ $ $ $ $ $ $ 5., , , , , , , , , 6.$ $ $ $ $ $ $ $ $ $ $ $ $ $ $ $ . . ",
". . $ $ $ $ $ $ $ $ $ $ $ $ $ $ $ $ { , , , , 7., , , , 8.$ $ $ $ $ $ $ 9.0.0.0.0.0.a.$ $ . . ",
". . $ $ $ $ $ $ $ $ $ $ $ $ $ $ $ $ P Y , , C b.c., , d.) $ $ $ $ $ $ $ e., , , , , f.$ $ . . ",
". . $ $ $ $ $ $ $ $ $ $ $ $ $ $ $ $ $ : g.h.i.$ j.k.e P $ $ $ $ $ $ $ $ e., l.j.q , f.$ $ . . ",
". . $ $ $ $ $ $ $ $ $ $ $ $ $ $ $ $ $ $ $ $ $ $ $ $ $ $ $ $ $ $ $ $ $ $ m.a.n.$ 7 , f.$ $ . . ",
". . $ $ $ $ $ $ $ $ $ $ $ $ $ $ $ $ $ $ $ $ $ $ $ $ $ $ $ $ $ $ $ $ $ $ $ 1.o.C L , l.$ $ . . ",
". . $ $ $ $ $ $ $ $ $ $ $ $ $ $ $ $ $ $ $ $ $ $ $ $ $ $ $ $ $ $ $ $ $ $ p.;.q.( ( r.I $ $ . . ",
". . $ $ $ $ $ $ $ $ $ $ $ $ $ $ $ $ $ $ $ $ $ $ $ $ $ $ $ $ $ $ $ $ $ $ e., 1 $ s.| 1.$ $ . . ",
". . $ $ $ $ $ $ $ $ $ $ $ $ $ $ $ $ $ $ $ $ $ $ $ $ $ $ $ $ $ $ $ $ $ $ e., t.^.u., f.$ $ . . ",
". . $ $ $ $ $ $ $ $ $ $ $ $ $ $ $ $ $ $ $ $ $ $ $ $ $ $ $ $ $ $ $ $ $ $ ) R , , , , o $ $ . . ",
". . v.$ $ $ $ $ $ $ $ $ $ $ $ $ $ $ $ $ $ $ $ $ $ $ $ $ $ $ $ $ $ $ $ $ $ / c.{.{.w.$ $ v.. . ",
"  . x.$ $ $ $ $ $ $ $ $ $ $ $ $ $ $ $ $ $ $ $ $ $ $ $ $ $ $ $ $ $ $ $ $ $ $ $ $ $ $ $ $ x..   ",
"  . y.z.v.$ $ $ $ $ $ $ $ $ $ $ $ $ $ $ $ $ $ $ $ $ $ $ $ $ $ $ $ $ $ $ $ $ $ $ $ $ v.z.y..   ",
"    . . . . . . . . . . . . . . . . . . . . . . . . . . . . . . . . . . . . . . . . . . .     ",
"        . . . . . . . . . . . . . . . . . . . . . . . . . . . . . . . . . . . . . . .         "};
