/* XPM */
static const char* hearts3_xpm[] = {
"47 62 174 2",
"  	c None",
". 	c #000000",
"+ 	c #2A2A2A",
"@ 	c #B0B0B0",
"# 	c #FCFCFC",
"$ 	c #FFFFFF",
"% 	c #B2B2B2",
"& 	c #2E2E2E",
"* 	c #BABABA",
"= 	c #FDFDFD",
"- 	c #FFFBFB",
"; 	c #FBB9C4",
"> 	c #FBB7C3",
", 	c #FDDFE4",
"' 	c #FEFEFE",
") 	c #F6627B",
"! 	c #F21A3F",
"~ 	c #F32B4D",
"{ 	c #FDD5DC",
"] 	c #FBBCC7",
"^ 	c #F54A68",
"/ 	c #F88599",
"( 	c #F7768C",
"_ 	c #F65F79",
": 	c #FBBFCA",
"< 	c #F3274A",
"[ 	c #F88A9D",
"} 	c #F65E78",
"| 	c #FAABB9",
"1 	c #F8889C",
"2 	c #F4415F",
"3 	c #F996A7",
"4 	c #FBB8C4",
"5 	c #F995A6",
"6 	c #FBBBC6",
"7 	c #F88296",
"8 	c #FFFCFD",
"9 	c #FBB4C0",
"0 	c #FBBDC8",
"a 	c #FFFEFE",
"b 	c #FBBEC9",
"c 	c #FBB3BF",
"d 	c #F44462",
"e 	c #F7768D",
"f 	c #F76A82",
"g 	c #F6617A",
"h 	c #FEEBEE",
"i 	c #F43858",
"j 	c #F65B75",
"k 	c #F6637C",
"l 	c #F43656",
"m 	c #FEE8EB",
"n 	c #FFFDFD",
"o 	c #F76E85",
"p 	c #F33153",
"q 	c #FDDEE3",
"r 	c #F999A9",
"s 	c #F992A4",
"t 	c #FCC7D0",
"u 	c #FCC6CF",
"v 	c #F65C77",
"w 	c #F65D77",
"x 	c #FDDAE0",
"y 	c #FAA8B6",
"z 	c #FEF6F7",
"A 	c #FCD1D9",
"B 	c #FAAFBC",
"C 	c #FFFAFA",
"D 	c #FAABB8",
"E 	c #FAADBA",
"F 	c #FEF0F2",
"G 	c #F22246",
"H 	c #F32447",
"I 	c #F8899C",
"J 	c #FFF7F8",
"K 	c #F43A5A",
"L 	c #FFF9FA",
"M 	c #FEECEF",
"N 	c #F21F44",
"O 	c #F88095",
"P 	c #FDE1E6",
"Q 	c #F33052",
"R 	c #F32D4F",
"S 	c #FDE0E5",
"T 	c #F99AAA",
"U 	c #FEEAEE",
"V 	c #FDD6DC",
"W 	c #F3284B",
"X 	c #F32347",
"Y 	c #FCCFD7",
"Z 	c #F993A5",
"` 	c #F43556",
" .	c #FDE4E8",
"..	c #FCC8D1",
"+.	c #F22145",
"@.	c #F21D41",
"#.	c #F21E42",
"$.	c #FAA4B3",
"%.	c #FDD7DE",
"&.	c #FBB1BD",
"*.	c #F54D6A",
"=.	c #F55671",
"-.	c #FCC4CD",
";.	c #F55772",
">.	c #F54C69",
",.	c #FAAEBB",
"'.	c #FCC6D0",
").	c #F32A4D",
"!.	c #F33051",
"~.	c #FCC2CC",
"{.	c #F76D84",
"].	c #F44260",
"^.	c #F76B83",
"/.	c #F7778D",
"(.	c #F7798F",
"_.	c #FCD2D9",
":.	c #F88699",
"<.	c #F76F87",
"[.	c #F76C84",
"}.	c #FFFBFC",
"|.	c #F55571",
"1.	c #F54F6B",
"2.	c #FEF2F4",
"3.	c #FEE6EA",
"4.	c #F33253",
"5.	c #FCCBD3",
"6.	c #F88196",
"7.	c #FCCAD3",
"8.	c #F33455",
"9.	c #FDDDE2",
"0.	c #F87F93",
"a.	c #F4405F",
"b.	c #F32F50",
"c.	c #FDE2E7",
"d.	c #F54E6B",
"e.	c #F54966",
"f.	c #FEF5F7",
"g.	c #F77289",
"h.	c #F32C4E",
"i.	c #F87E93",
"j.	c #F98EA0",
"k.	c #FBC0CA",
"l.	c #FCC3CD",
"m.	c #FEEDF0",
"n.	c #F6667F",
"o.	c #F66780",
"p.	c #F6657D",
"q.	c #FCCED6",
"r.	c #F55470",
"s.	c #F5536E",
"t.	c #F98FA1",
"u.	c #F21C41",
"v.	c #F43959",
"w.	c #F21B40",
"x.	c #FDDBE1",
"y.	c #F77A90",
"z.	c #F88498",
"A.	c #FEE5E9",
"B.	c #FEE7EB",
"C.	c #F87C91",
"D.	c #FEE9ED",
"E.	c #FCC9D2",
"F.	c #F88C9F",
"G.	c #FCCFD6",
"H.	c #FDD4DB",
"I.	c #F22044",
"J.	c #F99AAB",
"K.	c #FFF8F9",
"L.	c #FDD7DD",
"M.	c #F44664",
"N.	c #B6B6B6",
"O.	c #B9B9B9",
"P.	c #B8B8B8",
"Q.	c #2F2F2F",
"        . . . . . . . . . . . . . . . . . . . . . . . . . . . . . . . . . . . . . . .         ",
"    . . . . . . . . . . . . . . . . . . . . . . . . . . . . . . . . . . . . . . . . . . .     ",
"  . + @ # $ $ $ $ $ $ $ $ $ $ $ $ $ $ $ $ $ $ $ $ $ $ $ $ $ $ $ $ $ $ $ $ $ $ $ $ $ # % & .   ",
"  . % $ $ $ $ $ $ $ $ $ $ $ $ $ $ $ $ $ $ $ $ $ $ $ $ $ $ $ $ $ $ $ $ $ $ $ $ $ $ $ $ $ * .   ",
". . = $ $ $ - ; > > , $ $ $ $ $ $ $ $ $ $ $ $ $ $ $ $ $ $ $ $ $ $ $ $ $ $ $ $ $ $ $ $ $ ' . . ",
". . $ $ $ - ) ! ! ! ~ { $ $ $ $ $ $ $ $ $ $ $ $ $ $ $ $ $ $ $ $ $ $ $ $ $ $ $ $ $ $ $ $ $ . . ",
". . $ $ $ ] ! ^ / ( ! _ $ $ $ $ $ $ $ $ $ $ $ $ $ $ $ $ $ $ $ $ $ $ $ $ $ $ $ $ $ $ $ $ $ . . ",
". . $ $ $ : < [ $ , ! } $ $ $ $ $ $ $ $ $ $ $ $ $ $ $ $ $ $ $ $ $ $ $ $ $ $ $ $ $ $ $ $ $ . . ",
". . $ $ $ $ $ $ | 1 ! } $ $ $ $ $ $ $ $ $ $ $ $ $ $ $ $ $ $ $ $ $ $ $ $ $ $ $ $ $ $ $ $ $ . . ",
". . $ $ $ $ $ $ 2 ! ! 3 $ $ $ $ $ $ $ $ $ $ $ $ $ $ $ $ $ $ $ $ $ $ $ $ $ $ $ $ $ $ $ $ $ . . ",
". . $ $ $ $ $ $ 4 5 ! } $ $ $ $ $ $ $ $ $ $ $ $ $ $ $ $ $ $ $ $ $ $ $ $ $ $ $ $ $ $ $ $ $ . . ",
". . $ $ $ 6 ! 7 $ , ! } $ $ $ $ $ $ $ 8 9 0 a $ a b c 8 $ $ $ $ $ $ $ $ $ $ $ $ $ $ $ $ $ . . ",
". . $ $ $ 0 ! d e f ! g $ $ $ $ $ $ h i ! ! j $ k ! ! l m $ $ $ $ $ $ $ $ $ $ $ $ $ $ $ $ . . ",
". . $ $ $ n o ! ! ! p q $ $ $ $ $ $ 5 ! ! ! ! r ! ! ! ! s $ $ $ $ $ $ $ $ $ $ $ $ $ $ $ $ . . ",
". . $ $ $ $ n t u u m $ $ $ $ $ $ $ v ! ! ! ! ! ! ! ! ! w $ $ $ $ $ $ $ $ $ $ $ $ $ $ $ $ . . ",
". . $ $ $ $ x y z A B C $ $ $ $ $ $ D ! ! ! ! ! ! ! ! ! E $ $ $ $ $ $ $ $ $ $ $ $ $ $ $ $ . . ",
". . $ $ $ F G ! o H ! I $ $ $ $ $ $ J K ! ! ! ! ! ! ! K L $ $ $ $ $ $ $ $ $ $ $ $ $ $ $ $ . . ",
". . $ $ $ M N ! ! ! ! O $ $ $ $ $ $ $ P Q ! ! ! ! ! R S $ $ $ $ $ $ $ $ $ $ $ $ $ $ $ $ $ . . ",
". . $ $ $ $ T ! ! ! K U $ $ $ $ $ $ $ $ V W ! ! ! X Y $ $ $ $ $ $ $ $ $ $ $ $ $ $ $ $ $ $ . . ",
". . $ $ $ $ $ Z ! `  .$ $ $ $ $ $ $ $ $ $ ..+.! @.] $ $ $ $ $ $ $ $ $ $ $ $ $ $ $ $ $ $ $ . . ",
". . $ $ $ $ $ $ T q $ $ $ $ $ $ $ $ $ $ $ $ ; #.$.$ $ $ $ $ $ $ $ $ $ $ $ $ $ $ $ $ $ $ $ . . ",
". . $ $ $ $ $ $ $ $ $ $ $ $ $ $ $ $ $ $ $ $ $ %.$ $ $ $ $ $ $ $ $ $ $ $ $ $ $ $ $ $ $ $ $ . . ",
". . $ $ $ $ $ $ $ $ $ $ $ $ $ $ $ $ $ $ $ $ $ $ $ $ $ $ $ $ $ $ $ $ $ $ $ $ $ $ $ $ $ $ $ . . ",
". . $ $ $ $ $ $ $ $ $ $ $ $ $ $ $ $ $ $ $ $ $ $ $ $ $ $ $ $ $ $ $ $ $ $ $ $ $ $ $ $ $ $ $ . . ",
". . $ $ $ $ $ $ $ $ $ $ $ $ $ $ $ $ $ $ $ $ $ $ $ $ $ $ $ $ $ $ $ $ $ $ $ $ $ $ $ $ $ $ $ . . ",
". . $ $ $ $ $ $ $ $ $ $ $ $ $ $ $ $ $ $ $ $ $ $ $ $ $ $ $ $ $ $ $ $ $ $ $ $ $ $ $ $ $ $ $ . . ",
". . $ $ $ $ $ $ $ $ $ $ $ $ $ $ $ $ $ &.*.=.-.$ t ;.>.,.a $ $ $ $ $ $ $ $ $ $ $ $ $ $ $ $ . . ",
". . $ $ $ $ $ $ $ $ $ $ $ $ $ $ $ $ '.! ! ! ).h !.! ! ! ~.$ $ $ $ $ $ $ $ $ $ $ $ $ $ $ $ . . ",
". . $ $ $ $ $ $ $ $ $ $ $ $ $ $ $ $ {.! ! ! ! ].! ! ! ! ^.$ $ $ $ $ $ $ $ $ $ $ $ $ $ $ $ . . ",
". . $ $ $ $ $ $ $ $ $ $ $ $ $ $ $ $ /.! ! ! ! ! ! ! ! ! (.$ $ $ $ $ $ $ $ $ $ $ $ $ $ $ $ . . ",
". . $ $ $ $ $ $ $ $ $ $ $ $ $ $ $ $ _.! ! ! ! ! ! ! ! ! %.$ $ $ $ $ $ $ $ $ $ $ $ $ $ $ $ . . ",
". . $ $ $ $ $ $ $ $ $ $ $ $ $ $ $ $ $ 7 ! ! ! ! ! ! ! :.$ $ $ $ $ $ $ $ $ $ $ $ $ $ $ $ $ . . ",
". . $ $ $ $ $ $ $ $ $ $ $ $ $ $ $ $ $ a <.! ! ! ! ! [.a $ $ $ $ $ $ $ $ $ $ $ $ $ $ $ $ $ . . ",
". . $ $ $ $ $ $ $ $ $ $ $ $ $ $ $ $ $ $ }.} ! ! ! |.C $ $ $ $ $ $ $ $ $ $ $ $ $ $ $ $ $ $ . . ",
". . $ $ $ $ $ $ $ $ $ $ $ $ $ $ $ $ $ $ $ J 1.! ].2.$ $ $ $ $ $ $ $ $ $ $ $ $ $ $ $ $ $ $ . . ",
". . $ $ $ $ $ $ $ $ $ $ $ $ $ $ $ $ $ $ $ $ F j 3.$ $ $ $ $ $ $ $ $ $ $ $ $ $ $ $ $ $ $ $ . . ",
". . $ $ $ $ $ $ $ $ $ $ $ $ $ $ $ $ $ $ $ $ $ $ $ $ $ $ $ $ $ $ $ $ $ $ $ $ $ $ $ $ $ $ $ . . ",
". . $ $ $ $ $ $ $ $ $ $ $ $ $ $ $ $ $ $ $ $ $ $ $ $ $ $ $ $ $ $ $ $ $ $ $ $ $ $ $ $ $ $ $ . . ",
". . $ $ $ $ $ $ $ $ $ $ $ $ $ $ $ $ $ $ $ $ $ $ $ $ $ $ $ $ $ $ $ $ $ $ $ $ $ $ $ $ $ $ $ . . ",
". . $ $ $ $ $ $ $ $ $ $ $ $ $ $ $ $ $ $ $ $ $ $ $ $ $ $ $ $ $ $ $ $ $ $ $ $ $ $ $ $ $ $ $ . . ",
". . $ $ $ $ $ $ $ $ $ $ $ $ $ $ $ $ $ $ $ $ $ z $ $ $ $ $ $ $ $ $ $ $ $ $ $ $ $ $ $ $ $ $ . . ",
". . $ $ $ $ $ $ $ $ $ $ $ $ $ $ $ $ $ $ $ $ x 4.5.$ $ $ $ $ $ $ $ $ $ $ $ $ $ 6.7.$ $ $ $ . . ",
". . $ $ $ $ $ $ $ $ $ $ $ $ $ $ $ $ $ $ $ 3.8.! ~ 9.$ $ $ $ $ $ $ $ $ $ $ $ 0.! W { $ $ $ . . ",
". . $ $ $ $ $ $ $ $ $ $ $ $ $ $ $ $ $ $ F a.! ! ! i U $ $ $ $ $ $ $ $ $ $ 1 ! ! ! b.c.$ $ . . ",
". . $ $ $ $ $ $ $ $ $ $ $ $ $ $ $ $ $ J d.! ! ! ! ! e.f.$ $ $ $ $ $ $ $ h #.! ! ! ! g.$ $ . . ",
". . $ $ $ $ $ $ $ $ $ $ $ $ $ $ $ $ a } ! ! ! ! ! ! ! w a $ $ $ $ $ $ $ L h.! i.h.! j.$ $ . . ",
". . $ $ $ $ $ $ $ $ $ $ $ $ $ $ $ $ k.! ! ! ! ! ! ! ! ! l.$ $ $ $ $ $ $ $ m.-.8 m t a $ $ . . ",
". . $ $ $ $ $ $ $ $ $ $ $ $ $ $ $ $ n.! ! ! ! ! ! ! ! ! o.$ $ $ $ $ $ $ $ $ $ $ $ $ $ $ $ . . ",
". . $ $ $ $ $ $ $ $ $ $ $ $ $ $ $ $ O ! ! ! ! p.! ! ! ! i.$ $ $ $ $ $ $ $ q.r.s.s.t.$ $ $ . . ",
". . $ $ $ $ $ $ $ $ $ $ $ $ $ $ $ $ x u.! ! v.- 2 ! ! w.{ $ $ $ $ $ $ $ x.< ! ! ! ! Z $ $ . . ",
". . $ $ $ $ $ $ $ $ $ $ $ $ $ $ $ $ $ , y.z.A.$ B./ (.9.$ $ $ $ $ $ $ $ > ! C.D.E.! ) $ $ . . ",
". . $ $ $ $ $ $ $ $ $ $ $ $ $ $ $ $ $ $ $ $ $ $ $ $ $ $ $ $ $ $ $ $ $ $ > ! :.$ m.F.&.$ $ . . ",
". . $ $ $ $ $ $ $ $ $ $ $ $ $ $ $ $ $ $ $ $ $ $ $ $ $ $ $ $ $ $ $ $ $ $ G.#.< l H.$ $ $ $ . . ",
". . $ $ $ $ $ $ $ $ $ $ $ $ $ $ $ $ $ $ $ $ $ $ $ $ $ $ $ $ $ $ $ $ $ $ Y #.I.< A $ $ $ $ . . ",
". . $ $ $ $ $ $ $ $ $ $ $ $ $ $ $ $ $ $ $ $ $ $ $ $ $ $ $ $ $ $ $ $ $ $ > ! :.$ F J.6 $ $ . . ",
". . $ $ $ $ $ $ $ $ $ $ $ $ $ $ $ $ $ $ $ $ $ $ $ $ $ $ $ $ $ $ $ $ $ $ > ! 7 K.{ ! ) $ $ . . ",
". . $ $ $ $ $ $ $ $ $ $ $ $ $ $ $ $ $ $ $ $ $ $ $ $ $ $ $ $ $ $ $ $ $ $ L.G ! ! ! ! [ $ $ . . ",
". . ' $ $ $ $ $ $ $ $ $ $ $ $ $ $ $ $ $ $ $ $ $ $ $ $ $ $ $ $ $ $ $ $ $ $ -.M.d d O a $ $ . . ",
"  . N.$ $ $ $ $ $ $ $ $ $ $ $ $ $ $ $ $ $ $ $ $ $ $ $ $ $ $ $ $ $ $ $ $ $ $ $ $ $ $ $ $ O..   ",
"  . & P.' $ $ $ $ $ $ $ $ $ $ $ $ $ $ $ $ $ $ $ $ $ $ $ $ $ $ $ $ $ $ $ $ $ $ $ $ $ ' P.Q..   ",
"    . . . . . . . . . . . . . . . . . . . . . . . . . . . . . . . . . . . . . . . . . . .     ",
"        . . . . . . . . . . . . . . . . . . . . . . . . . . . . . . . . . . . . . . .         "};
