/* XPM */
static const char* hearts4_xpm[] = {
"47 62 151 2",
"  	c None",
". 	c #000000",
"+ 	c #2A2A2A",
"@ 	c #B0B0B0",
"# 	c #FCFCFC",
"$ 	c #FFFFFF",
"% 	c #B1B1B1",
"& 	c #B2B2B2",
"* 	c #F6F6F6",
"= 	c #FBBDC7",
"- 	c #FBBDC8",
"; 	c #FEF5F7",
"> 	c #FBB7C3",
", 	c #FCCED6",
"' 	c #FDFDFD",
") 	c #F7F7F7",
"! 	c #F32B4D",
"~ 	c #F32C4E",
"{ 	c #FDDFE4",
"] 	c #F21A3F",
"^ 	c #F65E78",
"/ 	c #F32447",
"( 	c #F99AAB",
"_ 	c #F8889C",
": 	c #FBB0BD",
"< 	c #FAA9B7",
"[ 	c #F994A5",
"} 	c #FEF2F4",
"| 	c #F99AAA",
"1 	c #FAA8B6",
"2 	c #FFF7F8",
"3 	c #FEE8EB",
"4 	c #F990A2",
"5 	c #FBB9C4",
"6 	c #FFFDFD",
"7 	c #FBC1CB",
"8 	c #F88B9E",
"9 	c #FDE0E5",
"0 	c #FFFBFB",
"a 	c #FEEEF1",
"b 	c #FEEBEE",
"c 	c #F3274A",
"d 	c #F65873",
"e 	c #F65B75",
"f 	c #F66981",
"g 	c #F21E43",
"h 	c #FDE2E7",
"i 	c #F7758B",
"j 	c #F22145",
"k 	c #FDDCE2",
"l 	c #F6637C",
"m 	c #FDDBE1",
"n 	c #FEE7EB",
"o 	c #F21D41",
"p 	c #F65F79",
"q 	c #F88397",
"r 	c #FCC6CF",
"s 	c #FDD7DE",
"t 	c #F87E93",
"u 	c #FCC7D0",
"v 	c #FDD4DB",
"w 	c #F77188",
"x 	c #FCCCD4",
"y 	c #FFFCFD",
"z 	c #FBBEC9",
"A 	c #FBBBC6",
"B 	c #FFFEFE",
"C 	c #F43F5E",
"D 	c #F54865",
"E 	c #FCCFD6",
"F 	c #F7748A",
"G 	c #FAADBA",
"H 	c #F21F44",
"I 	c #FCC5CE",
"J 	c #FCCBD3",
"K 	c #F22246",
"L 	c #FAA7B5",
"M 	c #F76B83",
"N 	c #F21B40",
"O 	c #FBBCC7",
"P 	c #F21E42",
"Q 	c #F65C76",
"R 	c #FFFBFC",
"S 	c #F7768D",
"T 	c #F55571",
"U 	c #FFFAFA",
"V 	c #F993A5",
"W 	c #FAABB9",
"X 	c #FEF4F6",
"Y 	c #F54B68",
"Z 	c #FEF6F7",
"` 	c #F54C69",
" .	c #F7778D",
"..	c #F999A9",
"+.	c #F43757",
"@.	c #FEE9ED",
"#.	c #FEF0F2",
"$.	c #FEEFF1",
"%.	c #F88095",
"&.	c #F991A2",
"*.	c #FFF8F9",
"=.	c #F76E86",
"-.	c #FDE3E8",
";.	c #F54D6A",
">.	c #FFF9FA",
",.	c #F65A74",
"'.	c #F43B5B",
").	c #FEEAEE",
"!.	c #F65D77",
"~.	c #FAAEBB",
"{.	c #F44261",
"].	c #FEF3F5",
"^.	c #F76F87",
"/.	c #FBBFCA",
"(.	c #FCC4CD",
"_.	c #F99BAB",
":.	c #F88498",
"<.	c #FCCFD7",
"[.	c #FDDEE3",
"}.	c #F21C41",
"|.	c #FBB8C4",
"1.	c #FDD9DF",
"2.	c #F54A67",
"3.	c #FDD5DC",
"4.	c #F87F93",
"5.	c #FDDAE0",
"6.	c #F88296",
"7.	c #FCCAD3",
"8.	c #F5536E",
"9.	c #FAA3B2",
"0.	c #F32347",
"a.	c #F6657D",
"b.	c #F88599",
"c.	c #F992A4",
"d.	c #FEE6EA",
"e.	c #F88A9D",
"f.	c #FBB2BE",
"g.	c #FBBAC5",
"h.	c #F88699",
"i.	c #FAACBA",
"j.	c #F98D9F",
"k.	c #F43656",
"l.	c #FBC0CA",
"m.	c #F22044",
"n.	c #F44462",
"o.	c #F99CAC",
"p.	c #FEFEFE",
"q.	c #B5B5B5",
"r.	c #B6B6B6",
"s.	c #2E2E2E",
"t.	c #B8B8B8",
"        . . . . . . . . . . . . . . . . . . . . . . . . . . . . . . . . . . . . . . .         ",
"    . . . . . . . . . . . . . . . . . . . . . . . . . . . . . . . . . . . . . . . . . . .     ",
"  . + @ # $ $ $ $ $ $ $ $ $ $ $ $ $ $ $ $ $ $ $ $ $ $ $ $ $ $ $ $ $ $ $ $ $ $ $ $ $ # @ + .   ",
"  . % $ $ $ $ $ $ $ $ $ $ $ $ $ $ $ $ $ $ $ $ $ $ $ $ $ $ $ $ $ $ $ $ $ $ $ $ $ $ $ $ $ & .   ",
"  . * $ $ $ = - $ ; > , $ $ $ $ $ $ $ $ $ $ $ $ $ $ $ $ $ $ $ $ $ $ $ $ $ $ $ $ $ $ $ $ ' . . ",
"  . ) $ $ $ ! ~ $ { ] ^ $ $ $ $ $ $ $ $ $ $ $ $ $ $ $ $ $ $ $ $ $ $ $ $ $ $ $ $ $ $ $ $ $ . . ",
"  . ) $ $ $ ! ~ $ { ] ^ $ $ $ $ $ $ $ $ $ $ $ $ $ $ $ $ $ $ $ $ $ $ $ $ $ $ $ $ $ $ $ $ $ . . ",
"  . ) $ $ $ ! ~ $ { ] ^ $ $ $ $ $ $ $ $ $ $ $ $ $ $ $ $ $ $ $ $ $ $ $ $ $ $ $ $ $ $ $ $ $ . . ",
"  . ) $ $ $ ! / ( _ ] ^ $ $ $ $ $ $ $ $ $ $ $ $ $ $ $ $ $ $ $ $ $ $ $ $ $ $ $ $ $ $ $ $ $ . . ",
"  . ) $ $ $ ! ] ] ] ] ^ $ $ $ $ $ $ $ $ $ $ $ $ $ $ $ $ $ $ $ $ $ $ $ $ $ $ $ $ $ $ $ $ $ . . ",
"  . ) $ $ $ : < < [ ] ^ $ $ $ $ $ $ $ $ $ $ $ $ $ $ $ $ $ $ $ $ $ $ $ $ $ $ $ $ $ $ $ $ $ . . ",
"  . ) $ $ $ $ $ $ { ] ^ $ $ } | 1 2 $ 3 4 5 6 $ $ $ 7 8 9 $ 0 : [ a $ $ $ $ $ $ $ $ $ $ $ . . ",
"  . ) $ $ $ $ $ $ { ] ^ $ b c ] ] d } c ] ] e $ $ f ] ] g h i ] ] j k $ $ $ $ $ $ $ $ $ $ . . ",
"  . ) $ $ $ $ $ $ { ] ^ $ [ ] ] ] ] l ] ] ] ] m n o ] ] ] p g ] ] ] q $ $ $ $ $ $ $ $ $ $ . . ",
"  . ) $ $ $ $ $ $ 2 r s $ t ] ] ] ] ] ] ] ] ] u v ] ] ] ] ] ] ] ] ] w $ $ $ $ $ $ $ $ $ $ . . ",
"  . ) $ $ $ x : y z A B $ s ] ] ] ] ] ] ] ] C $ $ D ] ] ] ] ] ] ] ] E $ $ $ $ $ $ $ $ $ $ . . ",
"  . ) $ $ v ] ] F ] ] G $ $ t ] ] ] ] ] ] H I $ $ J K ] ] ] ] ] ] F $ $ $ $ $ $ $ $ $ $ $ . . ",
"  . ) $ $ , ] ] ] ] ] L $ $ B M ] ] ] ] N G $ $ $ $ O P ] ] ] ] Q R $ $ $ $ $ $ $ $ $ $ $ . . ",
"  . ) $ $ $ S ] ] ] T U $ $ $ 0 e ] ] ] V $ $ $ $ $ $ W N ] ] D X $ $ $ $ $ $ $ $ $ $ $ $ . . ",
"  . ) $ $ $ B w ] Y X $ $ $ $ $ Z ` ]  .$ $ $ $ $ $ $ $ ..] +.@.$ $ $ $ $ $ $ $ $ $ $ $ $ . . ",
"  . ) $ $ $ $ 6 8 #.$ $ $ $ $ $ $ $.%.y $ $ $ $ $ $ $ $ $ &.m $ $ $ $ $ $ $ $ $ $ $ $ $ $ . . ",
"  . ) $ $ $ $ $ $ $ $ $ $ $ $ $ $ $ $ $ $ $ $ $ $ $ $ $ $ $ $ $ $ $ $ $ $ $ $ $ $ $ $ $ $ . . ",
"  . ) $ $ $ $ $ $ $ $ $ $ $ $ $ $ $ $ $ $ $ $ $ $ $ $ $ $ $ $ $ $ $ $ $ $ $ $ $ $ $ $ $ $ . . ",
"  . ) $ $ $ $ $ $ $ $ $ $ $ $ $ $ $ $ $ $ $ $ $ $ $ $ $ $ $ $ $ $ $ $ $ $ $ $ $ $ $ $ $ $ . . ",
"  . ) $ $ $ $ $ $ $ $ $ $ $ $ $ $ $ $ $ $ $ $ $ $ $ $ $ $ $ $ $ $ $ $ $ $ $ $ $ $ $ $ $ $ . . ",
"  . ) $ $ $ $ $ $ $ $ $ $ $ $ $ $ $ $ $ $ $ $ $ $ $ $ $ $ $ $ $ $ $ $ $ $ $ $ $ $ $ $ $ $ . . ",
"  . ) $ $ $ $ $ $ $ $ $ $ $ $ $ $ $ $ $ $ $ $ $ $ $ $ $ $ $ $ $ $ $ $ $ $ $ $ $ $ $ $ $ $ . . ",
"  . ) $ $ $ $ $ $ $ $ $ $ $ $ $ $ $ $ $ $ $ $ $ $ $ $ $ $ $ $ $ $ $ $ $ $ $ $ $ $ $ $ $ $ . . ",
"  . ) $ $ $ $ $ $ $ $ $ $ $ $ $ $ $ $ $ $ $ $ $ $ $ $ $ $ $ $ $ $ $ $ $ $ $ $ $ $ $ $ $ $ . . ",
"  . ) $ $ $ $ $ $ $ $ $ $ $ $ $ $ $ $ $ $ $ $ $ $ $ $ $ $ $ $ $ $ $ $ $ $ $ $ $ $ $ $ $ $ . . ",
"  . ) $ $ $ $ $ $ $ $ $ $ $ $ $ $ $ $ $ $ $ $ $ $ $ $ $ $ $ $ $ $ $ $ $ $ $ $ $ $ $ $ $ $ . . ",
"  . ) $ $ $ $ $ $ $ $ $ $ $ $ $ $ $ $ $ $ $ $ $ $ $ $ $ $ $ $ $ $ $ $ $ $ $ $ $ $ $ $ $ $ . . ",
"  . ) $ $ $ $ $ $ $ $ $ $ $ $ $ $ $ $ $ $ $ $ $ $ $ $ $ $ $ $ $ $ $ $ $ $ $ $ $ $ $ $ $ $ . . ",
"  . ) $ $ $ $ $ $ $ $ $ $ $ $ $ $ $ $ $ $ $ $ $ $ $ $ $ $ $ $ $ $ $ $ $ $ $ $ $ $ $ $ $ $ . . ",
"  . ) $ $ $ $ $ $ $ $ $ $ $ $ $ $ $ $ $ $ $ $ $ $ $ $ $ $ $ $ $ $ $ $ $ $ $ $ $ $ $ $ $ $ . . ",
"  . ) $ $ $ $ $ $ $ $ $ $ $ $ $ $ $ $ $ $ $ $ $ $ $ $ $ $ $ $ $ $ $ $ $ $ $ $ $ $ $ $ $ $ . . ",
"  . ) $ $ $ $ $ $ $ $ $ $ $ $ $ $ $ $ $ $ $ $ $ $ $ $ $ $ $ $ $ $ $ $ $ $ $ $ $ $ $ $ $ $ . . ",
"  . ) $ $ $ $ $ $ $ $ $ $ $ $ $ $ $ $ $ $ $ $ $ $ $ $ $ $ $ $ $ $ $ $ $ $ $ $ $ $ $ $ $ $ . . ",
"  . ) $ $ $ $ $ $ $ $ $ $ $ $ $ $ $ $ $ $ $ $ $ $ $ $ $ $ $ $ $ $ $ $ $ $ $ $ $ $ $ $ $ $ . . ",
"  . ) $ $ $ $ $ $ $ $ $ $ $ $ $ $ $ $ $ $ $ $ $ $ $ $ $ $ $ $ $ $ $ $ $ $ $ $ $ $ $ $ $ $ . . ",
"  . ) $ $ $ $ $ $ $ $ $ $ $ $ $ $ $ $ $ $ $ $ $ $ $ $ $ $ $ $ $ $ $ $ $ $ $ $ $ $ $ $ $ $ . . ",
"  . ) $ $ $ $ $ $ $ $ $ $ $ $ $ $ $.%.y $ $ $ $ $ $ $ $ $ &.m $ $ $ $ $ $ $ *.=.-.$ $ $ $ . . ",
"  . ) $ $ $ $ $ $ $ $ $ $ $ $ $ Z ;.]  .$ $ $ $ $ $ $ $ ( ] +.@.$ $ $ $ $ >.,.] '.).$ $ $ . . ",
"  . ) $ $ $ $ $ $ $ $ $ $ $ $ R !.] ] ] V $ $ $ $ $ $ ~.N ] ] D X $ $ $ B ^ ] ] ] {.].$ $ . . ",
"  . ) $ $ $ $ $ $ $ $ $ $ $ B ^.] ] ] ] N G $ $ $ $ /.g ] ] ] ] Q R $ $ (.] ] ] ] ] _.$ $ . . ",
"  . ) $ $ $ $ $ $ $ $ $ $ $ :.] ] ] ] ] ] H I $ $ <./ ] ] ] ] ] ] F $ $ [.}.] &.o ] |.$ $ . . ",
"  . ) $ $ $ $ $ $ $ $ $ $ 1.] ] ] ] ] ] ] ] C $ $ 2.] ] ] ] ] ] ] ] E $ $ h x $ m 3.$ $ $ . . ",
"  . ) $ $ $ $ $ $ $ $ $ $ 4.] ] ] ] ] ] ] ] ] u 3.] ] ] ] ] ] ] ] ] w $ $ $ $ $ $ $ $ $ $ . . ",
"  . ) $ $ $ $ $ $ $ $ $ $ V ] ] ] ] l ] ] ] ] 5.n o ] ] ] p g ] ] ] 6.$ 7.8.9.$ $ $ $ $ $ . . ",
"  . ) $ $ $ $ $ $ $ $ $ $ ).0.] ] d } c ] ] T $ $ a.] ] g h i ] ] H 5.$ |.] b.$ $ $ $ $ $ . . ",
"  . ) $ $ $ $ $ $ $ $ $ $ $ a c.9.Z $ d.e.f.R $ $ 6 g.h.{ $ 0 i.j.@.$ $ |.] b.$ $ $ $ $ $ . . ",
"  . ) $ $ $ $ $ $ $ $ $ $ $ $ $ $ $ $ $ $ $ $ $ $ $ $ $ $ $ $ $ $ $ $ $ |.] b.$ $ $ $ $ $ . . ",
"  . ) $ $ $ $ $ $ $ $ $ $ $ $ $ $ $ $ $ $ $ $ $ $ $ $ $ $ $ $ $ $ $ $ $ |.] c k.k.k.l.$ $ . . ",
"  . ) $ $ $ $ $ $ $ $ $ $ $ $ $ $ $ $ $ $ $ $ $ $ $ $ $ $ $ $ $ $ $ $ $ |.] m.c m.] > $ $ . . ",
"  . ) $ $ $ $ $ $ $ $ $ $ $ $ $ $ $ $ $ $ $ $ $ $ $ $ $ $ $ $ $ $ $ $ $ |.] b.$ h.] > $ $ . . ",
"  . ) $ $ $ $ $ $ $ $ $ $ $ $ $ $ $ $ $ $ $ $ $ $ $ $ $ $ $ $ $ $ $ $ $ |.] b.$ h.] > $ $ . . ",
"  . ) $ $ $ $ $ $ $ $ $ $ $ $ $ $ $ $ $ $ $ $ $ $ $ $ $ $ $ $ $ $ $ $ $ |.] b.$ h.] > $ $ . . ",
"  . ) $ $ $ $ $ $ $ $ $ $ $ $ $ $ $ $ $ $ $ $ $ $ $ $ $ $ $ $ $ $ $ $ $ r n.o.$ o.n.I $ p.. . ",
"  . q.$ $ $ $ $ $ $ $ $ $ $ $ $ $ $ $ $ $ $ $ $ $ $ $ $ $ $ $ $ $ $ $ $ $ $ $ $ $ $ $ $ r..   ",
"  . s.t.p.$ $ $ $ $ $ $ $ $ $ $ $ $ $ $ $ $ $ $ $ $ $ $ $ $ $ $ $ $ $ $ $ $ $ $ $ $ p.t.s..   ",
"    . . . . . . . . . . . . . . . . . . . . . . . . . . . . . . . . . . . . . . . . . . .     ",
"        . . . . . . . . . . . . . . . . . . . . . . . . . . . . . . . . . . . . . . .         "};
