/* XPM */
static const char* hearts5_xpm[] = {
"47 62 174 2",
"  	c None",
". 	c #000000",
"+ 	c #2A2A2A",
"@ 	c #B0B0B0",
"# 	c #FCFCFC",
"$ 	c #FFFFFF",
"% 	c #B2B2B2",
"& 	c #2E2E2E",
"* 	c #BABABA",
"= 	c #FDFDFD",
"- 	c #FEEAEE",
"; 	c #FBB7C3",
"> 	c #FCCDD5",
", 	c #FEFEFE",
"' 	c #FBBCC7",
") 	c #F21A3F",
"! 	c #F65D77",
"~ 	c #F54A68",
"{ 	c #F88599",
"] 	c #FAAAB7",
"^ 	c #F88196",
"/ 	c #F5516D",
"( 	c #F993A5",
"_ 	c #FCC6D0",
": 	c #F21F44",
"< 	c #FBBDC7",
"[ 	c #FEE6EA",
"} 	c #FAA9B7",
"| 	c #F995A6",
"1 	c #FDE0E5",
"2 	c #FFFDFD",
"3 	c #F990A2",
"4 	c #FEE8EB",
"5 	c #FFF8F9",
"6 	c #F99AAA",
"7 	c #FEF2F4",
"8 	c #FDDDE2",
"9 	c #F8899C",
"0 	c #FCC7D0",
"a 	c #FCCED6",
"b 	c #F8889C",
"c 	c #FDD7DE",
"d 	c #FBBEC9",
"e 	c #F44362",
"f 	c #F7768D",
"g 	c #F76A82",
"h 	c #F6607A",
"i 	c #F55470",
"j 	c #F3274A",
"k 	c #FEF0F2",
"l 	c #F65F79",
"m 	c #FEEBEE",
"n 	c #FAAFBC",
"o 	c #F21B40",
"p 	c #FAA5B4",
"q 	c #FAA2B1",
"r 	c #F76E86",
"s 	c #F33153",
"t 	c #FDD9DF",
"u 	c #F6647D",
"v 	c #F994A5",
"w 	c #F54C69",
"x 	c #F43556",
"y 	c #F54966",
"z 	c #F43F5E",
"A 	c #FCC6CF",
"B 	c #FEE7EB",
"C 	c #FCC5CE",
"D 	c #F87F94",
"E 	c #F43757",
"F 	c #F32E50",
"G 	c #FFFBFC",
"H 	c #FBBAC5",
"I 	c #FBC1CB",
"J 	c #FFFCFD",
"K 	c #FBB0BD",
"L 	c #FFFEFE",
"M 	c #F43656",
"N 	c #FDDCE2",
"O 	c #F8879A",
"P 	c #FBBBC6",
"Q 	c #F21E42",
"R 	c #F88296",
"S 	c #F43C5C",
"T 	c #FEEFF1",
"U 	c #FAA3B1",
"V 	c #FCCFD7",
"W 	c #FEE9ED",
"X 	c #F43959",
"Y 	c #F32F50",
"Z 	c #FDE1E6",
"` 	c #FFF7F8",
" .	c #F5536E",
"..	c #F7758B",
"+.	c #F997A8",
"@.	c #FFFAFA",
"#.	c #F32447",
"$.	c #FCD0D8",
"%.	c #FEF5F7",
"&.	c #F54F6B",
"*.	c #F76B83",
"=.	c #F88397",
"-.	c #F44261",
";.	c #FDD3DA",
">.	c #F21D41",
",.	c #FEF3F5",
"'.	c #F88699",
").	c #FAA6B4",
"!.	c #FFF9FA",
"~.	c #F88B9E",
"{.	c #F43A5A",
"].	c #F77A90",
"^.	c #FDDFE4",
"/.	c #F65B75",
"(.	c #F44563",
"_.	c #FDE4E8",
":.	c #F21C41",
"<.	c #FCD1D9",
"[.	c #FEECEF",
"}.	c #F6667F",
"|.	c #F55671",
"1.	c #F33253",
"2.	c #F32A4D",
"3.	c #FDDBE1",
"4.	c #FDD8DF",
"5.	c #F3294C",
"6.	c #F22145",
"7.	c #FCCAD3",
"8.	c #FCCBD3",
"9.	c #F32347",
"0.	c #FBB5C1",
"a.	c #F99EAE",
"b.	c #FAABB8",
"c.	c #F76C84",
"d.	c #FDD5DC",
"e.	c #FEEDF0",
"f.	c #F44260",
"g.	c #F33051",
"h.	c #F6627B",
"i.	c #FAADBA",
"j.	c #FAA0AF",
"k.	c #FBBFCA",
"l.	c #F21E43",
"m.	c #F54865",
"n.	c #F98EA0",
"o.	c #FDDAE0",
"p.	c #F43858",
"q.	c #F991A3",
"r.	c #F54B68",
"s.	c #F43E5D",
"t.	c #FCCFD6",
"u.	c #F5506C",
"v.	c #FAABB9",
"w.	c #F99DAD",
"x.	c #F992A4",
"y.	c #F88A9D",
"z.	c #FAA4B3",
"A.	c #FEEEF1",
"B.	c #FDD7DD",
"C.	c #FBB8C4",
"D.	c #F87B90",
"E.	c #F6617A",
"F.	c #F88C9F",
"G.	c #FCCCD4",
"H.	c #FAA8B6",
"I.	c #F22246",
"J.	c #F22044",
"K.	c #FDD6DC",
"L.	c #F44462",
"M.	c #F87F93",
"N.	c #B6B6B6",
"O.	c #B9B9B9",
"P.	c #B8B8B8",
"Q.	c #2F2F2F",
"        . . . . . . . . . . . . . . . . . . . . . . . . . . . . . . . . . . . . . . .         ",
"    . . . . . . . . . . . . . . . . . . . . . . . . . . . . . . . . . . . . . . . . . . .     ",
"  . + @ # $ $ $ $ $ $ $ $ $ $ $ $ $ $ $ $ $ $ $ $ $ $ $ $ $ $ $ $ $ $ $ $ $ $ $ $ $ # % & .   ",
"  . % $ $ $ $ $ $ $ $ $ $ $ $ $ $ $ $ $ $ $ $ $ $ $ $ $ $ $ $ $ $ $ $ $ $ $ $ $ $ $ $ $ * .   ",
". . = $ $ - ; ; ; ; ; > $ $ $ $ $ $ $ $ $ $ $ $ $ $ $ $ $ $ $ $ $ $ $ $ $ $ $ $ $ $ $ $ , . . ",
". . $ $ $ ' ) ) ) ) ) ! $ $ $ $ $ $ $ $ $ $ $ $ $ $ $ $ $ $ $ $ $ $ $ $ $ $ $ $ $ $ $ $ $ . . ",
". . $ $ $ ' ) ~ { { { ] $ $ $ $ $ $ $ $ $ $ $ $ $ $ $ $ $ $ $ $ $ $ $ $ $ $ $ $ $ $ $ $ $ . . ",
". . $ $ $ ' ) ^ $ $ $ $ $ $ $ $ $ $ $ $ $ $ $ $ $ $ $ $ $ $ $ $ $ $ $ $ $ $ $ $ $ $ $ $ $ . . ",
". . $ $ $ ' ) / ( ( _ $ $ $ $ $ $ $ $ $ $ $ $ $ $ $ $ $ $ $ $ $ $ $ $ $ $ $ $ $ $ $ $ $ $ . . ",
". . $ $ $ ' ) ) ) ) : < $ $ $ $ $ $ $ $ $ $ $ $ $ $ $ $ $ $ $ $ $ $ $ $ $ $ $ $ $ $ $ $ $ . . ",
". . $ $ $ [ } } } | ) ! $ $ $ $ $ $ $ $ $ $ $ $ $ $ $ $ $ $ $ $ $ $ $ $ $ $ $ $ $ $ $ $ $ . . ",
". . $ $ $ ' ) ^ $ 1 ) ! $ $ 2 ; 3 4 $ 5 } 6 7 $ $ $ 8 9 0 $ $ a b c $ $ $ $ $ $ $ $ $ $ $ . . ",
". . $ $ $ d ) e f g ) h $ $ i ) ) j k l ) ) j m $ n o ) ) p ; ) ) ) q $ $ $ $ $ $ $ $ $ $ . . ",
". . $ $ $ 2 r ) ) ) s 8 $ t ) ) ) ) u ) ) ) ) v $ w ) ) ) x y ) ) ) z $ $ $ $ $ $ $ $ $ $ . . ",
". . $ $ $ $ 2 0 A A B $ $ C ) ) ) ) ) ) ) ) ) D $ E ) ) ) ) ) ) ) ) F G $ $ $ $ $ $ $ $ $ . . ",
". . $ $ $ 2 H I J K a $ $ L M ) ) ) ) ) ) ) ) N $ 3 ) ) ) ) ) ) ) ) O $ $ $ $ $ $ $ $ $ $ . . ",
". . $ $ $ } ) ) f ) ) c $ $ P Q ) ) ) ) ) ) R $ $ 7 e ) ) ) ) ) ) S T $ $ $ $ $ $ $ $ $ $ . . ",
". . $ $ $ U ) ) ) ) ) V $ $ $ ] o ) ) ) ) g L $ $ $ W X ) ) ) ) Y Z $ $ $ $ $ $ $ $ $ $ $ . . ",
". . $ $ $ `  .) ) ) ..$ $ $ $ $ +.) ) ) i @.$ $ $ $ $ 1 Y ) ) #.$.$ $ $ $ $ $ $ $ $ $ $ $ . . ",
". . $ $ $ $ %.&.) *.2 $ $ $ $ $ $ =.) -.7 $ $ $ $ $ $ $ ;.j >.' $ $ $ $ $ $ $ $ $ $ $ $ $ . . ",
". . $ $ $ $ $ ,.b G $ $ $ $ $ $ $ $ '.B $ $ $ $ $ $ $ $ $ A ).$ $ $ $ $ $ $ $ $ $ $ $ $ $ . . ",
". . $ $ $ $ $ $ $ $ $ $ $ $ $ $ $ $ $ $ $ $ $ $ $ $ $ $ $ $ $ $ $ $ $ $ $ $ $ $ $ $ $ $ $ . . ",
". . $ $ $ $ $ $ $ $ $ $ $ $ $ $ $ $ $ $ $ $ $ $ $ $ $ $ $ $ $ $ $ $ $ $ $ $ $ $ $ $ $ $ $ . . ",
". . $ $ $ $ $ $ $ $ $ $ $ $ $ $ $ $ $ $ $ $ $ $ $ $ $ $ $ $ $ $ $ $ $ $ $ $ $ $ $ $ $ $ $ . . ",
". . $ $ $ $ $ $ $ $ $ $ $ $ $ $ $ $ $ $ $ $ $ $ $ $ $ $ $ $ $ $ $ $ $ $ $ $ $ $ $ $ $ $ $ . . ",
". . $ $ $ $ $ $ $ $ $ $ $ $ $ $ $ $ $ $ $ $ $ $ $ $ $ $ $ $ $ $ $ $ $ $ $ $ $ $ $ $ $ $ $ . . ",
". . $ $ $ $ $ $ $ $ $ $ $ $ $ $ $ $ $ [ ^ X =.7 !.~.{.].^.$ $ $ $ $ $ $ $ $ $ $ $ $ $ $ $ . . ",
". . $ $ $ $ $ $ $ $ $ $ $ $ $ $ $ $ $ /.) ) ) b q ) ) ) (.$ $ $ $ $ $ $ $ $ $ $ $ $ $ $ $ . . ",
". . $ $ $ $ $ $ $ $ $ $ $ $ $ $ $ $ _.:.) ) ) j x ) ) ) ) <.$ $ $ $ $ $ $ $ $ $ $ $ $ $ $ . . ",
". . $ $ $ $ $ $ $ $ $ $ $ $ $ $ $ $ [.: ) ) ) ) ) ) ) ) o 8 $ $ $ $ $ $ $ $ $ $ $ $ $ $ $ . . ",
". . $ $ $ $ $ $ $ $ $ $ $ $ $ $ $ $ $ }.) ) ) ) ) ) ) ) |.$ $ $ $ $ $ $ $ $ $ $ $ $ $ $ $ . . ",
". . $ $ $ $ $ $ $ $ $ $ $ $ $ $ $ $ $ _.1.) ) ) ) ) ) 2.3.$ $ $ $ $ $ $ $ $ $ $ $ $ $ $ $ . . ",
". . $ $ $ $ $ $ $ $ $ $ $ $ $ $ $ $ $ $ 4.5.) ) ) ) 6.7.$ $ $ $ $ $ $ $ $ $ $ $ $ $ $ $ $ . . ",
". . $ $ $ $ $ $ $ $ $ $ $ $ $ $ $ $ $ $ $ 8.9.) ) :.0.$ $ $ $ $ $ $ $ $ $ $ $ $ $ $ $ $ $ . . ",
". . $ $ $ $ $ $ $ $ $ $ $ $ $ $ $ $ $ $ $ $ ' Q ) a.$ $ $ $ $ $ $ $ $ $ $ $ $ $ $ $ $ $ $ . . ",
". . $ $ $ $ $ $ $ $ $ $ $ $ $ $ $ $ $ $ $ $ $ b.{ $ $ $ $ $ $ $ $ $ $ $ $ $ $ $ $ $ $ $ $ . . ",
". . $ $ $ $ $ $ $ $ $ $ $ $ $ $ $ $ $ $ $ $ $ $ $ $ $ $ $ $ $ $ $ $ $ $ $ $ $ $ $ $ $ $ $ . . ",
". . $ $ $ $ $ $ $ $ $ $ $ $ $ $ $ $ $ $ $ $ $ $ $ $ $ $ $ $ $ $ $ $ $ $ $ $ $ $ $ $ $ $ $ . . ",
". . $ $ $ $ $ $ $ $ $ $ $ $ $ $ $ $ $ $ $ $ $ $ $ $ $ $ $ $ $ $ $ $ $ $ $ $ $ $ $ $ $ $ $ . . ",
". . $ $ $ $ $ $ $ $ $ $ $ $ $ $ $ $ $ $ $ $ $ $ $ $ $ $ $ $ $ $ $ $ $ $ $ $ $ $ $ $ $ $ $ . . ",
". . $ $ $ $ $ $ $ $ $ $ $ $ $ $ $ $ $ $ $ $ $ $ $ $ $ $ $ $ $ $ $ $ $ $ $ $ $ $ $ $ $ $ $ . . ",
". . $ $ $ $ $ $ $ $ $ $ $ $ $ $ $ $ '.B $ $ $ $ $ $ $ $ $ _ ).$ $ $ $ $ $ $ m c.,.$ $ $ $ . . ",
". . $ $ $ $ $ $ $ $ $ $ $ $ $ $ $ { ) -.7 $ $ $ $ $ $ $ d.j >.' $ $ $ $ $ e.f.) i !.$ $ $ . . ",
". . $ $ $ $ $ $ $ $ $ $ $ $ $ $ 6 ) ) ) i @.$ $ $ $ $ Z g.) ) #.$.$ $ $ ,.(.) ) ) h.$ $ $ . . ",
". . $ $ $ $ $ $ $ $ $ $ $ $ $ i.o ) ) ) ) g L $ $ $ m {.) ) ) ) Y Z $ $ j.) ) ) ) ) I $ $ . . ",
". . $ $ $ $ $ $ $ $ $ $ $ $ k.l.) ) ) ) ) ) R $ $ ,.m.) ) ) ) ) ) S T $ ' ) :.n.) :.o.$ $ . . ",
". . $ $ $ $ $ $ $ $ $ $ $ L p.) ) ) ) ) ) ) ) N $ q.) ) ) ) ) ) ) ) O $ $ d.t $ > Z $ $ $ . . ",
". . $ $ $ $ $ $ $ $ $ $ $ C ) ) ) ) ) ) ) ) ) D $ E ) ) ) ) ) ) ) ) F G $ $ $ $ $ $ $ $ $ . . ",
". . $ $ $ $ $ $ $ $ $ $ $ 4.) ) ) ) u ) ) ) ) ( $ r.) ) ) x y ) ) ) s.$ $ t.i  . .n.$ $ $ . . ",
". . $ $ $ $ $ $ $ $ $ $ $ $ u.) ) j k l ) ) 9.- $ v.) ) ) p ; ) ) ) w.$ N j ) ) ) ) x.$ $ . . ",
". . $ $ $ $ $ $ $ $ $ $ $ $ G K y.[ $ 5 z.x.A.$ $ $ B.=.C $ $ 8.R <.$ $ C.) D.W 7.) E.$ $ . . ",
". . $ $ $ $ $ $ $ $ $ $ $ $ $ $ $ $ $ $ $ $ $ $ $ $ $ $ $ $ $ $ $ $ $ $ C.) { $ A.F.K $ $ . . ",
". . $ $ $ $ $ $ $ $ $ $ $ $ $ $ $ $ $ $ $ $ $ $ $ $ $ $ $ $ $ $ $ $ $ $ G.:.j M M M ..$ $ . . ",
". . $ $ $ $ $ $ $ $ $ $ $ $ $ $ $ $ $ $ $ $ $ $ $ $ $ $ $ $ $ $ $ $ $ $ $ H.I.J.: ) E.$ $ . . ",
". . $ $ $ $ $ $ $ $ $ $ $ $ $ $ $ $ $ $ $ $ $ $ $ $ $ $ $ $ $ $ $ $ $ $ $ $ $ $ N ) E.$ $ . . ",
". . $ $ $ $ $ $ $ $ $ $ $ $ $ $ $ $ $ $ $ $ $ $ $ $ $ $ $ $ $ $ $ $ $ $ 2 5 5 5 K.) E.$ $ . . ",
". . $ $ $ $ $ $ $ $ $ $ $ $ $ $ $ $ $ $ $ $ $ $ $ $ $ $ $ $ $ $ $ $ $ $ C.) ) ) ) ) E.$ $ . . ",
". . , $ $ $ $ $ $ $ $ $ $ $ $ $ $ $ $ $ $ $ $ $ $ $ $ $ $ $ $ $ $ $ $ $ A L.L.L.L.L.M.$ $ . . ",
"  . N.$ $ $ $ $ $ $ $ $ $ $ $ $ $ $ $ $ $ $ $ $ $ $ $ $ $ $ $ $ $ $ $ $ $ $ $ $ $ $ $ $ O..   ",
"  . & P., $ $ $ $ $ $ $ $ $ $ $ $ $ $ $ $ $ $ $ $ $ $ $ $ $ $ $ $ $ $ $ $ $ $ $ $ $ , P.Q..   ",
"    . . . . . . . . . . . . . . . . . . . . . . . . . . . . . . . . . . . . . . . . . . .     ",
"        . . . . . . . . . . . . . . . . . . . . . . . . . . . . . . . . . . . . . . .         "};
