/* XPM */
static const char* hearts6_xpm[] = {
"47 62 196 2",
"  	c None",
". 	c #000000",
"+ 	c #2A2A2A",
"@ 	c #B0B0B0",
"# 	c #FCFCFC",
"$ 	c #FFFFFF",
"% 	c #B1B1B1",
"& 	c #B2B2B2",
"* 	c #F6F6F6",
"= 	c #FFFBFC",
"- 	c #FBB9C4",
"; 	c #FBB7C3",
"> 	c #FDDFE4",
", 	c #FDFDFD",
"' 	c #F7F7F7",
") 	c #F6657D",
"! 	c #F21A3F",
"~ 	c #F32A4D",
"{ 	c #FDD4DB",
"] 	c #FBBEC9",
"^ 	c #F54A67",
"/ 	c #F88599",
"( 	c #F7778D",
"_ 	c #F65C77",
": 	c #FBBDC8",
"< 	c #F87F94",
"[ 	c #FDE3E8",
"} 	c #F3274A",
"| 	c #F6667F",
"1 	c #FCC7D0",
"2 	c #FBB5C1",
"3 	c #FFFCFD",
"4 	c #FEF3F5",
"5 	c #FAA8B6",
"6 	c #FDDEE3",
"7 	c #FFF8F9",
"8 	c #FAADBA",
"9 	c #FDD3DA",
"0 	c #F5506C",
"a 	c #F993A5",
"b 	c #FCC6CF",
"c 	c #F6607A",
"d 	c #F55571",
"e 	c #FEF5F7",
"f 	c #F33051",
"g 	c #F21B40",
"h 	c #F998A8",
"i 	c #FEEBEE",
"j 	c #F32C4E",
"k 	c #FA9FAE",
"l 	c #FBBBC6",
"m 	c #FDD9DF",
"n 	c #F21F44",
"o 	c #FDDCE2",
"p 	c #F33354",
"q 	c #F995A6",
"r 	c #F33153",
"s 	c #F44664",
"t 	c #F77A90",
"u 	c #F65A74",
"v 	c #FAA9B7",
"w 	c #F996A7",
"x 	c #F65C76",
"y 	c #FCD1D9",
"z 	c #FFFAFA",
"A 	c #F8899C",
"B 	c #F76F87",
"C 	c #FDE1E6",
"D 	c #F54765",
"E 	c #F88498",
"F 	c #FDE2E7",
"G 	c #F21D41",
"H 	c #FBC0CA",
"I 	c #F44362",
"J 	c #F7768D",
"K 	c #F76B83",
"L 	c #F65E78",
"M 	c #FDDBE1",
"N 	c #F54966",
"O 	c #FEF4F6",
"P 	c #FAA4B3",
"Q 	c #F98D9F",
"R 	c #FFFDFD",
"S 	c #F77087",
"T 	c #F33052",
"U 	c #F32649",
"V 	c #F43A5A",
"W 	c #FEECEF",
"X 	c #FEE7EB",
"Y 	c #F22145",
"Z 	c #F32F50",
"` 	c #FDE0E5",
" .	c #F88196",
"..	c #F6627B",
"+.	c #FFF9FA",
"@.	c #FAACBA",
"#.	c #FCD2D9",
"$.	c #FAA7B5",
"%.	c #F3294C",
"&.	c #FFFEFE",
"*.	c #F32447",
"=.	c #F76A82",
"-.	c #F32548",
";.	c #FEF1F3",
">.	c #FEEFF1",
",.	c #FEF2F4",
"'.	c #F87F93",
").	c #F22246",
"!.	c #FEEEF1",
"~.	c #FEEAEE",
"{.	c #F43C5C",
"].	c #F43959",
"^.	c #F990A2",
"/.	c #FDE4E8",
"(.	c #F994A5",
"_.	c #FCCFD7",
":.	c #FCC4CD",
"<.	c #FCC9D2",
"[.	c #FEE8EB",
"}.	c #FEF0F2",
"|.	c #FCC5CE",
"1.	c #F21C41",
"2.	c #F66881",
"3.	c #F43D5C",
"4.	c #FAABB9",
"5.	c #F44261",
"6.	c #F21E42",
"7.	c #FEE5E9",
"8.	c #F77188",
"9.	c #FAA0AF",
"0.	c #F5516D",
"a.	c #F88699",
"b.	c #FFF7F8",
"c.	c #F66780",
"d.	c #FDD8DF",
"e.	c #FCC6D0",
"f.	c #FCCAD3",
"g.	c #F32347",
"h.	c #FEEDF0",
"i.	c #F88B9E",
"j.	c #F7798F",
"k.	c #F21E43",
"l.	c #F6637C",
"m.	c #FBB1BD",
"n.	c #F66981",
"o.	c #FAA2B1",
"p.	c #FBC1CB",
"q.	c #FFFBFB",
"r.	c #F4405F",
"s.	c #FDDDE2",
"t.	c #FEF6F7",
"u.	c #FDD5DC",
"v.	c #F7788E",
"w.	c #FDD7DE",
"x.	c #F88C9F",
"y.	c #F7758B",
"z.	c #F991A2",
"A.	c #F32B4D",
"B.	c #F87D92",
"C.	c #FCC8D1",
"D.	c #F43556",
"E.	c #F98FA1",
"F.	c #F76E85",
"G.	c #F88397",
"H.	c #FCCDD5",
"I.	c #F5536F",
"J.	c #F5536E",
"K.	c #F33253",
"L.	c #F99AAB",
"M.	c #FDDAE0",
"N.	c #F54E6B",
"O.	c #F88A9D",
"P.	c #FDD7DD",
"Q.	c #FEE9ED",
"R.	c #F6647D",
"S.	c #F7768C",
"T.	c #F8889B",
"U.	c #F32D4F",
"V.	c #F7748A",
"W.	c #F43656",
"X.	c #F54C69",
"Y.	c #FBB2BE",
"Z.	c #F22044",
"`.	c #FAA5B4",
" +	c #F99AAA",
".+	c #FCD0D8",
"++	c #FCCBD3",
"@+	c #FDD6DC",
"#+	c #FCC3CD",
"$+	c #F44563",
"%+	c #F44462",
"&+	c #FEFEFE",
"*+	c #B5B5B5",
"=+	c #B6B6B6",
"-+	c #2E2E2E",
";+	c #B8B8B8",
"        . . . . . . . . . . . . . . . . . . . . . . . . . . . . . . . . . . . . . . .         ",
"    . . . . . . . . . . . . . . . . . . . . . . . . . . . . . . . . . . . . . . . . . . .     ",
"  . + @ # $ $ $ $ $ $ $ $ $ $ $ $ $ $ $ $ $ $ $ $ $ $ $ $ $ $ $ $ $ $ $ $ $ $ $ $ $ # @ + .   ",
"  . % $ $ $ $ $ $ $ $ $ $ $ $ $ $ $ $ $ $ $ $ $ $ $ $ $ $ $ $ $ $ $ $ $ $ $ $ $ $ $ $ $ & .   ",
"  . * $ $ = - ; ; > $ $ $ $ $ $ $ $ $ $ $ $ $ $ $ $ $ $ $ $ $ $ $ $ $ $ $ $ $ $ $ $ $ $ , . . ",
"  . ' $ = ) ! ! ! ~ { $ $ $ $ $ $ $ $ $ $ $ $ $ $ $ $ $ $ $ $ $ $ $ $ $ $ $ $ $ $ $ $ $ $ . . ",
"  . ' $ ] ! ^ / ( ! _ $ $ $ $ $ $ $ $ $ $ $ $ $ $ $ $ $ $ $ $ $ $ $ $ $ $ $ $ $ $ $ $ $ $ . . ",
"  . ' $ : ! < $ [ } | $ $ $ $ 1 2 3 $ 4 5 6 $ $ $ 7 8 9 $ $ 6 5 4 $ $ $ $ $ $ $ $ $ $ $ $ . . ",
"  . ' $ : ! 0 a a b $ $ $ $ c ! ! d e f ! g h $ i j ! ! k l g ! } m $ $ $ $ $ $ $ $ $ $ $ . . ",
"  . ' $ : ! ! ! ! n l $ $ o ! ! ! ! c ! ! ! p 3 q ! ! ! r s ! ! ! t $ $ $ $ $ $ $ $ $ $ $ . . ",
"  . ' $ : ! u v w ! x $ $ y ! ! ! ! ! ! ! ! j z A ! ! ! ! ! ! ! ! B $ $ $ $ $ $ $ $ $ $ $ . . ",
"  . ' $ : ! < $ C ! x $ $ $ D ! ! ! ! ! ! ! E $ F G ! ! ! ! ! ! ! y $ $ $ $ $ $ $ $ $ $ $ . . ",
"  . ' $ H ! I J K ! L $ $ $ M j ! ! ! ! ! N O $ $ P ! ! ! ! ! ! Q $ $ $ $ $ $ $ $ $ $ $ $ . . ",
"  . ' $ R S ! ! ! T o $ $ $ $ y U ! ! ! V W $ $ $ $ a ! ! ! ! J $ $ $ $ $ $ $ $ $ $ $ $ $ . . ",
"  . ' $ $ R 1 b b X $ $ $ $ $ $ b Y ! Z ` $ $ $ $ $ $  .! ! ..3 $ $ $ $ $ $ $ $ $ $ $ $ $ . . ",
"  . ' $ $ +.@.#.O $.o $ $ $ $ $ $ - %.9 $ $ $ $ $ $ $ &.S 0 7 $ $ $ $ $ $ $ $ $ $ $ $ $ $ . . ",
"  . ' $ $ / ! *.=.! -.;.$ $ $ $ $ $ >.$ $ $ $ $ $ $ $ $ 3 ,.$ $ $ $ $ $ $ $ $ $ $ $ $ $ $ . . ",
"  . ' $ $ '.! ! ! ! ).!.$ $ $ $ $ $ $ $ $ $ $ $ $ $ $ $ $ $ $ $ $ $ $ $ $ $ $ $ $ $ $ $ $ . . ",
"  . ' $ $ ~.{.! ! ! k $ $ $ $ $ $ $ $ $ $ $ $ $ $ $ $ $ $ $ $ $ $ $ $ $ $ $ $ $ $ $ $ $ $ . . ",
"  . ' $ $ $ X ].! ^.$ $ $ $ $ $ $ $ $ $ $ $ $ $ $ $ $ $ $ $ $ $ $ $ $ $ $ $ $ $ $ $ $ $ $ . . ",
"  . ' $ $ $ $ /.(.$ $ $ $ $ $ $ $ $ $ $ $ $ $ $ $ $ $ $ $ $ $ $ $ $ $ $ $ $ $ $ $ $ $ $ $ . . ",
"  . ' $ $ $ $ $ $ $ $ $ $ $ $ $ $ $ $ $ $ $ $ $ $ $ $ $ $ $ $ $ $ $ $ $ $ $ $ $ $ $ $ $ $ . . ",
"  . ' $ $ $ $ $ $ $ $ $ $ $ $ $ $ $ $ $ $ $ $ $ $ $ $ $ $ $ $ $ $ $ $ $ $ $ $ $ $ $ $ $ $ . . ",
"  . ' $ $ $ $ $ $ $ $ $ $ $ $ $ $ $ $ $ $ $ $ $ $ $ $ $ $ $ $ $ $ $ $ $ $ $ $ $ $ $ $ $ $ . . ",
"  . ' $ $ $ $ $ $ $ $ $ $ $ $ $ $ $ $ $ $ $ $ $ $ $ $ $ $ $ $ $ $ $ $ $ $ $ $ $ $ $ $ $ $ . . ",
"  . ' $ $ $ $ $ $ $ $ $ $ $ $ $ $ $ $ $ $ $ $ $ $ $ $ $ $ $ $ $ $ $ $ $ $ $ $ $ $ $ $ $ $ . . ",
"  . ' $ $ $ $ $ $ $ $ $ $ $ $ C _.$ $ 3 :.,.$ $ $ $ <.[.$ $ }.|.R $ $ $ $ $ $ $ $ $ $ $ $ . . ",
"  . ' $ $ $ $ $ $ $ $ $ $ $ t 1.! 2.+.3.! -.4.$ ,.5.! 6.8 b Y ! ]./.$ $ $ $ $ $ $ $ $ $ $ . . ",
"  . ' $ $ $ $ $ $ $ $ $ $ 7.1.! ! ! 8.! ! ! {.$ 9.! ! ! ].0.! ! ! a.$ $ $ $ $ $ $ $ $ $ $ . . ",
"  . ' $ $ $ $ $ $ $ $ $ $ <.! ! ! ! ! ! ! ! U b. .! ! ! ! ! ! ! ! c.$ $ $ $ $ $ $ $ $ $ $ . . ",
"  . ' $ $ $ $ $ $ $ $ $ $ $ {.! ! ! ! ! ! ! t $ d.! ! ! ! ! ! ! ! e.$ $ $ $ $ $ $ $ $ $ $ . . ",
"  . ' $ $ $ $ $ $ $ $ $ $ $ f.g.! ! ! ! ! {.h.$ $ i.! ! ! ! ! ! j.$ $ $ $ $ $ $ $ $ $ $ $ . . ",
"  . ' $ $ $ $ $ $ $ $ $ $ $ $ ] k.! ! ! f C $ $ $ $ j.! ! ! ! l.R $ $ $ $ $ $ $ $ $ $ $ $ . . ",
"  . ' $ $ $ $ $ $ $ $ $ $ $ $ $ m.1.! U 9 $ $ $ $ $ R n.! ! 0 7 $ $ $ $ $ $ $ $ $ $ $ $ $ . . ",
"  . ' $ $ $ $ $ $ $ $ $ $ $ $ $ $ o.n p.$ $ $ $ $ $ $ q.u r.}.$ $ $ $ $ $ $ $ $ $ $ $ $ $ . . ",
"  . ' $ $ $ $ $ $ $ $ $ $ $ $ $ $ $ s.$ $ $ $ $ $ $ $ $ t.X $ $ $ $ $ $ $ $ $ $ $ $ $ $ $ . . ",
"  . ' $ $ $ $ $ $ $ $ $ $ $ $ $ $ $ $ $ $ $ $ $ $ $ $ $ $ $ $ $ $ $ $ $ $ $ $ $ $ $ $ $ $ . . ",
"  . ' $ $ $ $ $ $ $ $ $ $ $ $ $ $ $ $ $ $ $ $ $ $ $ $ $ $ $ $ $ $ $ $ $ $ $ $ $ $ $ $ $ $ . . ",
"  . ' $ $ $ $ $ $ $ $ $ $ $ $ $ $ $ $ $ $ $ $ $ $ $ $ $ $ $ $ $ $ $ $ $ $ $ $ $ $ $ $ $ $ . . ",
"  . ' $ $ $ $ $ $ $ $ $ $ $ $ $ $ $ $ $ $ $ $ $ $ $ $ $ $ $ $ $ $ $ $ $ $ $ $ $ $ $ $ $ $ . . ",
"  . ' $ $ $ $ $ $ $ $ $ $ $ $ $ $ $ $ $ $ $ $ $ $ $ $ $ $ $ $ $ $ $ $ $ $ $ $ $ $ $ $ $ $ . . ",
"  . ' $ $ $ $ $ $ $ $ $ $ $ $ $ $ $ $ $ $ $ $ $ $ $ $ $ $ $ $ $ $ $ $ $ $ $ u.v.R $ $ $ $ . . ",
"  . ' $ $ $ $ $ $ $ $ $ $ $ $ $ $ $ $ $ $ $ $ $ $ $ $ $ $ $ $ $ $ $ $ $ $ w.j ! v.$ $ $ $ . . ",
"  . ' $ $ $ $ $ $ $ $ $ $ $ $ $ $ $ $ $ $ $ $ $ $ $ $ $ $ $ $ $ $ $ $ $ > Z ! ! ! x.$ $ $ . . ",
"  . ' $ $ $ $ $ $ $ $ $ $ $ $ $ $ $ $ $ $ $ $ $ $ $ $ $ $ $ $ $ $ $ $ $ y.! ! ! ! k.[.$ $ . . ",
"  . ' $ $ $ $ $ $ $ $ $ $ $ $ $ $ $ e $ $ $ $ $ $ $ $ $ &.b.$ $ $ $ $ $ z.! A.'.! A.t.$ $ . . ",
"  . ' $ $ $ $ $ $ $ $ $ $ $ $ $ $ :.r M $ $ $ $ $ $ $ $ B.u q.$ $ $ $ $ &.C.X 3 :.h.$ $ $ . . ",
"  . ' $ $ $ $ $ $ $ $ $ $ $ $ $ _.-.! D.[.$ $ $ $ $ $ E.! ! F.&.$ $ $ $ $ $ $ $ $ $ $ $ $ . . ",
"  . ' $ $ $ $ $ $ $ $ $ $ $ $ m A.! ! ! 5.,.$ $ $ $ 9.! ! ! ! G.$ $ $ $ $ H.I.J.J.^.$ $ $ . . ",
"  . ' $ $ $ $ $ $ $ $ $ $ $ F K.! ! ! ! ! J.+.$ $ m.1.! ! ! ! ! L.$ $ $ M.} ! ! ! ! q $ $ . . ",
"  . ' $ $ $ $ $ $ $ $ $ $ $ N.! ! ! ! ! ! ! O.$ X k.! ! ! ! ! ! g P.$ $ 2 ! B.Q.1 ! R.$ $ . . ",
"  . ' $ $ $ $ $ $ $ $ $ $ P.! ! ! ! ! ! ! ! f = E.! ! ! ! ! ! ! ! S.$ $ 2 ! T.$ m ! R.$ $ . . ",
"  . ' $ $ $ $ $ $ $ $ $ $ P.! ! ! ! d ! ! ! Z q.E.! ! ! U.r.! ! ! V.$ $ f.g } W.r ! R.$ $ . . ",
"  . ' $ $ $ $ $ $ $ $ $ $ $ I.! ! X.,.%.! ! Q $ X -.! ! q Y.! ! Z.{ $ $ $ `.Y Z.n ! R.$ $ . . ",
"  . ' $ $ $ $ $ $ $ $ $ $ $ R - $.b.$ i  +y $ $ $ ,.k |.$ $ .+ +i $ $ $ > L.++$ m ! R.$ $ . . ",
"  . ' $ $ $ $ $ $ $ $ $ $ $ $ $ $ $ $ $ $ $ $ $ $ $ $ $ $ $ $ $ $ $ $ $ 2 ! E 7 9 ! R.$ $ . . ",
"  . ' $ $ $ $ $ $ $ $ $ $ $ $ $ $ $ $ $ $ $ $ $ $ $ $ $ $ $ $ $ $ $ $ $ @+).! ! ! ! x.$ $ . . ",
"  . ' $ $ $ $ $ $ $ $ $ $ $ $ $ $ $ $ $ $ $ $ $ $ $ $ $ $ $ $ $ $ $ $ $ $ #+$+%+%+ .$ $ &+. . ",
"  . *+$ $ $ $ $ $ $ $ $ $ $ $ $ $ $ $ $ $ $ $ $ $ $ $ $ $ $ $ $ $ $ $ $ $ $ $ $ $ $ $ $ =+.   ",
"  . -+;+&+$ $ $ $ $ $ $ $ $ $ $ $ $ $ $ $ $ $ $ $ $ $ $ $ $ $ $ $ $ $ $ $ $ $ $ $ $ &+;+-+.   ",
"    . . . . . . . . . . . . . . . . . . . . . . . . . . . . . . . . . . . . . . . . . . .     ",
"        . . . . . . . . . . . . . . . . . . . . . . . . . . . . . . . . . . . . . . .         "};
