/* XPM */
static const char* hearts7_xpm[] = {
"47 62 176 2",
"  	c None",
". 	c #000000",
"+ 	c #2A2A2A",
"@ 	c #B0B0B0",
"# 	c #FCFCFC",
"$ 	c #FFFFFF",
"% 	c #B2B2B2",
"& 	c #FDFDFD",
"* 	c #FDD4DB",
"= 	c #FBB7C3",
"- 	c #FCCFD7",
"; 	c #F6F6F6",
"> 	c #F7748A",
", 	c #F21A3F",
"' 	c #F8889B",
") 	c #F7F7F7",
"! 	c #FBB5C1",
"~ 	c #F88599",
"{ 	c #F43A5A",
"] 	c #FBBCC7",
"^ 	c #F43959",
"/ 	c #F21B40",
"( 	c #FEEFF1",
"_ 	c #FFF9FA",
": 	c #FAABB9",
"< 	c #FCC3CD",
"[ 	c #FDE0E5",
"} 	c #FA9FAE",
"| 	c #FEE9EC",
"1 	c #F99EAE",
"2 	c #FAACBA",
"3 	c #FFFAFA",
"4 	c #FEEBEE",
"5 	c #F43D5C",
"6 	c #FEF5F7",
"7 	c #F33153",
"8 	c #F88397",
"9 	c #FCD1D9",
"0 	c #F21C41",
"a 	c #F21E43",
"b 	c #FBC0CA",
"c 	c #FCCBD3",
"d 	c #F43556",
"e 	c #FFF8F9",
"f 	c #F77188",
"g 	c #FAA7B5",
"h 	c #F22246",
"i 	c #F5526E",
"j 	c #F65F79",
"k 	c #F54E6B",
"l 	c #F32447",
"m 	c #FAAAB7",
"n 	c #FAA5B4",
"o 	c #FAA2B1",
"p 	c #F65B75",
"q 	c #F65A74",
"r 	c #FAA4B3",
"s 	c #F54F6B",
"t 	c #FDD9DF",
"u 	c #FEF2F4",
"v 	c #F32548",
"w 	c #FBB9C4",
"x 	c #FBB6C2",
"y 	c #F32A4D",
"z 	c #FEF6F7",
"A 	c #F22145",
"B 	c #F3284B",
"C 	c #FFFEFE",
"D 	c #FBBDC8",
"E 	c #F7778D",
"F 	c #F77A90",
"G 	c #FBC1CB",
"H 	c #FCCDD5",
"I 	c #FBB0BD",
"J 	c #F6637C",
"K 	c #FFFDFD",
"L 	c #F66981",
"M 	c #FAADBA",
"N 	c #FEEAEE",
"O 	c #FCC6CF",
"P 	c #FDDFE4",
"Q 	c #F5516D",
"R 	c #FFFBFB",
"S 	c #F998A8",
"T 	c #FFF7F7",
"U 	c #F87D92",
"V 	c #FFF1F3",
"W 	c #FBB6C1",
"X 	c #F991A3",
"Y 	c #F44260",
"Z 	c #FEF1F3",
"` 	c #F54D6A",
" .	c #F88196",
"..	c #F65A75",
"+.	c #FDD5DB",
"@.	c #FEEDF0",
"#.	c #FEF3F5",
"$.	c #F6546F",
"%.	c #FCCCD4",
"&.	c #F994A5",
"*.	c #F22044",
"=.	c #F55470",
"-.	c #FDE4E8",
";.	c #F22245",
">.	c #F65872",
",.	c #FFF7F8",
"'.	c #F3274A",
").	c #F7768D",
"!.	c #FDDCE2",
"~.	c #F54866",
"{.	c #FEE5E9",
"].	c #FDD7DE",
"^.	c #F65671",
"/.	c #F65873",
"(.	c #F32D4F",
"_.	c #F32C4E",
":.	c #F32649",
"<.	c #FCCFD6",
"[.	c #FCC5CE",
"}.	c #FBBFCA",
"|.	c #F21E42",
"1.	c #FDDDE2",
"2.	c #FCC8D1",
"3.	c #FDDEE3",
"4.	c #FBBBC6",
"5.	c #FCC9D2",
"6.	c #F54865",
"7.	c #FCCED6",
"8.	c #FDD7DD",
"9.	c #F999A9",
"0.	c #F54B68",
"a.	c #FFFBFC",
"b.	c #FBB3BF",
"c.	c #F76B83",
"d.	c #F65C76",
"e.	c #F99BAB",
"f.	c #FEECEF",
"g.	c #F21F44",
"h.	c #FAAFBC",
"i.	c #F6657D",
"j.	c #FFFCFD",
"k.	c #F6627B",
"l.	c #F99AAA",
"m.	c #F4415F",
"n.	c #F33354",
"o.	c #FEE6EA",
"p.	c #F43C5C",
"q.	c #F76A82",
"r.	c #FEE8EB",
"s.	c #F43C5B",
"t.	c #FFF7F9",
"u.	c #FBC5CE",
"v.	c #F21D41",
"w.	c #F43758",
"x.	c #FDD1D9",
"y.	c #F21D42",
"z.	c #F54664",
"A.	c #F54A67",
"B.	c #F7677F",
"C.	c #F54D69",
"D.	c #FDE0E4",
"E.	c #FDD6DD",
"F.	c #F5536E",
"G.	c #F88C9F",
"H.	c #F993A5",
"I.	c #F6607A",
"J.	c #FCC7D0",
"K.	c #FAABB8",
"L.	c #F87F93",
"M.	c #F44362",
"N.	c #FEFEFE",
"O.	c #F44462",
"P.	c #B6B6B6",
"Q.	c #B5B5B5",
"R.	c #2E2E2E",
"S.	c #B8B8B8",
"        . . . . . . . . . . . . . . . . . . . . . . . . . . . . . . . . . . . . . . .         ",
"    . . . . . . . . . . . . . . . . . . . . . . . . . . . . . . . . . . . . . . . . . . .     ",
"  . + @ # $ $ $ $ $ $ $ $ $ $ $ $ $ $ $ $ $ $ $ $ $ $ $ $ $ $ $ $ $ $ $ $ $ $ $ $ $ # @ + .   ",
"  . % $ $ $ $ $ $ $ $ $ $ $ $ $ $ $ $ $ $ $ $ $ $ $ $ $ $ $ $ $ $ $ $ $ $ $ $ $ $ $ $ $ % .   ",
". . & $ $ * = = = = - $ $ $ $ $ $ $ $ $ $ $ $ $ $ $ $ $ $ $ $ $ $ $ $ $ $ $ $ $ $ $ $ $ ; .   ",
". . $ $ $ > , , , , ' $ $ $ $ $ $ $ $ $ $ $ $ $ $ $ $ $ $ $ $ $ $ $ $ $ $ $ $ $ $ $ $ $ ) .   ",
". . $ $ $ ! ~ ~ { , ] $ $ $ $ $ $ $ $ $ $ $ $ $ $ $ $ $ $ $ $ $ $ $ $ $ $ $ $ $ $ $ $ $ ) .   ",
". . $ $ $ $ $ $ ^ / ( $ $ $ _ : < $ $ [ } | $ $ $ | 1 [ $ $ < 2 3 $ $ $ $ $ $ $ $ $ $ $ ) .   ",
". . $ $ $ $ $ 4 , 5 $ $ $ 6 7 , , 8 9 0 , a b $ b a , / c ~ , , d e $ $ $ $ $ $ $ $ $ $ ) .   ",
". . $ $ $ $ $ = , f $ $ $ g , , , h i , , , j $ j , , , k l , , , m $ $ $ $ $ $ $ $ $ $ ) .   ",
". . $ $ $ $ $ 8 , n $ $ $ o , , , , , , , , p $ q , , , , , , , , r $ $ $ $ $ $ $ $ $ $ ) .   ",
". . $ $ $ $ $ s , t $ $ $ u v , , , , , , , w $ x , , , , , , , y z $ $ $ $ $ $ $ $ $ $ ) .   ",
". . $ $ $ $ 3 A B C $ $ $ $ D a , , , , , E $ $ $ F , , , , , a G $ $ $ $ $ $ $ $ $ $ $ ) .   ",
". . $ $ $ $ H , p $ $ $ $ $ $ I 0 , , , J K $ $ $ K L , , , / M $ $ $ $ $ $ $ $ $ $ $ $ ) .   ",
". . $ $ $ $ N O P $ $ $ $ $ $ $ o , , Q e $ $ $ $ $ R p , , S $ $ $ $ $ $ $ $ $ $ $ $ $ ) .   ",
". . $ $ $ T U r V > W $ $ $ $ $ $ X Y Z $ $ $ $ $ $ $ z `  .$ $ $ $ $ $ $ $ $ $ $ $ $ $ ) .   ",
". . $ $ $ .., , { , , +.$ $ $ $ $ $ u $ @.- $ $ $ - @.$ #.C $ $ $ $ $ $ $ $ $ $ $ $ $ $ ) .   ",
". . $ $ $ $., , , , , %.$ $ $ $ $ $ $ &.*., =.C =., *.&.$ $ $ $ $ $ $ $ $ $ $ $ $ $ $ $ ) .   ",
". . $ $ $ -.;., , , >.$ $ $ $ $ $ $ ,.'., , , )., , , '.,.$ $ $ $ $ $ $ $ $ $ $ $ $ $ $ ) .   ",
". . $ $ $ $ !.A , ~.$ $ $ $ $ $ $ $ -./ , , , , , , , 0 {.$ $ $ $ $ $ $ $ $ $ $ $ $ $ $ ) .   ",
". . $ $ $ $ $ ].^.$ $ $ $ $ $ $ $ $ $ /., , , , , , , p $ $ $ $ $ $ $ $ $ $ $ $ $ $ $ $ ) .   ",
". . $ $ $ $ $ $ $ $ $ $ $ $ $ $ $ $ $ !.(., , , , , _.!.$ $ $ $ $ $ $ $ $ $ $ $ $ $ $ $ ) .   ",
". . $ $ $ $ $ $ $ $ $ $ $ $ $ $ $ $ $ $ 9 :., , , l <.$ $ $ $ $ $ $ $ $ $ $ $ $ $ $ $ $ ) .   ",
". . $ $ $ $ $ $ $ $ $ $ $ $ $ $ $ $ $ $ $ [.*., a }.$ $ $ $ $ $ $ $ $ $ $ $ $ $ $ $ $ $ ) .   ",
". . $ $ $ $ $ $ $ $ $ $ $ $ $ $ $ $ $ $ $ $ x |.M $ $ $ $ $ $ $ $ $ $ $ $ $ $ $ $ $ $ $ ) .   ",
". . $ $ $ $ $ $ $ $ $ $ $ $ $ $ $ $ $ $ $ $ $ 1.$ $ $ $ $ $ $ $ $ $ $ $ $ $ $ $ $ $ $ $ ) .   ",
". . $ $ $ $ $ $ $ $ $ $ $ $ $ 2.3.$ $ #.] e $ $ $ e 4.u $ $ 3.5.$ $ $ $ $ $ $ $ $ $ $ $ ) .   ",
". . $ $ $ $ $ $ $ $ $ $ $ R 6., / S !.'., _.7.$ 7._., v 8.9./ , 0.a.$ $ $ $ $ $ $ $ $ $ ) .   ",
". . $ $ $ $ $ $ $ $ $ $ $ b., , , '.j , , , c.$ c., , , d.y , , , ! $ $ $ $ $ $ $ $ $ $ ) .   ",
". . $ $ $ $ $ $ $ $ $ $ $ 9., , , , , , , , i $ Q , , , , , , , , e.$ $ $ $ $ $ $ $ $ $ ) .   ",
". . $ $ $ $ $ $ $ $ $ $ $ f.g., , , , , , , h.$ m , , , , , , , v u $ $ $ $ $ $ $ $ $ $ ) .   ",
". . $ $ $ $ $ $ $ $ $ $ $ $ g , , , , , , i.K $ j.k., , , , , / I $ $ $ $ $ $ $ $ $ $ $ ) .   ",
". . $ $ $ $ $ $ $ $ $ $ $ $ $ S , , , , i _ $ $ $ _ =., , , , l.$ $ $ $ $ $ $ $ $ $ $ $ ) .   ",
". . $ $ $ $ $ $ $ $ $ $ $ $ $ $ ' , , m.Z $ $ $ $ $ #.6., ,  .$ $ $ $ $ $ $ $ $ $ $ $ $ ) .   ",
". . $ $ $ $ $ $ $ $ $ $ $ $ $ $ $ E n.o.$ $ $ $ $ $ $ f.p.q.C $ $ $ $ $ $ $ $ $ $ $ $ $ ) .   ",
". . $ $ $ $ $ $ $ $ $ $ $ $ $ $ $ K -.$ $ $ $ $ $ $ $ $ r.3 $ $ $ $ $ $ $ $ $ $ $ $ $ $ ) .   ",
". . $ $ $ $ $ $ $ $ $ $ $ $ $ $ $ $ $ $ $ $ $ $ $ $ $ $ $ $ $ $ $ $ $ $ $ $ $ $ $ $ $ $ ) .   ",
". . $ $ $ $ $ $ $ $ $ $ $ $ $ $ $ $ $ $ $ $ $ $ $ $ $ $ $ $ $ $ $ $ $ $ $ $ $ $ $ $ $ $ ) .   ",
". . $ $ $ $ $ $ $ $ $ $ $ $ $ $ $ $ $ $ $ $ $ $ $ $ $ $ $ $ $ $ $ $ $ $ $ $ $ $ $ $ $ $ ) .   ",
". . $ $ $ $ $ $ $ $ $ $ $ $ $ $ $ $ $ $ $ $ $ $ $ $ $ $ $ $ $ $ $ $ $ $ $ $ $ $ $ $ $ $ ) .   ",
". . $ $ $ $ $ $ $ $ $ $ $ $ $ $ $ $ $ $ $ $ $ $ $ $ $ $ $ $ $ $ $ $ $ $ $ $ $ $ $ $ $ $ ) .   ",
". . $ $ $ $ $ $ $ $ $ $ $ $ $ $ $ $ $ $ $ $ $ $ $ $ $ $ $ $ $ $ $ $ $ $ $ $ b s.t.$ $ $ ) .   ",
". . $ $ $ $ $ $ $ $ $ $ $ $ $ $ $ $ $ $ $ $ $ $ $ $ $ $ $ $ $ $ $ $ $ $ $ u.v., w.K $ $ ) .   ",
". . $ $ $ $ $ $ $ $ $ $ $ $ $ $ $ $ $ $ $ $ $ $ $ $ $ $ $ $ $ $ $ $ $ $ x.y., , , z.$ $ ) .   ",
". . $ $ $ $ $ $ $ $ $ $ $ $ $ $ $ $ $ $ $ $ $ $ $ $ $ $ $ $ $ $ $ $ $ $ A., , , , , b $ ) .   ",
". . $ $ $ $ $ $ $ $ $ $ $ $ $ $ $ $ u $ $ $ $ $ $ $ $ $ #.C $ $ $ $ $ $ B., , C., , D.$ ) .   ",
". . $ $ $ $ $ $ $ $ $ $ $ $ $ $ $ X Y Z $ $ $ $ $ $ $ z `  .$ $ $ $ $ $ $ r 5.K e.E.$ $ ) .   ",
". . $ $ $ $ $ $ $ $ $ $ $ $ $ $ o , , Q e $ $ $ $ $ R p , , S $ $ $ $ $ $ $ $ $ $ $ $ $ ) .   ",
". . $ $ $ $ $ $ $ $ $ $ $ $ $ I 0 , , , J K $ $ $ K L , , , / M $ $ $ $ $ $ 9 F.G.$ $ $ ) .   ",
". . $ $ $ $ $ $ $ $ $ $ $ $ D a , , , , , E $ $ $ F , , , , , a G $ $ $ $ $ &., H.$ $ $ ) .   ",
". . $ $ $ $ $ $ $ $ $ $ $ u v , , , , , , , w $ x , , , , , , , y z $ $ $ $ I., J.$ $ $ ) .   ",
". . $ $ $ $ $ $ $ $ $ $ $ o , , , , , , , , p $ q , , , , , , , , r $ $ $ $ (.a ,.$ $ $ ) .   ",
". . $ $ $ $ $ $ $ $ $ $ $ g , , , h i , , , j $ j , , , k l , , , m $ $ $ P , A.$ $ $ $ ) .   ",
". . $ $ $ $ $ $ $ $ $ $ $ 6 7 , , 8 9 0 , a b $ b a , / c ~ , , d e $ $ $ K., L.$ $ $ $ ) .   ",
". . $ $ $ $ $ $ $ $ $ $ $ $ _ : < $ $ [ } | $ $ $ | 1 [ $ $ < 2 3 $ $ $ $ )., b.$ $ $ $ ) .   ",
". . $ $ $ $ $ $ $ $ $ $ $ $ $ $ $ $ $ $ $ $ $ $ $ $ $ $ $ $ $ $ $ $ $ $ $ M., [ e _ $ $ ) .   ",
". . $ $ $ $ $ $ $ $ $ $ $ $ $ $ $ $ $ $ $ $ $ $ $ $ $ $ $ $ $ $ $ $ $ $ u 0 , , , *.$ $ ) .   ",
". . N.$ $ $ $ $ $ $ $ $ $ $ $ $ $ $ $ $ $ $ $ $ $ $ $ $ $ $ $ $ $ $ $ $ 9 O.O.O.O.A.$ $ ) .   ",
"  . P.$ $ $ $ $ $ $ $ $ $ $ $ $ $ $ $ $ $ $ $ $ $ $ $ $ $ $ $ $ $ $ $ $ $ $ $ $ $ $ $ $ Q..   ",
"  . R.S.N.$ $ $ $ $ $ $ $ $ $ $ $ $ $ $ $ $ $ $ $ $ $ $ $ $ $ $ $ $ $ $ $ $ $ $ $ $ N.S.R..   ",
"    . . . . . . . . . . . . . . . . . . . . . . . . . . . . . . . . . . . . . . . . . . .     ",
"        . . . . . . . . . . . . . . . . . . . . . . . . . . . . . . . . . . . . . . .         "};
