/* XPM */
static const char* hearts8_xpm[] = {
"47 62 197 2",
"  	c None",
". 	c #000000",
"+ 	c #2E2E2E",
"@ 	c #B2B2B2",
"# 	c #FCFCFC",
"$ 	c #FFFFFF",
"% 	c #B0B0B0",
"& 	c #2A2A2A",
"* 	c #B9B9B9",
"= 	c #FEFEFE",
"- 	c #FFFAFA",
"; 	c #FBB9C4",
"> 	c #FBB7C3",
", 	c #FDE0E5",
"' 	c #FDFDFD",
") 	c #F6607A",
"! 	c #F21A3F",
"~ 	c #F32D4F",
"{ 	c #FDD7DD",
"] 	c #F54C69",
"^ 	c #F88599",
"/ 	c #F7758B",
"( 	c #F6637C",
"_ 	c #FBB8C4",
": 	c #FDDCE2",
"< 	c #F6617A",
"[ 	c #FEF6F7",
"} 	c #FAA8B6",
"| 	c #FCC8D1",
"1 	c #FAA0AF",
"2 	c #FEEDF0",
"3 	c #FDE4E8",
"4 	c #F99EAE",
"5 	c #FFFEFE",
"6 	c #FBBDC8",
"7 	c #FBB1BD",
"8 	c #FFFBFB",
"9 	c #F55671",
"0 	c #F99AAB",
"a 	c #F8879A",
"b 	c #FEEEF1",
"c 	c #F32B4D",
"d 	c #F991A3",
"e 	c #FCC4CD",
"f 	c #F21B40",
"g 	c #F22145",
"h 	c #FCCDD5",
"i 	c #FBB4C0",
"j 	c #F21D41",
"k 	c #FDD6DC",
"l 	c #F87E93",
"m 	c #F43A5A",
"n 	c #FFFBFC",
"o 	c #FEE5E9",
"p 	c #F21F44",
"q 	c #F994A5",
"r 	c #F999A9",
"s 	c #F3284B",
"t 	c #F54B68",
"u 	c #F76E85",
"v 	c #F5516D",
"w 	c #F5536E",
"x 	c #FBB5C1",
"y 	c #F65C77",
"z 	c #FAA9B7",
"A 	c #F993A5",
"B 	c #F66981",
"C 	c #FEEAEE",
"D 	c #FCC7D0",
"E 	c #F32F50",
"F 	c #FBBBC6",
"G 	c #F44563",
"H 	c #F7768D",
"I 	c #F66881",
"J 	c #F6657D",
"K 	c #FBB2BE",
"L 	c #F21C41",
"M 	c #F88699",
"N 	c #F22044",
"O 	c #FCC6D0",
"P 	c #FFFCFD",
"Q 	c #F76C84",
"R 	c #F33354",
"S 	c #FDDFE4",
"T 	c #FAA3B2",
"U 	c #F76F87",
"V 	c #FCC6CF",
"W 	c #FEE8EB",
"X 	c #F65C76",
"Y 	c #FFF8F9",
"Z 	c #F5536F",
"` 	c #FA9FAE",
" .	c #FCCED6",
"..	c #FAAEBB",
"+.	c #FCC2CC",
"@.	c #FFFDFD",
"#.	c #F88397",
"$.	c #F54A68",
"%.	c #FEF5F7",
"&.	c #FEF3F5",
"*.	c #F54865",
"=.	c #F8889C",
"-.	c #FDDBE1",
";.	c #F7748A",
">.	c #FAA6B4",
",.	c #FEE9ED",
"'.	c #FDD3DA",
").	c #FEF1F3",
"!.	c #FDD5DC",
"~.	c #F8889B",
"{.	c #F21E43",
"].	c #F54E6B",
"^.	c #F32347",
"/.	c #F87D92",
"(.	c #F5506C",
"_.	c #FEEFF1",
":.	c #F7788E",
"<.	c #F33052",
"[.	c #F7778D",
"}.	c #F54765",
"|.	c #FEF2F4",
"1.	c #FDD7DE",
"2.	c #F98D9F",
"3.	c #F54A67",
"4.	c #FDD4DB",
"5.	c #F3274A",
"6.	c #F33153",
"7.	c #FCC9D2",
"8.	c #F22246",
"9.	c #FBBDC7",
"0.	c #FAAFBC",
"a.	c #F21E42",
"b.	c #FBB4C1",
"c.	c #FDDDE2",
"d.	c #FCC5CE",
"e.	c #FDE2E7",
"f.	c #FEF0F2",
"g.	c #FDD9DF",
"h.	c #FEF4F6",
"i.	c #F4405F",
"j.	c #FAA4B3",
"k.	c #FCD1D9",
"l.	c #FDD8DF",
"m.	c #FCC3CD",
"n.	c #F992A4",
"o.	c #F33051",
"p.	c #F55772",
"q.	c #F7798F",
"r.	c #FBC1CB",
"s.	c #F88A9D",
"t.	c #F44261",
"u.	c #FDE1E6",
"v.	c #F99BAB",
"w.	c #F99AAA",
"x.	c #F77289",
"y.	c #F65873",
"z.	c #FBB6C2",
"A.	c #F8899C",
"B.	c #FAA1B0",
"C.	c #F44260",
"D.	c #F76A82",
"E.	c #F43B5B",
"F.	c #FEECEF",
"G.	c #FEE9EC",
"H.	c #F43858",
"I.	c #F77087",
"J.	c #FEE7EB",
"K.	c #FEE6EA",
"L.	c #F54966",
"M.	c #FCCFD6",
"N.	c #FEEBEE",
"O.	c #F7738A",
"P.	c #FBBEC9",
"Q.	c #F6657E",
"R.	c #F43556",
"S.	c #F43757",
"T.	c #F65F79",
"U.	c #F43E5D",
"V.	c #FCD2D9",
"W.	c #F98FA1",
"X.	c #FAABB8",
"Y.	c #FCCFD7",
"Z.	c #F990A2",
"`.	c #FDDAE0",
" +	c #F995A6",
".+	c #F6647D",
"++	c #FCCAD3",
"@+	c #F43656",
"#+	c #F32649",
"$+	c #F87F94",
"%+	c #F88498",
"&+	c #F88C9F",
"*+	c #F44462",
"=+	c #F88196",
"-+	c #B6B6B6",
";+	c #2F2F2F",
">+	c #B8B8B8",
"        . . . . . . . . . . . . . . . . . . . . . . . . . . . . . . . . . . . . . . .         ",
"    . . . . . . . . . . . . . . . . . . . . . . . . . . . . . . . . . . . . . . . . . . .     ",
"  . + @ # $ $ $ $ $ $ $ $ $ $ $ $ $ $ $ $ $ $ $ $ $ $ $ $ $ $ $ $ $ $ $ $ $ $ $ $ $ # % & .   ",
"  . * $ $ $ $ $ $ $ $ $ $ $ $ $ $ $ $ $ $ $ $ $ $ $ $ $ $ $ $ $ $ $ $ $ $ $ $ $ $ $ $ $ @ .   ",
". . = $ $ - ; > > , $ $ $ $ $ $ $ $ $ $ $ $ $ $ $ $ $ $ $ $ $ $ $ $ $ $ $ $ $ $ $ $ $ $ ' . . ",
". . $ $ - ) ! ! ! ~ { $ $ $ $ $ $ $ $ $ $ $ $ $ $ $ $ $ $ $ $ $ $ $ $ $ $ $ $ $ $ $ $ $ $ . . ",
". . $ $ ; ! ] ^ / ! ( $ $ $ $ $ $ $ $ $ $ $ $ $ $ $ $ $ $ $ $ $ $ $ $ $ $ $ $ $ $ $ $ $ $ . . ",
". . $ $ _ ! ^ $ : ! < $ $ $ [ } | $ $ : 1 2 $ $ $ 3 4 3 $ 5 6 7 8 $ $ $ $ $ $ $ $ $ $ $ $ . . ",
". . $ $ _ ! 9 0 a ! < $ $ b c ! ! d e f ! g h $ i j ! j k l ! ! m n $ $ $ $ $ $ $ $ $ $ $ . . ",
". . $ $ o p ! ! ! ! q $ $ r ! ! ! s t ! ! ! u $ v ! ! ! w g ! ! ! x $ $ $ $ $ $ $ $ $ $ $ . . ",
". . $ $ _ ! y z A ! < $ $ A ! ! ! ! ! ! ! ! B $ t ! ! ! ! ! ! ! ! 7 $ $ $ $ $ $ $ $ $ $ $ . . ",
". . $ $ _ ! ^ $ : ! < $ $ C p ! ! ! ! ! ! ! D $ } ! ! ! ! ! ! ! E 8 $ $ $ $ $ $ $ $ $ $ $ . . ",
". . $ $ F ! G H I ! J $ $ $ K L ! ! ! ! ! M $ $ 5 u ! ! ! ! ! N O $ $ $ $ $ $ $ $ $ $ $ $ . . ",
". . $ $ P Q ! ! ! R S $ $ $ $ T ! ! ! ! U $ $ $ $ n ) ! ! ! L i $ $ $ $ $ $ $ $ $ $ $ $ $ . . ",
". . $ $ $ P D V V W $ $ $ $ $ $ A ! ! X n $ $ $ $ $ Y Z ! ! ` $ $ $ $ $ $ $ $ $ $ $ $ $ $ . . ",
". . $ $ $  ...n +._ @.$ $ $ $ $ $ #.$.%.$ $ $ $ $ $ $ &.*.=.$ $ $ $ $ $ $ $ $ $ $ $ $ $ $ . . ",
". . $ $ -.! ! ;.! ! >.$ $ $ $ $ $ $ &.$ ,.'.$ $ $ h ).$ &.$ $ $ $ $ $ $ $ $ $ $ $ $ $ $ $ . . ",
". . $ $ !.! ! ! ! ! 1 $ $ $ $ $ $ $ $ ~.{.! < 5 ].! ^.1 $ $ $ $ $ $ $ $ $ $ $ $ $ $ $ $ $ . . ",
". . $ $ $ /.! ! ! (.Y $ $ $ $ $ $ $ _.g ! ! ! :.! ! ! <.n $ $ $ $ $ $ $ $ $ $ $ $ $ $ $ $ . . ",
". . $ $ $ $ [.! }.|.$ $ $ $ $ $ $ $ 1.! ! ! ! ! ! ! ! p _.$ $ $ $ $ $ $ $ $ $ $ $ $ $ $ $ . . ",
". . $ $ $ $ 5 2.2 $ $ $ $ $ $ $ $ $ $ 3.! ! ! ! ! ! ! B $ $ $ $ $ $ $ $ $ $ $ $ $ $ $ $ $ . . ",
". . $ $ $ $ $ $ $ $ $ $ $ $ $ $ $ $ $ 4.5.! ! ! ! ! 6.3 $ $ $ $ $ $ $ $ $ $ $ $ $ $ $ $ $ . . ",
". . $ $ $ $ $ $ $ $ $ $ $ $ $ $ $ $ $ $ 7.8.! ! ! 5.{ $ $ $ $ $ $ $ $ $ $ $ $ $ $ $ $ $ $ . . ",
". . $ $ $ $ $ $ $ $ $ $ $ $ $ $ $ $ $ $ $ 9.{.! N O $ $ $ $ $ $ $ $ $ $ $ $ $ $ $ $ $ $ $ . . ",
". . $ $ $ $ $ $ $ $ $ $ $ $ $ $ $ $ $ $ $ $ 0.a.b.$ $ $ $ $ $ $ $ $ $ $ $ $ $ $ $ $ $ $ $ . . ",
". . $ $ $ $ $ $ $ $ $ $ $ $ $ $ $ $ $ $ $ $ $ c.$ $ $ $ $ $ $ $ $ $ $ $ $ $ $ $ $ $ $ $ $ . . ",
". . $ $ $ $ $ $ $ $ $ $ $ $ 5 d.e.$ $ f.9.8 $ $ $ %.F %.$ $ g. .$ $ $ $ $ $ $ $ $ $ $ $ $ . . ",
". . $ $ $ $ $ $ $ $ $ $ $ h.i.! L j.k.^.! <.l.$ m.s ! s , n.! ! w 5 $ $ $ $ $ $ $ $ $ $ $ . . ",
". . $ $ $ $ $ $ $ $ $ $ $ j.! ! ! o.p.! ! ! q.$ y ! ! ! ) 5.! ! ! r.$ $ $ $ $ $ $ $ $ $ $ . . ",
". . $ $ $ $ $ $ $ $ $ $ $ s.! ! ! ! ! ! ! ! ) $ t.! ! ! ! ! ! ! ! } $ $ $ $ $ $ $ $ $ $ $ . . ",
". . $ $ $ $ $ $ $ $ $ $ $ u.f ! ! ! ! ! ! ! 6 $ v.! ! ! ! ! ! ! s [ $ $ $ $ $ $ $ $ $ $ $ . . ",
". . $ $ $ $ $ $ $ $ $ $ $ $ w.! ! ! ! ! ! x.$ $ - y.! ! ! ! ! L z.$ $ $ $ $ $ $ $ $ $ $ $ . . ",
". . $ $ $ $ $ $ $ $ $ $ $ $ $ A.! ! ! ! y n $ $ $ %.t ! ! ! ! B.$ $ $ $ $ $ $ $ $ $ $ $ $ . . ",
". . $ $ $ $ $ $ $ $ $ $ $ $ $ $ q.! ! $.%.$ $ $ $ $ _.C.! ! =.$ $ $ $ $ $ $ $ $ $ $ $ $ $ . . ",
". . $ $ $ $ $ $ $ $ $ $ $ $ $ $ @.D.E.F.$ $ $ $ $ $ $ G.H.I.$ $ $ $ $ $ $ $ $ $ $ $ $ $ $ . . ",
". . $ $ $ $ $ $ $ $ $ $ $ $ $ $ $ 8 J.$ $ $ 8 d n $ $ $ K.n $ $ $ $ $ $ $ $ $ $ $ $ $ $ $ . . ",
". . $ $ $ $ $ $ $ $ $ $ $ $ $ $ $ $ $ $ $ @.B ! I.$ $ $ $ $ $ $ $ $ $ $ $ $ $ $ $ $ $ $ $ . . ",
". . $ $ $ $ $ $ $ $ $ $ $ $ $ $ $ $ $ $ $ :.! ! ! a $ $ $ $ $ $ $ $ $ $ $ $ $ $ $ $ $ $ $ . . ",
". . $ $ $ $ $ $ $ $ $ $ $ $ $ $ $ $ $ $ =.! ! ! ! ! 4 $ $ $ $ $ $ $ $ $ $ $ $ $ $ $ $ $ $ . . ",
". . $ $ $ $ $ $ $ $ $ $ $ $ $ $ $ $ $ 1 ! ! ! ! ! ! L F $ $ $ $ $ $ $ $ $ $ $ $ $ $ $ $ $ . . ",
". . $ $ $ $ $ $ $ $ $ $ $ $ $ $ $ $ 8 E ! ! ! ! ! ! ! L.$ $ $ $ $ $ $ $ $ $ $ $ $ $ $ $ $ . . ",
". . $ $ $ $ $ $ $ $ $ $ $ $ $ $ $ $ M.! ! ! ! g ! ! ! ! N.$ $ $ $ $ $ $ $ $ 8 O.c.$ $ $ $ . . ",
". . $ $ $ $ $ $ $ $ $ $ $ $ $ $ $ $ P R ! ! N P.f ! ! ] $ $ $ $ $ $ $ $ $ P Q.! R.o $ $ $ . . ",
". . $ $ $ $ $ $ $ $ $ $ $ $ $ $ $ $ $ e w S.} $ w.<.T.'.$ $ $ $ $ $ $ $ $ Q ! ! ! U.f.$ $ . . ",
". . $ $ $ $ $ $ $ $ $ $ $ $ $ $ $ $ $ $ $ $ $ $ $ $ $ $ $ $ $ $ $ $ $ $ V.! ! ! ! ! W.$ $ . . ",
". . $ $ $ $ $ $ $ $ $ $ $ $ $ $ $ $ &.$ $ $ $ $ $ $ $ $ &.$ $ $ $ $ $ $ G.{.! s.p ! X.$ $ . . ",
". . $ $ $ $ $ $ $ $ $ $ $ $ $ $ $ #.$.%.$ $ $ $ $ $ $ &.*.=.$ $ $ $ $ $ $ K.7.$ S Y.$ $ $ . . ",
". . $ $ $ $ $ $ $ $ $ $ $ $ $ $ A ! ! X n $ $ $ $ $ Y Z ! ! ` $ $ $ $ $ $ $ $ $ $ $ $ $ $ . . ",
". . $ $ $ $ $ $ $ $ $ $ $ $ $ T ! ! ! ! U $ $ $ $ n ) ! ! ! L i $ $ $ $ $ h Z w w Z.$ $ $ . . ",
". . $ $ $ $ $ $ $ $ $ $ $ $ K L ! ! ! ! ! M $ $ 5 u ! ! ! ! ! N O $ $ $ `.5.! ! ! !  +$ $ . . ",
". . $ $ $ $ $ $ $ $ $ $ $ C p ! ! ! ! ! ! ! D $ } ! ! ! ! ! ! ! E 8 $ $ x ! /.,.D ! .+$ $ . . ",
". . $ $ $ $ $ $ $ $ $ $ $ A ! ! ! ! ! ! ! ! B $ t ! ! ! ! ! ! ! ! 7 $ $ x ! ~.$ g.! .+$ $ . . ",
". . $ $ $ $ $ $ $ $ $ $ $ r ! ! ! s t ! ! ! u $ v ! ! ! w g ! ! ! x $ $ ++f 5.@+6.! q.$ $ . . ",
". . $ $ $ $ $ $ $ $ $ $ $ b c ! ! d e f ! g h $ i j ! j k l ! ! m n $ $ M.j N 5.#+! $+$ $ . . ",
". . $ $ $ $ $ $ $ $ $ $ $ $ [ } | $ $ : 1 2 $ $ $ 3 4 3 $ 5 6 7 8 $ $ $ x ! ~.$ g.! .+$ $ . . ",
". . $ $ $ $ $ $ $ $ $ $ $ $ $ $ $ $ $ $ $ $ $ $ $ $ $ $ $ $ $ $ $ $ $ $ x ! %+Y 4.! .+$ $ . . ",
". . $ $ $ $ $ $ $ $ $ $ $ $ $ $ $ $ $ $ $ $ $ $ $ $ $ $ $ $ $ $ $ $ $ $ k 8.! ! ! ! &+$ $ . . ",
". . $ $ $ $ $ $ $ $ $ $ $ $ $ $ $ $ $ $ $ $ $ $ $ $ $ $ $ $ $ $ $ $ $ $ $ m.G *+*+=+$ $ = . . ",
"  . * $ $ $ $ $ $ $ $ $ $ $ $ $ $ $ $ $ $ $ $ $ $ $ $ $ $ $ $ $ $ $ $ $ $ $ $ $ $ $ $ $ -+.   ",
"  . ;+>+= $ $ $ $ $ $ $ $ $ $ $ $ $ $ $ $ $ $ $ $ $ $ $ $ $ $ $ $ $ $ $ $ $ $ $ $ $ = >++ .   ",
"    . . . . . . . . . . . . . . . . . . . . . . . . . . . . . . . . . . . . . . . . . . .     ",
"        . . . . . . . . . . . . . . . . . . . . . . . . . . . . . . . . . . . . . . .         "};
