/* XPM */
static const char* hearts9_xpm[] = {
"47 62 184 2",
"  	c None",
". 	c #000000",
"+ 	c #2A2A2A",
"@ 	c #B0B0B0",
"# 	c #FCFCFC",
"$ 	c #FFFFFF",
"% 	c #B2B2B2",
"& 	c #FDFDFD",
"* 	c #FFFBFB",
"= 	c #FBB9C4",
"- 	c #FBB7C3",
"; 	c #FDDFE4",
"> 	c #F6637C",
", 	c #F21A3F",
"' 	c #F32B4D",
") 	c #FDD5DC",
"! 	c #FFFDFD",
"~ 	c #FDD7DD",
"{ 	c #FFFEFE",
"] 	c #FDE4E8",
"^ 	c #FEF0F2",
"/ 	c #FEEEF1",
"( 	c #FEE6EA",
"_ 	c #FBBCC7",
": 	c #F54A68",
"< 	c #F88599",
"[ 	c #F7768D",
"} 	c #F65F79",
"| 	c #FDD3DA",
"1 	c #F43959",
"2 	c #F43E5D",
"3 	c #FEF1F3",
"4 	c #F88A9D",
"5 	c #F21D41",
"6 	c #F22246",
"7 	c #F98EA0",
"8 	c #F22145",
"9 	c #F8899C",
"0 	c #FEF2F4",
"a 	c #FBBBC6",
"b 	c #F88296",
"c 	c #F65E78",
"d 	c #F76F87",
"e 	c #F7768C",
"f 	c #F22044",
"g 	c #F21F44",
"h 	c #F7778D",
"i 	c #F55470",
"j 	c #F99AAB",
"k 	c #F8889C",
"l 	c #F54D6A",
"m 	c #FDD6DC",
"n 	c #FEF5F7",
"o 	c #F5536E",
"p 	c #FAA3B1",
"q 	c #F54966",
"r 	c #F44563",
"s 	c #FAA6B4",
"t 	c #FAA3B2",
"u 	c #FAA2B1",
"v 	c #F98FA1",
"w 	c #F65C77",
"x 	c #F32649",
"y 	c #FCD2D9",
"z 	c #F3274A",
"A 	c #F65A74",
"B 	c #FEF6F7",
"C 	c #F54E6B",
"D 	c #F21E43",
"E 	c #FBC1CB",
"F 	c #FCC6D0",
"G 	c #FBBDC8",
"H 	c #F44462",
"I 	c #F76A82",
"J 	c #F6617A",
"K 	c #F44261",
"L 	c #F21B40",
"M 	c #FAAEBB",
"N 	c #FBB8C4",
"O 	c #F43A5A",
"P 	c #FEECEF",
"Q 	c #F76E86",
"R 	c #F33153",
"S 	c #FDDDE2",
"T 	c #FEE9EC",
"U 	c #F43858",
"V 	c #F998A8",
"W 	c #FAA8B6",
"X 	c #F33051",
"Y 	c #FDE0E5",
"Z 	c #FCC7D0",
"` 	c #FCC6CF",
" .	c #FEE8EB",
"..	c #FEEFF1",
"+.	c #FAAAB7",
"@.	c #FFF8F9",
"#.	c #FCCCD4",
"$.	c #FBB1BD",
"%.	c #F993A5",
"&.	c #FDE3E8",
"*.	c #F991A3",
"=.	c #F43C5C",
"-.	c #FEEAEE",
";.	c #FDD8DF",
">.	c #FEE5E9",
",.	c #FEE7EB",
"'.	c #F43D5C",
").	c #F21E42",
"!.	c #F32447",
"~.	c #F992A4",
"{.	c #F32347",
"].	c #FEF3F5",
"^.	c #F77087",
"/.	c #F7788E",
"(.	c #F54C69",
"_.	c #FAA1B0",
":.	c #F44362",
"<.	c #FFFAFA",
"[.	c #F65873",
"}.	c #FCCFD7",
"|.	c #F32548",
"1.	c #F54B68",
"2.	c #FCC3CD",
"3.	c #F4415F",
"4.	c #FBB5C1",
"5.	c #FCCBD3",
"6.	c #FEEDF0",
"7.	c #F99BAB",
"8.	c #FAA7B5",
"9.	c #F8889B",
"0.	c #F32F50",
"a.	c #F33253",
"b.	c #F32C4E",
"c.	c #FFFCFD",
"d.	c #F43556",
"e.	c #F43656",
"f.	c #F996A7",
"g.	c #F999A9",
"h.	c #F76B83",
"i.	c #F6667F",
"j.	c #FFFBFC",
"k.	c #F65D77",
"l.	c #F5536F",
"m.	c #FFF9FA",
"n.	c #F43B5B",
"o.	c #F99DAD",
"p.	c #FFF7F8",
"q.	c #F5506C",
"r.	c #FAADBA",
"s.	c #F21C41",
"t.	c #FCC8D1",
"u.	c #F65B75",
"v.	c #F7798F",
"w.	c #F77289",
"x.	c #F32D4F",
"y.	c #FDDBE1",
"z.	c #F77A90",
"A.	c #F33354",
"B.	c #F87F93",
"C.	c #F88699",
"D.	c #F99CAC",
"E.	c #F99EAE",
"F.	c #FBB4C0",
"G.	c #F997A8",
"H.	c #F87F94",
"I.	c #FEE9ED",
"J.	c #F6657E",
"K.	c #FEEBEE",
"L.	c #F88C9F",
"M.	c #FBB3BF",
"N.	c #F44664",
"O.	c #FAA9B7",
"P.	c #F76E85",
"Q.	c #FDD7DE",
"R.	c #F54F6B",
"S.	c #F7738A",
"T.	c #F98D9F",
"U.	c #FCD1D9",
"V.	c #FDD4DB",
"W.	c #FEFEFE",
"X.	c #F88397",
"Y.	c #B6B6B6",
"Z.	c #2E2E2E",
"`.	c #B8B8B8",
"        . . . . . . . . . . . . . . . . . . . . . . . . . . . . . . . . . . . . . . .         ",
"    . . . . . . . . . . . . . . . . . . . . . . . . . . . . . . . . . . . . . . . . . . .     ",
"  . + @ # $ $ $ $ $ $ $ $ $ $ $ $ $ $ $ $ $ $ $ $ $ $ $ $ $ $ $ $ $ $ $ $ $ $ $ $ $ # @ + .   ",
"  . % $ $ $ $ $ $ $ $ $ $ $ $ $ $ $ $ $ $ $ $ $ $ $ $ $ $ $ $ $ $ $ $ $ $ $ $ $ $ $ $ $ % .   ",
". . & $ $ * = - - ; $ $ $ $ $ $ $ $ $ $ $ $ $ $ $ $ $ $ $ $ $ $ $ $ $ $ $ $ $ $ $ $ $ $ & . . ",
". . $ $ * > , , , ' ) $ $ ! ~ { $ $ ] ^ $ $ $ $ $ $ $ / ( $ $ { ~ ! $ $ $ $ $ $ $ $ $ $ $ . . ",
". . $ $ _ , : < [ , } $ | 1 , 2 3 4 5 6 7 $ $ $ $ $ 7 8 5 9 0 2 , 1 | $ $ $ $ $ $ $ $ $ $ . . ",
". . $ $ a , b $ ; , c $ d , , , e f , , 8 ^ $ $ $ ^ 8 , , g h , , , d $ $ $ $ $ $ $ $ $ $ . . ",
". . $ $ a , i j k , c $ l , , , , , , , , m $ $ $ m , , , , , , , , l $ $ $ $ $ $ $ $ $ $ . . ",
". . $ $ n o , , , , c $ p , , , , , , , q $ $ $ $ $ r , , , , , , , s $ $ $ $ $ $ $ $ $ $ . . ",
". . $ $ $ n t u v , c $ * w , , , , , x y $ $ $ $ $ | z , , , , , A * $ $ $ $ $ $ $ $ $ $ . . ",
". . $ $ a , b $ ; , c $ $ B C , , , D E $ $ $ $ $ $ $ F 8 , , , q n $ $ $ $ $ $ $ $ $ $ $ . . ",
". . $ $ G , H [ I , J $ $ $ 3 K , L M $ $ $ $ $ $ $ $ $ N 5 , O P $ $ $ $ $ $ $ $ $ $ $ $ . . ",
". . $ $ ! Q , , , R S $ $ $ $ T U V $ $ $ $ $ $ $ $ $ $ $ W X Y $ $ $ $ $ $ $ $ $ $ $ $ $ . . ",
". . $ $ $ ! Z ` `  .$ $ $ $ $ $ ..$ $ $ $ $ $ $ $ $ $ $ $ $ ..$ $ $ $ $ $ $ $ $ $ $ $ $ $ . . ",
". . $ $ $ ~ +.@.#.$.* $ $ $ $ $ $ $ $ $ $ $ $ $ $ $ $ $ $ $ $ $ $ $ $ $ $ $ $ $ $ $ $ $ $ . . ",
". . $ $ T D , Q g , %.$ $ $ $ $ $ $ $ $ $ $ $ $ $ $ $ $ $ $ $ $ $ $ $ $ $ $ $ $ $ $ $ $ $ . . ",
". . $ $ &.5 , , , , v $ $ $ $ $ $ $ $ $ $ $ $ $ $ $ $ $ $ $ $ $ $ $ $ $ $ $ $ $ $ $ $ $ $ . . ",
". . $ $ $ *., , , K 3 $ $ $ $ $ $ $ $ $ $ $ $ $ $ $ $ $ $ $ $ $ $ $ $ $ $ $ $ $ $ $ $ $ $ . . ",
". . $ $ $ $ k , =.-.$ $ $ { ;.$ $ $ >.3 $ $ $ $ $ $ $ ..,.$ $ $ ;.{ $ $ $ $ $ $ $ $ $ $ $ . . ",
". . $ $ $ $ $ %.( $ $ $ m '., K 0 v ).!.~.$ $ $ $ $ ~.{.).7 ].K , '.m $ $ $ $ $ $ $ $ $ $ . . ",
". . $ $ $ $ $ $ $ $ $ $ ^., , , h 8 , , 6 3 $ $ $ 3 6 , , g /., , , ^.$ $ $ $ $ $ $ $ $ $ . . ",
". . $ $ $ $ $ $ $ $ $ $ (., , , , , , , , m $ $ $ ) , , , , , , , , l $ $ $ $ $ $ $ $ $ $ . . ",
". . $ $ $ $ $ $ $ $ $ $ _., , , , , , , q $ $ $ $ $ :., , , , , , , s $ $ $ $ $ $ $ $ $ $ . . ",
". . $ $ $ $ $ $ $ $ $ $ <.[., , , , , x y $ $ $ $ $ }.|., , , , , A * $ $ $ $ $ $ $ $ $ $ . . ",
". . $ $ $ $ $ $ $ $ $ $ $ n 1., , , D E $ $ $ $ $ $ $ 2.f , , , q n $ $ $ $ $ $ $ $ $ $ $ . . ",
". . $ $ $ $ $ $ $ $ $ $ $ $ ..3., L M $ $ $ $ $ $ $ $ $ 4.5 , O P $ $ $ $ $ $ $ $ $ $ $ $ . . ",
". . $ $ $ $ $ $ $ $ $ $ $ $ $  .U V $ $ 5.j P $ 6.7.5.$ $ 8.X Y $ $ $ $ $ $ $ $ $ $ $ $ $ . . ",
". . $ $ $ $ $ $ $ $ $ $ $ $ $ $ ..$ $ 9., , 0.3 a., , 9.$ $ ..$ $ $ $ $ $ $ $ $ $ $ $ $ $ . . ",
". . $ $ $ $ $ $ $ $ $ $ $ $ $ $ $ $ <.b., , , : , , , b.<.$ $ $ $ $ $ $ $ $ $ $ $ $ $ $ $ . . ",
". . $ $ $ $ $ $ $ $ $ $ $ $ $ $ $ $ c.d., , , , , , , e.! $ $ $ $ $ $ $ $ $ $ $ $ $ $ $ $ . . ",
". . $ $ $ $ $ $ $ $ $ $ $ $ $ $ $ $ $ f., , , , , , , g.$ $ $ $ $ $ $ $ $ $ $ $ $ $ $ $ $ . . ",
". . $ $ $ $ $ $ $ $ $ $ $ $ $ $ $ $ $ { h., , , , , i.! $ $ $ $ $ $ $ $ $ $ $ $ $ $ $ $ $ . . ",
". . $ $ $ $ $ $ $ $ $ $ $ $ $ $ 0 $ $ $ j.k., , , l.m.$ $ $ 0 $ $ $ $ $ $ $ $ $ $ $ $ $ $ . . ",
". . $ $ $ $ $ $ $ $ $ $ $ $ $ -.n.o.$ $ $ p.q., :.0 $ $ $ r.a.&.$ $ $ $ $ $ $ $ $ $ $ $ $ . . ",
". . $ $ $ $ $ $ $ $ $ $ $ $ 0 r , s.$.$ $ $ 0 J  .$ $ $ a )., '.6.$ $ $ $ $ $ $ $ $ $ $ $ . . ",
". . $ $ $ $ $ $ $ $ $ $ $ p.q., , , g 2.$ $ $ $ $ $ $ t.6 , , , : n $ $ $ $ $ $ $ $ $ $ $ . . ",
". . $ $ $ $ $ $ $ $ $ $ j.k., , , , , x | $ $ $ $ $ | z , , , , , u.j.$ $ $ $ $ $ $ $ $ $ . . ",
". . $ $ $ $ $ $ $ $ $ $ p , , , , , , , q $ $ $ $ $ r , , , , , , , s $ $ $ $ $ $ $ $ $ $ . . ",
". . $ $ $ $ $ $ $ $ $ $ l , , , , , , , , m $ $ $ m , , , , , , , , l $ $ $ $ $ $ $ $ $ $ . . ",
". . $ $ $ $ $ $ $ $ $ $ d , , , e f , , 8 ^ $ $ $ ^ 8 , , g h , , , d $ $ $ $ $ $ $ $ $ $ . . ",
". . $ $ $ $ $ $ $ $ $ $ | 1 , 2 3 4 5 6 7 $ $ $ $ $ 7 8 5 9 0 2 , 1 | $ $ $ ! v.| $ $ $ $ . . ",
". . $ $ $ $ $ $ $ $ $ $ $ ! ~ { $ $ ] ^ $ $ $ $ $ $ $ / ( $ $ { ~ ! $ $ $ { w., x.y.$ $ $ . . ",
". . $ $ $ $ $ $ $ $ $ $ $ $ $ $ $ $ $ $ $ $ $ $ $ $ $ $ $ $ $ $ $ $ $ $ $ z., , , A.,.$ $ . . ",
". . $ $ $ $ $ $ $ $ $ $ $ $ $ $ $ $ $ $ $ $ $ $ $ $ $ $ $ $ $ $ $ $ $ $ Y L , , , , B.$ $ . . ",
". . $ $ $ $ $ $ $ $ $ $ $ $ $ $ $ $ $ $ $ $ $ $ $ $ $ $ $ $ $ $ $ $ $ $ 0 !., C.z , D.$ $ . . ",
". . $ $ $ $ $ $ $ $ $ $ $ $ $ $ $ $ $ $ $ $ $ $ $ $ $ $ $ $ $ $ $ $ $ $ $ -.` { >.5.$ $ $ . . ",
". . $ $ $ $ $ $ $ $ $ $ $ $ $ $ 0 $ $ $ $ $ $ $ $ $ $ $ $ $ 0 $ $ $ $ $ $ $ $ $ $ $ $ $ $ . . ",
". . $ $ $ $ $ $ $ $ $ $ $ $ $ -.n.E.$ $ $ $ $ $ $ $ $ $ $ r.A.] $ $ $ $ $ 5.l.o o *.$ $ $ . . ",
". . $ $ $ $ $ $ $ $ $ $ $ $ 0 r , s.F.$ $ $ $ $ $ $ $ $ a )., 2 ..$ $ $ ;.x , , , , G.$ $ . . ",
". . $ $ $ $ $ $ $ $ $ $ $ p.q., , , f F $ $ $ $ $ $ $ t.6 , , , l p.$ $ F., H.I.` , J.$ $ . . ",
". . $ $ $ $ $ $ $ $ $ $ j.k., , , , , z ~ $ $ $ $ $ | z , , , , , } c.$ F., 9 $ K.L.M.$ $ . . ",
". . $ $ $ $ $ $ $ $ $ $ t , , , , , , , 1.$ $ $ $ $ N., , , , , , , O.$ F., !.0.0.P.c.$ $ . . ",
". . $ $ $ $ $ $ $ $ $ $ C , , , , , , , , Q.$ $ $ ~ , , , , , , , , R.$ F., f z x , b $ $ . . ",
". . $ $ $ $ $ $ $ $ $ $ P., , , w.g , , f ..$ $ $ ..f , , D S., , , P.$ F., 9 $ Q., J.$ $ . . ",
". . $ $ $ $ $ $ $ $ $ $ y 1 , '.3 9 5 6 7 $ $ $ $ $ T.8 5 k 0 2 , 1 y $ F., C.@.U., J.$ $ . . ",
". . $ $ $ $ $ $ $ $ $ $ $ ! ~ { $ $ ] ^ $ $ $ $ $ $ $ / ( $ $ { ~ ! $ $ V.8 , , , , 7 $ $ . . ",
". . W.$ $ $ $ $ $ $ $ $ $ $ $ $ $ $ $ $ $ $ $ $ $ $ $ $ $ $ $ $ $ $ $ $ $ E r H H X.$ $ W.. . ",
"  . Y.$ $ $ $ $ $ $ $ $ $ $ $ $ $ $ $ $ $ $ $ $ $ $ $ $ $ $ $ $ $ $ $ $ $ $ $ $ $ $ $ $ Y..   ",
"  . Z.`.W.$ $ $ $ $ $ $ $ $ $ $ $ $ $ $ $ $ $ $ $ $ $ $ $ $ $ $ $ $ $ $ $ $ $ $ $ $ W.`.Z..   ",
"    . . . . . . . . . . . . . . . . . . . . . . . . . . . . . . . . . . . . . . . . . . .     ",
"        . . . . . . . . . . . . . . . . . . . . . . . . . . . . . . . . . . . . . . .         "};
