/* XPM */
static const char* rotate1_xpm[] = {
"34 70 562 2",
"  	c None",
". 	c #000000",
"+ 	c #080808",
"@ 	c #1B1B1B",
"# 	c #4D4D4D",
"$ 	c #9C9C9C",
"% 	c #B4B4B4",
"& 	c #666666",
"* 	c #202020",
"= 	c #404040",
"- 	c #929292",
"; 	c #E3E3E3",
"> 	c #FFFFFF",
", 	c #F3F3F3",
"' 	c #C9C9C9",
") 	c #383838",
"! 	c #323232",
"~ 	c #878787",
"{ 	c #DBDBDB",
"] 	c #FEF9F9",
"^ 	c #FFFCFC",
"/ 	c #F7F7F7",
"( 	c #424242",
"_ 	c #232323",
": 	c #7C7C7C",
"< 	c #D2D2D2",
"[ 	c #FCF0F0",
"} 	c #F7D1D1",
"| 	c #F2B6B5",
"1 	c #F5C6C5",
"2 	c #FAE0E0",
"3 	c #FEF8F8",
"4 	c #F9F9F9",
"5 	c #414141",
"6 	c #131313",
"7 	c #6F6F6F",
"8 	c #FDF2F1",
"9 	c #F6C8C7",
"0 	c #EE9E9C",
"a 	c #E77674",
"b 	c #E77977",
"c 	c #EB8C8A",
"d 	c #E56966",
"e 	c #EE9C9A",
"f 	c #FCF0EF",
"g 	c #3F3F3F",
"h 	c #010101",
"i 	c #616161",
"j 	c #BFBFBF",
"k 	c #FCEEED",
"l 	c #F5C4C3",
"m 	c #F0A6A4",
"n 	c #EB8D8A",
"o 	c #E97E7C",
"p 	c #E87875",
"q 	c #E56866",
"r 	c #E1524F",
"s 	c #F0AAA9",
"t 	c #EFA3A2",
"u 	c #E77371",
"v 	c #FCEBEB",
"w 	c #F8F8F8",
"x 	c #3D3D3D",
"y 	c #555555",
"z 	c #FCECEC",
"A 	c #F6CCCB",
"B 	c #ED9997",
"C 	c #E87977",
"D 	c #E97C79",
"E 	c #E97F7D",
"F 	c #E9807E",
"G 	c #E98280",
"H 	c #ED9694",
"I 	c #E87775",
"J 	c #E46361",
"K 	c #EFA6A5",
"L 	c #E56562",
"M 	c #3C3C3C",
"N 	c #AAAAAA",
"O 	c #FCEFEF",
"P 	c #F4C0BF",
"Q 	c #EC908E",
"R 	c #E77775",
"S 	c #EA8987",
"T 	c #E87B79",
"U 	c #EC918F",
"V 	c #EA8583",
"W 	c #EA8785",
"X 	c #E46563",
"Y 	c #E04B48",
"Z 	c #E56A68",
"` 	c #E04E4B",
" .	c #E15653",
"..	c #FBEAEA",
"+.	c #3A3A3A",
"@.	c #393939",
"#.	c #8E8E8E",
"$.	c #FAE4E3",
"%.	c #F2B5B3",
"&.	c #EC8F8D",
"*.	c #EB8E8C",
"=.	c #EB8A88",
"-.	c #EF9F9D",
";.	c #E77875",
">.	c #ED9594",
",.	c #E87976",
"'.	c #E77471",
").	c #E87C7A",
"!.	c #E15452",
"~.	c #E46663",
"{.	c #E66E6C",
"].	c #E25A57",
"^.	c #FCECEB",
"/.	c #FAE2E1",
"(.	c #F2B4B3",
"_.	c #ED9A98",
":.	c #EA8684",
"<.	c #E97D7B",
"[.	c #E98481",
"}.	c #ED9695",
"|.	c #EC8F8E",
"1.	c #E77473",
"2.	c #E6706E",
"3.	c #EA8482",
"4.	c #EC9493",
"5.	c #E56764",
"6.	c #E56B68",
"7.	c #E35E5B",
"8.	c #EC9492",
"9.	c #E35D5B",
"0.	c #FCEDED",
"a.	c #373737",
"b.	c #8D8D8D",
"c.	c #FAE1E1",
"d.	c #F3B8B7",
"e.	c #EE9E9D",
"f.	c #E87876",
"g.	c #EB8D8B",
"h.	c #E87A77",
"i.	c #E66D6B",
"j.	c #E98381",
"k.	c #EFA09F",
"l.	c #E35C59",
"m.	c #EB8987",
"n.	c #F1ACAB",
"o.	c #F4BEBD",
"p.	c #E87D7C",
"q.	c #E9817F",
"r.	c #E56967",
"s.	c #E3605E",
"t.	c #FCEEEE",
"u.	c #353535",
"v.	c #E7E7E7",
"w.	c #FBE7E6",
"x.	c #E67270",
"y.	c #E77573",
"z.	c #E87A78",
"A.	c #E56563",
"B.	c #EE9B99",
"C.	c #EFA19F",
"D.	c #F3B9B8",
"E.	c #E35F5C",
"F.	c #EA8584",
"G.	c #F5C7C6",
"H.	c #F4C3C2",
"I.	c #F2B8B6",
"J.	c #F0A8A7",
"K.	c #E56664",
"L.	c #EC9391",
"M.	c #E56765",
"N.	c #343434",
"O.	c #EB8B89",
"P.	c #E6706D",
"Q.	c #E87C79",
"R.	c #E87674",
"S.	c #EE9A99",
"T.	c #F2B0AF",
"U.	c #EA8280",
"V.	c #F8D8D7",
"W.	c #F3BAB8",
"X.	c #E67371",
"Y.	c #F4BEBE",
"Z.	c #F1AEAD",
"`.	c #EC9290",
" +	c #F6CCCC",
".+	c #F5C9C7",
"++	c #ED9493",
"@+	c #EFA1A0",
"#+	c #FDF1F1",
"$+	c #EC918E",
"%+	c #E66F6C",
"&+	c #F1ABA9",
"*+	c #F0A9A7",
"=+	c #F4BDBD",
"-+	c #EFA3A1",
";+	c #F4BDBC",
">+	c #F2B3B2",
",+	c #F6CAC9",
"'+	c #E4615F",
")+	c #ED9998",
"!+	c #F8D7D6",
"~+	c #EC9291",
"{+	c #EB8886",
"]+	c #313131",
"^+	c #E15250",
"/+	c #E25957",
"(+	c #EC8E8C",
"_+	c #E66B69",
":+	c #F5C3C2",
"<+	c #F6CDCC",
"[+	c #F5C5C5",
"}+	c #F5C2C2",
"|+	c #E66F6D",
"1+	c #E66E6B",
"2+	c #FBE5E5",
"3+	c #EA8281",
"4+	c #F5C5C4",
"5+	c #F0A7A6",
"6+	c #E56865",
"7+	c #E35E5C",
"8+	c #FDF2F2",
"9+	c #2F2F2F",
"0+	c #E56B69",
"a+	c #F4BDBB",
"b+	c #F1AFAF",
"c+	c #EEA09E",
"d+	c #F0A9A8",
"e+	c #E87E7B",
"f+	c #F8D5D4",
"g+	c #EE9D9C",
"h+	c #F4C2C0",
"i+	c #F3BCBB",
"j+	c #F3B7B6",
"k+	c #E46562",
"l+	c #E25855",
"m+	c #FDF3F3",
"n+	c #2E2E2E",
"o+	c #EFA4A3",
"p+	c #E6726F",
"q+	c #F5CAC9",
"r+	c #F1B2B1",
"s+	c #E1514E",
"t+	c #F5C8C7",
"u+	c #F6C9C9",
"v+	c #ED9391",
"w+	c #E56A67",
"x+	c #ED9896",
"y+	c #FDF5F4",
"z+	c #2C2C2C",
"A+	c #E9807D",
"B+	c #E46260",
"C+	c #F1ABAA",
"D+	c #F1ADAB",
"E+	c #F2B1B0",
"F+	c #E9827F",
"G+	c #EFA5A4",
"H+	c #FAE3E2",
"I+	c #EFA09E",
"J+	c #F3BDBC",
"K+	c #EB8F8D",
"L+	c #FDF6F6",
"M+	c #2A2A2A",
"N+	c #E9807F",
"O+	c #F3BBBA",
"P+	c #EE9F9E",
"Q+	c #F0ABA9",
"R+	c #F5C7C5",
"S+	c #EEA09F",
"T+	c #FAE2E2",
"U+	c #F0A8A6",
"V+	c #F7CDCD",
"W+	c #EA8381",
"X+	c #F5C2C1",
"Y+	c #E7716F",
"Z+	c #FBE5E4",
"`+	c #E46461",
" @	c #FEF7F7",
".@	c #292929",
"+@	c #ED9795",
"@@	c #E97F7C",
"#@	c #F6CAC8",
"$@	c #E14F4C",
"%@	c #F2B2B1",
"&@	c #F3B6B5",
"*@	c #E77572",
"=@	c #F4C2C1",
"-@	c #F5C4C4",
";@	c #F1AFAE",
">@	c #ED9593",
",@	c #FEF8F7",
"'@	c #272727",
")@	c #E77774",
"!@	c #F5C9C8",
"~@	c #F1ACAA",
"{@	c #E25B58",
"]@	c #ED9897",
"^@	c #F8D5D5",
"/@	c #EFA2A0",
"(@	c #F0A7A5",
"_@	c #F7CFCF",
":@	c #EFA4A2",
"<@	c #E4605D",
"[@	c #EE9897",
"}@	c #E25754",
"|@	c #262626",
"1@	c #E35C5A",
"2@	c #E66D6A",
"3@	c #F4BFBE",
"4@	c #EA8886",
"5@	c #E35D5A",
"6@	c #FEFAF9",
"7@	c #242424",
"8@	c #EA8A88",
"9@	c #F0A5A3",
"0@	c #F7D1D0",
"a@	c #EFA6A4",
"b@	c #F5C7C7",
"c@	c #FADFDF",
"d@	c #F3BAB9",
"e@	c #F2B5B4",
"f@	c #EE9B9A",
"g@	c #E66C69",
"h@	c #EE9998",
"i@	c #E35B58",
"j@	c #FEFBFB",
"k@	c #222222",
"l@	c #EC9392",
"m@	c #F3BDBB",
"n@	c #EC908F",
"o@	c #EFA5A3",
"p@	c #F4BFBF",
"q@	c #E45F5C",
"r@	c #FEFCFC",
"s@	c #212121",
"t@	c #EA8986",
"u@	c #E7706E",
"v@	c #F3B9B7",
"w@	c #EC8D8C",
"x@	c #F4C1C0",
"y@	c #F5C6C6",
"z@	c #F4C2C2",
"A@	c #EFA7A6",
"B@	c #ED9392",
"C@	c #FFFDFD",
"D@	c #1F1F1F",
"E@	c #F4C0BE",
"F@	c #F5C2C0",
"G@	c #F6C9C8",
"H@	c #EC8D8B",
"I@	c #FADFDE",
"J@	c #F7D2D1",
"K@	c #F1AEAC",
"L@	c #E46664",
"M@	c #EB8D8C",
"N@	c #E25956",
"O@	c #FFFEFE",
"P@	c #1E1E1E",
"Q@	c #E98180",
"R@	c #EFA2A1",
"S@	c #F4C0C0",
"T@	c #E46360",
"U@	c #F5C3C1",
"V@	c #EA8582",
"W@	c #F9DBDB",
"X@	c #F8D3D2",
"Y@	c #F2B4B2",
"Z@	c #F2B2B0",
"`@	c #E4625F",
" #	c #1C1C1C",
".#	c #F4C1BF",
"+#	c #E97C7A",
"@#	c #E6716F",
"##	c #E87D7B",
"$#	c #1A1A1A",
"%#	c #F1B0AE",
"&#	c #E77472",
"*#	c #F6CBCA",
"=#	c #F4C4C3",
"-#	c #F4BCBB",
";#	c #E56663",
">#	c #191919",
",#	c #F1ADAC",
"'#	c #F0AAA8",
")#	c #F3BCBA",
"!#	c #F6C7C6",
"~#	c #F6CFCE",
"{#	c #F6CDCD",
"]#	c #E4615E",
"^#	c #171717",
"/#	c #E77270",
"(#	c #F0ABAA",
"_#	c #FAE5E5",
":#	c #E46866",
"<#	c #E77370",
"[#	c #FBE7E7",
"}#	c #F0ADAC",
"|#	c #E66B68",
"1#	c #161616",
"2#	c #EE9C99",
"3#	c #F7CECD",
"4#	c #E25350",
"5#	c #F8D8D8",
"6#	c #EB8F8E",
"7#	c #F7CFCE",
"8#	c #F2B6B4",
"9#	c #E56462",
"0#	c #EE9D9B",
"a#	c #141414",
"b#	c #E7726F",
"c#	c #E77574",
"d#	c #EE9A98",
"e#	c #E87673",
"f#	c #F6C6C6",
"g#	c #EE9997",
"h#	c #FAE4E4",
"i#	c #F4C5C4",
"j#	c #121212",
"k#	c #EF9F9E",
"l#	c #F3BEBD",
"m#	c #E98482",
"n#	c #E35F5D",
"o#	c #111111",
"p#	c #E77271",
"q#	c #F4C1C1",
"r#	c #E87E7C",
"s#	c #F6F6F6",
"t#	c #0F0F0F",
"u#	c #EA817F",
"v#	c #F8D9D8",
"w#	c #F9DFDF",
"x#	c #EFA7A5",
"y#	c #E3605D",
"z#	c #FDF1F0",
"A#	c #E3615E",
"B#	c #F4F4F4",
"C#	c #0E0E0E",
"D#	c #F3BEBC",
"E#	c #EC908D",
"F#	c #EC9593",
"G#	c #F7D3D3",
"H#	c #F0A6A5",
"I#	c #0C0C0C",
"J#	c #E56C69",
"K#	c #F8D4D3",
"L#	c #F0ACAB",
"M#	c #FEFEFE",
"N#	c #F1F1F1",
"O#	c #0A0A0A",
"P#	c #E77673",
"Q#	c #F3B7B5",
"R#	c #E97E7D",
"S#	c #F0F0F0",
"T#	c #090909",
"U#	c #F9DFDE",
"V#	c #F1B1B0",
"W#	c #E87774",
"X#	c #F1AFAD",
"Y#	c #E46462",
"Z#	c #EEEEEE",
"`#	c #070707",
" $	c #FBE3E2",
".$	c #E6716E",
"+$	c #EC9795",
"@$	c #EDEDED",
"#$	c #060606",
"$$	c #F3B6B6",
"%$	c #F6D0CF",
"&$	c #F6CBCB",
"*$	c #EBEBEB",
"=$	c #040404",
"-$	c #EE9F9D",
";$	c #EB8986",
">$	c #F4BCBC",
",$	c #F3B8B6",
"'$	c #E9E9E9",
")$	c #020202",
"!$	c #E97D7A",
"~$	c #ED9492",
"{$	c #EB8A89",
"]$	c #E45F5D",
"^$	c #EB908E",
"/$	c #E8E8E8",
"($	c #F2B1AF",
"_$	c #E66A68",
":$	c #E6E6E6",
"<$	c #EB8C8B",
"[$	c #F1AAA9",
"}$	c #EE9C9B",
"|$	c #F6C8C6",
"1$	c #F6CECD",
"2$	c #EB8785",
"3$	c #E5E5E5",
"4$	c #F1B0AF",
"5$	c #E87B78",
"6$	c #EA8683",
"7$	c #F8D3D3",
"8$	c #F9DEDD",
"9$	c #EB8988",
"0$	c #E1E1E1",
"a$	c #F3B8B8",
"b$	c #E0E0E0",
"c$	c #F9DCDB",
"d$	c #F7D0D0",
"e$	c #DEDEDE",
"f$	c #FAE6E6",
"g$	c #DDDDDD",
"h$	c #E25856",
"i$	c #ED9794",
"j$	c #F2B3B1",
"k$	c #F4C3C1",
"l$	c #F9DDDD",
"m$	c #EC9594",
"n$	c #E87675",
"o$	c #EB8B8A",
"p$	c #F3BBB9",
"q$	c #F7D0CF",
"r$	c #EA8481",
"s$	c #FBE8E8",
"t$	c #D9D9D9",
"u$	c #EA8784",
"v$	c #E87D7A",
"w$	c #FAE0DF",
"x$	c #F1AAA8",
"y$	c #D8D8D8",
"z$	c #B6B6B6",
"A$	c #F3B9B9",
"B$	c #EC9190",
"C$	c #E66C6A",
"D$	c #EF9E9C",
"E$	c #D6D6D6",
"F$	c #A9A9A9",
"G$	c #D5D5D5",
"H$	c #FDFDFD",
"I$	c #D3D3D3",
"J$	c #717171",
"K$	c #C6C6C6",
"L$	c #F8D6D5",
"M$	c #E04C49",
"N$	c #E04D4A",
"O$	c #F9DBDA",
"P$	c #E25653",
"Q$	c #D0D0D0",
"R$	c #797979",
"S$	c #CECECE",
"T$	c #252525",
"U$	c #838383",
"V$	c #DFDFDF",
"W$	c #FBE6E6",
"X$	c #CDCDCD",
"Y$	c #8C8C8C",
"Z$	c #CBCBCB",
"`$	c #3E3E3E",
" %	c #959595",
".%	c #EAEAEA",
"+%	c #494949",
"@%	c #9D9D9D",
"#%	c #EFEFEF",
"$%	c #FCFCFC",
"%%	c #A8A8A8",
"&%	c #545454",
"*%	c #A4A4A4",
"=%	c #5F5F5F",
"                                                                    ",
"                                                      . . . + @     ",
"                                                  . . . # $ % & *   ",
"                                            . . . = - ; > > , ' )   ",
"                                      . . . ! ~ { > > > ] ^ > / (   ",
"                                . . . _ : < > > > [ } | 1 2 3 4 5   ",
"                            . . 6 7 ' > > > 8 9 0 a b c d e f 4 g   ",
"                      . . h i j > > > k l m n o p q r s t u v w x   ",
"                . . . y % > > > z A B C D E F G H I J K u L v w M   ",
"            . . y N > > > O P Q R S I T U c e V W X Y Z `  ...w +.  ",
"      . . @.#.; > > $.%.&.*.o C F =.-.;.>.,.'.).Z c !.~.{.].^.w @.  ",
"    @.#.; > > /.(._.:.C <.=.[.}.|.G 1.2.F =.3.4.5.6.7.8.H 9.0.w a.  ",
"  b.> > c.d.e.<.f.p c g.&.0 h.i.j.C k.l.m.n.o.p.i.q.r.H >.s.t.w u.  ",
"  v.w._.x.<.G 8.&.U :.y.z.A.B.5.C.D.m.E.F.G.H.I.U J.K.L.U M.[ w N.  ",
". > O.m.).:.=.q.P.Q.S R.S.T.:.A.U.V.W.X.Y.Z.`. +.+++J @+H r.#+w !   ",
". > V }.A.).{.$+%+&+*+K.8.A =+U.l -+;+>+,+'.'+)+!+~+Z {+=.l.#+w ]+  ",
". > ^+/+(+Q D.y._+:+<+8.1 ,.[+}+0 |+1+2+>+q.3+4+S 5+6+@+U 7+8+w 9+  ",
". > |+E 0+)+a+:+)+b+c+,+d+/+e+f+g+h.h+h.i+j+D.0 a C k+&.=.l+m+w n+  ",
". > q.S o+9 R ;+l u p+q+r+s+<+V i+t+*+6+L.u+t+v+u V w+x+U 7.y+w z+  ",
". > A+O.)+e B+C+D+d+E+F+E+} G+u Q H+I+M.C.j+5+J+W j+q e K+5.L+w M+  ",
". > N+3.-+O+P+Q+I R+4+u S+T+U+C h+B.V+W+X+3.Y+d+Z+R.`+U `.5. @w .@  ",
". > o |.a B l +@@@O+1 3.#@$@;+%@x+{.i.k &@u *@=@-@;@r.e.>@7.,@w '@  ",
". > )@E W d.%@!@~@++).t+*.{@]@^@/@q.j+(@_@U+U+i+F.:@<@[@`.}@3 w |@  ",
". > G g.B.Z.1@n.4+U.~+!@G.2@4++@l 3@:+k+@+4+P 4@6+5@7.x+>.}@6@w 7@  ",
". > G 8@9@0@a@b@I+O+o.T D.o.:@w+E c@z.1@q.d@e@f@g@D+d h@>.i@j@w k@  ",
". > F 4@l@I+:+~+Z m@j.r.n@1 o@r.9 :@V.r.p@I+++=+W._.q@L.c 6+r@w s@  ",
". > E t@u@c v@o@w@D.u+B x@L D.;+/@q.U 2 y@f.y.z@T+c B+A@B@g@C@/ D@  ",
". > F 4@(.E@Q F@G@4@H@I@;@l.~@/.`.F 8.J@-@m.O.o.o+K@L@M@=.N@O@/ P@  ",
". > Q@<.R@S@).;+&@x+o@;+o.T@U@V@W@x+X@N@Z.Y@Z@)+q 3.`@t M@7.> /  #  ",
". > D '.5+o..#o@+#e@K q )+J@O.J @#T+T 7+##=@;+4@g@Q.`+++=.5@> / $#  ",
". > q.T Z S O+8@Z =@%#u >+d.d@&#:+*#=#{.m@O+&@-#`.s ;#)+g.k+> / >#  ",
". > T &#g+P ,#9 '#;@)#s !#;#1 D.x@W &@v@~#U.F 4+{#4.]#c+g.2@> / ^#  ",
". > F /#_.;@{.(#4+h.E _#O.N@:.z r.:#<#[#*+M.d }#0@j.]#L.g.|#> / 1#  ",
". > F+a o+O+f@t+2#s A g.3#4#A N+5#6#7#%+l R@5+W.o 8#9#0#~+J > / a#  ",
". > F b#c#)+1 d#e#f#5+*@(@T+@+Y+g#h#g+5.]@3#i#8.u z.9.f@K+'+> / j#  ",
". > q.'.S d+O+d+G i+>+<.;@P '#&#m J@a@6+k#-@l#B &#m#n#x+K+T@> / o#  ",
". > F p#_.i+*.D.,#L.J.K@j+r )#C.q#r#z@n t+*._.X+g.i#5.0 L.d > s#t#  ",
". > u#R.9@x@G l#3@g.W+v#I+i@0 w###i.,.0.x#y#7.s z#A#y#Q m.<#> B#C#  ",
". > z.@#U b+d@D#H O+3@U 1 u#4+0 z@S.=@S+J@E#F#G#d@~@B+H#g./#> , I#  ",
". > ).y.<#M@(.y.r.O+d#|#0#f+e.J#9@K#C+k+n.y@t+L#f.K K.(+4@w+M#N#O#  ",
". > F P#G+o.-+a+H@Q#X+2.d.I+m ;#I+,+g.7.R#4+>+u X T@`@@+=.d M#S#T#  ",
". > E /#t x@z.O+,+V m.U#V#`@&@s d@&.!@W#=@9@| n.6+X#Y#L.W d M#Z#`#  ",
". > j.h.,#E@H#:+e@d#e.c@'#E.r+c.Q E U  $J+.$z.:+G.+$A.+@W %+M#@$#$  ",
". > r#x.r.P.%.=.).e@$$I %$Y+H.`.i+g.X#:+l I <.&$T+m#B+0 O.T M#*$=$  ",
". > 3.a -$x@A s C x@B d ;$y+q.B+g+>$e@7.v@5+>+,$n@,#A.}.=.a M#'$)$  ",
". > !$<#S.x@q.!#(.D+d@~$,+I+>$i.d+f+{$]$C b@;@).J O.q g+^$%+M#/$h   ",
". > <.y.o@O+a d+*#|+E V.'#]#t+($3@H#l ).3@X+[+B _$z.B+g#O.i.M#:$.   ",
". > ).u &#S+O+| <$d+[$J._.N@`.k Q.a }$|$1$W e.9 _.L#`+x+2${.M#3$.   ",
". > ).'.O.R@4+d#&#4+4$5$v@6$4+##E@C f@7$C.7+q o.V.6#_+k.n@h.M#; .   ",
". > V@R c i++@O+S i+I+u L#8$e |+m x@>$.$t+9$d#v@3@T Y#=.W E M#0$.   ",
". > +#1+m %@1+B ;+q.(@}.-@>@X#|+-+T+>.d h@A d@-+&#a$d m W T M#b$.   ",
". > F &#g.m@,#{#>+g.E c$++l+e@H d$c+i+.$:@7#P |.2.I d m.W+y.M#e$.   ",
". > l.l._+F ;+-$W+i+4+~@d@y#d+f$9#J#e.m ,+Q >+Q+y.:.d R@V c#M#g$.   ",
". > A.h$f.i$a@c 5@j$_.u H.@+k$0#x@F g+l$B.E.y.O+S+x@d m$V ,.M#{ .   ",
". > ++3.!$!$P#E n$o$c+k+Q ..8.6.p$4+q#+@q$<.r$P s${@0+_.W T M#t$.   ",
"  s#d.|+X.u$Q d#+#v$T Y+x+r.>.<@:.w$S q %@d@O+l @+x$k+B.=.{+M#y$.   ",
"  z$] q$+@E q.<.q.}.]@Q +#P.E `+G+S f@E.E 7#A$B$C$D$M.l@3+R#M#E$.   ",
"  z+F$> > #+*#[$z.W o 3.W+T.U 3.z.&#:.k+g+Q t z.J T@r.x+4@D M#G$    ",
"    . . y N > > > c$(#v$A+##E V >@|.S+C y.u 4@m.N@K+h$3.:.T H$I$    ",
"          .  #J$K$> > > L$v@F T ##v$=.o 9@U c p w+Y+M$i@N$z.H$<     ",
"              . .  #J$K$> > > O$4$)+;.).).G U V@d@5.<@q.P$W+H$Q$    ",
"                    . .  #R$y$> > > l$>+H@c V T ##X i.A U g.H$S$    ",
"                          . . T$U$V$> > > W$3@U +#|+J G ).G+H$X$    ",
"                              . . . ! Y$3$> > > Z+i+s S+Z.L$H$Z$    ",
"                                    . . . `$ %.%> > > O z O@H$'     ",
"                                          . . . +%@%#%> > $%#%%%    ",
"                                                . . h &%*%e$%%=%    ",
"                                                    . . . I#N.      ",
"                                                                    ",
"                                                                    "};
