/* XPM */
static const char* rotate2_xpm[] = {
"34 70 302 2",
"  	c None",
". 	c #1B1B1B",
"+ 	c #080808",
"@ 	c #000000",
"# 	c #202020",
"$ 	c #666666",
"% 	c #B4B4B4",
"& 	c #9C9C9C",
"* 	c #4D4D4D",
"= 	c #383838",
"- 	c #C9C9C9",
"; 	c #F3F3F3",
"> 	c #FFFFFF",
", 	c #E3E3E3",
"' 	c #929292",
") 	c #404040",
"! 	c #424242",
"~ 	c #F7F7F7",
"{ 	c #FFFDFD",
"] 	c #FFFCFC",
"^ 	c #E5E5E5",
"/ 	c #8E8E8E",
"( 	c #323232",
"_ 	c #414141",
": 	c #FBFBFB",
"< 	c #FFFEFE",
"[ 	c #FEFEFE",
"} 	c #DBDBDB",
"| 	c #7F7F7F",
"1 	c #232323",
"2 	c #3F3F3F",
"3 	c #FDFDFD",
"4 	c #D0D0D0",
"5 	c #707070",
"6 	c #131313",
"7 	c #3D3D3D",
"8 	c #BFBFBF",
"9 	c #616161",
"0 	c #010101",
"a 	c #3C3C3C",
"b 	c #555555",
"c 	c #3A3A3A",
"d 	c #C4C4C4",
"e 	c #5D5D5D",
"f 	c #393939",
"g 	c #EDEDED",
"h 	c #373737",
"i 	c #FFFEFF",
"j 	c #FEFDFD",
"k 	c #FDFCFC",
"l 	c #E6E5E5",
"m 	c #353535",
"n 	c #FEFDFF",
"o 	c #FFFDFF",
"p 	c #FCFCFC",
"q 	c #F9F8F8",
"r 	c #F8F6F6",
"s 	c #8D8D8D",
"t 	c #343434",
"u 	c #FEFFFF",
"v 	c #FFFDFE",
"w 	c #FDFDFE",
"x 	c #FCFDFC",
"y 	c #FBFCFD",
"z 	c #FDFBFC",
"A 	c #FDFBFD",
"B 	c #FCFBFB",
"C 	c #F6F0EF",
"D 	c #E8E8E8",
"E 	c #FEFFFE",
"F 	c #FEFDFE",
"G 	c #FCFBFC",
"H 	c #FAFAFA",
"I 	c #F8F9F9",
"J 	c #F8F8F7",
"K 	c #F7F6F7",
"L 	c #F8F8F8",
"M 	c #FBFAFA",
"N 	c #FAF9F9",
"O 	c #313131",
"P 	c #FEFEFF",
"Q 	c #FDFEFD",
"R 	c #FCFAFB",
"S 	c #FBF9FA",
"T 	c #F9F7F8",
"U 	c #F6F6F7",
"V 	c #F4F4F3",
"W 	c #F2F2F2",
"X 	c #F1F0F0",
"Y 	c #F0F0F0",
"Z 	c #F1F0F1",
"` 	c #F2F2F3",
" .	c #F5F5F5",
"..	c #FBFAFB",
"+.	c #F5F5F4",
"@.	c #2F2F2F",
"#.	c #FAF7F9",
"$.	c #F7F6F8",
"%.	c #EFEFEF",
"&.	c #ECECEC",
"*.	c #EBEAEA",
"=.	c #EAEAEA",
"-.	c #EAE9EA",
";.	c #EBEBEB",
">.	c #EDEDEC",
",.	c #EFEEEE",
"'.	c #EEECEC",
").	c #2E2E2E",
"!.	c #FEFDFC",
"~.	c #FBFCFC",
"{.	c #FAFAF9",
"].	c #F9F8F9",
"^.	c #F7F6F6",
"/.	c #F5F3F4",
"(.	c #F2F1F1",
"_.	c #E7E6E6",
":.	c #E6E6E6",
"<.	c #E6E6E5",
"[.	c #E7E7E7",
"}.	c #E5E3E3",
"|.	c #2C2C2C",
"1.	c #FDFEFF",
"2.	c #FDFCFE",
"3.	c #FBFBFA",
"4.	c #F9F9F9",
"5.	c #F8F7F7",
"6.	c #F6F5F6",
"7.	c #F5F4F3",
"8.	c #F1F1F1",
"9.	c #ECECEB",
"0.	c #E9E8E8",
"a.	c #E5E4E4",
"b.	c #E4E4E4",
"c.	c #E4E3E4",
"d.	c #E2E2E2",
"e.	c #DADADA",
"f.	c #2A2A2A",
"g.	c #FDFCFD",
"h.	c #FBFBFC",
"i.	c #F7F8F7",
"j.	c #F5F5F6",
"k.	c #F4F3F3",
"l.	c #EFEFEE",
"m.	c #ECEBEC",
"n.	c #EAE9E9",
"o.	c #E5E3E4",
"p.	c #E4E3E3",
"q.	c #E1E0E0",
"r.	c #DAD9D9",
"s.	c #292929",
"t.	c #FDFEFE",
"u.	c #F3F2F3",
"v.	c #EEEEEF",
"w.	c #E8E7E7",
"x.	c #E4E2E3",
"y.	c #E2E2E1",
"z.	c #DDDBDB",
"A.	c #272727",
"B.	c #F9F9FA",
"C.	c #F7F8F8",
"D.	c #F4F5F7",
"E.	c #F0F0F2",
"F.	c #EEEEF0",
"G.	c #ECEBED",
"H.	c #E5E4E3",
"I.	c #262626",
"J.	c #F6F6F6",
"K.	c #F3F4F4",
"L.	c #F0F1F1",
"M.	c #E8E7E8",
"N.	c #E4E4E3",
"O.	c #E6E5E6",
"P.	c #E9E9E9",
"Q.	c #242424",
"R.	c #FFFFFE",
"S.	c #FCFDFD",
"T.	c #FCFCFB",
"U.	c #F8F7F9",
"V.	c #F1F1F2",
"W.	c #EDECED",
"X.	c #EEEDED",
"Y.	c #222222",
"Z.	c #FCFCFD",
"`.	c #EFEFF0",
" +	c #E6E7E6",
".+	c #212121",
"++	c #FAFBFA",
"@+	c #F3F2F2",
"#+	c #EEEEEE",
"$+	c #EDECEC",
"%+	c #1F1F1F",
"&+	c #F9F9F8",
"*+	c #F4F3F4",
"=+	c #EFEEEF",
"-+	c #EBEAEB",
";+	c #E9E7E9",
">+	c #E7E6E7",
",+	c #1E1E1E",
"'+	c #FEFEFD",
")+	c #F9FAF9",
"!+	c #F8F7F8",
"~+	c #EEEDEE",
"{+	c #1C1C1C",
"]+	c #F6F6F8",
"^+	c #F4F4F4",
"/+	c #E9E8E9",
"(+	c #E5E4E5",
"_+	c #1A1A1A",
":+	c #191919",
"<+	c #F7F7F8",
"[+	c #F1F0EF",
"}+	c #171717",
"|+	c #FDFDFC",
"1+	c #E5E5E6",
"2+	c #161616",
"3+	c #F0EFF0",
"4+	c #141414",
"5+	c #F5F4F5",
"6+	c #F2F1F3",
"7+	c #121212",
"8+	c #F6F7F7",
"9+	c #111111",
"0+	c #F8F9FA",
"a+	c #EDEBEC",
"b+	c #E6E4E6",
"c+	c #0F0F0F",
"d+	c #FCFEFD",
"e+	c #F8F8F9",
"f+	c #F4F4F5",
"g+	c #0E0E0E",
"h+	c #FAFCFB",
"i+	c #0C0C0C",
"j+	c #FDFEFC",
"k+	c #F3F3F2",
"l+	c #F0EFEF",
"m+	c #ECEBEB",
"n+	c #0A0A0A",
"o+	c #FAFBF9",
"p+	c #F2F1F2",
"q+	c #EFEDED",
"r+	c #EBE9EA",
"s+	c #090909",
"t+	c #F9FAFA",
"u+	c #070707",
"v+	c #E6E4E5",
"w+	c #060606",
"x+	c #F2F3F2",
"y+	c #040404",
"z+	c #FAFBFB",
"A+	c #F6F6F5",
"B+	c #F2F0F1",
"C+	c #020202",
"D+	c #F8FAFA",
"E+	c #E1E1E1",
"F+	c #E0E0E0",
"G+	c #FCFDFE",
"H+	c #E6E4E4",
"I+	c #DDDDDE",
"J+	c #000001",
"K+	c #D2D2D2",
"L+	c #F7F7F6",
"M+	c #E5E5E4",
"N+	c #030303",
"O+	c #C8C8C8",
"P+	c #E7E5E5",
"Q+	c #060506",
"R+	c #C0BFC0",
"S+	c #E7E6E5",
"T+	c #E7E5E6",
"U+	c #BDBDBE",
"V+	c #EAEBEA",
"W+	c #E6E5E4",
"X+	c #F1EFF0",
"Y+	c #BDBDBD",
"Z+	c #DFDEDE",
"`+	c #B9B8B8",
" @	c #CFCFCF",
".@	c #EAE8E8",
"+@	c #E1DFDF",
"@@	c #787777",
"#@	c #DEDDDD",
"$@	c #C7C7C7",
"%@	c #EDEEEE",
"&@	c #D7D7D7",
"*@	c #AEACAC",
"=@	c #C0C0C0",
"-@	c #F5F4F4",
";@	c #E8E6E7",
">@	c #ECEBEA",
",@	c #9D9C9C",
"'@	c #252525",
")@	c #EAEAE9",
"!@	c #A1A0A0",
"~@	c #959595",
"{@	c #3E3E3E",
"]@	c #C6C6C6",
"^@	c #F6F5F5",
"/@	c #9D9D9D",
"(@	c #494949",
"_@	c #606060",
":@	c #CDCDCD",
"<@	c #808080",
"                                                                    ",
"    . + @ @ @                                                       ",
"  # $ % & * @ @ @                                                   ",
"  = - ; > > , ' ) @ @ @                                             ",
"  ! ~ > { ] > > > ^ / ( @ @ @                                       ",
"  _ : < > > [ [ [ > > > } | 1 @ @ @                                 ",
"  2 3 > > > > > > > > > > > > 4 5 6 @ @                             ",
"  7 [ > > > > > > > > > > > > > > > 8 9 0 @ @                       ",
"  a [ > > > > > > > > > > > > > > < [ > > % b @ @ @                 ",
"  c [ > > > > > > > > > > > > > > > > > > [ 3 [ d e @ @             ",
"  f [ > > > > > > > > > > > > > > > > > > > > > > [ g / f @ @       ",
"  h 3 > > > > > > > > > > > > > > > > > > > > i > > > j k l / f     ",
"  m 3 > > > > > > > > > > > > > > > > > i i [ [ n < n o p q r [ s   ",
"  t p > > > > > > > > > > > > > > > i u v j 3 w x y z A 3 3 B C D   ",
"  ( p > > > > > > > > > > > > > > i E F 3 G : H I J K J L M k N N @ ",
"  O p > > > > > > > > > > > > > > P Q k R S T U V W X Y Z `  ...+.@ ",
"  @.3 > > > > > > > > > > > i i [ 3 p H #.$. .W %.&.*.=.-.;.>.,.'.@ ",
"  ).3 > > > > > > > i > P P n { !.~.{.].^./.(.%.;.D _._.:.<.[._.}.@ ",
"  |.: > > > > > > > P P [ 1.2.p 3.4.5.6.7.8.,.9.0.l a.a.a.b.c.d.e.@ ",
"  f.4.> > > > > P u [ [ F g.h.: 4.i.j.k.8.l.m.n._.a.a.o.p.p.p.q.r.@ ",
"  s.L > > > > u [ E [ t.3 G : 4.~ 6.u.8.v.m.n.w.l b.a.o.}.p.x.y.z.@ ",
"  A.L > > > > [ [ t.Q 3 k : B.C.D.u.E.F.G.-.w.l a.o.c.p.p.p.p.}.H.@ ",
"  I.L > > > u E [ w w p B {.C.J.K.L.%.m.-.M.:.a.b.b.c.p.p.N.N.O.P.@ ",
"  Q.L R.> > u P w 3 S.T.M U.J.K.V.%.W.=.D _.^ b.N.p.p.p.}.}.b._.X.@ ",
"  Y.L [ > > u [ w Z.G B 4.^.+.W `.g ;.P.[.^ b.c.N.p.p.c.H.o.a. +'.@ ",
"  .+L < > > [ P Q Z.G ++T 6.@+Y #+&.=.D :.b.p.p.}.p.o.a.o.a.a.l $+@ ",
"  %+~ > > > u < t.: H &+~ *+(.=+W.-+;+>+^ p.p.p.p.p.c.a.a.a.a.a.n.@ ",
"  ,+~ > > > i '+k ..)+!+j.W Y ~+m.-.M.O.b.p.p.p.p.o.a.a.a.a.a.a.:.@ ",
"  {+~ > > > [ w Z.M ].]+^+8.=+W.-+/+>+(+p.p.p.p.p.a.a.a.a.a.a.a.O.@ ",
"  _+~ > > > P 3 k H q J.; Y ~+m.=.M.O.c.p.p.p.p.p.H.a.a.a.a.a.l P.@ ",
"  :+~ > > > [ 3 p N <++.W =+W.-+/+>+(+p.p.p.p.p.p.b.a.a.a.a.a.l [+@ ",
"  }+~ > > P [ |+h.4.K *+8.~+m.-.M.1+c.p.p.p.p.p.p.a.a.a.a.a.a.l 7.@ ",
"  2+~ > > u Q |+++I J.u.3+W.-+/+>+(+p.p.p.p.N.p.o.a.a.a.a.a.a.l q @ ",
"  4+~ > > u 3 x H <+5+6+=+m.-.M.O.c.p.p.p.c.b.c.o.a.a.a.a.a.a.l q @ ",
"  7+~ > > [ 3 ~.4.8+*+X X.-+/+>+(+p.p.p.p.c.c.b.a.a.a.a.a.a.a.l q @ ",
"  9+~ > i E 3 ~.0+j.W %.a+-.M.b+c.p.p.p.p.p.}.a.a.a.a.a.a.a.a.a.q @ ",
"  c+J.> R.[ d+B e+f+8.,.-+/+>+(+p.p.p.p.p.p.p.H.a.a.a.a.a.a.a.a.N @ ",
"  g+^+> R.i Q h+5./.X $+-.M.O.c.p.p.p.p.p.c.c.p.o.a.a.a.a.a.a.a.5.@ ",
"  i+; > > [ j+h+K k+l+m+0._.(+c.p.c.p.p.p.b.c.c.b.a.a.a.a.a.a.a.k.@ ",
"  n+8.> > E j+o+J.p+q+r+w.O.c.c.c.p.p.p.p.p.c.}.o.a.a.a.a.a.a.a.,.@ ",
"  s+Y > > P S.t+j.Z a+0._.a.c.c.p.p.p.p.p.p.}.p.a.a.a.a.a.a.a.a.m+@ ",
"  u+#+> > [ g.].+.l+*.w.v+c.c.p.p.c.p.p.p.p.}.}.p.a.a.a.a.a.a.a.0.@ ",
"  w+g > > u : 5.x+X.n._.a.c.c.c.c.c.N.p.p.p.N.a.c.H.a.a.a.a.a.a.w.@ ",
"  y+;.> > Q z+A+B+9.0.l c.c.c.c.c.c.c.p.p.}.o.N.N.a.a.a.a.a.a.a._.@ ",
"  C+P.> > [ H ^+%.*.w.a.c.c.c.c.o.c.b.N.p.p.}.N.o.}.a.a.a.a.a.a.l @ ",
"  0 D > > 3 e+          c.b.o.b.c.b.a.b.p.p.p.}.H.a.a.a.a.a.a.a.l @ ",
"  @ :.> P y ~   W.      b.c.b.b.a.a.b.b.b.p.p.p.}.a.a.a.a.a.a.a.l @ ",
"  @ ^ > [ :       >+      a.a.a.a.a.a.b.c.c.p.N.}.o.a.a.a.a.a.a.l @ ",
"  @ , < [ D+      _.    a.a.a.a.a.a.a.a.b.c.b.}.p.}.H.a.a.a.a.a.l @ ",
"  @ E+[ d+q       <.    a.a.a.a.a.a.a.a.a.b.a.b.N.o.H.a.a.a.a.a.l @ ",
"  @ F+F G+              a.a.a.a.a.a.a.H+a.a.b.a.a.b.o.H.a.a.a.a.l @ ",
"  @ I+B h.          a.a.a.a.a.a.a.a.(+v+a.a.b.b.a.o.a.}.a.a.a.a.l @ ",
"  J+K+L+              a.a.a.a.a.v+^ M+a.a.a.a.a.a.a.a.a.a.a.a.a.l @ ",
"  N+O+@+    &.    M+  a.a.a.a.v+P+l (+a.a.a.a.a.a.a.a.a.a.a.a.a.n.@ ",
"  Q+R+      =.        a.a.a.a.S+T+l a.a.a.a.a.a.a.a.a.a.a.a.a.a.X @ ",
"  n+U+                a.a.a.S+l v+a.a.a.a.a.a.a.a.a.a.a.a.a.(+w.;   ",
"          V+        a.a.a.l W+(+a.a.a.a.a.a.a.a.a.a.a.a.a.l v+X+Y+  ",
"              l     a.a.a.a.a.a.a.a.a.a.a.a.a.a.a.a.a.a.q.Z+r+`+|.  ",
"     @            a.a.a.a.a.a.a.a.a.a.a.a.a.a.a.a.a.a..@+@@@@ @     ",
"              H+(+a.a.a.a.a.a.a.a.a.a.a.a.H+_.p.#@$@  {+@           ",
"    %@      a.a.a.a.a.a.a.a.a.a.a.a.a.H+H.&@*@                      ",
"     .  M+H+a.a.a.a.a.a.a.a.a.a.a.a.a.=@                            ",
"    -@_.a.a.a.a.a.a.a.a.a.l ;@>@0.,@'@@ @                           ",
"    ^+0.a.a.a.a.a.l _.w.m+)@!@m @ @ @                               ",
"    g Y _.l a._.$+q =.~@{@@ @ @                                     ",
"    ]@H ^@;  .W /@(@@ @ @                                           ",
"    _@8 g :@<@0 @ @                                                 ",
"      t i+@ @ @                                                     ",
"                                                                    ",
"                                                                    "};
