/* XPM */
static const char * spades1_xpm[] = {
"47 62 140 2",
"  	c None",
". 	c #000000",
"+ 	c #2E2E2E",
"@ 	c #B2B2B2",
"# 	c #FCFCFC",
"$ 	c #FFFFFF",
"% 	c #B0B0B0",
"& 	c #2A2A2A",
"* 	c #B9B9B9",
"= 	c #FEFEFE",
"- 	c #CACACA",
"; 	c #AFAFAF",
"> 	c #EAEAEA",
", 	c #FDFDFD",
"' 	c #272727",
") 	c #919191",
"! 	c #E1E1E1",
"~ 	c #4F4F4F",
"{ 	c #9B9B9B",
"] 	c #101010",
"^ 	c #545454",
"/ 	c #2C2C2C",
"( 	c #CBCBCB",
"_ 	c #111111",
": 	c #151515",
"< 	c #9C9C9C",
"[ 	c #898989",
"} 	c #C8C8C8",
"| 	c #414141",
"1 	c #A8A8A8",
"2 	c #464646",
"3 	c #828282",
"4 	c #0A0A0A",
"5 	c #F9F9F9",
"6 	c #3B3B3B",
"7 	c #5E5E5E",
"8 	c #5F5F5F",
"9 	c #C2C2C2",
"0 	c #F1F1F1",
"a 	c #040404",
"b 	c #2F2F2F",
"c 	c #A5A5A5",
"d 	c #808080",
"e 	c #F2F2F2",
"f 	c #BFBFBF",
"g 	c #D7D7D7",
"h 	c #F4F4F4",
"i 	c #D5D5D5",
"j 	c #DEDEDE",
"k 	c #F8F8F8",
"l 	c #1F1F1F",
"m 	c #4E4E4E",
"n 	c #FBFBFB",
"o 	c #EEEEEE",
"p 	c #222222",
"q 	c #959595",
"r 	c #010101",
"s 	c #E4E4E4",
"t 	c #D3D3D3",
"u 	c #121212",
"v 	c #181818",
"w 	c #0E0E0E",
"x 	c #0C0C0C",
"y 	c #373737",
"z 	c #F7F7F7",
"A 	c #747474",
"B 	c #050505",
"C 	c #BABABA",
"D 	c #F0F0F0",
"E 	c #C0C0C0",
"F 	c #D4D4D4",
"G 	c #CCCCCC",
"H 	c #131313",
"I 	c #AEAEAE",
"J 	c #D1D1D1",
"K 	c #060606",
"L 	c #B8B8B8",
"M 	c #D8D8D8",
"N 	c #DCDCDC",
"O 	c #1B1B1B",
"P 	c #DFDFDF",
"Q 	c #1E1E1E",
"R 	c #DBDBDB",
"S 	c #E3E3E3",
"T 	c #212121",
"U 	c #E2E2E2",
"V 	c #E6E6E6",
"W 	c #252525",
"X 	c #262626",
"Y 	c #E8E8E8",
"Z 	c #303030",
"` 	c #383838",
" .	c #797979",
"..	c #F5F5F5",
"+.	c #161616",
"@.	c #585858",
"#.	c #0F0F0F",
"$.	c #787878",
"%.	c #F6F6F6",
"&.	c #B1B1B1",
"*.	c #7D7D7D",
"=.	c #909090",
"-.	c #949494",
";.	c #030303",
">.	c #ADADAD",
",.	c #070707",
"'.	c #E5E5E5",
").	c #878787",
"!.	c #D6D6D6",
"~.	c #B7B7B7",
"{.	c #505050",
"].	c #727272",
"^.	c #525252",
"/.	c #5A5A5A",
"(.	c #393939",
"_.	c #191919",
":.	c #090909",
"<.	c #C4C4C4",
"[.	c #D0D0D0",
"}.	c #D9D9D9",
"|.	c #ECECEC",
"1.	c #020202",
"2.	c #363636",
"3.	c #9E9E9E",
"4.	c #343434",
"5.	c #292929",
"6.	c #C9C9C9",
"7.	c #7B7B7B",
"8.	c #C1C1C1",
"9.	c #A2A2A2",
"0.	c #FAFAFA",
"a.	c #969696",
"b.	c #4D4D4D",
"c.	c #D2D2D2",
"d.	c #DADADA",
"e.	c #565656",
"f.	c #202020",
"g.	c #989898",
"h.	c #EDEDED",
"i.	c #B6B6B6",
"        . . . . . . . . . . . . . . . . . . . . . . . . . . . . . . . . . . . . . . .         ",
"    . . . . . . . . . . . . . . . . . . . . . . . . . . . . . . . . . . . . . . . . . . .     ",
"  . + @ # $ $ $ $ $ $ $ $ $ $ $ $ $ $ $ $ $ $ $ $ $ $ $ $ $ $ $ $ $ $ $ $ $ $ $ $ $ # % & .   ",
"  . * $ $ $ $ $ $ $ $ $ $ $ $ $ $ $ $ $ $ $ $ $ $ $ $ $ $ $ $ $ $ $ $ $ $ $ $ $ $ $ $ $ @ .   ",
". . = $ $ $ $ - ; > $ $ $ $ $ $ $ $ $ $ $ $ $ $ $ $ $ $ $ $ $ $ $ $ $ $ $ $ $ $ $ $ $ $ , . . ",
". . $ $ $ $ $ ' . ) $ $ $ $ $ $ $ $ $ $ $ $ $ $ $ $ $ $ $ $ $ $ $ $ $ $ $ $ $ $ $ $ $ $ $ . . ",
". . $ $ $ $ ! . . ~ $ $ $ $ $ $ $ $ $ $ $ $ $ $ $ $ $ $ $ $ $ $ $ $ $ $ $ $ $ $ $ $ $ $ $ . . ",
". . $ $ $ $ { . . ] , $ $ $ $ $ $ $ $ $ $ $ $ $ $ $ $ $ $ $ $ $ $ $ $ $ $ $ $ $ $ $ $ $ $ . . ",
". . $ $ $ $ ^ . / . ( $ $ $ $ $ $ $ $ $ $ $ $ $ $ $ $ $ $ $ $ $ $ $ $ $ $ $ $ $ $ $ $ $ $ . . ",
". . $ $ $ , _ : < . [ $ $ $ $ $ $ $ $ $ $ $ $ $ $ $ $ $ $ $ $ $ $ $ $ $ $ $ $ $ $ $ $ $ $ . . ",
". . $ $ $ } . | 1 . 2 $ $ $ $ $ $ $ $ $ $ $ $ $ $ $ $ $ $ $ $ $ $ $ $ $ $ $ $ $ $ $ $ $ $ . . ",
". . $ $ $ 3 . . . . 4 5 $ $ $ $ $ $ $ $ $ $ $ $ $ $ $ $ $ $ $ $ $ $ $ $ $ $ $ $ $ $ $ $ $ . . ",
". . $ $ $ 6 . 7 8 / . 9 $ $ $ $ $ $ $ $ $ $ $ $ $ $ $ $ $ $ $ $ $ $ $ $ $ $ $ $ $ $ $ $ $ . . ",
". . $ $ 0 a b $ $ c . d $ $ $ $ $ $ $ $ $ $ $ $ $ $ $ $ $ $ $ $ $ $ $ $ $ $ $ $ $ $ $ $ $ . . ",
". . $ $ e f g $ $ h f i $ $ $ $ $ $ $ $ $ $ $ $ $ $ $ $ $ $ $ $ $ $ $ $ $ $ $ $ $ $ $ $ $ . . ",
". . $ $ $ $ $ j 8 k $ $ $ $ $ $ $ $ $ $ $ $ $ $ $ $ $ $ $ $ $ $ $ $ $ $ $ $ $ $ $ $ $ $ $ . . ",
". . $ $ $ $ ! l . m n $ $ $ $ $ $ $ $ $ $ $ $ $ $ $ $ $ $ $ $ $ $ $ $ $ $ $ $ $ $ $ $ $ $ . . ",
". . $ $ $ o p . . . 8 $ $ $ $ $ $ $ $ $ $ $ $ $ $ $ $ $ $ $ $ $ $ $ $ $ $ $ $ $ $ $ $ $ $ . . ",
". . $ $ $ q . . . . r s $ $ $ $ $ $ $ $ $ $ $ $ $ $ $ $ $ $ $ $ $ $ $ $ $ $ $ $ $ $ $ $ $ . . ",
". . $ $ $ t u v w x y = $ $ $ $ $ $ $ $ $ $ $ $ $ $ $ $ $ $ $ $ $ $ $ $ $ $ $ $ $ $ $ $ $ . . ",
". . $ $ $ $ z A B C $ $ $ $ $ $ $ $ $ $ $ $ $ D $ $ $ $ $ $ $ $ $ $ $ $ $ $ $ $ $ $ $ $ $ . . ",
". . $ $ $ $ , E f F $ $ $ $ $ $ $ $ $ $ $ $ G H I $ $ $ $ $ $ $ $ $ $ $ $ $ $ $ $ $ $ $ $ . . ",
". . $ $ $ $ $ $ $ $ $ $ $ $ $ $ $ $ $ $ $ J u . K L $ $ $ $ $ $ $ $ $ $ $ $ $ $ $ $ $ $ $ . . ",
". . $ $ $ $ $ $ $ $ $ $ $ $ $ $ $ $ $ $ i : . . . 4 9 $ $ $ $ $ $ $ $ $ $ $ $ $ $ $ $ $ $ . . ",
". . $ $ $ $ $ $ $ $ $ $ $ $ $ $ $ $ $ M v . . . . . w ( $ $ $ $ $ $ $ $ $ $ $ $ $ $ $ $ $ . . ",
". . $ $ $ $ $ $ $ $ $ $ $ $ $ $ $ $ N O . . . . . . . H F $ $ $ $ $ $ $ $ $ $ $ $ $ $ $ $ . . ",
". . $ $ $ $ $ $ $ $ $ $ $ $ $ $ $ P Q . . . . . . . . . v R $ $ $ $ $ $ $ $ $ $ $ $ $ $ $ . . ",
". . $ $ $ $ $ $ $ $ $ $ $ $ $ $ S T . . . . . . . . . . . l U $ $ $ $ $ $ $ $ $ $ $ $ $ $ . . ",
". . $ $ $ $ $ $ $ $ $ $ $ $ $ V W . . . . . . . . . . . . . X Y $ $ $ $ $ $ $ $ $ $ $ $ $ . . ",
". . $ $ $ $ $ $ $ $ $ $ $ $ 5 Z . . . . . . . . . . . . . . . ` # $ $ $ $ $ $ $ $ $ $ $ $ . . ",
". . $ $ $ $ $ $ $ $ $ $ $ $  .. . . . . . . . . . . . . . . . . [ $ $ $ $ $ $ $ $ $ $ $ $ . . ",
". . $ $ $ $ $ $ $ $ $ $ $ $ l . . . . . . . . . . . . . . . . . X $ $ $ $ $ $ $ $ $ $ $ $ . . ",
". . $ $ $ $ $ $ $ $ $ $ $ h . . . . . . . . . . . . . . . . . . r ..$ $ $ $ $ $ $ $ $ $ $ . . ",
". . $ $ $ $ $ $ $ $ $ $ $ $ +.. . . . . . . . . . . . . . . . . +.$ $ $ $ $ $ $ $ $ $ $ $ . . ",
". . $ $ $ $ $ $ $ $ $ $ $ $ @.. . . . . . . . . . . . . . . . . @.$ $ $ $ $ $ $ $ $ $ $ $ . . ",
". . $ $ $ $ $ $ $ $ $ $ $ $ S #.. . . . . . r . r . . . . . . #.S $ $ $ $ $ $ $ $ $ $ $ $ . . ",
". . $ $ $ $ $ $ $ $ $ $ $ $ $ } X . . . r A ] . ] $.r . . . X } $ $ $ $ $ $ $ $ $ $ $ $ $ . . ",
". . $ $ $ $ $ $ $ $ $ $ $ $ $ $ %.&.*.=.i q . . . -.i =.*.&.%.$ $ $ $ $ $ $ $ $ $ $ $ $ $ . . ",
". . $ $ $ $ $ $ $ $ $ $ $ $ $ $ $ $ $ $ 1 ;.. . . ;.1 $ $ $ $ $ $ $ $ $ $ $ $ $ $ $ $ $ $ . . ",
". . $ $ $ $ $ $ $ $ $ $ $ $ $ $ $ $ $ >.a . . . . . a I $ $ $ $ $ $ $ $ $ $ $ $ $ $ $ $ $ . . ",
". . $ $ $ $ $ $ $ $ $ $ $ $ $ $ $ $ V B . . . . . . . ,.'.$ $ $ $ $ $ $ $ Y ).).!.$ $ $ $ . . ",
". . $ $ $ $ $ $ $ $ $ $ $ $ $ $ $ $ > ~.~.~.~.~.~.~.~.~.> $ $ $ $ $ $ $ , f {.` C 5 $ $ $ . . ",
". . $ $ $ $ $ $ $ $ $ $ $ $ $ $ $ $ $ $ $ $ $ $ $ $ $ $ $ $ $ $ $ $ $ $ ].. a a . ^.$ $ $ . . ",
". . $ $ $ $ $ $ $ $ $ $ $ $ $ $ $ $ $ $ $ $ $ $ $ $ $ $ $ $ $ $ $ $ $ $ /.. . . . (.$ $ $ . . ",
". . $ $ $ $ $ $ $ $ $ $ $ $ $ $ $ $ $ $ $ $ $ $ $ $ $ $ $ $ $ $ $ $ $ $ N _.. . :.<.$ $ $ . . ",
". . $ $ $ $ $ $ $ $ $ $ $ $ $ $ $ $ $ $ $ $ $ $ $ $ $ $ $ $ $ $ $ $ $ $ $ !.: K L $ $ $ $ . . ",
". . $ $ $ $ $ $ $ $ $ $ $ $ $ $ $ $ $ $ $ $ $ $ $ $ $ $ $ $ $ $ $ $ $ $ $ $ [.&.$ $ $ $ $ . . ",
". . $ $ $ $ $ $ $ $ $ $ $ $ $ $ $ $ $ $ $ $ $ $ $ $ $ $ $ $ $ $ $ $ $ D f }.$ $ e f g $ $ . . ",
". . $ $ $ $ $ $ $ $ $ $ $ $ $ $ $ $ $ $ $ $ $ $ $ $ $ $ $ $ $ $ $ $ $ |.1.2.$ $ 3.. ).$ $ . . ",
". . $ $ $ $ $ $ $ $ $ $ $ $ $ $ $ $ $ $ $ $ $ $ $ $ $ $ $ $ $ $ $ $ $ $ 4.1.8 8 5.. 6.$ $ . . ",
". . $ $ $ $ $ $ $ $ $ $ $ $ $ $ $ $ $ $ $ $ $ $ $ $ $ $ $ $ $ $ $ $ $ $ 7.. . . . #.# $ $ . . ",
". . $ $ $ $ $ $ $ $ $ $ $ $ $ $ $ $ $ $ $ $ $ $ $ $ $ $ $ $ $ $ $ $ $ $ 8.. 2 9.. m $ $ $ . . ",
". . $ $ $ $ $ $ $ $ $ $ $ $ $ $ $ $ $ $ $ $ $ $ $ $ $ $ $ $ $ $ $ $ $ $ 0.x O a.. =.$ $ $ . . ",
". . $ $ $ $ $ $ $ $ $ $ $ $ $ $ $ $ $ $ $ $ $ $ $ $ $ $ $ $ $ $ $ $ $ $ $ b.. / . c.$ $ $ . . ",
". . $ $ $ $ $ $ $ $ $ $ $ $ $ $ $ $ $ $ $ $ $ $ $ $ $ $ $ $ $ $ $ $ $ $ $ -.. . : = $ $ $ . . ",
". . $ $ $ $ $ $ $ $ $ $ $ $ $ $ $ $ $ $ $ $ $ $ $ $ $ $ $ $ $ $ $ $ $ $ $ d.. . e.$ $ $ $ . . ",
". . $ $ $ $ $ $ $ $ $ $ $ $ $ $ $ $ $ $ $ $ $ $ $ $ $ $ $ $ $ $ $ $ $ $ $ $ f.. g.$ $ $ $ . . ",
". . $ $ $ $ $ $ $ $ $ $ $ $ $ $ $ $ $ $ $ $ $ $ $ $ $ $ $ $ $ $ $ $ $ $ $ $ } ; h.$ $ $ = . . ",
"  . * $ $ $ $ $ $ $ $ $ $ $ $ $ $ $ $ $ $ $ $ $ $ $ $ $ $ $ $ $ $ $ $ $ $ $ $ $ $ $ $ $ i..   ",
"  . b L = $ $ $ $ $ $ $ $ $ $ $ $ $ $ $ $ $ $ $ $ $ $ $ $ $ $ $ $ $ $ $ $ $ $ $ $ $ = L + .   ",
"    . . . . . . . . . . . . . . . . . . . . . . . . . . . . . . . . . . . . . . . . . . .     ",
"        . . . . . . . . . . . . . . . . . . . . . . . . . . . . . . . . . . . . . . .         "};
