/* XPM */
static const char* spades10_xpm[] = {
"47 62 215 2",
"  	c None",
". 	c #000000",
"+ 	c #2A2A2A",
"@ 	c #B0B0B0",
"# 	c #FCFCFC",
"$ 	c #FFFFFF",
"% 	c #B2B2B2",
"& 	c #2E2E2E",
"* 	c #BABABA",
"= 	c #FDFDFD",
"- 	c #EFEFEF",
"; 	c #AFAFAF",
"> 	c #E3E3E3",
", 	c #C7C7C7",
"' 	c #EEEEEE",
") 	c #FEFEFE",
"! 	c #CBCBCB",
"~ 	c #A4A4A4",
"{ 	c #040404",
"] 	c #3D3D3D",
"^ 	c #F8F8F8",
"/ 	c #3E3E3E",
"( 	c #171717",
"_ 	c #777777",
": 	c #585858",
"< 	c #B3B3B3",
"[ 	c #D0D0D0",
"} 	c #F2F2F2",
"| 	c #C3C3C3",
"1 	c #323232",
"2 	c #BDBDBD",
"3 	c #CECECE",
"4 	c #101010",
"5 	c #F6F6F6",
"6 	c #A3A3A3",
"7 	c #020202",
"8 	c #6D6D6D",
"9 	c #D3D3D3",
"0 	c #131313",
"a 	c #484848",
"b 	c #F9F9F9",
"c 	c #A8A8A8",
"d 	c #030303",
"e 	c #7A7A7A",
"f 	c #D7D7D7",
"g 	c #535353",
"h 	c #ACACAC",
"i 	c #888888",
"j 	c #E1E1E1",
"k 	c #1A1A1A",
"l 	c #636363",
"m 	c #B7B7B7",
"n 	c #050505",
"o 	c #9B9B9B",
"p 	c #6C6C6C",
"q 	c #D2D2D2",
"r 	c #2C2C2C",
"s 	c #161616",
"t 	c #404040",
"u 	c #141414",
"v 	c #676767",
"w 	c #4D4D4D",
"x 	c #B4B4B4",
"y 	c #222222",
"z 	c #848484",
"A 	c #E2E2E2",
"B 	c #C4C4C4",
"C 	c #070707",
"D 	c #474747",
"E 	c #FBFBFB",
"F 	c #010101",
"G 	c #DADADA",
"H 	c #EDEDED",
"I 	c #303030",
"J 	c #9F9F9F",
"K 	c #373737",
"L 	c #1B1B1B",
"M 	c #BFBFBF",
"N 	c #E9E9E9",
"O 	c #D4D4D4",
"P 	c #F3F3F3",
"Q 	c #818181",
"R 	c #353535",
"S 	c #8C8C8C",
"T 	c #090909",
"U 	c #4B4B4B",
"V 	c #434343",
"W 	c #AAAAAA",
"X 	c #D9D9D9",
"Y 	c #666666",
"Z 	c #808080",
"` 	c #717171",
" .	c #595959",
"..	c #F1F1F1",
"+.	c #5B5B5B",
"@.	c #E8E8E8",
"#.	c #FAFAFA",
"$.	c #A6A6A6",
"%.	c #B5B5B5",
"&.	c #151515",
"*.	c #393939",
"=.	c #2F2F2F",
"-.	c #3F3F3F",
";.	c #878787",
">.	c #3C3C3C",
",.	c #3A3A3A",
"'.	c #767676",
").	c #191919",
"!.	c #A5A5A5",
"~.	c #212121",
"{.	c #121212",
"].	c #0A0A0A",
"^.	c #EAEAEA",
"/.	c #D6D6D6",
"(.	c #3B3B3B",
"_.	c #868686",
":.	c #989898",
"<.	c #DFDFDF",
"[.	c #BCBCBC",
"}.	c #454545",
"|.	c #111111",
"1.	c #080808",
"2.	c #686868",
"3.	c #F5F5F5",
"4.	c #CACACA",
"5.	c #C8C8C8",
"6.	c #232323",
"7.	c #E6E6E6",
"8.	c #DEDEDE",
"9.	c #787878",
"0.	c #262626",
"a.	c #ECECEC",
"b.	c #727272",
"c.	c #545454",
"d.	c #C6C6C6",
"e.	c #E7E7E7",
"f.	c #8B8B8B",
"g.	c #181818",
"h.	c #2B2B2B",
"i.	c #929292",
"j.	c #525252",
"k.	c #C1C1C1",
"l.	c #747474",
"m.	c #A2A2A2",
"n.	c #838383",
"o.	c #7D7D7D",
"p.	c #919191",
"q.	c #7B7B7B",
"r.	c #999999",
"s.	c #F4F4F4",
"t.	c #AEAEAE",
"u.	c #7F7F7F",
"v.	c #A7A7A7",
"w.	c #979797",
"x.	c #272727",
"y.	c #7E7E7E",
"z.	c #656565",
"A.	c #575757",
"B.	c #060606",
"C.	c #B6B6B6",
"D.	c #EBEBEB",
"E.	c #2D2D2D",
"F.	c #1D1D1D",
"G.	c #4E4E4E",
"H.	c #444444",
"I.	c #6F6F6F",
"J.	c #DBDBDB",
"K.	c #343434",
"L.	c #A9A9A9",
"M.	c #BEBEBE",
"N.	c #1F1F1F",
"O.	c #282828",
"P.	c #9D9D9D",
"Q.	c #1C1C1C",
"R.	c #8F8F8F",
"S.	c #4F4F4F",
"T.	c #5E5E5E",
"U.	c #646464",
"V.	c #CFCFCF",
"W.	c #494949",
"X.	c #505050",
"Y.	c #696969",
"Z.	c #0D0D0D",
"`.	c #626262",
" +	c #5A5A5A",
".+	c #0F0F0F",
"++	c #9E9E9E",
"@+	c #4A4A4A",
"#+	c #DDDDDD",
"$+	c #CCCCCC",
"%+	c #B8B8B8",
"&+	c #C5C5C5",
"*+	c #BBBBBB",
"=+	c #DCDCDC",
"-+	c #858585",
";+	c #B9B9B9",
">+	c #8E8E8E",
",+	c #8A8A8A",
"'+	c #5F5F5F",
")+	c #4C4C4C",
"!+	c #CDCDCD",
"~+	c #909090",
"{+	c #797979",
"]+	c #0C0C0C",
"^+	c #414141",
"/+	c #6B6B6B",
"(+	c #555555",
"_+	c #9C9C9C",
":+	c #5D5D5D",
"<+	c #959595",
"[+	c #333333",
"}+	c #0B0B0B",
"|+	c #F7F7F7",
"1+	c #8D8D8D",
"2+	c #A0A0A0",
"        . . . . . . . . . . . . . . . . . . . . . . . . . . . . . . . . . . . . . . .         ",
"    . . . . . . . . . . . . . . . . . . . . . . . . . . . . . . . . . . . . . . . . . . .     ",
"  . + @ # $ $ $ $ $ $ $ $ $ $ $ $ $ $ $ $ $ $ $ $ $ $ $ $ $ $ $ $ $ $ $ $ $ $ $ $ $ # % & .   ",
"  . % $ $ $ $ $ $ $ $ $ $ $ $ $ $ $ $ $ $ $ $ $ $ $ $ $ $ $ $ $ $ $ $ $ $ $ $ $ $ $ $ $ * .   ",
". . = - ; > $ , ; ; ' $ $ $ $ $ $ $ $ $ $ $ $ $ $ $ $ $ $ $ $ $ $ $ $ $ $ $ $ $ $ $ $ $ ) . . ",
". . $ ! . ~ * { . . ] ^ $ $ $ $ $ $ $ $ $ $ $ $ $ $ $ $ $ $ $ $ $ $ $ $ $ $ $ $ $ $ $ $ $ . . ",
". . $ ! . ~ / ( _ : . < $ $ $ $ [ } $ $ $ $ $ $ $ $ $ $ $ $ | ) $ $ $ $ $ $ $ $ $ $ $ $ $ . . ",
". . $ ! . ~ ] 1 $ 2 . % $ $ $ 3 4 / 5 $ $ $ $ $ $ $ $ $ $ 6 7 8 $ $ $ $ $ $ $ $ $ $ $ $ $ . . ",
". . $ ! . ~ ] 1 $ 2 . % $ $ 9 0 . . a b $ $ $ $ $ $ $ $ c d . . e $ $ $ $ $ $ $ $ $ $ $ $ . . ",
". . $ ! . ~ ] 1 $ 2 . % $ f ( . . . . g # $ $ $ $ $ $ h { . . . . i $ $ $ $ $ $ $ $ $ $ $ . . ",
". . $ ! . ~ ] 1 $ 2 . % j k . . . . . . l $ $ $ $ $ m n . . . . . . o $ $ $ $ $ $ $ $ $ $ . . ",
". . $ ! . ~ ] 1 $ 2 . % p . . . . . . . . q $ $ $ $ r . . . . . . . s ^ $ $ $ $ $ $ $ $ $ . . ",
". . $ ! . ~ t u v w . x y . . . . . . . . z $ b $ A . . . . . . . . . | $ $ $ $ $ $ $ $ $ . . ",
". . $ ! . ~ B C . . D E _ . . . . . . . F G H I J $ K . . . . . . . L # $ $ $ $ $ $ $ $ $ . . ",
". . $ } M N $ O M M P $ ' Q R S T U l V @ - 1 . d W X Y / Z . ` a  .! $ $ $ $ $ $ $ $ $ $ . . ",
". . $ $ $ $ ..+.@.$ $ $ $ $ #.D . d $.$ ..R . . . n %.$ A y . &.O $ $ $ $ $ $ $ $ $ $ $ $ . . ",
". . $ $ $ } *.. =.- $ $ $ $ x -.-.-.U N *.. . . . . T M ;.-.-.-.` $ $ $ $ $ $ $ $ $ $ $ $ . . ",
". . $ $ = >.. . . ,.# $ $ $ $ $ $ $ $ '.. . . . . . . ).b $ $ $ $ $ $ $ $ $ $ $ $ $ $ $ $ . . ",
". . $ $ | . . . . . m $ $ $ $ $ $ $ = &.. . . . . . . . !.$ $ $ $ $ $ $ $ $ $ $ $ $ $ $ $ . . ",
". . $ $ P ~.{.].( L ^.$ $ $ $ $ J /.$ (.. . . . . . . . 3 ) _...$ $ $ $ $ $ $ $ $ $ $ $ $ . . ",
". . $ $ $ # J . :.E $ $ $ $ $ J F L <.[.~.. }.7 (.|.1.p $ 2.. >.3.$ $ $ $ $ $ $ $ $ $ $ $ . . ",
". . $ $ $ $ 4.M 5.$ $ $ $ $ $.7 . . 6.7.= 8.9.. 0.G a.$ 8 . . . a b $ $ $ $ $ $ $ $ $ $ $ . . ",
". . $ $ $ $ $ $ $ $ $ $ $ h { . . . . r H !.. . . ] ) b.. . . . . c.# $ $ $ $ $ $ $ $ $ $ . . ",
". . $ $ $ $ $ $ $ $ $ $ d.n . . . . . . (.- e.e.e.e.f.. . . . . . . b.$ $ $ $ $ $ $ $ $ $ . . ",
". . $ $ $ $ $ $ $ $ $ $ g . . . . . . . . * $ $ $ #.g.. . . . . . . T H $ $ $ $ $ $ $ $ $ . . ",
". . $ $ $ $ $ $ $ $ $ $ h.. . . . . . . . S $ $ $ e.d . . . . . . . . ! $ $ $ $ $ $ $ $ $ . . ",
". . $ $ $ $ $ $ $ $ $ $ i.. . F { C . . ].H $ $ $ $ j.. . n . C . . 1 $ $ $ $ $ $ $ $ $ $ . . ",
". . $ $ $ $ $ $ $ $ $ $ $ k.l.; { D m.n.7.$ $ $ $ $ b $.o.p.. q.i r.s.$ $ $ $ $ $ $ $ $ $ . . ",
". . $ $ $ $ $ $ $ $ $ $ $ $ a.y . . ` $ $ $ $ $ $ $ $ $ , ].. d t.$ $ $ $ $ $ $ $ $ $ $ $ . . ",
". . $ $ $ $ $ $ $ $ $ $ $ $ B u.u.u.Q 3.$ $ $ $ $ $ $ $ v.u.u.u.w.$ $ $ $ $ $ $ $ $ $ $ $ . . ",
". . $ $ $ $ $ $ $ $ $ $ $ $ $ $ $ $ $ $ $ $ $ $ $ $ $ $ $ $ $ $ $ $ $ $ $ $ $ $ $ $ $ $ $ . . ",
". . $ $ $ $ $ $ $ $ $ $ $ $ $ $ $ $ $ $ $ $ $ $ $ $ $ $ $ $ $ $ $ $ $ $ $ $ $ $ $ $ $ $ $ . . ",
". . $ $ $ $ $ $ $ $ $ $ $ $ $ $ $ $ $ $ $ $ $ $ $ $ $ $ $ $ $ $ $ $ $ $ $ $ $ $ $ $ $ $ $ . . ",
". . $ $ $ $ $ $ $ $ $ $ $ $ @ x.x.x.*.3.$ $ $ $ $ $ $ $ y.x.x.x.z.$ $ $ $ $ $ $ $ $ $ $ $ . . ",
". . $ $ $ $ $ $ $ $ $ $ $ $ = A.. B.C.$ $ $ $ $ $ $ $ $ D.E.. F.<.$ $ $ $ $ $ $ $ $ $ $ $ . . ",
". . $ $ $ $ $ $ $ $ $ $ N 8 F.9.1.D G.E.J $ $ $ $ $ 3 j.0.` . 2.1 H.M $ $ $ $ $ $ $ $ $ $ . . ",
". . $ $ $ $ $ $ $ $ $ $ I.. . . . . . . . 9 $ $ $ $ =.. . . . . . . s b $ $ $ $ $ $ $ $ $ . . ",
". . $ $ $ $ $ $ $ $ $ $ y . . . . . . . . z $ $ $ A . . . . . . . . . | $ $ $ $ $ $ $ $ $ . . ",
". . $ $ $ $ $ $ $ $ $ $ l.. . . . . . . 7 J.$ $ $ $ K.. . . . . . . F.E $ $ $ $ $ $ $ $ $ . . ",
". . $ $ $ $ $ $ $ $ $ $ e.y . . . . . . _ L.A.A.A.v M.T . . . . . 7 h $ $ $ $ $ $ $ $ $ $ . . ",
". . $ $ $ $ $ $ $ $ $ $ $ j N.. . . . v $ a.O.. d c $ * 1.. . . F P.$ $ $ $ A ;.;.8.$ $ $ . . ",
". . $ $ $ $ $ $ $ $ $ $ $ $ 8.Q.. . +.- R.S.r.7 T.I.U.V.m C . . p.$ $ $ $ E 2 W.V [.#.$ $ . . ",
". . $ $ $ $ $ $ $ $ $ $ $ $ $ J.k X.E Y.. . . . . . . Z...x B.z $ $ $ $ $ `.. { { .  +$ $ . . ",
". . $ $ $ $ $ $ $ $ $ $ $ $ $ $ 8.^ = .+. . . . . . . . ++$ f $ $ $ $ $ $ @+. . . . H.$ $ . . ",
". . $ $ $ $ $ $ $ $ $ $ $ $ $ $ $ $ $ @+. . . . . . . 7 #+$ $ $ $ $ $ $ $ 9 {.. . .+V.$ $ . . ",
". . $ $ $ $ $ $ $ $ $ $ $ $ $ $ $ $ $ , T . . . . . . Y.$ $ $ $ $ $ $ $ $ $ $+.+].B $ $ $ . . ",
". . $ $ $ $ $ $ $ $ $ $ $ $ 9 R.R.R.R.- %+C . . . . c.# * R.R.R.:.$ $ $ $ $ $ &+*+$ $ $ $ . . ",
". . $ $ $ $ $ $ $ $ $ $ $ $ ..6.. . j.$ $ % n . . W.#.$ $+T . . f.$ $ $ $ $ $ $ $ $ $ $ $ . . ",
". . $ $ $ $ $ $ $ $ $ $ $ =+-+;+].r * >+H $ h d -.5 $ B ,+r.. '+m.~ b $ a.)+-.t !+$ V ~+$ . . ",
". . $ $ $ $ $ $ $ $ $ $ ; F . d T .+. . ].7.$ C.} $ {+. . ]+. .+. . + ) ^+. . . k ..{ /+$ . . ",
". . $ $ $ $ $ $ $ $ $ $ ^+. . . . . . . . Q $ $ $ ^ |.. . . . . . . . ;+{.(+e.z . #+{ /+$ . . ",
". . $ $ $ $ $ $ $ $ $ $  .. . . . . . . . _+$ $ $ ) 6.. . . . . . . . 9 {.:+$ i.. #+{ /+$ . . ",
". . $ $ $ $ $ $ $ $ $ $ 5.{ . . . . . . Q.5 $ $ $ $ <+. . . . . . . U $ {.:+$ i.. #+{ /+$ . . ",
". . $ $ $ $ $ $ $ $ $ $ $ L.d . . . . &.f $ $ $ $ $ $ l.. . . . . [+..$ {.:+$ i.. #+{ /+$ . . ",
". . $ $ $ $ $ $ $ $ $ $ $ $ !.d . . 4 3 $ $ $ $ $ $ $ $ ` . . . + a.$ $ {.:+$ i.. #+{ /+$ . . ",
". . $ $ $ $ $ $ $ $ $ $ $ $ $ m.7 }+d.$ $ $ $ $ $ $ $ $ $ 8 . 6.7.$ $ $ {. +|+1+. #+{ /+$ . . ",
". . $ $ $ $ $ $ $ $ $ $ $ $ $ $ 2+[.$ $ $ $ $ $ $ $ $ $ $ $ o.<.$ $ $ $ *.. . . u - { /+$ . . ",
". . ) $ $ $ $ $ $ $ $ $ $ $ $ $ $ $ $ $ $ $ $ $ $ $ $ $ $ $ $ $ $ $ $ $ 7.>.=.I | $ [+;.$ . . ",
"  . C.$ $ $ $ $ $ $ $ $ $ $ $ $ $ $ $ $ $ $ $ $ $ $ $ $ $ $ $ $ $ $ $ $ $ $ $ $ $ $ $ $ ;+.   ",
"  . & %+) $ $ $ $ $ $ $ $ $ $ $ $ $ $ $ $ $ $ $ $ $ $ $ $ $ $ $ $ $ $ $ $ $ $ $ $ $ ) %+=..   ",
"    . . . . . . . . . . . . . . . . . . . . . . . . . . . . . . . . . . . . . . . . . . .     ",
"        . . . . . . . . . . . . . . . . . . . . . . . . . . . . . . . . . . . . . . .         "};
