/* XPM */
static const char* spades11_xpm[] = {
"47 62 184 2",
"  	c None",
". 	c #000000",
"+ 	c #2A2A2A",
"@ 	c #B0B0B0",
"# 	c #FCFCFC",
"$ 	c #FFFFFF",
"% 	c #B2B2B2",
"& 	c #2E2E2E",
"* 	c #BABABA",
"= 	c #FDFDFD",
"- 	c #F3F3F3",
"; 	c #AFAFAF",
"> 	c #C8C8C8",
", 	c #FEFEFE",
"' 	c #D9D9D9",
") 	c #4E4E4E",
"! 	c #B1B1B1",
"~ 	c #767676",
"{ 	c #B4B4B4",
"] 	c #303030",
"^ 	c #676767",
"/ 	c #585858",
"( 	c #525252",
"_ 	c #5C5C5C",
": 	c #1B1B1B",
"< 	c #DBDBDB",
"[ 	c #C1C1C1",
"} 	c #BFBFBF",
"| 	c #E5E5E5",
"1 	c #CFCFCF",
"2 	c #A5A5A5",
"3 	c #D2D2D2",
"4 	c #131313",
"5 	c #030303",
"6 	c #ABABAB",
"7 	c #D5D5D5",
"8 	c #151515",
"9 	c #050505",
"0 	c #B5B5B5",
"a 	c #EAEAEA",
"b 	c #171717",
"c 	c #080808",
"d 	c #878787",
"e 	c #595959",
"f 	c #F0F0F0",
"g 	c #E1E1E1",
"h 	c #C3C3C3",
"i 	c #BCBCBC",
"j 	c #CCCCCC",
"k 	c #DEDEDE",
"l 	c #EFEFEF",
"m 	c #A6A6A6",
"n 	c #C0C0C0",
"o 	c #969696",
"p 	c #6C6C6C",
"q 	c #414141",
"r 	c #181818",
"s 	c #010101",
"t 	c #545454",
"u 	c #919191",
"v 	c #E6E6E6",
"w 	c #FAFAFA",
"x 	c #959595",
"y 	c #636363",
"z 	c #484848",
"A 	c #707070",
"B 	c #818181",
"C 	c #EEEEEE",
"D 	c #F4F4F4",
"E 	c #B7B7B7",
"F 	c #777777",
"G 	c #373737",
"H 	c #040404",
"I 	c #ACACAC",
"J 	c #7C7C7C",
"K 	c #353535",
"L 	c #DDDDDD",
"M 	c #D4D4D4",
"N 	c #292929",
"O 	c #E9E9E9",
"P 	c #0F0F0F",
"Q 	c #717171",
"R 	c #A4A4A4",
"S 	c #2C2C2C",
"T 	c #535353",
"U 	c #505050",
"V 	c #ECECEC",
"W 	c #C9C9C9",
"X 	c #A7A7A7",
"Y 	c #848484",
"Z 	c #616161",
"` 	c #3E3E3E",
" .	c #1C1C1C",
"..	c #3D3D3D",
"+.	c #B8B8B8",
"@.	c #1E1E1E",
"#.	c #575757",
"$.	c #A0A0A0",
"%.	c #6A6A6A",
"&.	c #A3A3A3",
"*.	c #F9F9F9",
"=.	c #F1F1F1",
"-.	c #161616",
";.	c #7A7A7A",
">.	c #0A0A0A",
",.	c #252525",
"'.	c #202020",
").	c #696969",
"!.	c #282828",
"~.	c #737373",
"{.	c #D7D7D7",
"].	c #CBCBCB",
"^.	c #AAAAAA",
"/.	c #8A8A8A",
"(.	c #272727",
"_.	c #D3D3D3",
":.	c #101010",
"<.	c #5A5A5A",
"[.	c #4A4A4A",
"}.	c #888888",
"|.	c #8E8E8E",
"1.	c #C2C2C2",
"2.	c #4C4C4C",
"3.	c #939393",
"4.	c #EBEBEB",
"5.	c #C6C6C6",
"6.	c #1A1A1A",
"7.	c #979797",
"8.	c #4B4B4B",
"9.	c #F8F8F8",
"0.	c #7B7B7B",
"a.	c #404040",
"b.	c #0D0D0D",
"c.	c #EDEDED",
"d.	c #F2F2F2",
"e.	c #5D5D5D",
"f.	c #020202",
"g.	c #2F2F2F",
"h.	c #2B2B2B",
"i.	c #090909",
"j.	c #444444",
"k.	c #E7E7E7",
"l.	c #C7C7C7",
"m.	c #A9A9A9",
"n.	c #8B8B8B",
"o.	c #313131",
"p.	c #060606",
"q.	c #D6D6D6",
"r.	c #141414",
"s.	c #A8A8A8",
"t.	c #757575",
"u.	c #606060",
"v.	c #7F7F7F",
"w.	c #3A3A3A",
"x.	c #121212",
"y.	c #FBFBFB",
"z.	c #9F9F9F",
"A.	c #727272",
"B.	c #ADADAD",
"C.	c #C5C5C5",
"D.	c #4D4D4D",
"E.	c #6E6E6E",
"F.	c #868686",
"G.	c #5B5B5B",
"H.	c #0C0C0C",
"I.	c #232323",
"J.	c #8D8D8D",
"K.	c #F7F7F7",
"L.	c #1F1F1F",
"M.	c #A1A1A1",
"N.	c #828282",
"O.	c #343434",
"P.	c #CECECE",
"Q.	c #C4C4C4",
"R.	c #B9B9B9",
"S.	c #3F3F3F",
"T.	c #0E0E0E",
"U.	c #AEAEAE",
"V.	c #6D6D6D",
"W.	c #515151",
"X.	c #797979",
"Y.	c #BEBEBE",
"Z.	c #929292",
"`.	c #B6B6B6",
"        . . . . . . . . . . . . . . . . . . . . . . . . . . . . . . . . . . . . . . .         ",
"    . . . . . . . . . . . . . . . . . . . . . . . . . . . . . . . . . . . . . . . . . . .     ",
"  . + @ # $ $ $ $ $ $ $ $ $ $ $ $ $ $ $ $ $ $ $ $ $ $ $ $ $ $ $ $ $ $ $ $ $ $ $ $ $ # % & .   ",
"  . % $ $ $ $ $ $ $ $ $ $ $ $ $ $ $ $ $ $ $ $ $ $ $ $ $ $ $ $ $ $ $ $ $ $ $ $ $ $ $ $ $ * .   ",
". . = $ $ $ $ $ - ; > $ $ $ $ $ $ $ $ $ $ $ $ $ $ $ $ $ $ $ $ $ $ $ $ $ $ $ $ $ $ $ $ $ , . . ",
". . $ $ $ $ $ $ ' . ) $ $ $ $ $ $ $ $ $ $ $ $ $ $ $ $ $ $ $ $ $ $ $ $ $ $ $ $ $ $ $ $ $ $ . . ",
". . $ $ $ $ $ $ ' . ) $ $ $ $ $ $ $ $ $ $ $ $ $ $ $ $ $ $ $ $ $ $ $ $ $ $ $ $ $ $ $ $ $ $ . . ",
". . $ $ $ $ $ $ ' . ) $ $ $ $ $ $ $ $ $ $ $ $ $ $ $ $ $ $ $ $ $ $ $ $ $ $ $ $ $ $ $ $ $ $ . . ",
". . $ $ $ $ $ $ ' . ) $ $ $ $ $ $ $ $ $ $ $ $ $ $ $ $ $ $ $ $ $ $ $ $ $ $ $ $ $ $ $ $ $ $ . . ",
". . $ $ $ $ $ $ ' . ) $ $ $ $ $ $ $ $ $ $ $ $ $ $ $ $ $ $ $ $ $ $ $ $ $ $ $ $ $ $ $ $ $ $ . . ",
". . $ $ $ $ $ $ ' . ) $ $ $ $ $ $ $ $ $ $ $ $ $ $ $ $ $ $ $ $ $ $ $ $ $ $ $ $ $ $ $ $ $ $ . . ",
". . $ $ ! . ~ $ ' . ) $ $ $ $ $ $ $ $ $ $ $ $ $ $ $ $ $ $ $ $ $ $ $ $ $ $ $ $ $ $ $ $ $ $ . . ",
". . $ $ { . ] ^ / . ( $ $ $ $ $ $ $ $ $ $ $ $ $ $ $ $ $ $ $ $ $ $ $ $ $ $ $ $ $ $ $ $ $ $ . . ",
". . $ $ = _ . . . : < $ $ $ $ $ $ $ $ $ $ $ $ $ $ $ $ $ $ $ $ $ $ $ $ $ $ $ $ $ $ $ $ $ $ . . ",
". . $ $ $ = [ } } | $ $ $ $ $ $ $ $ $ $ $ $ $ $ $ $ $ $ $ $ $ $ $ $ $ $ $ $ $ $ $ $ $ $ $ . . ",
". . $ $ $ $ $ 1 2 $ $ $ $ $ $ $ $ $ $ $ $ $ $ $ $ $ $ $ $ $ $ $ $ $ $ $ $ $ $ $ $ $ $ $ $ . . ",
". . $ $ $ $ 3 4 5 6 $ $ $ $ $ $ $ $ $ $ $ $ $ $ $ $ $ $ $ $ $ $ $ $ $ $ $ $ $ $ $ $ $ $ $ . . ",
". . $ $ $ 7 8 . . 9 0 $ $ $ $ $ $ $ $ $ $ $ $ $ $ $ $ $ $ $ $ $ $ $ $ $ $ $ $ $ $ $ $ $ $ . . ",
". . $ $ a b . . . . c 1 $ $ $ $ $ $ $ $ $ $ $ $ $ $ $ $ $ $ $ $ $ $ $ $ $ $ $ $ $ $ $ $ $ . . ",
". . $ $ d . . . . . . e $ $ $ $ $ $ $ $ $ $ $ = f g 3 h i j k l $ $ $ $ $ $ $ $ $ $ $ $ $ . . ",
". . $ $ m . . . . . . ~ $ $ $ $ $ - n o p q r s . . . . . . . . r t u v $ $ $ $ $ $ $ $ $ . . ",
". . $ $ w x y z + A B C $ D E F G H . . . . . . . . . . . . . . . . . ' $ $ $ $ $ $ $ $ $ . . ",
". . $ $ $ $ I s . J $ $ $ * . . . . . . . . . . . . . . . . . . . . K $ $ $ $ $ $ $ $ $ $ . . ",
". . $ $ $ $ L 1 1 M $ $ $ , N . . . . . . . . . . . . . . . . . . . u $ $ $ $ $ $ $ $ $ $ . . ",
". . $ $ $ $ $ $ $ $ $ $ $ $ x . . . . . . . . . . . . . . . . . . 5 O $ $ $ $ $ $ $ $ $ $ . . ",
". . $ $ $ $ $ $ $ $ $ $ $ $ - P . . . . . . . . . . . . . . . . . z $ $ $ $ $ $ $ $ $ $ $ . . ",
". . $ $ $ $ $ $ $ $ $ $ $ $ $ Q . . . . . . . . . . . . . . . . . R $ $ $ $ $ $ $ $ $ $ $ . . ",
". . $ $ $ $ $ $ $ $ $ $ $ $ $ F . . . . . . . . . . . . S T ^ U . @ $ $ $ $ $ $ $ $ $ $ $ . . ",
". . $ $ $ $ $ $ $ $ $ $ $ $ $ $ V W X Y Z `  .s . . ..+.$ $ $ , @.#.$ $ $ $ $ $ $ $ $ $ $ . . ",
". . $ $ $ $ $ $ $ $ $ $ $ $ $.%.d &.n L *.$ =.-.. J $ $ $ $ $ $ ;.>.- $ $ $ $ $ $ $ $ $ $ . . ",
". . $ $ $ $ $ $ $ $ $ $ $ = ,.. . . . . s b '.. U $ $ $ ).!.~.$ {.. &.$ $ $ $ $ $ $ $ $ $ . . ",
". . $ $ $ $ $ $ $ $ $ $ $ $ $ V ].^./.).z (.. s _.$ $ = U :.<., $ K [.$ $ $ $ $ $ $ $ $ $ . . ",
". . $ $ $ $ $ $ $ $ $ $ $ }.|.m } {.l $ $ 1.. 2.$ $ $ $ $ $ $ $ $ 3.H 4.$ $ $ $ $ $ $ $ $ . . ",
". . $ $ $ $ $ $ $ $ $ $ 5.. . . . . . c '.6.. % $ $ $ $ $ $ $ $ $ 4.9 7.$ $ $ $ $ $ $ $ $ . . ",
". . $ $ $ $ $ $ $ $ $ $ {./.!.. . . . . . . 6.# $ $ $ $ $ $ $ $ $ $ 8...$ $ $ $ $ $ $ $ $ . . ",
". . $ $ $ $ $ $ $ $ $ $ $ 9.| '.. . . . . . 0.$ $ $ $ $ $ = ^.).a.b . b.c.$ $ $ $ $ $ $ $ . . ",
". . $ $ $ $ $ $ $ $ d.e.@.f.'./ . . . . . s k $ $ $ $ $ h g.. . . F 3 # $ $ $ $ $ $ $ $ $ . . ",
". . $ $ $ $ $ $ $ L h.. . . . i.. . . . . j.$ $ $ $ k._ . . . . . l.$ $ $ $ $ $ $ $ $ $ $ . . ",
". . $ $ $ $ $ $ $ a.. . . . . . . . . . . m.$ $ O n.b.. . . f.o.p.q.$ $ $ $ $ $ $ $ $ $ $ . . ",
". . $ $ $ $ $ $ # . . . . . . . . . . . r.*.$ $ f s.t.u.v.@ C , 9 | $ $ $ - w.(.!.].$ $ $ . . ",
". . $ $ $ $ $ $ = x.. . . . . . . . . . 3.$ $ y.$ $ $ $ $ $ $ V . D $ $ = E z.s A.B.D $ $ . . ",
". . $ $ $ $ $ $ $ ^ . . . . . . . . . t $ $ $ C._ D.E.0.F.Y ( : H $ $ $ G.. 9 H H.. 6.*.$ . . ",
". . $ $ $ $ $ $ $ 3 >.. . . . . . . (.=.$ $ $ $ $ ^.2.I.f.. . H (.$ $ = H.. . . . . . h $ . . ",
". . $ $ $ $ $ $ $ $ @ c . . . . r.J.K.$ $ $ $ $ $ $ $ $ K.k l $ $ $ $ $ e.. . . . . L.# $ . . ",
". . $ $ $ $ $ $ $ $ $ d.M.N.x ^.d.$ $ $ $ $ $ $ $ $ $ $ $ $ $ $ $ $ $ $ f O.. . . P P.$ $ . . ",
". . $ $ $ $ $ $ $ $ $ $ $ $ $ $ $ $ $ $ $ $ $ $ $ $ $ $ $ $ $ $ $ $ $ $ $ C o.. >.Q.$ $ $ . . ",
". . $ $ $ $ $ $ $ $ $ $ $ $ $ $ $ $ $ $ $ $ $ $ $ $ $ $ $ $ $ $ $ $ $ $ $ $ V K R.$ $ $ $ . . ",
". . $ $ $ $ $ $ $ $ $ $ $ $ $ $ $ $ $ $ $ $ $ $ $ $ $ $ $ $ $ $ $ $ $ $ $ $ $ = $ $ $ $ $ . . ",
". . $ $ $ $ $ $ $ $ $ $ $ $ $ $ $ $ $ $ $ $ $ $ $ $ $ $ $ $ $ $ $ $ $ $ $ > q S.S.N.$ $ $ . . ",
". . $ $ $ $ $ $ $ $ $ $ $ $ $ $ $ $ $ $ $ $ $ $ $ $ $ $ $ $ $ $ $ $ $ $ {.T.. . . . }.$ $ . . ",
". . $ $ $ $ $ $ $ $ $ $ $ $ $ $ $ $ $ $ $ $ $ $ $ $ $ $ $ $ $ $ $ $ $ $ U.. V.k.1.. W.$ $ . . ",
". . $ $ $ $ $ $ $ $ $ $ $ $ $ $ $ $ $ $ $ $ $ $ $ $ $ $ $ $ $ $ $ $ $ $ U.. X.$ 4.v.s.$ $ . . ",
". . $ $ $ $ $ $ $ $ $ $ $ $ $ $ $ $ $ $ $ $ $ $ $ $ $ $ $ $ $ $ $ $ $ $ U.. X.$ $ $ $ $ $ . . ",
". . $ $ $ $ $ $ $ $ $ $ $ $ $ $ $ $ $ $ $ $ $ $ $ $ $ $ $ $ $ $ $ $ $ $ U.. X.$ $ $ $ $ $ . . ",
". . $ $ $ $ $ $ $ $ $ $ $ $ $ $ $ $ $ $ $ $ $ $ $ $ $ $ $ $ $ $ $ $ $ $ U.. X.$ $ $ $ $ $ . . ",
". . $ $ $ $ $ $ $ $ $ $ $ $ $ $ $ $ $ $ $ $ $ $ $ $ $ $ $ $ $ $ $ $ $ $ U.. X.$ $ $ $ $ $ . . ",
". . $ $ $ $ $ $ $ $ $ $ $ $ $ $ $ $ $ $ $ $ $ $ $ $ $ $ $ $ $ $ $ $ $ $ U.. X.$ $ $ $ $ $ . . ",
". . , $ $ $ $ $ $ $ $ $ $ $ $ $ $ $ $ $ $ $ $ $ $ $ $ $ $ $ $ $ $ $ $ $ Y.g.Z.$ $ $ $ $ $ . . ",
"  . `.$ $ $ $ $ $ $ $ $ $ $ $ $ $ $ $ $ $ $ $ $ $ $ $ $ $ $ $ $ $ $ $ $ $ $ $ $ $ $ $ $ R..   ",
"  . & +., $ $ $ $ $ $ $ $ $ $ $ $ $ $ $ $ $ $ $ $ $ $ $ $ $ $ $ $ $ $ $ $ $ $ $ $ $ , +.g..   ",
"    . . . . . . . . . . . . . . . . . . . . . . . . . . . . . . . . . . . . . . . . . . .     ",
"        . . . . . . . . . . . . . . . . . . . . . . . . . . . . . . . . . . . . . . .         "};
