/* XPM */
static const char* spades12_xpm[] = {
"47 62 185 2",
"  	c None",
". 	c #000000",
"+ 	c #2A2A2A",
"@ 	c #B0B0B0",
"# 	c #FCFCFC",
"$ 	c #FFFFFF",
"% 	c #B2B2B2",
"& 	c #2E2E2E",
"* 	c #BABABA",
"= 	c #FDFDFD",
"- 	c #F9F9F9",
"; 	c #B1B1B1",
"> 	c #AFAFAF",
", 	c #DCDCDC",
"' 	c #FEFEFE",
") 	c #F8F8F8",
"! 	c #4B4B4B",
"~ 	c #131313",
"{ 	c #CECECE",
"] 	c #3B3B3B",
"^ 	c #7F7F7F",
"/ 	c #6C6C6C",
"( 	c #4F4F4F",
"_ 	c #767676",
": 	c #D9D9D9",
"< 	c #4E4E4E",
"[ 	c #F3F3F3",
"} 	c #B4B4B4",
"| 	c #303030",
"1 	c #323232",
"2 	c #0F0F0F",
"3 	c #525252",
"4 	c #5C5C5C",
"5 	c #BFBFBF",
"6 	c #C1C1C1",
"7 	c #010101",
"8 	c #A1A1A1",
"9 	c #A3A3A3",
"0 	c #CFCFCF",
"a 	c #020202",
"b 	c #161616",
"c 	c #D8D8D8",
"d 	c #A7A7A7",
"e 	c #030303",
"f 	c #1C1C1C",
"g 	c #DFDFDF",
"h 	c #C8C8C8",
"i 	c #B8B8B8",
"j 	c #BBBBBB",
"k 	c #BDBDBD",
"l 	c #040404",
"m 	c #222222",
"n 	c #F5F5F5",
"o 	c #F7F7F7",
"p 	c #282828",
"q 	c #888888",
"r 	c #A9A9A9",
"s 	c #0A0A0A",
"t 	c #0C0C0C",
"u 	c #CCCCCC",
"v 	c #474747",
"w 	c #999999",
"x 	c #747474",
"y 	c #757575",
"z 	c #565656",
"A 	c #797979",
"B 	c #171717",
"C 	c #DDDDDD",
"D 	c #666666",
"E 	c #B6B6B6",
"F 	c #BCBCBC",
"G 	c #0E0E0E",
"H 	c #545454",
"I 	c #080808",
"J 	c #C7C7C7",
"K 	c #EAEAEA",
"L 	c #7A7A7A",
"M 	c #202020",
"N 	c #515151",
"O 	c #606060",
"P 	c #9B9B9B",
"Q 	c #4A4A4A",
"R 	c #181818",
"S 	c #686868",
"T 	c #B9B9B9",
"U 	c #707070",
"V 	c #979797",
"W 	c #656565",
"X 	c #D1D1D1",
"Y 	c #E0E0E0",
"Z 	c #B3B3B3",
"` 	c #0B0B0B",
" .	c #5B5B5B",
"..	c #E6E6E6",
"+.	c #ECECEC",
"@.	c #585858",
"#.	c #252525",
"$.	c #F1F1F1",
"%.	c #7E7E7E",
"&.	c #D2D2D2",
"*.	c #141414",
"=.	c #FBFBFB",
"-.	c #121212",
";.	c #777777",
">.	c #8F8F8F",
",.	c #1E1E1E",
"'.	c #454545",
").	c #2B2B2B",
"!.	c #373737",
"~.	c #D4D4D4",
"{.	c #C3C3C3",
"].	c #F4F4F4",
"^.	c #070707",
"/.	c #F6F6F6",
"(.	c #6E6E6E",
"_.	c #7B7B7B",
":.	c #EEEEEE",
"<.	c #696969",
"[.	c #212121",
"}.	c #5A5A5A",
"|.	c #FAFAFA",
"1.	c #333333",
"2.	c #444444",
"3.	c #C2C2C2",
"4.	c #232323",
"5.	c #EFEFEF",
"6.	c #5D5D5D",
"7.	c #E8E8E8",
"8.	c #313131",
"9.	c #3F3F3F",
"0.	c #AEAEAE",
"a.	c #E9E9E9",
"b.	c #F0F0F0",
"c.	c #6A6A6A",
"d.	c #DBDBDB",
"e.	c #838383",
"f.	c #858585",
"g.	c #191919",
"h.	c #727272",
"i.	c #B7B7B7",
"j.	c #7D7D7D",
"k.	c #3A3A3A",
"l.	c #050505",
"m.	c #272727",
"n.	c #F2F2F2",
"o.	c #262626",
"p.	c #A0A0A0",
"q.	c #353535",
"r.	c #E7E7E7",
"s.	c #ADADAD",
"t.	c #737373",
"u.	c #9F9F9F",
"v.	c #505050",
"w.	c #828282",
"x.	c #404040",
"y.	c #EBEBEB",
"z.	c #1F1F1F",
"A.	c #090909",
"B.	c #060606",
"C.	c #535353",
"D.	c #6F6F6F",
"E.	c #C9C9C9",
"F.	c #ACACAC",
"G.	c #2D2D2D",
"H.	c #1B1B1B",
"I.	c #EDEDED",
"J.	c #8A8A8A",
"K.	c #CDCDCD",
"L.	c #111111",
"M.	c #2F2F2F",
"N.	c #E2E2E2",
"O.	c #A2A2A2",
"P.	c #929292",
"Q.	c #E3E3E3",
"R.	c #CBCBCB",
"S.	c #101010",
"T.	c #CACACA",
"U.	c #787878",
"V.	c #151515",
"W.	c #363636",
"X.	c #D7D7D7",
"Y.	c #494949",
"Z.	c #646464",
"`.	c #D6D6D6",
" +	c #717171",
"        . . . . . . . . . . . . . . . . . . . . . . . . . . . . . . . . . . . . . . .         ",
"    . . . . . . . . . . . . . . . . . . . . . . . . . . . . . . . . . . . . . . . . . . .     ",
"  . + @ # $ $ $ $ $ $ $ $ $ $ $ $ $ $ $ $ $ $ $ $ $ $ $ $ $ $ $ $ $ $ $ $ $ $ $ $ $ # % & .   ",
"  . % $ $ $ $ $ $ $ $ $ $ $ $ $ $ $ $ $ $ $ $ $ $ $ $ $ $ $ $ $ $ $ $ $ $ $ $ $ $ $ $ $ * .   ",
". . = $ $ - ; > > , $ $ $ $ $ $ $ $ $ $ $ $ $ $ $ $ $ $ $ $ $ $ $ $ $ $ $ $ $ $ $ $ $ $ ' . . ",
". . $ $ ) ! . . . ~ { $ $ $ $ $ $ $ $ $ $ $ $ $ $ $ $ $ $ $ $ $ $ $ $ $ $ $ $ $ $ $ $ $ $ . . ",
". . $ $ ; . ] ^ / . ( $ $ $ $ $ $ $ $ $ $ $ $ $ $ $ $ $ $ $ $ $ $ $ $ $ $ $ $ $ $ $ $ $ $ . . ",
". . $ $ ; . _ $ : . < $ $ $ $ $ $ $ $ $ $ $ $ $ $ $ $ $ $ $ $ $ $ $ $ $ $ $ $ $ $ $ $ $ $ . . ",
". . $ $ ; . _ $ : . < $ $ $ $ $ $ $ $ $ $ $ $ $ $ $ $ $ $ $ $ $ $ $ $ $ $ $ $ $ $ $ $ $ $ . . ",
". . $ $ ; . _ $ : . < $ $ $ $ $ $ $ $ $ $ $ $ $ $ $ $ $ $ $ $ $ $ $ $ $ $ $ $ $ $ $ $ $ $ . . ",
". . $ $ ; . _ $ : . < $ $ $ $ $ $ $ $ $ $ $ $ $ $ $ $ $ $ $ $ $ $ $ $ $ $ $ $ $ $ $ $ $ $ . . ",
". . $ $ ; . _ [ * . < $ $ $ $ $ $ $ $ $ $ $ $ $ $ $ $ $ $ $ $ $ $ $ $ $ $ $ $ $ $ $ $ $ $ . . ",
". . $ $ } . | 1 2 . 3 $ $ $ $ $ $ $ $ $ $ $ $ $ $ $ $ $ $ $ $ $ $ $ $ $ $ $ $ $ $ $ $ $ $ . . ",
". . $ $ = 4 . . . . 5 $ $ $ $ $ $ $ $ $ $ $ $ $ $ $ $ $ $ $ $ $ $ $ $ $ $ $ $ $ $ $ $ $ $ . . ",
". . $ $ $ = 6 5 4 7 8 $ $ $ $ $ $ $ $ $ $ $ $ $ $ $ $ $ $ $ $ $ $ $ $ $ $ $ $ $ $ $ $ $ $ . . ",
". . $ $ $ $ $ 9 0 5 $ $ $ $ $ $ $ $ $ $ $ $ $ $ $ $ $ $ $ $ $ $ $ $ $ $ $ $ $ $ $ $ $ $ $ . . ",
". . $ $ $ $ 9 a b c $ $ $ $ $ $ $ $ $ $ $ $ $ $ $ $ $ $ $ $ $ $ $ $ $ $ $ $ $ $ $ $ $ $ $ . . ",
". . $ $ $ d e . . f g $ $ $ $ $ $ $ $ $ $ $ $ h i $ $ $ $ 0 j $ $ $ $ $ $ $ $ $ $ $ $ $ $ . . ",
". . $ $ k l . . . . m n $ $ $ $ $ $ $ $ $ $ o p a q $ $ r s t u $ $ ' h $ $ $ $ $ $ $ $ $ . . ",
". . $ $ v . . . . . . w $ $ $ $ $ $ x @ ) $ y . . . z A . . . B C % & A $ $ $ $ $ $ $ $ $ . . ",
". . $ $ D . . . . . . E $ $ $ $ $ F . . G H a . . . . . . . . . I . . J $ $ $ $ $ $ $ $ $ . . ",
". . $ $ K L y M N O P ' $ $ $ $ $ Q . . . . . . . . . . . . . . . . R ' $ $ $ $ $ $ $ $ $ . . ",
". . $ $ $ $ S . e T $ $ = U U V d 7 . . . . . . . . . . . . . . . . W $ $ $ $ $ $ $ $ $ $ . . ",
". . $ $ $ $ X 0 0 Y $ $ $ X I . . . . . . . . . . . . . . . . . . . Z $ $ $ $ $ $ $ $ $ $ . . ",
". . $ $ $ $ $ $ $ $ $ $ $ $ V . . . . . . . . . . . . . . a . . . ` o $ $ $ $ $ $ $ $ $ $ . . ",
". . $ $ $ $ $ $ $ $ $ $ $ $ $ z . . . . . . . . . .  .> ..= +.c @.#.$ $ $ $ $ $ $ $ $ $ $ . . ",
". . $ $ $ $ $ $ $ $ $ $ $ $ $ $.m . . . . . . . . %.$ $ $ $ $ $ * . &.$ $ $ $ $ $ $ $ $ $ . . ",
". . $ $ $ $ $ $ $ $ $ $ $ $ $ $ } . . . . . . . *.) $ $ $ $ $ $ =.-.;.$ $ $ $ $ $ $ $ $ $ . . ",
". . $ $ $ $ $ $ $ $ $ $ $ $ $ $ >.. . . . . . . D $ $ $ $ $ $ $ $ O ,.' $ $ $ $ $ $ $ $ $ . . ",
". . $ $ $ $ $ $ $ $ $ $ $ $ $ $ '.. . . . . . . F $ $ $ $ 9 ).!.~.Z . {.$ $ $ $ $ $ $ $ $ . . ",
". . $ $ $ $ $ $ $ $ $ $ $ $ $ ].^.. . . . . . a /.$ $ $ $ X (._.:.) G <.$ $ $ $ $ $ $ $ $ . . ",
". . $ $ $ $ $ $ $ $ $ $ $ $ $ 9 . . . . . . . [.$ $ $ $ $ $ $ $ $ $ }.~ |.$ $ $ $ $ $ $ $ . . ",
". . $ $ $ $ $ $ $ $ $ $ $ $ $ 1.. . . . . . . 2.$ $ $ $ $ $ $ $ $ $ ^ . } $ $ $ $ $ $ $ $ . . ",
". . $ $ $ $ $ $ $ $ $ $ $ $ 3.. . . . . . . . 4.$ $ $ $ $ $ $ $ =.(.. t d $ $ $ $ $ $ $ $ . . ",
". . $ $ $ $ $ $ $ $ $ $ $ $ ( . . . . . . . . . 5.$ $ $ $ $ $ $ ~.. 6.7.$ $ $ $ $ $ $ $ $ . . ",
". . $ $ $ $ $ $ $ $ $ $ $ {.. . . . . . . . . . T $ $ $ $ $ $ $ 6 . &.$ $ $ $ $ $ $ $ $ $ . . ",
". . $ $ $ $ $ $ $ $ $ $ = 8.. . . . . . . . . . 9.$ $ $ $ $ $ $ 0.. a.$ $ $ $ $ $ $ $ $ $ . . ",
". . $ $ $ $ $ $ $ $ $ $ P . . . . . . . . . . -.. d $ $ $ $ $ $ P e = $ $ $ $ $ $ $ $ $ $ . . ",
". . $ $ $ $ $ $ $ $ $ b.b . . . . . . . . . c.d . f ].d.x ^ e.f.Q g.$ $ $ $ $ $ $ $ $ $ $ . . ",
". . $ $ $ $ $ $ $ $ $ h.. . . . . . . . . %.' i.. . P $ K j.k.l.. | $ $ $ { p m.!.n.$ $ $ . . ",
". . $ $ $ $ $ $ $ $ /.o.. . . . . . . t d $ p.l.. q.) $ $ $ $ ' 5.r.$ $ n s.t.7 u.E = $ $ . . ",
". . $ $ $ $ $ $ $ # 7.= } v.#.I G k.w.:.- _.. . x.y.$ $ $ $ $ $ $ $ $ =.z.. A.l.B.. C.$ $ . . ",
". . $ $ $ $ $ $ $ %.-.r $ $ $ $ $ $ $ j m.. . D.=.$ $ $ $ $ $ $ $ $ $ E.. . . . . . I |.$ . . ",
". . $ $ $ $ $ $ # D A.. z.D F.J E ^ G.. . ` 8 $ $ $ $ $ $ $ $ $ $ $ $ # H.. . . . .  .$ $ . . ",
". . $ $ $ $ $ $ $ $ I.J.M . . . . . . H.q :.$ $ $ $ $ $ $ $ $ $ $ $ $ $ K.L.. . . M.5.$ $ . . ",
". . $ $ $ $ $ $ $ $ $ $ ' N.3.O.P.i Q.$ $ $ $ $ $ $ $ $ $ $ $ $ $ $ $ $ $ R.S.. o.a.$ $ $ . . ",
". . $ $ $ $ $ $ $ $ $ $ $ $ $ $ $ $ $ $ $ $ $ $ $ $ $ $ $ $ $ $ $ $ $ $ $ $ T.G.N.$ $ $ $ . . ",
". . $ $ $ $ $ $ $ $ $ $ $ $ $ $ $ $ $ $ $ $ $ $ $ $ $ $ $ $ $ $ $ $ $ $ $ U.j.= $ $ $ $ $ . . ",
". . $ $ $ $ $ $ $ $ $ $ $ $ $ $ $ $ $ $ $ $ $ $ $ $ $ $ $ $ $ $ $ $ $ $ ..V.. W.9.w.$ $ $ . . ",
". . $ $ $ $ $ $ $ $ $ $ $ $ $ $ $ $ $ $ $ $ $ $ $ $ $ $ $ $ $ $ $ $ $ $ X.G . . . . q $ $ . . ",
". . $ $ $ $ $ $ $ $ $ $ $ $ $ $ $ $ $ $ $ $ $ $ $ $ $ $ $ $ $ $ $ $ $ $ 0.. Y.Z.6 . N $ $ . . ",
". . $ $ $ $ $ $ $ $ $ $ $ $ $ $ $ $ $ $ $ $ $ $ $ $ $ $ $ $ $ $ $ $ $ $ 0.. A $ `.. N $ $ . . ",
". . $ $ $ $ $ $ $ $ $ $ $ $ $ $ $ $ $ $ $ $ $ $ $ $ $ $ $ $ $ $ $ $ $ $ 0.. A $ `.. N $ $ . . ",
". . $ $ $ $ $ $ $ $ $ $ $ $ $ $ $ $ $ $ $ $ $ $ $ $ $ $ $ $ $ $ $ $ $ $ 0.. A $ `.. N $ $ . . ",
". . $ $ $ $ $ $ $ $ $ $ $ $ $ $ $ $ $ $ $ $ $ $ $ $ $ $ $ $ $ $ $ $ $ $ 0.. A $ `.. N $ $ . . ",
". . $ $ $ $ $ $ $ $ $ $ $ $ $ $ $ $ $ $ $ $ $ $ $ $ $ $ $ $ $ $ $ $ $ $ 0.. A $ `.. N $ $ . . ",
". . $ $ $ $ $ $ $ $ $ $ $ $ $ $ $ $ $ $ $ $ $ $ $ $ $ $ $ $ $ $ $ $ $ $ 0 I . . . . L $ $ . . ",
". . ' $ $ $ $ $ $ $ $ $ $ $ $ $ $ $ $ $ $ $ $ $ $ $ $ $ $ $ $ $ $ $ $ $ $ j 8.M.M. +' $ $ . . ",
"  . E $ $ $ $ $ $ $ $ $ $ $ $ $ $ $ $ $ $ $ $ $ $ $ $ $ $ $ $ $ $ $ $ $ $ $ $ $ $ $ $ $ T .   ",
"  . & i ' $ $ $ $ $ $ $ $ $ $ $ $ $ $ $ $ $ $ $ $ $ $ $ $ $ $ $ $ $ $ $ $ $ $ $ $ $ ' i M..   ",
"    . . . . . . . . . . . . . . . . . . . . . . . . . . . . . . . . . . . . . . . . . . .     ",
"        . . . . . . . . . . . . . . . . . . . . . . . . . . . . . . . . . . . . . . .         "};
