/* XPM */
static const char* spades13_xpm[] = {
"47 62 208 2",
"  	c None",
". 	c #000000",
"+ 	c #2A2A2A",
"@ 	c #B0B0B0",
"# 	c #FCFCFC",
"$ 	c #FFFFFF",
"% 	c #B2B2B2",
"& 	c #2E2E2E",
"* 	c #BABABA",
"= 	c #FDFDFD",
"- 	c #D3D3D3",
"; 	c #AFAFAF",
"> 	c #E9E9E9",
", 	c #D8D8D8",
"' 	c #CFCFCF",
") 	c #FEFEFE",
"! 	c #717171",
"~ 	c #B6B6B6",
"{ 	c #F9F9F9",
"] 	c #262626",
"^ 	c #010101",
"/ 	c #C6C6C6",
"( 	c #8A8A8A",
"_ 	c #5C5C5C",
": 	c #9E9E9E",
"< 	c #0D0D0D",
"[ 	c #0C0C0C",
"} 	c #E5E5E5",
"| 	c #202020",
"1 	c #868686",
"2 	c #030303",
"3 	c #EDEDED",
"4 	c #7D7D7D",
"5 	c #A3A3A3",
"6 	c #121212",
"7 	c #080808",
"8 	c #DFDFDF",
"9 	c #949494",
"0 	c #535353",
"a 	c #2C2C2C",
"b 	c #BEBEBE",
"c 	c #DCDCDC",
"d 	c #BFBFBF",
"e 	c #E1E1E1",
"f 	c #A5A5A5",
"g 	c #D2D2D2",
"h 	c #131313",
"i 	c #ABABAB",
"j 	c #D5D5D5",
"k 	c #151515",
"l 	c #050505",
"m 	c #B5B5B5",
"n 	c #F3F3F3",
"o 	c #EBEBEB",
"p 	c #EAEAEA",
"q 	c #171717",
"r 	c #8C8C8C",
"s 	c #F4F4F4",
"t 	c #343434",
"u 	c #6C6C6C",
"v 	c #737373",
"w 	c #E6E6E6",
"x 	c #878787",
"y 	c #595959",
"z 	c #414141",
"A 	c #CACACA",
"B 	c #585858",
"C 	c #4A4A4A",
"D 	c #5F5F5F",
"E 	c #020202",
"F 	c #484848",
"G 	c #CCCCCC",
"H 	c #5B5B5B",
"I 	c #A6A6A6",
"J 	c #767676",
"K 	c #434343",
"L 	c #141414",
"M 	c #505050",
"N 	c #040404",
"O 	c #1D1D1D",
"P 	c #4C4C4C",
"Q 	c #515151",
"R 	c #FAFAFA",
"S 	c #959595",
"T 	c #636363",
"U 	c #707070",
"V 	c #818181",
"W 	c #EEEEEE",
"X 	c #F6F6F6",
"Y 	c #A0A0A0",
"Z 	c #DEDEDE",
"` 	c #ACACAC",
" .	c #7C7C7C",
"..	c #5E5E5E",
"+.	c #090909",
"@.	c #313131",
"#.	c #DDDDDD",
"$.	c #D4D4D4",
"%.	c #F7F7F7",
"&.	c #363636",
"*.	c #777777",
"=.	c #D0D0D0",
"-.	c #6D6D6D",
";.	c #5D5D5D",
">.	c #0A0A0A",
",.	c #E3E3E3",
"'.	c #787878",
").	c #757575",
"!.	c #747474",
"~.	c #C5C5C5",
"{.	c #F1F1F1",
"].	c #424242",
"^.	c #C3C3C3",
"/.	c #9B9B9B",
"(.	c #333333",
"_.	c #3D3D3D",
":.	c #F2F2F2",
"<.	c #575757",
"[.	c #8E8E8E",
"}.	c #C2C2C2",
"|.	c #FBFBFB",
"1.	c #232323",
"2.	c #8D8D8D",
"3.	c #212121",
"4.	c #4E4E4E",
"5.	c #282828",
"6.	c #555555",
"7.	c #A2A2A2",
"8.	c #272727",
"9.	c #3A3A3A",
"0.	c #3E3E3E",
"a.	c #4D4D4D",
"b.	c #616161",
"c.	c #696969",
"d.	c #A8A8A8",
"e.	c #0E0E0E",
"f.	c #E4E4E4",
"g.	c #B1B1B1",
"h.	c #808080",
"i.	c #C7C7C7",
"j.	c #565656",
"k.	c #242424",
"l.	c #F0F0F0",
"m.	c #252525",
"n.	c #848484",
"o.	c #303030",
"p.	c #3F3F3F",
"q.	c #979797",
"r.	c #6F6F6F",
"s.	c #8B8B8B",
"t.	c #404040",
"u.	c #ADADAD",
"v.	c #1A1A1A",
"w.	c #F5F5F5",
"x.	c #E0E0E0",
"y.	c #B9B9B9",
"z.	c #646464",
"A.	c #838383",
"B.	c #9C9C9C",
"C.	c #474747",
"D.	c #939393",
"E.	c #626262",
"F.	c #181818",
"G.	c #A4A4A4",
"H.	c #6A6A6A",
"I.	c #1F1F1F",
"J.	c #9A9A9A",
"K.	c #5A5A5A",
"L.	c #BBBBBB",
"M.	c #EFEFEF",
"N.	c #606060",
"O.	c #101010",
"P.	c #CDCDCD",
"Q.	c #B7B7B7",
"R.	c #828282",
"S.	c #1E1E1E",
"T.	c #222222",
"U.	c #9F9F9F",
"V.	c #797979",
"W.	c #DADADA",
"X.	c #F8F8F8",
"Y.	c #CBCBCB",
"Z.	c #323232",
"`.	c #727272",
" +	c #2F2F2F",
".+	c #BDBDBD",
"++	c #2B2B2B",
"@+	c #B3B3B3",
"#+	c #ECECEC",
"$+	c #919191",
"%+	c #666666",
"&+	c #1B1B1B",
"*+	c #969696",
"=+	c #D6D6D6",
"-+	c #444444",
";+	c #0F0F0F",
">+	c #CECECE",
",+	c #C4C4C4",
"'+	c #353535",
")+	c #686868",
"!+	c #7E7E7E",
"~+	c #161616",
"{+	c #111111",
"]+	c #929292",
"^+	c #545454",
"/+	c #4B4B4B",
"(+	c #060606",
"_+	c #B8B8B8",
"        . . . . . . . . . . . . . . . . . . . . . . . . . . . . . . . . . . . . . . .         ",
"    . . . . . . . . . . . . . . . . . . . . . . . . . . . . . . . . . . . . . . . . . . .     ",
"  . + @ # $ $ $ $ $ $ $ $ $ $ $ $ $ $ $ $ $ $ $ $ $ $ $ $ $ $ $ $ $ $ $ $ $ $ $ $ $ # % & .   ",
"  . % $ $ $ $ $ $ $ $ $ $ $ $ $ $ $ $ $ $ $ $ $ $ $ $ $ $ $ $ $ $ $ $ $ $ $ $ $ $ $ $ $ * .   ",
". . = $ - ; > $ , ; ' $ $ $ $ $ $ $ $ $ $ $ $ $ $ $ $ $ $ $ $ $ $ $ $ $ $ $ $ $ $ $ $ $ ) . . ",
". . $ $ ! . ~ { ] ^ / $ $ $ $ $ $ $ $ $ $ $ $ $ $ $ $ $ $ $ $ $ $ $ $ $ $ $ $ $ $ $ $ $ $ . . ",
". . $ $ ! . ~ ( . _ $ $ $ $ $ $ $ $ $ $ $ $ $ $ $ $ $ $ $ $ $ $ $ $ $ $ $ $ $ $ $ $ $ $ $ . . ",
". . $ $ ! . : < [ } $ $ $ $ $ $ $ $ $ $ $ $ $ $ $ $ $ $ $ $ $ $ $ $ $ $ $ $ $ $ $ $ $ $ $ . . ",
". . $ $ ! . | . 1 $ $ $ $ $ $ $ $ $ $ $ $ $ $ $ $ $ $ $ $ $ $ $ $ $ $ $ $ $ $ $ $ $ $ $ $ . . ",
". . $ $ ! . . 2 3 $ $ $ $ $ $ $ $ $ $ $ $ $ $ $ $ $ $ $ $ $ $ $ $ $ $ $ $ $ $ $ $ $ $ $ $ . . ",
". . $ $ ! . ] . 4 $ $ $ $ $ $ $ $ $ $ $ $ $ $ $ $ $ $ $ $ $ $ $ $ $ $ $ $ $ $ $ $ $ $ $ $ . . ",
". . $ $ ! . 5 6 7 8 $ $ $ $ $ $ $ $ $ $ $ $ $ $ $ $ $ $ $ $ $ $ $ $ $ $ $ $ $ $ $ $ $ $ $ . . ",
". . $ $ ! . ~ 9 . 0 $ $ $ $ $ $ $ $ $ $ $ $ $ $ $ $ $ $ $ $ $ $ $ $ $ $ $ $ $ $ $ $ $ $ $ . . ",
". . $ $ ! . ~ # a . b $ $ $ $ $ $ $ $ $ $ $ $ $ $ $ $ $ $ $ $ $ $ $ $ $ $ $ $ $ $ $ $ $ $ . . ",
". . $ $ c d 3 $ e d , $ $ $ $ $ $ $ $ $ $ $ $ $ $ $ $ $ $ $ $ $ $ $ $ $ $ $ $ $ $ $ $ $ $ . . ",
". . $ $ $ $ $ ' f $ $ $ $ $ $ $ $ $ $ $ $ $ $ $ $ $ $ $ $ $ $ $ $ $ $ $ $ $ $ $ $ $ $ $ $ . . ",
". . $ $ $ $ g h 2 i $ $ $ $ $ $ $ $ $ $ $ $ $ $ $ $ $ $ $ $ $ $ $ $ $ $ $ $ $ $ $ $ $ $ $ . . ",
". . $ $ $ j k . . l m $ $ $ $ $ $ $ $ $ $ $ $ n $ $ $ $ $ o $ $ $ $ $ $ $ $ $ $ $ $ $ $ $ . . ",
". . $ $ p q . . . . 7 ' $ $ $ $ $ ) r = $ $ s t u # $ $ v + w $ $ $ $ $ $ $ $ $ $ $ $ $ $ . . ",
". . $ $ x . . . . . . y $ $ $ $ $ 5 2 z A $ B . . C w D E . F = $ G H > $ $ $ $ $ $ $ $ $ . . ",
". . $ $ I . . . . . . J $ $ $ $ $ K . . L M N . . . O . . . . B P [ Q $ $ $ $ $ $ $ $ $ $ . . ",
". . $ $ R S T F + U V W X Y Z $ m l . . . . . . . . . . . . . . . ^ 5 $ $ $ $ $ $ $ $ $ $ . . ",
". . $ $ $ $ ` ^ .  .$ $ $ ..+.] ] . . . . . . . . . . . . . . . . @.# $ $ $ $ $ $ $ $ $ $ . . ",
". . $ $ $ $ #.' ' $.$ $ $ %.&.. . . . . . . . . . . . . . . . . . *.$ $ $ $ $ $ $ $ $ $ $ . . ",
". . $ $ $ $ $ $ $ $ $ $ $ $ / k . . . . . . . . . . . . . . . . ^ =.$ $ $ $ $ $ $ $ $ $ $ . . ",
". . $ $ $ $ $ $ $ $ $ $ $ $ $ -.. . . . . . . . . . . . . . . . l Z $ $ $ $ $ $ $ $ $ $ $ . . ",
". . $ $ $ $ $ $ $ $ $ $ $ $ $ ;.. . . . . . . . . . . . . . . . >.,.$ $ $ $ $ $ $ $ $ $ $ . . ",
". . $ $ $ $ $ $ $ $ $ $ $ $ $ r '.*.*.J J J J J ).).!.!.!.!.v _ 2 ~.$ $ $ $ $ $ $ $ $ $ $ . . ",
". . $ $ $ $ $ $ $ $ $ $ $ $ {.].^./.(.~ *._.:.<.[.$ $ $ $ 5 }.|.1.v $ $ $ $ $ $ $ $ $ $ $ . . ",
". . $ $ $ $ $ $ $ $ $ $ $ $ 2.3.X 4.5.X 5.6.7.^ I $ $ $ - 8.9.{.;.0.$ $ $ $ $ $ $ $ $ $ $ . . ",
". . $ $ $ $ $ $ $ $ $ $ $ $ a.b.w k c.5 . : _ ] R $ $ $ $ :.# $ d.e.f.$ $ $ $ $ $ $ $ $ $ . . ",
". . $ $ $ $ $ $ $ $ $ $ $ W k g.h.7 i.j.k.l.3...$ $ $ $ $ $ $ $ # m.n.$ $ $ $ $ $ $ $ $ $ . . ",
". . $ $ $ $ $ $ $ $ $ $ $ ( o.) ].p.$ q.g.}.2 x $ $ $ $ $ $ $ $ $ b.4.$ $ $ $ $ $ $ $ $ $ . . ",
". . $ $ $ $ $ $ $ $ $ $ $ ].r.# s.^.$ $ $ $ K t.= $ $ $ $ $ $ $ $ u.v.w.$ $ $ $ $ $ $ $ $ . . ",
". . $ $ $ $ $ $ $ $ $ $ $ d #.$ $ $ $ $ |.x.y.h z.$ $ $ $ X m A. .'.6 B.$ $ $ $ $ $ $ $ $ . . ",
". . $ $ $ $ $ $ $ $ $ R Q < e.r.$ $ $ $ 4 C.$ D.>.E.|.e j.F.+.L < C._ G.$ $ $ $ $ $ $ $ $ . . ",
". . $ $ $ $ $ $ $ $ ) B e.j.H.3.m $ $ p I.2 J.$ Y 1.0.k.K.L.w d.e.M.$ $ $ $ $ $ $ $ $ $ $ . . ",
". . $ $ $ $ $ $ $ $ i.2 J $ $ l.G.$ $ N.h O.k.G $ P.m.i.$ $ $ Q.. @ $ $ $ $ $ $ $ $ $ $ $ . . ",
". . $ $ $ $ $ $ $ $ R.E / $ $ $ $ $ A O.v d.S.T.}.b x.$ $ $ $ %.I.-.$ $ $ $ $ $ $ $ $ $ $ . . ",
". . $ $ $ $ $ $ $ $ U.. V.$ $ $ $ W.t t X.$ Y.Z.q `.X $ $ $ $ $ Q  += $ $ n 9.8.5.Y.$ $ $ . . ",
". . $ $ $ $ $ $ $ $ %.8.T.; $ $ .+5.O.@ $ $ $ X.4 I.] N.[.7.L.P.0 E ` $ = Q.U.^ `.u.s $ $ . . ",
". . $ $ $ $ $ $ $ $ $ d 3.>.0.(.L ++@+$ $ $ $ $ $ #+$+%+0.q ^ < &+(.*+$ H . l N [ . v.{ $ . . ",
". . $ $ $ $ $ $ $ $ $ $ =+).-+6.`.> $ $ $ $ $ $ $ $ $ $ $ n j o = $ $ = [ . . . . . . ^.$ . . ",
". . $ $ $ $ $ $ $ $ $ $ $ $ $ $ $ $ $ $ $ $ $ $ $ $ $ $ $ $ $ $ $ $ $ $ ;.. . . . . I.# $ . . ",
". . $ $ $ $ $ $ $ $ $ $ $ $ $ $ $ $ $ $ $ $ $ $ $ $ $ $ $ $ $ $ $ $ $ $ l.t . . . ;+>+$ $ . . ",
". . $ $ $ $ $ $ $ $ $ $ $ $ $ $ $ $ $ $ $ $ $ $ $ $ $ $ $ $ $ $ $ $ $ $ $ W @.. >.,+$ $ $ . . ",
". . $ $ $ $ $ $ $ $ $ $ $ $ $ $ $ $ $ $ $ $ $ $ $ $ $ $ $ $ $ $ $ $ $ $ $ $ #+'+y.$ $ $ $ . . ",
". . $ $ $ $ $ $ $ $ $ $ $ $ $ $ $ $ $ $ $ $ $ $ $ $ $ $ $ $ $ $ $ $ $ $ $ $ $ = $ $ $ $ $ . . ",
". . $ $ $ $ $ $ $ $ $ $ $ $ $ $ $ $ $ $ $ $ $ $ $ $ $ $ $ $ $ $ $ $ $ $ > K C w.$ Q P $ $ . . ",
". . $ $ $ $ $ $ $ $ $ $ $ $ $ $ $ $ $ $ $ $ $ $ $ $ $ $ $ $ $ $ $ $ $ $ $ )+. !+$ ~+{+$ $ . . ",
". . $ $ $ $ $ $ $ $ $ $ $ $ $ $ $ $ $ $ $ $ $ $ $ $ $ $ $ $ $ $ $ $ $ $ $ #+{++.x.~+{+$ $ . . ",
". . $ $ $ $ $ $ $ $ $ $ $ $ $ $ $ $ $ $ $ $ $ $ $ $ $ $ $ $ $ $ $ $ $ $ $ $ ]+. ^+~+{+$ $ . . ",
". . $ $ $ $ $ $ $ $ $ $ $ $ $ $ $ $ $ $ $ $ $ $ $ $ $ $ $ $ $ $ $ $ $ $ $ $ |.++. 2 {+$ $ . . ",
". . $ $ $ $ $ $ $ $ $ $ $ $ $ $ $ $ $ $ $ $ $ $ $ $ $ $ $ $ $ $ $ $ $ $ $ $ = (.. ^ {+$ $ . . ",
". . $ $ $ $ $ $ $ $ $ $ $ $ $ $ $ $ $ $ $ $ $ $ $ $ $ $ $ $ $ $ $ $ $ $ $ $ B.. /+~+{+$ $ . . ",
". . $ $ $ $ $ $ $ $ $ $ $ $ $ $ $ $ $ $ $ $ $ $ $ $ $ $ $ $ $ $ $ $ $ $ $ l.~+(+W.~+{+$ $ . . ",
". . $ $ $ $ $ $ $ $ $ $ $ $ $ $ $ $ $ $ $ $ $ $ $ $ $ $ $ $ $ $ $ $ $ $ $ `.. ).$ ~+{+$ $ . . ",
". . ) $ $ $ $ $ $ $ $ $ $ $ $ $ $ $ $ $ $ $ $ $ $ $ $ $ $ $ $ $ $ $ $ $ > '+9.:.$ ]._.$ $ . . ",
"  . ~ $ $ $ $ $ $ $ $ $ $ $ $ $ $ $ $ $ $ $ $ $ $ $ $ $ $ $ $ $ $ $ $ $ $ $ $ $ $ $ $ $ y..   ",
"  . & _+) $ $ $ $ $ $ $ $ $ $ $ $ $ $ $ $ $ $ $ $ $ $ $ $ $ $ $ $ $ $ $ $ $ $ $ $ $ ) _+ +.   ",
"    . . . . . . . . . . . . . . . . . . . . . . . . . . . . . . . . . . . . . . . . . . .     ",
"        . . . . . . . . . . . . . . . . . . . . . . . . . . . . . . . . . . . . . . .         "};
