/* XPM */
static const char* spades2_xpm[] = {
"47 62 142 2",
"  	c None",
". 	c #000000",
"+ 	c #2A2A2A",
"@ 	c #B0B0B0",
"# 	c #FCFCFC",
"$ 	c #FFFFFF",
"% 	c #B2B2B2",
"& 	c #FDFDFD",
"* 	c #FBFBFB",
"= 	c #B1B1B1",
"- 	c #AFAFAF",
"; 	c #DBDBDB",
"> 	c #525252",
", 	c #121212",
"' 	c #CFCFCF",
") 	c #B7B7B7",
"! 	c #353535",
"~ 	c #777777",
"{ 	c #686868",
"] 	c #4B4B4B",
"^ 	c #BABABA",
"/ 	c #0F0F0F",
"( 	c #7A7A7A",
"_ 	c #DDDDDD",
": 	c #4A4A4A",
"< 	c #F2F2F2",
"[ 	c #919191",
"} 	c #8F8F8F",
"| 	c #7C7C7C",
"1 	c #3B3B3B",
"2 	c #CACACA",
"3 	c #B5B5B5",
"4 	c #474747",
"5 	c #9F9F9F",
"6 	c #D3D3D3",
"7 	c #727272",
"8 	c #FAFAFA",
"9 	c #2E2E2E",
"0 	c #676767",
"a 	c #5A5A5A",
"b 	c #D6D6D6",
"c 	c #212121",
"d 	c #C5C5C5",
"e 	c #DADADA",
"f 	c #191919",
"g 	c #CECECE",
"h 	c #EDEDED",
"i 	c #BFBFBF",
"j 	c #D2D2D2",
"k 	c #1C1C1C",
"l 	c #151515",
"m 	c #D7D7D7",
"n 	c #787878",
"o 	c #BEBEBE",
"p 	c #E1E1E1",
"q 	c #1F1F1F",
"r 	c #1B1B1B",
"s 	c #DEDEDE",
"t 	c #0C0C0C",
"u 	c #C9C9C9",
"v 	c #F6F6F6",
"w 	c #232323",
"x 	c #222222",
"y 	c #F5F5F5",
"z 	c #898989",
"A 	c #DCDCDC",
"B 	c #9C9C9C",
"C 	c #989898",
"D 	c #101010",
"E 	c #6F6F6F",
"F 	c #535353",
"G 	c #5D5D5D",
"H 	c #040404",
"I 	c #141414",
"J 	c #090909",
"K 	c #B3B3B3",
"L 	c #ABABAB",
"M 	c #A3A3A3",
"N 	c #D1D1D1",
"O 	c #545454",
"P 	c #757575",
"Q 	c #131313",
"R 	c #5C5C5C",
"S 	c #595959",
"T 	c #111111",
"U 	c #F9F9F9",
"V 	c #F7F7F7",
"W 	c #E5E5E5",
"X 	c #2C2C2C",
"Y 	c #282828",
"Z 	c #404040",
"` 	c #3C3C3C",
" .	c #FEFEFE",
"..	c #4F4F4F",
"+.	c #5B5B5B",
"@.	c #F8F8F8",
"#.	c #9E9E9E",
"$.	c #010101",
"%.	c #9B9B9B",
"&.	c #A6A6A6",
"*.	c #878787",
"=.	c #A2A2A2",
"-.	c #ECECEC",
";.	c #8A8A8A",
">.	c #717171",
",.	c #EAEAEA",
"'.	c #DFDFDF",
").	c #E0E0E0",
"!.	c #080808",
"~.	c #070707",
"{.	c #D9D9D9",
"].	c #030303",
"^.	c #060606",
"/.	c #020202",
"(.	c #D8D8D8",
"_.	c #C4C4C4",
":.	c #656565",
"<.	c #5E5E5E",
"[.	c #666666",
"}.	c #CCCCCC",
"|.	c #848484",
"1.	c #8B8B8B",
"2.	c #7D7D7D",
"3.	c #6E6E6E",
"4.	c #767676",
"5.	c #636363",
"6.	c #C0C0C0",
"7.	c #3F3F3F",
"8.	c #7F7F7F",
"9.	c #707070",
"0.	c #585858",
"a.	c #E7E7E7",
"b.	c #D5D5D5",
"c.	c #B4B4B4",
"d.	c #1A1A1A",
"e.	c #CDCDCD",
"f.	c #555555",
"g.	c #818181",
"h.	c #303030",
"i.	c #2F2F2F",
"j.	c #B6B6B6",
"k.	c #B8B8B8",
"        . . . . . . . . . . . . . . . . . . . . . . . . . . . . . . . . . . . . . . .         ",
"    . . . . . . . . . . . . . . . . . . . . . . . . . . . . . . . . . . . . . . . . . . .     ",
"  . + @ # $ $ $ $ $ $ $ $ $ $ $ $ $ $ $ $ $ $ $ $ $ $ $ $ $ $ $ $ $ $ $ $ $ $ $ $ $ # @ + .   ",
"  . % $ $ $ $ $ $ $ $ $ $ $ $ $ $ $ $ $ $ $ $ $ $ $ $ $ $ $ $ $ $ $ $ $ $ $ $ $ $ $ $ $ % .   ",
". . & $ $ $ * = - - ; $ $ $ $ $ $ $ $ $ $ $ $ $ $ $ $ $ $ $ $ $ $ $ $ $ $ $ $ $ $ $ $ $ & . . ",
". . $ $ $ * > . . . , ' $ $ $ $ $ $ $ $ $ $ $ $ $ $ $ $ $ $ $ $ $ $ $ $ $ $ $ $ $ $ $ $ $ . . ",
". . $ $ $ ) . ! ~ { . ] $ $ $ $ $ $ $ $ $ $ $ $ $ $ $ $ $ $ $ $ $ $ $ $ $ $ $ $ $ $ $ $ $ . . ",
". . $ $ $ ^ / ( $ _ . : $ $ $ $ $ $ $ $ $ $ $ $ $ $ $ $ $ $ $ $ $ $ $ $ $ $ $ $ $ $ $ $ $ . . ",
". . $ $ $ $ < [ } | . : $ $ $ $ $ $ $ $ $ $ $ $ $ $ $ $ $ $ $ $ $ $ $ $ $ $ $ $ $ $ $ $ $ . . ",
". . $ $ $ < 1 . . . / 2 $ $ $ $ $ $ $ $ $ $ $ $ $ $ $ $ $ $ $ $ $ $ $ $ $ $ $ $ $ $ $ $ $ . . ",
". . $ $ $ 3 . 4 5 5 6 $ $ $ $ $ $ $ $ $ $ $ $ $ $ $ $ $ $ $ $ $ $ $ $ $ $ $ $ $ $ $ $ $ $ . . ",
". . $ $ $ 3 . 7 $ _ . : $ $ $ $ $ $ $ $ $ $ $ 8 $ $ $ $ $ $ $ $ $ $ $ $ $ $ $ $ $ $ $ $ $ . . ",
". . $ $ $ 3 . 9 0 a . : $ $ $ $ $ $ $ $ $ $ b c d $ $ $ $ $ $ $ $ $ $ $ $ $ $ $ $ $ $ $ $ . . ",
". . $ $ $ 3 . . . . . : $ $ $ $ $ $ $ $ $ e f . / g $ $ $ $ $ $ $ $ $ $ $ $ $ $ $ $ $ $ $ . . ",
". . $ $ $ h i i i i i j $ $ $ $ $ $ $ $ _ k . . . l m $ $ $ $ $ $ $ $ $ $ $ $ $ $ $ $ $ $ . . ",
". . $ $ $ $ $ $ n o $ $ $ $ $ $ $ $ $ p q . . . . . r s $ $ $ $ $ $ $ $ $ $ $ $ $ $ $ $ $ . . ",
". . $ $ $ $ $ n . t u $ $ $ $ $ $ $ v w . . . . . . . x y $ $ $ $ $ $ $ $ $ $ $ $ $ $ $ $ . . ",
". . $ $ $ $ z . . . , A $ $ $ $ $ $ B . . . . . . . . . C $ $ $ $ $ $ $ $ $ $ $ $ $ $ $ $ . . ",
". . $ $ $ & D . . . . E $ $ $ $ $ $ F . . . . . . . . . ] $ $ $ $ $ $ $ $ $ $ $ $ $ $ $ $ . . ",
". . $ $ $ $ G H I r J K $ $ $ $ $ $ L . . . . . . . . . M $ $ $ $ $ $ $ $ $ $ $ $ $ $ $ $ . . ",
". . $ $ $ $ $ N , O < $ $ $ $ $ $ $ # P Q c R . S w T 7 U $ $ $ $ $ $ $ $ $ $ $ $ $ $ $ $ . . ",
". . $ $ $ $ $ A i i v $ $ $ $ $ $ $ $ $ V W X . Y W v $ $ $ $ $ $ $ $ $ $ $ $ $ $ $ $ $ $ . . ",
". . $ $ $ $ $ $ $ $ $ $ $ $ $ $ $ $ $ $ $ Z . . . `  .$ $ $ $ $ $ $ $ $ $ $ $ $ $ $ $ $ $ . . ",
". . $ $ $ $ $ $ $ $ $ $ $ $ $ $ $ $ $ $ * ' ' ' ' ' U $ $ $ $ $ $ $ $ $ $ $ $ $ $ $ $ $ $ . . ",
". . $ $ $ $ $ $ $ $ $ $ $ $ $ $ $ $ $ $ $ $ $ $ $ $ $ $ $ $ $ $ $ $ $ $ $ $ $ $ $ $ $ $ $ . . ",
". . $ $ $ $ $ $ $ $ $ $ $ $ $ $ $ $ $ $ $ $ $ $ $ $ $ $ $ $ $ $ $ $ $ $ $ $ $ $ $ $ $ $ $ . . ",
". . $ $ $ $ $ $ $ $ $ $ $ $ $ $ $ $ $ $ $ $ $ $ $ $ $ $ $ $ $ $ $ $ $ $ $ $ $ $ $ $ $ $ $ . . ",
". . $ $ $ $ $ $ $ $ $ $ $ $ $ $ $ $ $ $ $ $ $ $ $ $ $ $ $ $ $ $ $ $ $ $ $ $ $ $ $ $ $ $ $ . . ",
". . $ $ $ $ $ $ $ $ $ $ $ $ $ $ $ $ $ $ $ $ $ $ $ $ $ $ $ $ $ $ $ $ $ $ $ $ $ $ $ $ $ $ $ . . ",
". . $ $ $ $ $ $ $ $ $ $ $ $ $ $ $ $ $ $ $ $ $ $ $ $ $ $ $ $ $ $ $ $ $ $ $ $ $ $ $ $ $ $ $ . . ",
". . $ $ $ $ $ $ $ $ $ $ $ $ $ $ $ $ $ $ $ $ $ $ $ $ $ $ $ $ $ $ $ $ $ $ $ $ $ $ $ $ $ $ $ . . ",
". . $ $ $ $ $ $ $ $ $ $ $ $ $ $ $ $ $ $ $ $ $ $ $ $ $ $ $ $ $ $ $ $ $ $ $ $ $ $ $ $ $ $ $ . . ",
". . $ $ $ $ $ $ $ $ $ $ $ $ $ $ $ $ $ $ $ $ $ $ $ $ $ $ $ $ $ $ $ $ $ $ $ $ $ $ $ $ $ $ $ . . ",
". . $ $ $ $ $ $ $ $ $ $ $ $ $ $ $ $ $ $ $ $ $ $ $ $ $ $ $ $ $ $ $ $ $ $ $ $ $ $ $ $ $ $ $ . . ",
". . $ $ $ $ $ $ $ $ $ $ $ $ $ $ $ $ $ $ $ $ $ $ $ $ $ $ $ $ $ $ $ $ $ $ $ $ $ $ $ $ $ $ $ . . ",
". . $ $ $ $ $ $ $ $ $ $ $ $ $ $ $ $ $ $ $ $ $ $ $ $ $ $ $ $ $ $ $ $ $ $ $ $ $ $ $ $ $ $ $ . . ",
". . $ $ $ $ $ $ $ $ $ $ $ $ $ $ $ $ $ $ $ $ $ $ $ $ $ $ $ $ $ $ $ $ $ $ $ $ $ $ $ $ $ $ $ . . ",
". . $ $ $ $ $ $ $ $ $ $ $ $ $ $ $ $ $ $ $ $ $ $ $ $ $ $ $ $ $ $ $ $ $ $ $ $ $ $ $ $ $ $ $ . . ",
". . $ $ $ $ $ $ $ $ $ $ $ $ $ $ $ $ $ $ $ $ $ $ $ $ $ $ $ $ $ $ $ $ $ $ $ $ $ $ $ $ $ $ $ . . ",
". . $ $ $ $ $ $ $ $ $ $ $ $ $ $ $ $ $ $ 8 G ......+.@.$ $ $ $ $ $ $ $ $ $ $ $ $ $ $ $ $ $ . . ",
". . $ $ $ $ $ $ $ $ $ $ $ $ $ $ $ $ $ $ $ #.$.. . %.$ $ $ $ $ $ $ $ $ $ $ $ &.*.=.$ $ $ $ . . ",
". . $ $ $ $ $ $ $ $ $ $ $ $ $ $ $ $ $ -.;.%.~ . >.=.*.,.$ $ $ $ $ $ $ $ $ '.5 H B A $ $ $ . . ",
". . $ $ $ $ $ $ $ $ $ $ $ $ $ $ $ $ ).!.. . D . Q . . ~.{.$ $ $ $ $ $ $ '.].$.^././.(.$ $ . . ",
". . $ $ $ $ $ $ $ $ $ $ $ $ $ $ $ $ ~ . . . . . . . . . E $ $ $ $ $ $ $ 2 . . . . . _.$ $ . . ",
". . $ $ $ $ $ $ $ $ $ $ $ $ $ $ $ $ :.. . . . . . . . . <.$ $ $ $ $ $ $ $ [.. . . <.$ $ $ . . ",
". . $ $ $ $ $ $ $ $ $ $ $ $ $ $ $ $ N . . . . . . . . . }.$ $ $ $ $ $ $ $ & G . F # $ $ $ . . ",
". . $ $ $ $ $ $ $ $ $ $ $ $ $ $ $ $ $ |.. . . . . . . ( $ $ $ $ $ $ $ $ $ $ # 1.U $ $ $ $ . . ",
". . $ $ $ $ $ $ $ $ $ $ $ $ $ $ $ $ $ $ 2.. . . . . 3.$ $ $ $ $ $ $ $ $ $ $ $ $ $ $ $ $ $ . . ",
". . $ $ $ $ $ $ $ $ $ $ $ $ $ $ $ $ $ $ $ 4.. . . 5. .$ $ $ $ $ $ $ $ $ 6.7.7.7.7.7.8.$ $ . . ",
". . $ $ $ $ $ $ $ $ $ $ $ $ $ $ $ $ $ $ $ $ 9.. 0.& $ $ $ $ $ $ $ $ $ $ L . . . . . O $ $ . . ",
". . $ $ $ $ $ $ $ $ $ $ $ $ $ $ $ $ $ $ $ $ $ %.* $ $ $ $ $ $ $ $ $ $ $ L . 9.a.i . O $ $ . . ",
". . $ $ $ $ $ $ $ $ $ $ $ $ $ $ $ $ $ $ $ $ $ $ $ $ $ $ $ $ $ $ $ $ $ $ b.8.o $ 6 . O $ $ . . ",
". . $ $ $ $ $ $ $ $ $ $ $ $ $ $ $ $ $ $ $ $ $ $ $ $ $ $ $ $ $ $ $ $ $ $ $ c.c q d.. 9.$ $ . . ",
". . $ $ $ $ $ $ $ $ $ $ $ $ $ $ $ $ $ $ $ $ $ $ $ $ $ $ $ $ $ $ $ $ $ $ e.^.~./ / f.8 $ $ . . ",
". . $ $ $ $ $ $ $ $ $ $ $ $ $ $ $ $ $ $ $ $ $ $ $ $ $ $ $ $ $ $ $ $ $ $ L . | $ -.} c.$ $ . . ",
". . $ $ $ $ $ $ $ $ $ $ $ $ $ $ $ $ $ $ $ $ $ $ $ $ $ $ $ $ $ $ $ $ $ $ L . n V }.. O $ $ . . ",
". . $ $ $ $ $ $ $ $ $ $ $ $ $ $ $ $ $ $ $ $ $ $ $ $ $ $ $ $ $ $ $ $ $ $ ' !.. . . . g.$ $ . . ",
". .  .$ $ $ $ $ $ $ $ $ $ $ $ $ $ $ $ $ $ $ $ $ $ $ $ $ $ $ $ $ $ $ $ $ $ ^ h.i.i.P $ $  .. . ",
"  . j.$ $ $ $ $ $ $ $ $ $ $ $ $ $ $ $ $ $ $ $ $ $ $ $ $ $ $ $ $ $ $ $ $ $ $ $ $ $ $ $ $ j..   ",
"  . 9 k. .$ $ $ $ $ $ $ $ $ $ $ $ $ $ $ $ $ $ $ $ $ $ $ $ $ $ $ $ $ $ $ $ $ $ $ $ $  .k.9 .   ",
"    . . . . . . . . . . . . . . . . . . . . . . . . . . . . . . . . . . . . . . . . . . .     ",
"        . . . . . . . . . . . . . . . . . . . . . . . . . . . . . . . . . . . . . . .         "};
