/* XPM */
static const char* spades3_xpm[] = {
"47 62 164 2",
"  	c None",
". 	c #000000",
"+ 	c #2A2A2A",
"@ 	c #B0B0B0",
"# 	c #FCFCFC",
"$ 	c #FFFFFF",
"% 	c #B2B2B2",
"& 	c #2E2E2E",
"* 	c #BABABA",
"= 	c #FDFDFD",
"- 	c #FAFAFA",
"; 	c #B1B1B1",
"> 	c #AFAFAF",
", 	c #DBDBDB",
"' 	c #FEFEFE",
") 	c #505050",
"! 	c #131313",
"~ 	c #D0D0D0",
"{ 	c #B4B4B4",
"] 	c #363636",
"^ 	c #777777",
"/ 	c #666666",
"( 	c #4D4D4D",
"_ 	c #B8B8B8",
": 	c #0F0F0F",
"< 	c #7D7D7D",
"[ 	c #4C4C4C",
"} 	c #A2A2A2",
"| 	c #7B7B7B",
"1 	c #2B2B2B",
"2 	c #8A8A8A",
"3 	c #898989",
"4 	c #B3B3B3",
"5 	c #747474",
"6 	c #B6B6B6",
"7 	c #2F2F2F",
"8 	c #676767",
"9 	c #595959",
"0 	c #4F4F4F",
"a 	c #C1C1C1",
"b 	c #212121",
"c 	c #D9D9D9",
"d 	c #5D5D5D",
"e 	c #1A1A1A",
"f 	c #DADADA",
"g 	c #C6C6C6",
"h 	c #0C0C0C",
"i 	c #1D1D1D",
"j 	c #E1E1E1",
"k 	c #BFBFBF",
"l 	c #E5E5E5",
"m 	c #CBCBCB",
"n 	c #242424",
"o 	c #E7E7E7",
"p 	c #848484",
"q 	c #CFCFCF",
"r 	c #111111",
"s 	c #2C2C2C",
"t 	c #EDEDED",
"u 	c #888888",
"v 	c #070707",
"w 	c #141414",
"x 	c #393939",
"y 	c #989898",
"z 	c #0A0A0A",
"A 	c #CDCDCD",
"B 	c #7C7C7C",
"C 	c #333333",
"D 	c #6B6B6B",
"E 	c #6C6C6C",
"F 	c #030303",
"G 	c #151515",
"H 	c #1B1B1B",
"I 	c #A6A6A6",
"J 	c #8B8B8B",
"K 	c #C3C3C3",
"L 	c #444444",
"M 	c #EFEFEF",
"N 	c #F0F0F0",
"O 	c #686868",
"P 	c #0B0B0B",
"Q 	c #2D2D2D",
"R 	c #646464",
"S 	c #181818",
"T 	c #191919",
"U 	c #838383",
"V 	c #E2E2E2",
"W 	c #F3F3F3",
"X 	c #3D3D3D",
"Y 	c #ECECEC",
"Z 	c #F9F9F9",
"` 	c #262626",
" .	c #5B5B5B",
"..	c #F5F5F5",
"+.	c #353535",
"@.	c #C5C5C5",
"#.	c #F2F2F2",
"$.	c #373737",
"%.	c #101010",
"&.	c #F4F4F4",
"*.	c #3C3C3C",
"=.	c #161616",
"-.	c #434343",
";.	c #BDBDBD",
">.	c #878787",
",.	c #BBBBBB",
"'.	c #6D6D6D",
").	c #0D0D0D",
"!.	c #0E0E0E",
"~.	c #565656",
"{.	c #4A4A4A",
"].	c #040404",
"^.	c #525252",
"/.	c #EAEAEA",
"(.	c #EBEBEB",
"_.	c #E4E4E4",
":.	c #E9E9E9",
"<.	c #B7B7B7",
"[.	c #F1F1F1",
"}.	c #EEEEEE",
"|.	c #535353",
"1.	c #6A6A6A",
"2.	c #7F7F7F",
"3.	c #050505",
"4.	c #979797",
"5.	c #ABABAB",
"6.	c #8D8D8D",
"7.	c #929292",
"8.	c #949494",
"9.	c #E6E6E6",
"0.	c #A8A8A8",
"a.	c #8E8E8E",
"b.	c #D5D5D5",
"c.	c #CACACA",
"d.	c #575757",
"e.	c #8F8F8F",
"f.	c #DFDFDF",
"g.	c #020202",
"h.	c #454545",
"i.	c #7E7E7E",
"j.	c #494949",
"k.	c #737373",
"l.	c #404040",
"m.	c #F6F6F6",
"n.	c #656565",
"o.	c #999999",
"p.	c #5F5F5F",
"q.	c #828282",
"r.	c #C8C8C8",
"s.	c #414141",
"t.	c #3F3F3F",
"u.	c #767676",
"v.	c #D7D7D7",
"w.	c #9B9B9B",
"x.	c #787878",
"y.	c #C9C9C9",
"z.	c #1F1F1F",
"A.	c #CCCCCC",
"B.	c #F7F7F7",
"C.	c #D2D2D2",
"D.	c #090909",
"E.	c #313131",
"F.	c #727272",
"G.	c #B9B9B9",
"        . . . . . . . . . . . . . . . . . . . . . . . . . . . . . . . . . . . . . . .         ",
"    . . . . . . . . . . . . . . . . . . . . . . . . . . . . . . . . . . . . . . . . . . .     ",
"  . + @ # $ $ $ $ $ $ $ $ $ $ $ $ $ $ $ $ $ $ $ $ $ $ $ $ $ $ $ $ $ $ $ $ $ $ $ $ $ # % & .   ",
"  . % $ $ $ $ $ $ $ $ $ $ $ $ $ $ $ $ $ $ $ $ $ $ $ $ $ $ $ $ $ $ $ $ $ $ $ $ $ $ $ $ $ * .   ",
". . = $ $ $ - ; > > , $ $ $ $ $ $ $ $ $ $ $ $ $ $ $ $ $ $ $ $ $ $ $ $ $ $ $ $ $ $ $ $ $ ' . . ",
". . $ $ $ - ) . . . ! ~ $ $ $ $ $ $ $ $ $ $ $ $ $ $ $ $ $ $ $ $ $ $ $ $ $ $ $ $ $ $ $ $ $ . . ",
". . $ $ $ { . ] ^ / . ( $ $ $ $ $ $ $ $ $ $ $ $ $ $ $ $ $ $ $ $ $ $ $ $ $ $ $ $ $ $ $ $ $ . . ",
". . $ $ $ _ : < $ , . [ $ $ $ $ $ $ $ $ $ $ $ $ $ $ $ $ $ $ $ $ $ $ $ $ $ $ $ $ $ $ $ $ $ . . ",
". . $ $ $ $ $ $ } | . [ $ $ $ $ $ $ $ $ $ $ $ $ $ $ $ $ $ $ $ $ $ $ $ $ $ $ $ $ $ $ $ $ $ . . ",
". . $ $ $ $ $ $ 1 . . 2 $ $ $ $ $ $ $ $ $ $ $ $ $ $ $ $ $ $ $ $ $ $ $ $ $ $ $ $ $ $ $ $ $ . . ",
". . $ $ $ $ $ $ @ 3 . [ $ $ $ $ $ $ $ $ $ $ $ $ $ $ $ $ $ $ $ $ $ $ $ $ $ $ $ $ $ $ $ $ $ . . ",
". . $ $ $ 4 . 5 $ , . [ $ $ $ $ $ $ $ $ $ $ $ - $ $ $ $ $ $ $ $ $ $ $ $ $ $ $ $ $ $ $ $ $ . . ",
". . $ $ $ 6 . 7 8 9 . 0 $ $ $ $ $ $ $ $ $ $ a b c $ $ $ $ $ $ $ $ $ $ $ $ $ $ $ $ $ $ $ $ . . ",
". . $ $ $ = d . . . e f $ $ $ $ $ $ $ $ $ g h . i j $ $ $ $ $ $ $ $ $ $ $ $ $ $ $ $ $ $ $ . . ",
". . $ $ $ $ = a k k l $ $ $ $ $ $ $ $ $ m : . . . n o $ $ $ $ $ $ $ $ $ $ $ $ $ $ $ $ $ $ . . ",
". . $ $ $ $ $ $ p @ $ $ $ $ $ $ $ $ $ q r . . . . . s t $ $ $ $ $ $ $ $ $ $ $ $ $ $ $ $ $ . . ",
". . $ $ $ $ $ u . v * $ $ $ $ $ $ $ l w . . . . . . . x ' $ $ $ $ $ $ $ $ $ $ $ $ $ $ $ $ . . ",
". . $ $ $ $ y . . . z A $ $ $ $ $ $ B . . . . . . . . . _ $ $ $ $ $ $ $ $ $ $ $ $ $ $ $ $ . . ",
". . $ $ $ $ i . . . . d $ $ $ $ $ $ C . . . . . . . . . D $ $ $ $ $ $ $ $ $ $ $ $ $ $ $ $ . . ",
". . $ $ $ $ E F G H v I $ $ $ $ $ $ J . . . . . . . . . K $ $ $ $ $ $ $ $ $ $ $ $ $ $ $ $ . . ",
". . $ $ $ $ $ , e L M $ $ $ $ $ $ $ N O P Q 0 . R S T U $ $ $ $ $ $ $ $ $ $ $ $ $ $ $ $ $ . . ",
". . $ $ $ $ $ V k k N $ $ $ $ $ $ $ $ $ W f H . X Y - $ $ $ $ $ $ $ $ $ $ $ $ $ $ $ $ $ $ . . ",
". . $ $ $ $ $ $ $ $ $ $ $ $ $ $ $ $ $ $ Z ` . . .  .$ $ $ $ $ $ $ $ $ $ $ $ $ $ $ $ $ $ $ . . ",
". . $ $ $ $ $ $ $ $ $ $ $ $ $ $ $ $ $ $ ..q q q q ~ $ $ $ $ $ $ $ $ $ $ $ $ $ $ $ $ $ $ $ . . ",
". . $ $ $ $ $ $ $ $ $ $ $ $ $ $ $ $ $ $ $ $ $ = $ $ $ $ $ $ $ $ $ $ $ $ $ $ $ $ $ $ $ $ $ . . ",
". . $ $ $ $ $ $ $ $ $ $ $ $ $ $ $ $ $ $ $ $ t +.* $ $ $ $ $ $ $ $ $ $ $ $ $ $ $ $ $ $ $ $ . . ",
". . $ $ $ $ $ $ $ $ $ $ $ $ $ $ $ $ $ $ $ M C . P @.$ $ $ $ $ $ $ $ $ $ $ $ $ $ $ $ $ $ $ . . ",
". . $ $ $ $ $ $ $ $ $ $ $ $ $ $ $ $ $ $ #.$.. . . %.q $ $ $ $ $ $ $ $ $ $ $ $ $ $ $ $ $ $ . . ",
". . $ $ $ $ $ $ $ $ $ $ $ $ $ $ $ $ $ &.*.. . . . . =.c $ $ $ $ $ $ $ $ $ $ $ $ $ $ $ $ $ . . ",
". . $ $ $ $ $ $ $ $ $ $ $ $ $ $ $ $ $ -.. . . . . . . i t $ $ $ $ $ $ $ $ $ $ $ $ $ $ $ $ . . ",
". . $ $ $ $ $ $ $ $ $ $ $ $ $ $ $ $ ;.. . . . . . . . . >.$ $ $ $ $ $ $ $ $ $ $ $ $ $ $ $ . . ",
". . $ $ $ $ $ $ $ $ $ $ $ $ $ $ $ $ D . . . . . . . . . C $ $ $ $ $ $ $ $ $ $ $ $ $ $ $ $ . . ",
". . $ $ $ $ $ $ $ $ $ $ $ $ $ $ $ $ ,.. . . . . . . . . U $ $ $ $ $ $ $ $ $ $ $ $ $ $ $ $ . . ",
". . $ $ $ $ $ $ $ $ $ $ $ $ $ $ $ $ ' '.).!.~.. {.b ].^./.$ $ $ $ $ $ $ $ $ $ $ $ $ $ $ $ . . ",
". . $ $ $ $ $ $ $ $ $ $ $ $ $ $ $ $ $ $ &.(.[ . ` _.:.$ $ $ $ $ $ $ $ $ $ $ $ $ $ $ $ $ $ . . ",
". . $ $ $ $ $ $ $ $ $ $ $ $ $ $ $ $ $ $ $ '.. . . ] = $ $ $ $ $ $ $ $ $ $ $ $ $ $ $ $ $ $ . . ",
". . $ $ $ $ $ $ $ $ $ $ $ $ $ $ $ $ $ $ $ * <.<.<.<.[.$ $ $ $ $ $ $ $ $ $ $ $ $ $ $ $ $ $ . . ",
". . $ $ $ $ $ $ $ $ $ $ $ $ $ $ $ $ $ $ $ $ $ $ $ $ $ $ $ $ $ $ $ $ $ $ $ $ $ $ $ $ $ $ $ . . ",
". . $ $ $ $ $ $ $ $ $ $ $ $ $ $ $ $ $ $ $ $ $ $ $ $ $ $ $ $ $ $ $ $ $ $ $ $ $ $ $ $ $ $ $ . . ",
". . $ $ $ $ $ $ $ $ $ $ $ $ $ $ $ $ $ $ }.|.0 0 0 1.$ $ $ $ $ $ $ $ $ $ $ $ $ $ $ $ $ $ $ . . ",
". . $ $ $ $ $ $ $ $ $ $ $ $ $ $ $ $ $ $ $ 2.. . 3.<.$ $ $ $ $ $ $ $ $ $ $ $ ; >.4.$ $ $ $ . . ",
". . $ $ $ $ $ $ $ $ $ $ $ $ $ $ $ $ $ _.2.5. .. 6.7.8.#.$ $ $ $ $ $ $ $ $ 9.0.P a.b.$ $ $ . . ",
". . $ $ $ $ $ $ $ $ $ $ $ $ $ $ $ $ @.].. . %.. ! . . r N $ $ $ $ $ $ $ M P . ].].. c.$ $ . . ",
". . $ $ $ $ $ $ $ $ $ $ $ $ $ $ $ $ d.. . . . . . . . . e.$ $ $ $ $ $ $ f.g.. . . . ; $ $ . . ",
". . $ $ $ $ $ $ $ $ $ $ $ $ $ $ $ $ h.. . . . . . . . . i.$ $ $ $ $ $ $ $ i.. . . j.# $ $ . . ",
". . $ $ $ $ $ $ $ $ $ $ $ $ $ $ $ $ ; . . . . . . . . 3.9.$ $ $ $ $ $ $ $ $ k.. l.m.$ $ $ . . ",
". . $ $ $ $ $ $ $ $ $ $ $ $ $ $ $ $ ' n.. . . . . . . o.$ $ $ $ $ $ $ $ $ $ $ a.W $ $ $ $ . . ",
". . $ $ $ $ $ $ $ $ $ $ $ $ $ $ $ $ $ ' p.. . . . . a.$ $ $ $ $ $ $ $ $ $ $ $ $ $ $ $ $ $ . . ",
". . $ $ $ $ $ $ $ $ $ $ $ $ $ $ $ $ $ $ = 9 . . . q.$ $ $ $ $ $ $ $ $ $ $ r.s.t.t.q.$ $ $ . . ",
". . $ $ $ $ $ $ $ $ $ $ $ $ $ $ $ $ $ $ $ # |.. u.$ $ $ $ $ $ $ $ $ $ $ v.!.. . . . >.$ $ . . ",
". . $ $ $ $ $ $ $ $ $ $ $ $ $ $ $ $ $ $ $ $ - w.$ $ $ $ $ $ $ $ $ $ $ $ > . '.o K . ) $ $ . . ",
". . $ $ $ $ $ $ $ $ $ $ $ $ $ $ $ $ $ $ $ $ $ $ $ $ $ $ $ $ $ $ $ $ $ $ > . x.$ (.2.0.$ $ . . ",
". . $ $ $ $ $ $ $ $ $ $ $ $ $ $ $ $ $ $ $ $ $ $ $ $ $ $ $ $ $ $ $ $ $ $ y.].: z.q $ $ $ $ . . ",
". . $ $ $ $ $ $ $ $ $ $ $ $ $ $ $ $ $ $ $ $ $ $ $ $ $ $ $ $ $ $ $ $ $ $ c.].v : A.$ $ $ $ . . ",
". . $ $ $ $ $ $ $ $ $ $ $ $ $ $ $ $ $ $ $ $ $ $ $ $ $ $ $ $ $ $ $ $ $ $ > . x.$ }.e.4 $ $ . . ",
". . $ $ $ $ $ $ $ $ $ $ $ $ $ $ $ $ $ $ $ $ $ $ $ $ $ $ $ $ $ $ $ $ $ $ > . 5 B.~ . ) $ $ . . ",
". . $ $ $ $ $ $ $ $ $ $ $ $ $ $ $ $ $ $ $ $ $ $ $ $ $ $ $ $ $ $ $ $ $ $ C.D.. . . . < $ $ . . ",
". . ' $ $ $ $ $ $ $ $ $ $ $ $ $ $ $ $ $ $ $ $ $ $ $ $ $ $ $ $ $ $ $ $ $ $ ;.E.7 7 F.' $ $ . . ",
"  . 6 $ $ $ $ $ $ $ $ $ $ $ $ $ $ $ $ $ $ $ $ $ $ $ $ $ $ $ $ $ $ $ $ $ $ $ $ $ $ $ $ $ G..   ",
"  . & _ ' $ $ $ $ $ $ $ $ $ $ $ $ $ $ $ $ $ $ $ $ $ $ $ $ $ $ $ $ $ $ $ $ $ $ $ $ $ ' _ 7 .   ",
"    . . . . . . . . . . . . . . . . . . . . . . . . . . . . . . . . . . . . . . . . . . .     ",
"        . . . . . . . . . . . . . . . . . . . . . . . . . . . . . . . . . . . . . . .         "};
