/* XPM */
static const char* spades4_xpm[] = {
"47 62 163 2",
"  	c None",
". 	c #000000",
"+ 	c #2A2A2A",
"@ 	c #B0B0B0",
"# 	c #FCFCFC",
"$ 	c #FFFFFF",
"% 	c #B1B1B1",
"& 	c #B2B2B2",
"* 	c #F6F6F6",
"= 	c #B5B5B5",
"- 	c #B6B6B6",
"; 	c #F4F4F4",
"> 	c #AFAFAF",
", 	c #C8C8C8",
"' 	c #FDFDFD",
") 	c #F7F7F7",
"! 	c #131313",
"~ 	c #141414",
"{ 	c #DBDBDB",
"] 	c #4C4C4C",
"^ 	c #0B0B0B",
"/ 	c #8F8F8F",
"( 	c #7B7B7B",
"_ 	c #A7A7A7",
": 	c #9F9F9F",
"< 	c #888888",
"[ 	c #FAFAFA",
"} 	c #F9F9F9",
"| 	c #BCBCBC",
"1 	c #232323",
"2 	c #DEDEDE",
"3 	c #9A9A9A",
"4 	c #323232",
"5 	c #EFEFEF",
"6 	c #C0C0C0",
"7 	c #0A0A0A",
"8 	c #212121",
"9 	c #E5E5E5",
"0 	c #9E9E9E",
"a 	c #010101",
"b 	c #3A3A3A",
"c 	c #BFBFBF",
"d 	c #D3D3D3",
"e 	c #C5C5C5",
"f 	c #0C0C0C",
"g 	c #292929",
"h 	c #EBEBEB",
"i 	c #A3A3A3",
"j 	c #020202",
"k 	c #444444",
"l 	c #F8F8F8",
"m 	c #7E7E7E",
"n 	c #CACACA",
"o 	c #0E0E0E",
"p 	c #313131",
"q 	c #F0F0F0",
"r 	c #030303",
"s 	c #4E4E4E",
"t 	c #FBFBFB",
"u 	c #808080",
"v 	c #090909",
"w 	c #E0E0E0",
"x 	c #111111",
"y 	c #404040",
"z 	c #BEBEBE",
"A 	c #040404",
"B 	c #686868",
"C 	c #919191",
"D 	c #0D0D0D",
"E 	c #D2D2D2",
"F 	c #747474",
"G 	c #484848",
"H 	c #050505",
"I 	c #E7E7E7",
"J 	c #161616",
"K 	c #656565",
"L 	c #2B2B2B",
"M 	c #737373",
"N 	c #080808",
"O 	c #A2A2A2",
"P 	c #646464",
"Q 	c #151515",
"R 	c #1B1B1B",
"S 	c #ACACAC",
"T 	c #838383",
"U 	c #CBCBCB",
"V 	c #575757",
"W 	c #EEEEEE",
"X 	c #D5D5D5",
"Y 	c #4D4D4D",
"Z 	c #F1F1F1",
"` 	c #EDEDED",
" .	c #303030",
"..	c #666666",
"+.	c #898989",
"@.	c #D9D9D9",
"#.	c #525252",
"$.	c #434343",
"%.	c #393939",
"&.	c #6B6B6B",
"*.	c #F3F3F3",
"=.	c #D6D6D6",
"-.	c #171717",
";.	c #424242",
">.	c #F2F2F2",
",.	c #BDBDBD",
"'.	c #636363",
").	c #E4E4E4",
"!.	c #8E8E8E",
"~.	c #CFCFCF",
"{.	c #D1D1D1",
"].	c #ECECEC",
"^.	c #DADADA",
"/.	c #EAEAEA",
"(.	c #515151",
"_.	c #4F4F4F",
":.	c #6F6F6F",
"<.	c #777777",
"[.	c #070707",
"}.	c #505050",
"|.	c #A9A9A9",
"1.	c #878787",
"2.	c #E1E1E1",
"3.	c #7D7D7D",
"4.	c #545454",
"5.	c #939393",
"6.	c #979797",
"7.	c #767676",
"8.	c #7F7F7F",
"9.	c #A8A8A8",
"0.	c #060606",
"a.	c #989898",
"b.	c #101010",
"c.	c #929292",
"d.	c #262626",
"e.	c #3D3D3D",
"f.	c #868686",
"g.	c #181818",
"h.	c #B4B4B4",
"i.	c #6E6E6E",
"j.	c #FEFEFE",
"k.	c #5E5E5E",
"l.	c #A0A0A0",
"m.	c #8B8B8B",
"n.	c #585858",
"o.	c #959595",
"p.	c #363636",
"q.	c #B7B7B7",
"r.	c #535353",
"s.	c #8A8A8A",
"t.	c #333333",
"u.	c #AEAEAE",
"v.	c #C4C4C4",
"w.	c #3F3F3F",
"x.	c #999999",
"y.	c #9D9D9D",
"z.	c #1F1F1F",
"A.	c #B9B9B9",
"B.	c #0F0F0F",
"C.	c #787878",
"D.	c #2F2F2F",
"E.	c #2E2E2E",
"F.	c #B8B8B8",
"        . . . . . . . . . . . . . . . . . . . . . . . . . . . . . . . . . . . . . . .         ",
"    . . . . . . . . . . . . . . . . . . . . . . . . . . . . . . . . . . . . . . . . . . .     ",
"  . + @ # $ $ $ $ $ $ $ $ $ $ $ $ $ $ $ $ $ $ $ $ $ $ $ $ $ $ $ $ $ $ $ $ $ $ $ $ $ # @ + .   ",
"  . % $ $ $ $ $ $ $ $ $ $ $ $ $ $ $ $ $ $ $ $ $ $ $ $ $ $ $ $ $ $ $ $ $ $ $ $ $ $ $ $ $ & .   ",
"  . * $ $ $ = - $ ; > , $ $ $ $ $ $ $ $ $ $ $ $ $ $ $ $ $ $ $ $ $ $ $ $ $ $ $ $ $ $ $ $ ' . . ",
"  . ) $ $ $ ! ~ $ { . ] $ $ $ $ $ $ $ $ $ $ $ $ $ $ $ $ $ $ $ $ $ $ $ $ $ $ $ $ $ $ $ $ $ . . ",
"  . ) $ $ $ ! ~ $ { . ] $ $ $ $ $ $ $ $ $ $ $ $ $ $ $ $ $ $ $ $ $ $ $ $ $ $ $ $ $ $ $ $ $ . . ",
"  . ) $ $ $ ! ~ $ { . ] $ $ $ $ $ $ $ $ $ $ $ $ $ $ $ $ $ $ $ $ $ $ $ $ $ $ $ $ $ $ $ $ $ . . ",
"  . ) $ $ $ ! ^ / ( . ] $ $ $ $ $ $ $ $ $ $ $ $ $ $ $ $ $ $ $ $ $ $ $ $ $ $ $ $ $ $ $ $ $ . . ",
"  . ) $ $ $ ! . . . . ] $ $ $ $ $ $ $ $ $ $ $ $ $ $ $ $ $ $ $ $ $ $ $ $ $ $ $ $ $ $ $ $ $ . . ",
"  . ) $ $ $ _ : : < . ] $ $ $ $ $ $ $ $ $ $ $ $ $ $ $ $ $ $ $ $ $ $ $ $ $ $ $ $ $ $ $ $ $ . . ",
"  . ) $ $ $ $ $ $ { . ] $ $ $ $ $ $ [ $ $ $ $ $ $ $ $ $ $ $ } $ $ $ $ $ $ $ $ $ $ $ $ $ $ . . ",
"  . ) $ $ $ $ $ $ { . ] $ $ $ $ $ | 1 2 $ $ $ $ $ $ $ $ $ 3 4 5 $ $ $ $ $ $ $ $ $ $ $ $ $ . . ",
"  . ) $ $ $ $ $ $ { . ] $ $ $ $ 6 7 . 8 9 $ $ $ $ $ $ $ 0 a . b ; $ $ $ $ $ $ $ $ $ $ $ $ . . ",
"  . ) $ $ $ $ $ $ * c d $ $ $ e f . . . g h $ $ $ $ $ i j . . . k l $ $ $ $ $ $ $ $ $ $ $ . . ",
"  . ) $ $ $ $ $ m - $ $ $ $ n o . . . . . p q $ $ $ _ r . . . . . s t $ $ $ $ $ $ $ $ $ $ . . ",
"  . ) $ $ $ $ u . v 6 $ $ w x . . . . . . . y $ $ z A . . . . . . . B $ $ $ $ $ $ $ $ $ $ . . ",
"  . ) $ $ $ C . . . D E $ F . . . . . . . . . 6 $ G . . . . . . . . H I $ $ $ $ $ $ $ $ $ . . ",
"  . ) $ $ $ J . . . . K $ L . . . . . . . . . M [ N . . . . . . . . . O $ $ $ $ $ $ $ $ $ . . ",
"  . ) $ $ $ P r Q R N S $ T . . . . . . . . . U $ V . . . . . . . . v W $ $ $ $ $ $ $ $ $ . . ",
"  . ) $ $ $ $ X J Y Z $ $ ` P 7  .] . ..J R +.$ $ @.#.A $.%.H &.^ g i $ $ $ $ $ $ $ $ $ $ . . ",
"  . ) $ $ $ $ 2 c c ; $ $ $ $ *.=.-.. ;.` t $ $ $ $ $ >.,.v . '.Z $ $ $ $ $ $ $ $ $ $ $ $ . . ",
"  . ) $ $ $ $ $ $ $ $ $ $ $ $ ) 8 . . . '.$ $ $ $ $ $ ).f . . . !.$ $ $ $ $ $ $ $ $ $ $ $ . . ",
"  . ) $ $ $ $ $ $ $ $ $ $ $ $ *.~.~.~.~.{.$ $ $ $ $ $ ].~.~.~.~.^.$ $ $ $ $ $ $ $ $ $ $ $ . . ",
"  . ) $ $ $ $ $ $ $ $ $ $ $ $ $ $ $ $ $ $ $ $ $ $ $ $ $ $ $ $ $ $ $ $ $ $ $ $ $ $ $ $ $ $ . . ",
"  . ) $ $ $ $ $ $ $ $ $ $ $ $ $ $ $ $ $ $ $ $ $ $ $ $ $ $ $ $ $ $ $ $ $ $ $ $ $ $ $ $ $ $ . . ",
"  . ) $ $ $ $ $ $ $ $ $ $ $ $ $ $ $ $ $ $ $ $ $ $ $ $ $ $ $ $ $ $ $ $ $ $ $ $ $ $ $ $ $ $ . . ",
"  . ) $ $ $ $ $ $ $ $ $ $ $ $ $ $ $ $ $ $ $ $ $ $ $ $ $ $ $ $ $ $ $ $ $ $ $ $ $ $ $ $ $ $ . . ",
"  . ) $ $ $ $ $ $ $ $ $ $ $ $ $ $ $ $ $ $ $ $ $ $ $ $ $ $ $ $ $ $ $ $ $ $ $ $ $ $ $ $ $ $ . . ",
"  . ) $ $ $ $ $ $ $ $ $ $ $ $ $ $ $ $ $ $ $ $ $ $ $ $ $ $ $ $ $ $ $ $ $ $ $ $ $ $ $ $ $ $ . . ",
"  . ) $ $ $ $ $ $ $ $ $ $ $ $ $ $ $ $ $ $ $ $ $ $ $ $ $ $ $ $ $ $ $ $ $ $ $ $ $ $ $ $ $ $ . . ",
"  . ) $ $ $ $ $ $ $ $ $ $ $ $ $ $ $ $ $ $ $ $ $ $ $ $ $ $ $ $ $ $ $ $ $ $ $ $ $ $ $ $ $ $ . . ",
"  . ) $ $ $ $ $ $ $ $ $ $ $ $ $ $ $ $ $ $ $ $ $ $ $ $ $ $ $ $ $ $ $ $ $ $ $ $ $ $ $ $ $ $ . . ",
"  . ) $ $ $ $ $ $ $ $ $ $ $ $ $ $ $ $ $ $ $ $ $ $ $ $ $ $ $ $ $ $ $ $ $ $ $ $ $ $ $ $ $ $ . . ",
"  . ) $ $ $ $ $ $ $ $ $ $ $ $ $ $ $ $ $ $ $ $ $ $ $ $ $ $ $ $ $ $ $ $ $ $ $ $ $ $ $ $ $ $ . . ",
"  . ) $ $ $ $ $ $ $ $ $ $ $ $ $ $ $ $ $ $ $ $ $ $ $ $ $ $ $ $ $ $ $ $ $ $ $ $ $ $ $ $ $ $ . . ",
"  . ) $ $ $ $ $ $ $ $ $ $ $ $ $ $ $ $ $ $ $ $ $ $ $ $ $ $ $ $ $ $ $ $ $ $ $ $ $ $ $ $ $ $ . . ",
"  . ) $ $ $ $ $ $ $ $ $ $ $ $ $ $ $ $ $ $ $ $ $ $ $ $ $ $ $ $ $ $ $ $ $ $ $ $ $ $ $ $ $ $ . . ",
"  . ) $ $ $ $ $ $ $ $ $ $ $ $ $ $ $ $ $ $ $ $ $ $ $ $ $ $ $ $ $ $ $ $ $ $ $ $ $ $ $ $ $ $ . . ",
"  . ) $ $ $ $ $ $ $ $ $ $ $ $ /.(._._._.:.$ $ $ $ $ $ {._._._._.!.$ $ $ $ $ $ $ $ $ $ $ $ . . ",
"  . ) $ $ $ $ $ $ $ $ $ $ $ $ $ <.. . [.,.$ $ $ $ $ $ $ }.. . ! @.$ $ $ $ $ |.1.0 $ $ $ $ . . ",
"  . ) $ $ $ $ $ $ $ $ $ $ $ 2.3.> 4.. 5.!.6.; $ $ $ {.7.,.4 . & 8.9.[ $ $ 2.O 0.a.^.$ $ $ . . ",
"  . ) $ $ $ $ $ $ $ $ $ $ ,.r . . b.. ! . . Q ; $ c.. . . b.H D . . 4 $ 9 H . 0.j a {.$ $ . . ",
"  . ) $ $ $ $ $ $ $ $ $ $ _.. . . . . . . . . 6.$ d.. . . . . . . . . e E . . . . . | $ $ . . ",
"  . ) $ $ $ $ $ $ $ $ $ $ e.. . . . . . . . . f.t g.. . . . . . . . . h.$ i.. . . V $ $ $ . . ",
"  . ) $ $ $ $ $ $ $ $ $ $ |.. . . . . . . . N h $ ( . . . . . . . . 8 ' $ j.P . ] [ $ $ $ . . ",
"  . ) $ $ $ $ $ $ $ $ $ $ ' k.. . . . . . a l.$ $ *.b . . . . . . v 6 $ $ $ ' m.) $ $ $ $ . . ",
"  . ) $ $ $ $ $ $ $ $ $ $ $ # n.. . . . . o.$ $ $ $ Z p.. . . . 0.q.$ $ $ $ $ $ $ $ $ $ $ . . ",
"  . ) $ $ $ $ $ $ $ $ $ $ $ $ t r.. . . s.$ $ $ $ $ $ 5 t.. . r u.$ $ $ v.w.x.$ $ $ $ $ $ . . ",
"  . ) $ $ $ $ $ $ $ $ $ $ $ $ $ [ Y . 3.$ $ $ $ $ $ $ $ `  .j i $ $ $ $ @ . <.$ $ $ $ $ $ . . ",
"  . ) $ $ $ $ $ $ $ $ $ $ $ $ $ $ l y.$ $ $ $ $ $ $ $ $ $ h |.$ $ $ $ $ @ . <.$ $ $ $ $ $ . . ",
"  . ) $ $ $ $ $ $ $ $ $ $ $ $ $ $ $ $ $ $ $ $ $ $ $ $ $ $ $ $ $ $ $ $ $ @ . <.$ $ $ $ $ $ . . ",
"  . ) $ $ $ $ $ $ $ $ $ $ $ $ $ $ $ $ $ $ $ $ $ $ $ $ $ $ $ $ $ $ $ $ $ @ . o z.z.z.A.$ $ . . ",
"  . ) $ $ $ $ $ $ $ $ $ $ $ $ $ $ $ $ $ $ $ $ $ $ $ $ $ $ $ $ $ $ $ $ $ @ . [.B.[.. > $ $ . . ",
"  . ) $ $ $ $ $ $ $ $ $ $ $ $ $ $ $ $ $ $ $ $ $ $ $ $ $ $ $ $ $ $ $ $ $ @ . <.$ C.. > $ $ . . ",
"  . ) $ $ $ $ $ $ $ $ $ $ $ $ $ $ $ $ $ $ $ $ $ $ $ $ $ $ $ $ $ $ $ $ $ @ . <.$ C.. > $ $ . . ",
"  . ) $ $ $ $ $ $ $ $ $ $ $ $ $ $ $ $ $ $ $ $ $ $ $ $ $ $ $ $ $ $ $ $ $ @ . <.$ C.. > $ $ . . ",
"  . ) $ $ $ $ $ $ $ $ $ $ $ $ $ $ $ $ $ $ $ $ $ $ $ $ $ $ $ $ $ $ $ $ $ c D.C $ C D.z $ j.. . ",
"  . = $ $ $ $ $ $ $ $ $ $ $ $ $ $ $ $ $ $ $ $ $ $ $ $ $ $ $ $ $ $ $ $ $ $ $ $ $ $ $ $ $ - .   ",
"  . E.F.j.$ $ $ $ $ $ $ $ $ $ $ $ $ $ $ $ $ $ $ $ $ $ $ $ $ $ $ $ $ $ $ $ $ $ $ $ $ j.F.E..   ",
"    . . . . . . . . . . . . . . . . . . . . . . . . . . . . . . . . . . . . . . . . . . .     ",
"        . . . . . . . . . . . . . . . . . . . . . . . . . . . . . . . . . . . . . . .         "};
