/* XPM */
static const char* spades5_xpm[] = {
"47 62 171 2",
"  	c None",
". 	c #000000",
"+ 	c #2A2A2A",
"@ 	c #B0B0B0",
"# 	c #FCFCFC",
"$ 	c #FFFFFF",
"% 	c #B2B2B2",
"& 	c #2E2E2E",
"* 	c #BABABA",
"= 	c #FDFDFD",
"- 	c #E8E8E8",
"; 	c #AFAFAF",
"> 	c #C7C7C7",
", 	c #FEFEFE",
"' 	c #B4B4B4",
") 	c #4B4B4B",
"! 	c #363636",
"~ 	c #777777",
"{ 	c #A0A0A0",
"] 	c #737373",
"^ 	c #3D3D3D",
"/ 	c #878787",
"( 	c #C0C0C0",
"_ 	c #060606",
": 	c #B5B5B5",
"< 	c #E3E3E3",
"[ 	c #9F9F9F",
"} 	c #898989",
"| 	c #DCDCDC",
"1 	c #F3F3F3",
"2 	c #E5E5E5",
"3 	c #F1F1F1",
"4 	c #B7B7B7",
"5 	c #676767",
"6 	c #595959",
"7 	c #4E4E4E",
"8 	c #F5F5F5",
"9 	c #3F3F3F",
"0 	c #242424",
"a 	c #E7E7E7",
"b 	c #E6E6E6",
"c 	c #262626",
"d 	c #3E3E3E",
"e 	c #F6F6F6",
"f 	c #5E5E5E",
"g 	c #1A1A1A",
"h 	c #D9D9D9",
"i 	c #424242",
"j 	c #2C2C2C",
"k 	c #EDEDED",
"l 	c #282828",
"m 	c #484848",
"n 	c #F9F9F9",
"o 	c #C1C1C1",
"p 	c #BFBFBF",
"q 	c #E4E4E4",
"r 	c #F8F8F8",
"s 	c #464646",
"t 	c #353535",
"u 	c #F2F2F2",
"v 	c #EBEBEB",
"w 	c #2B2B2B",
"x 	c #535353",
"y 	c #FAFAFA",
"z 	c #636363",
"A 	c #D7D7D7",
"B 	c #4A4A4A",
"C 	c #2F2F2F",
"D 	c #5F5F5F",
"E 	c #545454",
"F 	c #1B1B1B",
"G 	c #DEDEDE",
"H 	c #717171",
"I 	c #686868",
"J 	c #494949",
"K 	c #919191",
"L 	c #616161",
"M 	c #212121",
"N 	c #EEEEEE",
"O 	c #0E0E0E",
"P 	c #080808",
"Q 	c #D8D8D8",
"R 	c #010101",
"S 	c #232323",
"T 	c #959595",
"U 	c #CDCDCD",
"V 	c #090909",
"W 	c #373737",
"X 	c #0A0A0A",
"Y 	c #0D0D0D",
"Z 	c #121212",
"` 	c #D3D3D3",
" .	c #474747",
"..	c #050505",
"+.	c #757575",
"@.	c #F7F7F7",
"#.	c #808080",
"$.	c #969696",
"%.	c #202020",
"&.	c #161616",
"*.	c #9B9B9B",
"=.	c #797979",
"-.	c #DBDBDB",
";.	c #6F6F6F",
">.	c #3B3B3B",
",.	c #9E9E9E",
"'.	c #313131",
").	c #8B8B8B",
"!.	c #EFEFEF",
"~.	c #D4D4D4",
"{.	c #515151",
"].	c #FBFBFB",
"^.	c #7A7A7A",
"/.	c #ACACAC",
"(.	c #0F0F0F",
"_.	c #828282",
":.	c #101010",
"<.	c #C4C4C4",
"[.	c #303030",
"}.	c #909090",
"|.	c #383838",
"1.	c #414141",
"2.	c #999999",
"3.	c #B3B3B3",
"4.	c #656565",
"5.	c #040404",
"6.	c #A4A4A4",
"7.	c #585858",
"8.	c #4F4F4F",
"9.	c #333333",
"0.	c #B1B1B1",
"a.	c #646464",
"b.	c #070707",
"c.	c #8E8E8E",
"d.	c #E0E0E0",
"e.	c #979797",
"f.	c #171717",
"g.	c #8F8F8F",
"h.	c #0B0B0B",
"i.	c #A8A8A8",
"j.	c #222222",
"k.	c #626262",
"l.	c #C2C2C2",
"m.	c #DDDDDD",
"n.	c #CFCFCF",
"o.	c #AAAAAA",
"p.	c #030303",
"q.	c #E9E9E9",
"r.	c #D6D6D6",
"s.	c #7E7E7E",
"t.	c #8D8D8D",
"u.	c #434343",
"v.	c #3A3A3A",
"w.	c #F4F4F4",
"x.	c #323232",
"y.	c #F0F0F0",
"z.	c #C9C9C9",
"A.	c #818181",
"B.	c #868686",
"C.	c #6C6C6C",
"D.	c #ECECEC",
"E.	c #7F7F7F",
"F.	c #A7A7A7",
"G.	c #C6C6C6",
"H.	c #020202",
"I.	c #1F1F1F",
"J.	c #D1D1D1",
"K.	c #707070",
"L.	c #B6B6B6",
"M.	c #B9B9B9",
"N.	c #B8B8B8",
"        . . . . . . . . . . . . . . . . . . . . . . . . . . . . . . . . . . . . . . .         ",
"    . . . . . . . . . . . . . . . . . . . . . . . . . . . . . . . . . . . . . . . . . . .     ",
"  . + @ # $ $ $ $ $ $ $ $ $ $ $ $ $ $ $ $ $ $ $ $ $ $ $ $ $ $ $ $ $ $ $ $ $ $ $ $ $ # % & .   ",
"  . % $ $ $ $ $ $ $ $ $ $ $ $ $ $ $ $ $ $ $ $ $ $ $ $ $ $ $ $ $ $ $ $ $ $ $ $ $ $ $ $ $ * .   ",
". . = $ $ - ; ; ; ; ; > $ $ $ $ $ $ $ $ $ $ $ $ $ $ $ $ $ $ $ $ $ $ $ $ $ $ $ $ $ $ $ $ , . . ",
". . $ $ $ ' . . . . . ) $ $ $ $ $ $ $ $ $ $ $ $ $ $ $ $ $ $ $ $ $ $ $ $ $ $ $ $ $ $ $ $ $ . . ",
". . $ $ $ ' . ! ~ ~ ~ { $ $ $ $ $ $ $ $ $ $ $ $ $ $ $ $ $ $ $ $ $ $ $ $ $ $ $ $ $ $ $ $ $ . . ",
". . $ $ $ ' . ] $ $ $ $ $ $ $ $ $ $ $ $ $ $ $ $ $ $ $ $ $ $ $ $ $ $ $ $ $ $ $ $ $ $ $ $ $ . . ",
". . $ $ $ ' . ^ / / ( $ $ $ $ $ $ $ $ $ $ $ $ $ $ $ $ $ $ $ $ $ $ $ $ $ $ $ $ $ $ $ $ $ $ . . ",
". . $ $ $ ' . . . . _ : $ $ $ $ $ $ $ $ $ $ $ $ $ $ $ $ $ $ $ $ $ $ $ $ $ $ $ $ $ $ $ $ $ . . ",
". . $ $ $ < [ [ [ } . ) $ $ $ $ $ $ $ $ $ $ $ $ $ $ $ $ $ $ $ $ $ $ $ $ $ $ $ $ $ $ $ $ $ . . ",
". . $ $ $ ' . ] $ | . ) $ $ $ $ $ 1 < $ $ $ $ $ $ $ $ $ $ 2 3 $ $ $ $ $ $ $ $ $ $ $ $ $ $ . . ",
". . $ $ $ 4 . & 5 6 . 7 $ $ $ $ 8 9 0 a $ $ $ $ $ $ $ $ b c d e $ $ $ $ $ $ $ $ $ $ $ $ $ . . ",
". . $ $ $ = f . . . g h $ $ $ e i . . j k $ $ $ $ $ $ - l . . m n $ $ $ $ $ $ $ $ $ $ $ $ . . ",
". . $ $ $ $ = o p p q $ $ $ r s . . . . t u $ $ $ $ v w . . . . x # $ $ $ $ $ $ $ $ $ $ $ . . ",
". . $ $ $ $ $ y z A $ $ $ n B . . . . . . 9 e $ $ k C . . . . . . D , $ $ $ $ $ $ $ $ $ $ . . ",
". . $ $ $ $ # E . F G $ $ H . . . . . . . . I $ $ J . . . . . . . . K $ $ $ $ $ $ $ $ $ $ . . ",
". . $ $ $ $ L . . . M N 1 O . . . . . . . . P v Q R . . . . . . . . S , $ $ $ $ $ $ $ $ $ . . ",
". . $ $ $ q R . . . . T | R . . . . . . . . . U : . . . . . . . . . V u $ $ $ $ $ $ $ $ $ . . ",
". . $ $ $ , W X Y F Z ` $  .. . . . . . . . W $ = M . . . . . . . . L $ $ $ $ $ $ $ $ $ $ . . ",
". . $ $ $ $ $ * ..+.@.$ $ - #.t $.%.&.*.W =.< $ $ -.;.>.,.V '.).t ).!.$ $ $ $ $ $ $ $ $ $ . . ",
". . $ $ $ $ $ ~.p ( = $ $ $ $ , D . . {.].$ $ $ $ $ $ e 9 . . ^.$ $ $ $ $ $ $ $ $ $ $ $ $ . . ",
". . $ $ $ $ $ $ $ $ $ $ $ $ $ /.(.(.(.(.*.$ $ $ $ $ $ _.(.(.(.:.<.$ $ $ $ $ $ $ $ $ $ $ $ . . ",
". . $ $ $ $ $ $ $ $ $ $ $ $ $ $ $ $ $ $ $ $ $ $ $ $ $ $ $ $ $ $ $ $ $ $ $ $ $ $ $ $ $ $ $ . . ",
". . $ $ $ $ $ $ $ $ $ $ $ $ $ $ $ $ $ $ $ $ $ $ @.$ $ $ $ $ $ $ $ $ $ $ $ $ $ $ $ $ $ $ $ . . ",
". . $ $ $ $ $ $ $ $ $ $ $ $ $ $ $ $ $ $ $ $ $ ).[.!.$ $ $ $ $ $ $ $ $ $ $ $ $ $ $ $ $ $ $ . . ",
". . $ $ $ $ $ $ $ $ $ $ $ $ $ $ $ $ $ $ $ $ }.. . |.1 $ $ $ $ $ $ $ $ $ $ $ $ $ $ $ $ $ $ . . ",
". . $ $ $ $ $ $ $ $ $ $ $ $ $ $ $ $ $ $ $ T . . . . 1.@.$ $ $ $ $ $ $ $ $ $ $ $ $ $ $ $ $ . . ",
". . $ $ $ $ $ $ $ $ $ $ $ $ $ $ $ $ $ $ 2.R . . . . . B y $ $ $ $ $ $ $ $ $ $ $ $ $ $ $ $ . . ",
". . $ $ $ $ $ $ $ $ $ $ $ $ $ $ $ $ $ 3.R . . . . . . . 4.$ $ $ $ $ $ $ $ $ $ $ $ $ $ $ $ . . ",
". . $ $ $ $ $ $ $ $ $ $ $ $ $ $ $ $ $ >.. . . . . . . . 5.q $ $ $ $ $ $ $ $ $ $ $ $ $ $ $ . . ",
". . $ $ $ $ $ $ $ $ $ $ $ $ $ $ $ $ e ... . . . . . . . . 6.$ $ $ $ $ $ $ $ $ $ $ $ $ $ $ . . ",
". . $ $ $ $ $ $ $ $ $ $ $ $ $ $ $ $ $ 7.. . . . . . . . Y u $ $ $ $ $ $ $ $ $ $ $ $ $ $ $ . . ",
". . $ $ $ $ $ $ $ $ $ $ $ $ $ $ $ $ $ | 7._ 8.! _ ] O 9.; $ $ $ $ $ $ $ $ $ $ $ $ $ $ $ $ . . ",
". . $ $ $ $ $ $ $ $ $ $ $ $ $ $ $ $ $ $ $ @.0.... a.8 $ $ $ $ $ $ $ $ $ $ $ $ $ $ $ $ $ $ . . ",
". . $ $ $ $ $ $ $ $ $ $ $ $ $ $ $ $ $ $ $ -.b.. . . c.$ $ $ $ $ $ $ $ $ $ $ $ $ $ $ $ $ $ . . ",
". . $ $ $ $ $ $ $ $ $ $ $ $ $ $ $ $ $ $ $ k A A A A d.$ $ $ $ $ $ $ $ $ $ $ $ $ $ $ $ $ $ . . ",
". . $ $ $ $ $ $ $ $ $ $ $ $ $ $ $ $ $ $ $ $ $ $ $ $ $ $ $ $ $ $ $ $ $ $ $ $ $ $ $ $ $ $ $ . . ",
". . $ $ $ $ $ $ $ $ $ $ $ $ $ $ $ $ $ $ $ $ $ $ $ $ $ $ $ $ $ $ $ $ $ $ $ $ $ $ $ $ $ $ $ . . ",
". . $ $ $ $ $ $ $ $ $ $ $ $ $ /.(.(.(.(.*.$ $ $ $ $ $ _.(.(.(.:.<.$ $ $ $ $ $ $ $ $ $ $ $ . . ",
". . $ $ $ $ $ $ $ $ $ $ $ $ $ , D . . {.].$ $ $ $ $ $ e 9 . . ^.$ $ $ $ $ $ e./ 0.$ $ $ $ . . ",
". . $ $ $ $ $ $ $ $ $ $ $ - #.t $.%.f.[ W =.< $ $ -.;.>.,.V 9.g.t ).!.$ $ ~.c.h.i.a $ $ $ . . ",
". . $ $ $ $ $ $ $ $ $ $ $ m . . . . . . . . |.$ = j.. . . . . . . . k.$ l.. 5.5.. (.1 $ $ . . ",
". . $ $ $ $ $ $ $ $ $ $ m.R . . . . . . . . . n.4 . . . . . . . . . X 1 o.. . . . p.2 $ $ . . ",
". . $ $ $ $ $ $ $ $ $ $ u Y . . . . . . . . b.q.r.. . . . . . . . . %.= ].B . . . s.$ $ $ . . ",
". . $ $ $ $ $ $ $ $ $ $ $ H . . . . . . . . z $ $ J . . . . . . . . t.$ $ @.u.. ;.$ $ $ $ . . ",
". . $ $ $ $ $ $ $ $ $ $ $ n B . . . . . . v.w.$ $ k C . . . . . . 6 = $ $ $ 8 t., $ $ $ $ . . ",
". . $ $ $ $ $ $ $ $ $ $ $ $ r s . . . . x.y.$ $ $ $ v w . . . . 8.].$ $ $ $ $ $ $ $ $ $ $ . . ",
". . $ $ $ $ $ $ $ $ $ $ $ $ $ e i . . w v $ $ $ $ $ $ - l . . s r $ $ $ $ z.1.9 9 A.$ $ $ . . ",
". . $ $ $ $ $ $ $ $ $ $ $ $ $ $ 8 9 0 b $ $ $ $ $ $ $ $ b c ^ 8 $ $ $ $ Q (.. . . . B.$ $ . . ",
". . $ $ $ $ $ $ $ $ $ $ $ $ $ $ $ 1 < $ $ $ $ $ $ $ $ $ $ 2 3 $ $ $ $ $ @ . C.a <.. 8.$ $ . . ",
". . $ $ $ $ $ $ $ $ $ $ $ $ $ $ $ $ $ $ $ $ $ $ $ $ $ $ $ $ $ $ $ $ $ $ @ . ~ $ D.E.F.$ $ . . ",
". . $ $ $ $ $ $ $ $ $ $ $ $ $ $ $ $ $ $ $ $ $ $ $ $ $ $ $ $ $ $ $ $ $ $ G.H.O I.I.I.4.$ $ . . ",
". . $ $ $ $ $ $ $ $ $ $ $ $ $ $ $ $ $ $ $ $ $ $ $ $ $ $ $ $ $ $ $ $ $ $ $ ,.V b._ . 8.$ $ . . ",
". . $ $ $ $ $ $ $ $ $ $ $ $ $ $ $ $ $ $ $ $ $ $ $ $ $ $ $ $ $ $ $ $ $ $ $ $ $ $ Q . 8.$ $ . . ",
". . $ $ $ $ $ $ $ $ $ $ $ $ $ $ $ $ $ $ $ $ $ $ $ $ $ $ $ $ $ $ $ $ $ $ = @.@.@.J.. 8.$ $ . . ",
". . $ $ $ $ $ $ $ $ $ $ $ $ $ $ $ $ $ $ $ $ $ $ $ $ $ $ $ $ $ $ $ $ $ $ @ . . . . . 8.$ $ . . ",
". . , $ $ $ $ $ $ $ $ $ $ $ $ $ $ $ $ $ $ $ $ $ $ $ $ $ $ $ $ $ $ $ $ $ p C C C C C K.$ $ . . ",
"  . L.$ $ $ $ $ $ $ $ $ $ $ $ $ $ $ $ $ $ $ $ $ $ $ $ $ $ $ $ $ $ $ $ $ $ $ $ $ $ $ $ $ M..   ",
"  . & N., $ $ $ $ $ $ $ $ $ $ $ $ $ $ $ $ $ $ $ $ $ $ $ $ $ $ $ $ $ $ $ $ $ $ $ $ $ , N.C .   ",
"    . . . . . . . . . . . . . . . . . . . . . . . . . . . . . . . . . . . . . . . . . . .     ",
"        . . . . . . . . . . . . . . . . . . . . . . . . . . . . . . . . . . . . . . .         "};
