/* XPM */
static const char* spades6_xpm[] = {
"47 62 195 2",
"  	c None",
". 	c #000000",
"+ 	c #2A2A2A",
"@ 	c #B0B0B0",
"# 	c #FCFCFC",
"$ 	c #FFFFFF",
"% 	c #B1B1B1",
"& 	c #B2B2B2",
"* 	c #F6F6F6",
"= 	c #FBFBFB",
"- 	c #AFAFAF",
"; 	c #DBDBDB",
"> 	c #FDFDFD",
", 	c #F7F7F7",
"' 	c #535353",
") 	c #121212",
"! 	c #CFCFCF",
"~ 	c #B7B7B7",
"{ 	c #353535",
"] 	c #777777",
"^ 	c #686868",
"/ 	c #4A4A4A",
"( 	c #B6B6B6",
"_ 	c #717171",
": 	c #E0E0E0",
"< 	c #0F0F0F",
"[ 	c #555555",
"} 	c #3C3C3C",
"| 	c #878787",
"1 	c #BFBFBF",
"2 	c #EFEFEF",
"3 	c #404040",
"4 	c #C9C9C9",
"5 	c #A0A0A0",
"6 	c #5B5B5B",
"7 	c #060606",
"8 	c #B3B3B3",
"9 	c #F1F1F1",
"0 	c #363636",
"a 	c #111111",
"b 	c #D1D1D1",
"c 	c #A5A5A5",
"d 	c #020202",
"e 	c #646464",
"f 	c #474747",
"g 	c #9F9F9F",
"h 	c #8A8A8A",
"i 	c #494949",
"j 	c #F3F3F3",
"k 	c #3A3A3A",
"l 	c #171717",
"m 	c #D9D9D9",
"n 	c #AAAAAA",
"o 	c #030303",
"p 	c #DEDEDE",
"q 	c #F5F5F5",
"r 	c #3E3E3E",
"s 	c #1D1D1D",
"t 	c #AEAEAE",
"u 	c #040404",
"v 	c #7D7D7D",
"w 	c #B9B9B9",
"x 	c #2E2E2E",
"y 	c #676767",
"z 	c #5A5A5A",
"A 	c #4C4C4C",
"B 	c #5E5E5E",
"C 	c #2D2D2D",
"D 	c #FEFEFE",
"E 	c #D8D8D8",
"F 	c #050505",
"G 	c #ACACAC",
"H 	c #606060",
"I 	c #191919",
"J 	c #E7E7E7",
"K 	c #6C6C6C",
"L 	c #373737",
"M 	c #C1C1C1",
"N 	c #E4E4E4",
"O 	c #DDDDDD",
"P 	c #010101",
"Q 	c #A6A6A6",
"R 	c #272727",
"S 	c #969696",
"T 	c #0D0D0D",
"U 	c #101010",
"V 	c #1A1A1A",
"W 	c #F9F9F9",
"X 	c #0A0A0A",
"Y 	c #949494",
"Z 	c #A2A2A2",
"` 	c #A4A4A4",
" .	c #B4B4B4",
"..	c #8D8D8D",
"+.	c #939393",
"@.	c #9D9D9D",
"#.	c #F4F4F4",
"$.	c #E3E3E3",
"%.	c #888888",
"&.	c #BBBBBB",
"*.	c #070707",
"=.	c #848484",
"-.	c #D0D0D0",
";.	c #BABABA",
">.	c #C2C2C2",
",.	c #919191",
"'.	c #1F1F1F",
").	c #EBEBEB",
"!.	c #3B3B3B",
"~.	c #3F3F3F",
"{.	c #A3A3A3",
"].	c #7F7F7F",
"^.	c #898989",
"/.	c #C6C6C6",
"(.	c #181818",
"_.	c #1B1B1B",
":.	c #E6E6E6",
"<.	c #323232",
"[.	c #E9E9E9",
"}.	c #E8E8E8",
"|.	c #EAEAEA",
"1.	c #F0F0F0",
"2.	c #D5D5D5",
"3.	c #313131",
"4.	c #ABABAB",
"5.	c #727272",
"6.	c #DCDCDC",
"7.	c #B5B5B5",
"8.	c #434343",
"9.	c #F8F8F8",
"0.	c #DFDFDF",
"a.	c #090909",
"b.	c #7C7C7C",
"c.	c #4D4D4D",
"d.	c #414141",
"e.	c #161616",
"f.	c #8F8F8F",
"g.	c #D7D7D7",
"h.	c #A1A1A1",
"i.	c #575757",
"j.	c #212121",
"k.	c #EDEDED",
"l.	c #BEBEBE",
"m.	c #767676",
"n.	c #808080",
"o.	c #2F2F2F",
"p.	c #4E4E4E",
"q.	c #252525",
"r.	c #202020",
"s.	c #222222",
"t.	c #141414",
"u.	c #454545",
"v.	c #D4D4D4",
"w.	c #CECECE",
"x.	c #B8B8B8",
"y.	c #BDBDBD",
"z.	c #9A9A9A",
"A.	c #242424",
"B.	c #C7C7C7",
"C.	c #BCBCBC",
"D.	c #7E7E7E",
"E.	c #CBCBCB",
"F.	c #FAFAFA",
"G.	c #5F5F5F",
"H.	c #EEEEEE",
"I.	c #616161",
"J.	c #929292",
"K.	c #757575",
"L.	c #696969",
"M.	c #585858",
"N.	c #6F6F6F",
"O.	c #9B9B9B",
"P.	c #444444",
"Q.	c #666666",
"R.	c #6D6D6D",
"S.	c #858585",
"T.	c #0E0E0E",
"U.	c #2C2C2C",
"V.	c #838383",
"W.	c #D6D6D6",
"X.	c #6A6A6A",
"Y.	c #1C1C1C",
"Z.	c #ADADAD",
"`.	c #6E6E6E",
" +	c #525252",
".+	c #636363",
"++	c #7A7A7A",
"@+	c #5C5C5C",
"#+	c #C4C4C4",
"$+	c #626262",
"%+	c #C8C8C8",
"&+	c #080808",
"*+	c #C5C5C5",
"=+	c #303030",
"-+	c #737373",
"        . . . . . . . . . . . . . . . . . . . . . . . . . . . . . . . . . . . . . . .         ",
"    . . . . . . . . . . . . . . . . . . . . . . . . . . . . . . . . . . . . . . . . . . .     ",
"  . + @ # $ $ $ $ $ $ $ $ $ $ $ $ $ $ $ $ $ $ $ $ $ $ $ $ $ $ $ $ $ $ $ $ $ $ $ $ $ # @ + .   ",
"  . % $ $ $ $ $ $ $ $ $ $ $ $ $ $ $ $ $ $ $ $ $ $ $ $ $ $ $ $ $ $ $ $ $ $ $ $ $ $ $ $ $ & .   ",
"  . * $ $ = % - - ; $ $ $ $ $ $ $ $ $ $ $ $ $ $ $ $ $ $ $ $ $ $ $ $ $ $ $ $ $ $ $ $ $ $ > . . ",
"  . , $ = ' . . . ) ! $ $ $ $ $ $ $ $ $ $ $ $ $ $ $ $ $ $ $ $ $ $ $ $ $ $ $ $ $ $ $ $ $ $ . . ",
"  . , $ ~ . { ] ^ . / $ $ $ $ $ $ $ $ $ $ $ $ $ $ $ $ $ $ $ $ $ $ $ $ $ $ $ $ $ $ $ $ $ $ . . ",
"  . , $ ( . _ $ : < [ $ $ $ $ $ $ $ $ $ $ $ $ $ $ $ $ $ $ $ $ $ $ $ $ $ $ $ $ $ $ $ $ $ $ . . ",
"  . , $ ( . } | | 1 $ $ $ $ $ $ 2 3 4 $ $ $ $ $ $ $ $ $ $ 5 6 > $ $ $ $ $ $ $ $ $ $ $ $ $ . . ",
"  . , $ ( . . . . 7 8 $ $ $ $ 9 0 . a b $ $ $ $ $ $ $ $ c d . e $ $ $ $ $ $ $ $ $ $ $ $ $ . . ",
"  . , $ ( . f g h . i $ $ $ j k . . . l m $ $ $ $ $ $ n o . . . _ $ $ $ $ $ $ $ $ $ $ $ $ . . ",
"  . , $ ( . _ $ p . i $ $ q r . . . . . s : $ $ $ $ t u . . . . . v $ $ $ $ $ $ $ $ $ $ $ . . ",
"  . , $ w . x y z . A $ $ B . . . . . . . C D $ $ E F . . . . . . . G $ $ $ $ $ $ $ $ $ $ . . ",
"  . , $ > H . . . I E $ J F . . . . . . . . ~ $ $ K . . . . . . . . L $ $ $ $ $ $ $ $ $ $ . . ",
"  . , $ $ > M 1 1 N $ $ O P . . . . . . . . Q $ $ B . . . . . . . . R $ $ $ $ $ $ $ $ $ $ . . ",
"  . , $ $ $ $ g S $ $ $ $ A . . T . U . . V W $ $ 4 o . . T X F . . Y $ $ $ $ $ $ $ $ $ $ . . ",
"  . , $ $ $ Z d P ` $ $ $ #  ...+.. e c @.#.$ $ $ $ $.%.&.+ *.1 =.-.$ $ $ $ $ $ $ $ $ $ $ . . ",
"  . , $ $ - d . . u ;.$ $ $ $ >.*.. . ,.$ $ $ $ $ $ $ $ / . . '.).$ $ $ $ $ $ $ $ $ $ $ $ . . ",
"  . , $ $ !.. . . . ~.$ $ $ $ {.].].].^.D $ $ $ $ $ $ $.].].].]./.$ $ $ $ $ $ $ $ $ $ $ $ . . ",
"  . , $ $ ^.o (._.o h $ $ $ $ $ $ $ $ $ $ $ $ $ $ $ $ $ $ $ $ $ $ $ $ $ $ $ $ $ $ $ $ $ $ . . ",
"  . , $ $ $ :.C <.[.$ $ $ $ $ $ $ $ $ $ $ $ $ $ $ $ $ $ $ $ $ $ $ $ $ $ $ $ $ $ $ $ $ $ $ . . ",
"  . , $ $ $ }.1 1 |.$ $ $ $ $ $ $ $ $ $ $ $ $ $ $ $ $ $ $ $ $ $ $ $ $ $ $ $ $ $ $ $ $ $ $ . . ",
"  . , $ $ $ $ $ $ $ $ $ $ $ $ $ $ $ $ $ $ $ $ $ $ $ $ $ $ $ $ $ $ $ $ $ $ $ $ $ $ $ $ $ $ . . ",
"  . , $ $ $ $ $ $ $ $ $ $ $ $ $ $ $ $ $ $ $ $ $ $ $ $ $ $ $ $ $ $ $ $ $ $ $ $ $ $ $ $ $ $ . . ",
"  . , $ $ $ $ $ $ $ $ $ $ $ $ $ $ $ $ $ $ $ $ $ $ $ $ $ $ $ $ $ $ $ $ $ $ $ $ $ $ $ $ $ $ . . ",
"  . , $ $ $ $ $ $ $ $ $ $ $ $ $ $ 1.$ $ $ $ $ $ $ $ $ $ $ D 9 $ $ $ $ $ $ $ $ $ $ $ $ $ $ . . ",
"  . , $ $ $ $ $ $ $ $ $ $ $ $ $ 2.l 5 $ $ $ $ $ $ $ $ $ $ K 3.1.$ $ $ $ $ $ $ $ $ $ $ $ $ . . ",
"  . , $ $ $ $ $ $ $ $ $ $ $ $ m (.. o 4.$ $ $ $ $ $ $ $ 5.. . k #.$ $ $ $ $ $ $ $ $ $ $ $ . . ",
"  . , $ $ $ $ $ $ $ $ $ $ $ 6._.. . . F 7.$ $ $ $ $ $ ] . . . . 8.9.$ $ $ $ $ $ $ $ $ $ $ . . ",
"  . , $ $ $ $ $ $ $ $ $ $ 0.s . . . . . a.1 $ $ $ $ b.. . . . . . c.= $ $ $ $ $ $ $ $ $ $ . . ",
"  . , $ $ $ $ $ $ $ $ $ $ d.. . . . . . . e.9.$ $ M . . . . . . . . f.$ $ $ $ $ $ $ $ $ $ . . ",
"  . , $ $ $ $ $ $ $ $ $ g.. . . . . . . . . h.$ $ i.. . . . . . . . j.$ $ $ $ $ $ $ $ $ $ . . ",
"  . , $ $ $ $ $ $ $ $ $ k.a.. . . . . . . . l.$ $ m.. . . . . . . . r $ $ $ $ $ $ $ $ $ $ . . ",
"  . , $ $ $ $ $ $ $ $ $ $ n.7 . x . o.o . p.$ $ $ : q.. T r.U s.. t.w $ $ $ $ $ $ $ $ $ $ . . ",
"  . , $ $ $ $ $ $ $ $ $ $ $ [./.] . u.v.g.$ $ $ $ $ D M w.l P x.y.9.$ $ $ $ $ $ $ $ $ $ $ . . ",
"  . , $ $ $ $ $ $ $ $ $ $ $ $ z.. . . y $ $ $ $ $ $ $ * A.. . X g.$ $ $ $ $ $ $ $ $ $ $ $ . . ",
"  . , $ $ $ $ $ $ $ $ $ $ $ $ B.~ ~ ~ w D $ $ $ $ $ $ ).~ ~ ~ ~ ; $ $ $ $ $ $ $ $ $ $ $ $ . . ",
"  . , $ $ $ $ $ $ $ $ $ $ $ $ $ $ $ $ $ $ $ $ $ $ $ $ $ $ $ $ $ $ $ $ $ $ $ $ $ $ $ $ $ $ . . ",
"  . , $ $ $ $ $ $ $ $ $ $ $ $ $ $ $ $ $ $ $ $ $ $ $ $ $ $ $ $ $ $ $ $ $ $ $ $ $ $ $ $ $ $ . . ",
"  . , $ $ $ $ $ $ $ $ $ $ $ $ $ $ $ $ $ $ $ $ $ $ $ $ $ $ $ $ $ $ $ $ $ $ $ $ $ $ $ $ $ $ . . ",
"  . , $ $ $ $ $ $ $ $ $ $ $ $ $ $ $ $ $ $ $ $ $ $ $ $ $ $ $ $ $ $ $ $ $ $ $ C.| f.# $ $ $ . . ",
"  . , $ $ $ $ $ $ $ $ $ $ $ $ $ $ $ $ $ $ $ $ $ $ $ $ $ $ $ $ $ $ $ $ $ $ k.t l D.E.$ $ $ . . ",
"  . , $ $ $ $ $ $ $ $ $ $ $ $ $ $ $ $ $ $ $ $ $ $ $ $ $ $ $ $ $ $ $ $ $ F.(.. u u . n $ $ . . ",
"  . , $ $ $ $ $ $ $ $ $ $ $ $ 5 G.G.G.y 9.$ $ $ $ $ $ H.I.G.G.G.@ $ $ $ 1.X . . . . Y $ $ . . ",
"  . , $ $ $ $ $ $ $ $ $ $ $ $ p l . . J.$ $ $ $ $ $ $ $ K.. . q.k.$ $ $ $ S . . . L q $ $ . . ",
"  . , $ $ $ $ $ $ $ $ $ $ , h.L.h.. M.f.m.p $ $ $ $ 2.N.O.P.u 4.Q.4.= $ $ $ f.. C H.$ $ $ . . ",
"  . , $ $ $ $ $ $ $ $ $ $ [ . . o P u . . 7 J $ $ v.. . . u o . . . R.$ $ $ $ z.J $ $ $ $ . . ",
"  . , $ $ $ $ $ $ $ $ $ }.u . . . . . . . . S.$ $ R.. . . . . . . . T., $ $ $ $ $ $ $ $ $ . . ",
"  . , $ $ $ $ $ $ $ $ $ F.(.. . . . . . . . 4.$ $ J.. . . . . . . . U.$ $ B.3 ~.~.V.$ $ $ . . ",
"  . , $ $ $ $ $ $ $ $ $ $ ^.. . . . . . . R # $ $ 9 (.. . . . . . . {.$ W.T.. . . . ^.$ $ . . ",
"  . , $ $ $ $ $ $ $ $ $ $ $ X.. . . . . Y.0.$ $ $ $ v.t.. . . . . b.$ $ Z.. `.J M .  +$ $ . . ",
"  . , $ $ $ $ $ $ $ $ $ $ $ D .+. . . e.E $ $ $ $ $ $ -.a . . . N.$ $ $ Z.. ++$ 2..  +$ $ . . ",
"  . , $ $ $ $ $ $ $ $ $ $ $ $ > @+. a b $ $ $ $ $ $ $ $ E.< . .+D $ $ $ #+P < '.V .  +$ $ . . ",
"  . , $ $ $ $ $ $ $ $ $ $ $ $ $ # $+%+$ $ $ $ $ $ $ $ $ $ /.e > $ $ $ $ $ O.&+*.7 .  +$ $ . . ",
"  . , $ $ $ $ $ $ $ $ $ $ $ $ $ $ $ $ $ $ $ $ $ $ $ $ $ $ $ $ $ $ $ $ $ ; f.*+$ 2..  +$ $ . . ",
"  . , $ $ $ $ $ $ $ $ $ $ $ $ $ $ $ $ $ $ $ $ $ $ $ $ $ $ $ $ $ $ $ $ $ Z.. m., w..  +$ $ . . ",
"  . , $ $ $ $ $ $ $ $ $ $ $ $ $ $ $ $ $ $ $ $ $ $ $ $ $ $ $ $ $ $ $ $ $ b a.. . . . ].$ $ . . ",
"  . , $ $ $ $ $ $ $ $ $ $ $ $ $ $ $ $ $ $ $ $ $ $ $ $ $ $ $ $ $ $ $ $ $ $ C.=+o.o.-+$ $ D . . ",
"  . 7.$ $ $ $ $ $ $ $ $ $ $ $ $ $ $ $ $ $ $ $ $ $ $ $ $ $ $ $ $ $ $ $ $ $ $ $ $ $ $ $ $ ( .   ",
"  . x x.D $ $ $ $ $ $ $ $ $ $ $ $ $ $ $ $ $ $ $ $ $ $ $ $ $ $ $ $ $ $ $ $ $ $ $ $ $ D x.x .   ",
"    . . . . . . . . . . . . . . . . . . . . . . . . . . . . . . . . . . . . . . . . . . .     ",
"        . . . . . . . . . . . . . . . . . . . . . . . . . . . . . . . . . . . . . . .         "};
