/* XPM */
static const char* spades7_xpm[] = {
"47 62 190 2",
"  	c None",
". 	c #000000",
"+ 	c #2A2A2A",
"@ 	c #B0B0B0",
"# 	c #FCFCFC",
"$ 	c #FFFFFF",
"% 	c #B2B2B2",
"& 	c #FDFDFD",
"* 	c #CFCFCF",
"= 	c #AFAFAF",
"- 	c #CACACA",
"; 	c #F6F6F6",
"> 	c #646464",
", 	c #7A7A7A",
"' 	c #F7F7F7",
") 	c #ADADAD",
"! 	c #777777",
"~ 	c #242424",
"{ 	c #B4B4B4",
"] 	c #232323",
"^ 	c #010101",
"/ 	c #EDEDED",
"( 	c #E9E9E9",
"_ 	c #272727",
": 	c #F9F9F9",
"< 	c #4E4E4E",
"[ 	c #BABABA",
"} 	c #484848",
"| 	c #616161",
"1 	c #FAFAFA",
"2 	c #070707",
"3 	c #BCBCBC",
"4 	c #BEBEBE",
"5 	c #090909",
"6 	c #494949",
"7 	c #757575",
"8 	c #9B9B9B",
"9 	c #FBFBFB",
"0 	c #525252",
"a 	c #0B0B0B",
"b 	c #C5C5C5",
"c 	c #C2C2C2",
"d 	c #545454",
"e 	c #3B3B3B",
"f 	c #D5D5D5",
"g 	c #575757",
"h 	c #0F0F0F",
"i 	c #CECECE",
"j 	c #C6C6C6",
"k 	c #0D0D0D",
"l 	c #5F5F5F",
"m 	c #FEFEFE",
"n 	c #080808",
"o 	c #101010",
"p 	c #7E7E7E",
"q 	c #171717",
"r 	c #EEEEEE",
"s 	c #8D8D8D",
"t 	c #C7C7C7",
"u 	c #F8F8F8",
"v 	c #141414",
"w 	c #9C9C9C",
"x 	c #8C8C8C",
"y 	c #1F1F1F",
"z 	c #E8E8E8",
"A 	c #BFBFBF",
"B 	c #DBDBDB",
"C 	c #F2F2F2",
"D 	c #0C0C0C",
"E 	c #131313",
"F 	c #6C6C6C",
"G 	c #020202",
"H 	c #0A0A0A",
"I 	c #EBEBEB",
"J 	c #E4E4E4",
"K 	c #050505",
"L 	c #767676",
"M 	c #747474",
"N 	c #C9C9C9",
"O 	c #888888",
"P 	c #ABABAB",
"Q 	c #4F4F4F",
"R 	c #929292",
"S 	c #8E8E8E",
"T 	c #B6B6B6",
"U 	c #424242",
"V 	c #B7B7B7",
"W 	c #868686",
"X 	c #C4C4C4",
"Y 	c #828282",
"Z 	c #121212",
"` 	c #DCDCDC",
" .	c #D8D8D8",
"..	c #737373",
"+.	c #6B6B6B",
"@.	c #6F6F6F",
"#.	c #696969",
"$.	c #151515",
"%.	c #DEDEDE",
"&.	c #0E0E0E",
"*.	c #B3B3B3",
"=.	c #7F7F7F",
"-.	c #717171",
";.	c #7C7C7C",
">.	c #808080",
",.	c #040404",
"'.	c #1C1C1C",
").	c #898989",
"!.	c #D1D1D1",
"~.	c #595959",
"{.	c #969696",
"].	c #404040",
"^.	c #5A5A5A",
"/.	c #3A3A3A",
"(.	c #ACACAC",
"_.	c #111111",
":.	c #C1C1C1",
"<.	c #F0F0F0",
"[.	c #E0E0E0",
"}.	c #1A1A1A",
"|.	c #8F8F8F",
"1.	c #E6E6E6",
"2.	c #252525",
"3.	c #818181",
"4.	c #F1F1F1",
"5.	c #333333",
"6.	c #8B8B8B",
"7.	c #E2E2E2",
"8.	c #282828",
"9.	c #D3D3D3",
"0.	c #919191",
"a.	c #262626",
"b.	c #2C2C2C",
"c.	c #9A9A9A",
"d.	c #2D2D2D",
"e.	c #2F2F2F",
"f.	c #A6A6A6",
"g.	c #363636",
"h.	c #EFEFEF",
"i.	c #878787",
"j.	c #1B1B1B",
"k.	c #A3A3A3",
"l.	c #373737",
"m.	c #F3F3F3",
"n.	c #313131",
"o.	c #060606",
"p.	c #A2A2A2",
"q.	c #C0C0C0",
"r.	c #959595",
"s.	c #323232",
"t.	c #D7D7D7",
"u.	c #CCCCCC",
"v.	c #D6D6D6",
"w.	c #A4A4A4",
"x.	c #B8B8B8",
"y.	c #3C3C3C",
"z.	c #D0D0D0",
"A.	c #F4F4F4",
"B.	c #D4D4D4",
"C.	c #DFDFDF",
"D.	c #9F9F9F",
"E.	c #030303",
"F.	c #A0A0A0",
"G.	c #161616",
"H.	c #DDDDDD",
"I.	c #666666",
"J.	c #5E5E5E",
"K.	c #434343",
"L.	c #6D6D6D",
"M.	c #5D5D5D",
"N.	c #535353",
"O.	c #ECECEC",
"P.	c #555555",
"Q.	c #939393",
"R.	c #3F3F3F",
"S.	c #181818",
"T.	c #848484",
"U.	c #202020",
"V.	c #7D7D7D",
"W.	c #1E1E1E",
"X.	c #BDBDBD",
"Y.	c #353535",
"Z.	c #B1B1B1",
"`.	c #D9D9D9",
" +	c #A1A1A1",
".+	c #707070",
"++	c #676767",
"@+	c #AAAAAA",
"#+	c #2E2E2E",
"$+	c #B5B5B5",
"        . . . . . . . . . . . . . . . . . . . . . . . . . . . . . . . . . . . . . . .         ",
"    . . . . . . . . . . . . . . . . . . . . . . . . . . . . . . . . . . . . . . . . . . .     ",
"  . + @ # $ $ $ $ $ $ $ $ $ $ $ $ $ $ $ $ $ $ $ $ $ $ $ $ $ $ $ $ $ $ $ $ $ $ $ $ $ # @ + .   ",
"  . % $ $ $ $ $ $ $ $ $ $ $ $ $ $ $ $ $ $ $ $ $ $ $ $ $ $ $ $ $ $ $ $ $ $ $ $ $ $ $ $ $ % .   ",
". . & $ $ * = = = = - $ $ $ $ $ $ $ $ $ $ $ $ $ $ $ $ $ $ $ $ $ $ $ $ $ $ $ $ $ $ $ $ $ ; .   ",
". . $ $ $ > . . . . , $ $ $ $ $ $ $ $ $ $ $ $ $ $ $ $ $ $ $ $ $ $ $ $ $ $ $ $ $ $ $ $ $ ' .   ",
". . $ $ $ ) ! ! ~ . { $ $ $ $ $ $ $ $ $ $ $ $ $ $ $ $ $ $ $ $ $ $ $ $ $ $ $ $ $ $ $ $ $ ' .   ",
". . $ $ $ $ $ $ ] ^ / $ $ $ $ $ $ $ $ $ $ $ $ $ $ $ $ $ $ $ $ $ $ $ $ $ $ $ $ $ $ $ $ $ ' .   ",
". . $ $ $ $ $ ( . _ $ $ $ $ $ $ : < % $ $ $ $ $ $ $ $ $ $ [ } ; $ $ $ $ $ $ $ $ $ $ $ $ ' .   ",
". . $ $ $ $ $ = . | $ $ $ $ $ 1 < . 2 3 $ $ $ $ $ $ $ $ 4 5 . 6 1 $ $ $ $ $ $ $ $ $ $ $ ' .   ",
". . $ $ $ $ $ 7 . 8 $ $ $ $ 9 0 . . . a b $ $ $ $ $ $ c a . . . d # $ $ $ $ $ $ $ $ $ $ ' .   ",
". . $ $ $ $ $ e . f $ $ $ # g . . . . . h i $ $ $ $ j k . . . . . l m $ $ $ $ $ $ $ $ $ ' .   ",
". . $ $ $ $ : n o m $ $ $ p . . . . . . . q ; $ $ r h . . . . . . . s $ $ $ $ $ $ $ $ $ ' .   ",
". . $ $ $ $ t . } $ $ $ u v . . . . . . . . w $ $ x . . . . . . . . y & $ $ $ $ $ $ $ $ ' .   ",
". . $ $ $ $ z A B $ $ $ C D . . . . . . . . x $ $ p . . . . . . . . E : $ $ $ $ $ $ $ $ ' .   ",
". . $ $ $ $ $ ! 4 $ $ $ $ F . . a G o . . H I $ $ J n . . k K H . . L $ $ $ $ $ $ $ $ $ ' .   ",
". . $ $ $ $ M . D N $ $ $ $ A O P . Q % R r $ m m $ I S T U . V W X $ $ $ $ $ $ $ $ $ $ ' .   ",
". . $ $ $ Y . . . Z ` $ $ $ $  .o . . ..$ $ $ +.@.$ $ $ #.. . $.%.$ $ $ $ $ $ $ $ $ $ $ ' .   ",
". . $ $ & &.. . . . @.$ $ $ $ *.=.=.=.Y u $ -.. . ;.$ C >.=.=.=.[ $ $ $ $ $ $ $ $ $ $ $ ' .   ",
". . $ $ $ g ,.v '.5 *.$ $ $ $ $ $ $ $ $ $ L . . . . ).$ $ $ $ $ $ $ $ $ $ $ $ $ $ $ $ $ ' .   ",
". . $ $ $ $ !.Z ~.C $ $ $ $ $ $ $ $ $ $ ;.. . . . . . {.$ $ $ $ $ $ $ $ $ $ $ $ $ $ $ $ ' .   ",
". . $ $ $ $ ` A A ; $ $ $ $ $ $ $ $ $ ) . . . . . . . ^ - $ $ $ $ $ $ $ $ $ $ $ $ $ $ $ ' .   ",
". . $ $ $ $ $ $ $ $ $ $ $ $ $ $ $ $ $ ].. . . . . . . . ^.$ $ $ $ $ $ $ $ $ $ $ $ $ $ $ ' .   ",
". . $ $ $ $ $ $ $ $ $ $ $ $ $ $ $ $ $ /.. . . . . . . . 0 $ $ $ $ $ $ $ $ $ $ $ $ $ $ $ ' .   ",
". . $ $ $ $ $ $ $ $ $ $ $ $ $ $ $ $ $ (.G . K &._.G . K :.$ $ $ $ $ $ $ $ $ $ $ $ $ $ $ ' .   ",
". . $ $ $ $ $ $ $ $ $ $ $ $ $ $ $ <.$ $ [.s A k }.:.|.z $ $ <.$ $ $ $ $ $ $ $ $ $ $ $ $ ' .   ",
". . $ $ $ $ $ $ $ $ $ $ $ $ $ $ 1.2.3.$ $ 4.] . . 5.1 $ $ 6.y 7.$ $ $ $ $ $ $ $ $ $ $ $ ' .   ",
". . $ $ $ $ $ $ $ $ $ $ $ $ $ z 8.. . S $ 9.|.|.|.|.%.$ 0.. . a.z $ $ $ $ $ $ $ $ $ $ $ ' .   ",
". . $ $ $ $ $ $ $ $ $ $ $ $ I b.. . . . c.$ $ $ $ $ $ {.. . . . d./ $ $ $ $ $ $ $ $ $ $ ' .   ",
". . $ $ $ $ $ $ $ $ $ $ $ / e.. . . . . G f.$ $ $ $ 8 ^ . . . . . g.C $ $ $ $ $ $ $ $ $ ' .   ",
". . $ $ $ $ $ $ $ $ $ $ $ | . . . . . . . 2 ( $ $ %.G . . . . . . . -.$ $ $ $ $ $ $ $ $ ' .   ",
". . $ $ $ $ $ $ $ $ $ $ h.n . . . . . . . . i.$ $ ! . . . . . . . . o ' $ $ $ $ $ $ $ $ ' .   ",
". . $ $ $ $ $ $ $ $ $ $ 9 j.. . . . . . . . k.$ $ {.. . . . . . . . 2.m $ $ $ $ $ $ $ $ ' .   ",
". . $ $ $ $ $ $ $ $ $ $ $ c.a . d.G b.2 . l.u $ $ m.n.. n a.o.d.. k p.$ $ $ $ $ $ $ $ $ ' .   ",
". . $ $ $ $ $ $ $ $ $ $ $ $ h.q.r.. s.t.u.$ $ $ $ $ $ t v.8.. w.A C $ $ $ $ $ $ $ $ $ $ ' .   ",
". . $ $ $ $ $ $ $ $ $ $ $ $ $ x.^ . . 6 $ $ $ $ $ $ $ m y.. . ,.X $ $ $ $ $ $ $ $ $ $ $ ' .   ",
". . $ $ $ $ $ $ $ $ $ $ $ $ $ z.V V V V u $ $ $ $ $ $ A.V V V V B.$ $ $ $ $ $ $ $ $ $ $ ' .   ",
". . $ $ $ $ $ $ $ $ $ $ $ $ $ $ $ $ $ $ $ $ $ $ $ $ $ $ $ $ $ $ $ $ $ $ $ $ $ $ $ $ $ $ ' .   ",
". . $ $ $ $ $ $ $ $ $ $ $ $ $ $ $ $ $ $ $ $ $ $ $ $ $ $ $ $ $ $ $ $ $ $ $ $ $ $ $ $ $ $ ' .   ",
". . $ $ $ $ $ $ $ $ $ $ $ $ $ $ $ $ $ $ $ $ $ $ $ $ $ $ $ $ $ $ $ $ $ $ $ $ $ $ $ $ $ $ ' .   ",
". . $ $ $ $ $ $ $ $ $ $ $ $ $ $ $ $ $ $ $ $ $ $ $ $ $ $ $ $ $ $ $ $ $ $ $ $ f.i.p.$ $ $ ' .   ",
". . $ $ $ $ $ $ $ $ $ $ $ $ $ $ $ $ $ $ $ $ $ $ $ $ $ $ $ $ $ $ $ $ $ $ $ C.D.,.w ` $ $ ' .   ",
". . $ $ $ $ $ $ $ $ $ $ $ $ $ $ $ $ $ $ $ $ $ $ $ $ $ $ $ $ $ $ $ $ $ $ C.E.^ o.G G  .$ ' .   ",
". . $ $ $ $ $ $ $ $ $ $ $ $ $ { l l l | r $ $ $ $ $ $ 1 #.l l l F.$ $ $ - . . . . . X $ ' .   ",
". . $ $ $ $ $ $ $ $ $ $ $ $ $ r a.. . M $ $ $ $ $ $ $ $ r.. . G.H.$ $ $ $ I.. . . J.$ $ ' .   ",
". . $ $ $ $ $ $ $ $ $ $ $ # ) I.@ K K.D.L.B.$ $ $ $ [.! |.M.. p.+.D.' $ $ & M.. N.# $ $ ' .   ",
". . $ $ $ $ $ $ $ $ $ $ $ 7 . . . ,.K . . . B.$ $ O.n . . K ^ E.. . P.$ $ $ # 6.: $ $ $ ' .   ",
". . $ $ $ $ $ $ $ $ $ $ 1 Z . . . . . . . . L.$ $ s . . . . . . . . ,.z $ $ $ $ $ $ $ $ ' .   ",
". . $ $ $ $ $ $ $ $ $ $ $ e.. . . . . . . . Q.$ $ = . . . . . . . . G.: $ $ u.R.=.$ $ $ ' .   ",
". . $ $ $ $ $ $ $ $ $ $ $ p.. . . . . . . S.m.$ $ 9 a.. . . . . . . T.$ $ $ O . i.$ $ $ ' .   ",
". . $ $ $ $ $ $ $ $ $ $ $ $ Y . . . . . _.!.$ $ $ $ 7.U.. . . . . J.m $ $ $ < . :.$ $ $ ' .   ",
". . $ $ $ $ $ $ $ $ $ $ $ $ $ V.. . . D t $ $ $ $ $ $ C.W.. . . N.# $ $ $ $ $.K ; $ $ $ ' .   ",
". . $ $ $ $ $ $ $ $ $ $ $ $ $ $ ! . 2 X.$ $ $ $ $ $ $ $ ` j.. } : $ $ $ $ B . Y.$ $ $ $ ' .   ",
". . $ $ $ $ $ $ $ $ $ $ $ $ $ $ $ L Z.$ $ $ $ $ $ $ $ $ $ `.g ; $ $ $ $ $  +. .+$ $ $ $ ' .   ",
". . $ $ $ $ $ $ $ $ $ $ $ $ $ $ $ $ $ $ $ $ $ $ $ $ $ $ $ $ $ $ $ $ $ $ $ ++. @+$ $ $ $ ' .   ",
". . $ $ $ $ $ $ $ $ $ $ $ $ $ $ $ $ $ $ $ $ $ $ $ $ $ $ $ $ $ $ $ $ $ $ $ #+. ` ' u $ $ ' .   ",
". . $ $ $ $ $ $ $ $ $ $ $ $ $ $ $ $ $ $ $ $ $ $ $ $ $ $ $ $ $ $ $ $ $ $ 4.G . . . 2 $ $ ' .   ",
". . m $ $ $ $ $ $ $ $ $ $ $ $ $ $ $ $ $ $ $ $ $ $ $ $ $ $ $ $ $ $ $ $ $ u.e.e.e.e.Y.$ $ ' .   ",
"  . T $ $ $ $ $ $ $ $ $ $ $ $ $ $ $ $ $ $ $ $ $ $ $ $ $ $ $ $ $ $ $ $ $ $ $ $ $ $ $ $ $ $+.   ",
"  . #+x.m $ $ $ $ $ $ $ $ $ $ $ $ $ $ $ $ $ $ $ $ $ $ $ $ $ $ $ $ $ $ $ $ $ $ $ $ $ m x.#+.   ",
"    . . . . . . . . . . . . . . . . . . . . . . . . . . . . . . . . . . . . . . . . . . .     ",
"        . . . . . . . . . . . . . . . . . . . . . . . . . . . . . . . . . . . . . . .         "};
