/* XPM */
static const char* spades8_xpm[] = {
"47 62 212 2",
"  	c None",
". 	c #000000",
"+ 	c #2E2E2E",
"@ 	c #B2B2B2",
"# 	c #FCFCFC",
"$ 	c #FFFFFF",
"% 	c #B0B0B0",
"& 	c #2A2A2A",
"* 	c #B9B9B9",
"= 	c #FEFEFE",
"- 	c #F9F9F9",
"; 	c #B1B1B1",
"> 	c #AFAFAF",
", 	c #DCDCDC",
"' 	c #FDFDFD",
") 	c #4E4E4E",
"! 	c #151515",
"~ 	c #D2D2D2",
"{ 	c #383838",
"] 	c #777777",
"^ 	c #656565",
"/ 	c #515151",
"( 	c #D8D8D8",
"_ 	c #4F4F4F",
": 	c #434343",
"< 	c #8F8F8F",
"[ 	c #797979",
"} 	c #CACACA",
"| 	c #3F3F3F",
"1 	c #EFEFEF",
"2 	c #5E5E5E",
"3 	c #9D9D9D",
"4 	c #E2E2E2",
"5 	c #060606",
"6 	c #888888",
"7 	c #CCCCCC",
"8 	c #101010",
"9 	c #3A3A3A",
"0 	c #F4F4F4",
"a 	c #626262",
"b 	c #020202",
"c 	c #A9A9A9",
"d 	c #4A4A4A",
"e 	c #9F9F9F",
"f 	c #878787",
"g 	c #CFCFCF",
"h 	c #121212",
"i 	c #444444",
"j 	c #F8F8F8",
"k 	c #676767",
"l 	c #050505",
"m 	c #B3B3B3",
"n 	c #D1D1D1",
"o 	c #131313",
"p 	c #505050",
"q 	c #FBFBFB",
"r 	c #6C6C6C",
"s 	c #080808",
"t 	c #BDBDBD",
"u 	c #303030",
"v 	c #575757",
"w 	c #535353",
"x 	c #F6F6F6",
"y 	c #171717",
"z 	c #7C7C7C",
"A 	c #969696",
"B 	c #0C0C0C",
"C 	c #E8E8E8",
"D 	c #5B5B5B",
"E 	c #1C1C1C",
"F 	c #DBDBDB",
"G 	c #9C9C9C",
"H 	c #111111",
"I 	c #F5F5F5",
"J 	c #262626",
"K 	c #7F7F7F",
"L 	c #C1C1C1",
"M 	c #BFBFBF",
"N 	c #E5E5E5",
"O 	c #8E8E8E",
"P 	c #EDEDED",
"Q 	c #1A1A1A",
"R 	c #6E6E6E",
"S 	c #C9C9C9",
"T 	c #EEEEEE",
"U 	c #0D0D0D",
"V 	c #010101",
"W 	c #0F0F0F",
"X 	c #646464",
"Y 	c #848484",
"Z 	c #D7D7D7",
"` 	c #696969",
" .	c #D3D3D3",
"..	c #F0F0F0",
"+.	c #949494",
"@.	c #ACACAC",
"#.	c #555555",
"$.	c #A6A6A6",
"%.	c #8B8B8B",
"&.	c #BBBBBB",
"*.	c #C8C8C8",
"=.	c #858585",
"-.	c #3B3B3B",
";.	c #191919",
">.	c #7B7B7B",
",.	c #E6E6E6",
"'.	c #5A5A5A",
").	c #070707",
"!.	c #FAFAFA",
"~.	c #838383",
"{.	c #AEAEAE",
"].	c #E4E4E4",
"^.	c #232323",
"/.	c #EBEBEB",
"(.	c #4C4C4C",
"_.	c #1B1B1B",
":.	c #C0C0C0",
"<.	c #E7E7E7",
"[.	c #DADADA",
"}.	c #C7C7C7",
"|.	c #E9E9E9",
"1.	c #1D1D1D",
"2.	c #E0E0E0",
"3.	c #454545",
"4.	c #343434",
"5.	c #C2C2C2",
"6.	c #BABABA",
"7.	c #474747",
"8.	c #B8B8B8",
"9.	c #808080",
"0.	c #6B6B6B",
"a.	c #A5A5A5",
"b.	c #F2F2F2",
"c.	c #A0A0A0",
"d.	c #161616",
"e.	c #D6D6D6",
"f.	c #ABABAB",
"g.	c #959595",
"h.	c #6A6A6A",
"i.	c #A3A3A3",
"j.	c #DEDEDE",
"k.	c #9B9B9B",
"l.	c #373737",
"m.	c #767676",
"n.	c #030303",
"o.	c #222222",
"p.	c #F3F3F3",
"q.	c #AAAAAA",
"r.	c #2B2B2B",
"s.	c #ECECEC",
"t.	c #909090",
"u.	c #5F5F5F",
"v.	c #D5D5D5",
"w.	c #EAEAEA",
"x.	c #141414",
"y.	c #868686",
"z.	c #3C3C3C",
"A.	c #333333",
"B.	c #090909",
"C.	c #ADADAD",
"D.	c #272727",
"E.	c #CECECE",
"F.	c #C3C3C3",
"G.	c #C5C5C5",
"H.	c #4D4D4D",
"I.	c #757575",
"J.	c #B7B7B7",
"K.	c #CDCDCD",
"L.	c #6D6D6D",
"M.	c #D9D9D9",
"N.	c #A2A2A2",
"O.	c #040404",
"P.	c #545454",
"Q.	c #3D3D3D",
"R.	c #707070",
"S.	c #919191",
"T.	c #F1F1F1",
"U.	c #E1E1E1",
"V.	c #A4A4A4",
"W.	c #484848",
"X.	c #2C2C2C",
"Y.	c #353535",
"Z.	c #5C5C5C",
"`.	c #666666",
" +	c #929292",
".+	c #6F6F6F",
"++	c #979797",
"@+	c #F7F7F7",
"#+	c #313131",
"$+	c #A7A7A7",
"%+	c #686868",
"&+	c #565656",
"*+	c #595959",
"=+	c #8D8D8D",
"-+	c #8A8A8A",
";+	c #252525",
">+	c #0B0B0B",
",+	c #787878",
"'+	c #404040",
")+	c #393939",
"!+	c #737373",
"~+	c #0E0E0E",
"{+	c #898989",
"]+	c #999999",
"^+	c #BCBCBC",
"/+	c #525252",
"(+	c #7A7A7A",
"_+	c #C4C4C4",
":+	c #1F1F1F",
"<+	c #717171",
"[+	c #2F2F2F",
"}+	c #B6B6B6",
"        . . . . . . . . . . . . . . . . . . . . . . . . . . . . . . . . . . . . . . .         ",
"    . . . . . . . . . . . . . . . . . . . . . . . . . . . . . . . . . . . . . . . . . . .     ",
"  . + @ # $ $ $ $ $ $ $ $ $ $ $ $ $ $ $ $ $ $ $ $ $ $ $ $ $ $ $ $ $ $ $ $ $ $ $ $ $ # % & .   ",
"  . * $ $ $ $ $ $ $ $ $ $ $ $ $ $ $ $ $ $ $ $ $ $ $ $ $ $ $ $ $ $ $ $ $ $ $ $ $ $ $ $ $ @ .   ",
". . = $ $ - ; > > , $ $ $ $ $ $ $ $ $ $ $ $ $ $ $ $ $ $ $ $ $ $ $ $ $ $ $ $ $ $ $ $ $ $ ' . . ",
". . $ $ - ) . . . ! ~ $ $ $ $ $ $ $ $ $ $ $ $ $ $ $ $ $ $ $ $ $ $ $ $ $ $ $ $ $ $ $ $ $ $ . . ",
". . $ $ ; . { ] ^ . / $ $ $ $ $ $ $ $ $ $ $ $ $ $ $ $ $ $ $ $ $ $ $ $ $ $ $ $ $ $ $ $ $ $ . . ",
". . $ $ % . ] $ ( . _ $ $ $ $ $ $ $ $ $ $ $ $ $ $ $ $ $ $ $ $ $ $ $ $ $ $ $ $ $ $ $ $ $ $ . . ",
". . $ $ % . : < [ . _ $ $ $ $ $ } | 1 $ $ $ $ $ $ $ $ $ ' 2 3 $ $ $ $ $ $ $ $ $ $ $ $ $ $ . . ",
". . $ $ 4 5 . . . . 6 $ $ $ $ 7 8 . 9 0 $ $ $ $ $ $ $ = a . b c $ $ $ $ $ $ $ $ $ $ $ $ $ . . ",
". . $ $ % . d e f . _ $ $ $ g h . . . i j $ $ $ $ $ = k . . . l m $ $ $ $ $ $ $ $ $ $ $ $ . . ",
". . $ $ % . ] $ ( . _ $ $ n o . . . . . p q $ $ $ $ r . . . . . s t $ $ $ $ $ $ $ $ $ $ $ . . ",
". . $ $ m . u k v . w $ x y . . . . . . . z $ $ $ A . . . . . . . B C $ $ $ $ $ $ $ $ $ $ . . ",
". . $ $ # D . . . E F $ G . . . . . . . . H I $ = J . . . . . . . . K $ $ $ $ $ $ $ $ $ $ . . ",
". . $ $ $ # L M M N $ $ O . . . . . . . . s P $ q Q . . . . . . . . R $ $ $ $ $ $ $ $ $ $ . . ",
". . $ $ $ $ = R S $ $ $ T U . . U V W . . X $ $ $ Y . . 5 5 8 . . l Z $ $ $ $ $ $ $ $ $ $ . . ",
". . $ $ $ $ ` . h  .$ $ $ ..+.@.#.. $.%.&.= $ ' $ $ *.=.* b -.&.%.C $ $ $ $ $ $ $ $ $ $ $ . . ",
". . $ $ $ [ . . . ;.N $ $ $ $ >.. . B g $ $ 4 + } $ $ ,.Q . . '.$ $ $ $ $ $ $ $ $ $ $ $ $ . . ",
". . $ $ x ).. . . . K $ $ $ !.~.K K K {.$ ].^.. h ~ $ M K K K K /.$ $ $ $ $ $ $ $ $ $ $ $ . . ",
". . $ $ $ (.5 h _.B :.$ $ $ $ $ $ $ $ $ <.J . . . y [.$ $ $ $ $ $ $ $ $ $ $ $ $ $ $ $ $ $ . . ",
". . $ $ $ $ }.B a 0 $ $ $ $ $ $ $ $ $ |.& . . . . . 1.2.$ $ $ $ $ $ $ $ $ $ $ $ $ $ $ $ $ . . ",
". . $ $ $ $ ( M :.!.$ $ $ $ $ $ $ $ $ 3.. . . . . . . 4.$ $ $ $ $ $ $ $ $ $ $ $ $ $ $ $ $ . . ",
". . $ $ $ $ $ $ $ $ $ $ $ $ $ $ $ $ Z . . . . . . . . . 5.$ $ $ $ $ $ $ $ $ $ $ $ $ $ $ $ . . ",
". . $ $ $ $ $ $ $ $ $ $ $ $ $ $ $ $ ~ . . . . . . . . . 6.$ $ $ $ $ $ $ $ $ $ $ $ $ $ $ $ . . ",
". . $ $ $ $ $ $ $ $ $ $ $ $ $ $ $ $ $ 7.. . o . o . . u = $ $ $ $ $ $ $ $ $ $ $ $ $ $ $ $ . . ",
". . $ $ $ $ $ $ $ $ $ $ $ $ $ $ $ ..$ = 8.G 9.. 0.a.{.# $ b.= $ $ $ $ $ $ $ $ $ $ $ $ $ $ . . ",
". . $ $ $ $ $ $ $ $ $ $ $ $ $ $ c.d.e.$ $ f.V . . g.$ $ ..4.h.$ $ $ $ $ $ $ $ $ $ $ $ $ $ . . ",
". . $ $ $ $ $ $ $ $ $ $ $ $ $ i.b . _.j.$ $.< < < k.$ b.l.. . m.$ $ $ $ $ $ $ $ $ $ $ $ $ . . ",
". . $ $ $ $ $ $ $ $ $ $ $ $ $.n.. . . o.,.$ $ $ $ $ p.-.. . . . ~.$ $ $ $ $ $ $ $ $ $ $ $ . . ",
". . $ $ $ $ $ $ $ $ $ $ $ q.n.. . . . . r.s.$ $ $ I | . . . . . . t.$ $ $ $ $ $ $ $ $ $ $ . . ",
". . $ $ $ $ $ $ $ $ $ $ |.).. . . . . . . u.$ $ $ [ . . . . . . . V v.$ $ $ $ $ $ $ $ $ $ . . ",
". . $ $ $ $ $ $ $ $ $ $ f . . . . . . . . 5 w.$ !.x.. . . . . . . . ` $ $ $ $ $ $ $ $ $ $ . . ",
". . $ $ $ $ $ $ $ $ $ $ $.. . . . . . . . ! j $ $ + . . . . . . . . y.$ $ $ $ $ $ $ $ $ $ . . ",
". . $ $ $ $ $ $ $ $ $ $ !.z.. l & V A.. B.+.$ $ $ C.8 . J B.D.B . r.w.$ $ $ $ $ $ $ $ $ $ . . ",
". . $ $ $ $ $ $ $ $ $ $ $ $ E.v.{ . O F.P $ $ $ $ $ 0 t f.. ^.e.G.$ $ $ $ $ $ $ $ $ $ $ $ . . ",
". . $ $ $ $ $ $ $ $ $ $ $ $ $ H.. . V % $ Y v v v I.$ 7 5 . . A.q $ $ $ $ $ $ $ $ $ $ $ $ . . ",
". . $ $ $ $ $ $ $ $ $ $ $ $ !.8.J.J.J.K.$ K.U . ).M $ e.J.J.J.J.1 $ $ $ $ $ $ $ $ $ $ $ $ . . ",
". . $ $ $ $ $ $ $ $ $ $ $ $ $ $ $ $ $ ,.9.X y.. m.L.m.j.$ $ $ $ $ $ $ $ $ $ $ $ $ $ $ $ $ . . ",
". . $ $ $ $ $ $ $ $ $ $ $ $ $ $ $ $ = D.. . V . V . . ! j $ $ $ $ $ $ $ $ $ $ $ $ $ $ $ $ . . ",
". . $ $ $ $ $ $ $ $ $ $ $ $ $ $ $ $ L . . . . . . . . . c $ $ $ $ $ $ $ $ $ $ $ $ $ $ $ $ . . ",
". . $ $ $ $ $ $ $ $ $ $ $ $ $ $ $ $ |.5 . . . . . . . V M.$ $ $ $ $ $ $ $ $ N.f $.$ $ $ $ . . ",
". . $ $ $ $ $ $ $ $ $ $ $ $ $ $ $ $ $ r . . . . . . . #.$ $ $ $ $ $ $ $ $ , G O.e 2.$ $ $ . . ",
". . $ $ $ $ $ $ $ $ $ $ $ $ $ $ $ $ $ # P.. . . . . Q.x $ $ $ $ $ $ $ $ ( b b 5 V l N $ $ . . ",
". . $ $ $ $ $ $ $ $ $ $ $ $ = R.u.u.u.S.!.) . . . 4.T.F.u.u.u.u.U.$ $ $ 5.. . . . . n $ $ . . ",
". . $ $ $ $ $ $ $ $ $ $ $ $ $ V.V . U E.$ - W.. X.P $ j Y.. . Z.$ $ $ $ $ 2 . . . `.$ $ $ . . ",
". . $ $ $ $ $ $ $ $ $ $ $ N 9.Y h..  +.+++p.@+X <.= J.^ @ 8 #+$+%+S $ $ $ # &+. *+' $ $ $ . . ",
". . $ $ $ $ $ $ $ $ $ $ I 8 . . O.. O.. . Q.$ $ $ =+. . . O.l . . . J.$ $ $ q -+q $ $ $ $ . . ",
". . $ $ $ $ $ $ $ $ $ $ 3 . . . . . . . . . v.$ $ ;+. . . . . . . . w $ $ $ $ $ $ $ $ $ $ . . ",
". . $ $ $ $ $ $ $ $ $ $ 5.. . . . . . . . >+..$ $ 7.. . . . . . . . ,+$ $ }.'+| | ~.$ $ $ . . ",
". . $ $ $ $ $ $ $ $ $ $ $ )+. . . . . . . !+$ $ $ 8.V . . . . . . >+2.$ e.~+. . . . {+$ $ . . ",
". . $ $ $ $ $ $ $ $ $ $ $ s.+ . . . . . _ q $ $ $ $ ]+V . . . . ).^+$ $ C.. R <.L . /+$ $ . . ",
". . $ $ $ $ $ $ $ $ $ $ $ $ w.& . . . : j $ $ $ $ $ $ +.. . . O.@ $ $ $ C.. (+$ v.. /+$ $ . . ",
". . $ $ $ $ $ $ $ $ $ $ $ $ $ C D.. )+0 $ $ $ $ $ $ $ $ < . b $+$ $ $ $ _+V W :+Q . h.$ $ . . ",
". . $ $ $ $ $ $ $ $ $ $ $ $ $ $ N w 1 $ $ $ $ $ $ $ $ $ $ -+G $ $ $ $ $ S n.).W U . <+$ $ . . ",
". . $ $ $ $ $ $ $ $ $ $ $ $ $ $ $ $ $ $ $ $ $ $ $ $ $ $ $ $ $ $ $ $ $ $ C.. (+$ v.. /+$ $ . . ",
". . $ $ $ $ $ $ $ $ $ $ $ $ $ $ $ $ $ $ $ $ $ $ $ $ $ $ $ $ $ $ $ $ $ $ C.. m.@+g . /+$ $ . . ",
". . $ $ $ $ $ $ $ $ $ $ $ $ $ $ $ $ $ $ $ $ $ $ $ $ $ $ $ $ $ $ $ $ $ $ n B.. . . . K $ $ . . ",
". . $ $ $ $ $ $ $ $ $ $ $ $ $ $ $ $ $ $ $ $ $ $ $ $ $ $ $ $ $ $ $ $ $ $ $ ^+u [+[+!+$ $ = . . ",
"  . * $ $ $ $ $ $ $ $ $ $ $ $ $ $ $ $ $ $ $ $ $ $ $ $ $ $ $ $ $ $ $ $ $ $ $ $ $ $ $ $ $ }+.   ",
"  . [+8.= $ $ $ $ $ $ $ $ $ $ $ $ $ $ $ $ $ $ $ $ $ $ $ $ $ $ $ $ $ $ $ $ $ $ $ $ $ = 8.+ .   ",
"    . . . . . . . . . . . . . . . . . . . . . . . . . . . . . . . . . . . . . . . . . . .     ",
"        . . . . . . . . . . . . . . . . . . . . . . . . . . . . . . . . . . . . . . .         "};
