/* XPM */
static const char* spades9_xpm[] = {
"47 62 213 2",
"  	c None",
". 	c #000000",
"+ 	c #2A2A2A",
"@ 	c #B0B0B0",
"# 	c #FCFCFC",
"$ 	c #FFFFFF",
"% 	c #B2B2B2",
"& 	c #FDFDFD",
"* 	c #FAFAFA",
"= 	c #B1B1B1",
"- 	c #AFAFAF",
"; 	c #DBDBDB",
"> 	c #515151",
", 	c #131313",
"' 	c #D0D0D0",
") 	c #B4B4B4",
"! 	c #363636",
"~ 	c #777777",
"{ 	c #676767",
"] 	c #4D4D4D",
"^ 	c #E0E0E0",
"/ 	c #E1E1E1",
"( 	c #C9C9C9",
"_ 	c #F9F9F9",
": 	c #B3B3B3",
"< 	c #747474",
"[ 	c #4C4C4C",
"} 	c #E3E3E3",
"| 	c #222222",
"1 	c #252525",
"2 	c #E7E7E7",
"3 	c #BEBEBE",
"4 	c #090909",
"5 	c #414141",
"6 	c #8F8F8F",
"7 	c #7B7B7B",
"8 	c #E6E6E6",
"9 	c #2D2D2D",
"0 	c #EDEDED",
"a 	c #C3C3C3",
"b 	c #0B0B0B",
"c 	c #5C5C5C",
"d 	c #FEFEFE",
"e 	c #F4F4F4",
"f 	c #3F3F3F",
"g 	c #E8E8E8",
"h 	c #282828",
"i 	c #353535",
"j 	c #F2F2F2",
"k 	c #C8C8C8",
"l 	c #0D0D0D",
"m 	c #686868",
"n 	c #999999",
"o 	c #979797",
"p 	c #828282",
"q 	c #F0F0F0",
"r 	c #2B2B2B",
"s 	c #D3D3D3",
"t 	c #101010",
"u 	c #8C8C8C",
"v 	c #AEAEAE",
"w 	c #545454",
"x 	c #060606",
"y 	c #B6B6B6",
"z 	c #2F2F2F",
"A 	c #595959",
"B 	c #4F4F4F",
"C 	c #434343",
"D 	c #636363",
"E 	c #A3A3A3",
"F 	c #5E5E5E",
"G 	c #1A1A1A",
"H 	c #D9D9D9",
"I 	c #9C9C9C",
"J 	c #B7B7B7",
"K 	c #F8F8F8",
"L 	c #494949",
"M 	c #787878",
"N 	c #5F5F5F",
"O 	c #EEEEEE",
"P 	c #C1C1C1",
"Q 	c #BFBFBF",
"R 	c #E5E5E5",
"S 	c #919191",
"T 	c #1F1F1F",
"U 	c #303030",
"V 	c #393939",
"W 	c #9B9B9B",
"X 	c #868686",
"Y 	c #373737",
"Z 	c #8B8B8B",
"` 	c #020202",
" .	c #5A5A5A",
"..	c #575757",
"+.	c #BCBCBC",
"@.	c #696969",
"#.	c #CECECE",
"$.	c #656565",
"%.	c #939393",
"&.	c #F3F3F3",
"*.	c #070707",
"=.	c #B9B9B9",
"-.	c #151515",
";.	c #D8D8D8",
">.	c #CFCFCF",
",.	c #424242",
"'.	c #E2E2E2",
").	c #525252",
"!.	c #010101",
"~.	c #9F9F9F",
"{.	c #A2A2A2",
"].	c #565656",
"^.	c #1D1D1D",
"/.	c #E9E9E9",
"(.	c #969696",
"_.	c #050505",
":.	c #EBEBEB",
"<.	c #878787",
"[.	c #323232",
"}.	c #838383",
"|.	c #3E3E3E",
"1.	c #080808",
"2.	c #1C1C1C",
"3.	c #0E0E0E",
"4.	c #C6C6C6",
"5.	c #5B5B5B",
"6.	c #ABABAB",
"7.	c #929292",
"8.	c #C2C2C2",
"9.	c #6E6E6E",
"0.	c #F5F5F5",
"a.	c #BDBDBD",
"b.	c #C7C7C7",
"c.	c #383838",
"d.	c #0F0F0F",
"e.	c #FBFBFB",
"f.	c #898989",
"g.	c #EAEAEA",
"h.	c #D6D6D6",
"i.	c #C0C0C0",
"j.	c #0A0A0A",
"k.	c #111111",
"l.	c #D1D1D1",
"m.	c #DCDCDC",
"n.	c #121212",
"o.	c #E4E4E4",
"p.	c #909090",
"q.	c #313131",
"r.	c #C5C5C5",
"s.	c #0C0C0C",
"t.	c #171717",
"u.	c #DADADA",
"v.	c #242424",
"w.	c #F7F7F7",
"x.	c #3B3B3B",
"y.	c #DEDEDE",
"z.	c #1E1E1E",
"A.	c #737373",
"B.	c #D5D5D5",
"C.	c #6B6B6B",
"D.	c #7A7A7A",
"E.	c #030303",
"F.	c #181818",
"G.	c #757575",
"H.	c #191919",
"I.	c #292929",
"J.	c #797979",
"K.	c #767676",
"L.	c #A5A5A5",
"M.	c #505050",
"N.	c #D7D7D7",
"O.	c #7F7F7F",
"P.	c #B8B8B8",
"Q.	c #272727",
"R.	c #474747",
"S.	c #444444",
"T.	c #F6F6F6",
"U.	c #7E7E7E",
"V.	c #232323",
"W.	c #ADADAD",
"X.	c #949494",
"Y.	c #EFEFEF",
"Z.	c #333333",
"`.	c #454545",
" +	c #141414",
".+	c #3C3C3C",
"++	c #717171",
"@+	c #ECECEC",
"#+	c #2E2E2E",
"$+	c #F1F1F1",
"%+	c #CCCCCC",
"&+	c #CACACA",
"*+	c #DDDDDD",
"=+	c #3A3A3A",
"-+	c #6A6A6A",
";+	c #BABABA",
">+	c #212121",
",+	c #161616",
"'+	c #858585",
")+	c #959595",
"!+	c #404040",
"~+	c #040404",
"{+	c #989898",
"]+	c #D4D4D4",
"^+	c #818181",
"/+	c #7C7C7C",
"(+	c #AAAAAA",
"_+	c #5D5D5D",
":+	c #202020",
"<+	c #C4C4C4",
"[+	c #A7A7A7",
"}+	c #9D9D9D",
"|+	c #CDCDCD",
"        . . . . . . . . . . . . . . . . . . . . . . . . . . . . . . . . . . . . . . .         ",
"    . . . . . . . . . . . . . . . . . . . . . . . . . . . . . . . . . . . . . . . . . . .     ",
"  . + @ # $ $ $ $ $ $ $ $ $ $ $ $ $ $ $ $ $ $ $ $ $ $ $ $ $ $ $ $ $ $ $ $ $ $ $ $ $ # @ + .   ",
"  . % $ $ $ $ $ $ $ $ $ $ $ $ $ $ $ $ $ $ $ $ $ $ $ $ $ $ $ $ $ $ $ $ $ $ $ $ $ $ $ $ $ % .   ",
". . & $ $ * = - - ; $ $ $ $ $ $ $ $ $ $ $ $ $ $ $ $ $ $ $ $ $ $ $ $ $ $ $ $ $ $ $ $ $ $ & . . ",
". . $ $ * > . . . , ' $ $ $ $ $ $ $ $ $ $ $ $ $ $ $ $ $ $ $ $ $ $ $ $ $ $ $ $ $ $ $ $ $ $ . . ",
". . $ $ ) . ! ~ { . ] $ $ $ $ $ ^ / $ $ $ $ $ $ $ $ $ $ $ $ ( _ $ $ $ $ $ $ $ $ $ $ $ $ $ . . ",
". . $ $ : . < $ ; . [ $ $ $ $ } | 1 2 $ $ $ $ $ $ $ $ $ $ 3 4 > # $ $ $ $ $ $ $ $ $ $ $ $ . . ",
". . $ $ : . 5 6 7 . [ $ $ $ 8 1 . . 9 0 $ $ $ $ $ $ $ $ a b . . c d $ $ $ $ $ $ $ $ $ $ $ . . ",
". . $ $ e f . . . . [ $ $ g h . . . . i j $ $ $ $ $ $ k l . . . . m $ $ $ $ $ $ $ $ $ $ $ . . ",
". . $ $ $ e n o p . [ $ q r . . . . . . f # $ $ $ $ s t . . . . . . 7 $ $ $ $ $ $ $ $ $ $ . . ",
". . $ $ : . < $ ; . [ $ u . . . . . . . . v $ $ $ $ w . . . . . . . x g $ $ $ $ $ $ $ $ $ . . ",
". . $ $ y . z { A . B $ C . . . . . . . . D $ * $ & l . . . . . . . . E $ $ $ $ $ $ $ $ $ . . ",
". . $ $ & F . . . G H $ I . . . . . . . . J K L M $ N . . . . . . . 4 O $ $ $ $ $ $ $ $ $ . . ",
". . $ $ $ & P Q Q R $ $ _ S ! p T U ~ V W K [ . . X 2 ~ Y Z `  ...[ +.$ $ $ $ $ $ $ $ $ $ . . ",
". . $ $ $ $ & @.#.$ $ $ $ $ $ $.. . X $ * B . . . . %.$ &.Y . *.=.$ $ $ $ $ $ $ $ $ $ $ $ . . ",
". . $ $ $ & F . -.;.$ $ $ $ >.f f f ,.'.).. . . . . !.~.{.f f f ].# $ $ $ $ $ $ $ $ $ $ $ . . ",
". . $ $ $ @.. . . ^./.$ $ $ $ $ $ $ $ (.. . . . . . . _.8 $ $ $ $ $ $ $ $ $ $ $ $ $ $ $ $ . . ",
". . $ $ :.` . . . . <.$ $ $ $ $ $ $ $ [.. . . . . . . . }.$ $ $ $ $ $ $ $ $ $ $ $ $ $ $ $ . . ",
". . $ $ $ |.1.t 2.3.4.$ $ $ $ $ =.+.$ 5.. . . . . . . . 6.$ 7.} $ $ $ $ $ $ $ $ $ $ $ $ $ . . ",
". . $ $ $ $ 8.4 9.0.$ $ $ $ $ a.4 b b.' 9 . c.d.U 2.` B e.f.. h g.$ $ $ $ $ $ $ $ $ $ $ $ . . ",
". . $ $ $ $ h.Q i.# $ $ $ $ P j.. . k.l.$ m.I . n.' o.$ p.. . . q.q $ $ $ $ $ $ $ $ $ $ $ . . ",
". . $ $ $ $ $ $ $ $ $ $ $ r.s.. . . . t.u.b.!.. . v.w.o . . . . . x.0.$ $ $ $ $ $ $ $ $ $ . . ",
". . $ $ $ $ $ $ $ $ $ $ y.3.. . . . . . z./.2 2 2 2 - !.. . . . . . ).$ $ $ $ $ $ $ $ $ $ . . ",
". . $ $ $ $ $ $ $ $ $ $ A.. . . . . . . . (.$ $ $ $ x.. . . . . . . . B.$ $ $ $ $ $ $ $ $ . . ",
". . $ $ $ $ $ $ $ $ $ $ [ . . . . . . . . C.$ $ $ & -.. . . . . . . . 6.$ $ $ $ $ $ $ $ $ . . ",
". . $ $ $ $ $ $ $ $ $ $ J . . . _.*.. . !.' $ $ $ $ D.. . E.!.*.. . F._ $ $ $ $ $ $ $ $ $ . . ",
". . $ $ $ $ $ $ $ $ $ $ $ l.G.@ H.I.@ J.u.$ $ $ $ $ d J K.L..  .o u 0 $ $ $ $ $ $ $ $ $ $ . . ",
". . $ $ $ $ $ $ $ $ $ $ $ $ _ Y . . M.$ $ $ $ $ $ $ $ $ ^ t.. . f.$ $ $ $ $ $ $ $ $ $ $ $ . . ",
". . $ $ $ $ $ $ $ $ $ $ $ $ N.O.O.O.O.2 $ $ $ $ $ $ $ $ P.O.O.O.X # $ $ $ $ $ $ $ $ $ $ $ . . ",
". . $ $ $ $ $ $ $ $ $ $ $ $ $ $ $ $ $ $ $ $ $ $ $ $ $ $ $ $ $ $ $ $ $ $ $ $ $ $ $ $ $ $ $ . . ",
". . $ $ $ $ $ $ $ $ $ $ $ $ $ $ $ $ $ $ $ $ $ $ $ $ $ $ $ $ $ $ $ $ $ $ $ $ $ $ $ $ $ $ $ . . ",
". . $ $ $ $ $ $ $ $ $ $ $ $ $ $ $ $ $ $ $ $ $ $ $ $ $ $ $ $ $ $ $ $ $ $ $ $ $ $ $ $ $ $ $ . . ",
". . $ $ $ $ $ $ $ $ $ $ $ $ >.h Q.Q.9 8 $ $ $ $ $ $ $ $ I Q.Q.Q.R.# $ $ $ $ $ $ $ $ $ $ $ . . ",
". . $ $ $ $ $ $ $ $ $ $ $ $ $ M . . n $ $ $ $ $ $ $ $ $ K S.. l b.$ $ $ $ $ $ $ $ $ $ $ $ . . ",
". . $ $ $ $ $ $ $ $ $ $ T.U.T C.z.z D V.f.# $ $ $ $ ^ D T M ` w ,.! W.$ $ $ $ $ $ $ $ $ $ . . ",
". . $ $ $ $ $ $ $ $ $ $ X.. . . . . . . . - $ $ $ $ ... . . . . . . x /.$ $ $ $ $ $ $ $ $ . . ",
". . $ $ $ $ $ $ $ $ $ $ C . . . . . . . . D $ $ $ & l . . . . . . . . E $ $ $ $ $ $ $ $ $ . . ",
". . $ $ $ $ $ $ $ $ $ $ X.. . . . . . . . =.$ $ $ $ c . . . . . . . j.O $ $ $ $ $ $ $ $ $ . . ",
". . $ $ $ $ $ $ $ $ $ $ e i . . . . . . M.d $ $ $ $ u.t.. . . . . . 6 $ $ $ $ $ $ $ $ $ $ . . ",
". . $ $ $ $ $ $ $ $ $ $ $ Y.Z.. . . . `.K $ $ $ $ $ $ s  +. . . . U.$ $ $ $ W <.W.$ $ $ $ . . ",
". . $ $ $ $ $ $ $ $ $ $ $ $ O q.. . .+0.$ $ $ $ $ $ $ $ ' n.. . ++$ $ $ $ N.%.1.L.o.$ $ $ . . ",
". . $ $ $ $ $ $ $ $ $ $ $ $ $ @+#+Z.$+$ $ $ $ $ $ $ $ $ $ %+t $.$ $ $ $ &+. E._.. 1.g.$ $ . . ",
". . $ $ $ $ $ $ $ $ $ $ $ $ $ $ :.:.$ $ $ $ $ $ $ $ $ $ $ $ H & $ $ $ $ % . . . . !.u.$ $ . . ",
". . $ $ $ $ $ $ $ $ $ $ $ $ $ $ $ $ $ $ $ $ $ $ $ $ $ $ $ $ $ $ $ $ $ $ & > . . . K.$ $ $ . . ",
". . $ $ $ $ $ $ $ $ $ $ $ $ $ $ $ $ $ $ $ $ $ $ $ $ $ $ $ $ $ $ $ $ $ $ $ _ L . m $ $ $ $ . . ",
". . $ $ $ $ $ $ $ $ $ $ $ $ o.6 6 6 6 *+$ $ $ $ $ $ $ $ k 6 6 6 S K $ $ $ $ w.u d $ $ $ $ . . ",
". . $ $ $ $ $ $ $ $ $ $ $ $ # =+. . [._ $ $ $ $ $ $ $ $ '.-.. . -+$ $ $ $ $ $ $ $ $ $ $ $ . . ",
". . $ $ $ $ $ $ $ $ $ $ $ 2 f.;+>+,+Q <.'.$ $ $ $ $ $ s '+= ` |.: )+&.$ $ r.!+f f '+$ $ $ . . ",
". . $ $ $ $ $ $ $ $ $ $ s x . . s.l ` . ~+r.$ $ $ $ {+. . x x d.. . -.e ]+l . . . . Z $ $ . . ",
". . $ $ $ $ $ $ $ $ $ $ @.. . . . . . . . A $ $ $ $ I.. . . . . . . . n 6.. ++2 Q . w $ $ . . ",
". . $ $ $ $ $ $ $ $ $ $ ^+. . . . . . . . < $ $ $ $ 5 . . . . . . . . ) 6.. /+$ /.O.(+$ $ . . ",
". . $ $ $ $ $ $ $ $ $ $ 8 3.. . . . . . b ^ $ $ $ $ ) !.. . . . . . 9 d 6.. b t.t._+# $ $ . . ",
". . $ $ $ $ $ $ $ $ $ $ $ b.l . . . . *.+.$ $ $ $ $ $ %.. . . . . :+} $ 6.. *.d.l . < $ $ . . ",
". . $ $ $ $ $ $ $ $ $ $ $ $ <+s.. . ~+% $ $ $ $ $ $ $ $ p.. . . H.m.$ $ 6.. /+$ s . w $ $ . . ",
". . $ $ $ $ $ $ $ $ $ $ $ $ $ P b ` [+$ $ $ $ $ $ $ $ $ $ u .  +B.$ $ $ 6.. M w.%+. w $ $ . . ",
". . $ $ $ $ $ $ $ $ $ $ $ $ $ $ Q }+$ $ $ $ $ $ $ $ $ $ $ $ 6 |+$ $ $ $ >.1.. . . . ^+$ $ . . ",
". . d $ $ $ $ $ $ $ $ $ $ $ $ $ $ $ $ $ $ $ $ $ $ $ $ $ $ $ $ $ $ $ $ $ $ ;+U z z G.$ $ d . . ",
"  . y $ $ $ $ $ $ $ $ $ $ $ $ $ $ $ $ $ $ $ $ $ $ $ $ $ $ $ $ $ $ $ $ $ $ $ $ $ $ $ $ $ y .   ",
"  . #+P.d $ $ $ $ $ $ $ $ $ $ $ $ $ $ $ $ $ $ $ $ $ $ $ $ $ $ $ $ $ $ $ $ $ $ $ $ $ d P.#+.   ",
"    . . . . . . . . . . . . . . . . . . . . . . . . . . . . . . . . . . . . . . . . . . .     ",
"        . . . . . . . . . . . . . . . . . . . . . . . . . . . . . . . . . . . . . . .         "};
