/* XPM */
static const char *cursor[] = {
"16 24 66 1",
" 	c None",
".	c #000000",
"+	c #060606",
"@	c #7C7C7C",
"#	c #323232",
"$	c #080808",
"%	c #BCBCBC",
"&	c #D5D5D5",
"*	c #515151",
"=	c #C1C1C1",
"-	c #F6F6F6",
";	c #D9D9D9",
">	c #454545",
",	c #DADADA",
"'	c #535353",
")	c #C2C2C2",
"!	c #DBDBDB",
"~	c #030303",
"{	c #E0E0E0",
"]	c #656565",
"^	c #C3C3C3",
"/	c #E3E3E3",
"(	c #616161",
"_	c #676767",
":	c #6B6B6B",
"<	c #E7E7E7",
"[	c #787878",
"}	c #EAEAEA",
"|	c #7A7A7A",
"1	c #7D7D7D",
"2	c #818181",
"3	c #414141",
"4	c #2B2B2B",
"5	c #262626",
"6	c #1D1D1D",
"7	c #010101",
"8	c #DDDDDD",
"9	c #F5F5F5",
"0	c #929292",
"a	c #050505",
"b	c #C8C8C8",
"c	c #363636",
"d	c #D7D7D7",
"e	c #0E0E0E",
"f	c #C0C0C0",
"g	c #9F9F9F",
"h	c #5E5E5E",
"i	c #E8E8E8",
"j	c #CBCBCB",
"k	c #111111",
"l	c #6E6E6E",
"m	c #090909",
"n	c #C7C7C7",
"o	c #E9E9E9",
"p	c #636363",
"q	c #040404",
"r	c #737373",
"s	c #F4F4F4",
"t	c #F7F7F7",
"u	c #020202",
"v	c #CECECE",
"w	c #898989",
"x	c #696969",
"y	c #979797",
"z	c #222222",
"A	c #0B0B0B",
" .+             ",
".@#$            ",
".%&*.           ",
".=-;>.          ",
".=--,'.         ",
".)---!*~        ",
".)----{].       ",
".^-----/(.      ",
".^------/_.     ",
".^-------/:.    ",
".^--------<[.   ",
".^---------}@.  ",
".^----------}|. ",
".^-----------}1.",
".^------}234567+",
".^---8--90..a6  ",
".^--bc/--de     ",
".)-fc.g--9@.    ",
".)bc7~hi--jk    ",
".lc.  mn--opq   ",
" .~   .rs-tgu   ",
"       .vt<w~   ",
"       axyz.A   ",
"        ..      "};
