/* XPM */
static const char *hand_xpm[] = {
"16 24 136 2",
"  	c None",
". 	c #000000",
"+ 	c #2A2A2A",
"@ 	c #2E2E2E",
"# 	c #070707",
"$ 	c #1C1C1C",
"% 	c #131313",
"& 	c #0A0A0A",
"* 	c #3C3C3C",
"= 	c #020202",
"- 	c #DCDCDC",
"; 	c #ACACAC",
"> 	c #040404",
", 	c #2C2C2C",
"' 	c #010101",
") 	c #EEEEEE",
"! 	c #BDBDBD",
"~ 	c #020202",
"{ 	c #303030",
"] 	c #010101",
"^ 	c #EFEFEF",
"/ 	c #BEBEBE",
"( 	c #010101",
"_ 	c #0D0D0D",
": 	c #373737",
"< 	c #212121",
"[ 	c #BFBFBF",
"} 	c #010101",
"| 	c #111111",
"1 	c #050505",
"2 	c #1B1B1B",
"3 	c #1E1E1E",
"4 	c #1C1C1C",
"5 	c #C0C0C0",
"6 	c #444444",
"7 	c #F2F2F2",
"8 	c #282828",
"9 	c #181818",
"0 	c #1C1C1C",
"a 	c #070707",
"b 	c #090909",
"c 	c #121212",
"d 	c #181818",
"e 	c #C1C1C1",
"f 	c #626262",
"g 	c #F7F7F7",
"h 	c #3F3F3F",
"i 	c #B0B0B0",
"j 	c #BCBCBC",
"k 	c #060606",
"l 	c #424242",
"m 	c #141414",
"n 	c #171717",
"o 	c #F0F0F0",
"p 	c #C2C2C2",
"q 	c #636363",
"r 	c #414141",
"s 	c #CECECE",
"t 	c #D5D5D5",
"u 	c #333333",
"v 	c #6F6F6F",
"w 	c #C4C4C4",
"x 	c #646464",
"y 	c #CFCFCF",
"z 	c #D7D7D7",
"A 	c #3A3A3A",
"B 	c #747474",
"C 	c #575757",
"D 	c #181818",
"E 	c #1F1F1F",
"F 	c #CDCDCD",
"G 	c #787878",
"H 	c #585858",
"I 	c #DDDDDD",
"J 	c #515151",
"K 	c #757575",
"L 	c #0D0D0D",
"M 	c #0D0D0D",
"N 	c #040404",
"O 	c #070707",
"P 	c #191919",
"Q 	c #F5F5F5",
"R 	c #EDEDED",
"S 	c #EBEBEB",
"T 	c #E9E9E9",
"U 	c #767676",
"V 	c #1D1D1D",
"W 	c #E5E5E5",
"X 	c #D3D3D3",
"Y 	c #0D0D0D",
"Z 	c #010101",
"` 	c #777777",
" .	c #0E0E0E",
"..	c #848484",
"+.	c #F6F6F6",
"@.	c #D1D1D1",
"#.	c #8E8E8E",
"$.	c #191919",
"%.	c #070707",
"&.	c #8B8B8B",
"*.	c #F4F4F4",
"=.	c #090909",
"-.	c #0C0C0C",
";.	c #070707",
">.	c #050505",
",.	c #8C8C8C",
"'.	c #5F5F5F",
").	c #070707",
"!.	c #0D0D0D",
"~.	c #808080",
"{.	c #E6E6E6",
"].	c #242424",
"^.	c #0D0D0D",
"/.	c #060606",
"(.	c #888888",
"_.	c #F3F3F3",
":.	c #0B0B0B",
"<.	c #232323",
"[.	c #040404",
"}.	c #525252",
"|.	c #D9D9D9",
"1.	c #747474",
"2.	c #040404",
"3.	c #151515",
"4.	c #101010",
"5.	c #080808",
"6.	c #0C0C0C",
"7.	c #252525",
"8.	c #323232",
"9.	c #121212",
"0.	c #050505",
"a.	c #0F0F0F",
"b.	c #202020",
"c.	c #0E0E0E",
"d.	c #161616",
"e.	c #3E3E3E",
"                                ",
"                                ",
"            $ %                 ",
"          = - ; >               ",
"          ' ) ! ~               ",
"          ] ^ / (               ",
"          ] ^ [ } |             ",
"          ] ^ 5 6 7 8 9 0       ",
"          ] ^ e f g h i j k l m ",
"          ] o p q g r s t u g v ",
"          ] o w x g r y z A g B ",
"          ] o F G g H t I J g K ",
"  M N     ] o Q R g S Q Q T g U ",
"V W X f Y Z 7 g g g g g g g g ` ",
" ...g +.@.#.+.g g g g g g g g ` ",
"  %.&.*.g g g g g g g g g g g ` ",
"    -.&.g g g g g g g g g g g K ",
"      >.,.*.g g g g g g g g g '.",
"        !.~.*.g g g g g g g {.].",
"          /.(._.g g g g g g K :.",
"            [.}.s o g +.|.1.2.  ",
"                6.7.h 8.9.      ",
"                                ",
"                                "};
