/* XPM */
static char * start_xpm[] = {
"64 64 155 2",
"  	c None",
". 	c #47AE2C",
"+ 	c #48AF2C",
"@ 	c #48B02C",
"# 	c #47AF2C",
"$ 	c #47AD2C",
"% 	c #79BE6D",
"& 	c #C5DEC2",
"* 	c #84C17A",
"= 	c #C6DFC2",
"- 	c #FDFDFD",
"; 	c #FDFEFD",
"> 	c #CCE1C9",
", 	c #68B859",
"' 	c #C9E1C6",
") 	c #FFFFFF",
"! 	c #FCFCFC",
"~ 	c #F6F9F6",
"{ 	c #B5D7B1",
"] 	c #52B23B",
"^ 	c #CAE1C6",
"/ 	c #DFEDDD",
"( 	c #EAF2E8",
"_ 	c #EBF2EA",
": 	c #9BCB94",
"< 	c #C8DFC4",
"[ 	c #C4DEC0",
"} 	c #4FB138",
"| 	c #B2D6AD",
"1 	c #F4F8F4",
"2 	c #DCEADA",
"3 	c #7DBF72",
"4 	c #CAE2C7",
"5 	c #C2DDBF",
"6 	c #64B754",
"7 	c #FBFCFB",
"8 	c #FAFBFA",
"9 	c #C8E1C5",
"0 	c #60B550",
"a 	c #C8E0C5",
"b 	c #C4DFC1",
"c 	c #80C076",
"d 	c #DDEBDB",
"e 	c #AFD4AA",
"f 	c #4CB034",
"g 	c #C2DCBF",
"h 	c #9ECC97",
"i 	c #EDF4EC",
"j 	c #E9F3E8",
"k 	c #92C78A",
"l 	c #C4DFC0",
"m 	c #54B33E",
"n 	c #B7D7B3",
"o 	c #F9FBF8",
"p 	c #D7E9D5",
"q 	c #73BA66",
"r 	c #6AB85C",
"s 	c #CFE3CC",
"t 	c #FEFEFD",
"u 	c #FBFDFA",
"v 	c #C0DCBC",
"w 	c #5AB447",
"x 	c #86C27D",
"y 	c #E3EFE2",
"z 	c #F2F8F2",
"A 	c #A6CFA0",
"B 	c #4AB02F",
"C 	c #49AF2D",
"D 	c #A5CF9F",
"E 	c #F2F7F1",
"F 	c #8AC381",
"G 	c #57B244",
"H 	c #FEFEFE",
"I 	c #D0E4CD",
"J 	c #6DBA5F",
"K 	c #71BA64",
"L 	c #D5E8D3",
"M 	c #F7FAF7",
"N 	c #BAD9B6",
"O 	c #55B340",
"P 	c #90C788",
"Q 	c #E6F0E5",
"R 	c #A0CE9A",
"S 	c #4BB032",
"T 	c #ADD3A8",
"U 	c #F2F7F2",
"V 	c #DFECDD",
"W 	c #82C178",
"X 	c #5FB64D",
"Y 	c #C5DEC1",
"Z 	c #FAFCFA",
"` 	c #CCE3C9",
" .	c #65B756",
"..	c #7ABE6F",
"+.	c #D9E9D7",
"@.	c #F5F9F4",
"#.	c #73BC66",
"$.	c #66B657",
"%.	c #FCFDFC",
"&.	c #FBFDFB",
"*.	c #7ABD6F",
"=.	c #50B239",
"-.	c #B2D5AD",
";.	c #F7FBF7",
">.	c #DBEBD9",
",.	c #98CA91",
"'.	c #E9F1E8",
").	c #EAF2E9",
"!.	c #DBEBD8",
"~.	c #F6F9F5",
"{.	c #5EB54D",
"].	c #CCE2C9",
"^.	c #65B655",
"/.	c #4CB132",
"(.	c #ABD1A5",
"_.	c #F3F8F3",
":.	c #E0EDDE",
"<.	c #82C078",
"[.	c #91C789",
"}.	c #EDF3EC",
"|.	c #A0CD99",
"1.	c #72BA66",
"2.	c #D6E8D4",
"3.	c #F9FCF9",
"4.	c #B9D8B5",
"5.	c #54B33F",
"6.	c #58B444",
"7.	c #BEDABB",
"8.	c #FBFCFA",
"9.	c #D2E6CF",
"0.	c #6CB85F",
"a.	c #A6D0A0",
"b.	c #EFF5EE",
"c.	c #E3EFE1",
"d.	c #8AC481",
"e.	c #89C37F",
"f.	c #E4F0E2",
"g.	c #6AB85B",
"h.	c #D1E4CE",
"i.	c #C2DDBE",
"j.	c #5AB347",
"k.	c #74BC68",
"l.	c #9ECD98",
"m.	c #92C88A",
"n.	c #D6E7D4",
"o.	c #DFEDDE",
"p.	c #F6FAF5",
"q.	c #AED2A9",
"r.	c #4DB134",
"s.	c #C8E1C4",
"t.	c #C7DFC3",
"u.	c #DAEAD8",
"v.	c #7CBF71",
"w.	c #87C37E",
"x.	c #98C991",
"                                                    . + @ . @ # # @ . @ . +                                                     ",
"                                            @ . @ + + @ . @ + + @ . @ + + @ . @ # +                                             ",
"                                        + @ . @ + + @ . @ + + @ . @ + + @ . @ + + @ . @                                         ",
"                                  @ + + @ . @ + + @ . @ + + @ . @ + + @ . @ + + @ . @ + + @ $                                   ",
"                                @ + + @ . @ + + @ . @ + + @ . @ + + @ . @ + + @ . @ + + @ . @ +                                 ",
"                            . @ + + @ . @ + + @ . @ + + @ . @ + + @ . @ + + @ . @ + + @ . @ + + @ .                             ",
"                          . @ + + @ . @ + + @ . @ + + @ . @ + + @ . @ + + @ . @ + + @ . @ + + @ . @ +                           ",
"                      @ . @ + + @ . @ + + @ . @ + + @ . @ + + @ . @ + + @ . @ + + @ . @ + + @ . @ + + @ $                       ",
"                    @ . @ + + @ . @ + + @ . @ + + @ . @ + + @ . @ + + @ . @ + + @ . @ + + @ . @ + + @ . @ +                     ",
"                  @ . @ + + @ . @ + + @ . @ + + @ . @ + + @ . @ + + @ . @ + + @ . @ + + @ . @ + + @ . @ + + @                   ",
"                @ . @ + + @ . @ + + @ . @ + + @ . @ + + @ . @ + + @ . @ + + @ . @ + + @ . @ + + @ . @ + + @ . @                 ",
"              @ . @ + + @ . @ + + @ . @ + + @ . @ + + @ . @ + + @ . @ + + @ . @ + + @ . @ + + @ . @ + + @ . @ + .               ",
"              . @ + + @ . @ + + @ . @ + + @ . @ + + @ . @ + + @ . @ + + @ . @ + + @ . @ + + @ . @ + + @ . @ + + @               ",
"            . @ + + @ . @ + + @ . @ + + @ . @ + + @ . @ + + @ . @ + + @ . @ + + @ . @ + + @ . @ + + @ . @ + + @ . @             ",
"          . @ + + @ . @ + + @ . @ + + @ . % & * @ . @ + + @ . @ + + @ . @ + + @ . @ + + @ . @ + + @ . @ + + @ . @ + +           ",
"          @ + + @ . @ + + @ . @ + + @ . @ = - ; > , + + @ . @ + + @ . @ + + @ . @ + + @ . @ + + @ . @ + + @ . @ + + @           ",
"        @ + + @ . @ + + @ . @ + + @ . @ + ' ) ! ) ~ { ] . @ + + @ . @ + + @ . @ + + @ . @ + + @ . @ + + @ . @ + + @ . @         ",
"      @ + + @ . @ + + @ . @ + + @ . @ + + ^ ! / ( - ) _ : # + @ . @ + + @ . @ + + @ . @ + + @ . @ + + @ . @ + + @ . @ + .       ",
"      + + @ . @ + + @ . @ + + @ . @ + + @ < ) [ } | 1 ) - 2 3 . @ + + @ . @ + + @ . @ + + @ . @ + + @ . @ + + @ . @ + + @       ",
"      + @ . @ + + @ . @ + + @ . @ + + @ . 4 - 5 @ . 6 ' 7 ) 8 9 0 + @ . @ + + @ . @ + + @ . @ + + @ . @ + + @ . @ + + @ .       ",
"    + @ . @ + + @ . @ + + @ . @ + + @ . @ a - b . @ + + c d ) - 1 e f @ + + @ . @ + + @ . @ + + @ . @ + + @ . @ + + @ . @ +     ",
"    @ . @ + + @ . @ + + @ . @ + + @ . @ + ' ) g @ + + @ . @ h i ) ! j k + @ . @ + + @ . @ + + @ . @ + + @ . @ + + @ . @ + +     ",
"  @ . @ + + @ . @ + + @ . @ + + @ . @ + + ^ ! l + + @ . @ + + m n o - - p q @ + + @ . @ + + @ . @ + + @ . @ + + @ . @ + + @ .   ",
"  . @ + + @ . @ + + @ . @ + + @ . @ + + @ < ) [ + @ . @ + + @ . @ r s t ! u v w @ . @ + + @ . @ + + @ . @ + + @ . @ + + @ . @   ",
"  @ + + @ . @ + + @ . @ + + @ . @ + + @ . 4 - 5 @ . @ + + @ . @ + + @ x y - - z A B + + @ . @ + + @ . @ + + @ . @ + + @ . @ +   ",
"  + + @ . @ + + @ . @ + + @ . @ + + @ . @ a - b . @ + + @ . @ + + @ . @ C D E ! ) y F @ . @ + + @ . @ + + @ . @ + + @ . @ + +   ",
". + @ . @ + + @ . @ + + @ . @ + + @ . @ + ' ) g @ + + @ . @ + + @ . @ + + @ G v o - H I J + + @ . @ + + @ . @ + + @ . @ + + @ $ ",
"+ @ . @ + + @ . @ + + @ . @ + + @ . @ + + ^ ! l + + @ . @ + + @ . @ + + @ . @ + K L ! ) M N O . @ + + @ . @ + + @ . @ + + @ . @ ",
"@ . @ + + @ . @ + + @ . @ + + @ . @ + + @ < ) [ + @ . @ + + @ . @ + + @ . @ + + @ . P Q - ) i R + + @ . @ + + @ . @ + + @ . @ + ",
". @ + + @ . @ + + @ . @ + + @ . @ + + @ . 4 - 5 @ . @ + + @ . @ + + @ . @ + + @ . @ + S T U ) - V W . @ + + @ . @ + + @ . @ + # ",
"@ + + @ . @ + + @ . @ + + @ . @ + + @ . @ a - b . @ + + @ . @ + + @ . @ + + @ . @ + + @ . X Y Z ) 8 `  .+ @ . @ + + @ . @ + + @ ",
"# + @ . @ + + @ . @ + + @ . @ + + @ . @ + ' ) g @ + + @ . @ + + @ . @ + + @ . @ + + @ . @ + + ..+.) - @.#.. @ + + @ . @ + + @ . ",
"# @ . @ + + @ . @ + + @ . @ + + @ . @ + + ^ ! l + + @ . @ + + @ . @ + + @ . @ + + @ . @ + + @ $.` %.- &.*.@ + + @ . @ + + @ . @ ",
"@ . @ + + @ . @ + + @ . @ + + @ . @ + + @ < ) [ + @ . @ + + @ . @ + + @ . @ + + @ . @ + + =.-.;.- - >.*.@ + + @ . @ + + @ . @ + ",
". @ + + @ . @ + + @ . @ + + @ . @ + + @ . 4 - 5 @ . @ + + @ . @ + + @ . @ + + @ . @ + # ,.'.) - ).,.. @ + + @ . @ + + @ . @ + # ",
"@ + + @ . @ + + @ . @ + + @ . @ + + @ . @ a - b . @ + + @ . @ + + @ . @ + + @ . @ + ..!.! ) ~.-.=.. @ + + @ . @ + + @ . @ + + @ ",
". + @ . @ + + @ . @ + + @ . @ + + @ . @ + ' ) g @ + + @ . @ + + @ . @ + + @ . @ {.= %.! ; ].^.@ . @ + + @ . @ + + @ . @ + + @ . ",
"+ @ . @ + + @ . @ + + @ . @ + + @ . @ + + ^ ! l + + @ . @ + + @ . @ + + @ . /.(._.) ! :.<.+ @ . @ + + @ . @ + + @ . @ + + @ . @ ",
"  . @ + + @ . @ + + @ . @ + + @ . @ + + @ < ) [ + @ . @ + + @ . @ + + @ . [.Q - ) }.|.+ + @ . @ + + @ . @ + + @ . @ + + @ . @   ",
"  @ + + @ . @ + + @ . @ + + @ . @ + + @ . 4 - 5 @ . @ + + @ . @ + + @ 1.2.- - 3.4.5.+ + @ . @ + + @ . @ + + @ . @ + + @ . @ +   ",
"  # + @ . @ + + @ . @ + + @ . @ + + @ . @ a - b . @ + + @ . @ + + 6.7.8.- %.9.0.@ + + @ . @ + + @ . @ + + @ . @ + + @ . @ + #   ",
"  + @ . @ + + @ . @ + + @ . @ + + @ . @ + ' ) g @ + + @ . @ + C a.b.) - c.d.. @ + + @ . @ + + @ . @ + + @ . @ + + @ . @ + + @   ",
"    . @ + + @ . @ + + @ . @ + + @ . @ + + ^ ! l + + @ . @ + e.f.! ) E A B . @ + + @ . @ + + @ . @ + + @ . @ + + @ . @ + + @     ",
"    @ + + @ . @ + + @ . @ + + @ . @ + + @ < ) [ + @ . @ g.h.t ! u i.j.@ . @ + + @ . @ + + @ . @ + + @ . @ + + @ . @ + + @ .     ",
"      + @ . @ + + @ . @ + + @ . @ + + @ . 4 - 5 @ . m n M ) ! p k.+ @ . @ + + @ . @ + + @ . @ + + @ . @ + + @ . @ + + @ .       ",
"      @ . @ + + @ . @ + + @ . @ + + @ . @ a - b . l.i - ) Q m.+ + @ . @ + + @ . @ + + @ . @ + + @ . @ + + @ . @ + + @ . @       ",
"      $ @ + + @ . @ + + @ . @ + + @ . @ + ' ) n.o.- - p.q.r.+ + @ . @ + + @ . @ + + @ . @ + + @ . @ + + @ . @ + + @ . @ +       ",
"        + + @ . @ + + @ . @ + + @ . @ + + ^ ! ) - 7 s.0 @ + + @ . @ + + @ . @ + + @ . @ + + @ . @ + + @ . @ + + @ . @ +         ",
"          @ . @ + + @ . @ + + @ . @ + + @ t.) - u.v.. @ + + @ . @ + + @ . @ + + @ . @ + + @ . @ + + @ . @ + + @ . @ +           ",
"          . @ + + @ . @ + + @ . @ + + @ . w.2.x.@ . @ + + @ . @ + + @ . @ + + @ . @ + + @ . @ + + @ . @ + + @ . @ + #           ",
"            + + @ . @ + + @ . @ + + @ . @ + + @ . @ + + @ . @ + + @ . @ + + @ . @ + + @ . @ + + @ . @ + + @ . @ + +             ",
"              @ . @ + + @ . @ + + @ . @ + + @ . @ + + @ . @ + + @ . @ + + @ . @ + + @ . @ + + @ . @ + + @ . @ + +               ",
"              . @ + + @ . @ + + @ . @ + + @ . @ + + @ . @ + + @ . @ + + @ . @ + + @ . @ + + @ . @ + + @ . @ + + @               ",
"                # + @ . @ + + @ . @ + + @ . @ + + @ . @ + + @ . @ + + @ . @ + + @ . @ + + @ . @ + + @ . @ + + @                 ",
"                  @ . @ + + @ . @ + + @ . @ + + @ . @ + + @ . @ + + @ . @ + + @ . @ + + @ . @ + + @ . @ + + @                   ",
"                    @ + + @ . @ + + @ . @ + + @ . @ + + @ . @ + + @ . @ + + @ . @ + + @ . @ + + @ . @ + + @                     ",
"                      . @ . @ + + @ . @ + + @ . @ + + @ . @ + + @ . @ + + @ . @ + + @ . @ + + @ . @ + + @                       ",
"                          @ + + @ . @ + + @ . @ + + @ . @ + + @ . @ + + @ . @ + + @ . @ + + @ . @ + +                           ",
"                            # @ . @ + + @ . @ + + @ . @ + + @ . @ + + @ . @ + + @ . @ + + @ . @ + #                             ",
"                                @ + + @ . @ + + @ . @ + + @ . @ + + @ . @ + + @ . @ + + @ . @ +                                 ",
"                                  . @ . @ + + @ . @ + + @ . @ + + @ . @ + + @ . @ + + @ . @ +                                   ",
"                                        + + @ . @ + + @ . @ + + @ . @ + + @ . @ + + @ .                                         ",
"                                            . @ + + @ . @ + + @ . @ + + @ . @ + # @                                             ",
"                                                    $ @ + + @ . @ + + @ . @                                                     "};
