/* XPM */
static const char * number_1_xpm[] = {
"32 32 19 1",
" 	c None",
".	c #000000",
"+	c #FDFDFD",
"@	c #646464",
"#	c #FAFAFA",
"$	c #FFFFFF",
"%	c #AAAAAA",
"&	c #F7F7F7",
"*	c #F0F0F0",
"=	c #FCFCFC",
"-	c #BEBEBE",
";	c #F6F7F7",
">	c #CBCBCB",
",	c #C9C9C9",
"'	c #C8C8C8",
")	c #7F7F7F",
"!	c #444444",
"~	c #E6E6E6",
"{	c #BABABA",
"                                ",
"                                ",
"                    .           ",
"                    +           ",
"                  @#$$          ",
"                   $$$%         ",
"                  $$$$          ",
"                 $$$$$          ",
"                $$$$$$          ",
"              $$$$$$$$          ",
"             $$$& $$$$          ",
"          *$$$=-   $$$          ",
"          ;$$     >$$$          ",
"           ,      >$$$          ",
"                  >$$$          ",
"                  >$$$          ",
"                  >$$$          ",
"                  >$$$          ",
"                  >$$$          ",
"                  >$$$          ",
"                  >$$$          ",
"                  >$$$          ",
"                  >$$$          ",
"                  >$$$          ",
"                  >$$$          ",
"                  >$$$          ",
"                  >$$$          ",
"                  '$$$)         ",
"                   $$$!         ",
"                   ~${          ",
"                    .           ",
"                                "};
