/* XPM */
static const char * number_1_xpm[] = {
"32 32 2 1",
" 	c None",
".	c #FFFFFF",
"                                ",
"                                ",
"                                ",
"                   ...          ",
"                  .....         ",
"                 ......         ",
"                .......         ",
"               ........         ",
"              .........         ",
"             ..........         ",
"            ...........         ",
"           .....  .....         ",
"          .....   .....         ",
"          ....    .....         ",
"          ...     .....         ",
"                  .....         ",
"                  .....         ",
"                  .....         ",
"                  .....         ",
"                  .....         ",
"                  .....         ",
"                  .....         ",
"                  .....         ",
"                  .....         ",
"                  .....         ",
"                  .....         ",
"                  .....         ",
"                  .....         ",
"                  .....         ",
"                   ...          ",
"                                ",
"                                "};
