/* XPM */
static const char * number_5_xpm[] = {
"42 42 196 2",
"  	c None",
". 	c #410F17",
"+ 	c #400B14",
"@ 	c #400C15",
"# 	c #411017",
"$ 	c #8E2737",
"% 	c #CF3E54",
"& 	c #D9425A",
"* 	c #DF445C",
"= 	c #E6576B",
"- 	c #EE8190",
"; 	c #EE7E8E",
"> 	c #E9546A",
", 	c #E95D71",
"' 	c #EE8191",
") 	c #EE8292",
"! 	c #EE8291",
"~ 	c #EB818F",
"{ 	c #E37F8E",
"] 	c #D36474",
"^ 	c #BD374C",
"/ 	c #9C2B3D",
"( 	c #6B1926",
"_ 	c #DF445D",
": 	c #E64760",
"< 	c #E7586D",
"[ 	c #EE8695",
"} 	c #EE8392",
"| 	c #E7556A",
"1 	c #E85D71",
"2 	c #EE8896",
"3 	c #EE8796",
"4 	c #EA6C7E",
"5 	c #972A3A",
"6 	c #E4465F",
"7 	c #E6455F",
"8 	c #E6465F",
"9 	c #E74861",
"0 	c #9C2B3C",
"a 	c #B43448",
"b 	c #E54760",
"c 	c #E5475F",
"d 	c #D94159",
"e 	c #C83C51",
"f 	c #D34057",
"g 	c #B53448",
"h 	c #A83043",
"i 	c #A73043",
"j 	c #A42E40",
"k 	c #9E2C3E",
"l 	c #912838",
"m 	c #661824",
"n 	c #D84159",
"o 	c #C1394E",
"p 	c #D33F57",
"q 	c #862332",
"r 	c #E84861",
"s 	c #A62F42",
"t 	c #AB3043",
"u 	c #E74760",
"v 	c #8D2636",
"w 	c #C83B51",
"x 	c #E0455D",
"y 	c #781E2D",
"z 	c #DC435B",
"A 	c #601621",
"B 	c #641622",
"C 	c #E1455E",
"D 	c #621622",
"E 	c #842232",
"F 	c #E3465E",
"G 	c #B13347",
"H 	c #5B111D",
"I 	c #741C29",
"J 	c #AD3245",
"K 	c #CA3C53",
"L 	c #D64159",
"M 	c #DA425A",
"N 	c #D44057",
"O 	c #C43A50",
"P 	c #9D2C3D",
"Q 	c #E5465F",
"R 	c #8F2636",
"S 	c #B8364A",
"T 	c #C33A4F",
"U 	c #E2455E",
"V 	c #C2394F",
"W 	c #B9374B",
"X 	c #BB374C",
"Y 	c #CA3C52",
"Z 	c #BE364B",
"` 	c #D33F56",
" .	c #D13F55",
"..	c #812131",
"+.	c #490C17",
"@.	c #601622",
"#.	c #9F2D3E",
"$.	c #E1455D",
"%.	c #A52F42",
"&.	c #CE3E55",
"*.	c #BA364B",
"=.	c #DE435C",
"-.	c #812130",
";.	c #9E2B3D",
">.	c #B63449",
",.	c #6E1A27",
"'.	c #DE445C",
").	c #53101B",
"!.	c #A42F41",
"~.	c #822231",
"{.	c #872433",
"].	c #E2465E",
"^.	c #992A3B",
"/.	c #761D2B",
"(.	c #A22D3F",
"_.	c #6E1B28",
":.	c #A12B3D",
"<.	c #741D2A",
"[.	c #992436",
"}.	c #D74058",
"|.	c #CC3D53",
"1.	c #832231",
"2.	c #E3445D",
"3.	c #871728",
"4.	c #CF3C52",
"5.	c #9D2C3E",
"6.	c #DD3B53",
"7.	c #640A18",
"8.	c #D13149",
"9.	c #7F2130",
"0.	c #C73B51",
"a.	c #C9253E",
"b.	c #AC1B31",
"c.	c #E6435D",
"d.	c #E43A54",
"e.	c #DE344D",
"f.	c #B63448",
"g.	c #611622",
"h.	c #D64158",
"i.	c #E5425B",
"j.	c #C5213A",
"k.	c #B31830",
"l.	c #E33B54",
"m.	c #B9364A",
"n.	c #D03E55",
"o.	c #E5435C",
"p.	c #DA2540",
"q.	c #5C0B17",
"r.	c #CC1D38",
"s.	c #E33750",
"t.	c #AF3246",
"u.	c #852232",
"v.	c #691825",
"w.	c #6A1926",
"x.	c #892534",
"y.	c #B53449",
"z.	c #DD435C",
"A.	c #E43E58",
"B.	c #DC2742",
"C.	c #911226",
"D.	c #C81B36",
"E.	c #E02B46",
"F.	c #E5415A",
"G.	c #E2344D",
"H.	c #D71F3B",
"I.	c #921225",
"J.	c #A7152C",
"K.	c #DB203D",
"L.	c #E12D48",
"M.	c #E43F58",
"N.	c #E6455E",
"O.	c #E5405A",
"P.	c #E33953",
"Q.	c #E12F4A",
"R.	c #E02340",
"S.	c #BD1832",
"T.	c #B3172F",
"U.	c #D01C38",
"V.	c #D71E3A",
"W.	c #DC1E3C",
"X.	c #DE1F3D",
"Y.	c #E01F3D",
"Z.	c #DF1F3D",
"`.	c #DD1F3C",
" +	c #D91E3B",
".+	c #D21C39",
"++	c #BE1933",
"@+	c #7B0F1F",
"#+	c #4F0914",
"$+	c #6E0D1C",
"%+	c #7E0F20",
"&+	c #851022",
"*+	c #8A1124",
"=+	c #881123",
"-+	c #820F21",
";+	c #740E1E",
"                                                                                    ",
"                                                                                    ",
"                                                                                    ",
"                                      . + @ . # # # #                               ",
"                          $ % & * = - ; > , ' ) ) ) ! ~ { ] ^ /                     ",
"                        ( _ : : : < [ } | 1 [ 2 2 2 2 2 3 4 : :                     ",
"                        5 6 : : : : 7 7 : : 7 7 7 7 7 7 7 8 : 9 0                   ",
"                        a : : : : : : : b b b b b b b b b c 6 d                     ",
"                        e : : : : : f g h h h h h h h i j k l m                     ",
"                        n : : : : o                                                 ",
"                        6 : : : p                                                   ",
"                      q r : : : s                                                   ",
"                      t u : : 6 v                                                   ",
"                      w u : : x y                                                   ",
"                      z : : : z A                                                   ",
"                    B C : : : z D                                                   ",
"                    E F : : : 6 G H I J K L z M N O P                               ",
"                    / Q : : : : b 6 c : : : : : : : b M R                           ",
"                    G : : : : : : : : : : : : : : : : : 6 S                         ",
"                    T : : : : : : U f V W X Y & b : : : : u Z                       ",
"                    ` : : : : :  ...+.        @.#.$.: : : : b %.                    ",
"                    &.: : : F *.                  E * : : : : =.                    ",
"                    -.z : n                         ;.u : : : u >.                  ",
"                        ,.                             .: : : : '.).                ",
"                                                      !.: : : : U ~.                ",
"                                                      {.].: : : Q ^.                ",
"                                                      /.x : : : : (.                ",
"                                                      _._ : : : 8 :.                ",
"                                                      <.x : : : Q [.                ",
"                    }.u |.                            1.U : : : 2.3.                ",
"                  4.: : : w                           5.b : : : 6.7.                ",
"                  8.: : : C 9.                        0.: : : 8 a.                  ",
"                  b.c.: : : 0.                        8 : : : d.                    ",
"                    e.: : : u f.                  g.h.: : : i.j.                    ",
"                    k.l.: : : Q m.                n.: : : o.p.                      ",
"                    q.r.s.8 : : u h.t.u.v.w.x.y.z.: : : A.B.C.                      ",
"                        D.E.F.8 : : : 6 6 6 6 : : 8 o.G.H.I.                        ",
"                          J.K.L.s.M.o.8 : : N.O.P.Q.R.S.                            ",
"                              T.U.V.W.X.Y.Z.`. +.+++@+                              ",
"                                #+$+%+&+*+=+-+;+                                    ",
"                                                                                    ",
"                                                                                    "};
