/* XPM */
static const char * number_9_xpm[] = {
"32 32 2 1",
" 	c None",
".	c #FFFFFF",
"                                ",
"                                ",
"                                ",
"            ........            ",
"          ............          ",
"         ..............         ",
"        ......    ......        ",
"        .....      .....        ",
"       .....        .....       ",
"       .....        .....       ",
"       .....        .....       ",
"       .....        ......      ",
"       .....        ......      ",
"       .....        ......      ",
"       .....        ......      ",
"       .....       .......      ",
"        .....     ........      ",
"        ..................      ",
"         .................      ",
"           ........  .....      ",
"             ....    .....      ",
"                     .....      ",
"                     ....       ",
"        ...         .....       ",
"        ....        ....        ",
"        .....      .....        ",
"        ......    .....         ",
"         .............          ",
"          ...........           ",
"           .........            ",
"                                ",
"                                "};