/* XPM */
static const char* letter_a_xpm[] = {
"64 64 238 2",
"  	c None",
". 	c #330910",
"+ 	c #320910",
"@ 	c #7A1520",
"# 	c #C92636",
"$ 	c #E52C3E",
"% 	c #F12E41",
"& 	c #F02E41",
"* 	c #E22B3D",
"= 	c #C02433",
"- 	c #67111B",
"; 	c #AD202E",
"> 	c #F22F41",
", 	c #F42F42",
"' 	c #EF2E41",
") 	c #971B28",
"! 	c #9F1D2A",
"~ 	c #861823",
"{ 	c #570F17",
"] 	c #ED2D40",
"^ 	c #E42B3D",
"/ 	c #430B13",
"( 	c #B92231",
"_ 	c #A91F2D",
": 	c #490C14",
"< 	c #EC2D40",
"[ 	c #370A11",
"} 	c #A01D2A",
"| 	c #8F1926",
"1 	c #D9293A",
"2 	c #EE2E40",
"3 	c #CE2737",
"4 	c #71141E",
"5 	c #F43446",
"6 	c #B42130",
"7 	c #E32B3D",
"8 	c #5B0F18",
"9 	c #BD2332",
"0 	c #F7979C",
"a 	c #FFFCFC",
"b 	c #F8A2A6",
"c 	c #6A121C",
"d 	c #B32130",
"e 	c #420B13",
"f 	c #EB2D3F",
"g 	c #FCDEE0",
"h 	c #FFFFFF",
"i 	c #F8A8AB",
"j 	c #DA293B",
"k 	c #68121C",
"l 	c #F32F42",
"m 	c #350910",
"n 	c #991C28",
"o 	c #F5616B",
"p 	c #FFFEFE",
"q 	c #FFF9F9",
"r 	c #F54D59",
"s 	c #A71E2C",
"t 	c #D8293A",
"u 	c #891824",
"v 	c #D52839",
"w 	c #F44754",
"x 	c #FCDBDC",
"y 	c #F9B4B7",
"z 	c #580F18",
"A 	c #A31E2B",
"B 	c #CC2637",
"C 	c #69121C",
"D 	c #D12738",
"E 	c #520E16",
"F 	c #5C1019",
"G 	c #B82231",
"H 	c #F5616A",
"I 	c #F8A9AC",
"J 	c #F43F4E",
"K 	c #9A1C28",
"L 	c #B0202F",
"M 	c #3C0A12",
"N 	c #E92D3F",
"O 	c #FCD6D7",
"P 	c #F89A9F",
"Q 	c #ED2E40",
"R 	c #470C14",
"S 	c #921A26",
"T 	c #941A27",
"U 	c #F55B65",
"V 	c #F55D67",
"W 	c #C72535",
"X 	c #3E0B12",
"Y 	c #EA2D3F",
"Z 	c #F9B3B6",
"` 	c #FCD8D9",
" .	c #8A1824",
"..	c #BF2433",
"+.	c #CF2737",
"@.	c #62111A",
"#.	c #F22F42",
"$.	c #FDEBEB",
"%.	c #F7979B",
"&.	c #E82C3F",
"*.	c #380A11",
"=.	c #7C1621",
"-.	c #61101A",
";.	c #F7848A",
">.	c #FEF3F3",
",.	c #F43748",
"'.	c #BC2332",
").	c #E12B3D",
"!.	c #E62C3E",
"~.	c #FBCDCE",
"{.	c #FAC0C2",
"].	c #781520",
"^.	c #E82C3E",
"/.	c #3A0A11",
"(.	c #8E1925",
"_.	c #F54A57",
":.	c #FEF8F9",
"<.	c #F66D75",
"[.	c #E02B3C",
"}.	c #64111A",
"|.	c #CD2737",
"1.	c #F8A7AA",
"2.	c #FCE0E1",
"3.	c #D62839",
"4.	c #D22838",
"5.	c #5C0F18",
"6.	c #F9B8BB",
"7.	c #F89FA3",
"8.	c #65111B",
"9.	c #AE202E",
"0.	c #F67178",
"a.	c #D7293A",
"b.	c #4E0D15",
"c.	c #340910",
"d.	c #CA2636",
"e.	c #3F0B12",
"f.	c #871823",
"g.	c #530E17",
"h.	c #981B28",
"i.	c #550E17",
"j.	c #961B27",
"k.	c #6D131D",
"l.	c #AA1F2D",
"m.	c #78151F",
"n.	c #C42434",
"o.	c #DF2B3C",
"p.	c #440B13",
"q.	c #801622",
"r.	c #861723",
"s.	c #9C1C29",
"t.	c #C52535",
"u.	c #360911",
"v.	c #5F1019",
"w.	c #5A0F18",
"x.	c #73141E",
"y.	c #A41E2B",
"z.	c #DC2A3B",
"A.	c #480C14",
"B.	c #791520",
"C.	c #C12434",
"D.	c #DB2A3B",
"E.	c #C32434",
"F.	c #6F131D",
"G.	c #951B27",
"H.	c #4D0D15",
"I.	c #71131E",
"J.	c #A51E2C",
"K.	c #921C26",
"L.	c #A2202B",
"M.	c #DE2A3C",
"N.	c #E52D3E",
"O.	c #410C13",
"P.	c #541017",
"Q.	c #E62E3E",
"R.	c #7F1621",
"S.	c #B2242F",
"T.	c #B82731",
"U.	c #C62535",
"V.	c #D42839",
"W.	c #EB2F3F",
"X.	c #70171E",
"Y.	c #811B22",
"Z.	c #E52F3E",
"`.	c #510E16",
" +	c #CB2B36",
".+	c #CC2C37",
"++	c #B2212F",
"@+	c #972028",
"#+	c #A0232B",
"$+	c #EA2F3F",
"%+	c #D62E3A",
"&+	c #571117",
"*+	c #5F1319",
"=+	c #D82E3A",
"-+	c #440C13",
";+	c #E42E3D",
">+	c #B0272F",
",+	c #B1272F",
"'+	c #ED2F40",
")+	c #EE2F40",
"!+	c #68151C",
"~+	c #CB2D37",
"{+	c #EF2F41",
"]+	c #7A1920",
"^+	c #D52E39",
"/+	c #65141B",
"(+	c #AA252D",
"_+	c #D02E38",
":+	c #F12F41",
"<+	c #EF2F40",
"[+	c #DC2E3B",
"}+	c #BA2932",
"|+	c #B92932",
"1+	c #D72E3A",
"2+	c #EC2F40",
"3+	c #E82F3F",
"4+	c #D32E39",
"5+	c #BD2A33",
"6+	c #360A11",
"7+	c #520F16",
"8+	c #BF2B33",
"9+	c #CC2E37",
"0+	c #76181F",
"a+	c #6F161D",
"b+	c #CA2D36",
"c+	c #C72D36",
"d+	c #6A151C",
"e+	c #4D0E15",
"f+	c #A4242C",
"g+	c #C42C35",
"h+	c #CA2E37",
"i+	c #881D24",
"j+	c #73171F",
"k+	c #B72931",
"l+	c #C92D36",
"m+	c #C62D35",
"n+	c #AE262E",
"o+	c #61131A",
"                                                                                                                                ",
"                                                                                                                                ",
"                                                                                                                                ",
"                                                                                                                                ",
"                                                                                                                                ",
"                                                        . . . + + . . .                                                         ",
"                                                      . @ # $ % & * = - .                                                       ",
"                                                    . ; > , , , , , , ' ) .                                                     ",
"                                                  . ! , , , , , , , , , > ~ .                                                   ",
"                                                . { ] , , , , , , , , , , ^ /                                                   ",
"                                                . ( , , , , , , , , , , , , _ .                                                 ",
"                                                : < , , , , , , , , , , , , $ [                                                 ",
"                                              . } , , , , , , , , , , , , , , | .                                               ",
"                                              . 1 , , , , , , 2 , , , , , , , 3 .                                               ",
"                                            . 4 , 5 , , , , , 6 7 , , , , , , % 8 .                                             ",
"                                            . 9 0 a b , , , , c d , , , , , , , ; .                                             ",
"                                            e f g h i , , , j . k l , , , , , , 7 m                                             ",
"                                          . n o p q r , , , s . . t , , , , , , , u .                                           ",
"                                          . v w x y , , , % z . . A , , , , , , , B .                                           ",
"                                        . C l , , , , , , D .   . E & , , , , , , % F .                                         ",
"                                        . G H I J , , , , K .     . B , , , , , , , L .                                         ",
"                                        M N O h P , , , Q R       . S , , , , , , , $ [                                         ",
"                                      . T U a a V , , , W .         X Y , , , , , , , | .                                       ",
"                                      . D Z h ` , , , ,  ..         . .., , , , , , , +..                                       ",
"                                    . @.#.$.h %., , , &.*.          . =., , , , , , , > -..                                     ",
"                                    . d ;.h >.,., , , '..             . )., , , , , , , 6 .                                     ",
"                                    [ !.~.h {., , , , ]..             . L , , , , , , , ^./.                                    ",
"                                  . (._.:.p <., , , [..               . }.l , , , , , , , T .                                   ",
"                                  . |.1.h 2., , , , L .                 . 3., , , , , , , 4..                                   ",
"                                . 5.% 6.h 7., , , l 8..                 . } , , , , , , , l - .                                 ",
"                                . 9., ,.0., , , , a..                   . b.' , , , , , , , G .                                 ",
"                                c.7 , , , , , , , A .                     . d., , , , , , , Y e.                                ",
"                              . f., , , , , , , & g..                     . (., , , , , , , , h..                               ",
"                              . # , , , , , , , 3 .                         /.N , , , , , , , v .                               ",
"                            . i.& , , , , , , , j..                         . '., , , , , , , l k..                             ",
"                            . l., , , , , , , < /                           . m., , , , , , , , '..                             ",
"                            . [., , , , , , , n..                             . o., , , , , , , f p.                            ",
"                          . q., , , , , , , , r..                             . 9., , , , , , , , s..                           ",
"                          . t., , , , , , , !.u.. . . . . . . . . . . . . . . . v.#., , , , , , , t .                           ",
"                        . b.2 , , , , , , , = w.w.w.w.w.w.w.w.w.w.w.w.w.w.w.w.w.w.t , , , , , , , , x..                         ",
"                        . y., , , , , , , , , , , , , , , , , , , , , , , , , , , , , , , , , , , , = .                         ",
"                        . z., , , , , , , , , , , , , , , , , , , , , , , , , , , , , , , , , , , , < A.                        ",
"                      . B., , , , , , , , , , , , , , , , , , , , , , , , , , , , , , , , , , , , , , } .                       ",
"                      . C., , , , , , , , , , , , , , , , , , , , , , , , , , , , , , , , , , , , , , D..                       ",
"                      A.] , , , , , , , , , , , , , , , , , , , , , , , , , , , , , , , , , , , , , , , B..                     ",
"                    . ! , , , , , , , , , , , , , , , , , , , , , , , , , , , , , , , , , , , , , , , , E..                     ",
"                    . t , , , , , , , #.q.F.F.F.F.F.F.F.F.F.F.F.F.F.F.F.F.F.F.F.F.F.F.G., , , , , , , , 2 H..                   ",
"                  . I., , , , , , , , 4.. . . . . . . . . . . . . . . . . . . . . . . c.o., , , , , , , , J..                   ",
"                  . 9 , , , , , , , , K..                                             . L., , , , , , , , M..                   ",
"                  e f , , , , , , , N.O.                                              . P.Q., , , , , , , , R..                 ",
"                . K , , , , , , , , S..                                                 . T.l , , , , , , , U..                 ",
"                . V., , , , , , , W.X..                                                 . Y.Z., , , , , , , ' `..               ",
"              . - l , , , , , , ,  +c.                                                    X .+, , , , , , , , A .               ",
"              . ++, , , , , , , W.@+.                                                     . #+$+, , , , , , , V..               ",
"              . D., , , , , , , %+&+.                                                     . *+=+, , , , , , , & -+              ",
"              + ;+, , , , , , W.>+.                                                         . ,+'+, , , , , , )+!+.             ",
"              . ~+{+, , , , , %+]+.                                                         . ]+%+l , , , , > ^+/+.             ",
"              . (+_+Z.:+l <+[+}+c.                                                            c.|+1+2+l > 3+4+5+6+              ",
"              . 7+8+9+9+9+9+9+0+.                                                             . a+b+9+9+9+9+c+d+.               ",
"                . e+f+g+h+5+i+.                                                                 . j+k+l+m+n+o+.                 ",
"                  . . . + . .                                                                     . . + . . .                   ",
"                                                                                                                                ",
"                                                                                                                                ",
"                                                                                                                                "};
