/* XPM */
static const char * letter_n_xpm[] = {
"32 32 2 1",
" 	c None",
".	c #FFFFFF",
"                                ",
"                                ",
"                                ",
"     ....               ..      ",
"    ......             ....     ",
"    .......            ....     ",
"    .......            ....     ",
"    ........           ....     ",
"    .........          ....     ",
"    .........          ....     ",
"    ..........         ....     ",
"    ..... .....        ....     ",
"    .....  ....        ....     ",
"    .....   ....       ....     ",
"    .....   .....      ....     ",
"    .....    ....      ....     ",
"    .....     ....     ....     ",
"    .....     .....    ....     ",
"    .....      ....    ....     ",
"    .....       ....   ....     ",
"    .....       .....  ....     ",
"    .....        ....  ....     ",
"    .....         .........     ",
"    .....         .........     ",
"    .....          ........     ",
"    .....           .......     ",
"    .....           .......     ",
"    .....            ......     ",
"    .....             .....     ",
"     ...               ....     ",
"                                ",
"                                "};
