/* XPM */
static char * o_xpm[] = {
"32 32 2 1",
" 	c None",
".	c #FFFFFF",
"                                ",
"                                ",
"                                ",
"                                ",
"                                ",
"                                ",
"             .......            ",
"           ...........          ",
"          .............         ",
"         ...............        ",
"        ......     ......       ",
"        .....       .....       ",
"       .....         ....       ",
"       .....         .....      ",
"       .....         .....      ",
"       .....         .....      ",
"       .....         .....      ",
"       .....         .....      ",
"       .....         .....      ",
"        .....       .....       ",
"        ......     ......       ",
"         ...............        ",
"          .............         ",
"           ...........          ",
"            ........            ",
"                                ",
"                                ",
"                                ",
"                                ",
"                                ",
"                                ",
"                                "};
