/* XPM */
static const char * letter_r_xpm[] = {
"32 32 2 1",
" 	c None",
".	c #FFFFFF",
"                                ",
"                                ",
"                                ",
"    .................           ",
"    ...................         ",
"    ....................        ",
"    ......          .....       ",
"    ......           .....      ",
"    ......            .....     ",
"    ......            .....     ",
"    ......            .....     ",
"    ......            .....     ",
"    ......            .....     ",
"    ......           .....      ",
"    ......          .....       ",
"    ....................        ",
"    ..................          ",
"    .................           ",
"    ................            ",
"    ......     ......           ",
"    ......      ......          ",
"    ......       ......         ",
"    ......        ......        ",
"    ......         ......       ",
"    ......          ......      ",
"    ......           ......     ",
"    ......            ......    ",
"    ......             .....    ",
"    ......              ....    ",
"     ....                ...    ",
"                                ",
"                                "};
