/* XPM */
static const char* letter_s_xpm[] = {
"64 64 269 2",
"  	c None",
". 	c #330910",
"+ 	c #320910",
"@ 	c #530E17",
"# 	c #901A26",
"$ 	c #B42130",
"% 	c #CA2636",
"& 	c #DC2A3B",
"* 	c #E52C3E",
"= 	c #EC2D40",
"- 	c #F12E41",
"; 	c #F32F42",
"> 	c #F02E41",
", 	c #EA2D3F",
"' 	c #E32B3D",
") 	c #D7293A",
"! 	c #C22434",
"~ 	c #A61E2C",
"{ 	c #71131E",
"] 	c #540E17",
"^ 	c #A81F2C",
"/ 	c #D9293A",
"( 	c #F22F42",
"_ 	c #F42F42",
": 	c #E42C3E",
"< 	c #B62230",
"[ 	c #64111A",
"} 	c #590F18",
"| 	c #BE2333",
"1 	c #EF404E",
"2 	c #F79398",
"3 	c #F5535E",
"4 	c #F22F41",
"5 	c #C72535",
"6 	c #62111A",
"7 	c #9F1D2A",
"8 	c #ED3C4B",
"9 	c #F9B0B3",
"0 	c #FEF4F4",
"a 	c #FFFFFF",
"b 	c #FBC9CB",
"c 	c #EE2E40",
"d 	c #A41E2C",
"e 	c #3D0A12",
"f 	c #C42534",
"g 	c #F6797F",
"h 	c #FDE9EA",
"i 	c #FDE6E7",
"j 	c #F68389",
"k 	c #C52535",
"l 	c #370A11",
"m 	c #FFFAFA",
"n 	c #FDECED",
"o 	c #F79499",
"p 	c #E92D3F",
"q 	c #E02B3C",
"r 	c #DD2A3B",
"s 	c #DE2A3C",
"t 	c #CB2636",
"u 	c #390A11",
"v 	c #B32130",
"w 	c #F7898E",
"x 	c #FFFBFB",
"y 	c #FBCED0",
"z 	c #F44452",
"A 	c #C82636",
"B 	c #931A27",
"C 	c #570F17",
"D 	c #380A11",
"E 	c #74141F",
"F 	c #AC1F2D",
"G 	c #E12B3D",
"H 	c #B92231",
"I 	c #77151F",
"J 	c #F35560",
"K 	c #FEF3F3",
"L 	c #FAC6C8",
"M 	c #61101A",
"N 	c #A71E2C",
"O 	c #831722",
"P 	c #D22838",
"Q 	c #F8A2A6",
"R 	c #FCDFE1",
"S 	c #F43647",
"T 	c #8C1925",
"U 	c #D8293A",
"V 	c #6C131D",
"W 	c #F4414F",
"X 	c #F8A8AB",
"Y 	c #F55A64",
"Z 	c #AF202E",
"` 	c #9B1C29",
" .	c #72141E",
"..	c #B0202F",
"+.	c #DF2A3C",
"@.	c #AE202E",
"#.	c #F9B5B8",
"$.	c #FCDEE0",
"%.	c #F54C58",
"&.	c #A91F2D",
"*.	c #510E16",
"=.	c #FDEDED",
"-.	c #F67279",
";.	c #801622",
">.	c #C82535",
",.	c #EB2D3F",
"'.	c #FEF5F6",
").	c #F54856",
"!.	c #7A1520",
"~.	c #410B13",
"{.	c #E42B3D",
"].	c #AC202E",
"^.	c #FDEAEB",
"/.	c #FEF2F3",
"(.	c #F43245",
"_.	c #991B28",
":.	c #8A1824",
"<.	c #E82C3F",
"[.	c #520E16",
"}.	c #E72C3E",
"|.	c #F54A57",
"1.	c #F54F5B",
"2.	c #CC2637",
"3.	c #E62C3E",
"4.	c #781520",
"5.	c #881824",
"6.	c #66111B",
"7.	c #8D1925",
"8.	c #400B13",
"9.	c #7D1621",
"0.	c #941A27",
"a.	c #AD202E",
"b.	c #400B12",
"c.	c #420B13",
"d.	c #4E0D15",
"e.	c #EF2E41",
"f.	c #CF2737",
"g.	c #A51E2C",
"h.	c #3A0A11",
"i.	c #D6293A",
"j.	c #E42C3D",
"k.	c #C32434",
"l.	c #9A1C29",
"m.	c #5F1019",
"n.	c #5A0F18",
"o.	c #C12434",
"p.	c #951B27",
"q.	c #500D16",
"r.	c #D52839",
"s.	c #5E1019",
"t.	c #4B0D15",
"u.	c #D42839",
"v.	c #991C28",
"w.	c #3E0B12",
"x.	c #8B1925",
"y.	c #350910",
"z.	c #8F1926",
"A.	c #E22B3D",
"B.	c #B72231",
"C.	c #360911",
"D.	c #A41E2B",
"E.	c #CD2637",
"F.	c #B3212F",
"G.	c #340910",
"H.	c #AC1F2E",
"I.	c #D62839",
"J.	c #7B1520",
"K.	c #580F18",
"L.	c #AA1F2D",
"M.	c #B1202F",
"N.	c #841723",
"O.	c #ED2D40",
"P.	c #861823",
"Q.	c #D12738",
"R.	c #9E1C2A",
"S.	c #63111A",
"T.	c #BA2232",
"U.	c #73141E",
"V.	c #871823",
"W.	c #F02F41",
"X.	c #EC2F40",
"Y.	c #E52E3E",
"Z.	c #75141F",
"`.	c #DF2D3C",
" +	c #D12B38",
".+	c #CA2A36",
"++	c #AF262F",
"@+	c #67121B",
"#+	c #A8242D",
"$+	c #871C24",
"%+	c #E12F3D",
"&+	c #E32F3D",
"*+	c #831B23",
"=+	c #440D13",
"-+	c #C82C36",
";+	c #EF2F41",
">+	c #911A26",
",+	c #891824",
"'+	c #CB2D37",
")+	c #450D13",
"!+	c #972028",
"~+	c #D72E3A",
"{+	c #74141E",
"]+	c #EB2D40",
"^+	c #DD2E3C",
"/+	c #9F232A",
"(+	c #410C13",
"_+	c #C02B34",
":+	c #DF2F3C",
"<+	c #981B28",
"[+	c #E62F3E",
"}+	c #C72D35",
"|+	c #500F16",
"1+	c #73171E",
"2+	c #CB2E37",
"3+	c #E82F3F",
"4+	c #CD2E37",
"5+	c #891D24",
"6+	c #921F27",
"7+	c #CC2E37",
"8+	c #D02738",
"9+	c #6A121C",
"0+	c #4F0E16",
"a+	c #4A0D15",
"b+	c #76141F",
"c+	c #971B28",
"d+	c #BB2332",
"e+	c #E42F3D",
"f+	c #A7242C",
"g+	c #9C2229",
"h+	c #D92E3A",
"i+	c #AD262E",
"j+	c #3B0B12",
"k+	c #911F27",
"l+	c #CE2E37",
"m+	c #E02F3C",
"n+	c #F12F41",
"o+	c #72171E",
"p+	c #C02B33",
"q+	c #DC2E3B",
"r+	c #EA2F3F",
"s+	c #E92F3F",
"t+	c #DB2E3B",
"u+	c #C12B34",
"v+	c #7B1921",
"w+	c #952027",
"x+	c #C52C35",
"y+	c #CE2E38",
"z+	c #D82E3A",
"A+	c #E02F3D",
"B+	c #E72F3E",
"C+	c #C42C35",
"D+	c #942027",
"E+	c #420C13",
"F+	c #B2272F",
"G+	c #C92D36",
"H+	c #B0272F",
"I+	c #841C23",
"J+	c #400C12",
"K+	c #450D14",
"L+	c #77181F",
"M+	c #962028",
"N+	c #A8252D",
"O+	c #B82931",
"P+	c #BF2B33",
"Q+	c #CA2E36",
"R+	c #952028",
"S+	c #75181F",
"T+	c #430C13",
"                                                                                                                                ",
"                                                                                                                                ",
"                                                                                                                                ",
"                                                                                                                                ",
"                                                                                                                                ",
"                                                . . . . . . . + + + . . . . . .                                                 ",
"                                          . . . @ # $ % & * = - ; > , ' ) ! ~ { . . .                                           ",
"                                      . . ] ^ / ( _ _ _ _ _ _ _ _ _ _ _ _ _ _ _ : < [ . .                                       ",
"                                    . } | 1 2 3 _ _ _ _ _ _ _ _ _ _ _ _ _ _ _ _ _ _ 4 5 6 .                                     ",
"                                  . 7 8 9 0 a b _ _ _ _ _ _ _ _ _ _ _ _ _ _ _ _ _ _ _ _ c d .                                   ",
"                              . e f g h a a i j _ _ _ _ _ _ _ _ _ _ _ _ _ _ _ _ _ _ _ _ _ _ k e .                               ",
"                              l % 2 m a n o _ _ _ _ _ _ _ p q r s : > _ _ _ _ _ _ _ _ _ _ _ _ t u                               ",
"                            . v w x a y z _ _ _ _ > A B C . . . . . D E F G _ _ _ _ _ _ _ _ _ _ H .                             ",
"                          . I J K a L _ _ _ _ _ % M . . .             . . l N - _ _ _ _ _ _ _ _ ; O .                           ",
"                          . P Q a R S _ _ _ ; N . .                         . T > _ _ _ _ _ _ _ _ U .                           ",
"                        . V ; W X Y _ _ _ _ Z .                               . ` _ _ _ _ _ _ _ _ _  ..                         ",
"                        . .._ _ _ _ _ _ _ +.l                                   . f _ _ _ _ _ _ _ _ @..                         ",
"                        . P #.$.%._ _ _ _ &..                                   . *., _ _ _ _ _ _ _ k .                         ",
"                        . ' =.a -._ _ _ _ ;..                                     . &._ _ _ _ _ _ _ >..                         ",
"                        . ,.'.a )._ _ _ _ !..                                       ~.{._ _ _ _ _ _ ]..                         ",
"                        + = ^./.(._ _ _ _ _..                                       . :.; _ _ _ _ <.[..                         ",
"                        . }.|.1._ _ _ _ _ 2..                                         . @.; _ _ 3.4..                           ",
"                        . & _ _ _ _ _ _ _ ; 5..                                         . 6.7.O 8..                             ",
"                        . ! _ _ _ _ _ _ _ _ = 9..                                         . . .                                 ",
"                        . 0._ _ _ _ _ _ _ _ _ > a.b..                                                                           ",
"                          c.p _ _ _ _ _ _ _ _ _ _ * N d.. . .                                                                   ",
"                          . ^ _ _ _ _ _ _ _ _ _ _ _ _ e.f.g.6.. . . .                                                           ",
"                            h.i._ _ _ _ _ _ _ _ _ _ _ _ _ _ _ j.k.l.m.. . .                                                     ",
"                            . n.' _ _ _ _ _ _ _ _ _ _ _ _ _ _ _ _ _ _ ' o.p.q.. . .                                             ",
"                              . M q _ _ _ _ _ _ _ _ _ _ _ _ _ _ _ _ _ _ _ _ - r.N s.. .                                         ",
"                                . t.5 _ _ _ _ _ _ _ _ _ _ _ _ _ _ _ _ _ _ _ _ _ _ ; u.v.w..                                     ",
"                                  . . x.s _ _ _ _ _ _ _ _ _ _ _ _ _ _ _ _ _ _ _ _ _ _ _ }.N b..                                 ",
"                                      . y.z.P ; _ _ _ _ _ _ _ _ _ _ _ _ _ _ _ _ _ _ _ _ _ _ A.5..                               ",
"                                          . . 6 @.& _ _ _ _ _ _ _ _ _ _ _ _ _ _ _ _ _ _ _ _ _ ; B.C.                            ",
"                                              . . . 6 D.E.,._ _ _ _ _ _ _ _ _ _ _ _ _ _ _ _ _ _ _ k y.                          ",
"                                                    . . . y.E N % <._ _ _ _ _ _ _ _ _ _ _ _ _ _ _ _ F..                         ",
"                                                            . . . G. .H.I.4 _ _ _ _ _ _ _ _ _ _ _ _ 4 J..                       ",
"                                                                    . . . K.L.3._ _ _ _ _ _ _ _ _ _ _ r..                       ",
"                                                                          . . ~.M.- _ _ _ _ _ _ _ _ _ _ E .                     ",
"                                                                                . N.O._ _ _ _ _ _ _ _ _ $ .                     ",
"                          . . . . .                                               . P.4 _ _ _ _ _ _ _ _ r..                     ",
"                        . K.B.I.Q.R..                                               . ! _ _ _ _ _ _ _ _ 3..                     ",
"                      . S.3._ _ _ _ T..                                             . U._ _ _ _ _ _ _ _ - .                     ",
"                      . t _ _ _ _ _ _ V..                                             . , _ _ _ _ _ _ _ W.u .                   ",
"                      . , _ _ _ _ _ _ i..                                             . s _ _ _ _ _ _ _ X.l                     ",
"                      + Y._ _ _ _ _ _ _ Z..                                           . s _ _ _ _ _ _ _ `..                     ",
"                      .  +_ _ _ _ _ _ _ k .                                           G.,._ _ _ _ _ _ _ .+.                     ",
"                      . ++4 _ _ _ _ _ _ - @+.                                       . !._ _ _ _ _ _ _ 4 #+.                     ",
"                      . $+%+_ _ _ _ _ _ _ t .                                       . 5 _ _ _ _ _ _ _ &+*+.                     ",
"                        =+-+;+_ _ _ _ _ _ _ >+.                                   . ,+; _ _ _ _ _ _ 4 '+)+                      ",
"                        . !+~+; _ _ _ _ _ _ = {+.                               . I ]+_ _ _ _ _ _ _ ^+/+.                       ",
"                          (+_+:+_ _ _ _ _ _ _ ,.,+. .                       . . <+c _ _ _ _ _ _ _ [+}+|+.                       ",
"                          . 1+2+&+_ _ _ _ _ _ _ ; k.m.. . . . . . . . . . . ;.P _ _ _ _ _ _ _ _ 3+4+5+.                         ",
"                            . 6+7+:+_ _ _ _ _ _ _ _ - 8+L.O 9+0+a+s.b+c+d+G _ _ _ _ _ _ _ _ _ e+4+f+.                           ",
"                              . g+7+~+;+_ _ _ _ _ _ _ _ _ _ _ _ _ _ _ _ _ _ _ _ _ _ _ _ _ W.h+7+i+j+                            ",
"                                . k+2+l+m+n+_ _ _ _ _ _ _ _ _ _ _ _ _ _ _ _ _ _ _ _ _ n+m+l+7+/+u .                             ",
"                                  . o+p+7+l+q+r+; _ _ _ _ _ _ _ _ _ _ _ _ _ _ _ ; s+t+l+7+u+v+.                                 ",
"                                    . (+w+x+7+7+y+z+A+B+X.;+4 ; _ ; 4 ;+X.[+m+~+y+7+7+C+D+E+.                                   ",
"                                        . E+$+F+G+7+7+7+7+7+7+7+7+7+7+7+7+7+7+7+G+H+I+J+.                                       ",
"                                            . . K+L+M+N+O+P+x+Q+2+G+x+P+O+N+R+S+T+. .                                           ",
"                                                  . . . . . . + + + . . . . . .                                                 ",
"                                                                                                                                ",
"                                                                                                                                ",
"                                                                                                                                "};
