/* XPM */
static const char * letter_u_xpm[] = {
"32 32 2 1",
" 	c None",
".	c #FFFFFF",
"                                ",
"                                ",
"                                ",
"      ...              ...      ",
"     .....            .....     ",
"     .....            .....     ",
"     .....            .....     ",
"     .....            .....     ",
"     .....            .....     ",
"     .....            .....     ",
"     .....            .....     ",
"     .....            .....     ",
"     .....            .....     ",
"     .....            .....     ",
"     .....            .....     ",
"     .....            .....     ",
"     .....            .....     ",
"     .....            .....     ",
"     .....            .....     ",
"     .....            .....     ",
"     .....            .....     ",
"     .....            .....     ",
"     .....            ....      ",
"      ....            ....      ",
"      .....          .....      ",
"      ......        .....       ",
"       .......    .......       ",
"        ................        ",
"         .............          ",
"            ........            ",
"                                ",
"                                "};
