/* XPM */
static char * letter_y_xpm[] = {
"32 32 2 1",
" 	c None",
".	c #FFFFFF",
"                                ",
"                                ",
"                                ",
"      ....             ....     ",
"      .....           .....     ",
"      .....           .....     ",
"      ......         ......     ",
"       .....         .....      ",
"       ......       ......      ",
"        ......     ......       ",
"         .....     .....        ",
"         ......   ......        ",
"          ...... ......         ",
"           ...........          ",
"           ...........          ",
"            .........           ",
"             .......            ",
"              .....             ",
"              .....             ",
"              .....             ",
"              .....             ",
"              .....             ",
"              .....             ",
"              .....             ",
"              .....             ",
"              .....             ",
"              .....             ",
"              .....             ",
"              .....             ",
"               ...              ",
"                                ",
"                                "};
