/* XPM */
static const char * number_0_xpm[] = {
"32 32 43 1",
" 	c None",
".	c #000000",
"+	c #F3F3F3",
"@	c #FFFFFF",
"#	c #EBECEC",
"$	c #E3E4E4",
"%	c #606060",
"&	c #F5F6F6",
"*	c #E8E8E8",
"=	c #FCFCFC",
"-	c #F1F1F1",
";	c #616161",
">	c #E8E9E9",
",	c #FBFBFB",
"'	c #DEDEDE",
")	c #5F5F5F",
"!	c #A9A9A9",
"~	c #E6E7E7",
"{	c #E5E5E5",
"]	c #7B7B7B",
"^	c #FEFEFE",
"/	c #0D0E0E",
"(	c #0A0A0A",
"_	c #010101",
":	c #737373",
"<	c #141414",
"[	c #0A0B0B",
"}	c #D0D1D1",
"|	c #5B5C5C",
"1	c #9E9F9F",
"2	c #D7D7D7",
"3	c #808080",
"4	c #FDFEFE",
"5	c #F8F8F8",
"6	c #818282",
"7	c #BCBDBD",
"8	c #CCCCCC",
"9	c #CDCECE",
"0	c #EDEEEE",
"a	c #E3E3E3",
"b	c #E1E1E1",
"c	c #7C7E7E",
"d	c #989898",
"                                ",
"                                ",
"               ..               ",
"              +@@               ",
"           #@@@@@@@@$%          ",
"          &@@@@ *=@@@-;         ",
"          @@@      @@@>         ",
"         @@@        @@@         ",
"         @@@        ,@@'        ",
"        @@@          @@@)       ",
"        @@@          @@@!       ",
"        @@@          @@@        ",
"       ~@@@          @@@{       ",
"        @@@]         @@@        ",
"       ^@@@]        /@@@@(      ",
"      .@@@@          @@@@       ",
"      .@@@@         _@@@@:      ",
"      .@@@@          @@@@:      ",
"      .@@@@]        <@@@@       ",
"        @@@          @@@@[      ",
"        @@@          @@@        ",
"       }@@@          @@@*       ",
"        @@@          @@@        ",
"       |@@@          @@@1       ",
"        2@@@3       4@@5        ",
"        6@@@$       @@@7        ",
"         8@@@     9@@@0         ",
"          a@@@@ *=@@@           ",
"            @@@@@@@@b;          ",
"            c8 @@ 2d            ",
"               ..               ",
"                                "};
