/* XPM */
static const char * number_0_xpm[] = {
"42 42 189 2",
"  	c None",
". 	c #9A2626",
"+ 	c #CA5353",
"@ 	c #E97575",
"# 	c #F98484",
"$ 	c #FF8A8A",
"% 	c #FF7474",
"& 	c #F75353",
"* 	c #E54B4B",
"= 	c #C23D3D",
"- 	c #8F2626",
"; 	c #EA5F5F",
"> 	c #FCA2A2",
", 	c #FFBCBC",
"' 	c #FFBFBF",
") 	c #FFC1C1",
"! 	c #FFC3C3",
"~ 	c #FF9898",
"{ 	c #FF5757",
"] 	c #FF5858",
"^ 	c #FA5656",
"/ 	c #E04949",
"( 	c #A73636",
"_ 	c #F88A8A",
": 	c #FFBEBE",
"< 	c #FFB7B7",
"[ 	c #FF9A9A",
"} 	c #FF7B7B",
"| 	c #FF6363",
"1 	c #FF5656",
"2 	c #F25252",
"3 	c #9F2929",
"4 	c #FA8989",
"5 	c #FFC2C2",
"6 	c #FF9E9E",
"7 	c #FF6464",
"8 	c #FC5757",
"9 	c #EF5050",
"0 	c #D64444",
"a 	c #D54343",
"b 	c #EB4E4E",
"c 	c #F75454",
"d 	c #ED4C4C",
"e 	c #FF7E7E",
"f 	c #FF8D8D",
"g 	c #E84D4D",
"h 	c #952828",
"i 	c #882222",
"j 	c #DE4949",
"k 	c #EC4F4F",
"l 	c #FF5F5F",
"m 	c #F68B8B",
"n 	c #FFC0C0",
"o 	c #FB5656",
"p 	c #9F2D2D",
"q 	c #892323",
"r 	c #F95555",
"s 	c #F35252",
"t 	c #B03131",
"u 	c #FD9E9E",
"v 	c #FF9C9C",
"w 	c #FF5A5A",
"x 	c #EF5151",
"y 	c #FD5757",
"z 	c #A53030",
"A 	c #CB4040",
"B 	c #A42E2E",
"C 	c #FF5959",
"D 	c #D34444",
"E 	c #992828",
"F 	c #FE5656",
"G 	c #872121",
"H 	c #FE5757",
"I 	c #ED4F4F",
"J 	c #AF3333",
"K 	c #DD4848",
"L 	c #A83030",
"M 	c #C73E3E",
"N 	c #E64C4C",
"O 	c #CE4242",
"P 	c #CA3F3F",
"Q 	c #DA4545",
"R 	c #DD4949",
"S 	c #C43E3E",
"T 	c #E24A4A",
"U 	c #D64545",
"V 	c #BF3A3A",
"W 	c #F25151",
"X 	c #D14141",
"Y 	c #B63838",
"Z 	c #F65454",
"` 	c #580000",
" .	c #F44F4F",
"..	c #CB4141",
"+.	c #B23838",
"@.	c #640E0E",
"#.	c #F55151",
"$.	c #C94141",
"%.	c #6A0E0E",
"&.	c #CA4141",
"*.	c #B33838",
"=.	c #F34E4E",
"-.	c #CF4141",
";.	c #B73838",
">.	c #640A0A",
",.	c #EA4B4B",
"'.	c #D54545",
").	c #F65353",
"!.	c #5D0000",
"~.	c #E34343",
"{.	c #DB4848",
"].	c #F54F4F",
"^.	c #D23939",
"/.	c #E34B4B",
"(.	c #CE4141",
"_.	c #EC4747",
":.	c #BB2727",
"<.	c #DD3C3C",
"[.	c #971717",
"}.	c #FF5555",
"|.	c #FC5656",
"1.	c #EA4D4D",
"2.	c #C32929",
"3.	c #FB4B4B",
"4.	c #892020",
"5.	c #FB5555",
"6.	c #FF5353",
"7.	c #981515",
"8.	c #DC3B3B",
"9.	c #BE3A3A",
"0.	c #F94646",
"a.	c #AD1D1D",
"b.	c #FD5454",
"c.	c #EA4E4E",
"d.	c #DB3030",
"e.	c #F53D3D",
"f.	c #FA5555",
"g.	c #922828",
"h.	c #F55353",
"i.	c #FD4B4B",
"j.	c #AA0E0E",
"k.	c #B31616",
"l.	c #FF4C4C",
"m.	c #CD4141",
"n.	c #EC2828",
"o.	c #E62727",
"p.	c #FF5252",
"q.	c #FE5858",
"r.	c #FC3636",
"s.	c #8C0808",
"t.	c #F92B2B",
"u.	c #FF4E4E",
"v.	c #EB4F4F",
"w.	c #C53E3E",
"x.	c #AB3232",
"y.	c #AA3030",
"z.	c #C03C3C",
"A.	c #E54C4C",
"B.	c #FE3636",
"C.	c #BC1111",
"D.	c #F72222",
"E.	c #FF4545",
"F.	c #FF4D4D",
"G.	c #FC2B2B",
"H.	c #8B0909",
"I.	c #E41B1B",
"J.	c #FF2E2E",
"K.	c #FF3F3F",
"L.	c #FF5454",
"M.	c #FF4F4F",
"N.	c #FF4343",
"O.	c #FF3333",
"P.	c #F41F1F",
"Q.	c #A80E0E",
"R.	c #AE1010",
"S.	c #EA1D1D",
"T.	c #F62020",
"U.	c #FC2222",
"V.	c #FF2323",
"W.	c #FD2222",
"X.	c #F82121",
"Y.	c #EF1E1E",
"Z.	c #C51515",
"`.	c #7F0707",
" +	c #960C0C",
".+	c #9F0D0D",
"++	c #A00E0E",
"@+	c #980C0C",
"#+	c #870909",
"                                                                                    ",
"                                                                                    ",
"                                                                                    ",
"                                                                                    ",
"                                . + @ # $ % & * = -                                 ",
"                              ; > , ' ) ! ~ { ] ] ^ /                               ",
"                          ( _ : < [ } | 1 { ] ] ] ] ] 2                             ",
"                        3 4 5 6 7 ] 8 9 0 a b 8 ] ] ] ] c                           ",
"                        d e f ] ] g h         i j ] ] ] ] k                         ",
"                        [ l ] ] k                 / ] ] ] ]                         ",
"                      m n 7 ] o p                 q r ] ] ] s                       ",
"                    t u v w ] x                     / ] ] ] y z                     ",
"                    j 1 ] ] ] A                     B C ] ] ] D                     ",
"                    r ] ] ] C E                       F ] ] ] 9                     ",
"                  G C ] ] ] H                         I ] ] ] ]                     ",
"                  J C ] ] ] s                         K ] ] ] C L                   ",
"                  M ] ] ] ] N                         O ] ] ] ] P                   ",
"                  Q ] ] ] ] R                         S ] ] ] ] T                   ",
"                  * ] ] ] ] U                         V ] ] ] ] W                   ",
"                  b ] ] ] ] X                         Y ] ] ] ] Z `                 ",
"                   .] ] ] ] ..                        +.] ] ] ] c @.                ",
"                  #.] ] ] ] $.                        +.] ] ] ] c %.                ",
"                  #.] ] ] ] &.                        *.] ] ] ] c %.                ",
"                  =.] ] ] ] -.                        ;.] ] ] ] c >.                ",
"                  ,.] ] ] ] '.                        V ] ] ] ] ).!.                ",
"                  ~.] ] ] ] {.                        S ] ] ] ] ].                  ",
"                  ^.C ] ] ] /.                        (.] ] ] ] _.                  ",
"                  :.C ] ] ] 9                         {.] ] ] ] <.                  ",
"                  [.}.] ] ] |.                        1.] ] ] C 2.                  ",
"                    3.] ] ] C 4.                      5.] ] ] 6.7.                  ",
"                    8.] ] ] ] 9.                      ] ] ] ] 0.                    ",
"                    a.b.] ] ] c.                    '.] ] ] { d.                    ",
"                      e.] ] ] f.g.                  h.] ] ] i.j.                    ",
"                      k.l.] ] ] /                 m.] ] ] 6.n.                      ",
"                        o.p.] ] ] 0               q.] ] 1 r.                        ",
"                        s.t.u.] ] ] v.w.x.y.z.A.q.] ] 6.B.C.                        ",
"                            D.E.}.] ] ] H H q.] ] 1 F.G.                            ",
"                            H.I.J.K.l.L.{ ] }.M.N.O.P.Q.                            ",
"                                R.S.T.U.V.V.W.X.Y.Z.                                ",
"                                    `. +.+++@+#+                                    ",
"                                                                                    ",
"                                                                                    "};
