/* XPM */
static char * numero_0_xpm[] = {
"64 64 289 2",
"  	c None",
". 	c #470000",
"+ 	c #460000",
"@ 	c #510000",
"# 	c #982727",
"$ 	c #C53D3D",
"% 	c #E14949",
"& 	c #F05050",
"* 	c #FC5252",
"= 	c #FF5656",
"- 	c #FF5555",
"; 	c #F95252",
"> 	c #ED4F4F",
", 	c #DC4646",
"' 	c #BC3939",
") 	c #851D1D",
"! 	c #660E0E",
"~ 	c #C33B3B",
"{ 	c #F65353",
"] 	c #FF7979",
"^ 	c #FF9A9A",
"/ 	c #FFAEAE",
"( 	c #FFB9B9",
"_ 	c #FFC0C0",
": 	c #FFC4C4",
"< 	c #FFAAAA",
"[ 	c #FF5858",
"} 	c #EB4D4D",
"| 	c #AE3131",
"1 	c #480000",
"2 	c #B23232",
"3 	c #F85757",
"4 	c #FF8F8F",
"5 	c #FFC5C5",
"6 	c #EE4E4E",
"7 	c #912323",
"8 	c #540606",
"9 	c #D74444",
"0 	c #FF7878",
"a 	c #FFB7B7",
"b 	c #FFBCBC",
"c 	c #FFA1A1",
"d 	c #FF8787",
"e 	c #FF7272",
"f 	c #FF6060",
"g 	c #FF5959",
"h 	c #FD5757",
"i 	c #BB3737",
"j 	c #520303",
"k 	c #DE4848",
"l 	c #FF8C8C",
"m 	c #FFC3C3",
"n 	c #FFBABA",
"o 	c #FF8888",
"p 	c #FF5A5A",
"q 	c #CB3B3B",
"r 	c #D14040",
"s 	c #FF5E5E",
"t 	c #F75353",
"u 	c #DF4848",
"v 	c #F35151",
"w 	c #C23939",
"x 	c #A72E2E",
"y 	c #FF8E8E",
"z 	c #FF9393",
"A 	c #A22C2C",
"B 	c #4F0000",
"C 	c #E24949",
"D 	c #FF5757",
"E 	c #5B0707",
"F 	c #F55252",
"G 	c #FF5C5C",
"H 	c #D94444",
"I 	c #580606",
"J 	c #BF3939",
"K 	c #540404",
"L 	c #BA3737",
"M 	c #FF9191",
"N 	c #FF9F9F",
"O 	c #510202",
"P 	c #CA3E3E",
"Q 	c #B13333",
"R 	c #550404",
"S 	c #F66868",
"T 	c #FF6363",
"U 	c #FB5555",
"V 	c #751515",
"W 	c #530404",
"X 	c #EF4F4F",
"Y 	c #4A0000",
"Z 	c #FFA0A0",
"` 	c #FFA6A6",
" .	c #CB3F3F",
"..	c #A32C2C",
"+.	c #9D2828",
"@.	c #EA4C4C",
"#.	c #FFA4A4",
"$.	c #FF7373",
"%.	c #7E1919",
"&.	c #4B0000",
"*.	c #F25050",
"=.	c #DB4646",
"-.	c #891F1F",
";.	c #FF6262",
">.	c #C53C3C",
",.	c #FD5656",
"'.	c #670D0D",
").	c #C63D3D",
"!.	c #AF3232",
"~.	c #A02A2A",
"{.	c #530000",
"].	c #FC5555",
"^.	c #D94545",
"/.	c #610505",
"(.	c #721111",
"_.	c #E94C4C",
":.	c #F55151",
"<.	c #8A2222",
"[.	c #F85252",
"}.	c #D34242",
"|.	c #761414",
"1.	c #AB3030",
"2.	c #E94D4D",
"3.	c #C03A3A",
"4.	c #A12B2B",
"5.	c #C03B3B",
"6.	c #AF3131",
"7.	c #BF3B3B",
"8.	c #CF4141",
"9.	c #972929",
"0.	c #D54343",
"a.	c #DF4646",
"b.	c #C13B3B",
"c.	c #8A1F1F",
"d.	c #E84C4C",
"e.	c #E74D4D",
"f.	c #B63737",
"g.	c #7B1B1B",
"h.	c #EF4E4E",
"i.	c #760202",
"j.	c #F25252",
"k.	c #AA2A2A",
"l.	c #5F0000",
"m.	c #720404",
"n.	c #FA5252",
"o.	c #9C2929",
"p.	c #500000",
"q.	c #7D1E1E",
"r.	c #FF5252",
"s.	c #982929",
"t.	c #490000",
"u.	c #942929",
"v.	c #901F1F",
"w.	c #902020",
"x.	c #FF5454",
"y.	c #4D0000",
"z.	c #9E2929",
"A.	c #590000",
"B.	c #891D1D",
"C.	c #F95050",
"D.	c #6E0000",
"E.	c #821313",
"F.	c #F24D4D",
"G.	c #AF3333",
"H.	c #7A1212",
"I.	c #7B0606",
"J.	c #ED4747",
"K.	c #B73737",
"L.	c #811F1F",
"M.	c #690000",
"N.	c #E54141",
"O.	c #902323",
"P.	c #FF5050",
"Q.	c #D53838",
"R.	c #CC3F3F",
"S.	c #A22A2A",
"T.	c #F44949",
"U.	c #C52A2A",
"V.	c #DB4545",
"W.	c #B43636",
"X.	c #EA4141",
"Y.	c #AF1414",
"Z.	c #EA4D4D",
"`.	c #DA3535",
" +	c #8D0A0A",
".+	c #FF4F4F",
"++	c #F85353",
"@+	c #C42222",
"#+	c #610202",
"$+	c #FE4343",
"%+	c #741212",
"&+	c #A60E0E",
"*+	c #E22C2C",
"=+	c #5E0606",
"-+	c #FE5656",
";+	c #FF4444",
">+	c #740303",
",+	c #AD0F0F",
"'+	c #C93E3E",
")+	c #9B2929",
"!+	c #EF2C2C",
"~+	c #5C0101",
"{+	c #F93D3D",
"]+	c #F04F4F",
"^+	c #CD4040",
"/+	c #FF4E4E",
"(+	c #C61515",
"_+	c #CC1A1A",
":+	c #8D2222",
"<+	c #550303",
"[+	c #FF3737",
"}+	c #840606",
"|+	c #7A0404",
"1+	c #FE3C3C",
"2+	c #FF4D4D",
"3+	c #E41A1A",
"4+	c #D71818",
"5+	c #FE5757",
"6+	c #8C2121",
"7+	c #5D0808",
"8+	c #FF2E2E",
"9+	c #9C0B0B",
"0+	c #800606",
"a+	c #FD2A2A",
"b+	c #EE4F4F",
"c+	c #5D0909",
"d+	c #D44242",
"e+	c #FF3D3D",
"f+	c #E21A1A",
"g+	c #C91515",
"h+	c #FF3232",
"i+	c #E54949",
"j+	c #630D0D",
"k+	c #4C0000",
"l+	c #CA3C3C",
"m+	c #FF4545",
"n+	c #FB2020",
"o+	c #7C0606",
"p+	c #570101",
"q+	c #EB1C1C",
"r+	c #FF3434",
"s+	c #AA3030",
"t+	c #540101",
"u+	c #942424",
"v+	c #E54A4A",
"w+	c #FF4747",
"x+	c #FF2121",
"y+	c #B00F0F",
"z+	c #780505",
"A+	c #F61F1F",
"B+	c #FF2F2F",
"C+	c #F95454",
"D+	c #E14848",
"E+	c #D14141",
"F+	c #D03F3F",
"G+	c #FF4040",
"H+	c #CB1515",
"I+	c #870808",
"J+	c #F71F1F",
"K+	c #FF2525",
"L+	c #FF4646",
"M+	c #FF5151",
"N+	c #CE1717",
"O+	c #EF1D1D",
"P+	c #FF4949",
"Q+	c #FF3B3B",
"R+	c #FF2222",
"S+	c #FD2020",
"T+	c #BC1212",
"U+	c #CC1515",
"V+	c #FF2727",
"W+	c #FF4B4B",
"X+	c #FF4141",
"Y+	c #8E0808",
"Z+	c #D41717",
"`+	c #FC2020",
" @	c #EA1C1C",
".@	c #AA0F0F",
"+@	c #640202",
"@@	c #AA0E0E",
"#@	c #D01717",
"$@	c #F51E1E",
"%@	c #FF1F1F",
"&@	c #FF2020",
"*@	c #FA1E1E",
"=@	c #EE1D1D",
"-@	c #DD1919",
";@	c #BD1313",
">@	c #830606",
"                                                                                                                                ",
"                                                                                                                                ",
"                                                                                                                                ",
"                                                                                                                                ",
"                                                                                                                                ",
"                                                    . . . . + + + + . . . .                                                     ",
"                                              . . @ # $ % & * = - ; > , ' ) . .                                                 ",
"                                            . ! ~ { ] ^ / ( _ : < [ [ [ [ [ } | @ .                                             ",
"                                        . 1 2 3 4 ( 5 5 5 5 5 5 < [ [ [ [ [ [ [ 6 7 .                                           ",
"                                      . 8 9 0 a 5 5 b c d e f g [ [ [ [ [ [ [ [ [ h i .                                         ",
"                                    . j k l m 5 n o p [ [ [ [ [ [ [ [ [ [ [ [ [ [ [ [ q .                                       ",
"                                    . r d : 5 c s [ [ [ [ t u r r , v [ [ [ [ [ [ [ [ [ w .                                     ",
"                                  . x [ y : z [ [ [ [ 6 A B . . . . . 7 C [ [ [ [ [ [ [ D A .                                   ",
"                                  E F [ [ G [ [ [ [ H I .             . 1 J [ [ [ [ [ [ [ v K                                   ",
"                                . L M N g [ [ [ [ C O .                   . P [ [ [ [ [ [ [ Q .                                 ",
"                                R S m : T [ [ [ U V .                       W 6 [ [ [ [ [ [ X Y                                 ",
"                              . | Z 5 ` [ [ [ [  ..                         . ..[ [ [ [ [ [ [ +..                               ",
"                              . @.#.m $.[ [ [ [ %..                           &.*.[ [ [ [ [ [ =..                               ",
"                            . -.[ g ;.[ [ [ [ } .                             . >.[ [ [ [ [ [ ,.'..                             ",
"                            . P [ [ [ [ [ [ [ )..                             . 7 [ [ [ [ [ [ [ !..                             ",
"                            . X [ [ [ [ [ [ [ ~..                               {.].[ [ [ [ [ [ ^..                             ",
"                          . /.D [ [ [ [ [ [ [ (..                               . _.[ [ [ [ [ [ :..                             ",
"                          . <.[ [ [ [ [ [ [ [..                                 . }.[ [ [ [ [ [ [ |..                           ",
"                          . 1.[ [ [ [ [ [ [ 2..                                 . 3.[ [ [ [ [ [ [ 4..                           ",
"                          . 5.[ [ [ [ [ [ [ ^..                                 . 6.[ [ [ [ [ [ [ 7..                           ",
"                          . 8.[ [ [ [ [ [ [  ..                                 . 9.[ [ [ [ [ [ [ 0..                           ",
"                          . a.[ [ [ [ [ [ [ b..                                 . c.[ [ [ [ [ [ [ d..                           ",
"                          . e.[ [ [ [ [ [ [ f..                                 . g.[ [ [ [ [ [ [ v .                           ",
"                          . h.[ [ [ [ [ [ [ !..                                 . i.[ [ [ [ [ [ [ = &.                          ",
"                          . j.[ [ [ [ [ [ [ k..                                 . l.[ [ [ [ [ [ [ [ m..                         ",
"                          + n.[ [ [ [ [ [ [ o..                                 . p.[ [ [ [ [ [ [ [ q..                         ",
"                          + r.[ [ [ [ [ [ [ s..                                 . t.[ [ [ [ [ [ [ [ c..                         ",
"                          + - [ [ [ [ [ [ [ u..                                 . . [ [ [ [ [ [ [ [ v..                         ",
"                        . + = [ [ [ [ [ [ [ u..                                 . t.[ [ [ [ [ [ [ [ w..                         ",
"                          + x.[ [ [ [ [ [ [ 9..                                 . y.[ [ [ [ [ [ [ [ v..                         ",
"                          + r.[ [ [ [ [ [ [ z..                                 . A.[ [ [ [ [ [ [ [ B..                         ",
"                          + C.[ [ [ [ [ [ [ k..                                 . D.[ [ [ [ [ [ [ [ E..                         ",
"                          . F.[ [ [ [ [ [ [ G..                                 . H.[ [ [ [ [ [ [ D I..                         ",
"                          . J.[ [ [ [ [ [ [ K..                                 . L.[ [ [ [ [ [ [ x.M..                         ",
"                          . N.[ [ [ [ [ [ [ b..                                 . O.[ [ [ [ [ [ [ P.Y                           ",
"                          . Q.[ [ [ [ [ [ [ R..                                 . S.[ [ [ [ [ [ [ T..                           ",
"                          . U.[ [ [ [ [ [ [ V..                                 . W.[ [ [ [ [ [ [ X..                           ",
"                          . Y.D [ [ [ [ [ [ Z..                                 . $ [ [ [ [ [ [ [ `..                           ",
"                          .  +.+[ [ [ [ [ [ ++.                                 . H [ [ [ [ [ [ [ @+.                           ",
"                          . #+$+[ [ [ [ [ [ [ %+.                               . > [ [ [ [ [ [ r.&+.                           ",
"                            . *+[ [ [ [ [ [ [ 4..                               =+-+[ [ [ [ [ [ ;+>+.                           ",
"                            . ,+r.[ [ [ [ [ [ '+.                             . )+[ [ [ [ [ [ [ !+.                             ",
"                              ~+{+[ [ [ [ [ [ ]+.                             . ^+[ [ [ [ [ [ /+(+.                             ",
"                              . _+x.[ [ [ [ [ [ :+.                           <+{ [ [ [ [ [ [ [+}+.                             ",
"                              . |+1+[ [ [ [ [ [ 9 .                         . !.[ [ [ [ [ [ 2+3+.                               ",
"                                . 4+2+[ [ [ [ [ 5+6+.                     . 7+v [ [ [ [ [ = 8+9+.                               ",
"                                . 0+a+x.[ [ [ [ [ b+c+.                   . d+[ [ [ [ [ [ e+f+.                                 ",
"                                  . g+h+= [ [ [ [ [ i+j+.             . k+l+[ [ [ [ [ [ m+n+o+.                                 ",
"                                  . p+q+r+= [ [ [ [ [ v s+t+. . . . 1 u+v+[ [ [ [ [ [ w+x+y+.                                   ",
"                                    . z+A+B+r.[ [ [ [ [ [ C+D+E+F+, v [ [ [ [ [ [ D G+x+H+.                                     ",
"                                      . I+J+K+L+D [ [ [ [ [ [ [ [ [ [ [ [ [ [ [ M+h+x+N+Y                                       ",
"                                        . 0+O+x+8+P+D [ [ [ [ [ [ [ [ [ [ [ P.Q+R+S+T+.                                         ",
"                                          . ~+U+S+x+V+Q+w+P.x.D D - r.W+X+B+x+x+q+Y+.                                           ",
"                                            . . 0+Z+`+x+x+x+x+x+x+x+x+x+x+x+ @.@y..                                             ",
"                                                . . +@@@#@ @$@%@&@*@=@-@;@>@. .                                                 ",
"                                                    . . . . . + + + . . . .                                                     ",
"                                                                                                                                ",
"                                                                                                                                ",
"                                                                                                                                "};
