/* XPM */
static const char * number_1_xpm[] = {
"42 42 94 2",
"  	c None",
". 	c #751F27",
"+ 	c #D94552",
"@ 	c #E44957",
"# 	c #B63843",
"$ 	c #D1424F",
"% 	c #E64B59",
"& 	c #E44A58",
"* 	c #8A272F",
"= 	c #B93944",
"- 	c #E74B59",
"; 	c #E54A58",
"> 	c #9C2E37",
", 	c #972C35",
"' 	c #E34A58",
") 	c #E54B59",
"! 	c #A3313B",
"~ 	c #8C2831",
"{ 	c #E14956",
"] 	c #A7333D",
"^ 	c #892730",
"/ 	c #DF4856",
"( 	c #A9343E",
"_ 	c #A22F3A",
": 	c #E6727C",
"< 	c #EA717A",
"[ 	c #A9343F",
"} 	c #C74651",
"| 	c #ED878F",
"1 	c #F19DA4",
"2 	c #EB7680",
"3 	c #67181F",
"4 	c #B23641",
"5 	c #DF4A57",
"6 	c #E9636E",
"7 	c #F0949B",
"8 	c #EA7079",
"9 	c #E64C5A",
"0 	c #B13641",
"a 	c #E36670",
"b 	c #EC8089",
"c 	c #E64F5D",
"d 	c #E34A57",
"e 	c #952B35",
"f 	c #DA4653",
"g 	c #E74E5C",
"h 	c #ED848D",
"i 	c #E8606B",
"j 	c #DA4553",
"k 	c #9F2F39",
"l 	c #882730",
"m 	c #BF3B47",
"n 	c #2B0607",
"o 	c #DB4553",
"p 	c #E64D5B",
"q 	c #E64D5A",
"r 	c #E24957",
"s 	c #C43D49",
"t 	c #5E171D",
"u 	c #6A1B22",
"v 	c #DC4754",
"w 	c #CD404C",
"x 	c #8C2730",
"y 	c #531117",
"z 	c #D74552",
"A 	c #CD414E",
"B 	c #D24350",
"C 	c #9C2D37",
"D 	c #521017",
"E 	c #521016",
"F 	c #A6323D",
"G 	c #4E0F14",
"H 	c #9D2E39",
"I 	c #470D12",
"J 	c #D54552",
"K 	c #8B2730",
"L 	c #35060A",
"M 	c #D13D4A",
"N 	c #E34957",
"O 	c #711C23",
"P 	c #C52431",
"Q 	c #E4414F",
"R 	c #E64A58",
"S 	c #E64856",
"T 	c #DA3543",
"U 	c #41080C",
"V 	c #82131D",
"W 	c #D72030",
"X 	c #E02233",
"Y 	c #DC2132",
"Z 	c #9A1621",
"` 	c #690E15",
" .	c #89121C",
"..	c #7B101A",
"                                                                                    ",
"                                                                                    ",
"                                                                                    ",
"                                                                                    ",
"                                                  . + @ #                           ",
"                                                  $ % % & *                         ",
"                                                = - % % ; >                         ",
"                                              , ' % % % ) !                         ",
"                                            ~ { % % % % ) ]                         ",
"                                          ^ / % % % % % ) (                         ",
"                                        _ : < % % % % % ) [                         ",
"                                      } | 1 2 % % % % % ) [                         ",
"                                3 4 5 6 7 8 9 % % % % % ) [                         ",
"                              0 a 7 b 9 c ) d % % % % % ) [                         ",
"                          e f g h | i - j k l m % % % % ) [                         ",
"                        n o % % p q r s t     u v % % % ) [                         ",
"                          w - % - $ x         y z % % % ) [                         ",
"                            A B C             D z % % % ) [                         ",
"                                              D z % % % ) [                         ",
"                                              D z % % % ) [                         ",
"                                              D z % % % ) [                         ",
"                                              D z % % % ) [                         ",
"                                              D z % % % ) [                         ",
"                                              D z % % % ) [                         ",
"                                              D z % % % ) [                         ",
"                                              D z % % % ) [                         ",
"                                              D z % % % ) [                         ",
"                                              D z % % % ) [                         ",
"                                              D z % % % ) [                         ",
"                                              D z % % % ) [                         ",
"                                              D z % % % ) [                         ",
"                                              D z % % % ) [                         ",
"                                              D z % % % ) (                         ",
"                                              E z % % % ) F                         ",
"                                              G z % % % ; H                         ",
"                                              I J % % % & K                         ",
"                                              L M % % % N O                         ",
"                                                P Q R S T U                         ",
"                                                V W X Y Z                           ",
"                                                  `  ...                            ",
"                                                                                    ",
"                                                                                    "};
