/* XPM */
static const char *number_1_xpm[] = {
"64 64 132 2",
"  	c None",
". 	c #38090C",
"+ 	c #38080C",
"@ 	c #37080C",
"# 	c #83232B",
"$ 	c #DA4552",
"% 	c #E64957",
"& 	c #D64350",
"* 	c #8D2730",
"= 	c #63161D",
"- 	c #DE4755",
"; 	c #E64B59",
"> 	c #E44A57",
", 	c #7F2129",
"' 	c #41090D",
") 	c #CD404D",
"! 	c #BA3944",
"~ 	c #AD333E",
"{ 	c #C63C48",
"] 	c #85232B",
"^ 	c #E54A58",
"/ 	c #CF424E",
"( 	c #65181F",
"_ 	c #DD4754",
": 	c #D4434F",
"< 	c #521117",
"[ 	c #D54350",
"} 	c #D84452",
"| 	c #4E0F15",
"1 	c #CF414E",
"2 	c #D94653",
"3 	c #551117",
"4 	c #DB4653",
"5 	c #6A1920",
"6 	c #D64351",
"7 	c #E85F6A",
"8 	c #E64D5B",
"9 	c #DB4654",
"0 	c #912832",
"a 	c #E04C59",
"b 	c #ED858E",
"c 	c #F2A0A7",
"d 	c #EC7E87",
"e 	c #5B141A",
"f 	c #C03B47",
"g 	c #E85E69",
"h 	c #F0939B",
"i 	c #F29EA5",
"j 	c #E96A75",
"k 	c #460C11",
"l 	c #A6303A",
"m 	c #E04856",
"n 	c #E64F5C",
"o 	c #F19CA4",
"p 	c #F0989F",
"q 	c #E8636E",
"r 	c #9F2E38",
"s 	c #E85C67",
"t 	c #E64C59",
"u 	c #EE8891",
"v 	c #ED858D",
"w 	c #E7525F",
"x 	c #370C0D",
"y 	c #470D12",
"z 	c #A42F3A",
"A 	c #DC4653",
"B 	c #EA6D77",
"C 	c #F0939A",
"D 	c #EA737C",
"E 	c #942933",
"F 	c #E96671",
"G 	c #F19AA1",
"H 	c #E34957",
"I 	c #C93F4B",
"J 	c #C63D4A",
"K 	c #B13540",
"L 	c #E75461",
"M 	c #EE8991",
"N 	c #EB7881",
"O 	c #E6505D",
"P 	c #C53C49",
"Q 	c #61151C",
"R 	c #6E1A21",
"S 	c #DF4755",
"T 	c #E04755",
"U 	c #DE4754",
"V 	c #952A33",
"W 	c #AA323D",
"X 	c #370B0D",
"Y 	c #E24856",
"Z 	c #BC3844",
"` 	c #571218",
" .	c #83242D",
"..	c #C03B46",
"+.	c #CE404D",
"@.	c #7B1F27",
"#.	c #7F2029",
"$.	c #531117",
"%.	c #CF404D",
"&.	c #3A080C",
"*.	c #761E26",
"=.	c #6B1920",
"-.	c #7E1F27",
";.	c #781D25",
">.	c #6F1D24",
",.	c #BE3A46",
"'.	c #67161D",
").	c #AE343F",
"!.	c #46090F",
"~.	c #E54654",
"{.	c #972A34",
"].	c #370A0C",
"^.	c #DE3241",
"/.	c #E54553",
"(.	c #711119",
"_.	c #D3202F",
":.	c #E23241",
"<.	c #E64A58",
"[.	c #E4404E",
"}.	c #D82635",
"|.	c #3E090D",
"1.	c #961722",
"2.	c #DF2132",
"3.	c #E02132",
"4.	c #9D1622",
"5.	c #8B131D",
"6.	c #CC1D2D",
"7.	c #DE2031",
"8.	c #D61F30",
"9.	c #A31723",
"0.	c #39080C",
"a.	c #380A0C",
"                                                                                                                                ",
"                                                                                                                                ",
"                                                                                                                                ",
"                                                                                                                                ",
"                                                                                  .                                             ",
"                                                                              + + @ + +                                         ",
"                                                                            + # $ % & * +                                       ",
"                                                                          + = - ; ; ; > , +                                     ",
"                                                                        . ' ) ; ; ; ; ; ! +                                     ",
"                                                                        + ~ ; ; ; ; ; ; { +                                     ",
"                                                                      + ] ^ ; ; ; ; ; ; / +                                     ",
"                                                                    + ( _ ; ; ; ; ; ; ; : +                                     ",
"                                                                  + < [ ; ; ; ; ; ; ; ; } +                                     ",
"                                                                + | 1 ; ; ; ; ; ; ; ; ; 2 +                                     ",
"                                                              + 3 1 ; ; ; ; ; ; ; ; ; ; 4 +                                     ",
"                                                            + 5 6 7 8 ; ; ; ; ; ; ; ; ; 9 +                                     ",
"                                                        + + 0 a b c d ; ; ; ; ; ; ; ; ; 9 +                                     ",
"                                                    . + e f g h c i j ; ; ; ; ; ; ; ; ; 9 +                                     ",
"                                                . + k l m n o c p q ; ; ; ; ; ; ; ; ; ; 9 +                                     ",
"                                            . + k r 4 s ; t u v w ; ; ; ; ; ; ; ; ; ; ; 9 +                                     ",
"                                        x + y z A B C c D ; ; ; ; ; ; ; ; ; ; ; ; ; ; ; 9 +                                     ",
"                                      + + E 4 ; F c c G q ; ; ; H I J H ; ; ; ; ; ; ; ; 9 +                                     ",
"                                      + K ; ; ; L M N O ; ; ; P Q + + R S ; ; ; ; ; ; ; 9 +                                     ",
"                                    x @ T ; ; ; ; ; ; ; ; U V + +     + W ; ; ; ; ; ; ; 9 +                                     ",
"                                    X @ Y ; ; ; ; ; ; ^ Z ` + x       +  .; ; ; ; ; ; ; 9 +                                     ",
"                                      + ..; ; ; ; ; +.@.+ +           + #.; ; ; ; ; ; ; 9 +                                     ",
"                                      + $.) ; ; %.* + +               + #.; ; ; ; ; ; ; 9 +                                     ",
"                                        + &.*.=.+ +                   + #.; ; ; ; ; ; ; 9 +                                     ",
"                                            + +                       + #.; ; ; ; ; ; ; 9 +                                     ",
"                                                                      + #.; ; ; ; ; ; ; 9 +                                     ",
"                                                                      + #.; ; ; ; ; ; ; 9 +                                     ",
"                                                                      + #.; ; ; ; ; ; ; 9 +                                     ",
"                                                                      + #.; ; ; ; ; ; ; 9 +                                     ",
"                                                                      + #.; ; ; ; ; ; ; 9 +                                     ",
"                                                                      + #.; ; ; ; ; ; ; 9 +                                     ",
"                                                                      + #.; ; ; ; ; ; ; 9 +                                     ",
"                                                                      + #.; ; ; ; ; ; ; 9 +                                     ",
"                                                                      + #.; ; ; ; ; ; ; 9 +                                     ",
"                                                                      + #.; ; ; ; ; ; ; 9 +                                     ",
"                                                                      + #.; ; ; ; ; ; ; 9 +                                     ",
"                                                                      + #.; ; ; ; ; ; ; 9 +                                     ",
"                                                                      + #.; ; ; ; ; ; ; 9 +                                     ",
"                                                                      + #.; ; ; ; ; ; ; 9 +                                     ",
"                                                                      + #.; ; ; ; ; ; ; 9 +                                     ",
"                                                                      + #.; ; ; ; ; ; ; 9 +                                     ",
"                                                                      + #.; ; ; ; ; ; ; 9 +                                     ",
"                                                                      + #.; ; ; ; ; ; ; 9 +                                     ",
"                                                                      + #.; ; ; ; ; ; ; 9 +                                     ",
"                                                                      + #.; ; ; ; ; ; ; 9 +                                     ",
"                                                                      + #.; ; ; ; ; ; ; 4 +                                     ",
"                                                                      + #.; ; ; ; ; ; ; 2 +                                     ",
"                                                                      + -.; ; ; ; ; ; ; [ +                                     ",
"                                                                      + ;.; ; ; ; ; ; ; ) +                                     ",
"                                                                      + >.; ; ; ; ; ; ; ,.+                                     ",
"                                                                      + '.; ; ; ; ; ; ; ).+                                     ",
"                                                                      + !.~.; ; ; ; ; ; {.+                                     ",
"                                                                      ].+ ^.; ; ; ; ; /.(.+                                     ",
"                                                                        + _.:./.<.% [.}.|.].                                    ",
"                                                                        + 1.2.3.3.3.3.4.+                                       ",
"                                                                        x + 5.6.7.8.9.0.].                                      ",
"                                                                            + + @ + + .                                         ",
"                                                                                a.                                              ",
"                                                                                                                                ",
"                                                                                                                                "};
