/* XPM */
static char * numero_2_xpm[] = {
"64 64 151 2",
"  	c None",
". 	c #51151C",
"+ 	c #50151B",
"@ 	c #6F1D26",
"# 	c #9A2835",
"$ 	c #B02E3C",
"% 	c #C13242",
"& 	c #C93445",
"* 	c #CB3848",
"= 	c #CC3C4C",
"- 	c #CD3E4E",
"; 	c #CC3A4A",
"> 	c #CB3647",
", 	c #C63344",
"' 	c #BB3040",
") 	c #AA2C3A",
"! 	c #912632",
"~ 	c #641A22",
"{ 	c #59171E",
"] 	c #982734",
"^ 	c #D04958",
"/ 	c #D86774",
"( 	c #DD7B86",
"_ 	c #E18993",
": 	c #E2919A",
"< 	c #E4969F",
"[ 	c #E59AA2",
"} 	c #E3939C",
"| 	c #D04857",
"1 	c #CD3F4F",
"2 	c #CD3D4D",
"3 	c #BD3141",
"4 	c #932632",
"5 	c #53161D",
"6 	c #972734",
"7 	c #CB3546",
"8 	c #DE7E89",
"9 	c #E59BA3",
"0 	c #89232F",
"a 	c #6A1C24",
"b 	c #E499A1",
"c 	c #E08690",
"d 	c #DB737E",
"e 	c #D65F6C",
"f 	c #D25260",
"g 	c #CF4655",
"h 	c #CE4050",
"i 	c #AB2C3B",
"j 	c #791F29",
"k 	c #DB747F",
"l 	c #D6616E",
"m 	c #CF4756",
"n 	c #B72F3F",
"o 	c #54161D",
"p 	c #741E28",
"q 	c #CB3747",
"r 	c #DE7F8A",
"s 	c #D76370",
"t 	c #C53343",
"u 	c #BE3141",
"v 	c #CD3C4C",
"w 	c #5E1820",
"x 	c #C73444",
"y 	c #CE4151",
"z 	c #E497A0",
"A 	c #D6606D",
"B 	c #BF3241",
"C 	c #8F2531",
"D 	c #58171E",
"E 	c #5D1820",
"F 	c #C03241",
"G 	c #962733",
"H 	c #AF2D3C",
"I 	c #D14E5D",
"J 	c #9E2936",
"K 	c #CC3949",
"L 	c #CC3849",
"M 	c #651A23",
"N 	c #7C202A",
"O 	c #B62F3E",
"P 	c #A32A38",
"Q 	c #83222D",
"R 	c #5B181F",
"S 	c #B32E3D",
"T 	c #AD2D3B",
"U 	c #922632",
"V 	c #C83444",
"W 	c #5C181F",
"X 	c #6B1C24",
"Y 	c #B12E3D",
"Z 	c #B22E3D",
"` 	c #BF3141",
" .	c #C43343",
"..	c #C23242",
"+.	c #621922",
"@.	c #CB3748",
"#.	c #B8303F",
"$.	c #A02A37",
"%.	c #85232E",
"&.	c #9F2936",
"*.	c #CC3B4C",
"=.	c #BC3140",
"-.	c #A82C39",
";.	c #621921",
">.	c #C33243",
",.	c #701D26",
"'.	c #BA303F",
").	c #56161D",
"!.	c #902531",
"~.	c #A22A37",
"{.	c #611921",
"].	c #AE2D3C",
"^.	c #BA3040",
"/.	c #A12A37",
"(.	c #751E28",
"_.	c #A52B38",
":.	c #B52F3E",
"<.	c #A42A38",
"[.	c #681B23",
"}.	c #771F29",
"|.	c #731E27",
"1.	c #7B202A",
"2.	c #57161E",
"3.	c #82222D",
"4.	c #89242F",
"5.	c #CC3A4B",
"6.	c #8D2530",
"7.	c #631A22",
"8.	c #A92C3A",
"9.	c #8C2430",
"0.	c #52151C",
"a.	c #761F28",
"b.	c #5A171F",
"c.	c #651A22",
"d.	c #691B24",
"e.	c #7D202B",
"f.	c #A42B38",
"g.	c #CB3545",
"h.	c #B42F3E",
"i.	c #80212C",
"j.	c #88232F",
"k.	c #CB3849",
"l.	c #B7303F",
"m.	c #CC394A",
"n.	c #9D2936",
"o.	c #A62B39",
"p.	c #7E212B",
"q.	c #942633",
"r.	c #9B2835",
"s.	c #972733",
"t.	c #87232E",
"                                                                                                                                ",
"                                                                                                                                ",
"                                                                                                                                ",
"                                                                                                                                ",
"                                                                                                                                ",
"                                                  . . . . . + + + + . . . . . .                                                 ",
"                                              . . @ # $ % & * = - ; > , ' ) ! ~ . .                                             ",
"                                          . { ] % ^ / ( _ : < [ } | 1 1 1 1 1 2 3 4 5 .                                         ",
"                                      . . 6 7 1 8 [ 9 9 9 9 9 9 } | 1 1 1 1 1 1 1 1 , 0 .                                       ",
"                                    . a 3 1 1 1 : b c d e f g h 1 1 1 1 1 1 1 1 1 1 1 - i 5 .                                   ",
"                                  . j > k < l 1 m | 1 1 1 1 1 1 1 1 1 1 1 1 1 1 1 1 1 1 1 n o .                                 ",
"                                . p q r 9 [ s 1 1 1 1 1 1 = t 3 u , v 1 1 1 1 1 1 1 1 1 1 1 $ .                                 ",
"                              . w x y z z A 1 1 1 1 1 B C D . . . . E 4 F 1 1 1 1 1 1 1 1 1 1 G .                               ",
"                              . H 1 1 f I 1 1 1 1 2 J . .             . . 4 K 1 1 1 1 1 1 1 1 L M .                             ",
"                            . N 2 1 1 1 1 1 1 1 - # .                     . j q 1 1 1 1 1 1 1 1 ) .                             ",
"                            . O 1 1 1 1 1 1 1 1 P .                         . Q 2 1 1 1 1 1 1 1 L R                             ",
"                          . ~ = 1 1 1 1 1 1 1 S .                             . T 1 1 1 1 1 1 1 1 U .                           ",
"                          . 6 1 1 1 1 1 1 1 V W .                             . X 2 1 1 1 1 1 1 1 Y .                           ",
"                          . Z 1 1 1 1 1 1 1 # .                                 . ` 1 1 1 1 1 1 1  ..                           ",
"                          . ..1 1 1 1 1 1 = +..                                 . ) 1 1 1 1 1 1 1 @..                           ",
"                          . , 1 1 1 1 1 1 #..                                   . $.1 1 1 1 1 1 1 - +                           ",
"                          .  .1 1 1 1 1 1 %..                                   . &.1 1 1 1 1 1 1 *.+                           ",
"                          . ) 1 1 1 1 1 =..                                     . -.1 1 1 1 1 1 1 q .                           ",
"                          . ;.>.1 1 1 7 ,..                                     . '.1 1 1 1 1 1 1  ..                           ",
"                            . ).!.~.G {..                                       ).K 1 1 1 1 1 1 1 Y .                           ",
"                                . . . .                                       . U 1 1 1 1 1 1 1 1 4 .                           ",
"                                                                              . % 1 1 1 1 1 1 1 ; w                             ",
"                                                                            . ! 1 1 1 1 1 1 1 1 ]..                             ",
"                                                                          . ~ 7 1 1 1 1 1 1 1 ; X .                             ",
"                                                                          . ^.1 1 1 1 1 1 1 1 /..                               ",
"                                                                        . ) 1 1 1 1 1 1 1 1 ..o                                 ",
"                                                                      . P 1 1 1 1 1 1 1 1 ; (..                                 ",
"                                                                  . . _.1 1 1 1 1 1 1 1 2 ! .                                   ",
"                                                                . E :.1 1 1 1 1 1 1 1 1 ~..                                     ",
"                                                              . (., 1 1 1 1 1 1 1 1 1 <..                                       ",
"                                                            . ! ; 1 1 1 1 1 1 1 1 2 ] .                                         ",
"                                                        . o ) - 1 1 1 1 1 1 1 1 K 0 .                                           ",
"                                                      . [.` 1 1 1 1 1 1 1 1 1 & }..                                             ",
"                                                    . |.& 1 1 1 1 1 1 1 1 1 ` M .                                               ",
"                                                  . 1.7 1 1 1 1 1 1 1 1 1 $ 2..                                                 ",
"                                                . 3.L 1 1 1 1 1 1 1 1 2 J . .                                                   ",
"                                              . 4.5.1 1 1 1 1 1 1 1 L 0 .                                                       ",
"                                            . 6.= 1 1 1 1 1 1 1 1 V (..                                                         ",
"                                          . !.v 1 1 1 1 1 1 1 1 3 7..                                                           ",
"                                        . U 2 1 1 1 1 1 1 1 1 S 2..                                                             ",
"                                      . U 2 1 1 1 1 1 1 1 1 8.. .                                                               ",
"                                    . ! 2 1 1 1 1 1 1 1 1 8..                                                                   ",
"                                  . 9.v 1 1 1 1 1 1 1 1 H .                                                                     ",
"                                . Q *.1 1 1 1 1 1 1 1 O 0.                                                                      ",
"                              . a.L 1 1 1 1 1 1 1 1 ` b..                                                                       ",
"                            . c.& 1 1 1 1 1 1 1 1 7 M .                                                                         ",
"                            . Z 1 1 1 1 1 1 1 1 1 =.. . .                                                                       ",
"                          . d.= 1 1 1 1 1 1 1 1 1 2 ) e.D + + + + + + + + + + + + + . . . . . . . .                             ",
"                          . f.1 1 1 1 1 1 1 1 1 1 1 1 1 1 5.L L L L L L L L L L L L * q g.V  .u h.i..                           ",
"                          . >.1 1 1 1 1 1 1 1 1 1 1 1 1 1 1 1 1 1 1 1 1 1 1 1 1 1 1 1 1 1 1 1 1 1 = j..                         ",
"                          + >.1 1 1 1 1 1 1 1 1 1 1 1 1 1 1 1 1 1 1 1 1 1 1 1 1 1 1 1 1 1 1 1 1 1 1 % .                         ",
"                          . _.k.1 1 1 1 1 1 1 1 1 1 1 1 1 1 1 1 1 1 1 1 1 1 1 1 1 1 1 1 1 1 1 1 1 1 l..                         ",
"                          . 6.) % m.- 1 1 1 1 1 1 1 1 1 1 1 1 1 1 1 1 1 1 1 1 1 1 1 1 1 1 1 1 - k.=.n..                         ",
"                          . W n.o.o.o.o.o.o.o.o.o.o.o.o.o.o.o.o.o.o.o.o.o.o.o.o.o.o.o.o.o.o.o.o.o.o.p..                         ",
"                            . {.!.q.r.n./.<.o.o.o.o.o.o.o.o.o.o.o.o.o.o.o.o.o.o.o.o.o._.<./.&.r.s.t..                           ",
"                              . . . . . . . + + + + + + + + + + + + + + + + + + + + + + + . . . . .                             ",
"                                              . . . . . . . . . . . . . . . . . . . .                                           ",
"                                                                                                                                ",
"                                                                                                                                "};
