/* XPM */
static const char * number_2_xpm[] = {
"32 32 37 1",
" 	c None",
".	c #000000",
"+	c #5B5B5B",
"@	c #B9B9B9",
"#	c #FFFFFF",
"$	c #E8E8E8",
"%	c #FCFCFC",
"&	c #E5E5E5",
"*	c #656565",
"=	c #F7F7F7",
"-	c #686868",
";	c #565656",
">	c #828282",
",	c #CECECE",
"'	c #5D5D5D",
")	c #7C7C7C",
"!	c #7A7A7A",
"~	c #5F5F5F",
"{	c #595959",
"]	c #F9F9F9",
"^	c #AAAAAA",
"/	c #EDEDED",
"(	c #E0E0E0",
"_	c #808080",
":	c #FEFEFE",
"<	c #AFAFAF",
"[	c #242424",
"}	c #D8D8D8",
"|	c #BCBCBC",
"1	c #B6B6B6",
"2	c #FBFBFB",
"3	c #909090",
"4	c #B2B2B2",
"5	c #868686",
"6	c #E9E9E9",
"7	c #F8F8F8",
"8	c #E4E4E4",
"                                ",
"                                ",
"               ..               ",
"           +@  ## $             ",
"           %#########&*         ",
"          #####  #####=-        ",
"         ####    ; ####         ",
"       >####        ####        ",
"       ,###          ###        ",
"        ###'         ###        ",
"        ##          )####.      ",
"        #%           ###        ",
"        !~           ###        ",
"                   {]###^       ",
"                    ###/        ",
"                   ####         ",
"                  ####          ",
"                (####           ",
"              _ ###             ",
"               ###              ",
"             :### '             ",
"           ^####                ",
"          <####                 ",
"          ####                  ",
"         ####                   ",
"         ### [                  ",
"        #####} ||||||1 ^        ",
"       2#################3      ",
"        #################4      ",
"       567#############28       ",
"          .............         ",
"                                "};
