/* XPM */
static char * 2_xpm[] = {
"42 42 157 2",
"  	c None",
". 	c #942935",
"+ 	c #B64753",
"@ 	c #CB5A65",
"# 	c #D4636E",
"$ 	c #D66A74",
"% 	c #D45F6A",
"& 	c #CD3B4B",
"* 	c #C83748",
"= 	c #BA3443",
"- 	c #A32F3C",
"; 	c #86232E",
"> 	c #AE2D3C",
", 	c #C94956",
"' 	c #E08992",
") 	c #E3949D",
"! 	c #E4969F",
"~ 	c #E498A0",
"{ 	c #E499A1",
"] 	c #DE828C",
"^ 	c #CE4050",
"/ 	c #CD3F4F",
"( 	c #CB3D4D",
"_ 	c #C23847",
": 	c #821E2A",
"< 	c #CA5561",
"[ 	c #D45D6A",
"} 	c #CF4D5A",
"| 	c #DC7F88",
"1 	c #D86D78",
"2 	c #D35764",
"3 	c #CF4756",
"4 	c #CE3E4E",
"5 	c #CD3D4D",
"6 	c #CD3E4E",
"7 	c #A52D3B",
"8 	c #D2626D",
"9 	c #E3969E",
"0 	c #DC7B85",
"a 	c #CD4150",
"b 	c #CD4050",
"c 	c #CB3E4E",
"d 	c #C73949",
"e 	c #BD3242",
"f 	c #BE3242",
"g 	c #C83A49",
"h 	c #CC3F4F",
"i 	c #A92E3B",
"j 	c #6E1B25",
"k 	c #D66873",
"l 	c #DB7883",
"m 	c #CF4554",
"n 	c #CE3F4F",
"o 	c #B53442",
"p 	c #81212B",
"q 	c #83212C",
"r 	c #B23341",
"s 	c #CC3E4E",
"t 	c #8D2530",
"u 	c #AA303E",
"v 	c #AF3240",
"w 	c #9F2A37",
"x 	c #BD3645",
"y 	c #C93B4B",
"z 	c #BA3544",
"A 	c #B53341",
"B 	c #972835",
"C 	c #C93949",
"D 	c #AD2E3C",
"E 	c #B6303F",
"F 	c #A42F3C",
"G 	c #C03645",
"H 	c #C13444",
"I 	c #BF3242",
"J 	c #CA3D4D",
"K 	c #84222D",
"L 	c #C53B4A",
"M 	c #B12F3D",
"N 	c #BC3544",
"O 	c #B73443",
"P 	c #C43747",
"Q 	c #C03646",
"R 	c #C73C4C",
"S 	c #C33747",
"T 	c #C53847",
"U 	c #BB3141",
"V 	c #731D27",
"W 	c #601921",
"X 	c #9D2A37",
"Y 	c #B83241",
"Z 	c #CB3C4C",
"` 	c #88232E",
" .	c #AE313F",
"..	c #C43848",
"+.	c #C83B4B",
"@.	c #BD3746",
"#.	c #932633",
"$.	c #701C26",
"%.	c #BB3645",
"&.	c #AA303D",
"*.	c #86222D",
"=.	c #C43949",
"-.	c #B0313F",
";.	c #9B2B38",
">.	c #A82F3D",
",.	c #B63140",
"'.	c #CC3C4C",
").	c #962834",
"!.	c #6E1C25",
"~.	c #BE3444",
"{.	c #8E2330",
"].	c #C13847",
"^.	c #C23848",
"/.	c #B63241",
"(.	c #C63A4A",
"_.	c #AC2E3C",
":.	c #C43A49",
"<.	c #9E2A37",
"[.	c #C73B4B",
"}.	c #C23948",
"|.	c #9F2A38",
"1.	c #B43240",
"2.	c #C73848",
"3.	c #57171E",
"4.	c #A72D3A",
"5.	c #77212B",
"6.	c #B32F3E",
"7.	c #CE3F50",
"8.	c #CE3D4E",
"9.	c #CE3D4D",
"0.	c #CE3C4C",
"a.	c #CB3B4B",
"b.	c #C73A4A",
"c.	c #B93040",
"d.	c #8E2430",
"e.	c #942732",
"f.	c #BF3444",
"g.	c #CC3B4C",
"h.	c #C13645",
"i.	c #80212B",
"j.	c #9D2936",
"k.	c #A42B38",
"l.	c #A52B39",
"m.	c #A62B39",
"n.	c #A72B3A",
"o.	c #A72C3A",
"p.	c #A72C39",
"q.	c #A72B39",
"r.	c #9E2936",
"s.	c #601821",
"t.	c #6B1B25",
"u.	c #6F1C26",
"v.	c #721D27",
"w.	c #741D27",
"x.	c #741E27",
"y.	c #731E27",
"z.	c #711D26",
"                                                                                    ",
"                                                                                    ",
"                                                                                    ",
"                                                                                    ",
"                                . + @ # $ % & * = - ;                               ",
"                            > , ' ) ! ~ { ] ^ / / / ( _                             ",
"                        : < [ } | 1 2 3 4 5 / / / / / / 6 7                         ",
"                        8 9 0 a b / c d e f g c / / / / / h i                       ",
"                    j d k l m / n o p         q r 4 / / / / s t                     ",
"                    u / b b / / v                 w s / / / / x                     ",
"                    y / / / / z                     A / / / / 4                     ",
"                  B n / / / C                         6 / / / n D                   ",
"                  E / / / / F                         G / / / / H                   ",
"                  I / / / J K                         o / / / / L                   ",
"                  M n / / N                           O / / / / P                   ",
"                    Q R S                             T / / / / U                   ",
"                      V W                             4 / / / n X                   ",
"                                                    Y / / / / Z                     ",
"                                                  ` ( / / / /  .                    ",
"                                                  ../ / / / +.                      ",
"                                                @./ / / / 4 #.                      ",
"                                            $.%./ / / / / &.                        ",
"                                          *.=./ / / / / -.                          ",
"                                        ;.5 / / / / 5 >.                            ",
"                                      ,.s / / / / '.).                              ",
"                                  !.~./ / / / / L {.                                ",
"                                  S / / / / / ].                                    ",
"                                ^./ / / / 6 /.                                      ",
"                              (./ / / / s _.                                        ",
"                            :./ / / / c <.                                          ",
"                          [./ / / / s                                               ",
"                        }./ / / / s |.                                              ",
"                      P / / / / / >                                                 ",
"                    1./ / / / / 2.3.                                                ",
"                    6 / / / / / 6 4.5.                                              ",
"                  6./ / / / / / / n 7.8.9.9.9.9.9.9.9.9.0.& a.b.v                   ",
"                  c./ / / / / / / / / / / / / / / / / / / / / / s d.                ",
"                  e.f.g.n n n n n n n n n n n n n n n n n n n 5 h.i.                ",
"                    j.k.l.m.n.o.o.o.o.o.o.o.o.o.o.o.o.o.p.q.m.l.r.                  ",
"                    s.t.u.v.w.x.x.x.x.x.x.x.x.x.x.x.x.x.y.v.z.!.                    ",
"                                                                                    ",
"                                                                                    "};
