/* XPM */
static const char * number_3_xpm[] = {
"42 42 182 2",
"  	c None",
". 	c #882E38",
"+ 	c #B14E58",
"@ 	c #CD6671",
"# 	c #DB737E",
"$ 	c #E37983",
"% 	c #E3727E",
"& 	c #DA5464",
"* 	c #CE4D5C",
"= 	c #B84451",
"- 	c #93333E",
"; 	c #9B3944",
"> 	c #D25160",
", 	c #DF6D79",
"' 	c #EC9FA8",
") 	c #EDA2AB",
"! 	c #EDA4AC",
"~ 	c #EEA5AD",
"{ 	c #EA969F",
"] 	c #DF5A69",
"^ 	c #DE5565",
"/ 	c #DD5464",
"( 	c #D45060",
"_ 	c #A33A46",
": 	c #5F1C23",
"< 	c #C05560",
"[ 	c #E88C96",
"} 	c #E57F8A",
"| 	c #DF5E6D",
"1 	c #E5808B",
"2 	c #E36F7C",
"3 	c #E15F6E",
"4 	c #DF5665",
"5 	c #DF5464",
"6 	c #DF5565",
"7 	c #BC4553",
"8 	c #C74957",
"9 	c #E9939C",
"0 	c #EC9FA7",
"a 	c #E26C79",
"b 	c #D65060",
"c 	c #AE3F4C",
"d 	c #892F39",
"e 	c #7E2B35",
"f 	c #8C303A",
"g 	c #B6424F",
"h 	c #D95262",
"i 	c #BA4452",
"j 	c #E06673",
"k 	c #E0616F",
"l 	c #B5424F",
"m 	c #692029",
"n 	c #C74A59",
"o 	c #872E39",
"p 	c #DB5463",
"q 	c #C44958",
"r 	c #D14F5D",
"s 	c #CF4E5D",
"t 	c #B2414E",
"u 	c #DA5363",
"v 	c #953440",
"w 	c #6B222A",
"x 	c #BF4755",
"y 	c #B3424F",
"z 	c #70242D",
"A 	c #D75261",
"B 	c #822C36",
"C 	c #A93C49",
"D 	c #782730",
"E 	c #631E26",
"F 	c #D55160",
"G 	c #DB5464",
"H 	c #852D37",
"I 	c #B0404D",
"J 	c #9D3743",
"K 	c #69212A",
"L 	c #D65161",
"M 	c #772730",
"N 	c #DB5363",
"O 	c #D75161",
"P 	c #B84351",
"Q 	c #AC3E4B",
"R 	c #A43A46",
"S 	c #B0404C",
"T 	c #D95362",
"U 	c #832C36",
"V 	c #A83C49",
"W 	c #C54A58",
"X 	c #CD4D5C",
"Y 	c #AB3E4A",
"Z 	c #DF5666",
"` 	c #862D37",
" .	c #D14F5E",
"..	c #B3414D",
"+.	c #D4505F",
"@.	c #DC5464",
"#.	c #983541",
"$.	c #91323D",
"%.	c #A43B47",
"&.	c #AF3F4C",
"*.	c #BB4552",
"=.	c #D24F5E",
"-.	c #9E3843",
";.	c #CC4C5B",
">.	c #591A21",
",.	c #7E2A34",
"'.	c #641F27",
").	c #A23A46",
"!.	c #4F141B",
"~.	c #D65160",
"{.	c #973540",
"].	c #58151D",
"^.	c #C44756",
"/.	c #9A3642",
"(.	c #D64D5D",
"_.	c #4E0B13",
":.	c #CD4151",
"<.	c #6E232C",
"[.	c #CC404F",
"}.	c #B02A39",
"|.	c #DE5363",
"1.	c #A83D49",
"2.	c #CE4D5D",
"3.	c #DE5262",
"4.	c #A92736",
"5.	c #DA4556",
"6.	c #D94454",
"7.	c #B72A39",
"8.	c #DC4F5F",
"9.	c #C54957",
"0.	c #762730",
"a.	c #DC4E5E",
"b.	c #B42938",
"c.	c #D03143",
"d.	c #DD5060",
"e.	c #DD5565",
"f.	c #B64350",
"g.	c #CF3041",
"h.	c #851925",
"i.	c #D33445",
"j.	c #DC4C5D",
"k.	c #862E38",
"l.	c #782831",
"m.	c #7E2B34",
"n.	c #9C3743",
"o.	c #C14755",
"p.	c #DB4A5A",
"q.	c #D13243",
"r.	c #801824",
"s.	c #8B1B27",
"t.	c #CF2D3E",
"u.	c #DA4253",
"v.	c #DD5262",
"w.	c #DE5464",
"x.	c #DD5161",
"y.	c #D93F4F",
"z.	c #CC2B3D",
"A.	c #811824",
"B.	c #B92435",
"C.	c #D73345",
"D.	c #DB4959",
"E.	c #DC4D5D",
"F.	c #D93B4C",
"G.	c #D63042",
"H.	c #AF2232",
"I.	c #BC2637",
"J.	c #CC2A3C",
"K.	c #D22C3E",
"L.	c #D52D3F",
"M.	c #D62D40",
"N.	c #D42C3F",
"O.	c #D02B3D",
"P.	c #C9293B",
"Q.	c #B12333",
"R.	c #69141D",
"S.	c #5E111A",
"T.	c #751620",
"U.	c #7F1823",
"V.	c #841925",
"W.	c #821924",
"X.	c #7B1722",
"Y.	c #6D141E",
"                                                                                    ",
"                                                                                    ",
"                                                                                    ",
"                                                                                    ",
"                                . + @ # $ % & * = -                                 ",
"                            ; > , ' ) ! ~ { ] ^ ^ / ( _                             ",
"                        : < [ } | 1 2 3 4 5 6 ^ ^ ^ ^ 6 7                           ",
"                        8 9 0 a / b c d e f g h ^ ^ ^ ^ ^ i                         ",
"                      7 6 j k / l             m n ^ ^ ^ ^ ^ f                       ",
"                    o p ^ ^ ^ q                   r ^ ^ ^ ^ s                       ",
"                    t ^ ^ ^ u                     v / ^ ^ ^ u w                     ",
"                    x ^ ^ ^ y                     z A ^ ^ ^ p B                     ",
"                    C ^ ^ u D                     E F ^ ^ ^ G H                     ",
"                      I n J                       K L ^ ^ ^ u M                     ",
"                                                  B N ^ ^ ^ O                       ",
"                                                  P ^ ^ ^ 6 Q                       ",
"                                                R / ^ ^ ^ *                         ",
"                                              S / ^ ^ ^ T U                         ",
"                                  V g x W X F 6 ^ ^ ^ 6 Y                           ",
"                                q ^ ^ ^ ^ ^ ^ ^ ^ ^ ^ Z `                           ",
"                                 .^ ^ ^ ^ ^ ^ ^ ^ ^ ^ 6 ..                          ",
"                                y h N A ( +.h 6 ^ ^ ^ ^ @.#.                        ",
"                                              $.X ^ ^ ^ ^ G %.                      ",
"                                                  &.@.^ ^ ^ @.$.                    ",
"                                                    *.^ ^ ^ ^ =.                    ",
"                                                      h ^ ^ ^ Z -.                  ",
"                                                      *.^ ^ ^ ^ ;.                  ",
"                    >.,.'.                            ).^ ^ ^ ^ A !.                ",
"                    =.u ~.                            {.^ ^ ^ ^ A ].                ",
"                  ^.^ ^ 6 i                           /.^ ^ ^ ^ (._.                ",
"                  :.^ ^ ^ A <.                        c ^ ^ ^ ^ [.                  ",
"                  }.|.^ ^ ^ 1.                        2.^ ^ ^ 3.4.                  ",
"                    5.^ ^ ^ T                         ^ ^ ^ ^ 6.                    ",
"                    7.8.^ ^ ^ 9.                  0.O ^ ^ ^ a.b.                    ",
"                      c.d.^ ^ e.f.                ~.^ ^ ^ 8.g.                      ",
"                      h.i.j.^ ^ 6 * 1.k.l.m.n.o.@.^ ^ ^ p.q.r.                      ",
"                        s.t.u.v.^ ^ ^ @.@.@.e.^ ^ w.x.y.z.A.                        ",
"                            B.C.y.D.d.w.^ w.v.E.5.F.G.H.                            ",
"                              r.I.J.K.L.M.M.N.O.P.Q.R.                              ",
"                                  S.T.U.V.W.X.Y.                                    ",
"                                                                                    ",
"                                                                                    "};
