/* XPM */
static const char *number_3_xpm[] = {
"64 64 273 2",
"  	c None",
". 	c #350A0F",
"+ 	c #340A0F",
"@ 	c #440F15",
"# 	c #832B35",
"$ 	c #A83C48",
"% 	c #C04654",
"& 	c #CE4D5C",
"* 	c #D6505F",
"= 	c #DD5262",
"- 	c #DE5464",
"; 	c #DC5161",
"> 	c #D34F5F",
", 	c #C94A59",
"' 	c #B4414F",
") 	c #97343F",
"! 	c #5E1A22",
"~ 	c #74242D",
"{ 	c #B5424F",
"] 	c #D95262",
"^ 	c #E26F7B",
"/ 	c #E6858F",
"( 	c #E9939C",
"_ 	c #EB9CA5",
": 	c #EDA2AA",
"< 	c #EEA6AE",
"[ 	c #EDA4AC",
"} 	c #E16B77",
"| 	c #DE5565",
"1 	c #C54857",
"2 	c #8B2E39",
"3 	c #370A10",
"4 	c #692028",
"5 	c #E5808B",
"6 	c #EEA7AF",
"7 	c #72232C",
"8 	c #9D3642",
"9 	c #DC5A69",
"0 	c #E2727E",
"a 	c #EB99A2",
"b 	c #E78A94",
"c 	c #E47984",
"d 	c #E16A77",
"e 	c #DF5E6D",
"f 	c #DE5766",
"g 	c #DC5363",
"h 	c #98343F",
"i 	c #3B0B10",
"j 	c #B3404D",
"k 	c #EC9FA8",
"l 	c #EA98A1",
"m 	c #A03844",
"n 	c #B3414E",
"o 	c #EB9AA3",
"p 	c #E16775",
"q 	c #C24756",
"r 	c #9D3743",
"s 	c #7C2831",
"t 	c #6B222A",
"u 	c #68212A",
"v 	c #74252E",
"w 	c #94323D",
"x 	c #BB4451",
"y 	c #DB5363",
"z 	c #8B2F39",
"A 	c #9E3642",
"B 	c #E6838D",
"C 	c #DE5868",
"D 	c #CA4B59",
"E 	c #71232C",
"F 	c #621C23",
"G 	c #D75161",
"H 	c #54161D",
"I 	c #671E26",
"J 	c #C24755",
"K 	c #441015",
"L 	c #3D0B11",
"M 	c #B84250",
"N 	c #AC3D4A",
"O 	c #B94351",
"P 	c #50141B",
"Q 	c #400E14",
"R 	c #410C12",
"S 	c #51141B",
"T 	c #DC5463",
"U 	c #8C2E39",
"V 	c #77252F",
"W 	c #7E2932",
"X 	c #862B36",
"Y 	c #360A0F",
"Z 	c #A13945",
"` 	c #973641",
" .	c #8C2F3A",
"..	c #AA3C49",
"+.	c #B03F4C",
"@.	c #812933",
"#.	c #CF4D5C",
"$.	c #3A0B10",
"%.	c #983641",
"&.	c #3E0B11",
"*.	c #CC4B5A",
"=.	c #8F303B",
"-.	c #95323E",
";.	c #B13F4C",
">.	c #57161E",
",.	c #BA4451",
"'.	c #D4505F",
").	c #A93B48",
"!.	c #9E3844",
"~.	c #A33A46",
"{.	c #B4414E",
"].	c #852C36",
"^.	c #D44F5F",
"/.	c #DA5262",
"(.	c #4A1118",
"_.	c #91313C",
":.	c #5C1A21",
"<.	c #D55060",
"[.	c #601C23",
"}.	c #CE4C5B",
"|.	c #9A3440",
"1.	c #842B35",
"2.	c #D65160",
"3.	c #B8424F",
"4.	c #611A22",
"5.	c #792730",
"6.	c #95333E",
"7.	c #A93C49",
"8.	c #CB4B5A",
"9.	c #D95060",
"0.	c #91323D",
"a.	c #7B2630",
"b.	c #DC5464",
"c.	c #70222B",
"d.	c #B1414E",
"e.	c #B2414E",
"f.	c #BD4552",
"g.	c #A23844",
"h.	c #8E2F3A",
"i.	c #C44857",
"j.	c #D04D5C",
"k.	c #CC4C5A",
"l.	c #C44856",
"m.	c #B74351",
"n.	c #B03E4B",
"o.	c #B84351",
"p.	c #50131A",
"q.	c #993440",
"r.	c #D14E5E",
"s.	c #370A0F",
"t.	c #451016",
"u.	c #B23F4C",
"v.	c #A83B48",
"w.	c #DD5464",
"x.	c #7E2933",
"y.	c #C14755",
"z.	c #CD4C5B",
"A.	c #671D26",
"B.	c #8A2E38",
"C.	c #BE4553",
"D.	c #BD4553",
"E.	c #94333E",
"F.	c #D85161",
"G.	c #380A10",
"H.	c #6C2028",
"I.	c #661D25",
"J.	c #52161C",
"K.	c #A33945",
"L.	c #BB4452",
"M.	c #6E222A",
"N.	c #420C12",
"O.	c #7A2630",
"P.	c #641D25",
"Q.	c #D34F5E",
"R.	c #57181F",
"S.	c #7C232D",
"T.	c #AB3D4A",
"U.	c #DE5363",
"V.	c #751721",
"W.	c #D74E5D",
"X.	c #D85261",
"Y.	c #52121A",
"Z.	c #DC4C5D",
"`.	c #63121B",
" +	c #D74353",
".+	c #7C2731",
"++	c #D54151",
"@+	c #390B10",
"#+	c #C42F3F",
"$+	c #420E14",
"%+	c #BD2B3B",
"&+	c #A01F2E",
"*+	c #DB495A",
"=+	c #9B3641",
"-+	c #410D13",
";+	c #DB4758",
">+	c #961D2B",
",+	c #5D111A",
"'+	c #D63345",
")+	c #D43143",
"!+	c #530F16",
"~+	c #B22333",
"{+	c #D94152",
"]+	c #B7424F",
"^+	c #6B2029",
"/+	c #D93F50",
"(+	c #AB2231",
"_+	c #5F111A",
":+	c #D22B3E",
"<+	c #DB4A5A",
"[+	c #5D1B22",
"}+	c #D04E5E",
"|+	c #DB4858",
"1+	c #D12B3D",
"2+	c #561017",
"3+	c #961D2A",
"4+	c #D62E41",
"5+	c #DC4D5D",
"6+	c #93323D",
"7+	c #78262F",
"8+	c #DB4A5B",
"9+	c #D62D40",
"0+	c #8E1B28",
"a+	c #B32434",
"b+	c #D62F41",
"c+	c #DC4C5C",
"d+	c #681D26",
"e+	c #AD2232",
"f+	c #430C12",
"g+	c #BD2637",
"h+	c #DA4455",
"i+	c #C84A59",
"j+	c #AC3E4B",
"k+	c #9B3742",
"l+	c #963540",
"m+	c #9A3742",
"n+	c #D62C3F",
"o+	c #B52434",
"p+	c #460D13",
"q+	c #B92536",
"r+	c #D83748",
"s+	c #DC4D5E",
"t+	c #DB4959",
"u+	c #D73244",
"v+	c #AC2231",
"w+	c #A1202E",
"x+	c #D42C3E",
"y+	c #D83B4C",
"z+	c #DB4656",
"A+	c #D73446",
"B+	c #6F151F",
"C+	c #BF2637",
"D+	c #DC4E5E",
"E+	c #DD4F5F",
"F+	c #DA4354",
"G+	c #D8384A",
"H+	c #D42C3F",
"I+	c #AF2332",
"J+	c #581018",
"K+	c #7F1823",
"L+	c #BA2536",
"M+	c #D52C3F",
"N+	c #CD2A3C",
"O+	c #A72130",
"P+	c #60121A",
"Q+	c #561018",
"R+	c #8F1C28",
"S+	c #C12738",
"T+	c #CB293B",
"U+	c #D32B3E",
"V+	c #C42839",
"W+	c #9D1F2D",
"X+	c #741620",
"                                                                                                                                ",
"                                                                                                                                ",
"                                                                                                                                ",
"                                                                                                                                ",
"                                                                                                                                ",
"                                                    . . . . . + + + . . . . .                                                   ",
"                                              . . @ # $ % & * = - ; > , ' ) ! . .                                               ",
"                                          . . ~ { ] ^ / ( _ : < [ } | | | | - 1 2 3 .                                           ",
"                                        . 4 % | | 5 6 6 6 6 6 6 [ } | | | | | | | , 7 .                                         ",
"                                    . . 8 9 / 0 | ^ a b c d e f | | | | | | | | | | g h .                                       ",
"                                  . i j } k 6 l | | | | | | | | | | | | | | | | | | | | m .                                     ",
"                                  . n | a 6 o p | | - q r s t u v w x y | | | | | | | | - z .                                   ",
"                                . A | | 0 B C | | D E . . . . . . . . F q | | | | | | | | G H .                                 ",
"                              . I y | | | | | | J K .                 . L M | | | | | | | | N .                                 ",
"                              . O | | | | | | > P .                     . Q D | | | | | | | G R                                 ",
"                            . S T | | | | | | U .                         . V | | | | | | | | W .                               ",
"                            . X | | | | | | D Y                             . , | | | | | | | Z .                               ",
"                            . ` | | | | | |  ..                             . ..| | | | | | | +..                               ",
"                            . @.| | | | | #.$.                              . %.| | | | | | | { .                               ",
"                              &.*.| | | | =..                               . -.| | | | | | | ;..                               ",
"                              . >.,.'.& ).Y                                 . !.| | | | | | | ~..                               ",
"                                . . . . . .                                 . {.| | | | | | | ]..                               ",
"                                                                            i ^.| | | | | | /.(.                                ",
"                                                                          . _.| | | | | | | ' .                                 ",
"                                                                        . :.<.| | | | | | ] ! .                                 ",
"                                                                      . [.}.| | | | | | | |..                                   ",
"                                                          . . . . . . 1.2.| | | | | | | 3..                                     ",
"                                                  . . . + L 4.5.6.7.J - | | | | | | | 8.Q .                                     ",
"                                                . ].1 #.9.| | | | | | | | | | | | | | 0..                                       ",
"                                              . a.b.| | | | | | | | | | | | | | | | | c..                                       ",
"                                              . d.| | | | | | | | | | | | | | | | | | 1..                                       ",
"                                              . e.| | | | | | | | | | | | | | | | | | f..                                       ",
"                                              . ].| | | | | | | | | | | | | | | | | | | g.. .                                   ",
"                                                . h.i.j.k.l.m.;.n.o.8.T | | | | | | | | | {.$..                                 ",
"                                                  . . . . . . . . . . p.q.r.| | | | | | | | { s.                                ",
"                                                                      . . t.u.| | | | | | | | v..                               ",
"                                                                          . . ).| | | | | | | w.x..                             ",
"                                                                              Y y.| | | | | | | z.$.                            ",
"                                                                              . A.b.| | | | | | | B..                           ",
"                                                                                . C.| | | | | | | D..                           ",
"                                                                                . E.| | | | | | | F.G.                          ",
"                              . . . . .                                         . H.| | | | | | | | I..                         ",
"                            . J.K.L.n M..                                       . N.| | | | | | | | O..                         ",
"                          . P.Q.| | | /.R..                                       + ; | | | | | | | S..                         ",
"                          . C.| | | | | T..                                       + = | | | | | | U.V..                         ",
"                          . W.| | | | | X.p..                                   . Y.| | | | | | | Z.`..                         ",
"                          +  +| | | | | | Z .                                   . .+| | | | | | | ++@+                          ",
"                          . #+| | | | | | ^.$+                                  . 7.| | | | | | - %+.                           ",
"                          . &+*+| | | | | | =+.                                 -+^.| | | | | | ;+>+.                           ",
"                          . ,+'+- | | | | | 2.S .                             . A | | | | | | U.)+!+.                           ",
"                            . ~+{+| | | | | | ]+.                           . ^+/.| | | | | | /+(+.                             ",
"                            . _+:+<+| | | | | | 6..                       . [+}+| | | | | | |+1+2+.                             ",
"                              . 3+4+5+| | | | | b.6+. .               . . 7+Q.| | | | | | 8+9+0+.                               ",
"                                Y a+b+c+| | | | | | O d+. . . . . . . I.{.w.| | | | | | |+9+e+.                                 ",
"                                . f+g+9+h+- | | | | | - i+j+k+l+m+j+, - | | | | | | U./+n+o+L .                                 ",
"                                  . p+q+n+r+s+| | | | | | | | | | | | | | | | | | t+u+n+v+L .                                   ",
"                                    . i w+x+n+y+c+| | | | | | | | | | | | | = z+A+n+1+0+. .                                     ",
"                                        . B+C+n+n+u+/+|+D+= - | - = E+<+F+G+9+n+H+I+J+.                                         ",
"                                          . . K+L+M+n+n+n+n+n+n+n+n+n+n+n+n+N+O+P+. .                                           ",
"                                              . . Q+R+e+S+T+:+n+U+N+V+o+W+X+$.. .                                               ",
"                                                  . . . . . + + + . . . . .                                                     ",
"                                                                                                                                ",
"                                                                                                                                ",
"                                                                                                                                "};
