/* XPM */
static const char * number_3_xpm[] = {
"32 32 2 1",
" 	c None",
".	c #FFFFFF",
"                                ",
"                                ",
"               ..               ",
"           .   ... ..           ",
"           ..........           ",
"          .... . .....          ",
"        .....      ....         ",
"        ....        ...         ",
"       ....         ...         ",
"        ..         .....        ",
"                    ...         ",
"                   ....         ",
"                    ...         ",
"              .    ..           ",
"              ........          ",
"             ........           ",
"                  ....          ",
"                    ...         ",
"                    ....        ",
"                     ...        ",
"                     .....      ",
"       ..           .....       ",
"        ...         .....       ",
"       ....         ....        ",
"       ....          ....       ",
"       ....         ....        ",
"         ...      ......        ",
"         ......  .....          ",
"           ..........           ",
"           .  .....             ",
"               ..               ",
"                                "};
