/* XPM */
static const char * number_4_xpm[] = {
"42 42 142 2",
"  	c None",
". 	c #320A11",
"+ 	c #3B0C14",
"@ 	c #641A27",
"# 	c #CB3E57",
"$ 	c #DB445F",
"% 	c #D1405A",
"& 	c #7F2334",
"* 	c #51121D",
"= 	c #CF3F59",
"- 	c #CD3F58",
"; 	c #340A11",
"> 	c #BE3951",
", 	c #53131E",
"' 	c #A22F44",
") 	c #7A2131",
"! 	c #7C2232",
"~ 	c #DB445E",
"{ 	c #942A3D",
"] 	c #571520",
"^ 	c #D65B6F",
"/ 	c #E88C9D",
"( 	c #DC4D66",
"_ 	c #992D40",
": 	c #350B12",
"< 	c #C13A52",
"[ 	c #E78999",
"} 	c #E47C8E",
"| 	c #9E2D42",
"1 	c #DF5F74",
"2 	c #DC4963",
"3 	c #9F2D42",
"4 	c #7D2232",
"5 	c #E16D80",
"6 	c #E37688",
"7 	c #D9425D",
"8 	c #55141F",
"9 	c #D65C71",
"0 	c #E98F9F",
"a 	c #E1697D",
"b 	c #92293C",
"c 	c #B4354C",
"d 	c #340A12",
"e 	c #C1465B",
"f 	c #E88B9B",
"g 	c #E47B8D",
"h 	c #A93147",
"i 	c #872436",
"j 	c #A33045",
"k 	c #E68193",
"l 	c #E78798",
"m 	c #C63C55",
"n 	c #3D0C14",
"o 	c #802132",
"p 	c #7B2131",
"q 	c #E17184",
"r 	c #E88E9E",
"s 	c #DD566D",
"t 	c #D6425C",
"u 	c #611825",
"v 	c #54131F",
"w 	c #E16C80",
"x 	c #E06479",
"y 	c #892638",
"z 	c #330A11",
"A 	c #BF3951",
"B 	c #AE3349",
"C 	c #A02E43",
"D 	c #CA3D56",
"E 	c #420E17",
"F 	c #7A2130",
"G 	c #DA435E",
"H 	c #D7425D",
"I 	c #671A27",
"J 	c #51131E",
"K 	c #8F283B",
"L 	c #B5354C",
"M 	c #A02E42",
"N 	c #CC3E57",
"O 	c #461019",
"P 	c #812232",
"Q 	c #782130",
"R 	c #802333",
"S 	c #A83045",
"T 	c #D0405A",
"U 	c #5D1421",
"V 	c #3D0C15",
"W 	c #C83D56",
"X 	c #B3364C",
"Y 	c #B5364C",
"Z 	c #B4364C",
"` 	c #300A11",
" .	c #310A11",
"..	c #6E1D2B",
"+.	c #BF3A51",
"@.	c #4D121C",
"#.	c #4F111C",
"$.	c #DB435E",
"%.	c #D8435D",
"&.	c #CE3E58",
"*.	c #BD3951",
"=.	c #621926",
"-.	c #4F0F1A",
";.	c #B0344A",
">.	c #C23A52",
",.	c #B3354C",
"'.	c #5B1521",
").	c #C03A52",
"!.	c #D7425C",
"~.	c #711D2C",
"{.	c #360A12",
"].	c #5D1623",
"^.	c #681826",
"/.	c #6A1826",
"(.	c #6D1A29",
"_.	c #872637",
":.	c #D8435E",
"<.	c #862536",
"[.	c #5B1622",
"}.	c #3F0C15",
"|.	c #420D16",
"1.	c #C73C55",
"2.	c #BA384F",
"3.	c #90283B",
"4.	c #A73045",
"5.	c #7D2131",
"6.	c #9C2D41",
"7.	c #74202E",
"8.	c #972C3F",
"9.	c #6C1827",
"0.	c #93273A",
"a.	c #D13550",
"b.	c #D53A55",
"c.	c #7B1628",
"d.	c #B1223B",
"e.	c #CA2744",
"f.	c #BF2540",
"g.	c #510F1A",
"h.	c #360B12",
"i.	c #7A1628",
"j.	c #82182A",
"k.	c #470D17",
"                                                                                    ",
"                                                                                    ",
"                                                                                    ",
"                                                  . + .                             ",
"                                                @ # $ % &                           ",
"                                              * = $ $ $ - .                         ",
"                                            ; > $ $ $ $ $ ,                         ",
"                                            ' $ $ $ $ $ $ )                         ",
"                                          ! ~ $ $ $ $ $ $ {                         ",
"                                        ] ^ / ( $ $ $ $ $ _                         ",
"                                      : < [ } $ $ $ $ $ $ |                         ",
"                                      ' $ 1 2 $ $ $ $ $ $ 3                         ",
"                                    4 5 6 $ $ 7 $ $ $ $ $ 3                         ",
"                                  8 9 0 a $ b . c $ $ $ $ 3                         ",
"                                d e f g $ h     i $ $ $ $ 3                         ",
"                                j k l 2 m n     o $ $ $ $ 3                         ",
"                              p q r s t u       o $ $ $ $ 3                         ",
"                            v % w x $ y         o $ $ $ $ 3                         ",
"                          z A $ $ $ B           o $ $ $ $ 3                         ",
"                          C $ $ $ D E           o $ $ $ $ 3                         ",
"                        F G $ $ H I             o $ $ $ $ 3                         ",
"                      J % $ $ $ K               o $ $ $ $ 3                         ",
"                    z > $ $ $ L                 o $ $ $ $ 3                         ",
"                    M $ $ $ N O                 P $ $ $ $ 3                         ",
"                  Q G $ $ $ R                   { $ $ $ $ S                         ",
"                * T $ $ $ $ U                 V W $ $ $ $ X                         ",
"                Y $ $ $ $ $ Z J ` ` ` ` `  ...+.$ $ $ $ $ % @.. . .                 ",
"              #.$ $ $ $ $ $ $ $ G G G G G $.$ $ $ $ $ $ $ $ $ %.&.*.=.              ",
"              -.$ $ $ $ $ $ $ $ $ $ $ $ $ $ $ $ $ $ $ $ $ $ $ $ $ $ ;.              ",
"              . >.$ $ $ $ $ $ $ $ $ $ $ $ $ $ $ $ $ $ $ $ $ $ $ $ $ ,.              ",
"                '.).!.$ $ $ $ $ $ $ $ $ $ $ $ $ $ $ $ $ $ $ $ $ $ % ~.              ",
"                  . . {.#.].^././././././.(._.m $ $ $ $ $ :.<.[.}. .                ",
"                                              |.1.$ $ $ $ 2.                        ",
"                                                3.$ $ $ $ 4.                        ",
"                                                5.$ $ $ $ 6.                        ",
"                                                7.$ $ $ $ 8.                        ",
"                                                9.$ $ $ $ 0.                        ",
"                                                -.a.$.$ b.c.                        ",
"                                                ; d.e.e.f.g.                        ",
"                                                  h.i.j.k.                          ",
"                                                                                    ",
"                                                                                    "};
