/* XPM */
static const char * number_4_xpm[] = {
"32 32 2 1",
" 	c None",
".	c #FFFFFF",
"                                ",
"                                ",
"                                ",
"                   ...          ",
"                  .....         ",
"                 ......         ",
"                .......         ",
"               ........         ",
"               ........         ",
"              .........         ",
"             ..........         ",
"            ..... .....         ",
"            ....  .....         ",
"           ....   .....         ",
"          ....    .....         ",
"         .....    .....         ",
"         ....     .....         ",
"        ....      .....         ",
"       ....       .....         ",
"      .....       .....         ",
"      ....................      ",
"      .....................     ",
"      .....................     ",
"       ...................      ",
"                  .....         ",
"                  .....         ",
"                  .....         ",
"                  .....         ",
"                  .....         ",
"                   ...          ",
"                                ",
"                                "};