/* XPM */
static char * numero_5_xpm[] = {
"64 64 264 2",
"  	c None",
". 	c #37070F",
"+ 	c #36070F",
"@ 	c #470B15",
"# 	c #B13246",
"$ 	c #C4394E",
"% 	c #CF3E55",
"& 	c #D64057",
"* 	c #DA425A",
"= 	c #E0435B",
"- 	c #E86174",
"; 	c #EA6E7F",
"> 	c #E8576C",
", 	c #E64760",
"' 	c #E96376",
") 	c #EA6E80",
"! 	c #E86C7D",
"~ 	c #E06B7B",
"{ 	c #D86979",
"] 	c #CA5A6A",
"^ 	c #B43348",
"/ 	c #9E2A3C",
"( 	c #771C2A",
"_ 	c #3D0710",
": 	c #440B14",
"< 	c #C73B51",
"[ 	c #E7556B",
"} 	c #F29CA9",
"| 	c #EF8E9C",
"1 	c #E7546A",
"2 	c #D13E55",
"3 	c #460B15",
"4 	c #932637",
"5 	c #E64861",
"6 	c #EC7C8C",
"7 	c #EE8594",
"8 	c #EA6C7E",
"9 	c #902637",
"0 	c #B73549",
"a 	c #A22D3F",
"b 	c #D43F56",
"c 	c #8B2434",
"d 	c #510D18",
"e 	c #E5465F",
"f 	c #CB3B51",
"g 	c #842030",
"h 	c #E6465F",
"i 	c #DC425A",
"j 	c #D9425A",
"k 	c #D84158",
"l 	c #CF3F55",
"m 	c #C93950",
"n 	c #BD374C",
"o 	c #AB3043",
"p 	c #A83042",
"q 	c #DD435B",
"r 	c #A02C3E",
"s 	c #570F1A",
"t 	c #C2384E",
"u 	c #D23F56",
"v 	c #5C121E",
"w 	c #D64058",
"x 	c #DF435C",
"y 	c #5E131F",
"z 	c #4A0913",
"A 	c #A72E41",
"B 	c #771D2B",
"C 	c #6B1724",
"D 	c #9B293B",
"E 	c #E1445C",
"F 	c #39070F",
"G 	c #B33347",
"H 	c #D03D54",
"I 	c #CA3B52",
"J 	c #B9354A",
"K 	c #A32D3F",
"L 	c #59101B",
"M 	c #862332",
"N 	c #82202F",
"O 	c #8C2535",
"P 	c #BE374C",
"Q 	c #56101B",
"R 	c #8F2535",
"S 	c #AE3145",
"T 	c #BF384D",
"U 	c #C8394F",
"V 	c #B8354A",
"W 	c #A62F41",
"X 	c #801F2F",
"Y 	c #430811",
"Z 	c #B23246",
"` 	c #6E1825",
" .	c #6B1523",
"..	c #9A2A3B",
"+.	c #CB3C52",
"@.	c #E0445C",
"#.	c #BA364A",
"$.	c #731B28",
"%.	c #C1384E",
"&.	c #621420",
"*.	c #38070F",
"=.	c #E0445D",
"-.	c #942738",
";.	c #671522",
">.	c #AE3043",
",.	c #8C2334",
"'.	c #DB425A",
").	c #CE3F55",
"!.	c #E4455E",
"~.	c #B13044",
"{.	c #D94159",
"].	c #9D2A3C",
"^.	c #5A111D",
"/.	c #4B0B16",
"(.	c #8D2535",
"_.	c #C73A50",
":.	c #BF374C",
"<.	c #490C16",
"[.	c #832130",
"}.	c #DA4159",
"|.	c #E2455E",
"1.	c #6B1926",
"2.	c #842130",
"3.	c #5B111D",
"4.	c #D33F56",
"5.	c #CA3B51",
"6.	c #7D1E2D",
"7.	c #E4465F",
"8.	c #58111C",
"9.	c #601320",
"0.	c #852030",
"a.	c #8E2535",
"b.	c #DE435C",
"c.	c #9A293A",
"d.	c #902536",
"e.	c #C63A50",
"f.	c #4B0C16",
"g.	c #822130",
"h.	c #7F202F",
"i.	c #420811",
"j.	c #CE3D53",
"k.	c #5D121E",
"l.	c #932738",
"m.	c #9B2A3C",
"n.	c #BC364B",
"o.	c #CE3C53",
"p.	c #D23E55",
"q.	c #AA2F42",
"r.	c #E5435C",
"s.	c #A12D3F",
"t.	c #E4425B",
"u.	c #DF3E57",
"v.	c #A92F42",
"w.	c #D6374F",
"x.	c #A72D40",
"y.	c #DD425B",
"z.	c #8A2333",
"A.	c #B63448",
"B.	c #C82C43",
"C.	c #A32C3E",
"D.	c #852131",
"E.	c #CC3C52",
"F.	c #AF1A31",
"G.	c #DB4058",
"H.	c #D74058",
"I.	c #3E0710",
"J.	c #450913",
"K.	c #E1455D",
"L.	c #E43D56",
"M.	c #8C1124",
"N.	c #E03952",
"O.	c #942839",
"P.	c #8C2434",
"Q.	c #DE2C47",
"R.	c #500915",
"S.	c #D02841",
"T.	c #430A13",
"U.	c #E54059",
"V.	c #BE1932",
"W.	c #B0172E",
"X.	c #E43F59",
"Y.	c #AC3043",
"Z.	c #7B1D2C",
"`.	c #E12A45",
" +	c #800F21",
".+	c #760E1E",
"++	c #E12B46",
"@+	c #450B15",
"#+	c #E33851",
"$+	c #C71A35",
"%+	c #C51A35",
"&+	c #E33952",
"*+	c #7C1D2C",
"=+	c #3B0710",
"-+	c #E43F58",
";+	c #DE1F3C",
">+	c #750E1E",
",+	c #7B0F20",
"'+	c #DF1F3D",
")+	c #E43E57",
"!+	c #E2455D",
"~+	c #490B15",
"{+	c #C0374D",
"]+	c #E5405A",
"^+	c #DF213E",
"/+	c #AA162D",
"(+	c #DF203E",
"_+	c #C4394F",
":+	c #711A28",
"<+	c #C31A34",
"[+	c #3F0811",
"}+	c #400811",
"|+	c #C11933",
"1+	c #DF1E3C",
"2+	c #E3364F",
"3+	c #CF3D54",
"4+	c #AC3044",
"5+	c #912536",
"6+	c #7F2130",
"7+	c #802130",
"8+	c #962839",
"9+	c #B23347",
"0+	c #E33650",
"a+	c #DF1F3C",
"b+	c #C91B36",
"c+	c #4D0914",
"d+	c #450812",
"e+	c #BD1932",
"f+	c #E02944",
"g+	c #E02843",
"h+	c #4B0913",
"i+	c #3A0710",
"j+	c #A3152B",
"k+	c #DD1E3B",
"l+	c #E12E48",
"m+	c #E6455F",
"n+	c #E43B55",
"o+	c #A4152B",
"p+	c #3C0710",
"q+	c #700D1D",
"r+	c #E0223F",
"s+	c #E12F49",
"t+	c #E5425B",
"u+	c #E6445D",
"v+	c #E6455E",
"w+	c #E33751",
"x+	c #E12D48",
"y+	c #6C0D1C",
"z+	c #851022",
"A+	c #BF1933",
"B+	c #DC1E3B",
"C+	c #DA1D3B",
"D+	c #B81831",
"E+	c #770E1E",
"F+	c #8A1124",
"G+	c #AB162D",
"H+	c #CE1B37",
"I+	c #D51D39",
"J+	c #DD1E3C",
"K+	c #D71D3A",
"L+	c #CF1B37",
"M+	c #A9152C",
"N+	c #841022",
"O+	c #470812",
"                                                                                                                                ",
"                                                                                                                                ",
"                                                                                                                                ",
"                                                                                                                                ",
"                                                        . . . . . . . . . . . . .                                               ",
"                                        . . . . . . + + + + + + + + + + + + + + + + . . . . . .                                 ",
"                                      . @ # $ % & * = - ; ; > , , ' ) ) ) ) ) ) ; ! ~ { ] ^ / ( _ .                             ",
"                                    . : < , , , , , [ } } } | , [ } } } } } } } } } } } } 1 , , 2 3                             ",
"                                    . 4 , , , , , , 5 6 7 7 8 , 5 6 7 7 7 7 7 7 7 7 7 7 6 5 , , , 9 .                           ",
"                                    . 0 , , , , , , , , , , , , , , , , , , , , , , , , , , , , , a .                           ",
"                                    . b , , , , , , , , , , , , , , , , , , , , , , , , , , , , , c .                           ",
"                                  . d e , , , , , , , , , , , , , , , , , , , , , , , , , , , , f _                             ",
"                                  . g , , , , , , , , , , h i * * * * * * * * * * j k b l m n o 3 .                             ",
"                                  . p , , , , , , , , q r s . . . . . . . . . . . . . . . . . . .                               ",
"                                  . t , , , , , , , u v . .                                                                     ",
"                                  . w , , , , , , x y .                                                                         ",
"                                . z e , , , , , , A .                                                                           ",
"                                . B , , , , , , , C .                                                                           ",
"                                . D , , , , , , E F                                                                             ",
"                                . G , , , , , , H .                                                                             ",
"                                . I , , , , , , J .                                                                             ",
"                                . i , , , , , , K .                                                                             ",
"                              . L , , , , , , , M .                                                                             ",
"                              . N , , , , , , , O .         . . . . . . . . .                                                   ",
"                              . K , , , , , , , P . . . . . Q R S T U t V W X Y . .                                             ",
"                              . J , , , , , , , , Z `  ...+.e , , , , , , , , @.#.$.. .                                         ",
"                              . H , , , , , , , , , , , , , , , , , , , , , , , , h %.&..                                       ",
"                              *.@., , , , , , , , , , , , , , , , , , , , , , , , , , =.-..                                     ",
"                            . ;., , , , , , , , , , , , , , , , , , , , , , , , , , , , , >..                                   ",
"                            . ,., , , , , , , , , , , , , '.u ).l & !., , , , , , , , , , , ~..                                 ",
"                            . p , , , , , , , , , , {.].^.. . . . . /.(._., , , , , , , , , , D .                               ",
"                            . :., , , , , , , , e G <.. .             . . [.}., , , , , , , , |.1..                             ",
"                            . n , , , , , , , '.2.. .                     . 3.4., , , , , , , , 5..                             ",
"                            . 6.7., , , , , _.8..                           . 9.q , , , , , , , , 0..                           ",
"                              . a.b., , '.c.*..                               . d., , , , , , , , e..                           ",
"                                . f.g.h.i..                                     . j., , , , , , , e k..                         ",
"                                    . .                                         . l., , , , , , , , m..                         ",
"                                                                                  f.|., , , , , , , n..                         ",
"                                                                                  . o., , , , , , , p..                         ",
"                                                                                  . 0 , , , , , , , i .                         ",
"                                                                                  . q., , , , , , , r.+                         ",
"                                                                                  . s., , , , , , , t.+                         ",
"                                  .                                               . s., , , , , , , u.+                         ",
"                              . . F . .                                           . v., , , , , , , w..                         ",
"                            . x.y.h 4.z..                                         . A., , , , , , , B..                         ",
"                          . C., , , , 7.D..                                       . E., , , , , , h F..                         ",
"                          . G., , , , , H.I.                                      J.K., , , , , , L.M..                         ",
"                          + N., , , , , , O..                                   . P., , , , , , , Q.R..                         ",
"                          . S., , , , , , H.T.                                  . e., , , , , , U.V..                           ",
"                          . W.X., , , , , , Y..                               . Z.h , , , , , , `. +.                           ",
"                          . .+++, , , , , , 7.D..                           . @+4., , , , , , #+$+.                             ",
"                            . %+&+, , , , , , E *+.                       . =+P , , , , , , -+;+>+.                             ",
"                            . ,+'+)+, , , , , , !+-.. .                 . ~+{+, , , , , , ]+^+/+.                               ",
"                              . W.(+L., , , , , , , _+:+. . . . . . . *.c H., , , , , , )+^+<+[+                                ",
"                              . }+|+1+2+h , , , , , , , 3+4+5+6+7+8+9+H., , , , , , h 0+a+b+c+.                                 ",
"                                . d+e+1+f+U., , , , , , , , , , , , , , , , , , , )+g+1+|+h+.                                   ",
"                                  . i+j+k+1+l+)+h , , , , , , , , , , , , , m+n+`.1+k+o+p+.                                     ",
"                                      . q+$+1+1+r+s+#+)+t+u+h , h v+t+)+w+x+(+1+1+|+y+.                                         ",
"                                        . . z+A+B+1+1+1+1+1+1+1+1+1+1+1+1+1+C+D+E+. .                                           ",
"                                            . . R.F+G+|+H+I+B+1+J+K+L+|+M+N+O+. .                                               ",
"                                                . . . . . . + + + . . . . .                                                     ",
"                                                                                                                                ",
"                                                                                                                                ",
"                                                                                                                                "};
