/* XPM */
static char * 6_xpm[] = {
"42 42 206 2",
"  	c None",
". 	c #76222C",
"+ 	c #A13D48",
"@ 	c #C25963",
"# 	c #D46772",
"$ 	c #DE6E79",
"% 	c #E06C78",
"& 	c #D64B5B",
"* 	c #CB4655",
"= 	c #B43D4B",
"- 	c #8D2E39",
"; 	c #591920",
"> 	c #C14956",
", 	c #DD7984",
"' 	c #E8919B",
") 	c #E9959E",
"! 	c #E997A0",
"~ 	c #E998A1",
"{ 	c #DA4E5E",
"] 	c #DA4D5D",
"^ 	c #D94C5C",
"/ 	c #CE4857",
"( 	c #8E2D38",
"_ 	c #D5515F",
": 	c #E78D96",
"< 	c #E8939C",
"[ 	c #E3808A",
"} 	c #DF6B77",
"| 	c #DD5A68",
"1 	c #DC4F5F",
"2 	c #DB4C5C",
"3 	c #DB4D5E",
"4 	c #B33D4A",
"5 	c #DB636F",
"6 	c #DA5060",
"7 	c #DD5F6D",
"8 	c #DB5665",
"9 	c #D34A5A",
"0 	c #AF3B48",
"a 	c #842A34",
"b 	c #7C2731",
"c 	c #99323D",
"d 	c #C94555",
"e 	c #B63E4C",
"f 	c #7E2630",
"g 	c #DE717D",
"h 	c #EA98A1",
"i 	c #DD606D",
"j 	c #DA4C5D",
"k 	c #D84C5C",
"l 	c #B13C49",
"m 	c #99323E",
"n 	c #8A2C37",
"o 	c #C64251",
"p 	c #E68B94",
"q 	c #E27984",
"r 	c #BD414F",
"s 	c #BC404F",
"t 	c #98323D",
"u 	c #DB4D5D",
"v 	c #DA4F5E",
"w 	c #D34A59",
"x 	c #C14250",
"y 	c #D14958",
"z 	c #9F3541",
"A 	c #8A2D37",
"B 	c #D74C5C",
"C 	c #CD4756",
"D 	c #8B2C37",
"E 	c #D24A59",
"F 	c #641D25",
"G 	c #9D3440",
"H 	c #CC4756",
"I 	c #8D2D38",
"J 	c #B03C49",
"K 	c #BF4250",
"L 	c #C94654",
"M 	c #9C323F",
"N 	c #DB4E5E",
"O 	c #73222B",
"P 	c #842933",
"Q 	c #601B23",
"R 	c #7C2630",
"S 	c #822832",
"T 	c #76242D",
"U 	c #A23642",
"V 	c #D94D5C",
"W 	c #D94D5D",
"X 	c #C24351",
"Y 	c #B63D4B",
"Z 	c #D74B5B",
"` 	c #842A33",
" .	c #C44452",
"..	c #75232D",
"+.	c #CB4656",
"@.	c #BA3F4D",
"#.	c #7D2731",
"$.	c #C94554",
"%.	c #A73845",
"&.	c #7A2630",
"*.	c #6B2129",
"=.	c #6D212A",
"-.	c #812933",
";.	c #B63E4B",
">.	c #D24959",
",.	c #74232C",
"'.	c #D04756",
").	c #C54453",
"!.	c #671E26",
"~.	c #882B36",
"{.	c #C04250",
"].	c #C74553",
"^.	c #852A34",
"/.	c #CD4555",
"(.	c #B33C4A",
"_.	c #C74554",
":.	c #C74453",
"<.	c #7F2832",
"[.	c #D54B5B",
"}.	c #6B2028",
"|.	c #BD3C4A",
"1.	c #55171E",
"2.	c #D14959",
"3.	c #AC3340",
"4.	c #9A333E",
"5.	c #932531",
"6.	c #75242D",
"7.	c #C34452",
"8.	c #A13541",
"9.	c #D94959",
"0.	c #7F2731",
"a.	c #C54452",
"b.	c #9E323E",
"c.	c #CE4151",
"d.	c #912934",
"e.	c #B53342",
"f.	c #DA4C5C",
"g.	c #BC404E",
"h.	c #5E1B22",
"i.	c #D64A5A",
"j.	c #7B1B25",
"k.	c #901F2B",
"l.	c #D74958",
"m.	c #5F1B23",
"n.	c #872B35",
"o.	c #CE3D4D",
"p.	c #530F16",
"q.	c #CA3646",
"r.	c #9E3541",
"s.	c #BB3F4D",
"t.	c #D9495A",
"u.	c #AC2735",
"v.	c #971F2D",
"w.	c #D74353",
"x.	c #D54B5A",
"y.	c #98313D",
"z.	c #CE3949",
"A.	c #BB2A3A",
"B.	c #D84757",
"C.	c #912E3A",
"D.	c #D43F4F",
"E.	c #9E202E",
"F.	c #6E151F",
"G.	c #C92E3F",
"H.	c #D64555",
"I.	c #B53E4B",
"J.	c #8E2E39",
"K.	c #78252E",
"L.	c #93303B",
"M.	c #BB404E",
"N.	c #D43D4D",
"O.	c #B32635",
"P.	c #C42A3B",
"Q.	c #D94A5A",
"R.	c #D74757",
"S.	c #CF3344",
"T.	c #B22534",
"U.	c #65141C",
"V.	c #B02433",
"W.	c #CF3041",
"X.	c #D2394A",
"Y.	c #D54252",
"Z.	c #D84858",
"`.	c #D74656",
" +	c #D43E4F",
".+	c #D13646",
"++	c #C82B3C",
"@+	c #941E2B",
"#+	c #7C1823",
"$+	c #B42635",
"%+	c #C3293A",
"&+	c #C92B3C",
"*+	c #CC2B3D",
"=+	c #CD2C3E",
"-+	c #CB2B3D",
";+	c #C62A3B",
">+	c #BF2839",
",+	c #A1212F",
"'+	c #591219",
")+	c #6F161F",
"!+	c #791823",
"~+	c #7E1924",
"{+	c #7D1923",
"]+	c #761721",
"^+	c #67141D",
"/+	c #490E14",
"                                                                                    ",
"                                                                                    ",
"                                                                                    ",
"                                                                                    ",
"                                  . + @ # $ % & * = - ;                             ",
"                                > , ' ) ! ~ ' { ] ] ^ /                             ",
"                            ( _ : < [ } | 1 2 3 ] ] ] ] ] 4                         ",
"                            5 6 7 8 { 9 0 a b c d ^ ] ] ] ] e                       ",
"                        f g h i j k l             m & ] ] ] k n                     ",
"                        o p q { ] r                   ] ] ] ] s                     ",
"                      t u v { ] w                     x ] ] ] y                     ",
"                      y ] ] ] ] z                     A B ] ] C                     ",
"                    D k ] ] ] E F                       G H H I                     ",
"                    J ] ] ] ] K                                                     ",
"                    L ] ] ] u M                                                     ",
"                    ^ ] ] ] N O                                                     ",
"                  P N ] ] ] ^             Q R S T                                   ",
"                  U u ] ] ] y         t C ^ V W V k X                               ",
"                  Y u ] ] ] Z     ` H u ] ] ] ] ] ] ] W  ...                        ",
"                  X ] ] ] ] ] +.@.^ ] ] k w 9 ^ ] ] ] ] ] w #.                      ",
"                  $.] ] ] ] ] ] ] ] & %.&.*.=.-.;.] ] ] ] ] >.,.                    ",
"                  '.] ] ] ] ] ] ] ).!.            ~.w ] ] ] ] {.                    ",
"                  '.] ] ] ] ] ] ].                  ^.j ] ] ] ]                     ",
"                  /.] ] ] ] ] & #.                    (.] ] ] ] _.                  ",
"                  o ] ] ] ] ] :.                      <.& ] ] ] [.}.                ",
"                  |.] ] ] ] u U                       1.2.] ] ] k n                 ",
"                  3.u ] ] ] 3 S                         C ] ] ] ] 4.                ",
"                  5.u ] ] ] N 6.                        7.] ] ] ] 8.                ",
"                    9.] ] ] 3 0.                        a.] ] ] ] b.                ",
"                    c.] ] ] u 4.                        / ] ] ] ^ d.                ",
"                    e.f.] ] ] g.                      h.E ] ] ] i.j.                ",
"                    k.l.] ] ] 2.m.                    n.B ] ] ] o.p.                ",
"                      q.] ] ] ] r.                    s.] ] ] t.u.                  ",
"                      v.w.] ] ] x.                  y.] ] ] ] z.                    ",
"                        A.B.] ] ] 2.              C.& ] ] ] D.E.                    ",
"                        F.G.H.] ] ] & I.J.T K.L.M.^ ] ] f.N.O.                      ",
"                            P.N.Q.] ] ] ^ k k W ] ] ^ R.S.T.                        ",
"                            U.V.W.X.Y.Z.^ ] f.Q.`. +.+++@+                          ",
"                                #+$+%+&+*+=+=+-+;+>+,+                              ",
"                                    '+)+!+~+{+]+^+/+                                ",
"                                                                                    ",
"                                                                                    "};
