/* XPM */
static const char *number_6_xpm[] = {
"64 64 295 2",
"  	c None",
". 	c #330B0F",
"+ 	c #320B0F",
"@ 	c #410E13",
"# 	c #802731",
"$ 	c #A53743",
"% 	c #BD404E",
"& 	c #CA4655",
"* 	c #D34958",
"= 	c #D94B5B",
"- 	c #DA4B5B",
"; 	c #D44959",
"> 	c #CC4655",
", 	c #BE414F",
"' 	c #7C252F",
") 	c #3A0C11",
"! 	c #651B23",
"~ 	c #AE3A47",
"{ 	c #D44B5B",
"] 	c #DE6572",
"^ 	c #E27B85",
"/ 	c #E58892",
"( 	c #E8919A",
"_ 	c #E9969F",
": 	c #EA99A2",
"< 	c #DA505F",
"[ 	c #DA4D5D",
"} 	c #D14858",
"| 	c #A33541",
"1 	c #50131A",
"2 	c #4D141A",
"3 	c #AF3A47",
"4 	c #DA5463",
"5 	c #E27B86",
"6 	c #E8949D",
"7 	c #EA9AA3",
"8 	c #E8919B",
"9 	c #D34A59",
"0 	c #95303B",
"a 	c #350B0F",
"b 	c #78242D",
"c 	c #CF4857",
"d 	c #DE6874",
"e 	c #E996A0",
"f 	c #E8929B",
"g 	c #E37F89",
"h 	c #DF6E7A",
"i 	c #DD5F6D",
"j 	c #DB5463",
"k 	c #DA4E5E",
"l 	c #BC404E",
"m 	c #4B1319",
"n 	c #8B2C36",
"o 	c #D84C5B",
"p 	c #E17681",
"q 	c #E68993",
"r 	c #DE6673",
"s 	c #C74553",
"t 	c #4F141A",
"u 	c #892A35",
"v 	c #DF6975",
"w 	c #DC5B69",
"x 	c #C94554",
"y 	c #A03440",
"z 	c #651F26",
"A 	c #691F27",
"B 	c #832832",
"C 	c #AA3845",
"D 	c #D24959",
"E 	c #C04150",
"F 	c #71212A",
"G 	c #D85261",
"H 	c #E78F99",
"I 	c #CD4756",
"J 	c #340B0F",
"K 	c #461116",
"L 	c #A83844",
"M 	c #D94C5C",
"N 	c #9B323E",
"O 	c #481117",
"P 	c #E58690",
"Q 	c #BB3F4D",
"R 	c #410F15",
"S 	c #8C2C37",
"T 	c #D84C5C",
"U 	c #D44A5A",
"V 	c #4C1219",
"W 	c #AB3946",
"X 	c #DC5C6A",
"Y 	c #4C1319",
"Z 	c #9C323E",
"` 	c #97303C",
" .	c #671D25",
"..	c #DB5665",
"+.	c #360B10",
"@.	c #C54452",
"#.	c #B53D4A",
"$.	c #BC3F4D",
"%.	c #872A34",
"&.	c #5B1920",
"*.	c #6B1F28",
"=.	c #CB4655",
"-.	c #C0414F",
";.	c #A33542",
">.	c #B93E4C",
",.	c #73222A",
"'.	c #7F2730",
").	c #7A252E",
"!.	c #611A22",
"~.	c #AF3B48",
"{.	c #BF414F",
"].	c #812832",
"^.	c #6C1F28",
"/.	c #9F3440",
"(.	c #B43C4A",
"_.	c #99313D",
":.	c #D54A5A",
"<.	c #77242D",
"[.	c #681D25",
"}.	c #55151C",
"|.	c #8A2B36",
"1.	c #D34959",
"2.	c #370C10",
"3.	c #9A323E",
"4.	c #A0333F",
"5.	c #8E2D38",
"6.	c #71222A",
"7.	c #3F0D12",
"8.	c #A13541",
"9.	c #C84554",
"0.	c #72212A",
"a.	c #B23C49",
"b.	c #D64B5A",
"c.	c #BA3F4D",
"d.	c #862A34",
"e.	c #B13B48",
"f.	c #C74554",
"g.	c #631C24",
"h.	c #CA4554",
"i.	c #802831",
"j.	c #D84B5B",
"k.	c #5B181F",
"l.	c #B03A48",
"m.	c #400F15",
"n.	c #C84553",
"o.	c #CC4656",
"p.	c #B83E4C",
"q.	c #DA4C5C",
"r.	c #C24250",
"s.	c #4A1319",
"t.	c #CE4757",
"u.	c #C74453",
"v.	c #B63E4B",
"w.	c #B23D4A",
"x.	c #C34251",
"y.	c #421015",
"z.	c #D24958",
"A.	c #D04858",
"B.	c #52151B",
"C.	c #691D25",
"D.	c #B23B48",
"E.	c #D84A5A",
"F.	c #862934",
"G.	c #9E343F",
"H.	c #59171F",
"I.	c #CC4756",
"J.	c #CE4756",
"K.	c #3F0F14",
"L.	c #D94A5A",
"M.	c #6B1F27",
"N.	c #D74B5B",
"O.	c #942F3A",
"P.	c #D74959",
"Q.	c #441015",
"R.	c #A43642",
"S.	c #D34757",
"T.	c #8F2D38",
"U.	c #4C1218",
"V.	c #6A1E26",
"W.	c #CD4453",
"X.	c #3F0E13",
"Y.	c #9E3440",
"Z.	c #C63F4E",
"`.	c #BD3A48",
" +	c #9A333E",
".+	c #601921",
"++	c #AD323F",
"@+	c #350B10",
"#+	c #9B2633",
"$+	c #78252E",
"%+	c #490F15",
"&+	c #811A25",
"*+	c #78252F",
"=+	c #CD4857",
"-+	c #4F1016",
";+	c #5E121B",
">+	c #D64353",
",+	c #D84858",
"'+	c #440E13",
")+	c #CA3848",
"!+	c #99323D",
"~+	c #D24151",
"{+	c #AE2736",
"]+	c #AE3B48",
"^+	c #C43847",
"/+	c #881B27",
"(+	c #D64354",
"_+	c #892B35",
":+	c #AC2836",
"<+	c #4B0F15",
"[+	c #CE3445",
"}+	c #6C1E27",
"|+	c #B03B48",
"1+	c #D74555",
"2+	c #8D1C28",
"3+	c #AC2332",
"4+	c #D74656",
"5+	c #D44A59",
"6+	c #D03647",
"7+	c #551118",
"8+	c #711620",
"9+	c #D03445",
"0+	c #641C24",
"a+	c #9D323E",
"b+	c #B22534",
"c+	c #B52535",
"d+	c #D54151",
"e+	c #C14250",
"f+	c #5E1921",
"g+	c #CF3243",
"h+	c #781822",
"i+	c #6E151F",
"j+	c #CD2C3E",
"k+	c #AC3845",
"l+	c #451016",
"m+	c #C54352",
"n+	c #D33B4C",
"o+	c #B42535",
"p+	c #A32130",
"q+	c #CF3142",
"r+	c #AD3946",
"s+	c #3C0C11",
"t+	c #C24150",
"u+	c #D54050",
"v+	c #CA2A3C",
"w+	c #62131B",
"x+	c #430D13",
"y+	c #BD2738",
"z+	c #D03243",
"A+	c #370B10",
"B+	c #8A2B35",
"C+	c #CD2B3D",
"D+	c #8C1C28",
"E+	c #5D121A",
"F+	c #C4293A",
"G+	c #CF3041",
"H+	c #D74757",
"I+	c #A93845",
"J+	c #96313C",
"K+	c #922C38",
"L+	c #98323D",
"M+	c #CF4757",
"N+	c #D23A4B",
"O+	c #A0212F",
"P+	c #64141C",
"Q+	c #D43D4D",
"R+	c #D64454",
"S+	c #9F202E",
"T+	c #571119",
"U+	c #B82636",
"V+	c #CE2E40",
"W+	c #D43E4F",
"X+	c #C92A3C",
"Y+	c #891B27",
"Z+	c #3B0C11",
"`+	c #941E2B",
" @	c #C82A3B",
".@	c #D43E4E",
"+@	c #D94959",
"@@	c #D23849",
"#@	c #CE2D3F",
"$@	c #AF2433",
"%@	c #5C121A",
"&@	c #9A1F2D",
"*@	c #C3293A",
"=@	c #AB2332",
"-@	c #6D151F",
";@	c #360C10",
">@	c #701620",
",@	c #971F2C",
"'@	c #C5293B",
")@	c #CB2B3C",
"!@	c #C12839",
"~@	c #801924",
"{@	c #470E14",
"                                                                                                                                ",
"                                                                                                                                ",
"                                                                                                                                ",
"                                                                                                                                ",
"                                                                                                                                ",
"                                                        . . . . . + + + . . . .                                                 ",
"                                                  . . @ # $ % & * = - ; > , $ ' ) . .                                           ",
"                                              . . ! ~ { ] ^ / ( _ : ( < [ [ [ [ } | 1 .                                         ",
"                                            . 2 3 4 5 6 7 7 7 7 7 7 8 < [ [ [ [ [ [ 9 0 a .                                     ",
"                                          . b c d e 7 7 f g h i j k [ [ [ [ [ [ [ [ [ [ l m .                                   ",
"                                        . n o [ p 7 q r [ [ [ [ [ [ [ [ [ [ [ [ [ [ [ [ [ s t .                                 ",
"                                      . u 4 v [ [ w [ [ [ [ x y b z A B C D [ [ [ [ [ [ [ [ E )                                 ",
"                                    . F G H 7 d [ [ [ [ I u J . . . . . . K L M [ [ [ [ [ [ [ N .                               ",
"                                  . O I P 7 ( j [ [ [ Q R .               . . S T [ [ [ [ [ [ U V .                             ",
"                                  . W [ ( _ X [ [ [ c Y .                     . Z [ [ [ [ [ [ [ ` .                             ",
"                                .  .T [ j ..[ [ [ [ B .                         +.@.[ [ [ [ [ [ l .                             ",
"                                . #.[ [ [ [ [ [ [ $..                           . %.[ [ [ [ [ [ x .                             ",
"                              . &.T [ [ [ [ [ [ M *..                             ) =.[ [ [ [ [ -..                             ",
"                              . ;.[ [ [ [ [ [ [ >..                               . ,.U [ [ [ M '..                             ",
"                              . > [ [ [ [ [ [ [ )..                                 . !.~.s {.]..                               ",
"                            . ^.[ [ [ [ [ [ [ c J                                     . . . . .                                 ",
"                            . /.[ [ [ [ [ [ [ (..                                                                               ",
"                            . {.[ [ [ [ [ [ [ _..                                                                               ",
"                            +.:.[ [ [ [ [ [ [ <..                                                                               ",
"                          . [.[ [ [ [ [ [ [ [ }..               . . . . . . .                                                   ",
"                          . |.[ [ [ [ [ [ [ 1..           . . 2.^.n 3.4.N 5.6.7.. .                                             ",
"                          . 8.[ [ [ [ [ [ [ 9..       . . 0.a.1.[ [ [ [ [ [ [ b.c.d.2..                                         ",
"                          . e.[ [ [ [ [ [ [ f..     . g.Q [ [ [ [ [ [ [ [ [ [ [ [ [ h.i.. .                                     ",
"                          . {.[ [ [ [ [ [ [ j.k.. . %.b.[ [ [ [ [ [ [ [ [ [ [ [ [ [ [ [ l.m..                                   ",
"                          . n.[ [ [ [ [ [ [ [ o.;.p.q.[ [ [ [ [ [ [ [ [ [ [ [ [ [ [ [ [ [ r.s..                                 ",
"                          . t.[ [ [ [ [ [ [ [ [ [ [ [ [ [ [ M u.v.w.c.I [ [ [ [ [ [ [ [ [ [ x.y..                               ",
"                          . z.[ [ [ [ [ [ [ [ [ [ [ [ [ A.3.B.. . . . . C.~.T [ [ [ [ [ [ [ [ D..                               ",
"                          + E.[ [ [ [ [ [ [ [ [ [ [ [ l.O . .           . . F I [ [ [ [ [ [ [ [ F..                             ",
"                          + - [ [ [ [ [ [ [ [ [ [ [ G.. .                   . H.I.[ [ [ [ [ [ [ J.K.                            ",
"                        . + L.[ [ [ [ [ [ [ [ [ [ 3 .                         . M.N.[ [ [ [ [ [ [ O..                           ",
"                          + P.[ [ [ [ [ [ [ [ [ I Q..                           . R.[ [ [ [ [ [ [ 9..                           ",
"                          . S.[ [ [ [ [ [ [ [ [ T..                             . U.:.[ [ [ [ [ [ [ V..                         ",
"                          . W.[ [ [ [ [ [ [ [ 1.X.                                . a.[ [ [ [ [ [ [ Y..                         ",
"                          . Z.[ [ [ [ [ [ [ [ #..                                 . |.[ [ [ [ [ [ [ $..                         ",
"                          . `.[ [ [ [ [ [ [ [  +.                                 . .+[ [ [ [ [ [ [ I .                         ",
"                          . ++[ [ [ [ [ [ [ [ B .                                   @+j.[ [ [ [ [ [ = +.                        ",
"                          . #+[ [ [ [ [ [ [ [ $+.                                   . c [ [ [ [ [ [ [ %+.                       ",
"                          . &+L.[ [ [ [ [ [ [ *+.                                   . =+[ [ [ [ [ [ = -+.                       ",
"                          . ;+>+[ [ [ [ [ [ [ B .                                   . c [ [ [ [ [ [ ,+'+.                       ",
"                            J )+[ [ [ [ [ [ [ !+.                                   a j.[ [ [ [ [ [ ~+.                         ",
"                            . {+q.[ [ [ [ [ [ ]+.                                 . .+[ [ [ [ [ [ [ ^+.                         ",
"                            . /+(+[ [ [ [ [ [ =..                                 . _+[ [ [ [ [ [ [ :+.                         ",
"                            . <+[+[ [ [ [ [ [ [ }+.                               . |+[ [ [ [ [ [ 1+2+.                         ",
"                              . 3+4+[ [ [ [ [ [ ~..                               K 5+[ [ [ [ [ [ 6+7+.                         ",
"                              . 8+9+[ [ [ [ [ [ T 0+.                           . a+[ [ [ [ [ [ 4+b+.                           ",
"                                . c+d+[ [ [ [ [ [ e+)                         . f+:.[ [ [ [ [ q.g+h+.                           ",
"                                . i+j+,+[ [ [ [ [ [ k+.                     . l+m+[ [ [ [ [ [ n+o+.                             ",
"                                  . p+q+L.[ [ [ [ [ [ r+s+.               . t t+[ [ [ [ [ [ u+v+w+.                             ",
"                                  . x+y+z+L.[ [ [ [ [ [ @.b . . . . . . A+B+c [ [ [ [ [ [ u+C+D+.                               ",
"                                    . E+F+G+H+[ [ [ [ [ [ [ x I+J+K+L+~ M+[ [ [ [ [ [ q.N+C+O+.                                 ",
"                                      . P+F+j+Q+M [ [ [ [ [ [ [ [ [ [ [ [ [ [ [ [ [ R+q+C+S+J                                   ",
"                                        . T+U+C+V+W+L.[ [ [ [ [ [ [ [ [ [ [ [ q.>+9+C+X+Y+.                                     ",
"                                          . Z+`+ @C+C+9+.@R+,+= [ [ - +@4+u+@@#@C+C+$@%@.                                       ",
"                                              . -+&@*@C+C+C+C+C+C+C+C+C+C+C+C+v+=@-@. .                                         ",
"                                                . . ;@>@,@$@y+'@)@C+ @!@c+O+~@{@. .                                             ",
"                                                      . . . . . + + . . . . . .                                                 ",
"                                                                                                                                ",
"                                                                                                                                ",
"                                                                                                                                "};
