/* XPM */
static char * 7_xpm[] = {
"42 42 111 2",
"  	c None",
". 	c #420B10",
"+ 	c #8C2730",
"@ 	c #D44350",
"# 	c #E04856",
"$ 	c #E6646F",
"% 	c #EB737D",
"& 	c #ED6A74",
"* 	c #EB4E5C",
"= 	c #ED6974",
"- 	c #EE757F",
"; 	c #EC5B67",
"> 	c #EA4C5A",
", 	c #EA4A58",
"' 	c #E64957",
") 	c #E14956",
"! 	c #DD4754",
"~ 	c #D2424F",
"{ 	c #8F2932",
"] 	c #D84451",
"^ 	c #E94C5A",
"/ 	c #E94E5C",
"( 	c #EF858E",
"_ 	c #F4A1A9",
": 	c #F08E97",
"< 	c #E9515E",
"[ 	c #F08B93",
"} 	c #EC6E78",
"| 	c #DF4856",
"1 	c #D94451",
"2 	c #E94A59",
"3 	c #E94958",
"4 	c #E94A58",
"5 	c #E94B59",
"6 	c #E44A58",
"7 	c #771E26",
"8 	c #E64B58",
"9 	c #E74B59",
"0 	c #E84C59",
"a 	c #E84C5A",
"b 	c #DA4552",
"c 	c #7B2028",
"d 	c #982C35",
"e 	c #A2303A",
"f 	c #A7323C",
"g 	c #AA343E",
"h 	c #AB343E",
"i 	c #AE353F",
"j 	c #C63E4A",
"k 	c #E84B59",
"l 	c #E64A58",
"m 	c #BE3B46",
"n 	c #B23641",
"o 	c #AE343F",
"p 	c #CE414D",
"q 	c #DB4653",
"r 	c #DC4654",
"s 	c #C23C48",
"t 	c #902831",
"u 	c #942B34",
"v 	c #E64B59",
"w 	c #DE4754",
"x 	c #D0424F",
"y 	c #E54A58",
"z 	c #8A262F",
"A 	c #B73743",
"B 	c #D64451",
"C 	c #A9323C",
"D 	c #AF353F",
"E 	c #DA4653",
"F 	c #E24956",
"G 	c #AF343F",
"H 	c #E04855",
"I 	c #E24957",
"J 	c #AB333D",
"K 	c #CC414D",
"L 	c #9F2E38",
"M 	c #CA3E4B",
"N 	c #C43D48",
"O 	c #AF3540",
"P 	c #D44450",
"Q 	c #E44A57",
"R 	c #C83E4B",
"S 	c #B13540",
"T 	c #CC404C",
"U 	c #962B34",
"V 	c #E54A57",
"W 	c #731C24",
"X 	c #7C2129",
"Y 	c #972B35",
"Z 	c #D23D4B",
"` 	c #A52E39",
" .	c #B02D38",
"..	c #A0212C",
"+.	c #E84A58",
"@.	c #E74755",
"#.	c #881B24",
"$.	c #7E0E18",
"%.	c #E43543",
"&.	c #E94856",
"*.	c #E84553",
"=.	c #DC2D3B",
"-.	c #6A0D15",
";.	c #BF1A28",
">.	c #E12131",
",.	c #E42132",
"'.	c #DE2030",
").	c #A91623",
"!.	c #81101A",
"~.	c #8C111C",
"{.	c #760E17",
"                                                                                    ",
"                                                                                    ",
"                                                                                    ",
"                              . . . . . . . . . . . .                               ",
"                  + @ # $ % & * = - - - - - - - - ; > , ' ) ! ~ {                   ",
"                  ] ^ / ( _ : < [ _ _ _ _ _ _ _ _ } ^ ^ ^ ^ ^ ^ |                   ",
"                  1 ^ ^ 2 3 4 ^ 4 3 3 3 3 3 3 3 3 5 ^ ^ ^ ^ ^ ^ 6 7                 ",
"                    8 9 0 a a a a a a a a a a ^ ^ ^ ^ ^ ^ ^ ^ ^ b                   ",
"                    c d e f g h h h h h h h h i j k ^ ^ ^ ^ ^ l                     ",
"                                                  m ^ ^ ^ ^ 0 n                     ",
"                                                  o ^ ^ ^ > p                       ",
"                                                  q ^ ^ ^ r                         ",
"                                                s > ^ ^ 9 t                         ",
"                                              u v ^ ^ ^                             ",
"                                              w ^ ^ ^ x                             ",
"                                            j ^ ^ ^ y                               ",
"                                          z l ^ ^ > A                               ",
"                                          B ^ ^ ^ r                                 ",
"                                        C ^ ^ ^ ^ D                                 ",
"                                        E ^ ^ ^ F                                   ",
"                                        ^ ^ ^ > G                                   ",
"                                      H ^ ^ ^ I                                     ",
"                                    J ^ ^ ^ ^ K                                     ",
"                                    B ^ ^ ^ ^ L                                     ",
"                                    k ^ ^ ^ y                                       ",
"                                  M ^ ^ ^ ^ N                                       ",
"                                  v ^ ^ ^ ^ t                                       ",
"                                O ^ ^ ^ ^ H                                         ",
"                                x ^ ^ ^ ^ P                                         ",
"                                Q ^ ^ ^ ^ R                                         ",
"                                > ^ ^ ^ ^ S                                         ",
"                              T ^ ^ ^ ^ ^ U                                         ",
"                              V ^ ^ ^ ^ ^ W                                         ",
"                            X 9 ^ ^ ^ ^ '                                           ",
"                            Y k ^ ^ ^ ^ Z                                           ",
"                            ` a ^ ^ ^ ^  .                                          ",
"                            ..+.^ ^ ^ @.#.                                          ",
"                            $.%.&.^ *.=.-.                                          ",
"                              ;.>.,.'.).                                            ",
"                                !.~.{.                                              ",
"                                                                                    ",
"                                                                                    "};
