/* XPM */
static const char *number_7_xpm[] = {
"64 64 163 2",
"  	c None",
". 	c #39070B",
"+ 	c #38070B",
"@ 	c #38070A",
"# 	c #541016",
"$ 	c #B2343F",
"% 	c #D34350",
"& 	c #D94451",
"* 	c #DC4754",
"= 	c #E04754",
"- 	c #E44755",
"; 	c #E84856",
"> 	c #E94A58",
", 	c #E94C5A",
"' 	c #E94957",
") 	c #E74755",
"! 	c #E14755",
"~ 	c #CD3E4B",
"{ 	c #B13540",
"] 	c #4B0C12",
"^ 	c #C83D4A",
"/ 	c #EB5E6A",
"( 	c #F39FA7",
"_ 	c #F4A3AB",
": 	c #EE7F88",
"< 	c #D3424F",
"[ 	c #44080D",
"} 	c #E54856",
"| 	c #8F2730",
"1 	c #E84957",
"2 	c #AB313C",
"3 	c #D44350",
"4 	c #9D2C36",
"5 	c #8D262F",
"6 	c #E74B58",
"7 	c #E34956",
"8 	c #550F15",
"9 	c #7D2028",
"0 	c #BB3844",
"a 	c #C53C48",
"b 	c #D0404D",
"c 	c #DB4654",
"d 	c #DD4754",
"e 	c #DE4754",
"f 	c #E74A57",
"g 	c #A6303A",
"h 	c #44080C",
"i 	c #942832",
"j 	c #E14856",
"k 	c #CF404D",
"l 	c #3F070C",
"m 	c #972A33",
"n 	c #E14855",
"o 	c #63151C",
"p 	c #6C1920",
"q 	c #E84B59",
"r 	c #8C262F",
"s 	c #8E262F",
"t 	c #B33540",
"u 	c #41070C",
"v 	c #D2424E",
"w 	c #43080C",
"x 	c #AE333D",
"y 	c #E04755",
"z 	c #60141B",
"A 	c #7C1F27",
"B 	c #E74B59",
"C 	c #87232C",
"D 	c #4B0C11",
"E 	c #DA4552",
"F 	c #B0333E",
"G 	c #B83742",
"H 	c #43080D",
"I 	c #83212A",
"J 	c #E64A58",
"K 	c #721B23",
"L 	c #480C11",
"M 	c #AF343E",
"N 	c #B0343F",
"O 	c #470B11",
"P 	c #6D1920",
"Q 	c #C93E4A",
"R 	c #CB3E4B",
"S 	c #88242D",
"T 	c #751D24",
"U 	c #3C070B",
"V 	c #D5434F",
"W 	c #C33C47",
"X 	c #E94B59",
"Y 	c #741C24",
"Z 	c #42080C",
"` 	c #CA3F4B",
" .	c #9C2C35",
"..	c #8B242D",
"+.	c #40070C",
"@.	c #3B070B",
"#.	c #962A34",
"$.	c #A9323C",
"%.	c #5D1319",
"&.	c #87232B",
"*.	c #C83E4A",
"=.	c #982B34",
"-.	c #65161D",
";.	c #E54A58",
">.	c #500D13",
",.	c #B1343F",
"'.	c #C73D49",
").	c #DF4654",
"!.	c #992B34",
"~.	c #E74A58",
"{.	c #560F15",
"].	c #C43C48",
"^.	c #CE404C",
"/.	c #520E14",
"(.	c #A8313B",
"_.	c #992B35",
":.	c #802129",
"<.	c #530D13",
"[.	c #4D0C12",
"}.	c #DC4553",
"|.	c #CA3E4B",
"1.	c #B93843",
"2.	c #B53742",
"3.	c #D84451",
"4.	c #A12E38",
"5.	c #581016",
"6.	c #82222A",
"7.	c #89242C",
"8.	c #611017",
"9.	c #A9323D",
"0.	c #E14452",
"a.	c #3A070B",
"b.	c #BC3945",
"c.	c #CB3845",
"d.	c #CD3D4A",
"e.	c #AB2631",
"f.	c #D03C49",
"g.	c #E84755",
"h.	c #81101A",
"i.	c #CB2F3C",
"j.	c #E23745",
"k.	c #47080D",
"l.	c #B71927",
"m.	c #E84452",
"n.	c #C71D2C",
"o.	c #8E121C",
"p.	c #E42434",
"q.	c #E73E4C",
"r.	c #E73B4A",
"s.	c #E42233",
"t.	c #A21723",
"u.	c #3E070C",
"v.	c #CB1C2B",
"w.	c #E42031",
"x.	c #CB1B2B",
"y.	c #45090E",
"z.	c #4F090F",
"A.	c #B61826",
"B.	c #DA1E2F",
"C.	c #E31F30",
"D.	c #D61E2E",
"E.	c #AE1724",
"F.	c #49080E",
"                                                                                                                                ",
"                                                                                                                                ",
"                                                                                                                                ",
"                                                                                                                                ",
"                                              . . . . . . . . . . . . . . . . . .                                               ",
"                            . . . . . . + + + @ @ @ @ @ @ @ @ @ @ @ @ @ @ @ @ @ + + + . . . . . . .                             ",
"                          . # $ % & * = - ; > , , , , , , , , , , , , , , , , , , ' ) ! * & % ~ { ] .                           ",
"                          . ^ , , , / ( _ _ : , / ( _ _ _ _ _ _ _ _ _ _ _ _ : , , , , , , , , , , < [                           ",
"                          + } , , , / ( _ _ : , / ( _ _ _ _ _ _ _ _ _ _ _ _ : , , , , , , , , , , , | .                         ",
"                          + 1 , , , , , , , , , , , , , , , , , , , , , , , , , , , , , , , , , , , 2 .                         ",
"                          . 3 , , , , , , , , , , , , , , , , , , , , , , , , , , , , , , , , , , , 4 .                         ",
"                          . 5 6 , , , , , , , , , , , , , , , , , , , , , , , , , , , , , , , , , 7 8 .                         ",
"                            . 9 0 a b 3 & c * d d d d d d d d d d d d e f , , , , , , , , , , , , g .                           ",
"                              . . . . . . . . . . . . . . . . . . . . . h i j , , , , , , , , , k l                             ",
"                                                                          . m , , , , , , , , n o .                             ",
"                                                                          . p , , , , , , , q r .                               ",
"                                                                          . s , , , , , , , t .                                 ",
"                                                                          u v , , , , , , k w                                   ",
"                                                                        . x , , , , , , y z .                                   ",
"                                                                      . A B , , , , , q C .                                     ",
"                                                                    . D E , , , , , , F .                                       ",
"                                                                    . G , , , , , , < H                                         ",
"                                                                  . I q , , , , , J K .                                         ",
"                                                                  L E , , , , , , M .                                           ",
"                                                                . N , , , , , , E O                                             ",
"                                                              . P J , , , , , , 5 .                                             ",
"                                                              . Q , , , , , , R .                                               ",
"                                                            . S , , , , , , q T .                                               ",
"                                                            U V , , , , , , W .                                                 ",
"                                                          . m , , , , , , X Y .                                                 ",
"                                                          Z E , , , , , , ` .                                                   ",
"                                                        .  ., , , , , , , ...                                                   ",
"                                                        +.E , , , , , , E @.                                                    ",
"                                                      . #., , , , , , , $..                                                     ",
"                                                      . V , , , , , , B %..                                                     ",
"                                                    . &., , , , , , , Q .                                                       ",
"                                                    . *., , , , , , , =..                                                       ",
"                                                  . -.q , , , , , , ;.>.                                                        ",
"                                                  . ,., , , , , , , '..                                                         ",
"                                                  +.)., , , , , , , !..                                                         ",
"                                                . 5 , , , , , , , ~.{..                                                         ",
"                                                . ]., , , , , , , ^..                                                           ",
"                                              . /.;., , , , , , , (..                                                           ",
"                                              . _., , , , , , , , :..                                                           ",
"                                              . *., , , , , , , X <..                                                           ",
"                                              [.;., , , , , , , }..                                                             ",
"                                            . | , , , , , , , , |..                                                             ",
"                                            . 1., , , , , , , , 2..                                                             ",
"                                            . 3., , , , , , , , 4..                                                             ",
"                                          . 5.X , , , , , , , , 6..                                                             ",
"                                          . 7., , , , , , , , X 8..                                                             ",
"                                          . 9., , , , , , , , 0.a.                                                              ",
"                                          . b., , , , , , , , c..                                                               ",
"                                          . d., , , , , , , , e..                                                               ",
"                                          . f., , , , , , , g.h..                                                               ",
"                                          . i., , , , , , , j.k.                                                                ",
"                                          . l.m., , , , , m.n..                                                                 ",
"                                          . o.p.q.' , ; r.s.t..                                                                 ",
"                                            u.v.w.w.w.w.w.x.y.                                                                  ",
"                                            . z.A.B.C.D.E.F..                                                                   ",
"                                              . . . + . . .                                                                     ",
"                                                                                                                                ",
"                                                                                                                                ",
"                                                                                                                                "};
