/* XPM */
static char * 8_xpm[] = {
"42 42 220 2",
"  	c None",
". 	c #9C242F",
"+ 	c #C64B54",
"@ 	c #E1636D",
"# 	c #EF6E78",
"$ 	c #F7737D",
"% 	c #F66570",
"& 	c #EF4554",
"* 	c #E54150",
"= 	c #D03A47",
"- 	c #AD2D39",
"; 	c #801D26",
"> 	c #A92B36",
", 	c #E95F6A",
"' 	c #F79199",
") 	c #FA9FA7",
"! 	c #FAA1AA",
"~ 	c #FAA3AB",
"{ 	c #FAA4AC",
"] 	c #F88891",
"^ 	c #F44756",
"/ 	c #F44857",
"( 	c #ED4554",
"_ 	c #D23B48",
": 	c #CB3542",
"< 	c #F54C5B",
"[ 	c #F99DA6",
"} 	c #F8949D",
"| 	c #F77C86",
"1 	c #F66470",
"2 	c #F55260",
"3 	c #F54757",
"4 	c #F64756",
"5 	c #F54858",
"6 	c #F54857",
"7 	c #EC4453",
"8 	c #96252F",
"9 	c #D04852",
"0 	c #F7868F",
"a 	c #F55663",
"b 	c #F45663",
"c 	c #F44E5C",
"d 	c #F34857",
"e 	c #E64250",
"f 	c #B7303C",
"g 	c #92242D",
"h 	c #8D232C",
"i 	c #A82B36",
"j 	c #D93D4A",
"k 	c #F14756",
"l 	c #EF4654",
"m 	c #AA323C",
"n 	c #F98B94",
"o 	c #F99DA5",
"p 	c #F55A66",
"q 	c #F24756",
"r 	c #B9313D",
"s 	c #97252F",
"t 	c #E64251",
"u 	c #E74351",
"v 	c #EC4956",
"w 	c #F8858F",
"x 	c #F56772",
"y 	c #B6303C",
"z 	c #882029",
"A 	c #F34856",
"B 	c #AE2D39",
"C 	c #9D2832",
"D 	c #F44655",
"E 	c #E84351",
"F 	c #621118",
"G 	c #C53642",
"H 	c #D43C49",
"I 	c #BA323E",
"J 	c #CB3845",
"K 	c #E74250",
"L 	c #C33643",
"M 	c #B12E39",
"N 	c #F04654",
"O 	c #ED4453",
"P 	c #C03440",
"Q 	c #AF2E38",
"R 	c #EA4452",
"S 	c #AA2D37",
"T 	c #F34756",
"U 	c #CA3744",
"V 	c #DB3E4C",
"W 	c #7B1B23",
"X 	c #EF4655",
"Y 	c #E84452",
"Z 	c #C23541",
"` 	c #B9323E",
" .	c #C13440",
"..	c #881F28",
"+.	c #EE4554",
"@.	c #EB4452",
"#.	c #6D151D",
"$.	c #D53C49",
"%.	c #C43542",
"&.	c #C13541",
"*.	c #CF3A47",
"=.	c #B9313C",
"-.	c #B42F3B",
";.	c #DD3F4D",
">.	c #E54250",
",.	c #8D212B",
"'.	c #8B2029",
").	c #C63642",
"!.	c #6D151C",
"~.	c #DF404D",
"{.	c #68141C",
"].	c #BF343F",
"^.	c #F14655",
"/.	c #EB4453",
"(.	c #F34757",
"_.	c #E3414F",
":.	c #99252F",
"<.	c #E44250",
"[.	c #AA2C37",
"}.	c #D63B49",
"|.	c #F14755",
"1.	c #751921",
"2.	c #D73D4A",
"3.	c #BB323E",
"4.	c #CE3A46",
"5.	c #E4414F",
"6.	c #631219",
"7.	c #94232D",
"8.	c #D73C4A",
"9.	c #B9323D",
"0.	c #A42B35",
"a.	c #71161F",
"b.	c #DA3D4B",
"c.	c #CC3945",
"d.	c #861F28",
"e.	c #92242E",
"f.	c #E8404E",
"g.	c #BF3440",
"h.	c #771A23",
"i.	c #9F2933",
"j.	c #E73D4C",
"k.	c #791B23",
"l.	c #9F242E",
"m.	c #DB3241",
"n.	c #D03A48",
"o.	c #8B212A",
"p.	c #F14554",
"q.	c #941822",
"r.	c #C01E2B",
"s.	c #F54756",
"t.	c #AD2E39",
"u.	c #EE3E4D",
"v.	c #770611",
"w.	c #F43D4C",
"x.	c #AC2C37",
"y.	c #E12635",
"z.	c #DD2635",
"A.	c #EA4453",
"B.	c #791A22",
"C.	c #BC333E",
"D.	c #F43B4A",
"E.	c #A10F1C",
"F.	c #A10D1B",
"G.	c #F02F3F",
"H.	c #B02E3A",
"I.	c #F34150",
"J.	c #D81B2C",
"K.	c #C21222",
"L.	c #F32E3E",
"M.	c #F44554",
"N.	c #ED4553",
"O.	c #C33542",
"P.	c #90232C",
"Q.	c #68131A",
"R.	c #5E1118",
"S.	c #781921",
"T.	c #A72B36",
"U.	c #D83D4A",
"V.	c #F33C4B",
"W.	c #EA1E30",
"X.	c #810814",
"Y.	c #C41222",
"Z.	c #EF2032",
"`.	c #F44352",
" +	c #F22F3F",
".+	c #E5172A",
"++	c #9E0D1A",
"@+	c #E31629",
"#+	c #F22536",
"$+	c #F23140",
"%+	c #F33B4A",
"&+	c #F34251",
"*+	c #F44453",
"=+	c #F33F4E",
"-+	c #F23646",
";+	c #F22B3C",
">+	c #F01D30",
",+	c #C51122",
"'+	c #710711",
")+	c #A60D1C",
"!+	c #D91527",
"~+	c #E6172A",
"{+	c #EB182C",
"]+	c #EF192D",
"^+	c #F11A2D",
"/+	c #F21A2D",
"(+	c #F0192D",
"_+	c #EE192C",
":+	c #E9182B",
"<+	c #E21629",
"[+	c #C61222",
"}+	c #6B0710",
"|+	c #820915",
"1+	c #8E0A17",
"2+	c #940B18",
"3+	c #960B18",
"4+	c #910B18",
"5+	c #890A16",
"6+	c #790813",
"7+	c #59060D",
"                                                                                    ",
"                                                                                    ",
"                                                                                    ",
"                                                                                    ",
"                                . + @ # $ % & * = - ;                               ",
"                            > , ' ) ! ~ { ] ^ / / / ( _                             ",
"                          : < [ } | 1 2 3 4 5 / / / / 6 7 8                         ",
"                        9 0 a b c d e f g h i j k / / / / l                         ",
"                      m n o p / q r             s t / / / / u                       ",
"                      v w x / d y                 z ( / / / A B                     ",
"                    C q D ^ / E F                   G 6 / / / H                     ",
"                    I / / / / J                       6 / / / K                     ",
"                    L / / / 6 M                       N / / / O                     ",
"                    P / / / 6 Q                       l / / / R                     ",
"                    S T / / / U                       6 / / / V                     ",
"                    W X / / / Y                     Z 6 / / d `                     ",
"                      Z 5 / / d  .                ..+./ / / @.#.                    ",
"                        $./ / / / %.              @./ / / +.                        ",
"                          &.T / / / t *.=.-.%.;.q / / 6 >.,.                        ",
"                            '.u / / / / / / / / / / d ).                            ",
"                            !.~./ / / / / / / / / / d -.                            ",
"                        {.].^./ / / 6 +.u t /.(./ / / / _.:.                        ",
"                        <./ / / / @.[.          }./ / / / |.G                       ",
"                    1.R / / / d 2.                > X / / / d 3.                    ",
"                    4./ / / / 5.6.                  i 6 / / / |.                    ",
"                    T / / / 6 7.                      8./ / / / 8.                  ",
"                  9.6 / / / 5.                        0.T / / / ( a.                ",
"                  b./ / / / c.                        d.X / / / |.e.                ",
"                  f./ / / / g.                        h.( / / / q i.                ",
"                  j./ / / / &.                        k.( / / / q l.                ",
"                  m./ / / / n.                        o.X / / / p.q.                ",
"                  r.s./ / / @.                        t.d / / / u.v.                ",
"                    w./ / / 6 x.                      ~./ / / ^ y.                  ",
"                    z.^ / / / A.B.                  C.6 / / / D.E.                  ",
"                    F.G.^ / / / 5.                H.k / / / I.J.                    ",
"                      K.L.M./ / / N.O.P.Q.R.S.T.U./ / / / V.W.X.                    ",
"                        Y.Z.V.M./ / / q k k q d / / ^ `. +.+                        ",
"                          ++@+#+$+%+&+D ^ / ^ *+=+-+;+>+,+'+                        ",
"                              )+!+~+{+]+^+/+(+_+:+<+[+                              ",
"                                  }+|+1+2+3+4+5+6+7+                                ",
"                                                                                    ",
"                                                                                    "};
