/* XPM */
static const char *number_8_xpm[] = {
"64 64 328 2",
"  	c None",
". 	c #3E0409",
"+ 	c #3D0409",
"@ 	c #590B12",
"# 	c #9B252F",
"$ 	c #C0333F",
"% 	c #D83C4A",
"& 	c #E54150",
"* 	c #EF4352",
"= 	c #F44554",
"- 	c #F44655",
"; 	c #F14352",
"> 	c #E84351",
", 	c #DF3F4D",
"' 	c #CC3744",
") 	c #B22E39",
"! 	c #821B24",
"~ 	c #400409",
"{ 	c #861D27",
"] 	c #CF3845",
"^ 	c #F24B59",
"/ 	c #F66D78",
"( 	c #F7848D",
"_ 	c #F8939C",
": 	c #F99CA4",
"< 	c #FAA1AA",
"[ 	c #FAA5AD",
"} 	c #F999A2",
"| 	c #F44958",
"1 	c #F44857",
"2 	c #E94251",
"3 	c #BC313D",
"4 	c #681219",
"5 	c #6F141C",
"6 	c #D23A47",
"7 	c #F55A67",
"8 	c #F88891",
"9 	c #FAA2AA",
"0 	c #FAA6AE",
"a 	c #F14655",
"b 	c #BF333F",
"c 	c #550A11",
"d 	c #9E2630",
"e 	c #EF4554",
"f 	c #F55663",
"g 	c #FAA3AC",
"h 	c #F998A1",
"i 	c #F7838C",
"j 	c #F66E79",
"k 	c #F55E6A",
"l 	c #F4505E",
"m 	c #E64150",
"n 	c #7E1B23",
"o 	c #AF2C38",
"p 	c #F44756",
"q 	c #F44F5D",
"r 	c #F8959D",
"s 	c #F88B94",
"t 	c #F55F6B",
"u 	c #8A1F28",
"v 	c #A22731",
"w 	c #F55B67",
"x 	c #F8919A",
"y 	c #F66B76",
"z 	c #E3404E",
"A 	c #B7303C",
"B 	c #91212A",
"C 	c #781A22",
"D 	c #731A22",
"E 	c #811C25",
"F 	c #A42833",
"G 	c #CE3845",
"H 	c #EF4553",
"I 	c #791821",
"J 	c #71151D",
"K 	c #F04C59",
"L 	c #F99BA3",
"M 	c #F7858E",
"N 	c #ED4453",
"O 	c #A12731",
"P 	c #6A121A",
"Q 	c #D03946",
"R 	c #E2404E",
"S 	c #4A070D",
"T 	c #D13946",
"U 	c #F77E88",
"V 	c #E84251",
"W 	c #74151D",
"X 	c #B42F3A",
"Y 	c #AF2C37",
"Z 	c #7C1821",
"` 	c #F66C77",
" .	c #F997A0",
"..	c #F5616D",
"+.	c #7C1922",
"@.	c #C43440",
"#.	c #EA4251",
"$.	c #47040A",
"%.	c #B9303C",
"&.	c #520910",
"*.	c #EA4351",
"=.	c #90212A",
"-.	c #F24655",
";.	c #600D15",
">.	c #B32F3A",
",.	c #BC323E",
"'.	c #52040B",
").	c #D93C4A",
"!.	c #75151E",
"~.	c #D53B48",
"{.	c #73171F",
"].	c #C03440",
"^.	c #EF4453",
"/.	c #E03F4D",
"(.	c #771A22",
"_.	c #B72F3A",
":.	c #E54250",
"<.	c #E43F4D",
"[.	c #6E1119",
"}.	c #B7303B",
"|.	c #E74351",
"1.	c #DE3F4D",
"2.	c #430409",
"3.	c #F14554",
"4.	c #C53542",
"5.	c #4A040A",
"6.	c #F34655",
"7.	c #CD3844",
"8.	c #DA3D4A",
"9.	c #E4404E",
"0.	c #8A1E28",
"a.	c #AC2C37",
"b.	c #AD2C37",
"c.	c #851D26",
"d.	c #C83643",
"e.	c #F24756",
"f.	c #661119",
"g.	c #570A12",
"h.	c #EC4453",
"i.	c #DB3D4B",
"j.	c #CA3643",
"k.	c #A22832",
"l.	c #C2323F",
"m.	c #5D0D15",
"n.	c #EC4452",
"o.	c #641118",
"p.	c #C33440",
"q.	c #C73542",
"r.	c #50080F",
"s.	c #791820",
"t.	c #410409",
"u.	c #BF323E",
"v.	c #E74250",
"w.	c #A92A35",
"x.	c #5D0C13",
"y.	c #7A1720",
"z.	c #C33441",
"A.	c #F04554",
"B.	c #96222C",
"C.	c #9A252F",
"D.	c #EA4352",
"E.	c #F34756",
"F.	c #D73A47",
"G.	c #DA3C4A",
"H.	c #DE3F4C",
"I.	c #781821",
"J.	c #B9303B",
"K.	c #F04655",
"L.	c #EB4452",
"M.	c #A72A35",
"N.	c #C13440",
"O.	c #AA2A35",
"P.	c #440409",
"Q.	c #99242E",
"R.	c #8B1E28",
"S.	c #3F0409",
"T.	c #9F2630",
"U.	c #E5414F",
"V.	c #DC3E4B",
"W.	c #8C1F28",
"X.	c #651018",
"Y.	c #DD3E4C",
"Z.	c #C23541",
"`.	c #B72F3B",
" +	c #B52D39",
".+	c #BB333E",
"++	c #EB4352",
"@+	c #C53441",
"#+	c #4D080F",
"$+	c #791922",
"%+	c #E94351",
"&+	c #BE323E",
"*+	c #68121A",
"=+	c #420409",
"-+	c #91202A",
";+	c #D73B49",
">+	c #DC3D4B",
",+	c #580D14",
"'+	c #6F151C",
")+	c #E4414F",
"!+	c #7A1821",
"~+	c #9F2631",
"{+	c #4B080E",
"]+	c #48040A",
"^+	c #610D15",
"/+	c #861C25",
"(+	c #C1333F",
"_+	c #AB2C36",
":+	c #70151D",
"<+	c #9C2530",
"[+	c #801B23",
"}+	c #B32E39",
"|+	c #D43A47",
"1+	c #93222B",
"2+	c #580B12",
"3+	c #891E27",
"4+	c #630F16",
"5+	c #A32833",
"6+	c #B12F3A",
"7+	c #CB3743",
"8+	c #98232D",
"9+	c #D83B49",
"0+	c #F34352",
"a+	c #881F28",
"b+	c #AB2D38",
"c+	c #F34251",
"d+	c #DF3A48",
"e+	c #EE3D4B",
"f+	c #96232D",
"g+	c #B6303B",
"h+	c #DC3442",
"i+	c #E33342",
"j+	c #B02E3A",
"k+	c #CE2735",
"l+	c #D22231",
"m+	c #E64250",
"n+	c #B81322",
"o+	c #B40F1E",
"p+	c #F33A49",
"q+	c #920B17",
"r+	c #7E0813",
"s+	c #F22F3F",
"t+	c #CD3845",
"u+	c #EC2334",
"v+	c #4F050B",
"w+	c #DF1628",
"x+	c #F34150",
"y+	c #EE4554",
"z+	c #6C121A",
"A+	c #F33948",
"B+	c #C41122",
"C+	c #A00D1A",
"D+	c #F22536",
"E+	c #DD3E4B",
"F+	c #51080F",
"G+	c #68131A",
"H+	c #F44352",
"I+	c #F01C2F",
"J+	c #750711",
"K+	c #43040A",
"L+	c #DC1527",
"M+	c #F22E3E",
"N+	c #5F0D15",
"O+	c #74161F",
"P+	c #E44150",
"Q+	c #F12435",
"R+	c #C01121",
"S+	c #7A0813",
"T+	c #ED172B",
"U+	c #4D080E",
"V+	c #F44453",
"W+	c #E11528",
"X+	c #54050C",
"Y+	c #9A0C19",
"Z+	c #F0182C",
"`+	c #F22738",
" @	c #7B1A22",
".@	c #7E1A23",
"+@	c #9C2630",
"@@	c #F33E4E",
"#@	c #F11F32",
"$@	c #E8172A",
"%@	c #9C0C19",
"&@	c #EE172B",
"*@	c #F11B2E",
"=@	c #F23545",
"-@	c #F1182C",
";@	c #E61629",
">@	c #790813",
",@	c #810914",
"'@	c #E21628",
")@	c #F11D30",
"!@	c #F23343",
"~@	c #F33F4E",
"{@	c #F11A2D",
"]@	c #D31325",
"^@	c #64060F",
"/@	c #4E050B",
"(@	c #B50F1E",
"_@	c #EB172B",
":@	c #F12233",
"<@	c #F23040",
"[@	c #F33848",
"}@	c #F44252",
"|@	c #F33E4D",
"1@	c #F33747",
"2@	c #F22D3E",
"3@	c #F11E31",
"4@	c #E41629",
"5@	c #9E0C1A",
"6@	c #5B050D",
"7@	c #AD0E1D",
"8@	c #DD1527",
"9@	c #D41425",
"0@	c #9D0C1A",
"a@	c #49040A",
"b@	c #6D0710",
"c@	c #A30D1B",
"d@	c #D51426",
"e@	c #E8162A",
"f@	c #EF172B",
"g@	c #F1172B",
"h@	c #E7162A",
"i@	c #DF1528",
"j@	c #D21325",
"k@	c #BB1020",
"l@	c #990C19",
"m@	c #5E060D",
"                                                                                                                                ",
"                                                                                                                                ",
"                                                                                                                                ",
"                                                                                                                                ",
"                                                                                                                                ",
"                                                  . . . . . + + + + . . . . .                                                   ",
"                                              . . @ # $ % & * = - ; > , ' ) ! ~ . .                                             ",
"                                          . . { ] ^ / ( _ : < [ } | 1 1 1 1 1 2 3 4 . .                                         ",
"                                        . 5 6 7 8 9 0 0 0 0 0 0 } | 1 1 1 1 1 1 1 a b c .                                       ",
"                                      . d e f g 0 0 h i j k l | 1 1 1 1 1 1 1 1 1 1 1 m n .                                     ",
"                                    . o p 1 q r s t 1 1 1 1 1 1 1 1 1 1 1 1 1 1 1 1 1 1 e u .                                   ",
"                                  . v w x y 1 1 1 1 1 1 z A B C D E F G a 1 1 1 1 1 1 1 1 H I .                                 ",
"                                . J K L 0 M 1 1 1 1 N O ~ . . . . . . . P Q 1 1 1 1 1 1 1 1 R S                                 ",
"                                . T U 0 L q 1 1 1 V W .                 . . X 1 1 1 1 1 1 1 1 Y .                               ",
"                              . Z p `  ...1 1 1 a +..                       . @.1 1 1 1 1 1 1 #.$.                              ",
"                              . b 1 1 1 1 1 1 1 %..                         . &.*.1 1 1 1 1 1 1 =..                             ",
"                              . z 1 1 1 1 1 1 -.;..                           . >.1 1 1 1 1 1 1 ,..                             ",
"                            . '.p 1 1 1 1 1 1 )..                             . !.1 1 1 1 1 1 1 ~..                             ",
"                            . {.1 1 1 1 1 1 1 ]..                               . ^.1 1 1 1 1 1 /..                             ",
"                            . (.1 1 1 1 1 1 1 _..                               . :.1 1 1 1 1 1 <..                             ",
"                            . [.1 1 1 1 1 1 1 }..                               . |.1 1 1 1 1 1 1..                             ",
"                              2.3.1 1 1 1 1 1 4..                               5.6.1 1 1 1 1 1 7..                             ",
"                              . 8.1 1 1 1 1 1 9..                             . 0.1 1 1 1 1 1 1 a..                             ",
"                              . b.1 1 1 1 1 1 1 c..                           . d.1 1 1 1 1 1 e.f..                             ",
"                              . g.h.1 1 1 1 1 1 i.$.                        . +.e.1 1 1 1 1 1 j..                               ",
"                                . k.1 1 1 1 1 1 1 l.. .                   . m.z 1 1 1 1 1 1 n.o..                               ",
"                                  . p.1 1 1 1 1 1 1 q.r.. .           . . s.z 1 1 1 1 1 1 -.=..                                 ",
"                                    t.u.1 1 1 1 1 1 1 v.w.x.. . . . . y.z.a 1 1 1 1 1 1 A.B..                                   ",
"                                      . C.D.1 1 1 1 1 1 1 E.R F.T G.2 1 1 1 1 1 1 1 1 H.I..                                     ",
"                                        . g.J.K.1 1 1 1 1 1 1 1 1 1 1 1 1 1 1 1 1 L.M.$..                                       ",
"                                          . . N.1 1 1 1 1 1 1 1 1 1 1 1 1 1 1 1 1 O.. .                                         ",
"                                        . P.Q.> 1 1 1 1 1 1 1 1 1 1 1 1 1 1 1 1 1 1.R.. .                                       ",
"                                    . S.T.U.1 1 1 1 1 1 1 1 1 1 1 1 1 1 1 1 1 1 1 1 1 V.W.. .                                   ",
"                                  . X.~.1 1 1 1 1 1 1 1 E.Y.Z.`. +.+Q ++1 1 1 1 1 1 1 1 p @+#+.                                 ",
"                                . $+%+1 1 1 1 1 1 1 a &+*+. . . . . . =+-+;+1 1 1 1 1 1 1 1 >+,+.                               ",
"                              . '+D.1 1 1 1 1 1 1 )+!+. .               . . ~+A.1 1 1 1 1 1 1 i.{+.                             ",
"                              ]+Y.1 1 1 1 1 1 1 R ^+.                       . /+e 1 1 1 1 1 1 1 (+.                             ",
"                            . _+1 1 1 1 1 1 1 e :+.                           . <+1 1 1 1 1 1 1 E.[+.                           ",
"                            $.2 1 1 1 1 1 1 1 }+.                               . |+1 1 1 1 1 1 1 T .                           ",
"                          . 1+1 1 1 1 1 1 1 A.2+.                               . 3+1 1 1 1 1 1 1 e.4+.                         ",
"                          . ].1 1 1 1 1 1 1 T .                                   S.v.1 1 1 1 1 1 1 5+.                         ",
"                          . >+1 1 1 1 1 1 1 6+.                                   . 7+1 1 1 1 1 1 1 Z..                         ",
"                          . > 1 1 1 1 1 1 1 8+.                                   . }.1 1 1 1 1 1 1 9+.                         ",
"                          + 0+1 1 1 1 1 1 1 a+.                                   . b+1 1 1 1 1 1 1 1..                         ",
"                          + c+1 1 1 1 1 1 1 a+.                                   . b+1 1 1 1 1 1 1 d+.                         ",
"                          + e+1 1 1 1 1 1 1 f+.                                   . g+1 1 1 1 1 1 1 h+.                         ",
"                          . i+1 1 1 1 1 1 1 j+.                                   . j.1 1 1 1 1 1 1 k+.                         ",
"                          . l+1 1 1 1 1 1 1 T .                                   . m+1 1 1 1 1 1 - n+.                         ",
"                          . o+c+1 1 1 1 1 1 A.@ .                               . ! 1 1 1 1 1 1 1 p+q+.                         ",
"                          . r+s+1 1 1 1 1 1 1 }+.                               . t+1 1 1 1 1 1 p u+v+                          ",
"                            . w+x+1 1 1 1 1 1 y+z+.                           . W.p 1 1 1 1 1 1 A+B+.                           ",
"                            . C+D+p 1 1 1 1 1 1 E+F+.                       . G+%+1 1 1 1 1 1 H+I+J+.                           ",
"                              K+L+M+1 1 1 1 1 1 1 G.N+.                   . O+P+1 1 1 1 1 1 = Q+R+.                             ",
"                              . S+T+M+p 1 1 1 1 1 1 %+~+=+. . . . . . . U+Y e 1 1 1 1 1 1 V+D+W+X+.                             ",
"                                . Y+Z+`+H+1 1 1 1 1 1 1 m ,.f+ @D .@+@p.L.1 1 1 1 1 1 1 @@#@$@J+.                               ",
"                                  . %@&@*@=@- 1 1 1 1 1 1 1 1 1 1 1 1 1 1 1 1 1 1 1 V+s+-@;@>@.                                 ",
"                                    . ,@'@-@)@!@c+1 1 1 1 1 1 1 1 1 1 1 1 1 1 1 ~@s+{@-@]@^@.                                   ",
"                                      . /@(@_@-@-@:@<@[@~@H+= p 1 p = }@|@1@2@3@-@-@4@5@S..                                     ",
"                                          . 6@7@8@-@-@-@-@-@-@-@-@-@-@-@-@-@-@Z+9@0@a@.                                         ",
"                                            . . . b@c@R+d@W+e@f@g@f@h@i@j@k@l@m@. .                                             ",
"                                                  . . . . . . + + + . . . . . .                                                 ",
"                                                                                                                                ",
"                                                                                                                                ",
"                                                                                                                                "};
