/* XPM */
static const char *number_9_xpm[] = {
"64 64 298 2",
"  	c None",
". 	c #470000",
"+ 	c #460000",
"@ 	c #5F0808",
"# 	c #A32D2D",
"$ 	c #CA3F3F",
"% 	c #E54A4A",
"& 	c #F15050",
"* 	c #FD5252",
"= 	c #FF5656",
"- 	c #FF5454",
"; 	c #F95252",
"> 	c #EE4F4F",
", 	c #DE4747",
"' 	c #C33B3B",
") 	c #962626",
"! 	c #520000",
"~ 	c #891F1F",
"{ 	c #D54343",
"] 	c #FB5959",
"^ 	c #FF8181",
"/ 	c #FF9C9C",
"( 	c #FFAFAF",
"_ 	c #FFB9B9",
": 	c #FFC0C0",
"< 	c #FFC3C3",
"[ 	c #FFA2A2",
"} 	c #FF5858",
"| 	c #F65353",
"1 	c #C93D3D",
"2 	c #711414",
"3 	c #721414",
"4 	c #D84545",
"5 	c #FF5757",
"6 	c #FF8989",
"7 	c #FFBEBE",
"8 	c #FFC4C4",
"9 	c #FC5555",
"0 	c #C63C3C",
"a 	c #580606",
"b 	c #A52D2D",
"c 	c #F95454",
"d 	c #FFB6B6",
"e 	c #FF9B9B",
"f 	c #FF8383",
"g 	c #FF7070",
"h 	c #FF5F5F",
"i 	c #FF5959",
"j 	c #ED4E4E",
"k 	c #801C1C",
"l 	c #BD3939",
"m 	c #FF6C6C",
"n 	c #FFAEAE",
"o 	c #FF9797",
"p 	c #FF5D5D",
"q 	c #FF6E6E",
"r 	c #FA5454",
"s 	c #922424",
"t 	c #BE3939",
"u 	c #FF7373",
"v 	c #FFBCBC",
"w 	c #F35151",
"x 	c #CE4141",
"y 	c #B63737",
"z 	c #AF3434",
"A 	c #B83737",
"B 	c #CF4141",
"C 	c #F25050",
"D 	c #8B2121",
"E 	c #FFA4A4",
"F 	c #FF6262",
"G 	c #F55252",
"H 	c #A92F2F",
"I 	c #4D0000",
"J 	c #490000",
"K 	c #9F2A2A",
"L 	c #EE4E4E",
"M 	c #F45252",
"N 	c #6B1010",
"O 	c #731414",
"P 	c #FF6F6F",
"Q 	c #FF9292",
"R 	c #E74C4C",
"S 	c #6C1010",
"T 	c #540505",
"U 	c #D03F3F",
"V 	c #DD4646",
"W 	c #5F0C0C",
"X 	c #CA3C3C",
"Y 	c #A22B2B",
"Z 	c #871F1F",
"` 	c #7D1B1B",
" .	c #4A0000",
"..	c #DF4747",
"+.	c #4E0000",
"@.	c #D34343",
"#.	c #FB5555",
"$.	c #A42E2E",
"%.	c #5B0606",
"&.	c #660C0C",
"*.	c #E34949",
"=.	c #A02B2B",
"-.	c #D94545",
";.	c #771616",
">.	c #761616",
",.	c #C93E3E",
"'.	c #B03232",
").	c #E84C4C",
"!.	c #BA3737",
"~.	c #E44A4A",
"{.	c #861F1F",
"].	c #C63D3D",
"^.	c #E24949",
"/.	c #600000",
"(.	c #AA2F2F",
"_.	c #570000",
":.	c #FD5353",
"<.	c #FF5353",
"[.	c #8F2323",
"}.	c #8D2323",
"|.	c #FC5252",
"1.	c #811F1F",
"2.	c #B63535",
"3.	c #7F1F1F",
"4.	c #CC4040",
"5.	c #640101",
"6.	c #8E2222",
"7.	c #E14848",
"8.	c #EA4D4D",
"9.	c #882121",
"0.	c #D44242",
"a.	c #B43434",
"b.	c #CC3F3F",
"c.	c #F85252",
"d.	c #B13333",
"e.	c #4B0000",
"f.	c #FD5656",
"g.	c #610000",
"h.	c #D04040",
"i.	c #780000",
"j.	c #A52E2E",
"k.	c #FE5757",
"l.	c #972525",
"m.	c #CC3E3E",
"n.	c #790202",
"o.	c #4C0000",
"p.	c #EC4D4D",
"q.	c #801B1B",
"r.	c #BB3838",
"s.	c #952626",
"t.	c #972626",
"u.	c #610A0A",
"v.	c #D34141",
"w.	c #6E0000",
"x.	c #C83D3D",
"y.	c #8B2020",
"z.	c #701313",
"A.	c #F65252",
"B.	c #5A0000",
"C.	c #510101",
"D.	c #DD4747",
"E.	c #F55151",
"F.	c #E34848",
"G.	c #D74545",
"H.	c #DF4646",
"I.	c #FF5151",
"J.	c #480000",
"K.	c #590606",
"L.	c #E04848",
"M.	c #C53E3E",
"N.	c #F05050",
"O.	c #F64C4C",
"P.	c #510000",
"Q.	c #C73C3C",
"R.	c #FC5656",
"S.	c #AB3030",
"T.	c #711212",
"U.	c #ED4545",
"V.	c #912323",
"W.	c #E74B4B",
"X.	c #7E1B1B",
"Y.	c #E84D4D",
"Z.	c #E33D3D",
"`.	c #982626",
" +	c #D64444",
".+	c #F85353",
"++	c #D04141",
"@+	c #CF3030",
"#+	c #851D1D",
"$+	c #A62D2D",
"%+	c #B53737",
"&+	c #BB3737",
"*+	c #B43737",
"=+	c #A32B2B",
"-+	c #801A1A",
";+	c #BB1D1D",
">+	c #670909",
",+	c #FF5252",
"'+	c #9B0B0B",
")+	c #FF4747",
"!+	c #6B0202",
"~+	c #B83636",
"{+	c #EF3535",
"]+	c #D64343",
"^+	c #CF1A1A",
"/+	c #FF4848",
"(+	c #9F0C0C",
"_+	c #982828",
":+	c #E64C4C",
"<+	c #CD4040",
"[+	c #7D1A1A",
"}+	c #7B1717",
"|+	c #F93030",
"1+	c #560101",
"2+	c #9A2828",
"3+	c #FD5757",
"4+	c #BA3636",
"5+	c #FF4D4D",
"6+	c #D11717",
"7+	c #E54747",
"8+	c #550303",
"9+	c #EA4C4C",
"0+	c #FF3333",
"a+	c #890707",
"b+	c #EF3E3E",
"c+	c #A93030",
"d+	c #962525",
"e+	c #FF4949",
"f+	c #E11A1A",
"g+	c #E22323",
"h+	c #4F0000",
"i+	c #560606",
"j+	c #FF2828",
"k+	c #900909",
"l+	c #BB1212",
"m+	c #FF4242",
"n+	c #C03939",
"o+	c #FF3535",
"p+	c #D61818",
"q+	c #690303",
"r+	c #FA2121",
"s+	c #FF4F4F",
"t+	c #AE3232",
"u+	c #550606",
"v+	c #FF3D3D",
"w+	c #F51E1E",
"x+	c #BF1313",
"y+	c #CF4040",
"z+	c #640B0B",
"A+	c #942424",
"B+	c #FF3E3E",
"C+	c #FD2020",
"D+	c #980A0A",
"E+	c #E51B1B",
"F+	c #FF2727",
"G+	c #CE4040",
"H+	c #A32C2C",
"I+	c #851F1F",
"J+	c #7E1F1F",
"K+	c #E74A4A",
"L+	c #FF5555",
"M+	c #FF3737",
"N+	c #FF2121",
"O+	c #B11010",
"P+	c #6C0202",
"Q+	c #EE1C1C",
"R+	c #FF2222",
"S+	c #FF3F3F",
"T+	c #FF4A4A",
"U+	c #FF2929",
"V+	c #FE2121",
"W+	c #B41010",
"X+	c #660202",
"Y+	c #FF4444",
"Z+	c #FF3030",
"`+	c #F81F1F",
" @	c #9D0C0C",
".@	c #B81111",
"+@	c #F91F1F",
"@@	c #FF2323",
"#@	c #FF3636",
"$@	c #FF2525",
"%@	c #6E0303",
"&@	c #C71414",
"*@	c #F71F1F",
"=@	c #FA1F1F",
"-@	c #D31717",
";@	c #860707",
">@	c #540000",
",@	c #C61515",
"'@	c #F01D1D",
")@	c #FA1E1E",
"!@	c #FF2020",
"~@	c #FF1F1F",
"{@	c #F91E1E",
"]@	c #EF1D1D",
"^@	c #E01A1A",
"/@	c #5A0101",
"                                                                                                                                ",
"                                                                                                                                ",
"                                                                                                                                ",
"                                                                                                                                ",
"                                                                                                                                ",
"                                                    . . . . + + + . . . . .                                                     ",
"                                              . . @ # $ % & * = - ; > , ' ) ! . .                                               ",
"                                          . . ~ { ] ^ / ( _ : < [ } } } } } | 1 2 .                                             ",
"                                        . 3 4 5 6 7 8 8 8 8 8 8 [ } } } } } } } 9 0 a .                                         ",
"                                      . b c } } [ 8 d e f g h i } } } } } } } } } } j k .                                       ",
"                                    . l m n o } p q } } } } } } } } } } } } } } } } } r s .                                     ",
"                                  . t u v 8 n } } } } } w x y z A B C } } } } } } } } } r D .                                   ",
"                                . b 5 E 8 ( F } } } G H I . . . . . J K L } } } } } } } } M N .                                 ",
"                              . O c } P Q p } } } R S .               . T U } } } } } } } } V .                                 ",
"                              . 4 } } } } } } } j W .                     . X } } } } } } } } Y .                               ",
"                            . Z 5 } } } } } } 9 ` .                          ...} } } } } } } > +.                              ",
"                            . @.} } } } } } } ' .                           . 3 #.} } } } } } } $..                             ",
"                            %.r } } } } } } #.&..                             . 1 } } } } } } } *..                             ",
"                          . =.} } } } } } } -..                               . ;.5 } } } } } } 5 >..                           ",
"                          . ,.} } } } } } } '..                                 . ).} } } } } } } !..                           ",
"                          . ~.} } } } } } } {..                                 . ].} } } } } } } ^..                           ",
"                          . & } } } } } } } /..                                 . (.} } } } } } } 9 _.                          ",
"                          + :.} } } } } } <.+                                   . [.} } } } } } } } }..                         ",
"                          + 5 } } } } } } |.+                                   . 1.} } } } } } } } 2..                         ",
"                          + - } } } } } } <.+                                   . 3.} } } } } } } } 4..                         ",
"                          . G } } } } } } } 5..                                 . 6.} } } } } } } } 7..                         ",
"                          . 8.} } } } } } } 9..                                 . (.} } } } } } } } j .                         ",
"                          . 0.} } } } } } } a..                                 . b.} } } } } } } } c..                         ",
"                          . d.} } } } } } } , .                                 e.C } } } } } } } } =  .                        ",
"                          . O 5 } } } } } } f.2 .                             . Y } } } } } } } } } } g..                       ",
"                            . ~.} } } } } } } h..                             T L } } } } } } } } } } i..                       ",
"                            . j.} } } } } } } k.l..                         . m.} } } } } } } } } } } n..                       ",
"                              o.p.} } } } } } } | q..                   . . r.} } } } } } } } } } } } i..                       ",
"                              . s.5 } } } } } } } | t.. .           . . u.v.} } } } } } } } } } } } 5 w..                       ",
"                                . x.} } } } } } } } 5 { y.. . . . . z.l A.} } } } } } } } } } } } } - B..                       ",
"                                  C.D.} } } } } } } } } } E.F.G.H.> 5 } } } } } } } } } } } } } } } I.J.                        ",
"                                  . K.D.} } } } } } } } } } } } } } } } } } } L.M.N.} } } } } } } } O..                         ",
"                                    . P.Q.k.} } } } } } } } } } } } } } } R.S.. . T.#.} } } } } } } U..                         ",
"                                        . V.W.} } } } } } } } } } } } 5 V X..     . Y.} } } } } } } Z..                         ",
"                                          . . `. +.+} } } } } } } A.++~ . .       . Y.} } } } } } } @+.                         ",
"                                              . . o.#+$+%+&+*+=+-+J . .           . E.} } } } } } } ;+.                         ",
"                                                    . . . . . . .               . >+} } } } } } } ,+'+.                         ",
"                                                                                . s } } } } } } } )+!+.                         ",
"                                                                                . ~+} } } } } } } {+.                           ",
"                                                                                . ]+} } } } } } = ^+.                           ",
"                                  . . . . .                                     . C } } } } } } /+(+.                           ",
"                                . _+V :+<+[+.                                 . }+} } } } } } } |+1+                            ",
"                              . 2+3+} } } #.s..                               . 4+} } } } } } 5+6+.                             ",
"                              . 7+} } } } } w 8+                              . 9+} } } } } } 0+a+.                             ",
"                              . b+} } } } } } c+.                           . d+} } } } } } e+f+.                               ",
"                              . g+= } } } } } p.h+                        . i+p.} } } } } - j+k+.                               ",
"                              . l+m+} } } } } } n+.                     . e.]+} } } } } 5 o+p+.                                 ",
"                              . q+r+s+} } } } } k.t+. .               . u+{ } } } } } } v+w+q+.                                 ",
"                                . x+j+I.} } } } } 5 y+z+. . . . . . . A+p.} } } } } 5 B+C+D+.                                   ",
"                                  ! E+F+5+} } } } } } c G+H+I+J+s &+K+} } } } } } L+M+N+O+.                                     ",
"                                  . P+Q+R+S+= } } } } } } } } } } } } } } } } } T+U+V+W+.                                       ",
"                                    . X+f+N+U+Y+L+} } } } } } } } } } } } = e+Z+N+`+ @.                                         ",
"                                      . o..@+@N+@@#@Y+5+,+L+5 5 L+,+5+Y+M+$@N+N+p+%@.                                           ",
"                                          . q+&@*@N+N+N+N+N+N+N+N+N+N+N+N+=@-@;@. .                                             ",
"                                            . . >@'+,@f+'@)@!@~@{@]@^@,@ @/@. .                                                 ",
"                                                  . . . . + + + . . . . .                                                       ",
"                                                                                                                                ",
"                                                                                                                                ",
"                                                                                                                                "};
