/* XPM */
static char * 9_xpm[] = {
"42 42 193 2",
"  	c None",
". 	c #A22B2B",
"+ 	c #CF5959",
"@ 	c #EB7676",
"# 	c #F98484",
"$ 	c #FF8A8A",
"% 	c #FF7070",
"& 	c #F75353",
"* 	c #E74C4C",
"= 	c #C93F3F",
"- 	c #9B2C2C",
"; 	c #AE3333",
"> 	c #F25A5A",
", 	c #FDA4A4",
"' 	c #FFBBBB",
") 	c #FFBFBF",
"! 	c #FFC1C1",
"~ 	c #FFC2C2",
"{ 	c #FF9191",
"] 	c #FF5757",
"^ 	c #FF5858",
"/ 	c #FC5656",
"( 	c #ED4F4F",
"_ 	c #D45353",
": 	c #FF7C7C",
"< 	c #FF6363",
"[ 	c #FFA0A0",
"} 	c #FF9595",
"| 	c #FF7878",
"1 	c #FF6262",
"2 	c #FF5656",
"3 	c #FD5757",
"4 	c #C33D3D",
"5 	c #DF5A5A",
"6 	c #FFB4B4",
"7 	c #FF5C5C",
"8 	c #FF5A5A",
"9 	c #FE5757",
"0 	c #F45252",
"a 	c #CD4141",
"b 	c #B93939",
"c 	c #C43D3D",
"d 	c #E94D4D",
"e 	c #FC5757",
"f 	c #CB4040",
"g 	c #D14242",
"h 	c #FF7A7A",
"i 	c #FFACAC",
"j 	c #FF7474",
"k 	c #FA5555",
"l 	c #BD3A3A",
"m 	c #932727",
"n 	c #E54B4B",
"o 	c #B03333",
"p 	c #A12E2E",
"q 	c #FF5959",
"r 	c #FF5E5E",
"s 	c #AA3333",
"t 	c #DF4848",
"u 	c #F75454",
"v 	c #DE4949",
"w 	c #D64545",
"x 	c #771A1A",
"y 	c #F45353",
"z 	c #FE5858",
"A 	c #C74040",
"B 	c #FD5656",
"C 	c #BD3939",
"D 	c #F35252",
"E 	c #B83737",
"F 	c #DF4949",
"G 	c #A32E2E",
"H 	c #DD4848",
"I 	c #C33E3E",
"J 	c #E04A4A",
"K 	c #DD4747",
"L 	c #EF4E4E",
"M 	c #B33535",
"N 	c #CC4141",
"O 	c #F55353",
"P 	c #F55252",
"Q 	c #C23E3E",
"R 	c #F95555",
"S 	c #862121",
"T 	c #EF4F4F",
"U 	c #B53737",
"V 	c #C53E3E",
"W 	c #9E2D2D",
"X 	c #C84040",
"Y 	c #AC3434",
"Z 	c #BC3838",
"` 	c #F35151",
" .	c #B73838",
"..	c #8B2323",
"+.	c #AE3232",
"@.	c #C03B3B",
"#.	c #E14A4A",
"$.	c #E74D4D",
"%.	c #F25252",
"&.	c #C53B3B",
"*.	c #A32F2F",
"=.	c #7B1C1C",
"-.	c #E44B4B",
";.	c #C43B3B",
">.	c #D54444",
",.	c #E54C4C",
"'.	c #972828",
").	c #BE3939",
"!.	c #F75252",
"~.	c #ED4E4E",
"{.	c #F15252",
"].	c #B63434",
"^.	c #FB5656",
"/.	c #C73F3F",
"(.	c #AC2D2D",
"_.	c #A73030",
":.	c #E34B4B",
"<.	c #D44444",
"[.	c #7D1C1C",
"}.	c #A02F2F",
"|.	c #9F2323",
"1.	c #BE3B3B",
"2.	c #B73737",
"3.	c #A93232",
"4.	c #FA5454",
"5.	c #890F0F",
"6.	c #C03C3C",
"7.	c #F74B4B",
"8.	c #660000",
"9.	c #D84646",
"0.	c #E73737",
"a.	c #F15050",
"b.	c #FF5555",
"c.	c #BA1C1C",
"d.	c #FD4848",
"e.	c #932626",
"f.	c #C83D3D",
"g.	c #DE2F2F",
"h.	c #B22828",
"i.	c #FE5656",
"j.	c #FD4747",
"k.	c #A80E0E",
"l.	c #9B0C0C",
"m.	c #FC4B4B",
"n.	c #EC4F4F",
"o.	c #FF5151",
"p.	c #E72424",
"q.	c #EF2727",
"r.	c #FF5353",
"s.	c #CA3F3F",
"t.	c #F83030",
"u.	c #FB3131",
"v.	c #FF5252",
"w.	c #E94E4E",
"x.	c #B33636",
"y.	c #7F1C1C",
"z.	c #681313",
"A.	c #7F1D1D",
"B.	c #E64C4C",
"C.	c #FE3131",
"D.	c #AE0F0F",
"E.	c #B71111",
"F.	c #FA2727",
"G.	c #FF4A4A",
"H.	c #FF4848",
"I.	c #FA2626",
"J.	c #9E0D0D",
"K.	c #EF1E1E",
"L.	c #FF3232",
"M.	c #FF4141",
"N.	c #FF4D4D",
"O.	c #FF5454",
"P.	c #FF3E3E",
"Q.	c #FF2F2F",
"R.	c #EA1C1C",
"S.	c #970C0C",
"T.	c #BE1313",
"U.	c #EC1D1D",
"V.	c #F62020",
"W.	c #FC2222",
"X.	c #FF2222",
"Y.	c #FF2323",
"Z.	c #FE2222",
"`.	c #FA2121",
" +	c #F42020",
".+	c #E71C1C",
"++	c #AE1010",
"@+	c #820808",
"#+	c #950C0C",
"$+	c #A00E0E",
"%+	c #9C0D0D",
"&+	c #900B0B",
"*+	c #780606",
"                                                                                    ",
"                                                                                    ",
"                                                                                    ",
"                                                                                    ",
"                                . + @ # $ % & * = -                                 ",
"                            ; > , ' ) ! ~ { ] ^ ^ / (                               ",
"                          _ : < [ } | 1 2 ] ^ ^ ^ ^ ^ 3 4                           ",
"                        5 6 6 7 8 9 0 a b c d e ^ ^ ^ ^ 9 f                         ",
"                      g h i j ^ k l           m n ^ ^ ^ ^ 9 o                       ",
"                    p / q r ^ / s                 t ^ ^ ^ ^ u                       ",
"                    v ^ ^ ^ ^ w                   x y ^ ^ ^ z A                     ",
"                    B ^ ^ ^ B                       C ^ ^ ^ ^ D                     ",
"                  E q ^ ^ ^ F                         k ^ ^ ^ q G                   ",
"                  H ^ ^ ^ ^ I                         J ^ ^ ^ ^ K                   ",
"                  L ^ ^ ^ ^ M                         N ^ ^ ^ ^ O                   ",
"                  P ^ ^ ^ ] ;                         Q ^ ^ ^ ^ R S                 ",
"                  T ^ ^ ^ ^ U                         V ^ ^ ^ ^ / W                 ",
"                  F ^ ^ ^ ^ X                         w ^ ^ ^ ^ 9 Y                 ",
"                  Z q ^ ^ ^ *                         ` ^ ^ ^ ^ ^  .                ",
"                    9 ^ ^ ^ ^ ..                    +.^ ^ ^ ^ ^ ^ @.                ",
"                    #.^ ^ ^ ^ $.                    %.^ ^ ^ ^ ^ ^ &.                ",
"                    *.3 ^ ^ ^ z N               =.-.^ ^ ^ ^ ^ ^ ^ ;.                ",
"                      >.^ ^ ^ ^ z ,.'.        l D ^ ^ ^ ^ ^ ^ ^ ^ ).                ",
"                        #.^ ^ ^ ^ ^ ^ !.* ~.3 ^ ^ 3 {.3 ^ ^ ^ ^ ] ].                ",
"                          >.z ^ ^ ^ ^ ^ ^ ^ ^ ^ ^.    /.^ ^ ^ ^ B (.                ",
"                            _.:.k q ^ ^ q ^ 0 <.[.    }.e ^ ^ ^ / |.                ",
"                                  G 1.c 2.            3.9 ^ ^ ^ 4.5.                ",
"                                                      6.^ ^ ^ ^ 7.8.                ",
"                                                      9.^ ^ ^ ^ 0.                  ",
"                                                      a.^ ^ ^ b.c.                  ",
"                        H c                           ^ ^ ^ ^ d.                    ",
"                    e./ ^ ^ :.                      f.^ ^ ^ ] g.                    ",
"                    h.i.^ ^ ^                       %.^ ^ ^ j.k.                    ",
"                    l.m.^ ^ ^ n.                  f 9 ^ ^ o.p.                      ",
"                      q.r.^ ^ ^ <.              s.z ^ ^ b.t.                        ",
"                        u.v.^ ^ ^ w.x.y.z.A.M B.^ ^ ^ o.C.D.                        ",
"                        E.F.G.2 ^ ^ z e e e 9 ^ ^ b.H.I.                            ",
"                          J.K.L.M.N.O.] ^ 2 v.G.P.Q.R.S.                            ",
"                              T.U.V.W.X.Y.Z.`. +.+++                                ",
"                                  @+#+J.$+%+&+*+                                    ",
"                                                                                    ",
"                                                                                    "};
