/* XPM */
static const char* 1553031_d_letter_red_alphabet_letters_icon_xpm[] = {
"64 64 186 2",
"  	c None",
". 	c #330910",
"+ 	c #320910",
"@ 	c #3E0B12",
"# 	c #A31E2B",
"$ 	c #D52839",
"% 	c #E82C3F",
"& 	c #F12F41",
"* 	c #F42F42",
"= 	c #F22F42",
"- 	c #EE2E40",
"; 	c #E92D3F",
"> 	c #E42B3D",
", 	c #DC2A3B",
"' 	c #CC2637",
") 	c #B92231",
"! 	c #9E1D2A",
"~ 	c #71131E",
"{ 	c #350910",
"] 	c #D42839",
"^ 	c #F66E75",
"/ 	c #FABCBE",
"( 	c #FABEC0",
"_ 	c #F9B4B6",
": 	c #F4414F",
"< 	c #FABCBF",
"[ 	c #F67179",
"} 	c #EA2D3F",
"| 	c #C62535",
"1 	c #861823",
"2 	c #FBCBCD",
"3 	c #FFFFFF",
"4 	c #F79398",
"5 	c #FBCED0",
"6 	c #8C1925",
"7 	c #CA2636",
"8 	c #520E16",
"9 	c #E52C3E",
"0 	c #75141F",
"a 	c #F22F41",
"b 	c #ED2E40",
"c 	c #851723",
"d 	c #F12E41",
"e 	c #EF2E41",
"f 	c #821722",
"g 	c #991B28",
"h 	c #350911",
"i 	c #490D15",
"j 	c #6B121C",
"k 	c #811622",
"l 	c #9F1D2A",
"m 	c #BA2231",
"n 	c #D7293A",
"o 	c #F02E41",
"p 	c #EB2D40",
"q 	c #6A121C",
"r 	c #460C14",
"s 	c #951B27",
"t 	c #D6293A",
"u 	c #DE2A3C",
"v 	c #420B13",
"w 	c #941A27",
"x 	c #B82231",
"y 	c #66111B",
"z 	c #E32B3D",
"A 	c #6F131D",
"B 	c #61101A",
"C 	c #E62C3E",
"D 	c #CD2737",
"E 	c #7B1520",
"F 	c #F32F42",
"G 	c #72131E",
"H 	c #B32130",
"I 	c #C12434",
"J 	c #430B13",
"K 	c #EC2D40",
"L 	c #AA1F2D",
"M 	c #911A26",
"N 	c #540E17",
"O 	c #E22B3D",
"P 	c #AF202E",
"Q 	c #560F17",
"R 	c #831723",
"S 	c #871823",
"T 	c #A91F2D",
"U 	c #BB2332",
"V 	c #DF2A3C",
"W 	c #C92636",
"X 	c #D8293A",
"Y 	c #DD2A3B",
"Z 	c #C82636",
"` 	c #E02B3C",
" .	c #C72535",
"..	c #C82535",
"+.	c #E12B3C",
"@.	c #DD2B3B",
"#.	c #D32839",
"$.	c #D62A3A",
"%.	c #CE2837",
"&.	c #BF2533",
"*.	c #410B13",
"=.	c #AC222E",
"-.	c #77151F",
";.	c #931E27",
">.	c #A21D2B",
",.	c #EF2F40",
"'.	c #73171E",
").	c #E52F3E",
"!.	c #4D0E15",
"~.	c #360911",
"{.	c #CD2B37",
"].	c #A6242C",
"^.	c #7E1A21",
"/.	c #68121B",
"(.	c #CF2D38",
"_.	c #410C13",
":.	c #CB2636",
"<.	c #E92F3F",
"[.	c #A4242C",
"}.	c #931A27",
"|.	c #D32E39",
"1.	c #66141B",
"2.	c #6E131D",
"3.	c #E32F3D",
"4.	c #AE262F",
"5.	c #ED2F40",
"6.	c #CC2E37",
"7.	c #63131A",
"8.	c #891824",
"9.	c #D22E39",
"0.	c #9C222A",
"a.	c #73141E",
"b.	c #D62E3A",
"c.	c #BB2A32",
"d.	c #3F0B12",
"e.	c #9A1C29",
"f.	c #360A11",
"g.	c #370A11",
"h.	c #3C0A12",
"i.	c #470C14",
"j.	c #60101A",
"k.	c #D72E3A",
"l.	c #C52C35",
"m.	c #5D1219",
"n.	c #EE2F40",
"o.	c #EF2F41",
"p.	c #D42E39",
"q.	c #C82D36",
"r.	c #70171E",
"s.	c #E52D3E",
"t.	c #E62F3E",
"u.	c #CF2E38",
"v.	c #74181F",
"w.	c #D22B39",
"x.	c #EB2F3F",
"y.	c #C02B34",
"z.	c #67151B",
"A.	c #B22730",
"B.	c #EB2F40",
"C.	c #F02F41",
"D.	c #E42F3D",
"E.	c #A7242C",
"F.	c #490D14",
"G.	c #8E1E26",
"H.	c #CD2E37",
"I.	c #DE2E3C",
"J.	c #E82F3F",
"K.	c #DC2E3B",
"L.	c #B32830",
"M.	c #6F171D",
"N.	c #B62831",
"O.	c #C12B34",
"P.	c #A0232A",
"Q.	c #3D0B12",
"R.	c #8E1E25",
"S.	c #C22C34",
"T.	c #CA2E36",
"U.	c #CB2E37",
"V.	c #C92D36",
"W.	c #C42C35",
"X.	c #C02B33",
"Y.	c #B92932",
"Z.	c #AE262E",
"`.	c #9E222A",
" +	c #871C24",
".+	c #60131A",
"                                                                                                                                ",
"                                                                                                                                ",
"                                                                                                                                ",
"                                                                                                                                ",
"                                . . . . . . . . . . . . . . .                                                                   ",
"                        . . . + + + + + + + + + + + + + + + + + + . . . . . . .                                                 ",
"                    . @ # $ % & * * * * * * * * * * * * * * * = - ; > , ' ) ! ~ { . .                                           ",
"                    @ ] * * * * * * * ^ / ( _ : * ^ / ( ( ( ( ( ( ( < [ * * * * } | 1 . .                                       ",
"                  . # * * * * * * * * 2 3 3 3 4 * 2 3 3 3 3 3 3 3 3 3 5 * * * * * * * , 6 . .                                   ",
"                  . $ * * * * * * * * ^ / ( _ : * ^ / ( ( ( ( ( ( ( < [ * * * * * * * * * 7 8 .                                 ",
"                  . % * * * * * * * * * * * * * * * * * * * * * * * * * * * * * * * * * * * 9 0 .                               ",
"                  + a * * * * * * * * * * * * * * * * * * * * * * * * * * * * * * * * * * * * b c .                             ",
"                . + * * * * * * * * * d e e e e e e e e & * * * * * * * * * * * * * * * * * * * e f .                           ",
"                . + * * * * * * * * * g + + + + + + + + + h i j k l m n o * * * * * * * * * * * * p q .                         ",
"                . + * * * * * * * * * g .                 . . . . . . . r s t * * * * * * * * * * * u v                         ",
"                . + * * * * * * * * * g .                                 . . w } * * * * * * * * * * x .                       ",
"                . + * * * * * * * * * g .                                     . y z * * * * * * * * * d A .                     ",
"                . + * * * * * * * * * g .                                       . B C * * * * * * * * * D .                     ",
"                . + * * * * * * * * * g .                                         . E d * * * * * * * * F G .                   ",
"                . + * * * * * * * * * g .                                           . H * * * * * * * * * I .                   ",
"                . + * * * * * * * * * g .                                             J C * * * * * * * * K J                   ",
"                . + * * * * * * * * * g .                                             . L * * * * * * * * * M .                 ",
"                . + * * * * * * * * * g .                                             . N d * * * * * * * * I .                 ",
"                . + * * * * * * * * * g .                                               . ] * * * * * * * * O .                 ",
"                . + * * * * * * * * * g .                                               . P * * * * * * * * * Q .               ",
"                . + * * * * * * * * * g .                                               . R * * * * * * * * * S .               ",
"                . + * * * * * * * * * g .                                               . N * * * * * * * * * T .               ",
"                . + * * * * * * * * * g .                                                 . } * * * * * * * * U .               ",
"                . + * * * * * * * * * g .                                                 . V * * * * * * * * W .               ",
"                . + * * * * * * * * * g .                                                 . n * * * * * * * * X .               ",
"                . + * * * * * * * * * g .                                                 . D * * * * * * * * Y .               ",
"                . + * * * * * * * * * g .                                                 . Z * * * * * * * * ` .               ",
"                . + * * * * * * * * * g .                                                 .  .* * * * * * * * O .               ",
"                . + * * * * * * * * * g .                                                 . ..* * * * * * * * +..               ",
"                . + * * * * * * * * * g .                                                 . 7 * * * * * * * * @..               ",
"                . + * * * * * * * * * g .                                                 . #.* * * * * * * * $..               ",
"                . + * * * * * * * * * g .                                                 . Y * * * * * * * * %..               ",
"                . + * * * * * * * * * g .                                                 . C * * * * * * * * &..               ",
"                . + * * * * * * * * * g .                                                 *.F * * * * * * * * =..               ",
"                . + * * * * * * * * * g .                                               . -.* * * * * * * * * ;..               ",
"                . + * * * * * * * * * g .                                               . >.* * * * * * * * ,.'..               ",
"                . + * * * * * * * * * g .                                               . | * * * * * * * * ).!..               ",
"                . + * * * * * * * * * g .                                               ~.; * * * * * * * * {..                 ",
"                . + * * * * * * * * * g .                                             . 1 * * * * * * * * a ]..                 ",
"                . + * * * * * * * * * g .                                             . W * * * * * * * * ).^..                 ",
"                . + * * * * * * * * * g .                                           . /.d * * * * * * * * (._.                  ",
"                . + * * * * * * * * * g .                                           . :.* * * * * * * * <.[..                   ",
"                . + * * * * * * * * * g .                                         . }.* * * * * * * * F |.1..                   ",
"                . + * * * * * * * * * g .                                       . 2.K * * * * * * * * 3.4..                     ",
"                . + * * * * * * * * * g .                                     . j C * * * * * * * * 5.6.7..                     ",
"                . + * * * * * * * * * g .                                 . . 8.} * * * * * * * * & 9.0..                       ",
"                . + * * * * * * * * * g . . . . . . . . . . . . . . . . . a...F * * * * * * * * F b.c.d.                        ",
"                . + a * * * * * * * * e.f.f.f.f.f.f.f.f.f.g.h.i.j.0 w x u * * * * * * * * * * a k.l.m..                         ",
"                  + n.* * * * * * * * * * * * * * * * * * * * * * * * * * * * * * * * * * * o.p.q.r..                           ",
"                  . s.* * * * * * * * * * * * * * * * * * * * * * * * * * * * * * * * * * t.u.q.v..                             ",
"                  . w.* * * * * * * * * * * * * * * * * * * * * * * * * * * * * * * * x.b.6.y.z..                               ",
"                  . A.B.* * * * * * * * * * * * * * * * * * * * * * * * * * * * C.D.p.6.6.E.F..                                 ",
"                  . G.H.I.x.C.F * * * * * * * * * * * * * * * * F & o.5.J.3.K.|.6.6.6.L.M.. .                                   ",
"                    d.N.6.6.6.6.6.6.6.6.6.6.6.6.6.6.6.6.6.6.6.6.6.6.6.6.6.6.6.6.O.P.1.. .                                       ",
"                    . Q.R.L.S.T.6.6.6.6.6.6.6.6.6.6.6.6.6.6.6.U.V.W.X.Y.Z.`. +.+. . .                                           ",
"                        . . . + + + + + + + + + + + + + + + + + + . . . . . . .                                                 ",
"                                . . . . . . . . . . . . . . .                                                                   ",
"                                                                                                                                ",
"                                                                                                                                "};
