/* XPM */
static const char* 1553047_l_letter_red_alphabet_letters_icon_xpm[] = {
"64 64 71 1",
" 	c None",
".	c #330910",
"+	c #320910",
"@	c #4D0D15",
"#	c #BC2332",
"$	c #E62C3E",
"%	c #F22E41",
"&	c #E72C3E",
"*	c #C32434",
"=	c #5B0F18",
"-	c #430B13",
";	c #DC2A3B",
">	c #F8A7AB",
",	c #FEEDEE",
"'	c #FFFBFB",
")	c #F89B9F",
"!	c #F42F42",
"~	c #E52C3E",
"{	c #590F18",
"]	c #A91F2D",
"^	c #F6777E",
"/	c #FFFFFF",
"(	c #FFFCFC",
"_	c #C02433",
":	c #D7293A",
"<	c #F44654",
"[	c #FBCBCD",
"}	c #F8A1A5",
"|	c #F43244",
"1	c #E92D3F",
"2	c #570F18",
"3	c #F22F42",
"4	c #6F131D",
"5	c #70131D",
"6	c #F32F42",
"7	c #8F1A26",
"8	c #71141E",
"9	c #69121C",
"0	c #380A11",
"a	c #F12F41",
"b	c #EE2E40",
"c	c #C22434",
"d	c #EA2F3F",
"e	c #D62839",
"f	c #340910",
"g	c #D72C3A",
"h	c #791620",
"i	c #B72831",
"j	c #EC2F40",
"k	c #E82F3F",
"l	c #841C23",
"m	c #901E26",
"n	c #CD2E37",
"o	c #DF2F3C",
"p	c #EB2F40",
"q	c #ED2F40",
"r	c #E02F3C",
"s	c #6A151C",
"t	c #400C12",
"u	c #B82931",
"v	c #CC2E37",
"w	c #AE262F",
"x	c #400C13",
"y	c #901F26",
"z	c #B52831",
"A	c #C42C35",
"B	c #CB2E37",
"C	c #C82D36",
"D	c #BB2A32",
"E	c #942027",
"F	c #3E0B12",
"                                                                ",
"                                                                ",
"                                                                ",
"                                                                ",
"                                                                ",
"               ...+...                                          ",
"              .@#$%&*=.                                         ",
"              -;>,')!~{.                                        ",
"             .]^//()!!_.                                        ",
"             .:<[}|!!!1.                                        ",
"             .1!!!!!!!!2.                                       ",
"             +3!!!!!!!!4.                                       ",
"            .+!!!!!!!!!5.                                       ",
"            .+!!!!!!!!!5.                                       ",
"            .+!!!!!!!!!5.                                       ",
"            .+!!!!!!!!!5.                                       ",
"            .+!!!!!!!!!5.                                       ",
"            .+!!!!!!!!!5.                                       ",
"            .+!!!!!!!!!5.                                       ",
"            .+!!!!!!!!!5.                                       ",
"            .+!!!!!!!!!5.                                       ",
"            .+!!!!!!!!!5.                                       ",
"            .+!!!!!!!!!5.                                       ",
"            .+!!!!!!!!!5.                                       ",
"            .+!!!!!!!!!5.                                       ",
"            .+!!!!!!!!!5.                                       ",
"            .+!!!!!!!!!5.                                       ",
"            .+!!!!!!!!!5.                                       ",
"            .+!!!!!!!!!5.                                       ",
"            .+!!!!!!!!!5.                                       ",
"            .+!!!!!!!!!5.                                       ",
"            .+!!!!!!!!!5.                                       ",
"            .+!!!!!!!!!5.                                       ",
"            .+!!!!!!!!!5.                                       ",
"            .+!!!!!!!!!5.                                       ",
"            .+!!!!!!!!!5.                                       ",
"            .+!!!!!!!!!5.                                       ",
"            .+!!!!!!!!!5.                                       ",
"            .+!!!!!!!!!5.                                       ",
"            .+!!!!!!!!!5.                                       ",
"            .+!!!!!!!!!5.                                       ",
"            .+!!!!!!!!!5.                                       ",
"            .+!!!!!!!!!5.                                       ",
"            .+!!!!!!!!!5.                                       ",
"            .+!!!!!!!!!5.                                       ",
"            .+!!!!!!!!!5.                                       ",
"            .+!!!!!!!!!5.                                       ",
"            .+!!!!!!!!!5.                                       ",
"            .+!!!!!!!!!5.                                       ",
"            .+!!!!!!!!!5.                                       ",
"            .+!!!!!!!!!5.                                       ",
"            .+!!!!!!!!!5........................                ",
"            .+6!!!!!!!!78888888888888888888888890..             ",
"            .+a!!!!!!!!!!!!!!!!!!!!!!!!!!!!!!!!!bc@.            ",
"             +d!!!!!!!!!!!!!!!!!!!!!!!!!!!!!!!!!!!ef            ",
"             .g!!!!!!!!!!!!!!!!!!!!!!!!!!!!!!!!!!!!h.           ",
"             .ij!!!!!!!!!!!!!!!!!!!!!!!!!!!!!!!!!!kl.           ",
"             .mnopa!!!!!!!!!!!!!!!!!!!!!!!!!!!!6qrns.           ",
"              tuvvvvvvvvvvvvvvvvvvvvvvvvvvvvvvvvvvw.            ",
"              .xyzABvvvvvvvvvvvvvvvvvvvvvvvvvvvCDEF.            ",
"                ...+++++++++++++++++++++++++++++..              ",
"                    ...........................                 ",
"                                                                ",
"                                                                "};
