/* XPM */
static const char* numero_0_xpm[] = {
"64 64 280 2",
"  	c None",
". 	c #09331B",
"+ 	c #09321B",
"@ 	c #09321A",
"# 	c #0A3A1F",
"$ 	c #18874A",
"% 	c #22B766",
"& 	c #28D376",
"* 	c #2BE37F",
"= 	c #2DEC84",
"- 	c #2EF388",
"; 	c #2EF288",
"> 	c #2DEA83",
", 	c #2BE07E",
"' 	c #26CD72",
") 	c #20AE60",
"! 	c #14723E",
"~ 	c #0E542D",
"{ 	c #21B464",
"] 	c #2EE983",
"^ 	c #81F6AA",
"/ 	c #BBFACE",
"( 	c #DBFCE5",
"_ 	c #EDFDF2",
": 	c #F6FEFA",
"< 	c #FDFFFE",
"[ 	c #D4FBE0",
"} 	c #2FF489",
"| 	c #2ADE7C",
"1 	c #1D9E57",
"2 	c #0A3B1F",
"3 	c #1DA159",
"4 	c #39EC88",
"5 	c #A9F8C3",
"6 	c #ECFDF1",
"7 	c #FFFFFF",
"8 	c #2BDF7D",
"9 	c #168046",
"0 	c #0B4123",
"a 	c #26C970",
"b 	c #7EF6A9",
"c 	c #E9FDEF",
"d 	c #F1FEF5",
"e 	c #C6FAD6",
"f 	c #9AF8B9",
"g 	c #73F6A3",
"h 	c #45F591",
"i 	c #31F48A",
"j 	c #2FF288",
"k 	c #1FAA5E",
"l 	c #0B3E21",
"m 	c #27D074",
"n 	c #A4F8BF",
"o 	c #FBFFFD",
"p 	c #9DF8BB",
"q 	c #35F48B",
"r 	c #22BA67",
"s 	c #24C16B",
"t 	c #9BF8BA",
"u 	c #FEFFFE",
"v 	c #42F48F",
"w 	c #27D175",
"x 	c #24C16C",
"y 	c #27CE73",
"z 	c #2CE681",
"A 	c #21B263",
"B 	c #1B9753",
"C 	c #A7F8C1",
"D 	c #AEF9C6",
"E 	c #2BE17E",
"F 	c #1A9250",
"G 	c #0A381E",
"H 	c #167F46",
"I 	c #28D476",
"J 	c #2FF389",
"K 	c #0C4726",
"L 	c #2CE882",
"M 	c #3BF48D",
"N 	c #26CA71",
"O 	c #0B4424",
"P 	c #09341B",
"Q 	c #20B062",
"R 	c #0B4022",
"S 	c #1FAB5F",
"T 	c #ABF9C4",
"U 	c #C3FAD4",
"V 	c #28D577",
"W 	c #0A3D20",
"X 	c #23BA68",
"Y 	c #1DA259",
"Z 	c #67EA98",
"` 	c #FCFFFD",
" .	c #FDFFFD",
"..	c #4FF594",
"+.	c #2EEF86",
"@.	c #116235",
"#.	c #09351C",
"$.	c #1C9E57",
"%.	c #C4FAD5",
"&.	c #CEFBDC",
"*.	c #23BC69",
"=.	c #1A9351",
"-.	c #198B4C",
";.	c #2ADB7B",
">.	c #CAFBD9",
",.	c #FBFFFC",
"'.	c #76F6A5",
").	c #126A3A",
"!.	c #2CE480",
"~.	c #157741",
"{.	c #32F48A",
"].	c #4CF593",
"^.	c #2ADD7C",
"/.	c #22B665",
"(.	c #2EF187",
"_.	c #0E532C",
":.	c #23BB68",
"<.	c #22B866",
"[.	c #167F45",
"}.	c #1DA058",
"|.	c #198F4E",
"1.	c #26CB71",
"2.	c #0C4927",
"3.	c #2FF388",
"4.	c #105C32",
"5.	c #2CE782",
"6.	c #157A43",
"7.	c #25C46D",
"8.	c #106135",
"9.	c #1C9A55",
"0.	c #2ADC7B",
"a.	c #1A9150",
"b.	c #1D9F58",
"c.	c #21B162",
"d.	c #18884B",
"e.	c #25C66F",
"f.	c #21B363",
"g.	c #29DA7A",
"h.	c #1FA85D",
"i.	c #126C3B",
"j.	c #0F572F",
"k.	c #1A9451",
"l.	c #0C4324",
"m.	c #0F552E",
"n.	c #198B4D",
"o.	c #0A391E",
"p.	c #136F3C",
"q.	c #2EEE86",
"r.	c #18894B",
"s.	c #09341C",
"t.	c #147640",
"u.	c #167C43",
"v.	c #167D44",
"w.	c #2FF087",
"x.	c #0A371D",
"y.	c #167A42",
"z.	c #2EED85",
"A.	c #198C4D",
"B.	c #0B3F22",
"C.	c #15753F",
"D.	c #2DE882",
"E.	c #1A9452",
"F.	c #0D4E2A",
"G.	c #146A39",
"H.	c #2CE27E",
"I.	c #116436",
"J.	c #125E32",
"K.	c #2BD979",
"L.	c #13713E",
"M.	c #0E4A27",
"N.	c #29CE73",
"O.	c #2FEC84",
"P.	c #26BD68",
"Q.	c #23BD69",
"R.	c #1A8F4F",
"S.	c #2DDF7D",
"T.	c #22A65B",
"U.	c #26CB72",
"V.	c #1EA65C",
"W.	c #2AD274",
"X.	c #1D8A4A",
"Y.	c #166C3A",
"Z.	c #2FEB83",
"`.	c #2DEB84",
" +	c #22A157",
".+	c #0D4726",
"++	c #2FE07C",
"@+	c #105E33",
"#+	c #2BE07D",
"$+	c #2FEE85",
"%+	c #1B8045",
"&+	c #29BC67",
"*+	c #2FE27E",
"=+	c #11562D",
"-+	c #1E8648",
";+	c #188B4C",
">+	c #2BC56C",
",+	c #0E4323",
"'+	c #2ED878",
")+	c #2BE27E",
"!+	c #23BF6A",
"~+	c #229B54",
"{+	c #25A157",
"]+	c #157C43",
"^+	c #2FD877",
"/+	c #146335",
"(+	c #145B2F",
"_+	c #2FDA79",
":+	c #2FEA83",
"<+	c #29B362",
"[+	c #27A95B",
"}+	c #2FD273",
"|+	c #197840",
"1+	c #156033",
"2+	c #2FCE71",
"3+	c #0C4A27",
"4+	c #2FDC7A",
"5+	c #28B161",
"6+	c #249D55",
"7+	c #2FD575",
"8+	c #28D677",
"9+	c #0D502B",
"0+	c #0A361D",
"a+	c #22B967",
"b+	c #2FE37E",
"c+	c #2EC76D",
"d+	c #135E32",
"e+	c #0C3F21",
"f+	c #2BBA65",
"g+	c #2FD676",
"h+	c #1C9B55",
"i+	c #178247",
"j+	c #29D778",
"k+	c #2FE47F",
"l+	c #2FCB6F",
"m+	c #1D8849",
"n+	c #135A30",
"o+	c #2DC36A",
"p+	c #2FD374",
"q+	c #2FEE86",
"r+	c #24C26C",
"s+	c #24C06B",
"t+	c #27CD73",
"u+	c #2FDF7C",
"v+	c #239F56",
"w+	c #156737",
"x+	c #2DC46B",
"y+	c #2FCD70",
"z+	c #2FED85",
"A+	c #2FD475",
"B+	c #24A258",
"C+	c #136133",
"D+	c #2BBD67",
"E+	c #2FE680",
"F+	c #2FED84",
"G+	c #2FDB79",
"H+	c #2FC96E",
"I+	c #20924F",
"J+	c #0C4323",
"K+	c #249F56",
"L+	c #2FE57F",
"M+	c #2FF187",
"N+	c #2FF287",
"O+	c #2FE881",
"P+	c #2FD274",
"Q+	c #2ABA65",
"R+	c #166C39",
"S+	c #136134",
"T+	c #25A65A",
"U+	c #2EC86D",
"V+	c #2AB965",
"W+	c #1C8447",
"X+	c #0E4926",
"Y+	c #1C8347",
"Z+	c #24A359",
"`+	c #2AB864",
" @	c #2DC26A",
".@	c #2EC56C",
"+@	c #27AD5E",
"@@	c #209350",
"                                                                                                                                ",
"                                                                                                                                ",
"                                                                                                                                ",
"                                                                                                                                ",
"                                                                                                                                ",
"                                                    . . . . + @ @ . . . . .                                                     ",
"                                              . . # $ % & * = - ; > , ' ) ! . .                                                 ",
"                                            . ~ { ] ^ / ( _ : < [ } } } } } | 1 2 .                                             ",
"                                        . . 3 4 5 6 7 7 7 7 7 7 [ } } } } } } } 8 9 .                                           ",
"                                      . 0 a b c 7 7 d e f g h i } } } } } } } } } j k .                                         ",
"                                    . l m n o 7 _ p q } } } } } } } } } } } } } } } } r .                                       ",
"                                    . s t u 7 e v } } } } > w x s y z } } } } } } } } } A .                                     ",
"                                  . B } C < D } } } } E F G . . . . . H I } } } } } } } J F .                                   ",
"                                  K L } } M } } } } N O .             . P Q } } } } } } } z R                                   ",
"                                . S T U i } } } } V W .                   . X } } } } } } } Y .                                 ",
"                                0 Z `  ...} } } +.@..                       R , } } } } } } E #.                                ",
"                              . $.%.7 &.} } } } *..                         . =.} } } } } } } -..                               ",
"                              . ;.>.,.'.} } } } )..                           #.!.} } } } } } ' .                               ",
"                            . ~.} {.].} } } } ^..                             . /.} } } } } } (._..                             ",
"                            . :.} } } } } } } <..                             . [.} } } } } } } }..                             ",
"                            . E } } } } } } } |..                               2 +.} } } } } } 1..                             ",
"                          . 2.3.} } } } } } } 4..                               . ;.} } } } } } 5..                             ",
"                          . 6.} } } } } } } > .                                 . 7.} } } } } } } 8..                           ",
"                          . 9.} } } } } } } 0..                                 . A } } } } } } } a..                           ",
"                          . A } } } } } } } N .                                 . b.} } } } } } } c..                           ",
"                          . s } } } } } } } *..                                 . d.} } } } } } } e..                           ",
"                          . y } } } } } } } f..                                 . ~.} } } } } } } g..                           ",
"                          . ;.} } } } } } } h..                                 . i.} } } } } } } z .                           ",
"                          . E } } } } } } } }..                                 . j.} } } } } } } j #.                          ",
"                          . z } } } } } } } k..                                 . l.} } } } } } } } m..                         ",
"                          . > } } } } } } } n..                                 . o.} } } } } } } } p..                         ",
"                          + q.} } } } } } } r..                                 . s.} } } } } } } } t..                         ",
"                          @ j } } } } } } } $ .                                 . + } } } } } } } } u..                         ",
"                        . @ j } } } } } } } $ .                                 . P } } } } } } } } v..                         ",
"                          + w.} } } } } } } d..                                 . x.} } } } } } } } y..                         ",
"                          + z.} } } } } } } A..                                 . B.} } } } } } } } C..                         ",
"                          . D.} } } } } } } E..                                 . F.} } } } } } } } G..                         ",
"                          . H.} } } } } } } 3 .                                 . I.} } } } } } } J J..                         ",
"                          . K.} } } } } } } h..                                 . L.} } } } } } } w.M..                         ",
"                          . N.} } } } } } } f..                                 . [.} } } } } } } O.#.                          ",
"                          . P.} } } } } } } Q..                                 . R.} } } } } } } S..                           ",
"                          . T.} } } } } } } U..                                 . V.} } } } } } } W..                           ",
"                          . X.3.} } } } } } 0..                                 . % } } } } } } } P..                           ",
"                          . Y.Z.} } } } } } `..                                 . N } } } } } } }  +.                           ",
"                          . .+++} } } } } } } @+.                               . #+} } } } } } $+%+.                           ",
"                            . &+} } } } } } } a..                               2.j } } } } } } *+=+.                           ",
"                            . -+$+} } } } } } :..                             . ;+} } } } } } } >+.                             ",
"                              ,+'+} } } } } } )+.                             . !+} } } } } } Z.~+.                             ",
"                              . {+w.} } } } } } ]+.                           R > } } } } } } ^+/+.                             ",
"                              . (+_+} } } } } } a .                         . b.} } } } } } :+<+.                               ",
"                                . [+:+} } } } } j 6..                     . 2.z } } } } } j }+|+.                               ",
"                                . 1+2+w.} } } } } , 3+.                   . 7.} } } } } } 4+5+.                                 ",
"                                  . 6+7+j } } } } } 8+9+.             . 0+a+} } } } } } b+c+d+.                                 ",
"                                  . e+f+g+j } } } } } z h+l . . . . . i+j+} } } } } } k+l+m+.                                   ",
"                                    . n+o+p+q+} } } } } } = & r+s+t+z } } } } } } J u+l+v+.                                     ",
"                                      . w+x+y+k+J } } } } } } } } } } } } } } } z+A+l+B+#.                                      ",
"                                        . C+D+l+}+E+3.} } } } } } } } } } } F+G+l+H+I+.                                         ",
"                                          . J+K+H+l+2+_+L+O.M+3.} N+$+O+u+P+l+l+Q+R+.                                           ",
"                                            . . S+T+U+l+l+l+l+l+l+l+l+l+l+l+V+W+x..                                             ",
"                                                . . X+Y+Z+`+ @H+l+.@D++@@@/+. .                                                 ",
"                                                    . . . . . + + . . . . .                                                     ",
"                                                                                                                                ",
"                                                                                                                                ",
"                                                                                                                                "};
