/* XPM */
static char * letra_o_xpm[] = {
"64 64 285 2",
"  	c None",
". 	c #330910",
"+ 	c #320910",
"@ 	c #530E17",
"# 	c #901A26",
"$ 	c #B42130",
"% 	c #CA2636",
"& 	c #DC2A3B",
"* 	c #E52C3E",
"= 	c #EC2D3F",
"- 	c #F12E41",
"; 	c #F32F42",
"> 	c #F02E41",
", 	c #EA2D3F",
"' 	c #E32B3D",
") 	c #D9293A",
"! 	c #C62535",
"~ 	c #B0202E",
"{ 	c #881824",
"] 	c #4A0D15",
"^ 	c #5B0F18",
"/ 	c #AB1F2D",
"( 	c #F34956",
"_ 	c #F78F94",
": 	c #F9B8BB",
"< 	c #FBD1D2",
"[ 	c #FDE5E6",
"} 	c #FEEFF0",
"| 	c #FEF6F6",
"1 	c #FEF6F7",
"2 	c #F7868B",
"3 	c #F42F42",
"4 	c #D62839",
"5 	c #A71E2C",
"6 	c #570F17",
"7 	c #71131E",
"8 	c #C82535",
"9 	c #F14A57",
"0 	c #F8A7AB",
"a 	c #FCDDDE",
"b 	c #FFFCFC",
"c 	c #FFFFFF",
"d 	c #FFFBFB",
"e 	c #F7898F",
"f 	c #6F131D",
"g 	c #C32434",
"h 	c #F35862",
"i 	c #FAC1C3",
"j 	c #FEF7F8",
"k 	c #FFFCFD",
"l 	c #FDE4E5",
"m 	c #FAC4C6",
"n 	c #F8A5A9",
"o 	c #F68389",
"p 	c #F66A73",
"q 	c #F54654",
"r 	c #F43144",
"s 	c #F22F41",
"t 	c #C22434",
"u 	c #550E17",
"v 	c #8D1925",
"w 	c #E92D3F",
"x 	c #F54754",
"y 	c #FEF4F5",
"z 	c #FCE0E1",
"A 	c #F8A5A8",
"B 	c #F5535E",
"C 	c #AF202E",
"D 	c #F43B4B",
"E 	c #FCE0E2",
"F 	c #FCD8DA",
"G 	c #F67E84",
"H 	c #B62130",
"I 	c #350910",
"J 	c #340910",
"K 	c #BE2333",
"L 	c #F67D83",
"M 	c #FCE1E2",
"N 	c #F79499",
"O 	c #ED2D40",
"P 	c #DF2A3C",
"Q 	c #D8293A",
"R 	c #D42839",
"S 	c #DA293B",
"T 	c #E12B3D",
"U 	c #C52535",
"V 	c #390A11",
"W 	c #B82231",
"X 	c #F68288",
"Y 	c #FEF8F8",
"Z 	c #FABCBF",
"` 	c #A81F2D",
" .	c #6E131D",
"..	c #3A0A11",
"+.	c #791520",
"@.	c #B0202F",
"#.	c #9E1D2A",
"$.	c #FDE3E4",
"%.	c #FBD2D4",
"&.	c #F43D4C",
"*.	c #7D1621",
"=.	c #871824",
"-.	c #AD202E",
";.	c #70131D",
">.	c #EF2E41",
",.	c #F9B5B8",
"'.	c #F43949",
").	c #EE2E40",
"!.	c #9D1C29",
"~.	c #A41E2B",
"{.	c #821722",
"].	c #360A11",
"^.	c #E82C3F",
"/.	c #75141F",
"(.	c #781520",
"_.	c #430B13",
":.	c #9F1D2A",
"<.	c #6D131D",
"[.	c #400B12",
"}.	c #E62C3E",
"|.	c #841723",
"1.	c #510E16",
"2.	c #B72231",
"3.	c #B52130",
"4.	c #E72C3E",
"5.	c #460C14",
"6.	c #370A11",
"7.	c #73141E",
"8.	c #A61E2C",
"9.	c #891824",
"0.	c #EC2D40",
"a.	c #480C14",
"b.	c #3F0B12",
"c.	c #C12433",
"d.	c #DD2A3B",
"e.	c #BB2332",
"f.	c #8A1824",
"g.	c #68121B",
"h.	c #8C1925",
"i.	c #EF2E40",
"j.	c #360911",
"k.	c #9A1C29",
"l.	c #D7293A",
"m.	c #D12738",
"n.	c #BC2332",
"o.	c #CE2737",
"p.	c #A51E2C",
"q.	c #9C1C29",
"r.	c #DE2A3C",
"s.	c #E22B3D",
"t.	c #811722",
"u.	c #61101A",
"v.	c #F12F41",
"w.	c #6C121C",
"x.	c #540E17",
"y.	c #3E0B12",
"z.	c #EE2F40",
"A.	c #580F18",
"B.	c #3C0B12",
"C.	c #EA2E3F",
"D.	c #66111B",
"E.	c #EF2F41",
"F.	c #E12C3D",
"G.	c #E82E3F",
"H.	c #D62A39",
"I.	c #911A26",
"J.	c #861823",
"K.	c #DD2C3B",
"L.	c #C72835",
"M.	c #A11D2A",
"N.	c #D02A38",
"O.	c #AE242E",
"P.	c #C12434",
"Q.	c #BB2632",
"R.	c #911E26",
"S.	c #9F212A",
"T.	c #6E161D",
"U.	c #EB2F3F",
"V.	c #4F0D16",
"W.	c #3B0A12",
"X.	c #7E1A21",
"Y.	c #400C12",
"Z.	c #DC2E3B",
"`.	c #971B28",
" +	c #E32F3D",
".+	c #541017",
"++	c #BA2832",
"@+	c #CC2637",
"#+	c #C82B36",
"$+	c #911F26",
"%+	c #EA2F3F",
"&+	c #590F18",
"*+	c #4B0D15",
"=+	c #9F222A",
"-+	c #571118",
";+	c #D92E3A",
">+	c #DE2F3C",
",+	c #B32730",
"'+	c #EB2D3F",
")+	c #C02A33",
"!+	c #D92E3B",
"~+	c #8E1E26",
"{+	c #BC2A33",
"]+	c #E92F3F",
"^+	c #951B27",
"/+	c #ED2F40",
"(+	c #C52C35",
"_+	c #420C13",
":+	c #7D1A21",
"<+	c #D12E38",
"[+	c #7E1621",
"}+	c #D42E39",
"|+	c #8D1E25",
"1+	c #B0272F",
"2+	c #8F1926",
"3+	c #851723",
"4+	c #DD2F3C",
"5+	c #BA2932",
"6+	c #571117",
"7+	c #C62C35",
"8+	c #DF2F3C",
"9+	c #F22F42",
"0+	c #B2212F",
"a+	c #3C0A12",
"b+	c #AE202E",
"c+	c #C92D36",
"d+	c #66141B",
"e+	c #7C1A21",
"f+	c #CB2E37",
"g+	c #E02F3C",
"h+	c #921A26",
"i+	c #E52F3E",
"j+	c #CC2E37",
"k+	c #8A1D25",
"l+	c #901F26",
"m+	c #E02B3C",
"n+	c #77151F",
"o+	c #7C1621",
"p+	c #E12F3D",
"q+	c #952027",
"r+	c #D52E39",
"s+	c #DA293A",
"t+	c #A3242B",
"u+	c #891D24",
"v+	c #CA2D36",
"w+	c #CD2E37",
"x+	c #E62F3E",
"y+	c #D02E38",
"z+	c #982128",
"A+	c #6B151C",
"B+	c #BE2A33",
"C+	c #E72F3E",
"D+	c #C42C35",
"E+	c #7C1921",
"F+	c #992129",
"G+	c #C82D36",
"H+	c #CE2E38",
"I+	c #EC2F40",
"J+	c #DF2E3C",
"K+	c #A6242C",
"L+	c #4E0F16",
"M+	c #521016",
"N+	c #C62D35",
"O+	c #CE2E37",
"P+	c #D62E3A",
"Q+	c #EB2F40",
"R+	c #EF2F40",
"S+	c #CF2E38",
"T+	c #CA2E36",
"U+	c #AA252D",
"V+	c #65141B",
"W+	c #450D13",
"X+	c #871C24",
"Y+	c #B72931",
"Z+	c #921F27",
"`+	c #531017",
" @	c #72171E",
".@	c #931F27",
"+@	c #B62831",
"@@	c #C02B34",
"#@	c #B82931",
"$@	c #A9252D",
"%@	c #972028",
"&@	c #7A1920",
"*@	c #4B0E15",
"                                                                                                                                ",
"                                                                                                                                ",
"                                                                                                                                ",
"                                                                                                                                ",
"                                                                                                                                ",
"                                              . . . . . . . + + + . . . . . .                                                   ",
"                                        . . . @ # $ % & * = - ; > , ' ) ! ~ { ] . . .                                           ",
"                                    . . ^ / ) ( _ : < [ } | 1 2 3 3 3 3 3 3 3 - 4 5 6 . .                                       ",
"                                . . 7 8 9 0 a b c c c c c c d e 3 3 3 3 3 3 3 3 3 3 > ! f . .                                   ",
"                              . @ g h i j c c k l m n o p q r 3 3 3 3 3 3 3 3 3 3 3 3 3 s t u .                                 ",
"                            . v w x y c c z A B 3 3 3 3 3 3 3 3 3 3 3 3 3 3 3 3 3 3 3 3 3 3 w # .                               ",
"                          . C ; 3 D E F G 3 3 3 3 3 3 3 3 3 3 3 3 3 3 3 3 3 3 3 3 3 3 3 3 3 3 ; H I                             ",
"                        J K L M N 3 3 3 3 3 3 3 3 3 3 3 O P Q R S T > 3 3 3 3 3 3 3 3 3 3 3 3 3 3 U V                           ",
"                      . W X Y c Z 3 3 3 3 3 3 3 3 ) `  .J . . . . . ..+.@.P 3 3 3 3 3 3 3 3 3 3 3 3 g .                         ",
"                    . #.3 $.c %.&.3 3 3 3 3 3 R *.. . .               . . . =.) 3 3 3 3 3 3 3 3 3 3 3 -..                       ",
"                  . ;.>.3 _ ,.'.3 3 3 3 3 ).!.. .                           . J ~.>.3 3 3 3 3 3 3 3 3 s {..                     ",
"                  ].) 3 3 3 3 3 3 3 3 3 ^./..                                   . (.w 3 3 3 3 3 3 3 3 3 ' _.                    ",
"                . :.3 3 3 3 3 3 3 3 3 , <..                                       . f , 3 3 3 3 3 3 3 3 3 C .                   ",
"                [.}.3 3 3 3 3 3 3 3 s |..                                           . |.s 3 3 3 3 3 3 3 3 O 1.                  ",
"              . :.3 3 3 3 3 3 3 3 3 2..                                               . 3.3 3 3 3 3 3 3 3 3 C .                 ",
"              . & 3 3 3 3 3 3 3 3 4.5.                                                  _.* 3 3 3 3 3 3 3 3 }.6.                ",
"            . 7.3 3 3 3 3 3 3 3 3 8..                                                   . :.3 3 3 3 3 3 3 3 3 9..               ",
"            . 3.3 3 3 3 3 3 3 3 0.a.                                                      b.w 3 3 3 3 3 3 3 3 c..               ",
"            . d.3 3 3 3 3 3 3 3 t .                                                       . e.3 3 3 3 3 3 3 3 }..               ",
"          . @ ; 3 3 3 3 3 3 3 3 f..                                                       . *.3 3 3 3 3 3 3 3 3 g..             ",
"          . h.3 3 3 3 3 3 3 3 i.b.                                                          j., 3 3 3 3 3 3 3 3 k..             ",
"          . @.3 3 3 3 3 3 3 3 l..                                                           . m.3 3 3 3 3 3 3 3 W .             ",
"          . U 3 3 3 3 3 3 3 3 n..                                                           . 3.3 3 3 3 3 3 3 3 o..             ",
"          . ) 3 3 3 3 3 3 3 3 p..                                                           . q.3 3 3 3 3 3 3 3 r..             ",
"          . s.3 3 3 3 3 3 3 3 f..                                                           . t.3 3 3 3 3 3 3 3 4..             ",
"          . w 3 3 3 3 3 3 3 3 (..                                                           . 7 3 3 3 3 3 3 3 3 >.+             ",
"          + >.3 3 3 3 3 3 3 3 f .                                                           . u.3 3 3 3 3 3 3 3 3 6..           ",
"          + v.3 3 3 3 3 3 3 3 w..                                                           . x.3 3 3 3 3 3 3 3 3 y..           ",
"          + z.3 3 3 3 3 3 3 3 <..                                                           . A.3 3 3 3 3 3 3 3 s B..           ",
"          . C.3 3 3 3 3 3 3 3 7 .                                                           . D.3 3 3 3 3 3 3 3 E.].            ",
"          . F.3 3 3 3 3 3 3 3 *..                                                           . 7.3 3 3 3 3 3 3 3 G..             ",
"          . H.3 3 3 3 3 3 3 3 I..                                                           . J.3 3 3 3 3 3 3 3 K..             ",
"          . L.3 3 3 3 3 3 3 3 / .                                                           . M.3 3 3 3 3 3 3 3 N..             ",
"          . O.3 3 3 3 3 3 3 3 P..                                                           . W 3 3 3 3 3 3 3 3 Q..             ",
"          . R.; 3 3 3 3 3 3 3 d..                                                           . R 3 3 3 3 3 3 3 3 S..             ",
"          . T.U.3 3 3 3 3 3 3 s V.                                                          W.O 3 3 3 3 3 3 3 z.X..             ",
"            Y.Z.3 3 3 3 3 3 3 3 `..                                                       . J.3 3 3 3 3 3 3 3  +.+.             ",
"            . ++3 3 3 3 3 3 3 3 @+.                                                       . P.3 3 3 3 3 3 3 3 #+.               ",
"            . $+%+3 3 3 3 3 3 3 > &+.                                                     *+O 3 3 3 3 3 3 3 z.=+.               ",
"            . -+;+3 3 3 3 3 3 3 3 3..                                                   . -.3 3 3 3 3 3 3 3 >+T..               ",
"              . ,+z.3 3 3 3 3 3 3 ).^ .                                               . x.'+3 3 3 3 3 3 3 v.)+J                 ",
"              . X.!+3 3 3 3 3 3 3 3 % .                                               . g 3 3 3 3 3 3 3 3 >+~+.                 ",
"                ].{+]+3 3 3 3 3 3 3 3 :..                                           . ^+3 3 3 3 3 3 3 3 /+(+_+                  ",
"                . :+<+s 3 3 3 3 3 3 3 > { .                                       . [+>.3 3 3 3 3 3 3 ; }+|+.                   ",
"                  . 1+;+3 3 3 3 3 3 3 3 >.2+.                                   . 3+O 3 3 3 3 3 3 3 3 4+5+V                     ",
"                  . 6+7+8+3 3 3 3 3 3 3 3 9+0+a+.                           . ..b+- 3 3 3 3 3 3 3 3  +c+d+.                     ",
"                    . e+f+g+3 3 3 3 3 3 3 3 3 r.v . . .               . . I h+P 3 3 3 3 3 3 3 3 3 i+j+k+.                       ",
"                      . l+j+Z.; 3 3 3 3 3 3 3 3 3 m+@.n+6.. . . . . W.o+$ ' 3 3 3 3 3 3 3 3 3 3 p+j+=+.                         ",
"                        . q+j+r+z.3 3 3 3 3 3 3 3 3 3 3 >.m+) R s+T > 3 3 3 3 3 3 3 3 3 3 3 v.;+j+t+I                           ",
"                          . u+v+w+p+; 3 3 3 3 3 3 3 3 3 3 3 3 3 3 3 3 3 3 3 3 3 3 3 3 3 3 x+y+j+z+J                             ",
"                            . A+B+j+y+ +s 3 3 3 3 3 3 3 3 3 3 3 3 3 3 3 3 3 3 3 3 3 ; C+}+j+D+E+.                               ",
"                              . Y.F+G+j+H+Z.]+; 3 3 3 3 3 3 3 3 3 3 3 3 3 3 3 3 I+J+y+j+f+K+L+.                                 ",
"                                  . M+=+N+j+j+O+P+8+x+Q+R+v.; 3 ; s E.I+C+p+;+S+j+j+T+U+V+. .                                   ",
"                                    . . W+X+1+c+j+j+j+j+j+j+j+j+j+j+j+j+j+j+j+f+Y+Z+`+. .                                       ",
"                                          . . Y. @.@K++@B+D+c+j+T+(+@@#@$@%@&@*@. . .                                           ",
"                                                . . . . . . + + + . . . . . . .                                                 ",
"                                                                                                                                ",
"                                                                                                                                ",
"                                                                                                                                "};
