/* XPM */
static char * bet_xpm[] = {
"72 86 230 2",
"  	c None",
". 	c #AEB8A9",
"+ 	c #E3F4DB",
"@ 	c #EEF8E9",
"# 	c #F4FAF0",
"$ 	c #F8FCF6",
"% 	c #FDFEFD",
"& 	c #FDFEFC",
"* 	c #F7FCF5",
"= 	c #F3FAEF",
"- 	c #ECF7E7",
"; 	c #E1F4DA",
"> 	c #DBF1D2",
", 	c #EFF9EB",
"' 	c #FFFFFF",
") 	c #E9F7E4",
"! 	c #A9B7A3",
"~ 	c #B6E3A3",
"{ 	c #ECF8E7",
"] 	c #F6FBF3",
"^ 	c #D0EDC4",
"/ 	c #B3E29F",
"( 	c #9AD980",
"_ 	c #82D061",
": 	c #76CB52",
"< 	c #70C94A",
"[ 	c #6AC642",
"} 	c #6CC744",
"| 	c #72C94C",
"1 	c #78CC54",
"2 	c #87D167",
"3 	c #A0DB88",
"4 	c #B9E4A7",
"5 	c #D9F0CE",
"6 	c #FBFDFA",
"7 	c #A7B6A1",
"8 	c #BEE6AD",
"9 	c #E7F6E1",
"0 	c #B1E19D",
"a 	c #86D166",
"b 	c #69C641",
"c 	c #68C640",
"d 	c #6DC847",
"e 	c #90D572",
"f 	c #BFE7AE",
"g 	c #F4FAF1",
"h 	c #F9FCF7",
"i 	c #C4E8B4",
"j 	c #B5E3A2",
"k 	c #F8FCF7",
"l 	c #C4E9B5",
"m 	c #86D167",
"n 	c #6AC743",
"o 	c #95D778",
"p 	c #D7F0CD",
"q 	c #A2B49B",
"r 	c #EBF7E5",
"s 	c #FCFEFC",
"t 	c #BCE5AA",
"u 	c #77CB53",
"v 	c #D4EFC8",
"w 	c #DFF3D7",
"x 	c #83D063",
"y 	c #9CD982",
"z 	c #F2FAEF",
"A 	c #FBFDF9",
"B 	c #9FB396",
"C 	c #DDF2D4",
"D 	c #74CA4F",
"E 	c #D2EEC6",
"F 	c #EDF8E9",
"G 	c #8CD36E",
"H 	c #ABDF95",
"I 	c #FCFEFB",
"J 	c #E5F5DE",
"K 	c #E0F3D7",
"L 	c #76CB51",
"M 	c #8ED471",
"N 	c #F5FBF3",
"O 	c #E8F6E3",
"P 	c #F5FBF2",
"Q 	c #D1EDC5",
"R 	c #80CF5E",
"S 	c #ECF7E6",
"T 	c #E2F4DA",
"U 	c #F1F9ED",
"V 	c #6BC743",
"W 	c #7CCD5A",
"X 	c #C8EAB9",
"Y 	c #E4F4DD",
"Z 	c #88D268",
"` 	c #F9FDF8",
" .	c #9EB295",
"..	c #A4B59C",
"+.	c #7ACC56",
"@.	c #9DDA83",
"#.	c #FAFDF9",
"$.	c #FCFDFB",
"%.	c #96D77A",
"&.	c #C5E9B5",
"*.	c #EEF8EA",
"=.	c #EDF8E8",
"-.	c #C0E7AF",
";.	c #E8F6E2",
">.	c #A5B59E",
",.	c #F0F9EC",
"'.	c #6FC849",
").	c #CAEBBC",
"!.	c #DCF2D3",
"~.	c #AAB7A5",
"{.	c #79CC56",
"].	c #C3E8B3",
"^.	c #D8F0CE",
"/.	c #E3F4DC",
"(.	c #7CCD59",
"_.	c #A8DE92",
":.	c #D5EFCB",
"<.	c #FBFDFB",
"[.	c #72CA4D",
"}.	c #7FCF5D",
"|.	c #D1EDC4",
"1.	c #F0F9ED",
"2.	c #EAF7E5",
"3.	c #A9DE93",
"4.	c #7BCD58",
"5.	c #D9F0CF",
"6.	c #F2FAEE",
"7.	c #83D062",
"8.	c #A5DD8D",
"9.	c #B4E3A0",
"0.	c #C5E9B6",
"a.	c #78CC55",
"b.	c #90D573",
"c.	c #DEF2D6",
"d.	c #7FCF5E",
"e.	c #C6E9B8",
"f.	c #7F7F7F",
"g.	c #B2E29D",
"h.	c #CFEDC3",
"i.	c #7DCE5A",
"j.	c #F4FBF1",
"k.	c #ADE097",
"l.	c #CDECC0",
"m.	c #D8F0CD",
"n.	c #DEF2D5",
"o.	c #A8DE91",
"p.	c #BCE6AB",
"q.	c #CEECC1",
"r.	c #DBF1D1",
"s.	c #A6DD8E",
"t.	c #80CF5F",
"u.	c #D6EFCB",
"v.	c #ACDF96",
"w.	c #71C94C",
"x.	c #8BD36D",
"y.	c #CBEBBD",
"z.	c #99B18F",
"A.	c #D3EEC7",
"B.	c #84D064",
"C.	c #DCF1D2",
"D.	c #71C94B",
"E.	c #FAFDF8",
"F.	c #6BC744",
"G.	c #8AD26A",
"H.	c #8CD36D",
"I.	c #DDF2D3",
"J.	c #D3EEC8",
"K.	c #94D779",
"L.	c #99D87E",
"M.	c #E1F3D9",
"N.	c #AEE098",
"O.	c #89D26A",
"P.	c #C1E8B1",
"Q.	c #8DD470",
"R.	c #9BB192",
"S.	c #E9F6E3",
"T.	c #9BD981",
"U.	c #DCF1D3",
"V.	c #A1DB88",
"W.	c #C6E9B7",
"X.	c #8CD46E",
"Y.	c #C3E8B4",
"Z.	c #6CC746",
"`.	c #E6F5DF",
" +	c #A6B59F",
".+	c #9AD97F",
"++	c #C1E7B1",
"@+	c #A3B59C",
"#+	c #E4F5DD",
"$+	c #E6F5E0",
"%+	c #85D165",
"&+	c #7ACD57",
"*+	c #EFF9EA",
"=+	c #6EC848",
"-+	c #7ECE5C",
";+	c #F4FBF2",
">+	c #E6F6E0",
",+	c #AADE93",
"'+	c #E0F3D8",
")+	c #DFF3D6",
"!+	c #B1E19C",
"~+	c #73CA4E",
"{+	c #BAE5A8",
"]+	c #82D062",
"^+	c #E9F7E3",
"/+	c #B8E4A5",
"(+	c #84D164",
"_+	c #F6FCF4",
":+	c #9EB395",
"<+	c #C2E8B2",
"[+	c #AFE19B",
"}+	c #85D164",
"|+	c #6EC847",
"1+	c #91D574",
"2+	c #C0E7B0",
"3+	c #C2E8B1",
"4+	c #CFEDC2",
"5+	c #B2E29E",
"6+	c #9AD87F",
"7+	c #81CF60",
"8+	c #88D269",
"9+	c #A1DC89",
"0+	c #DAF1D1",
"a+	c #EBF7E6",
"b+	c #A3B49B",
"c+	c #E1F4D9",
"d+	c #F1FAED",
"e+	c #A6B69F",
"f+	c #ABB7A5",
"g+	c #BFBFBF",
"                                                            . + @ # $ % & * = - ; .                                                             ",
"                                                    > , ' ' ' ' ' ' ' ' ' ' ' ' ' ' ' ' ) !                                                     ",
"                                              ~ { ' ' ' ] ^ / ( _ : < [ } | 1 2 3 4 5 6 ' ' ' @ 7                                               ",
"                                          8 $ ' ' 9 0 a b c c c c c c c c c c c c c c d e f g ' ' h i                                           ",
"                                      j k ' 6 l m c c c c c c c c c c c c c c c c c c c c c n o p ' ' $ q                                       ",
"                                    r ' s t u c c c c c c c c c c c c c c c c c c c c c c c c c c 2 v ' ' {                                     ",
"                                ~ & ' w x c c c c c c c c c c c c c c c c c c c c c c c c c c c c c c y z ' A B                                 ",
"                              C ' % 0 [ c c c c c c c c c c c c c c c c c c c c c c c c c c c c c c c c D E ' ' 5                               ",
"                            F ' , G c c c c c c c c c c c c c c c c c c c c c c c c c c c c c c c c c c c c H I ' J                             ",
"                          ] ' K L c c c c c c c c c c c c c c c c c c c c c c c c c c c c c c c c c c c c c c M N ' O                           ",
"                        P ' Q d c c c c c c c c c c c c c c c c c c c c c c c c c c c c c c c c c c c c c c c c R S ' T                         ",
"                      U ' p V c c c c c c c c c c c c c c c c c c c c c c c c c c c c c c c c c c c c c c c c c c W z ' X                       ",
"                    Y ' J < c c c c c c c c c c c c c c c c c c c c c c c c c c c c c c c c c c c c c c c c c c c c Z ` '  .                    ",
"                  ..' P +.c c c c c c c c c c c c c c c c c c c c c c c c c c c c c c c c c c c c c c c c c c c c c c @.' #.                    ",
"                  $.' %.c c c c c c c c c c c c c c c c c c c c c c c c c c c c c c c c c c c c c c c c c c c c c c c c &.' *.                  ",
"                =.' -.c c c c c c c c c c c c c c c c c c c c c c c c c c c c c c c c c c c c c c c c c c c c c c c c c d ;.' >.                ",
"                ' ,.'.c c c c c c c c c c c c c c c c c c c c c c c c c c c c c c c c c c c c c c c c c c c c c c c c c c M ' 6                 ",
"              * ' y c c c c c c c c c c c c c c c c c c c c c c c c c c c c c c c c c c c c c c c c c c c c c c c c c c c c ).' !.              ",
"            ~.' w c c c c c c c c c c c c c c c c c c c c c c c c c c c c c c c c c c c c c c c c c c c c c c c c c c c c c {.I '               ",
"            N ' %.c c c c c c c c c c c c c c c c c c c c c c c c c c c c c c c c c c c c c c c c c c c c c c c c c c c c c c ].' ^.            ",
"            ' /.c c c c c c c c c c c c c c c c c c c c c c c c c c c c c c c c c c c c c c c c c c c c c c c c c c c c c c c (.' 6             ",
"          { ' _.c c c c c c c c c c c c c c c c c c c c c c c c c c c c c c c c c c c c c c c c c c c c c c c c c c c c c c c c :.'             ",
"          & <.[.c c c c c c c c c c c c c c c c c c c c c c c c c c c c c c c c c c c c c a *.*.}.c c c c c c c c c c c c c c c @.' Y           ",
"          ' |.c c c c c c c c c c c c c c c c c c c c c c c c c c c c c c c c c c c c c }.1.' ' 1.}.c c c c c c c c c c c c c c d 6 %           ",
"        2.' 3.c c c c c c c c c c c c c c c c c c c c c c c c c c c c c c c c c c c c }.1.' ' ' ' 1.4.c c c c c c c c c c c c c c 5.'           ",
"        6.' 7.c c c c c c c c c c c c c c c c c c c c c c c c c c c c c c c c c c c }.1.' ' ' ' ' ' 8.c c c c c c c c c c c c c c 9.' 0.        ",
"        ' * c c c c c c c c c c c c c c c c c c c c c c c c c c c c c c c c c c c }.1.' ' ' ' ' ' U a.c c c c c c c c c c c c c c b.' /.        ",
"        ' c.c c c c c c c c c c c c c c c c c c c c c c c c c c c c c c c c c c }.1.' ' ' ' ' ' U d.c c c c c c c c c c c c c c c 1 ' P         ",
"        ' e.c c c c c c c c c c c c c c c c c c c c c c c c c c c c c c c c c }.1.' ' ' ' ' ' U d.c c c c c c c c c c c c c c c c c k '         ",
"      f.' g.c c c c c c c c c c c c c c c c c n j h.i.c c c c c c c c c c c }.1.' ' ' ' ' ' U d.c c c c c c c c c c c c c c c c c c /.'         ",
"      j.' k.c c c c c c c c c c c c c c c c n l.' ' 1.}.c c c c c c c c c }.1.' ' ' ' ' ' U d.c c c c c c c c c c c c c c c c c c c m.'         ",
"      n.' o.c c c c c c c c c c c c c c c c p.' ' ' ' 1.}.c c c c c c c }.1.' ' ' ' ' ' U d.c c c c c c c c c c c c c c c c c c c c q.'         ",
"      r.' s.c c c c c c c c c c c c c c c t.' ' ' ' ' ' 1.}.c c c c c : *.' ' ' ' ' ' $ d.c c c c c c c c c c c c c c c c c c c c c 0.'         ",
"      u.' v.c c c c c c c c c c c c c c c w.N ' ' ' ' ' ' 1.: c c c : 9 ' ' ' ' ' ' $ x.c c c c c c c c c c c c c c c c c c c c c c y.'         ",
"      z.' / c c c c c c c c c c c c c c c c x.$ ' ' ' ' ' ' 9 : c : 9 ' ' ' ' ' ' $ x.c c c c c c c c c c c c c c c c c c c c c c c A.'         ",
"        ' t c c c c c c c c c c c c c c c c c x.$ ' ' ' ' ' ' 9 B.9 ' ' ' ' ' ' $ x.c c c c c c c c c c c c c c c c c c c c c c c c C.'         ",
"        ' ^ c c c c c c c c c c c c c c c c c c x.$ ' ' ' ' ' ' ' ' ' ' ' ' ' $ x.c c c c c c c c c c c c c c c c c c c c c c c c c 1.'         ",
"        ' ;.c c c c c c c c c c c c c c c c c c c x.$ ' ' ' ' ' ' ' ' ' ' ' $ x.c c c c c c c c c c c c c c c c c c c c c c c c c D.' E.        ",
"        ' & F.c c c c c c c c c c c c c c c c c c c x.$ ' ' ' ' ' ' ' ' ' $ x.c c c c c c c c c c c c c c c c c c c c c c c c c c G.' )         ",
"        { ' H.c c c c c c c c c c c c c c c c c c c c x.$ ' ' ' ' ' ' ' $ x.c c c c c c c c c c c c c c c c c c c c c c c c c c c k.' u.        ",
"        I.' 0 c c c c c c c c c c c c c c c c c c c c c x.$ ' ' ' ' ' $ x.c c c c c c c c c c c c c c c c c c c c c c c c c c c c J.'           ",
"          ' ^.c c c c c c c c c c c c c c c c c c c c c c x.$ ' ' ' $ x.c c c c c c c c c c c c c c c c c c c c c c c c c c c c F.* '           ",
"          #.% 1 c c c c c c c c c c c c c c c c c c c c c c x.$ ' s K.c c c c c c c c c c c c c c c c c c c c c c c c c c c c c L.' 9           ",
"          M.' N.c c c c c c c c c c c c c c c c c c c c c c c O.P.Q.c c c c c c c c c c c c c c c c c c c c c c c c c c c c c c Q ' R.          ",
"            ' S.b c c c c c c c c c c c c c c c c c c c c c c c c c c c c c c c c c c c c c c c c c c c c c c c c c c c c c c 1 s I             ",
"            z ' T.c c c c c c c c c c c c c c c c c c c c c c c c c c c c c c c c c c c c c c c c c c c c c c c c c c c c c c 8 ' U.            ",
"              ' J c c c c c c c c c c c c c c c c c c c c c c c c c c c c c c c c c c c c c c c c c c c c c c c c c c c c c : #.'               ",
"              ] ' V.c c c c c c c c c c c c c c c c c c c c c c c c c c c c c c c c c c c c c c c c c c c c c c c c c c c c W.' C               ",
"                ' z w.c c c c c c c c c c c c c c c c c c c c c c c c c c c c c c c c c c c c c c c c c c c c c c c c c c X.' 6                 ",
"                =.' Y.c c c c c c c c c c c c c c c c c c c c c c c c c c c c c c c c c c c c c c c c c c c c c c c c c Z.`.'  +                ",
"                  6 ' .+c c c c c c c c c c c c c c c c c c c c c c c c c c c c c c c c c c c c c c c c c c c c c c c c ++' *.                  ",
"                  @+' * 4.c c c c c c c c c c c c c c c c c c c c c c c c c c c c c c c c c c c c c c c c c c c c c c L.' #.                    ",
"                    #+' $+D.c c c c c c c c c c c c c c c c c c c c c c c c c c c c c c c c c c c c c c c c c c c c %+$ ' R.                    ",
"                      , ' ^.V c c c c c c c c c c c c c c c c c c c c c c c c c c c c c c c c c c c c c c c c c c &+,.' W.                      ",
"                        *+' Q =+c c c c c c c c c c c c c c c c c c c c c c c c c c c c c c c c c c c c c c c c -+2.' w                         ",
"                          @ ' M.: c c c c c c c c c c c c c c c c c c c c c c c c c c c c c c c c c c c c c c H.;+' >+                          ",
"                            2.' , G c c c c c c c c c c c c c c c c c c c c c c c c c c c c c c c c c c c c ,+6 ' '+                            ",
"                              )+' % !+[ c c c c c c c c c c c c c c c c c c c c c c c c c c c c c c c c ~+^ ' ' u.                              ",
"                                {+% ' w ]+c c c c c c c c c c c c c c c c c c c c c c c c c c c c c c y z ' #.z.                                ",
"                                    { ' I {+: c c c c c c c c c c c c c c c c c c c c c c c c c c 2 v ' ' ^+                                    ",
"                                      /+E.' #.].(+c c c c c c c c c c c c c c c c c c c c c n %.^.' ' _+:+                                      ",
"                                          <+` ' ' `.[+}+c c c c c c c c c c c c c c c |+1+2+j.' ' $ 3+                                          ",
"                                              {+*.' ' ' P 4+5+6+7+: < [ } | 1 8+9+{+0+6 ' ' ' a+b+                                              ",
"                                                    c+d+' ' ' ' ' ' ' ' ' ' ' ' ' ' ' % 9 e+                                                    ",
"                                                            , J , g $ % & * = a+'+f+                                                            ",
"                                                                                                                                                ",
"                                                                                                                                                ",
"                                                                                                                                                ",
"                                                                                                                                                ",
"                                                                                                                                                ",
"                                                                                                                                                ",
"                                            ' ' ' ' ' '           ' ' ' ' ' ' ' '     ' ' ' ' ' ' ' ' '                                         ",
"                                          ' ' ' ' ' ' ' '         ' ' ' ' ' ' ' '   ' ' ' ' ' ' ' ' ' '                                         ",
"                                          ' ' '       ' ' '       ' ' '                     ' ' g+                                              ",
"                                          ' ' '         ' '       ' ' '                     ' '                                                 ",
"                                          ' ' '       g+' '       ' ' '                     ' '                                                 ",
"                                          ' ' ' ' ' ' ' '         ' ' ' ' ' ' ' '           ' '                                                 ",
"                                          ' ' ' ' ' ' ' ' '       ' ' ' ' ' ' ' '           ' '                                                 ",
"                                          ' ' '         ' ' '     ' ' '                     ' '                                                 ",
"                                          ' ' '         ' ' '     ' ' '                     ' '                                                 ",
"                                          ' ' '         ' ' '     ' ' '                     ' '                                                 ",
"                                          ' ' '       ' ' ' '     ' ' ' ' ' ' ' '           ' '                                                 ",
"                                          ' ' ' ' ' ' ' ' '       ' ' ' ' ' ' ' '           ' '                                                 ",
"                                            f.f.f.f.f.              f.f.f.f.f.f.f.          f.f.                                                ",
"                                                                                                                                                ",
"                                                                                                                                                "};
