/* XPM */
static char *double_xpm[] = {
"64 64 263 2",
"  	c None",
". 	c #FEFBF0",
"+ 	c #FCF3D4",
"@ 	c #FCEEBE",
"# 	c #FCE9A3",
"$ 	c #FDE489",
"% 	c #FCE171",
"& 	c #FCDE5B",
"* 	c #FEDE59",
"= 	c #FDEEBE",
"- 	c #FDF3D4",
"; 	c #FFFFFE",
"> 	c #FCF7E3",
", 	c #FCECB6",
"' 	c #FEE37E",
") 	c #FFDE59",
"! 	c #FDECB6",
"~ 	c #FDF7E4",
"{ 	c #FEFDF7",
"] 	c #FCF0C6",
"^ 	c #FDE37F",
"/ 	c #FDE380",
"( 	c #FDF0C7",
"_ 	c #FEFDF8",
": 	c #FEFDF6",
"< 	c #FCEEBD",
"[ 	c #FEE067",
"} 	c #FEE068",
"| 	c #FEFFFD",
"1 	c #FCF1CC",
"2 	c #FDE06E",
"3 	c #FEE06E",
"4 	c #FDF2CD",
"5 	c #FDFAED",
"6 	c #FCE590",
"7 	c #FDE691",
"8 	c #FEFAEE",
"9 	c #FCF3D2",
"0 	c #FEDF66",
"a 	c #FDF3D2",
"b 	c #FFFFFD",
"c 	c #FDECB5",
"d 	c #FEFEFB",
"e 	c #FCE8A2",
"f 	c #FDE9A3",
"g 	c #FFFEFC",
"h 	c #FCE79B",
"i 	c #FDE89E",
"j 	c #FEFEFC",
"k 	c #FEFEFD",
"l 	c #FCE8A0",
"m 	c #FDE9A4",
"n 	c #FBECB4",
"o 	c #FDEDB7",
"p 	c #FBF3D1",
"q 	c #FDF3D3",
"r 	c #FCFAEC",
"s 	c #FEDF65",
"t 	c #FCE58E",
"u 	c #FEE691",
"v 	c #FCF1CA",
"w 	c #FEF1CB",
"x 	c #FDFCF6",
"y 	c #FDE06C",
"z 	c #FEE06D",
"A 	c #FCEDBA",
"B 	c #FEEEBC",
"C 	c #FDDF64",
"D 	c #FBEFC3",
"E 	c #FEF0C6",
"F 	c #FEFFFE",
"G 	c #FBE27A",
"H 	c #FFE489",
"I 	c #FFECB3",
"J 	c #FFF0C8",
"K 	c #FFF2CC",
"L 	c #FFF1C9",
"M 	c #FFEEBB",
"N 	c #FFE79A",
"O 	c #FFDF61",
"P 	c #FEE37F",
"Q 	c #FBF7E1",
"R 	c #FFDE5A",
"S 	c #FFEBAF",
"T 	c #FFFAEE",
"U 	c #FFFDF6",
"V 	c #FFF0C4",
"W 	c #FFDF65",
"X 	c #FEF8E4",
"Y 	c #FBECB3",
"Z 	c #FFE16F",
"` 	c #FFF6DF",
" .	c #FFF9EA",
"..	c #FFE173",
"+.	c #FEEDB8",
"@.	c #FFE06E",
"#.	c #FFF7E2",
"$.	c #FEE381",
"%.	c #FBFAEF",
"&.	c #FFF3D2",
"*.	c #FFF8E7",
"=.	c #FFEFC0",
"-.	c #FFF2CE",
";.	c #FFFBF0",
">.	c #FFE89D",
",.	c #FEFBF1",
"'.	c #FBF3D3",
").	c #FFE486",
"!.	c #FFFDF7",
"~.	c #FFFBF1",
"{.	c #FFE798",
"].	c #FFDF60",
"^.	c #FFF5D9",
"/.	c #FFF2D0",
"(.	c #FEF4D6",
"_.	c #FBEEBB",
":.	c #FFE385",
"<.	c #FFE697",
"[.	c #FFE06C",
"}.	c #FFDF63",
"|.	c #FFE696",
"1.	c #FFFEFB",
"2.	c #FFE176",
"3.	c #FFE27B",
"4.	c #FEEEBF",
"5.	c #FAE79D",
"6.	c #FFEAA7",
"7.	c #FFF2CD",
"8.	c #FFEDB9",
"9.	c #FFE9A5",
"0.	c #FFE9A2",
"a.	c #FFE58D",
"b.	c #FFDE58",
"c.	c #FFFEFD",
"d.	c #FFFAEB",
"e.	c #FDE9A2",
"f.	c #FCE486",
"g.	c #FFF8E4",
"h.	c #FFE37E",
"i.	c #FFE06A",
"j.	c #FFF8E6",
"k.	c #FFF7E0",
"l.	c #FEE48B",
"m.	c #FAE06D",
"n.	c #FFE590",
"o.	c #FFF3D3",
"p.	c #FFEFC2",
"q.	c #FFE695",
"r.	c #FFEDB8",
"s.	c #FFEFC1",
"t.	c #FEE279",
"u.	c #FBDE5A",
"v.	c #FFF4D5",
"w.	c #FFE487",
"x.	c #FFE172",
"y.	c #FFFDF9",
"z.	c #FFF5DB",
"A.	c #FFFEFA",
"B.	c #FFE27A",
"C.	c #FCDF5E",
"D.	c #FDDE59",
"E.	c #FFF5DA",
"F.	c #FFF1CA",
"G.	c #FFE484",
"H.	c #FFE9A1",
"I.	c #FEDE5A",
"J.	c #FFEBAE",
"K.	c #FFF2CF",
"L.	c #FFDF62",
"M.	c #FFF6DC",
"N.	c #FFDE5D",
"O.	c #FBDE5C",
"P.	c #FFE068",
"Q.	c #FFFCF4",
"R.	c #FFE384",
"S.	c #FFF9E9",
"T.	c #FDE174",
"U.	c #FFECB1",
"V.	c #FFEFC3",
"W.	c #FFF0C3",
"X.	c #FFDE5B",
"Y.	c #FDE175",
"Z.	c #FFFCF5",
"`.	c #FFE16E",
" +	c #FFDF64",
".+	c #FFE89E",
"++	c #FDE48A",
"@+	c #FFE89F",
"#+	c #FFE06D",
"$+	c #FFF8E5",
"%+	c #FCE8A1",
"&+	c #FFE066",
"*+	c #FFECB2",
"=+	c #FCF4D5",
"-+	c #FFEBB0",
";+	c #FFEEBE",
">+	c #FDF4D6",
",+	c #FCFBF0",
"'+	c #FFDF66",
")+	c #FFFCF3",
"!+	c #FFF9E8",
"~+	c #FFFDF8",
"{+	c #FFDF5F",
"]+	c #FFE383",
"^+	c #FDFBF1",
"/+	c #FCE27D",
"(+	c #FFE58B",
"_+	c #FFF1C8",
":+	c #FFE691",
"<+	c #FCECB5",
"[+	c #FFE174",
"}+	c #FFE488",
"|+	c #FFF3D1",
"1+	c #FFEEBD",
"2+	c #FDF7E3",
"3+	c #FFF4D6",
"4+	c #FFF7E1",
"5+	c #FBF0C4",
"6+	c #FFE485",
"7+	c #FFE692",
"8+	c #FDF0C6",
"9+	c #FDFDF7",
"0+	c #FDDF65",
"a+	c #FFE275",
"b+	c #FFE276",
"c+	c #FFE272",
"d+	c #FFE274",
"e+	c #FFE06B",
"f+	c #FCEEBB",
"g+	c #FEFCF6",
"h+	c #FDE06D",
"i+	c #FBF1CB",
"j+	c #FEF1CC",
"k+	c #FCE58F",
"l+	c #FEE692",
"m+	c #FEEDB7",
"n+	c #FBE8A1",
"o+	c #FCE79A",
"p+	c #FEE89E",
"q+	c #FEE9A5",
"r+	c #FBECB6",
"s+	c #FEEDB6",
"t+	c #FCFAED",
"u+	c #FEE693",
"v+	c #FEE16F",
"w+	c #FEF2CE",
"x+	c #FBEEBC",
"y+	c #FDDF66",
"z+	c #FBF0C5",
"A+	c #FCE27E",
"B+	c #FBECB5",
"C+	c #FCE380",
"D+	c #FDF8E4",
"E+	c #FCFBF1",
"F+	c #FAF4D5",
"G+	c #FBEEBE",
"H+	c #FBE9A2",
"I+	c #FBE48A",
"J+	c #FAE175",
"K+	c #F9DE5C",
"L+	c #FDDF5D",
"M+	c #FEE276",
"N+	c #FDEEBF",
"                                                . + @ # $ % & * * & % $ # = - .                                                 ",
"                                        ; > , ' ) ) ) ) ) ) ) ) ) ) ) ) ) ) ) ) ' ! ~ ;                                         ",
"                                    { ] ^ ) ) ) ) ) ) ) ) ) ) ) ) ) ) ) ) ) ) ) ) ) ) / ( _                                     ",
"                                : < [ ) ) ) ) ) ) ) ) ) ) ) ) ) ) ) ) ) ) ) ) ) ) ) ) ) ) } = {                                 ",
"                            | 1 2 ) ) ) ) ) ) ) ) ) ) ) ) ) ) ) ) ) ) ) ) ) ) ) ) ) ) ) ) ) ) 3 4 ;                             ",
"                          5 6 ) ) ) ) ) ) ) ) ) ) ) ) ) ) ) ) ) ) ) ) ) ) ) ) ) ) ) ) ) ) ) ) ) ) 7 8                           ",
"                        9 0 ) ) ) ) ) ) ) ) ) ) ) ) ) ) ) ) ) ) ) ) ) ) ) ) ) ) ) ) ) ) ) ) ) ) ) ) [ a                         ",
"                    b c ) ) ) ) ) ) ) ) ) ) ) ) ) ) ) ) ) ) ) ) ) ) ) ) ) ) ) ) ) ) ) ) ) ) ) ) ) ) ) ) c b                     ",
"                  d e ) ) ) ) ) ) ) ) ) ) ) ) ) ) ) ) ) ) ) ) ) ) ) ) ) ) ) ) ) ) ) ) ) ) ) ) ) ) ) ) ) ) f g                   ",
"                d h ) ) ) ) ) ) ) ) ) ) ) ) ) ) ) ) ) ) ) ) ) ) ) ) ) ) ) ) ) ) ) ) ) ) ) ) ) ) ) ) ) ) ) ) i j                 ",
"              k l ) ) ) ) ) ) ) ) ) ) ) ) ) ) ) ) ) ) ) ) ) ) ) ) ) ) ) ) ) ) ) ) ) ) ) ) ) ) ) ) ) ) ) ) ) ) m ;               ",
"              n ) ) ) ) ) ) ) ) ) ) ) ) ) ) ) ) ) ) ) ) ) ) ) ) ) ) ) ) ) ) ) ) ) ) ) ) ) ) ) ) ) ) ) ) ) ) ) ) o               ",
"            p ) ) ) ) ) ) ) ) ) ) ) ) ) ) ) ) ) ) ) ) ) ) ) ) ) ) ) ) ) ) ) ) ) ) ) ) ) ) ) ) ) ) ) ) ) ) ) ) ) ) q             ",
"          r s ) ) ) ) ) ) ) ) ) ) ) ) ) ) ) ) ) ) ) ) ) ) ) ) ) ) ) ) ) ) ) ) ) ) ) ) ) ) ) ) ) ) ) ) ) ) ) ) ) ) [ 8           ",
"        k t ) ) ) ) ) ) ) ) ) ) ) ) ) ) ) ) ) ) ) ) ) ) ) ) ) ) ) ) ) ) ) ) ) ) ) ) ) ) ) ) ) ) ) ) ) ) ) ) ) ) ) ) u b         ",
"        v ) ) ) ) ) ) ) ) ) ) ) ) ) ) ) ) ) ) ) ) ) ) ) ) ) ) ) ) ) ) ) ) ) ) ) ) ) ) ) ) ) ) ) ) ) ) ) ) ) ) ) ) ) ) w         ",
"      x y ) ) ) ) ) ) ) ) ) ) ) ) ) ) ) ) ) ) ) ) ) ) ) ) ) ) ) ) ) ) ) ) ) ) ) ) ) ) ) ) ) ) ) ) ) ) ) ) ) ) ) ) ) ) z :       ",
"      A ) ) ) ) ) ) ) ) ) ) ) ) ) ) ) ) ) ) ) ) ) ) ) ) ) ) ) ) ) ) ) ) ) ) ) ) ) ) ) ) ) ) ) ) ) ) ) ) ) ) ) ) ) ) ) ) B       ",
"    x C ) ) ) ) ) ) ) ) ) ) ) ) ) ) ) ) ) ) ) ) ) ) ) ) ) ) ) ) ) ) ) ) ) ) ) ) ) ) ) ) ) ) ) ) ) ) ) ) ) ) ) ) ) ) ) ) 0 {     ",
"    D ) ) ) ) ) ) ) ) ) ) ) ) ) ) ) ) ) ) ) ) ) ) ) ) ) ) ) ) ) ) ) ) ) ) ) ) ) ) ) ) ) ) ) ) ) ) ) ) ) ) ) ) ) ) ) ) ) ) E     ",
"  F G ) ) ) ) ) ) ) ) ) ) ) ) ) ) ) ) ) ) ) ) ) ) ) ) ) ) ) ) ) ) ) ) ) ) H I J K L M N O ) ) ) ) ) ) ) ) ) ) ) ) ) ) ) ) P ;   ",
"  Q ) ) ) ) ) ) ) ) ) ) ) ) ) ) ) ) ) ) ) ) ) ) ) ) ) ) ) ) ) ) ) ) R S T               U V W ) ) ) ) ) ) ) ) ) ) ) ) ) ) ) X   ",
"  Y ) ) ) ) ) ) ) ) ) ) ) ) ) ) ) ) ) ) ) ) ) ) ) ) ) ) ) ) ) ) ) Z `                        ...) ) ) ) ) ) ) ) ) ) ) ) ) ) +.  ",
"  G ) ) ) ) ) ) ) ) ) ) ) ) ) ) ) ) ) ) ) ) ) ) ) ) ) ) ) ) ) ) @. .                          #.R ) ) ) ) ) ) ) ) ) ) ) ) ) $.  ",
"%.) ) ) ) ) ) ) ) ) ) ) ) ) ) ) ) ) ) ) ) ) ) ) ) ) ) ) ) ) ) ) &.          *.K =.-.;.          >.) ) ) ) ) ) ) ) ) ) ) ) ) ) ,.",
"'.) ) ) ) ) ) ) ) ) ) ) ) ) ) ) ) ) ) ) ) ) ) ) ) ) ) ) ) ) ) ) ).!.    ~.{.) ) ) ) ].^.        /.) ) ) ) ) ) ) ) ) ) ) ) ) ) (.",
"_.) ) ) ) ) ) ) ) ) ) ) ) ) :.<.<.<.<.[.) ) ) ) ) }.<.<.<.<.:.) ) |.1.;.2.) ) ) ) ) ) 3.        *.) ) ) ) ) ) ) ) ) ) ) ) ) ) 4.",
"5.) ) ) ) ) ) ) ) ) ) ) ) ) 6.        7.) ) ) ) ) 8.        9.) ) ) 0.a.) ) ) ) ) ) ) b.c.      d.) ) ) ) ) ) ) ) ) ) ) ) ) ) e.",
"f.) ) ) ) ) ) ) ) ) ) ) ) ) R g.      g h.) ) ) i.U       j.R ) ) ) ) ) ) ) ) ) ) ) ) [.;       k.) ) ) ) ) ) ) ) ) ) ) ) ) ) l.",
"m.) ) ) ) ) ) ) ) ) ) ) ) ) ) n.;       o.) ) ) p.        q.) ) ) ) ) ) ) ) ) ) ) ) ) r.        s.) ) ) ) ) ) ) ) ) ) ) ) ) ) t.",
"u.) ) ) ) ) ) ) ) ) ) ) ) ) ) ) v.      ; w.) x.y.      z.) ) ) ) ) ) ) ) ) ) ) ) ) n.A.      g B.) ) ) ) ) ) ) ) ) ) ) ) ) ) C.",
"D.) ) ) ) ) ) ) ) ) ) ) ) ) ) ) B.1.      E.) F.      c.G.) ) ) ) ) ) ) ) ) ) ) ) H.y.        s.) ) ) ) ) ) ) ) ) ) ) ) ) ) ) I.",
"* ) ) ) ) ) ) ) ) ) ) ) ) ) ) ) ) V       ; J.g       K.) ) ) ) ) ) ) ) ) ) ) L.F.;         M.N.) ) ) ) ) ) ) ) ) ) ) ) ) ) ) * ",
"O.) ) ) ) ) ) ) ) ) ) ) ) ) ) ) ) P.Q.              A.2.) ) ) ) ) ) ) ) ) ) R.S.          ^.}.) ) ) ) ) ) ) ) ) ) ) ) ) ) ) ) O.",
"T.) ) ) ) ) ) ) ) ) ) ) ) ) ) ) ) ) U.              V.) ) ) ) ) ) ) ) ) ) S A.        ; W.X.) ) ) ) ) ) ) ) ) ) ) ) ) ) ) ) ) Y.",
"$ ) ) ) ) ) ) ) ) ) ) ) ) ) ) ) ) ) N.Z.          b `.) ) ) ) ) ) ) )  +o.          Z..+) ) ) ) ) ) ) ) ) ) ) ) ) ) ) ) ) ) ) ++",
"l ) ) ) ) ) ) ) ) ) ) ) ) ) ) ) ) ) @+              I ) ) ) ) ) ) ) #+$+          z...) ) ) ) ) ) ) ) ) ) ) ) ) ) ) ) ) ) ) ) %+",
"< ) ) ) ) ) ) ) ) ) ) ) ) ) ) ) ) N.d.              Q.&+) ) ) ) ) ].$+        A.*+) ) ) ) ) ) ) ) ) ) ) ) ) ) ) ) ) ) ) ) ) ) = ",
"=+) ) ) ) ) ) ) ) ) ) ) ) ) ) ) ) -+      ; -.        ;+) ) ) ) ) ;+        ~.w.) ) ) ) ) ) ) ) ) ) ) ) ) ) ) ) ) ) ) ) ) ) ) >+",
",+) ) ) ) ) ) ) ) ) ) ) ) ) ) ) '+)+      z.R !+      ~+Z ) ) ) {+Z.      1.]+) ) ) ) ) ) ) ) ) ) ) ) ) ) ) ) ) ) ) ) ) ) ) ) ^+",
"  /+) ) ) ) ) ) ) ) ) ) ) ) ) ) =.      ; (+) .+        _+) ) ) :+        E.) ) ) ) ) ) ) ) ) ) ) ) ) ) ) ) ) ) ) ) ) ) ) ) /   ",
"  <+) ) ) ) ) ) ) ) ) ) ) ) ) [+y.      ^.) ) R $+      1.B.) ) *+        g !.!.!.!.!.!.!.!.!.!._+) ) ) ) ) ) ) ) ) ) ) ) ) o   ",
"  > ) ) ) ) ) ) ) ) ) ) ) ) ) -.      ; }+) ) ) {.        |+) ) 1+                              -.) ) ) ) ) ) ) ) ) ) ) ) ) 2+  ",
"  ; /+) ) ) ) ) ) ) ) ) ) ) G.c.      3+) ) ) ) ) 4+      b ).) =.                              -.) ) ) ) ) ) ) ) ) ) ) ) ^ ;   ",
"    5+) ) ) ) ) ) ) ) ) ) ) M.      ; 6+) ) ) ) ) 7+        E.) =.                              -.) ) ) ) ) ) ) ) ) ) ) ) 8+    ",
"    9+0+) ) ) ) ) ) ) ) ) ) a+b+b+b+c+) ) ) ) ) ) ) d+b+b+b+a+) P.b+b+b+b+b+b+b+b+b+b+b+b+b+b+b+e+) ) ) ) ) ) ) ) ) ) ) 0 {     ",
"      f+) ) ) ) ) ) ) ) ) ) ) ) ) ) ) ) ) ) ) ) ) ) ) ) ) ) ) ) ) ) ) ) ) ) ) ) ) ) ) ) ) ) ) ) ) ) ) ) ) ) ) ) ) ) ) ) B       ",
"      g+h+) ) ) ) ) ) ) ) ) ) ) ) ) ) ) ) ) ) ) ) ) ) ) ) ) ) ) ) ) ) ) ) ) ) ) ) ) ) ) ) ) ) ) ) ) ) ) ) ) ) ) ) ) ) z :       ",
"        i+) ) ) ) ) ) ) ) ) ) ) ) ) ) ) ) ) ) ) ) ) ) ) ) ) ) ) ) ) ) ) ) ) ) ) ) ) ) ) ) ) ) ) ) ) ) ) ) ) ) ) ) ) ) j+        ",
"        | k+) ) ) ) ) ) ) ) ) ) ) ) ) ) ) ) ) ) ) ) ) ) ) ) ) ) ) ) ) ) ) ) ) ) ) ) ) ) ) ) ) ) ) ) ) ) ) ) ) ) ) ) l+b         ",
"          r s ) ) ) ) ) ) ) ) ) ) ) ) ) ) ) ) ) ) ) ) ) ) ) ) ) ) ) ) ) ) ) ) ) ) ) ) ) ) ) ) ) ) ) ) ) ) ) ) ) ) [ 8           ",
"            p ) ) ) ) ) ) ) ) ) ) ) ) ) ) ) ) ) ) ) ) ) ) ) ) ) ) ) ) ) ) ) ) ) ) ) ) ) ) ) ) ) ) ) ) ) ) ) ) ) ) q             ",
"              n ) ) ) ) ) ) ) ) ) ) ) ) ) ) ) ) ) ) ) ) ) ) ) ) ) ) ) ) ) ) ) ) ) ) ) ) ) ) ) ) ) ) ) ) ) ) ) ) m+              ",
"              | n+) ) ) ) ) ) ) ) ) ) ) ) ) ) ) ) ) ) ) ) ) ) ) ) ) ) ) ) ) ) ) ) ) ) ) ) ) ) ) ) ) ) ) ) ) ) m ;               ",
"                d o+) ) ) ) ) ) ) ) ) ) ) ) ) ) ) ) ) ) ) ) ) ) ) ) ) ) ) ) ) ) ) ) ) ) ) ) ) ) ) ) ) ) ) ) p+g                 ",
"                  d n+) ) ) ) ) ) ) ) ) ) ) ) ) ) ) ) ) ) ) ) ) ) ) ) ) ) ) ) ) ) ) ) ) ) ) ) ) ) ) ) ) ) q+g                   ",
"                    | r+) ) ) ) ) ) ) ) ) ) ) ) ) ) ) ) ) ) ) ) ) ) ) ) ) ) ) ) ) ) ) ) ) ) ) ) ) ) ) ) s+;                     ",
"                        p 0 ) ) ) ) ) ) ) ) ) ) ) ) ) ) ) ) ) ) ) ) ) ) ) ) ) ) ) ) ) ) ) ) ) ) ) ) [ q                         ",
"                          t+k+) ) ) ) ) ) ) ) ) ) ) ) ) ) ) ) ) ) ) ) ) ) ) ) ) ) ) ) ) ) ) ) ) ) u+8                           ",
"                            | i+h+) ) ) ) ) ) ) ) ) ) ) ) ) ) ) ) ) ) ) ) ) ) ) ) ) ) ) ) ) ) v+w+;                             ",
"                                x x+y+) ) ) ) ) ) ) ) ) ) ) ) ) ) ) ) ) ) ) ) ) ) ) ) ) ) } = {                                 ",
"                                    9+z+A+) ) ) ) ) ) ) ) ) ) ) ) ) ) ) ) ) ) ) ) ) ) / ( _                                     ",
"                                        F > B+C+) ) ) ) ) ) ) ) ) ) ) ) ) ) ) ) P +.D+;                                         ",
"                                                E+F+G+H+I+J+K+D.* L+M+l.f N+(..                                                 "};
