/* XPM */
static char * double_xpm[] = {
"72 86 199 2",
"  	c None",
". 	c #BFB7AC",
"+ 	c #FFF3E0",
"@ 	c #FFF7EC",
"# 	c #FFFAF2",
"$ 	c #FFFCF7",
"% 	c #FFFEFD",
"& 	c #FFFEFC",
"* 	c #FFFBF6",
"= 	c #FFF9F2",
"- 	c #FFF6EA",
"; 	c #FFF2DE",
"> 	c #FFEFD8",
", 	c #FFF8ED",
"' 	c #FFFFFF",
") 	c #FFF5E7",
"! 	c #BFB5A7",
"~ 	c #FFDFAF",
"{ 	c #FFF7EA",
"] 	c #FFFBF5",
"^ 	c #FFEACB",
"/ 	c #FFDEAC",
"( 	c #FFD391",
"_ 	c #FFC876",
": 	c #FFC369",
"< 	c #FFC062",
"[ 	c #FFBE5B",
"} 	c #FFBE5D",
"| 	c #FFC163",
"1 	c #FFC46A",
"2 	c #FFCA7B",
"3 	c #FFD597",
"4 	c #FFE0B2",
"5 	c #FFEED5",
"6 	c #FFFDFA",
"7 	c #BFB5A5",
"8 	c #FFE3B8",
"9 	c #FFF4E5",
"0 	c #FFDDAA",
"a 	c #FFCA7A",
"b 	c #FFBD5A",
"c 	c #FFBD59",
"d 	c #FFBF5F",
"e 	c #FFCE85",
"f 	c #FFE3B9",
"g 	c #FFFCF8",
"h 	c #FFE5BE",
"i 	c #FFDFAE",
"j 	c #FFFDFB",
"k 	c #FFE5BF",
"l 	c #FFD08A",
"m 	c #FFEDD3",
"n 	c #BFB29F",
"o 	c #FFF6E9",
"p 	c #FFE1B5",
"q 	c #FFECD0",
"r 	c #FFF1DD",
"s 	c #FFC977",
"t 	c #FFD392",
"u 	c #FFF9F1",
"v 	c #BFB19B",
"w 	c #FFF0D9",
"x 	c #FFBD5B",
"y 	c #FFC266",
"z 	c #FFEBCD",
"A 	c #FFF7EB",
"B 	c #FFCD81",
"C 	c #FFDAA3",
"D 	c #FFFDFC",
"E 	c #FFF3E2",
"F 	c #FFF1DC",
"G 	c #FFC368",
"H 	c #FFCE83",
"I 	c #FFFBF4",
"J 	c #FFF5E6",
"K 	c #FFFAF4",
"L 	c #FFEBCC",
"M 	c #FFC773",
"N 	c #FFF2DF",
"O 	c #FFF9EF",
"P 	c #FFBE5C",
"Q 	c #FFC66F",
"R 	c #FFE7C2",
"S 	c #FFF3E1",
"T 	c #FFCB7C",
"U 	c #FFFCF9",
"V 	c #BFB09A",
"W 	c #BFB3A1",
"X 	c #FFC46C",
"Y 	c #FFD493",
"Z 	c #FFD18B",
"` 	c #BFB4A3",
" .	c #FFF8EE",
"..	c #FFC061",
"+.	c #FFCD83",
"@.	c #FFE8C5",
"#.	c #BFB6A8",
"$.	c #FFC060",
"%.	c #FFE2B7",
"&.	c #FFE6C1",
"*.	c #FFDBA4",
"=.	c #FFCD82",
"-.	c #FFC56D",
";.	c #FFEED4",
">.	c #FFC56F",
",.	c #FFD9A0",
"'.	c #FFDDAB",
").	c #FFEDD1",
"!.	c #FFC164",
"~.	c #FFD69A",
"{.	c #FFEACC",
"].	c #FFEBCE",
"^.	c #FFE1B4",
"/.	c #FFF6E8",
"(.	c #FFD9A1",
"_.	c #FFDDA9",
":.	c #FFBF5E",
"<.	c #FFE7C3",
"[.	c #FFE2B6",
"}.	c #FFC978",
"|.	c #FFD79B",
"1.	c #FFF9F0",
"2.	c #FFCE84",
"3.	c #FFD697",
"4.	c #FFD99F",
"5.	c #FFD79A",
"6.	c #FFC46B",
"7.	c #FFF8EF",
"8.	c #FFDFB0",
"9.	c #FFDEAD",
"0.	c #FFF7ED",
"a.	c #FFD79C",
"b.	c #FFC772",
"c.	c #FFCF87",
"d.	c #FFF0DB",
"e.	c #FFC367",
"f.	c #FFCF86",
"g.	c #7F7F7F",
"h.	c #FFFAF3",
"i.	c #FFC875",
"j.	c #FFD18D",
"k.	c #FFC265",
"l.	c #FFD18C",
"m.	c #FFFDF9",
"n.	c #FFDEAE",
"o.	c #FFF0DA",
"p.	c #FFC670",
"q.	c #FFE1B3",
"r.	c #FFE6C0",
"s.	c #FFE9C9",
"t.	c #FFEFD7",
"u.	c #FFD89D",
"v.	c #FFE9C8",
"w.	c #FFE4BB",
"x.	c #FFC267",
"y.	c #FFEDD2",
"z.	c #FFDAA4",
"A.	c #FFDAA1",
"B.	c #FFE8C6",
"C.	c #BFAE95",
"D.	c #FFCC80",
"E.	c #FFECCF",
"F.	c #FFF2E0",
"G.	c #FFF5E5",
"H.	c #FFD89F",
"I.	c #FFD698",
"J.	c #FFDCA7",
"K.	c #FFD595",
"L.	c #FFCC7E",
"M.	c #FFCC7F",
"N.	c #FFD699",
"O.	c #FFDBA5",
"P.	c #FFDCA6",
"Q.	c #FFD28F",
"R.	c #FFCF88",
"S.	c #FFDBA6",
"T.	c #BFAF98",
"U.	c #FFC36A",
"V.	c #FFF4E3",
"W.	c #BFB4A4",
"X.	c #FFD390",
"Y.	c #FFC56E",
"Z.	c #FFF4E4",
"`.	c #FFC979",
" +	c #FFBF60",
".+	c #FFF1DB",
"++	c #FFE0B3",
"@+	c #BFAF95",
"#+	c #FFE0B1",
"$+	c #FFE4BD",
"%+	c #BFB09B",
"&+	c #FFE4BC",
"*+	c #FFDCA8",
"=+	c #FFE3BA",
"-+	c #FFEACA",
";+	c #FFC874",
">+	c #FFCB7D",
",+	c #BFB3A0",
"'+	c #BFBFBF",
"                                                            . + @ # $ % & * = - ; .                                                             ",
"                                                    > , ' ' ' ' ' ' ' ' ' ' ' ' ' ' ' ' ) !                                                     ",
"                                              ~ { ' ' ' ] ^ / ( _ : < [ } | 1 2 3 4 5 6 ' ' ' @ 7                                               ",
"                                          8 $ ' ' 9 0 a b c c c c c c c c c c c c c c d e f # ' ' g h                                           ",
"                                      i g ' j k 2 c c c c c c c c c c c c c c c c c c c c c [ l m ' ' g n                                       ",
"                                    o ' & p : c c c c c c c c c c c c c c c c c c c c c c c c c c 2 q ' ' -                                     ",
"                                ~ % ' r s c c c c c c c c c c c c c c c c c c c c c c c c c c c c c c t u ' 6 v                                 ",
"                              w ' % 0 x c c c c c c c c c c c c c c c c c c c c c c c c c c c c c c c c y z ' ' 5                               ",
"                            A ' , B c c c c c c c c c c c c c c c c c c c c c c c c c c c c c c c c c c c c C D ' E                             ",
"                          ] ' F G c c c c c c c c c c c c c c c c c c c c c c c c c c c c c c c c c c c c c c H I ' J                           ",
"                        K ' L d c c c c c c c c c c c c c c c c c c c c c c c c c c c c c c c c c c c c c c c c M - ' N                         ",
"                      O ' m P c c c c c c c c c c c c c c c c c c c c c c c c c c c c c c c c c c c c c c c c c c Q u ' R                       ",
"                    S ' E < c c c c c c c c c c c c c c c c c c c c c c c c c c c c c c c c c c c c c c c c c c c c T U ' V                     ",
"                  W ' K X c c c c c c c c c c c c c c c c c c c c c c c c c c c c c c c c c c c c c c c c c c c c c c Y ' 6                     ",
"                  j ' Z c c c c c c c c c c c c c c c c c c c c c c c c c c c c c c c c c c c c c c c c c c c c c c c c k ' ,                   ",
"                A ' f c c c c c c c c c c c c c c c c c c c c c c c c c c c c c c c c c c c c c c c c c c c c c c c c c d J ' `                 ",
"                '  ...c c c c c c c c c c c c c c c c c c c c c c c c c c c c c c c c c c c c c c c c c c c c c c c c c c +.' j                 ",
"              * ' t c c c c c c c c c c c c c c c c c c c c c c c c c c c c c c c c c c c c c c c c c c c c c c c c c c c c @.' w               ",
"            #.' F c c c c c c c c c c c c c c c c c c c c c c c c c c c $.l 0 %.&.&.&.&.p *.=.[ c c c c c c c c c c c c c c X j '               ",
"            K ' Z c c c c c c c c c c c c c c c c c c c c c c c c c -.h $ ' ' ' ' ' ' ' ' ' ' = / $.c c c c c c c c c c c c c h ' ;.            ",
"            ' + c c c c c c c c c c c c c c c c c c c c c c c c c a K ' ' ' ' ' ' ' ' ' ' ' ' ' ' 9 y c c c c c c c c c c c c >.' 6             ",
"          - ' ,.c c c c c c c c c c c c c c c c c c c c c c c c c z ' ' ' ' ' ' ' ' ' ' ' ' ' ' ' ' '.c c c c c c c c c c c c c ).'             ",
"          & j !.c c c c c c c c c c c c c c c c c c c c c c c c c f ' ' ' ' ' ' ' ' ' ' ' ' ' ' ' ' ~.c c c c c c c c c c c c c Y ' S           ",
"          ' {.c c c c c c c c c c c c c c c c c c c c c c c c c c y ].' ' ' ' ' ' ' ' ' ' ' ' ' ' ^.[ c c c c c c c c c c c c c d j %           ",
"        /.' (.c c c c c c c c c c c c c c c c c c c c c c c c c c _.:.=.<.I ' ' ' ' ' ' ' ' - [.}.G |.c c c c c c c c c c c c c c 5 '           ",
"        1.' _ c c c c c c c c c c c c c c c c c c c c c c c c c c 5 E 2.c c M l 3.4.5.3.e 6.c :.3 7.8.c c c c c c c c c c c c c c 9.' k         ",
"        ' * c c c c c c c c c c c c c c c c c c c c c c c c c c c z ' ' 0.h a.e -.-.-.b.c.(.@.$ ' ' '.c c c c c c c c c c c c c c e ' +         ",
"        ' d.c c c c c c c c c c c c c c c c c c c c c c c c c c c a I ' ' ' ' ' ' ' ' ' ' ' ' ' ' 9 e.c c c c c c c c c c c c c c 1 ' K         ",
"        ' &.c c c c c c c c c c c c c c c c c c c c c c c c c c c =.-.h $ ' ' ' ' ' ' ' ' ' ' # / $.f.c c c c c c c c c c c c c c c g '         ",
"      g.' 0 c c c c c c c c c c c c c c c c c c c c c c c c c c c m / :.$.l / <.5 5 5 m h *.=.[ G ^ 8.c c c c c c c c c c c c c c c + '         ",
"      h.' *.c c c c c c c c c c c c c c c c c c c c c c c c c c c [ i.j.l e $.c c c c c c k.l.<.m.' n.c c c c c c c c c c c c c c c ;.'         ",
"      o.' ,.c c c c c c c c c c c c c c c c c c c p.3 q.@.5 5 q r._.c.$.c i.5 7.r 5 5 E K ' ' ' ' $ M c c c c c c c c c c c c c c c s.'         ",
"      t.' u.c c c c c c c c c c c c c c c c c 3 N ' ' ' ' ' ' ' ' ' ' m.v.i.[ w.' ' ' ' ' ' ' ' 5 i.x.c c c c c c c c c c c c c c c r.'         ",
"      y.' z.c c c c c c c c c c c c c c c x ^ ' ' ' ' ' ' ' ' ' ' ' ' ' ' m.j.[ 0.' ' I E v.A.p.c c.0 c c c c c c c c c c c c c c c B.'         ",
"      C.' / c c c c c c c c c c c c c c c D.' ' ' ' ' ' ' ' ' ' ' ' ' ' ' ' O c c c c c c c [ e ^ ' 8.c c c c c c c c c c c c c c c E.'         ",
"        ' p c c c c c c c c c c c c c c c _ ' ' ' ' ' ' ' ' ' ' ' ' ' ' ' ' F.c }.3 a./ 8 y.$ ' ' ' ~.c c c c c c c c c c c c c c c > '         ",
"        ' {.c c c c c c c c c c c c c c c } A.& ' ' ' ' ' ' ' ' ' ' ' ' ' ) a c / ' ' ' ' ' ' ' ' h } c c c c c c c c c c c c c c c 7.'         ",
"        ' G.c c c c c c c c c c c c c c c 2.M p.[.0.' ' ' ' ' ' ' ' & > H.:.i c / ' ' ' ' ' I <.}.| I.c c c c c c c c c c c c c c | ' U         ",
"        ' & } c c c c c c c c c c c c c c Z $ (.:.c -.l 5./ / J.K.D.$.c p.B.' c =./ / 4.j.i.c [ l.- 8.c c c c c c c c c c c c c c L.' )         ",
"        - ' D.c c c c c c c c c c c c c c 2.' ' $ @.(.e -.-.$.-.}.l.i > ' ' I c c c 6.-.M.N.h 7.' ' '.c c c c c c c c c c c c c c O.' y.        ",
"        w ' _.c c c c c c c c c c c c c c x > ' ' ' ' ' ' ' ' ' ' ' ' ' ' & a.c / ' ' ' ' ' ' ' ' 0.6.c c c c c c c c c c c c c c E.'           ",
"          ' ;.c c c c c c c c c c c c c c }.$.J.0.' ' ' ' ' ' ' ' ' ' ' m D.l c / ' ' ' ' ' ' $ [.y c c c c c c c c c c c c c c } * '           ",
"          6 % 1 c c c c c c c c c c c c c Z m G [ =.P.<.5 E { > q w.5.6.c Q.= c A.{ 9 5 v.i R.:.c c c c c c c c c c c c c c c c Q.' 9           ",
"          ; ' S.c c c c c c c c c c c c c Z ' m.<.Q.k.c c c c c c c i.(.N ' & c c c c c c c c c c c c c c c c c c c c c c c c c z ' T.          ",
"            ' J b c c c c c c c c c c c c x.$ ' ' ' ' 7.o.5 5 5 E $ ' ' ' ' v.c c c c c c c c c c c c c c c c c c c c c c c c 1 & j             ",
"            u ' ( c c c c c c c c c c c c c }.F.' ' ' ' ' ' ' ' ' ' ' ' & w.:.c c c c c c c c c c c c c c c c c c c c c c c c 8 ' w             ",
"              ' E c c c c c c c c c c c c c c c e w.F.& ' ' ' ' ' I m _.-.c c c c c c c c c c c c c c c c c c c c c c c c c : 6 '               ",
"              ] ' 3.c c c c c c c c c c c c c c c c c c | | U.| :.c c c c c c c c c c c c c c c c c c c c c c c c c c c c c r.' o.              ",
"                ' u | c c c c c c c c c c c c c c c c c c c c c c c c c c c c c c c c c c c c c c c c c c c c c c c c c c B ' j                 ",
"                A ' h c c c c c c c c c c c c c c c c c c c c c c c c c c c c c c c c c c c c c c c c c c c c c c c c c :.V.' W.                ",
"                  j ' X.c c c c c c c c c c c c c c c c c c c c c c c c c c c c c c c c c c c c c c c c c c c c c c c c w.' ,                   ",
"                  W ' * Y.c c c c c c c c c c c c c c c c c c c c c c c c c c c c c c c c c c c c c c c c c c c c c c Q.' 6                     ",
"                    E ' Z.| c c c c c c c c c c c c c c c c c c c c c c c c c c c c c c c c c c c c c c c c c c c c `.$ ' T.                    ",
"                      , ' ;.P c c c c c c c c c c c c c c c c c c c c c c c c c c c c c c c c c c c c c c c c c c -.7.' r.                      ",
"                        , ' z  +c c c c c c c c c c c c c c c c c c c c c c c c c c c c c c c c c c c c c c c c b./.' F                         ",
"                          @ ' ; : c c c c c c c c c c c c c c c c c c c c c c c c c c c c c c c c c c c c c c D.h.' Z.                          ",
"                            /.' , B c c c c c c c c c c c c c c c c c c c c c c c c c c c c c c c c c c c c A.j ' r                             ",
"                              .+' % _.x c c c c c c c c c c c c c c c c c c c c c c c c c c c c c c c c k.{.' ' y.                              ",
"                                ++% ' r _ c c c c c c c c c c c c c c c c c c c c c c c c c c c c c c t u ' m.@+                                ",
"                                    { ' j q.G c c c c c c c c c c c c c c c c c c c c c c c c c c 2 E.' ' )                                     ",
"                                      #+m.' 6 $+}.c c c c c c c c c c c c c c c c c c c c c P Z ;.' ' * %+                                      ",
"                                          &+U ' ' V.*+`.c c c c c c c c c c c c c c c d f.=+h.' ' $ w.                                          ",
"                                              q., ' ' ' K -+0 Q.;+: < [ } !.6.>+I.q.t.j ' ' ' o ,+                                              ",
"                                                    ; 1.' ' ' ' ' ' ' ' ' ' ' ' ' ' ' % 9 W.                                                    ",
"                                                             .V., h.$ % & * u o r #.                                                            ",
"                                                                                                                                                ",
"                                                                                                                                                ",
"                                                                                                                                                ",
"                                                                                                                                                ",
"                                                                                                                                                ",
"                                                                                                                                                ",
"    ' ' ' ' ' '                     ' ' ' '             ' '             ' '       ' ' ' ' ' ' '           ' '                 ' ' ' ' ' ' ' '   ",
"    ' ' ' ' ' ' ' '             ' ' ' ' ' ' ' '         ' '             ' '       ' ' ' ' ' ' ' '         ' '                 ' ' ' ' ' ' ' '   ",
"    ' ' '+    ' ' ' '         ' ' ' '+    ' ' ' '       ' '             ' '       ' ' '+      ' ' '       ' '                 ' ' '+            ",
"    ' '           ' ' '       ' '           ' ' '       ' '             ' '       ' '         ' ' '       ' '                 ' '               ",
"    ' '             ' '     ' ' '             ' '       ' '             ' '       ' '         ' '         ' '                 ' '               ",
"    ' '             ' '     ' ' '             ' ' '     ' '             ' '       ' ' ' ' ' ' ' '         ' '                 ' ' ' ' ' ' '     ",
"    ' '             ' '     ' ' '             ' ' '     ' '             ' '       ' ' ' ' ' ' ' ' '       ' '                 ' ' ' ' ' ' '     ",
"    ' '             ' '     ' ' '             ' '       ' '             ' '       ' '           ' '       ' '                 ' '               ",
"    ' '           '+' '     ' ' '             ' '       ' ' '           ' '       ' '           ' ' '     ' '                 ' '               ",
"    ' '           ' ' '       ' ' '+        ' ' '       ' ' '         ' ' '       ' '           ' ' '     ' '                 ' '               ",
"    ' ' ' ' ' ' ' ' '         ' ' ' '     ' ' '           ' ' '     ' ' ' '+      ' ' '+      ' ' '       ' ' ' ' ' ' '       ' ' ' ' ' ' ' '   ",
"    ' ' ' ' ' ' ' '             ' ' ' ' ' ' ' '           ' ' ' ' ' ' ' '         ' ' ' ' ' ' ' ' '       ' ' ' ' ' ' ' '     ' ' ' ' ' ' ' '   ",
"    g.g.g.g.                        ' ' '                     '+' ' '               g.g.g.g.              g.g.g.g.g.g.g.      g.g.g.g.g.g.g.g.  ",
"                                                                                                                                                ",
"                                                                                                                                                "};
