/* XPM */
static char * exit_xpm[] = {
"72 86 183 2",
"  	c None",
". 	c #BFA8A8",
"+ 	c #FFD9D9",
"@ 	c #FFE7E7",
"# 	c #FFEFEF",
"$ 	c #FFF5F5",
"% 	c #FFFDFD",
"& 	c #FFFCFC",
"* 	c #FFF4F4",
"= 	c #FFEEEE",
"- 	c #FFE5E5",
"; 	c #FFD7D7",
"> 	c #BFA7A7",
", 	c #FFCECE",
"' 	c #FFE9E9",
") 	c #FFFFFF",
"! 	c #FFE1E1",
"~ 	c #BFA1A1",
"{ 	c #FF9C9C",
"] 	c #FFF3F3",
"^ 	c #FFBFBF",
"/ 	c #FF9898",
"( 	c #FF7676",
"_ 	c #FF5555",
": 	c #FF4545",
"< 	c #FF3C3C",
"[ 	c #FF3333",
"} 	c #FF3636",
"| 	c #FF3E3E",
"1 	c #FF4747",
"2 	c #FF5B5B",
"3 	c #FF7E7E",
"4 	c #FFA0A0",
"5 	c #FFCBCB",
"6 	c #FFF9F9",
"7 	c #FFE8E8",
"8 	c #BF9F9F",
"9 	c #FFA7A7",
"0 	c #FFDFDF",
"a 	c #FF9595",
"b 	c #FF5A5A",
"c 	c #FF3232",
"d 	c #FF3131",
"e 	c #FF3838",
"f 	c #FF6767",
"g 	c #FFA8A8",
"h 	c #FFF7F7",
"i 	c #FFAEAE",
"j 	c #FF9B9B",
"k 	c #FFF6F6",
"l 	c #FFFAFA",
"m 	c #FFAFAF",
"n 	c #FF3434",
"o 	c #FF6E6E",
"p 	c #FFC9C9",
"q 	c #BF9898",
"r 	c #FFE3E3",
"s 	c #FFFBFB",
"t 	c #FFA3A3",
"u 	c #FFC4C4",
"v 	c #FFD4D4",
"w 	c #FF5656",
"x 	c #FF7878",
"y 	c #FFEDED",
"z 	c #BF9393",
"A 	c #FFD1D1",
"B 	c #FF4141",
"C 	c #FFC1C1",
"D 	c #FF6262",
"E 	c #FF8D8D",
"F 	c #FFDBDB",
"G 	c #FFF2F2",
"H 	c #FF4444",
"I 	c #FF6565",
"J 	c #FFE0E0",
"K 	c #FFF1F1",
"L 	c #FFC0C0",
"M 	c #FF5252",
"N 	c #FFECEC",
"O 	c #FFC8C8",
"P 	c #FF3535",
"Q 	c #FF4D4D",
"R 	c #FFB4B4",
"S 	c #FFDADA",
"T 	c #FF5C5C",
"U 	c #BF9292",
"V 	c #BF9A9A",
"W 	c #FF4949",
"X 	c #FF7979",
"Y 	c #FF7070",
"Z 	c #FFE6E6",
"` 	c #FFA9A9",
" .	c #BF9C9C",
"..	c #FFEAEA",
"+.	c #FF3B3B",
"@.	c #FF6666",
"#.	c #FFB7B7",
"$.	c #FFD0D0",
"%.	c #BFA3A3",
"&.	c #FF8484",
"*.	c #FF4A4A",
"=.	c #FF6F6F",
"-.	c #FF4B4B",
";.	c #FFDEDE",
">.	c #FFA1A1",
",.	c #FF3737",
"'.	c #FFCACA",
").	c #FFB8B8",
"!.	c #FF4C4C",
"~.	c #FF8989",
"{.	c #FFD2D2",
"].	c #FFC6C6",
"^.	c #FF3F3F",
"/.	c #FF7474",
"(.	c #FF3939",
"_.	c #FF8A8A",
":.	c #FF9191",
"<.	c #FF7171",
"[.	c #FF9999",
"}.	c #FFB0B0",
"|.	c #FF5757",
"1.	c #FFF8F8",
"2.	c #FF3A3A",
"3.	c #FF6868",
"4.	c #FF5151",
"5.	c #FF4646",
"6.	c #FFB2B2",
"7.	c #FFEBEB",
"8.	c #FFD5D5",
"9.	c #7F7F7F",
"0.	c #FF9696",
"a.	c #FF8E8E",
"b.	c #FFF0F0",
"c.	c #FF8F8F",
"d.	c #FFB1B1",
"e.	c #FF5454",
"f.	c #FFBCBC",
"g.	c #FF8585",
"h.	c #FF6B6B",
"i.	c #FFA5A5",
"j.	c #FF9E9E",
"k.	c #FFE2E2",
"l.	c #FF8B8B",
"m.	c #FFC7C7",
"n.	c #FF4E4E",
"o.	c #FFD8D8",
"p.	c #BF8B8B",
"q.	c #FF5E5E",
"r.	c #FFBEBE",
"s.	c #FFC2C2",
"t.	c #FFC3C3",
"u.	c #FFA4A4",
"v.	c #FFCFCF",
"w.	c #FF3D3D",
"x.	c #FF7B7B",
"y.	c #FF5F5F",
"z.	c #FF7777",
"A.	c #FF6464",
"B.	c #FFD6D6",
"C.	c #FF9090",
"D.	c #BF8E8E",
"E.	c #FFBBBB",
"F.	c #FFDCDC",
"G.	c #FF6363",
"H.	c #BF9D9D",
"I.	c #FF7575",
"J.	c #FFAAAA",
"K.	c #FFDDDD",
"L.	c #FF5959",
"M.	c #FF5050",
"N.	c #FFD3D3",
"O.	c #FF4040",
"P.	c #FFADAD",
"Q.	c #FF5858",
"R.	c #FFACAC",
"S.	c #FF9393",
"T.	c #FF6969",
"U.	c #FFABAB",
"V.	c #FF5353",
"W.	c #FF8080",
"X.	c #FFCDCD",
"Y.	c #FFE4E4",
"Z.	c #BFBFBF",
"                                                            . + @ # $ % & * = - ; >                                                             ",
"                                                    , ' ) ) ) ) ) ) ) ) ) ) ) ) ) ) ) ) ! ~                                                     ",
"                                              { - ) ) ) ] ^ / ( _ : < [ } | 1 2 3 4 5 6 ) ) ) 7 8                                               ",
"                                          9 $ ) ) 0 a b c d d d d d d d d d d d d d d e f g # ) ) h i                                           ",
"                                      j k ) l m 2 d d d d d d d d d d d d d d d d d d d d d n o p ) ) k q                                       ",
"                                    r ) s t : d d d d d d d d d d d d d d d d d d d d d d d d d d 2 u ) ) -                                     ",
"                                j & ) v w d d d d d d d d d d d d d d d d d d d d d d d d d d d d d d x y ) 6 z                                 ",
"                              A ) % a [ d d d d d d d d d d d d d d d d d d d d d d d d d d d d d d d d B C ) ) 5                               ",
"                            @ ) ' D d d d d d d d d d d d d d d d d d d d d d d d d d d d d d d d d d d d d E s ) F                             ",
"                          G ) v H d d d d d d d d d d d d d d d d d d d d d d d d d d d d d d d d d d d d d d I G ) J                           ",
"                        K ) L e d d d d d d d d d d d d d d d d d d d d d d d d d d d d d d d d d d d d d d d d M - ) ;                         ",
"                      N ) O P d d d d d d d d d d d d d d d d d d d d d d d d d d d d d d d d d d d d d d d d d d Q = ) R                       ",
"                    S ) F < d d d d d d d d d d d d d d d d d d d d d d d d d d d d d d d d d d d d d d d d d d d d T h ) U                     ",
"                  V ) K W d d d d d d d d d d d d d d d d d d d d d d d d d d d d d d d d d d d d d d d d d d d d d d X ) 6                     ",
"                  s ) Y d d d d d d d d d d d d d d d d d d d d d d d d d d d d d d d d d d d d d d d d d d d d d d d d m ) 7                   ",
"                Z ) ` d d d d d d d d d d d d d d d d d d d d d d d d d d d d d d d d d d d d d d d d d d d d d d d d d e J )  .                ",
"                ) ..+.d d d d d d d d d d d d d d d d d d d d d d d d d d d d d d d d d d d d d d d d d d d d d d d d d d @.) l                 ",
"              * ) x d d d d d d d d d d d d d d d d d d d d d d d d d d d d d d d d d d d d d d d d d d d d d d d d d d d d #.) $.              ",
"            %.) v d d d d d d d d d d d d d d d d d d d d d d d d d d d d d d d H = C &.*.d d d d d d d d d d d d d d d d d W s )               ",
"            G ) =.d d d d d d d d d d d d d d d d d d d d d d d d d d d d d d d -.) ) ) ) ;.>.f ,.d d d d d d d d d d d d d d i ) '.            ",
"            ) + d d d d d d d d d d d d d d d d d d d d d d d d ,.).5 5 5 5 5 5 A ) ) ) ) ) ) ) $ C b d d d d d d d d d d d d !.) 6             ",
"          - ) ~.d d d d d d d d d d d d d d d d d d d d d d d d -.) 0 5 5 5 5 5 {.) ) ) ) ) ) ) ) ) / d d d d d d d d d d d d d ].)             ",
"          & l ^.d d d d d d d d d d d d d d d d d d d d d d d d -.) 3 d d d d d -.) ) ) ) ) ) ) ) ) / d d d d d d d d d d d d d X ) S           ",
"          ) L d d d d d d d d d d d d d d d d d d d d d d d d d 1 - /.d d d d d -.) ) ) ) ) ) ) ) ) / d d d d d d d d d d d d d (.l %           ",
"        r ) _.d d d d d d d d d d d d d d d d d d d d d d d d d d d d d d d d d -.) ) ) ) ) ) ) ) ) / d d d d d d d d d d d d d d 5 )           ",
"        y ) w d d d d d d d d d d d d d d d d d d d d d d d d :.G - <.d d d d d -.) ) ) ) ) ) ) ) ) / d d d d d d d d d d d d d d [.) }.        ",
"        ) $ d d d d d d d d d d d d d d d d d d d d d d d d |.) ) ) 1.2.d d d d -.) ) ) ) ) ) ) ) ) / d d d d d d d d d d d d d d 3.) +         ",
"        ) {.d d d d d d d d d d d d d d d d d d d d d d d d x ) ) ) ) 4.d d d d -.) ) ) ) ) ) ) ) ) / d d d d d d d d d d d d d d 5.) K         ",
"        ) 6.d d d d d d d d d d d d d d d d d d d d d d d d | 7.) ) 8.d d d d d -.) ) ) ) ) ) ) ) ) / d d d d d d d d d d d d d d d k )         ",
"      9.) 0.d d d d d d d d d d d d d d d d d d d d d d d d d H :.a.| d d d d d -.) ) ) ) ) ) ) ) ) / d d d d d d d d d d d d d d d + )         ",
"      b.) c.d d d d d d d d d d d d d d d d d d d /.! - - - - d.e.d d d d d d d -.) ) ) ) ) ) ) ) ) / d d d d d d d d d d d d d d d '.)         ",
"      {.) ~.d d d d d d d d d d d d d d d d d d /.s ) ) ) ) ) ) = 4.d d d d d d -.) ) ) ) ) ) ) ) ) / d d d d d d d d d d d d d d d f.)         ",
"      , ) g.d d d d d d d d d d d d d d d d d h.s ) i.d j.) ) ) ) k.4.l.;.= | d -.) ) ) ) ) ) ) ) ) / d d d d d d d d d d d d d d d }.)         ",
"      m.) a.d d d d d d d d d d d d d d d d d i.) i.d n.1.) ) ) o.) ) ) ) k.2.d -.) ) ) ) ) ) ) ) ) / d d d d d d d d d d d d d d d ).)         ",
"      p.) / d d d d d d d d d d d d d d d d d ,.q.d d ).) ) ) r.H 0 & s.o d d d -.) ) ) ) ) ) ) ) ) / d d d d d d d d d d d d d d d t.)         ",
"        ) u.d d d d d d d d d d d d d d d d d d d d q.) ) ) ) |.d 2.B d d d d d -.) ) ) ) ) ) ) ) ) / d d d d d d d d d d d d d d d v.)         ",
"        ) ^ d d d d d d d d d d d d d d d d d d d d <.) ) ) $ l.,.d d d d d d d -.) ) ) ) ) ) ) ) ) / d d d d d d d d d d d d d d d 7.)         ",
"        ) 0 d d d d d d d d d d d d d d d d d d d d d o o.) ) ) G /.d d d d d d -.) ) ) ) ) ) ) ) ) / d d d d d d d d d d d d d d w.) 1.        ",
"        ) & } d d d d d d d d d d d d d d d d d d d n 8.j.x.r.& ) ;.d d d d d d -.) ) ) ) ) ) ) ) ) / d d d d d d d d d d d d d d y.) k.        ",
"        - ) D d d d d d d d d d d d d d d d d w.z.i 7 ) ) 2 d /.) ) -.d d d d d -.) ) ) ) ) ) ) ) ) / d d d d d d d d d d d d d d c.) m.        ",
"        $.) a d d d d d d d d d d d d d d d 3 s ) ) ) ) ^ d d 2.1.) &.d d d d d -.) ) ) ) ) ) ) ) ) / d d d d d d d d d d d d d d t.)           ",
"          ) '.d d d d d d d d d d d d d d d j.) ) {.j A.n d d d O ) s.d d d d d -.) ) ) ) ) ) ) ) ) / d d d d d d d d d d d d d P $ )           ",
"          6 % 1 d d d d d d d d d d d d d d n A.| d d d d d d d :.) $ ,.d d d d -.) ) ) ) ) ) ) ) ) / d d d d d d d d d d d d d /.) ;.          ",
"          B.) C.d d d d d d d d d d d d d d d d d d d d d d d d e.) ) n.).- - - 7 ) ) ) ) ) ) ) ) ) / d d d d d d d d d d d d d L ) D.          ",
"            ) ! c d d d d d d d d d d d d d d d d d d d d d d d d a.a d :.6.6.6.E.) ) ) ) ) ) ) 7 i e.d d d d d d d d d d d d 5.s s             ",
"            = ) z.d d d d d d d d d d d d d d d d d d d d d d d d d d d d d d d -.) ) ) & v.a 2 d d d d d d d d d d d d d d d 9 ) $.            ",
"              ) F.d d d d d d d d d d d d d d d d d d d d d d d d d d d d d d d | F 6.x | d d d d d d d d d d d d d d d d d : 6 )               ",
"              G ) 3 d d d d d d d d d d d d d d d d d d d d d d d d d d d d d d d d d d d d d d d d d d d d d d d d d d d d d.) A               ",
"                ) = | d d d d d d d d d d d d d d d d d d d d d d d d d d d d d d d d d d d d d d d d d d d d d d d d d d G.) l                 ",
"                Z ) i d d d d d d d d d d d d d d d d d d d d d d d d d d d d d d d d d d d d d d d d d d d d d d d d d ,.F.) H.                ",
"                  l ) I.d d d d d d d d d d d d d d d d d d d d d d d d d d d d d d d d d d d d d d d d d d d d d d d d J.) 7                   ",
"                  V ) * -.d d d d d d d d d d d d d d d d d d d d d d d d d d d d d d d d d d d d d d d d d d d d d d /.) 6                     ",
"                    F ) K.w.d d d d d d d d d d d d d d d d d d d d d d d d d d d d d d d d d d d d d d d d d d d d L.k ) D.                    ",
"                      ' ) '.P d d d d d d d d d d d d d d d d d d d d d d d d d d d d d d d d d d d d d d d d d d *.7.) d.                      ",
"                        ' ) C (.d d d d d d d d d d d d d d d d d d d d d d d d d d d d d d d d d d d d d d d d M.r ) N.                        ",
"                          @ ) B.H d d d d d d d d d d d d d d d d d d d d d d d d d d d d d d d d d d d d d d D b.) K.                          ",
"                            r ) ' G.d d d d d d d d d d d d d d d d d d d d d d d d d d d d d d d d d d d d _.l ) 8.                            ",
"                              N.) & a [ d d d d d d d d d d d d d d d d d d d d d d d d d d d d d d d d O.L ) ) m.                              ",
"                                >.& ) v _ d d d d d d d d d d d d d d d d d d d d d d d d d d d d d d x y ) 1.p.                                ",
"                                    Z ) s >.H d d d d d d d d d d d d d d d d d d d d d d d d d d 2 u ) ) !                                     ",
"                                      j.1.) 6 P.Q.d d d d d d d d d d d d d d d d d d d d d n Y '.) ) ] U                                       ",
"                                          R.h ) ) K.S.Q.d d d d d d d d d d d d d d d (.T.J.b.) ) k U.                                          ",
"                                              >.' ) ) ) K r.0.I.V.: < [ } | 1 q.W.>.X.l ) ) ) Y.q                                               ",
"                                                    B.N ) ) ) ) ) ) ) ) ) ) ) ) ) ) ) % 0 H.                                                    ",
"                                                            ..F.' b.k % & * = Y.8.%.                                                            ",
"                                                                                                                                                ",
"                                                                                                                                                ",
"                                                                                                                                                ",
"                                                                                                                                                ",
"                                                                                                                                                ",
"                                                                                                                                                ",
"                                      ) ) ) ) ) ) ) )     ) )           ) )       ) )     ) ) ) ) ) ) ) ) )                                     ",
"                                      ) ) ) ) ) ) ) )     ) ) Z.      ) ) )     ) ) )     ) ) ) ) ) ) ) ) )                                     ",
"                                      ) ) Z.              Z.) )       ) )       ) ) )           ) ) )                                           ",
"                                      ) )                   ) ) )   ) ) )       ) ) )           ) ) )                                           ",
"                                      ) )                     ) ) ) ) )         ) ) )           ) ) )                                           ",
"                                      ) ) ) ) ) ) )           ) ) ) ) )         ) ) )           ) ) )                                           ",
"                                      ) ) ) ) ) ) )           Z.) ) )           ) ) )           ) ) )                                           ",
"                                      ) )                     ) ) ) ) )         ) ) )           ) ) )                                           ",
"                                      ) )                   ) ) )   ) )         ) ) )           ) ) )                                           ",
"                                      ) )                   ) )     ) ) )       ) ) )           ) ) )                                           ",
"                                      ) ) ) ) ) ) ) )     ) ) )       ) ) )     ) ) )           ) ) )                                           ",
"                                      ) ) ) ) ) ) ) )     ) )           ) )     ) ) )           ) ) )                                           ",
"                                      9.9.9.9.9.9.9.9.    9.              9.      9.              9.                                            ",
"                                                                                                                                                ",
"                                                                                                                                                "};
