/* XPM */
static const char *exit_xpm[] = {
"64 64 156 2",
"  	c None",
". 	c #C80202",
"+ 	c #C90000",
"@ 	c #C60101",
"# 	c #C70000",
"$ 	c #C80101",
"% 	c #C70101",
"& 	c #C80000",
"* 	c #C60202",
"= 	c #D46F6F",
"- 	c #D37373",
"; 	c #D57474",
"> 	c #D47373",
", 	c #D47474",
"' 	c #D26A6A",
") 	c #CB3535",
"! 	c #CE5353",
"~ 	c #C81010",
"{ 	c #D26262",
"] 	c #CB3A3A",
"^ 	c #D57373",
"/ 	c #C92B2B",
"( 	c #D46E6E",
"_ 	c #D36B6B",
": 	c #FAF3F3",
"< 	c #FFFFFF",
"[ 	c #FDFDFD",
"} 	c #FCFCFC",
"| 	c #F7EAEA",
"1 	c #F8ECEC",
"2 	c #F6EAEA",
"3 	c #CB2929",
"4 	c #E0A5A5",
"5 	c #DE9E9E",
"6 	c #D98989",
"7 	c #D26969",
"8 	c #F9F0F0",
"9 	c #C60302",
"0 	c #FCF6F6",
"a 	c #F5E8E8",
"b 	c #D88888",
"c 	c #E3B2B2",
"d 	c #CD4747",
"e 	c #F9F2F2",
"f 	c #F1DCDC",
"g 	c #DA8888",
"h 	c #F6E9E9",
"i 	c #FBF4F4",
"j 	c #F2DDDD",
"k 	c #E2B2B2",
"l 	c #E4B3B3",
"m 	c #E4B4B4",
"n 	c #E5B4B4",
"o 	c #E0A4A4",
"p 	c #EECFCF",
"q 	c #FDF9F9",
"r 	c #CF5B5B",
"s 	c #E9C6C6",
"t 	c #FCF9F9",
"u 	c #D16464",
"v 	c #D16868",
"w 	c #D98484",
"x 	c #D98A8A",
"y 	c #DB8B8B",
"z 	c #DA8B8B",
"A 	c #F2DEDE",
"B 	c #D88080",
"C 	c #E3B7B7",
"D 	c #CD4E4E",
"E 	c #EED2D2",
"F 	c #D47878",
"G 	c #FEFDFD",
"H 	c #E4B5B5",
"I 	c #DA8989",
"J 	c #D36A6A",
"K 	c #F4E3E3",
"L 	c #F0D4D4",
"M 	c #FCF5F5",
"N 	c #E5B9B9",
"O 	c #D88989",
"P 	c #F5E3E3",
"Q 	c #CB2A2A",
"R 	c #D98787",
"S 	c #D16969",
"T 	c #F2E1E1",
"U 	c #EFD3D3",
"V 	c #E9C4C4",
"W 	c #D06868",
"X 	c #CE4F4F",
"Y 	c #C80D0D",
"Z 	c #F4E2E2",
"` 	c #FDF8F8",
" .	c #D88686",
"..	c #EFD2D2",
"+.	c #E8C2C2",
"@.	c #D27070",
"#.	c #FEFCFC",
"$.	c #EDCDCD",
"%.	c #F3E1E1",
"&.	c #EAC3C3",
"*.	c #D26464",
"=.	c #E7C1C1",
"-.	c #F3E2E2",
";.	c #EED6D6",
">.	c #E2ABAB",
",.	c #E1ABAB",
"'.	c #E1A9A9",
").	c #E0A9A9",
"!.	c #D78282",
"~.	c #F0D9D9",
"{.	c #FFFEFE",
"].	c #D47777",
"^.	c #DC9898",
"/.	c #F9EFEF",
"(.	c #CA1818",
"_.	c #CC4040",
":.	c #F9F1F1",
"<.	c #F2E0E0",
"[.	c #C90D0D",
"}.	c #DB9292",
"|.	c #E0AAAA",
"1.	c #EACACA",
"2.	c #D78484",
"3.	c #D58383",
"4.	c #D68383",
"5.	c #D37878",
"6.	c #EAC6C6",
"7.	c #FCFAFA",
"8.	c #D57575",
"9.	c #F1D8D8",
"0.	c #FCF8F8",
"a.	c #CF5757",
"b.	c #D57B7B",
"c.	c #EAC5C5",
"d.	c #CF6060",
"e.	c #FDFAFA",
"f.	c #C91D1D",
"g.	c #F6E6E6",
"h.	c #FBF3F3",
"i.	c #CC4242",
"j.	c #E4B6B6",
"k.	c #D98F8F",
"l.	c #E3ADAD",
"m.	c #DFA3A3",
"n.	c #D15F5F",
"o.	c #CA2C2C",
"p.	c #E4B2B2",
"q.	c #DE9C9C",
"r.	c #D05E5E",
"s.	c #E3B1B1",
"t.	c #CC4848",
"u.	c #DD9E9E",
"v.	c #DC9595",
"w.	c #C70201",
"x.	c #C60201",
"y.	c #C80201",
"                                                      . + @ + # $ + @ + %                                                       ",
"                                              @ + & & + % + & & + % + & & + % + %                                               ",
"                                        $ + % + & & + % + & & + % + & & + % + & & + % +                                         ",
"                                    # & + % + & & + % + & & + % + & & + % + & & + % + & & +                                     ",
"                                + & & + % + & & + % + & & + % + & & + % + & & + % + & & + % + &                                 ",
"                            @ + & & + % + & & + % + & & + % + & & + % + & & + % + & & + % + & & + *                             ",
"                          % + & & + % + & & + % + & & + % + & & + % + & & + % + & & + % + & & + % + &                           ",
"                        % + & & + % + & & + % + & & + % + & & + % + & & + % + & & + % + & & + % + & & +                         ",
"                    & % + & & + % + & & + % + & & + % + & & + % + & & + % + & & + % + & & + % + & & + % + %                     ",
"                  + % + & & + % + & & + % + & & + % + & & + % + & & + % + & & + % + & & + % + & & + % + & & +                   ",
"                & % + & & + % + & & + % + & & + % + & & + % + & & + % + & & + % + & & + % + & & + % + & & + % +                 ",
"                % + & & + % + & & + % + & & + % + & & + % + & & + % + & & + % + & & + % + & & + % + & & + % + &                 ",
"              % + & & + % + & & + % + & & + % + & & + % + & & + % + & & + % + & & + % + & & + % + & & + % + & & +               ",
"            % + & & + % + & & + % + & & + % + & & + % + & & + % + & & + % + & & + % + & & + % + & & + % + & & + % +             ",
"          @ + & & + % + & & + % + & & + % + & & + % + & & + % + & & + % + & & + % + & & + % + & & + % + & & + % + & %           ",
"          + & & + % + & & + % + & & + % + & & + % + & & + % + & & + % + & & + % + & & + % + & & + % + & & + % + & & +           ",
"        + & & + % + & & + % + & & + % + & & + % + & & + % + & & + % + & & + % + & & + % + & & + % + & & + % + & & + % +         ",
"        & & + % + & & + % + & & + % + & & + % + & & + % + & & + % + & & + % + & & + % + & & + % + & & + % + & & + % + &         ",
"      & & + % + & & + % + & & + % + & & + % + & & + % + & & + % + & & + % + & & + % + & & + % + & & + % + & & + % + & & +       ",
"      & + % + & & + % + & & + % + & & + % + & & + % + & & + % + & & + % + & & + % + & & + % + & & + % + & & + % + & & + %       ",
"    $ + % + & & + % + & & + % + & & + % + & & + % + & & + % + & & + % + & & + % + & & + % + & & + % + & & + % + & & + % + $     ",
"    + % + & & + % + & & + % + & & + % + & & + % + & & + % + & & + % + & & + % + & & + % + & & + % + & & + % + & & + % + & &     ",
"  + % + & & + % + & & + % + & & + % + & & + % + & & + % + & & + % + & & + % + & & + % + & & + % + & & + % + & & + % + & & + *   ",
"  @ + & & + % + & & + % + & & + % + & & + % + & & + % + & & + % + & & + % + & & + % + & & + % + & & + % + & & + % + & & + % +   ",
"  + & & + % + & & + % + & & + % + & & + % + & & + % + & & + % + & & + % + & & + % + & & + % + & & + % + & & + % + & & + % + &   ",
"  & & + % + & & + % + & & = - ; > , ; - ; > ' ) - ; ! & + % + & ~ ; - { ] , ^ / ( > , ; - ; > , ; - _ & & + % + & & + % + & &   ",
"% & + % + & & + % + & & + : < [ [ < } < [ [ | / 1 [ 2 3 % + & & 4 } < 5 6 < } 7 8 [ < } < [ [ < } < 2 & + % + & & + % + & & + 9 ",
"$ + % + & & + % + & & + # 0 [ [ < } < [ [ < a + b [ < c + & & d e < f $ g } < 7 8 < } < [ [ < } < [ h + % + & & + % + & & + % + ",
"+ % + & & + % + & & + % + i [ j k l m c n k o & & p } q r & + s < t u + b < [ v w x y z 2 < A y z x B % + & & + % + & & + % + $ ",
"% + & & + % + & & + % + & i < C + & & + % + & & + D 0 [ E + F G [ H + % I [ [ J % + & & K } L & & + % + & & + % + & & + % + & & ",
"+ & & + % + & & + % + & & M } N & & + % + & & + % + 4 [ < O P [ h Q % + R [ < S + & & + T < U & + % + & & + % + & & + % + & & + ",
"& & + % + & & + % + & & + : < V S 7 W 7 v S X % + & Y Z } ` [ [  .% + & 6 < } 7 & & + % K [ ..+ % + & & + % + & & + % + & & + % ",
"& + % + & & + % + & & + # 0 [ [ < } < [ [ < +.+ & & + @.#.[ [ $.% + & & g } < ' & + % + %.[ L % + & & + % + & & + % + & & + % + ",
"+ % + & & + % + & & + % + i [ < } < [ [ < } &.& & + % *.t [ < =.+ & & + b < [ v + % + & -.< E + & & + % + & & + % + & & + % + & ",
"% + & & + % + & & + % + & i < ;.>.,.'.>.).>.!.& + % + ~.[ {.} G ].& + % I [ [ J % + & & K } L & & + % + & & + % + & & + % + & & ",
"+ & & + % + & & + % + & & M } N & & + % + & & + % + ^.[ < ,./.[ K (.% + R [ < S + & & + T < U & + % + & & + % + & & + % + & & + ",
"# & + % + & & + % + & & + : < N & + % + & & + % + _.:.< <.[.}.[ < |.+ & 6 < } 7 & & + % K [ ..+ % + & & + % + & & + % + & & + @ ",
". + % + & & + % + & & + # 0 [ 1.2.3.2.4.2.2.5.+ & 6.< 7.8.& & 9.} 0.a.& g } < ' & + % + %.[ L % + & & + % + & & + % + & & + % + ",
"  % + & & + % + & & + % + i [ < } < [ [ < } | & b.G } c.& & + d.e.[ E + b < [ v + % + & -.< E + & & + % + & & + % + & & + % +   ",
"  + & & + % + & & + % + & i < } < [ [ < } < h f.g.} h.i.& + % + j.[ < k.I [ [ J % + & & K } L & & + % + & & + % + & & + % + &   ",
"  & & + % + & & + % + & & l.k l m c n k l m m.n.k l 2.& + % + & o.p.k q.r.s.l t.+ & & + u.l v.& + % + & & + % + & & + % + & &   ",
"  $ + % + & & + % + & & + % + & & + % + & & + % + & & + % + & & + % + & & + % + & & + % + & & + % + & & + % + & & + % + & & +   ",
"    % + & & + % + & & + % + & & + % + & & + % + & & + % + & & + % + & & + % + & & + % + & & + % + & & + % + & & + % + & & +     ",
"    + & & + % + & & + % + & & + % + & & + % + & & + % + & & + % + & & + % + & & + % + & & + % + & & + % + & & + % + & & + %     ",
"    % & + % + & & + % + & & + % + & & + % + & & + % + & & + % + & & + % + & & + % + & & + % + & & + % + & & + % + & & + % +     ",
"      + % + & & + % + & & + % + & & + % + & & + % + & & + % + & & + % + & & + % + & & + % + & & + % + & & + % + & & + % +       ",
"      * + & & + % + & & + % + & & + % + & & + % + & & + % + & & + % + & & + % + & & + % + & & + % + & & + % + & & + % + .       ",
"        & & + % + & & + % + & & + % + & & + % + & & + % + & & + % + & & + % + & & + % + & & + % + & & + % + & & + % + &         ",
"        w.+ % + & & + % + & & + % + & & + % + & & + % + & & + % + & & + % + & & + % + & & + % + & & + % + & & + % + & @         ",
"          % + & & + % + & & + % + & & + % + & & + % + & & + % + & & + % + & & + % + & & + % + & & + % + & & + % + & #           ",
"            & & + % + & & + % + & & + % + & & + % + & & + % + & & + % + & & + % + & & + % + & & + % + & & + % + & &             ",
"              + % + & & + % + & & + % + & & + % + & & + % + & & + % + & & + % + & & + % + & & + % + & & + % + & &               ",
"              x.+ & & + % + & & + % + & & + % + & & + % + & & + % + & & + % + & & + % + & & + % + & & + % + & & +               ",
"                % & + % + & & + % + & & + % + & & + % + & & + % + & & + % + & & + % + & & + % + & & + % + & & +                 ",
"                  + % + & & + % + & & + % + & & + % + & & + % + & & + % + & & + % + & & + % + & & + % + & & +                   ",
"                    + & & + % + & & + % + & & + % + & & + % + & & + % + & & + % + & & + % + & & + % + & & +                     ",
"                      % + % + & & + % + & & + % + & & + % + & & + % + & & + % + & & + % + & & + % + & & +                       ",
"                        * + & & + % + & & + % + & & + % + & & + % + & & + % + & & + % + & & + % + & & +                         ",
"                            & + % + & & + % + & & + % + & & + % + & & + % + & & + % + & & + % + & &                             ",
"                              * + & & + % + & & + % + & & + % + & & + % + & & + % + & & + % + & %                               ",
"                                  % + % + & & + % + & & + % + & & + % + & & + % + & & + % + y.                                  ",
"                                      + & & + % + & & + % + & & + % + & & + % + & & + % +                                       ",
"                                            @ + & & + % + & & + % + & & + % + & & +                                             ",
"                                                    @ + & & + % + & & + % + .                                                   "};
