/* XPM */
static const char *hit_xpm[] = {
"64 64 157 2",
"  	c None",
". 	c #F5FBF3",
"+ 	c #DDF3D7",
"@ 	c #CAEDC0",
"# 	c #B5E6A6",
"$ 	c #A1E18B",
"% 	c #92DD76",
"& 	c #83DA5F",
"* 	c #7FD959",
"= 	c #A1E18C",
"- 	c #FEFFFE",
"; 	c #E9F7E5",
"> 	c #C4EBB9",
", 	c #9CE084",
"' 	c #7ED958",
") 	c #7ED957",
"! 	c #9CE085",
"~ 	c #C5EBBA",
"{ 	c #EAF7E6",
"] 	c #F9FDF8",
"^ 	c #D1EFC9",
"/ 	c #9ADF82",
"( 	c #9BE084",
"_ 	c #D2EFCA",
": 	c #FAFDF9",
"< 	c #F9FDF7",
"[ 	c #89DB69",
"} 	c #8ADC6A",
"| 	c #CBEDC2",
"1 	c #D5F0CE",
"2 	c #8DDC6F",
"3 	c #8EDD71",
"4 	c #D7F1D0",
"5 	c #F1FAEF",
"6 	c #A6E293",
"7 	c #A9E396",
"8 	c #F2FAF0",
"9 	c #DBF2D5",
"0 	c #88DB67",
"a 	c #FCFEFC",
"b 	c #B4E6A4",
"c 	c #B7E7A9",
"d 	c #FDFEFC",
"e 	c #AEE49D",
"f 	c #B2E6A3",
"g 	c #B3E6A4",
"h 	c #85DB62",
"i 	c #B8E7AA",
"j 	c #C2EAB6",
"k 	c #8BDC6B",
"l 	c #DEF3D8",
"m 	c #8ADB6A",
"n 	c #C7ECBD",
"o 	c #D9F2D2",
"p 	c #E0F4DB",
"q 	c #7FD958",
"r 	c #F0F9ED",
"s 	c #87DB65",
"t 	c #FEFEFD",
"u 	c #85DB63",
"v 	c #F3FAF0",
"w 	c #FEFFFD",
"x 	c #A4E290",
"y 	c #8EDC6F",
"z 	c #A9E397",
"A 	c #D4F0CC",
"B 	c #F8FCF7",
"C 	c #8BDC6D",
"D 	c #C7ECBC",
"E 	c #86DB65",
"F 	c #8ADC6B",
"G 	c #CDEEC4",
"H 	c #D3F0CC",
"I 	c #95DE7B",
"J 	c #9DE086",
"K 	c #E6F6E2",
"L 	c #ECF8E8",
"M 	c #C1EAB5",
"N 	c #C8ECBE",
"O 	c #96DE7C",
"P 	c #9FE088",
"Q 	c #F7FCF5",
"R 	c #DBF2D4",
"S 	c #CCEDC3",
"T 	c #AFE59E",
"U 	c #9EE087",
"V 	c #8FDD71",
"W 	c #9BE083",
"X 	c #8EDD6F",
"Y 	c #DFF4D9",
"Z 	c #DEF3D9",
"` 	c #99DF81",
" .	c #81DA5B",
"..	c #DFF3D9",
"+.	c #8ADC69",
"@.	c #86DB64",
"#.	c #FDFEFD",
"$.	c #81DA5C",
"%.	c #80D95A",
"&.	c #FDFFFD",
"*.	c #84DB61",
"=.	c #80DA5A",
"-.	c #85DB61",
";.	c #86DB62",
">.	c #94DE79",
",.	c #95DE7A",
"'.	c #A2E18D",
").	c #B4E6A5",
"!.	c #C9ECBF",
"~.	c #CAEDC1",
"{.	c #F4FBF2",
"].	c #F5FCF3",
"^.	c #98DF80",
"/.	c #C3EAB8",
"(.	c #C6EBBB",
"_.	c #E8F7E4",
":.	c #EBF8E7",
"<.	c #98DF7F",
"[.	c #FFFFFE",
"}.	c #CFEEC6",
"|.	c #F8FDF7",
"1.	c #87DB66",
"2.	c #CCEDC2",
"3.	c #8CDC6E",
"4.	c #8FDD72",
"5.	c #D5F0CD",
"6.	c #D8F1D1",
"7.	c #A5E291",
"8.	c #ABE499",
"9.	c #F0FAED",
"0.	c #F3FBF1",
"a.	c #D9F2D3",
"b.	c #89DB6A",
"c.	c #B3E6A3",
"d.	c #B9E7AA",
"e.	c #FCFEFB",
"f.	c #ADE49C",
"g.	c #BBE8AE",
"h.	c #C3EBB8",
"i.	c #DAF2D3",
"j.	c #F0FAEE",
"k.	c #F4FBF1",
"l.	c #8CDC6D",
"m.	c #90DD73",
"n.	c #DAF2D4",
"o.	c #D0EEC7",
"p.	c #99DF80",
"q.	c #C3EAB7",
"r.	c #9EE088",
"s.	c #EBF8E8",
"t.	c #DCF2D6",
"u.	c #A0E18A",
"v.	c #91DD75",
"w.	c #83DA5E",
"x.	c #89DC68",
"y.	c #B6E7A8",
"z.	c #F6FCF4",
"                                                . + @ # $ % & * * & % = # @ + .                                                 ",
"                                        - ; > , ' ) ) ) ) ) ) ) ) ) ) ) ) ) ) ' ! ~ { -                                         ",
"                                    ] ^ / ) ) ) ) ) ) ) ) ) ) ) ) ) ) ) ) ) ) ) ) ) ) ( _ :                                     ",
"                                < @ [ ) ) ) ) ) ) ) ) ) ) ) ) ) ) ) ) ) ) ) ) ) ) ) ) ) ) } | ]                                 ",
"                            - 1 2 ) ) ) ) ) ) ) ) ) ) ) ) ) ) ) ) ) ) ) ) ) ) ) ) ) ) ) ) ) ) 3 4 -                             ",
"                          5 6 ) ) ) ) ) ) ) ) ) ) ) ) ) ) ) ) ) ) ) ) ) ) ) ) ) ) ) ) ) ) ) ) ) ) 7 8                           ",
"                        9 0 ) ) ) ) ) ) ) ) ) ) ) ) ) ) ) ) ) ) ) ) ) ) ) ) ) ) ) ) ) ) ) ) ) ) ) ) [ +                         ",
"                    - > ' ) ) ) ) ) ) ) ) ) ) ) ) ) ) ) ) ) ) ) ) ) ) ) ) ) ) ) ) ) ) ) ) ) ) ) ) ) ) ' ~ -                     ",
"                  a b ) ) ) ) ) ) ) ) ) ) ) ) ) ) ) ) ) ) ) ) ) ) ) ) ) ) ) ) ) ) ) ) ) ) ) ) ) ) ) ) ) ) c d                   ",
"                a e ) ) ) ) ) ) ) ) ) ) ) ) ) ) ) ) ) ) ) ) ) ) ) ) ) ) ) ) ) ) ) ) ) ) ) ) ) ) ) ) ) ) ) ) f d                 ",
"              - g ) ) ) ) ) ) ) ) ) ) ) ) ) ) ) ) ) ) ) ) ) ) h h ) ) ) ) ) ) ) ) ) ) ) ) ) ) ) ) ) ) ) ) ) ) i -               ",
"              j ) ) ) ) ) ) ) ) ) ) ) ) ) ) ) ) ) ) ) ) ) k l - - l m ) ) ) ) ) ) ) ) ) ) ) ) ) ) ) ) ) ) ) ) ) n               ",
"            o ) ) ) ) ) ) ) ) ) ) ) ) ) ) ) ) ) ) ) ) ) ) p         l ) ) ) ) ) ) ) ) ) ) ) ) ) ) ) ) ) ) ) ) ) q l             ",
"          r s ) ) ) ) ) ) ) ) ) ) ) ) ) ) ) ) ) ) ) ) ) 0 -         t u ) ) ) ) ) ) ) ) ) ) ) ) ) ) ) ) ) ) ) ) ) } v           ",
"        w x ) ) ) ) ) ) ) ) ) ) ) ) ) ) ) ) ) ) ) ) ) ) y             2 ) ) ) ) ) ) ) ) ) ) ) ) ) ) ) ) ) ) ) ) ) ) z -         ",
"        A ) ) ) ) ) ) ) ) ) ) ) ) ) ) ) ) ) ) ) ) ) ) ) y             2 ) ) ) ) ) ) ) ) ) ) ) ) ) ) ) ) ) ) ) ) ) ) ) 4         ",
"      B C ) ) ) ) ) ) ) ) ) ) ) ) ) ) ) ) ) ) ) ) ) ) ) y             2 ) ) ) ) ) ) ) ) ) ) ) ) ) ) ) ) ) ) ) ) ) ) ) 3 ]       ",
"      D ) ) ) ) ) ) ) ) ) ) ) ) ) ) ) ) ) ) ) ) ) ) ) ) y             2 ) ) ) ) ) ) ) ) ) ) ) ) ) ) ) ) ) ) ) ) ) ) ) ) |       ",
"    B E ) ) ) ) ) ) ) ) ) ) ) ) ) ) ) ) ) ) ) ) ) ) ) ) y             2 ) ) ) ) ) ) ) ) ) ) ) ) ) ) ) ) ) ) ) ) ) ) ) ) F :     ",
"    G ) ) ) ) ) ) ) ) ) ) ) ) ) ) ) ) ) ) ) ) ) ) ) ) ) y             2 ) ) ) ) ) ) ) ) ) ) ) ) ) ) ) ) ) ) ) ) ) ) ) ) ) H     ",
"  - I ) ) ) ) ) ) ) ) ) ) ) ) ) ) ) ) ) ) ) ) ) ) ) ) ) y             2 ) ) ) ) ) ) ) ) ) ) ) ) ) ) ) ) ) ) ) ) ) ) ) ) ) J     ",
"  K ) ) ) ) ) ) ) ) ) ) ) ) ) ) ) ) ) ) ) ) ) ) ) ) ) ) y             2 ) ) ) ) ) ) ) ) ) ) ) ) ) ) ) ) ) ) ) ) ) ) ) ) ) ) L   ",
"  M ) ) ) ) ) ) ) ) ) ) ) ) ) ) ) ) ) ) ) ) ) ) ) ) ) ) y             2 ) ) ) ) ) ) ) ) ) ) ) ) ) ) ) ) ) ) ) ) ) ) ) ) ) ) N   ",
"  O ) ) ) ) ) ) ) ) ) ) ) ) ) ) ) ) ) ) ) ) ) ) ) ) ) ) y             2 ) ) ) ) ) ) ) ) ) ) ) ) ) ) ) ) ) ) ) ) ) ) ) ) ) ) P   ",
"8 ) ) ) ) ) ) ) ) ) ) ) ) ) ) ) ) ) ) ) ) ) ) ) ) ) ) ) y             2 ) ) ) ) ) ) ) ) ) ) ) ) ) ) ) ) ) ) ) ) ) ) ) ) ) ) q Q ",
"R ) ) ) ) ) ) ) ) ) ) ) ) ) ) ) ) ) ) ) ) ) ) ) ) ) ) ) y             2 ) ) ) ) ) ) ) ) ) ) ) ) ) ) ) ) ) ) ) ) ) ) ) ) ) ) ) p ",
"D ) ) ) ) ) ) ) ) ) ) ) ) ) ) ) ) ) ) ) ) ) ) ) ) ) ) ) y             2 ) ) ) ) ) ) ) ) ) ) ) ) ) ) ) ) ) ) ) ) ) ) ) ) ) ) ) S ",
"T ) ) ) ) ) ) ) ) ) ) ) ) ) ) ) ) ) ) ) ) ) ) ) ) ) ) ) y             2 ) ) ) ) ) ) ) ) ) ) ) ) ) ) ) ) ) ) ) ) ) ) ) ) ) ) ) c ",
"U ) ) ) ) ) ) ) ) ) ) ) ) 0 V V V V V V V V V V V V V V W             W V V V V V V V V V V V V V V 0 ) ) ) ) ) ) ) ) ) ) ) ) x ",
"X ) ) ) ) ) ) ) ) ) ) C Y -                                                                         - Z F ) ) ) ) ) ) ) ) ) ) ` ",
" .) ) ) ) ) ) ) ) ) ) ..                                                                                + ) ) ) ) ) ) ) ) ) ) +.",
"' ) ) ) ) ) ) ) ) ) @.-                                                                                 #.& ) ) ) ) ) ) ) ) ) $.",
"%.) ) ) ) ) ) ) ) ) h w                                                                                 &.*.) ) ) ) ) ) ) ) ) =.",
"-.) ) ) ) ) ) ) ) ) ) l                                                                                 + ) ) ) ) ) ) ) ) ) ) ;.",
">.) ) ) ) ) ) ) ) ) ) F Z w                                                                         #.+ [ ) ) ) ) ) ) ) ) ) ) ,.",
"$ ) ) ) ) ) ) ) ) ) ) ) ) E V V V V V V V V V V V V V V W             W V V V V V V V V V V V V V V @.) ) ) ) ) ) ) ) ) ) ) ) '.",
"f ) ) ) ) ) ) ) ) ) ) ) ) ) ) ) ) ) ) ) ) ) ) ) ) ) ) ) y             2 ) ) ) ) ) ) ) ) ) ) ) ) ) ) ) ) ) ) ) ) ) ) ) ) ) ) ) ).",
"!.) ) ) ) ) ) ) ) ) ) ) ) ) ) ) ) ) ) ) ) ) ) ) ) ) ) ) y             2 ) ) ) ) ) ) ) ) ) ) ) ) ) ) ) ) ) ) ) ) ) ) ) ) ) ) ) ~.",
"+ ) ) ) ) ) ) ) ) ) ) ) ) ) ) ) ) ) ) ) ) ) ) ) ) ) ) ) y             2 ) ) ) ) ) ) ) ) ) ) ) ) ) ) ) ) ) ) ) ) ) ) ) ) ) ) ) Y ",
"{.) ) ) ) ) ) ) ) ) ) ) ) ) ) ) ) ) ) ) ) ) ) ) ) ) ) ) y             2 ) ) ) ) ) ) ) ) ) ) ) ) ) ) ) ) ) ) ) ) ) ) ) ) ) ) ' ].",
"  ^.) ) ) ) ) ) ) ) ) ) ) ) ) ) ) ) ) ) ) ) ) ) ) ) ) ) y             2 ) ) ) ) ) ) ) ) ) ) ) ) ) ) ) ) ) ) ) ) ) ) ) ) ) ) ,   ",
"  /.) ) ) ) ) ) ) ) ) ) ) ) ) ) ) ) ) ) ) ) ) ) ) ) ) ) y             2 ) ) ) ) ) ) ) ) ) ) ) ) ) ) ) ) ) ) ) ) ) ) ) ) ) ) (.  ",
"  _.) ) ) ) ) ) ) ) ) ) ) ) ) ) ) ) ) ) ) ) ) ) ) ) ) ) y             2 ) ) ) ) ) ) ) ) ) ) ) ) ) ) ) ) ) ) ) ) ) ) ) ) ) ) :.  ",
"  - <.) ) ) ) ) ) ) ) ) ) ) ) ) ) ) ) ) ) ) ) ) ) ) ) ) y             2 ) ) ) ) ) ) ) ) ) ) ) ) ) ) ) ) ) ) ) ) ) ) ) ) ) , [.  ",
"    }.) ) ) ) ) ) ) ) ) ) ) ) ) ) ) ) ) ) ) ) ) ) ) ) ) y             2 ) ) ) ) ) ) ) ) ) ) ) ) ) ) ) ) ) ) ) ) ) ) ) ) ) _     ",
"    |.1.) ) ) ) ) ) ) ) ) ) ) ) ) ) ) ) ) ) ) ) ) ) ) ) y             2 ) ) ) ) ) ) ) ) ) ) ) ) ) ) ) ) ) ) ) ) ) ) ) ) F :     ",
"      N ) ) ) ) ) ) ) ) ) ) ) ) ) ) ) ) ) ) ) ) ) ) ) ) y             2 ) ) ) ) ) ) ) ) ) ) ) ) ) ) ) ) ) ) ) ) ) ) ) ) 2.      ",
"      |.3.) ) ) ) ) ) ) ) ) ) ) ) ) ) ) ) ) ) ) ) ) ) ) y             2 ) ) ) ) ) ) ) ) ) ) ) ) ) ) ) ) ) ) ) ) ) ) ) 4.]       ",
"        5.) ) ) ) ) ) ) ) ) ) ) ) ) ) ) ) ) ) ) ) ) ) ) y             2 ) ) ) ) ) ) ) ) ) ) ) ) ) ) ) ) ) ) ) ) ) ) ) 6.        ",
"        - 7.) ) ) ) ) ) ) ) ) ) ) ) ) ) ) ) ) ) ) ) ) ) y             2 ) ) ) ) ) ) ) ) ) ) ) ) ) ) ) ) ) ) ) ) ) ) 8.[.        ",
"          9.s ) ) ) ) ) ) ) ) ) ) ) ) ) ) ) ) ) ) ) ) ) s -         w E ) ) ) ) ) ) ) ) ) ) ) ) ) ) ) ) ) ) ) ) ) m 0.          ",
"            a.) ) ) ) ) ) ) ) ) ) ) ) ) ) ) ) ) ) ) ) ) ) Y         l ) ) ) ) ) ) ) ) ) ) ) ) ) ) ) ) ) ) ) ) ) q l             ",
"              j ) ) ) ) ) ) ) ) ) ) ) ) ) ) ) ) ) ) ) ) ) F Z w #.+ b.) ) ) ) ) ) ) ) ) ) ) ) ) ) ) ) ) ) ) ) ) !.              ",
"              w c.) ) ) ) ) ) ) ) ) ) ) ) ) ) ) ) ) ) ) ) ) ) h -.) ) ) ) ) ) ) ) ) ) ) ) ) ) ) ) ) ) ) ) ) ) d.-               ",
"                e.f.) ) ) ) ) ) ) ) ) ) ) ) ) ) ) ) ) ) ) ) ) ) ) ) ) ) ) ) ) ) ) ) ) ) ) ) ) ) ) ) ) ) ) ) # #.                ",
"                  e.f ) ) ) ) ) ) ) ) ) ) ) ) ) ) ) ) ) ) ) ) ) ) ) ) ) ) ) ) ) ) ) ) ) ) ) ) ) ) ) ) ) ) g.t                   ",
"                    - h.) ) ) ) ) ) ) ) ) ) ) ) ) ) ) ) ) ) ) ) ) ) ) ) ) ) ) ) ) ) ) ) ) ) ) ) ) ) ) q !.[.                    ",
"                        i.1.) ) ) ) ) ) ) ) ) ) ) ) ) ) ) ) ) ) ) ) ) ) ) ) ) ) ) ) ) ) ) ) ) ) ) ) } l                         ",
"                          j.7.) ) ) ) ) ) ) ) ) ) ) ) ) ) ) ) ) ) ) ) ) ) ) ) ) ) ) ) ) ) ) ) ) ) f.k.                          ",
"                            - A l.) ) ) ) ) ) ) ) ) ) ) ) ) ) ) ) ) ) ) ) ) ) ) ) ) ) ) ) ) ) m.n.                              ",
"                                B N 0 ) ) ) ) ) ) ) ) ) ) ) ) ) ) ) ) ) ) ) ) ) ) ) ) ) ) F | ]                                 ",
"                                    ] o.p.) ) ) ) ) ) ) ) ) ) ) ) ) ) ) ) ) ) ) ) ) ) , _ :                                     ",
"                                        - _.q./ ' ) ) ) ) ) ) ) ) ) ) ) ) ) ) q r.N s.-                                         ",
"                                                {.t.!.).u.v.w.*  .x.p.x y.2.p z.                                                "};
