/* XPM */
static char * hit_xpm[] = {
"72 86 266 2",
"  	c None",
". 	c #A2B8AD",
"+ 	c #D0F3E2",
"@ 	c #E2F8ED",
"# 	c #ECFAF3",
"$ 	c #F3FCF8",
"% 	c #FCFEFD",
"& 	c #FBFEFC",
"* 	c #F1FBF7",
"= 	c #EAFAF2",
"- 	c #DFF6EB",
"; 	c #CDF2E0",
"> 	c #C3F0DA",
", 	c #E4F8EE",
"' 	c #FFFFFF",
") 	c #DAF5E8",
"! 	c #9AB6A9",
"~ 	c #84E0B4",
"{ 	c #DFF7EB",
"] 	c #F0FBF5",
"^ 	c #B0EBCE",
"/ 	c #7FDFB1",
"( 	c #56D497",
"_ 	c #2CCA7E",
": 	c #18C572",
"< 	c #0EC26C",
"[ 	c #03C065",
"} 	c #06C067",
"| 	c #10C36D",
"1 	c #1BC573",
"2 	c #34CC83",
"3 	c #60D79D",
"4 	c #8AE1B7",
"5 	c #BEEFD7",
"6 	c #F8FDFA",
"7 	c #E2F7ED",
"8 	c #97B5A7",
"9 	c #92E3BC",
"0 	c #F3FCF7",
"a 	c #D7F5E6",
"b 	c #7CDEAF",
"c 	c #33CB82",
"d 	c #02BF64",
"e 	c #00BF63",
"f 	c #09C168",
"g 	c #43D08C",
"h 	c #93E4BD",
"i 	c #F5FCF9",
"j 	c #9BE6C2",
"k 	c #83E0B3",
"l 	c #F4FCF8",
"m 	c #F8FDFB",
"n 	c #9CE6C2",
"o 	c #34CC82",
"p 	c #04C065",
"q 	c #4CD291",
"r 	c #BCEED6",
"s 	c #8FB3A1",
"t 	c #DDF6EA",
"u 	c #8EE2B9",
"v 	c #19C572",
"w 	c #35CC83",
"x 	c #B6EDD2",
"y 	c #84E0B3",
"z 	c #CAF2DF",
"A 	c #2ECA7F",
"B 	c #58D599",
"C 	c #E9F9F2",
"D 	c #88B19D",
"E 	c #C6F0DC",
"F 	c #03BF65",
"G 	c #14C46F",
"H 	c #B3EBD0",
"I 	c #BEEED7",
"J 	c #E1F7ED",
"K 	c #3DCE88",
"L 	c #72DBA9",
"M 	c #FAFDFC",
"N 	c #D3F4E4",
"O 	c #EFFBF5",
"P 	c #CAF1DF",
"Q 	c #17C571",
"R 	c #41CF8B",
"S 	c #D9F5E8",
"T 	c #EEFAF4",
"U 	c #B1EBCF",
"V 	c #29C97C",
"W 	c #DEF7EB",
"X 	c #CEF2E1",
"Y 	c #E7F9F0",
"Z 	c #05C066",
"` 	c #22C778",
" .	c #EAF9F2",
"..	c #A2E7C6",
"+.	c #D1F3E3",
"@.	c #0EC26B",
"#.	c #36CC84",
"$.	c #F6FCF9",
"%.	c #87B19D",
"&.	c #91B3A3",
"*.	c #EEFBF5",
"=.	c #1EC675",
"-.	c #59D59A",
";.	c #4ED292",
">.	c #9CE6C3",
",.	c #E3F8EE",
"'.	c #E0F7EC",
").	c #94E4BE",
"!.	c #93B4A4",
"~.	c #E6F8EF",
"{.	c #0CC26A",
"].	c #F9FDFB",
"^.	c #F1FBF6",
"/.	c #58D598",
"(.	c #A6E8C8",
"_.	c #C5F0DB",
":.	c #9CB6A9",
"<.	c #CAF1DE",
"[.	c #4DD292",
"}.	c #B8EDD3",
"|.	c #C7F1DC",
"1.	c #9AE5C1",
"2.	c #33CC82",
"3.	c #9AE6C1",
"4.	c #27C97B",
"5.	c #63D8A0",
"6.	c #21C777",
"7.	c #6DDAA6",
"8.	c #CFF3E1",
"9.	c #24C879",
"0.	c #B9EDD4",
"a.	c #FBFEFD",
"b.	c #11C36D",
"c.	c #30CB80",
"d.	c #EBFAF3",
"e.	c #DBF6E9",
"f.	c #8BE2B8",
"g.	c #5AD59A",
"h.	c #B3ECD0",
"i.	c #09C169",
"j.	c #DCF6EA",
"k.	c #6FDAA7",
"l.	c #40CF8A",
"m.	c #BFEFD8",
"n.	c #BFEFD7",
"o.	c #E9F9F1",
"p.	c #2DCA7F",
"q.	c #48D18F",
"r.	c #81DFB2",
"s.	c #9DE6C3",
"t.	c #F2FBF7",
"u.	c #E3F8ED",
"v.	c #CBF2DF",
"w.	c #44D08C",
"x.	c #C8F1DD",
"y.	c #50D393",
"z.	c #AFEBCE",
"A.	c #1BC673",
"B.	c #EEFAF5",
"C.	c #A0E7C5",
"D.	c #28C97B",
"E.	c #ABEACC",
"F.	c #7F7F7F",
"G.	c #7DDEAF",
"H.	c #EDFAF4",
"I.	c #74DCAA",
"J.	c #10C36C",
"K.	c #A7E9C9",
"L.	c #BDEED6",
"M.	c #C7F1DD",
"N.	c #6DDAA5",
"O.	c #18C571",
"P.	c #08C168",
"Q.	c #2BCA7D",
"R.	c #3FCF8A",
"S.	c #23C878",
"T.	c #ACEACC",
"U.	c #C2EFDA",
"V.	c #68D9A3",
"W.	c #5FD79D",
"X.	c #1CC674",
"Y.	c #F7FDFA",
"Z.	c #23C879",
"`.	c #A3E8C7",
" +	c #9EE6C4",
".+	c #73DBA9",
"++	c #97E5BF",
"@+	c #87E1B6",
"#+	c #5BD69B",
"$+	c #7FAF98",
"%+	c #6BDAA4",
"&+	c #3CCE87",
"*+	c #7BDEAE",
"=+	c #47D18E",
"-+	c #B5ECD2",
";+	c #8EE2BA",
">+	c #6CDAA5",
",+	c #C4F0DB",
"'+	c #B0EBCF",
")+	c #9FE7C4",
"!+	c #D8F5E7",
"~+	c #6BDAA5",
"{+	c #0FC36C",
"]+	c #D7F5E7",
"^+	c #82DFB2",
"/+	c #39CD86",
"(+	c #DBF5E9",
"_+	c #3CCE88",
":+	c #54D496",
"<+	c #1FC776",
"[+	c #53D496",
"}+	c #75DCAA",
"|+	c #BAEDD5",
"1+	c #46D08E",
"2+	c #6FDBA7",
"3+	c #ABEACB",
"4+	c #64D8A0",
"5+	c #06C066",
"6+	c #53D396",
"7+	c #CCF2E0",
"8+	c #76DCAB",
"9+	c #B2EBCF",
"0+	c #82B09A",
"a+	c #56D498",
"b+	c #9FE6C4",
"c+	c #3ECE89",
"d+	c #9BE5C1",
"e+	c #D4F4E5",
"f+	c #95B4A5",
"g+	c #55D497",
"h+	c #96E4BF",
"i+	c #20C777",
"j+	c #D2F3E3",
"k+	c #D5F4E5",
"l+	c #31CB81",
"m+	c #83B09A",
"n+	c #E4F8EF",
"o+	c #BDEED7",
"p+	c #1FC676",
"q+	c #E6F9F0",
"r+	c #B2EBD0",
"s+	c #0AC169",
"t+	c #26C87A",
"u+	c #C9F1DE",
"v+	c #DCF6E9",
"w+	c #13C46F",
"x+	c #2DCA7E",
"y+	c #DFF7EC",
"z+	c #F6FDFA",
"A+	c #98E5C0",
"B+	c #79DDAD",
"C+	c #45D08D",
"D+	c #97E5C0",
"E+	c #AEEACD",
"F+	c #7DDEB0",
"G+	c #2AC97D",
"H+	c #1BC674",
"I+	c #37CD85",
"J+	c #61D79E",
"K+	c #C1EFD9",
"L+	c #DEF6EB",
"M+	c #8FB3A2",
"N+	c #E8F9F0",
"O+	c #E5F8EF",
"P+	c #9CB6AA",
"Q+	c #BFBFBF",
"                                                            . + @ # $ % & * = - ; .                                                             ",
"                                                    > , ' ' ' ' ' ' ' ' ' ' ' ' ' ' ' ' ) !                                                     ",
"                                              ~ { ' ' ' ] ^ / ( _ : < [ } | 1 2 3 4 5 6 ' ' ' 7 8                                               ",
"                                          9 0 ' ' a b c d e e e e e e e e e e e e e e f g h # ' ' i j                                           ",
"                                      k l ' m n o e e e e e e e e e e e e e e e e e e e e e p q r ' ' l s                                       ",
"                                    t ' & u v e e e e e e e e e e e e e e e e e e e e e e e e e e w x ' ' {                                     ",
"                                y % ' z A e e e e e e e e e e e e e e e e e e e e e e e e e e e e e e B C ' 6 D                                 ",
"                              E ' % b F e e e e e e e e e e e e e e e e e e e e e e e e e e e e e e e e G H ' ' I                               ",
"                            J ' , K e e e e e e e e e e e e e e e e e e e e e e e e e e e e e e e e e e e e L M ' N                             ",
"                          O ' P Q e e e e e e e e e e e e e e e e e e e e e e e e e e e e e e e e e e e e e e R O ' S                           ",
"                        T ' U f e e e e e e e e e e e e e e e e e e e e e e e e e e e e e e e e e e e e e e e e V W ' X                         ",
"                      Y ' r Z e e e e e e e e e e e e e e e e e e e e e e e e e e e e e e e e e e e e e e e e e e `  .' ..                      ",
"                    +.' N @.e e e e e e e e e e e e e e e e e e e e e e e e e e e e e e e e e e e e e e e e e e e e #.$.' %.                    ",
"                  &.' *.=.e e e e e e e e e e e e e e e e e e e e e e e e e e e e e e e e e e e e e e e e e e e e e e -.' 6                     ",
"                  M ' ;.e e e e e e e e e e e e e e e e e e e e e e e e e e e e e e e e e e e e e e e e e e e e e e e e >.' ,.                  ",
"                '.' ).e e e e e e e e e e e e e e e e e e e e e e e e e e e e e e e e e e e e e e e e e e e e e e e e e f S ' !.                ",
"                ' ~.{.e e e e e e e e e e e e e e e e e e e e e e e e e e e e e e e e e e e e e e e e e e e e e e e e e e R ' ].                ",
"              ^.' /.e e e e e e e e e e e e e e e e e e e e e e e e e e e e e e e e e e e e e e e e e e e e e e e e e e e e (.' _.              ",
"            :.' <.e e e e e e e e e e e e e e e e e e e e e e e e e e e e e e e e e e e e e e e e e e e e e e e e e e e e e =.M '               ",
"            O ' [.e e e e e e e e e e e e e e G k }.|.|.|.|.|.|.|.|.|.I 1.2.e e e e e e e e e e e e e e e e e e e e e e e e e 3.' I             ",
"            ' + e e e e e e e e e e e e e e 4.Y ' ' ' ' ' ' ' ' ' ' ' ' ' & 5.e e e e e e e e e e e e e e e e e e e e e e e e 6.' m             ",
"          { ' 7.e e e e e e e e e e e e e e 8.' ' ' ' ' ' ' ' ' ' ' ' ' ' ' & 9.e e e e e e e e e e e e e e e e e e e e e e e e 0.'             ",
"          a.].b.e e e e e e e e e e e e e c.' ' ' d.e.' ' ' ' ' ' ' ' ' ' ' ' f.e e e e e e e e e e e e e e e e e e e e e e e e g.' +.          ",
"          ' U e e e e e e e e e e e e e e [.' ' ' q {.' ' ' ' ' ' ' ' ' ' ' ' h.e e e e e e e e e e e e e e e e e e e e e e e e i.].%           ",
"        j.' k.e e e e e e e e e e e e e e [.' ' ' l.e ' ' ' ' ' ' ' ' ' ' ' ' m.e e e e e e e e e e e e e e e e e e e e e e e e e n.'           ",
"        o.' p.e e e e e e e e e e e e e e [.' ' ' q.p ' ' ' ' ' ' ' ' ' ' ' ' m.e e e e e e e e e e e e e e e e e e e e e e e e e r.' s.        ",
"        ' t.e e e e e e e e e e e e e e e [.' ' ' u.v.' ' ' ' ' ' ' ' ' ' ' ' m.e e e e e e e e e e e e e e e e e e e e e e e e e w.' +         ",
"        ' x.e e e e e e e e e e e e e e e [.' ' ' ' ' ' ' Y y.z.' ' ' ' ' ' ' m.e e e e e e e e e e e e e e e e e e e e e e e e e A.' B.        ",
"        ' C.e e e e e e e e e e e e e e e [.' ' ' ' ' ' Y D.e p E.' ' ' ' ' ' m.e e e e e e e e e e e e e e e e e e e e e e e e e e l '         ",
"      F.' G.e e e e e e e e e e e e e e e [.' ' ' ' ' Y D.e e e p m.' ' ' ' ' m.e e e e e e e e e e e e e e e e e e e e e e e e e e + '         ",
"      H.' I.e e e e e e e e e e e e e e e [.' ' ' ' ' q e e e e e J.O ' ' ' ' K.e e e e e e e e e e e e e e e e e e e e e e e e e e L.'         ",
"      M.' N.e e e e e e e e e e e e e e e [.' ' ' ' ' O.e e e e e e > ' ' O B e e P.Q.R.S.e e e e e e e e e e e e e e e e e e e e e T.'         ",
"      U.' V.e e e e e e e e e e e e e e e [.' ' ' ' ' W.e e e e e X.Y.' Y D.e Z.`.0 ' ' ' u./ J.e e e e e e e e e e e e e e e e e e  +'         ",
"      0.' .+e e e e e e e e e e e e e e e [.' ' ' ' ' & ++W.e g @+{ ' 0 c.e #+Y.' ' ' ' ' ' ' { 4.e e e e e e e e e e e e e e e e e K.'         ",
"      $+' / e e e e e e e e e e e e e e e [.' ' ' ' ' ' & %+e &+e.' ' *+e =+& ' ' ' ' ' ' ' ' ' Y O.e e e e e e e e e e e e e e e e -+'         ",
"        ' ;+e e e e e e e e e e e e e e e [.' ' ' ' ' ' ,.p e e h ' 0 P.P.Y ' ' ' ' v.>+0 ' ' ' ' E.e e e e e e e e e e e e e e e e ,+'         ",
"        ' '+e e e e e e e e e e e e e e e [.' ' ' ' ' ' ' a m.|.& ' )+e 5.' ' ' ' ' / e m.' ' ' ' ' 9.e e e e e e e e e e e e e e e Y '         ",
"        ' !+e e e e e e e e e e e e e e e [.' ' ' ' ' ' ' ' ' ' ' ' >+e h.' ' ' ' ' / e m.' ' ' ' ' ~+e e e e e e e e e e e e e e {+' $.        ",
"        ' & } e e e e e e e e e e e e e e [.' ' ' ' ' ' ' ' ' ' ' ' y.e 8.' ' ]+G e e e e e 2 ' ' ' ^+e e e e e e e e e e e e e e /+' (+        ",
"        { ' _+e e e e e e e e e e e e e e [.' ' ' ' ' ' ' ' ' ' ' ' :+e v.' ' ,.2.<+{+e Q <+[+' ' ' r.e e e e e e e e e e e e e e }+' |+        ",
"        _.' b e e e e e e e e e e e e e e 1+' ' ' ' ' ' ' ' ' ' ' ' 2+e 3+' ' ' ' ' / e m.' ' ' ' ' 4+e e e e e e e e e e e e e e -+'           ",
"          ' I e e e e e e e e e e e e e e J.Y.' ' ' ' ' ' ' ' ' ' ' h.e /.' ' ' ' ' / e m.' ' ' ' & X.e e e e e e e e e e e e e 5+t.'           ",
"          6 % 1 e e e e e e e e e e e e e e *+' ' ' ' ' ' ' ' ' ' ' Y.O.p e.' ' ' ' { f.& ' ' ' ' )+e e e e e e e e e e e e e e 6+' a           ",
"          7+' 8+e e e e e e e e e e e e e e e *+Y.' ' ' ' ' ' ' ' ' ' h e o 0 ' ' ' ' ' ' ' ' ' a J.e e e e e e e e e e e e e e 9+' 0+          ",
"            ' S d e e e e e e e e e e e e e e e {.w.3 3 3 3 3 3 3 3 3 y.e e &+Y ' ' ' ' ' ' ' v.O.e e e e e e e e e e e e e e 1 & M             ",
"             .' a+e e e e e e e e e e e e e e e e e e e e e e e e e e e e e e J./ e.' ' ' > 3 p e e e e e e e e e e e e e e e 9 ' ,+            ",
"              ' N e e e e e e e e e e e e e e e e e e e e e e e e e e e e e e e e e d P.e e e e e e e e e e e e e e e e e e : Y.'               ",
"              O ' 3 e e e e e e e e e e e e e e e e e e e e e e e e e e e e e e e e e e e e e e e e e e e e e e e e e e e e b+' E               ",
"                '  .| e e e e e e e e e e e e e e e e e e e e e e e e e e e e e e e e e e e e e e e e e e e e e e e e e e c+' ].                ",
"                '.' d+e e e e e e e e e e e e e e e e e e e e e e e e e e e e e e e e e e e e e e e e e e e e e e e e e P.e+' f+                ",
"                  ].' g+e e e e e e e e e e e e e e e e e e e e e e e e e e e e e e e e e e e e e e e e e e e e e e e e h+' ,.                  ",
"                  &.' ^.i+e e e e e e e e e e e e e e e e e e e e e e e e e e e e e e e e e e e e e e e e e e e e e e [+' Y.                    ",
"                    j+' k+{+e e e e e e e e e e e e e e e e e e e e e e e e e e e e e e e e e e e e e e e e e e e e l+$ ' m+                    ",
"                      n+' o+Z e e e e e e e e e e e e e e e e e e e e e e e e e e e e e e e e e e e e e e e e e e p+q+' b+                      ",
"                        , ' r+s+e e e e e e e e e e e e e e e e e e e e e e e e e e e e e e e e e e e e e e e e t+t ' u+                        ",
"                          7 ' ; : e e e e e e e e e e e e e e e e e e e e e e e e e e e e e e e e e e e e e e K H.' k+                          ",
"                            v+' , K e e e e e e e e e e e e e e e e e e e e e e e e e e e e e e e e e e e e 2+].' v.                            ",
"                              u+' % *+F e e e e e e e e e e e e e e e e e e e e e e e e e e e e e e e e w+U ' ' |+                              ",
"                                4 % ' z x+e e e e e e e e e e e e e e e e e e e e e e e e e e e e e e /.o.' Y.$+                                ",
"                                    y+' M f.O.e e e e e e e e e e e e e e e e e e e e e e e e e e 2 x ' ' )                                     ",
"                                      @+z+' 6 1.c.e e e e e e e e e e e e e e e e e e e e e p ;.o+' ' ^.%.                                      ",
"                                          A+i ' ' k+B+l+e e e e e e e e e e e e e e e s+C+h+H.' ' l D+                                          ",
"                                              f.,.' ' ' *.E+F+:+G+: < [ } b.H+I+J+f.K+].' ' ' L+M+                                              ",
"                                                    ; N+' ' ' ' ' ' ' ' ' ' ' ' ' ' ' % a f+                                                    ",
"                                                            O+N , # l % & ^.= t v.P+                                                            ",
"                                                                                                                                                ",
"                                                                                                                                                ",
"                                                                                                                                                ",
"                                                                                                                                                ",
"                                                                                                                                                ",
"                                                                                                                                                ",
"                                              ' '             ' '         ' '     ' ' ' ' ' ' ' ' '                                             ",
"                                              ' '             ' '       ' ' '     ' ' ' ' ' ' ' ' '                                             ",
"                                              ' '             ' '       ' ' '           ' ' '                                                   ",
"                                              ' '             ' '       ' ' '           ' ' '                                                   ",
"                                              ' ' Q+          ' '       ' ' '           ' ' '                                                   ",
"                                              ' ' ' ' ' ' ' ' ' '       ' ' '           ' ' '                                                   ",
"                                              ' ' ' ' ' ' ' ' ' '       ' ' '           ' ' '                                                   ",
"                                              ' '             ' '       ' ' '           ' ' '                                                   ",
"                                              ' '             ' '       ' ' '           ' ' '                                                   ",
"                                              ' '             ' '       ' ' '           ' ' '                                                   ",
"                                              ' '             ' '       ' ' '           ' ' '                                                   ",
"                                              ' '             ' '       ' ' '           ' ' '                                                   ",
"                                                F.            F.F.        F.              F.                                                    ",
"                                                                                                                                                ",
"                                                                                                                                                "};
