/* XPM */
static char * rebet_xpm[] = {
"72 86 208 2",
"  	c None",
". 	c #BDB8AC",
"+ 	c #FCF3E0",
"@ 	c #FDF8EB",
"# 	c #FEFAF2",
"$ 	c #FEFCF7",
"% 	c #FEFEFD",
"& 	c #FEFEFC",
"* 	c #FEFBF6",
"= 	c #FEFAF1",
"- 	c #FDF7E9",
"; 	c #FCF3DE",
"> 	c #BDB8AB",
", 	c #FBF0D7",
"' 	c #FDF8ED",
") 	c #FFFFFF",
"! 	c #FDF6E6",
"~ 	c #BDB6A7",
"{ 	c #F8E1AD",
"] 	c #FDF7EA",
"^ 	c #FEFBF5",
"/ 	c #FAEBCA",
"( 	c #F8E0AA",
"_ 	c #F5D68E",
": 	c #F3CC72",
"< 	c #F2C765",
"[ 	c #F1C45E",
"} 	c #F1C157",
"| 	c #F1C259",
"1 	c #F2C560",
"2 	c #F2C767",
"3 	c #F4CD78",
"4 	c #F6D895",
"5 	c #F8E2B1",
"6 	c #FBEFD4",
"7 	c #FEFDFA",
"8 	c #FDF8EC",
"9 	c #BDB5A4",
"0 	c #F9E4B6",
"a 	c #FCF5E4",
"b 	c #F7DFA8",
"c 	c #F3CD77",
"d 	c #F1C156",
"e 	c #F1C155",
"f 	c #F1C35B",
"g 	c #F4D182",
"h 	c #F9E4B7",
"i 	c #FEFCF8",
"j 	c #F9E7BD",
"k 	c #F8E0AC",
"l 	c #F3CD78",
"m 	c #F1C257",
"n 	c #F5D387",
"o 	c #FBEED2",
"p 	c #BCB39F",
"q 	c #FDF6E8",
"r 	c #F8E3B3",
"s 	c #F3CE78",
"t 	c #FBEDCE",
"u 	c #FCF2DC",
"v 	c #F3CC74",
"w 	c #F5D690",
"x 	c #FDF9F0",
"y 	c #BCB29B",
"z 	c #FBF1D9",
"A 	c #F8DFA7",
"B 	c #F2C662",
"C 	c #FAECCC",
"D 	c #FDF7EB",
"E 	c #F4D07E",
"F 	c #F7DDA1",
"G 	c #FCF4E1",
"H 	c #FEFBF4",
"I 	c #F2C664",
"J 	c #F4D180",
"K 	c #FCF5E6",
"L 	c #FEFAF3",
"M 	c #FAECCB",
"N 	c #F3CB70",
"O 	c #FDF9EF",
"P 	c #F1C258",
"Q 	c #F3C96C",
"R 	c #FDFAF1",
"S 	c #F9E8C1",
"T 	c #FCF4E2",
"U 	c #F4CE79",
"V 	c #FEFCF9",
"W 	c #BCB19A",
"X 	c #BCB4A0",
"Y 	c #F2C869",
"Z 	c #F5D790",
"` 	c #FEFDFB",
" .	c #F5D389",
"..	c #F9E5B8",
"+.	c #FDF5E6",
"@.	c #BDB4A2",
"#.	c #FDF9EE",
"$.	c #F1C45D",
"%.	c #F5D68F",
"&.	c #FAE9C3",
"*.	c #FCF1D8",
"=.	c #BDB6A8",
"-.	c #FCF2DB",
";.	c #F6D894",
">.	c #F8E2B0",
",.	c #F9E7BC",
"'.	c #FAE8BF",
").	c #F8E2AF",
"!.	c #F2C562",
"~.	c #F5D388",
"{.	c #F4D07F",
"].	c #FBEDCF",
"^.	c #FBECCC",
"/.	c #F9E6BC",
"(.	c #FBEFD3",
"_.	c #FCF3DF",
":.	c #FAE9C4",
"<.	c #F2C86A",
"[.	c #FAEAC7",
"}.	c #F2C665",
"|.	c #F3C96B",
"1.	c #F7DB9E",
"2.	c #F4CD77",
"3.	c #F6D792",
"4.	c #F4CF7D",
"5.	c #FBEED0",
"6.	c #FEFDF9",
"7.	c #F5D691",
"8.	c #FCF4E0",
"9.	c #F3CA6F",
"0.	c #F3CB72",
"a.	c #F8E1AC",
"b.	c #FFFEFD",
"c.	c #F7DC9F",
"d.	c #FDF6E7",
"e.	c #F5D48A",
"f.	c #FEF9F0",
"g.	c #F3CC73",
"h.	c #F8E1AF",
"i.	c #F8E0AB",
"j.	c #F9E7BE",
"k.	c #FEFCF6",
"l.	c #FCF1DA",
"m.	c #F9E7BF",
"n.	c #F1C35A",
"o.	c #F9E8BF",
"p.	c #F7DDA2",
"q.	c #7F7F7F",
"r.	c #F7DFA7",
"s.	c #F7DB9D",
"t.	c #F3C96D",
"u.	c #F9E4B4",
"v.	c #F6D997",
"w.	c #FAEBC7",
"x.	c #FBF0D6",
"y.	c #F6DA9A",
"z.	c #BBAF94",
"A.	c #FAE8C2",
"B.	c #F6D68F",
"C.	c #FBEDCD",
"D.	c #F4CE7A",
"E.	c #FDF5E5",
"F.	c #F2C45F",
"G.	c #F5D285",
"H.	c #F7DB9C",
"I.	c #F4CF7B",
"J.	c #F5D58C",
"K.	c #F7DDA3",
"L.	c #FBEED1",
"M.	c #FBF0D8",
"N.	c #F7DEA4",
"O.	c #FAEAC5",
"P.	c #FAE9C2",
"Q.	c #FCF2DD",
"R.	c #F7DDA4",
"S.	c #BCB097",
"T.	c #F7DEA5",
"U.	c #FCF1D9",
"V.	c #F2C55F",
"W.	c #BDB5A3",
"X.	c #F5D58D",
"Y.	c #F9E5B9",
"Z.	c #F2C96A",
"`.	c #FCF5E3",
" +	c #F1C45F",
".+	c #F3CD76",
"++	c #BBB097",
"@+	c #F1C35C",
"#+	c #F3CA6E",
"$+	c #FCF3DD",
"%+	c #F4D07D",
"&+	c #F8E2B2",
"*+	c #F9E6BB",
"=+	c #F3CD75",
"-+	c #F5D489",
";+	c #F9E6BA",
">+	c #F7DEA6",
",+	c #F4D283",
"'+	c #F9E5BA",
")+	c #F8E3B2",
"!+	c #FAEBC9",
"~+	c #F8DFA9",
"{+	c #F3CB71",
"]+	c #F6D896",
"^+	c #FDF5E4",
"/+	c #FDF6E9",
"(+	c #BDB7A8",
"_+	c #BFBFBF",
"                                                            . + @ # $ % & * = - ; >                                                             ",
"                                                    , ' ) ) ) ) ) ) ) ) ) ) ) ) ) ) ) ) ! ~                                                     ",
"                                              { ] ) ) ) ^ / ( _ : < [ } | 1 2 3 4 5 6 7 ) ) ) 8 9                                               ",
"                                          0 $ ) ) a b c d e e e e e e e e e e e e e e f g h # ) ) i j                                           ",
"                                      k i ) 7 j l e e e e e e e e e e e e e e e e e e e e e m n o ) ) $ p                                       ",
"                                    q ) & r < e e e e e e e e e e e e e e e e e e e e e e e e e e s t ) ) ]                                     ",
"                                { % ) u v e e e e e e e e e e e e e e e e e e e e e e e e e e e e e e w x ) 7 y                                 ",
"                              z ) % A } e e e e e e e e e e e e e e e e e e e e e e e e e e e e e e e e B C ) ) 6                               ",
"                            D ) ' E e e e e e e e e e e e e e e e e e e e e e e e e e e e e e e e e e e e e F & ) G                             ",
"                          H ) u I e e e e e e e e e e e e e e e e e e e e e e e e e e e e e e e e e e e e e e J H ) K                           ",
"                        L ) M f e e e e e e e e e e e e e e e e e e e e e e e e e e e e e e e e e e e e e e e e N - ) ;                         ",
"                      O ) o P e e e e e e e e e e e e e e e e e e e e e e e e e e e e e e e e e e e e e e e e e e Q R ) S                       ",
"                    G ) T [ e e e e e e e e e e e e e e e e e e e e e e e e e e e e e e e e e e e e e e e e e e e e U V ) W                     ",
"                  X ) H Y e e e e e e e e e e e e e e e e e e e e e e e e e e e e e e e e e e e e e e e e e e e e e e Z ) 7                     ",
"                  ` )  .e e e e e e e e e e e e e e e e e e e e e e e e e e e e e e e e e e e e e e e e e e e e e e e e j ) 8                   ",
"                ] ) ..e e e e e e e e e e e e e e e e e e e e e e e e e e e e e e e e e e e e e e e e e e e e e e e e e f +.) @.                ",
"                ) #.$.e e e e e e e e e e e e e e e e e e e e e e e e e e e e e e e e e e e e e e e e e e e e e e e e e e J ) `                 ",
"              * ) %.e e e e e e e e e e e e e e e e e e e e e e e e e e e e e e e e e e e e e e e e e e e e e e e e e e e e &.) *.              ",
"            =.) -.e e e e e e e e e e e e e e e e e e e e e e 2 ;.>.,.'.'.,.).%.!.e e e e e e e e e e e e e e e e e e e e e Y ` )               ",
"            H ) ~.e e e e e e e e e e e e e e e e e e e e {.].& ) ) ) ) ) ) ) ) & ^.{.e e e e e e e e e e e e e e e e e e e e /.) (.            ",
"            ) _.e e e e e e e e e e e e e I :.Q e e e <.].) ) ) ) ) ) ) ) ) ) ) ) ) ) [.}.e e e e e e e e e e e e e e e e e e |.) 7             ",
"          - ) 1.e e e e e e e e e e e e e 2.) $ 3.e n H ) ) ) ) ) ) ) ) ) ) ) ) ) ) ) ) O 4.e e e e e e e e e e e e e e e e e e 5.)             ",
"          & ` 1 e e e e e e e e e e e e e 2.) ) ) o & ) ) ) ) ) ) ) ) ) ) ) ) ) ) ) ) ) ) 6.n e e e e e e e e e e e e e e e e e 7.) 8.          ",
"          ) M e e e e e e e e e e e e e e 2.) ) ) ) ) ) ) ) ) ) _.( g 9.0.g a._.) ) ) ) ) ) $ c e e e e e e e e e e e e e e e e f ` b.          ",
"        q ) c.e e e e e e e e e e e e e e 2.) ) ) ) ) ) ) ) d.g e e e e e e e e e.d.) ) ) ) ) - $.e e e e e e e e e e e e e e e e 6 )           ",
"        f.) g.e e e e e e e e e e e e e e 2.) ) ) ) ) ) ) $ 0.e e e e e e e e e e $.].) ) ) ) ) h.e e e e e e e e e e e e e e e e i.) j.        ",
"        ) k.e e e e e e e e e e e e e e e 2.) ) ) ) ) ) ) ) H %.e e e e e e e e e e m , ) ) ) ) 6.}.e e e e e e e e e e e e e e e g ) +         ",
"        ) l.e e e e e e e e e e e e e e e 2.) ) ) ) ) ) ) ) ) ) m.n.e e e e e e e e e }.H ) ) ) ) ( e e e e e e e e e e e e e e e 2 ) H         ",
"        ) o.e e e e e e e e e e e e e e e 2.) ) ) ) ) ) ) ) ) ) & g e e e e e e e e e e p.) ) ) ) a e e e e e e e e e e e e e e e e $ )         ",
"      q.) b e e e e e e e e e e e e e e e 2.) ) ) ) ) ) ) ) , c.2 e e e e e e e e e e e $.6.) ) ) ) <.e e e e e e e e e e e e e e e _.)         ",
"      L ) p.e e e e e e e e e e e e e e e 2.) ) ) ) ) _.r.2 e e e e e e e e e e e e e e e o ) ) ) ) n e e e e e e e e e e e e e e e (.)         ",
"      l.) s.e e e e e e e e e e e e e e e : ) ) _.r.t.e e e e e e e e e e e e e e e e e e u.) ) ) ) v.e e e e e e e e e e e e e e e w.)         ",
"      x.) y.e e e e e e e e e e e e e e e e n t.e e e e e e e e e e e e e e e e e e e e e ( ) ) ) ) ( e e e e e e e e e e e e e e e j.)         ",
"      5.) p.e e e e e e e e e e e e e e e e e e e e e e e e e e e e e e e e e e e e e e e ( ) ) ) ) c.e e e e e e e e e e e e e e e :.)         ",
"      z.) ( e e e e e e e e e e e e e e e e e e e e n.e e e e e e e e e e e e e e e e e e A.) ) ) ) B.e e e e e e e e e e e e e e e C.)         ",
"        ) r e e e e e e e e e e e e e e e e e I c., d.e e e e e e e e e e e e e e e e e e ] ) ) ) ) c e e e e e e e e e e e e e e e , )         ",
"        ) M e e e e e e e e e e e e e e e e / & ) ) ) D.e e e e e e e e e e e e e e e e g ) ) ) ) $ m e e e e e e e e e e e e e e e O )         ",
"        ) E.e e e e e e e e e e e e e e e e [.) ) ) ) 6 e e e e e e e e e e e e e e e e , ) ) ) ) A.e e e e e e e e e e e e e e e F.) 6.        ",
"        ) & | e e e e e e e e e e e e e e e G.) ) ) ) ) s.e e e e e e e e e e e e e e H.) ) ) ) ) {.e e e e e e e e e e e e e e e I.) !         ",
"        ] ) 4.e e e e e e e e e e e e e e e e u ) ) ) ) & J.e e e e e e e e e e e e J.& ) ) ) ) 6 e e e e e e e e e e e e e e e e K.) L.        ",
"        M.) r.e e e e e e e e e e e e e e e e D.& ) ) ) ) & ( m e e e e e e e e m a.& ) ) ) ) & 2.e e e e e e e e e e e e e e e e t )           ",
"          ) (.e e e e e e e e e e e e e e e e e ( ) ) ) ) ) ) d.H.}.e e e e !.y.d.) ) ) ) ) ) N.e e e e e e e e e e e e e e e e | k.)           ",
"          7 b.2 e e e e e e e e e e e e e e e e e O.) ) ) ) ) ) ) ) 8 6 6 d.) ) ) ) ) ) ) ) P.e e e e e e e e e e e e e e e e e J.) a           ",
"          Q.) R.e e e e e e e e e e e e e e e e e m j ) ) ) ) ) ) ) ) ) ) ) ) ) ) ) ) ) ) j m e e e e e e e e e e e e e e e e e M ) S.          ",
"            ) ! d e e e e e e e e e e e e e e e e e e y.$ ) ) ) ) ) ) ) ) ) ) ) ) ) ) $ y.e e e e e e e e e e e e e e e e e e 2 & `             ",
"            = ) %.e e e e e e e e e e e e e e e e e e e 2 m.& ) ) ) ) ) ) ) ) ) ) & m.<.e e e e e e e e e e e e e e e e e e e 0 ) *.            ",
"              ) T e e e e e e e e e e e e e e e e e e e e e 2 T.6 $ ) ) ) ) $ 6 N.2 e e e e e e e e e e e e e e e e e e e e < 7 )               ",
"              H ) 4 e e e e e e e e e e e e e e e e e e e e e e e e [ B B [ e e e e e e e e e e e e e e e e e e e e e e e e m.) U.              ",
"                ) R V.e e e e e e e e e e e e e e e e e e e e e e e e e e e e e e e e e e e e e e e e e e e e e e e e e e E ) `                 ",
"                ] ) /.e e e e e e e e e e e e e e e e e e e e e e e e e e e e e e e e e e e e e e e e e e e e e e e e e n.T ) W.                ",
"                  ` ) X.e e e e e e e e e e e e e e e e e e e e e e e e e e e e e e e e e e e e e e e e e e e e e e e e Y.) 8                   ",
"                  X ) * Z.e e e e e e e e e e e e e e e e e e e e e e e e e e e e e e e e e e e e e e e e e e e e e e X.) 7                     ",
"                    G ) `. +e e e e e e e e e e e e e e e e e e e e e e e e e e e e e e e e e e e e e e e e e e e e .+$ ) ++                    ",
"                      ' ) (.P e e e e e e e e e e e e e e e e e e e e e e e e e e e e e e e e e e e e e e e e e e Y #.) j.                      ",
"                        ' ) C @+e e e e e e e e e e e e e e e e e e e e e e e e e e e e e e e e e e e e e e e e #+q ) -.                        ",
"                          @ ) $+< e e e e e e e e e e e e e e e e e e e e e e e e e e e e e e e e e e e e e e %+L ) `.                          ",
"                            d.) ' E e e e e e e e e e e e e e e e e e e e e e e e e e e e e e e e e e e e e c.` ) u                             ",
"                              -.) % A } e e e e e e e e e e e e e e e e e e e e e e e e e e e e e e e e !.M ) ) L.                              ",
"                                5 % ) u g.e e e e e e e e e e e e e e e e e e e e e e e e e e e e e e %.x ) 6.z.                                ",
"                                    ] ) ` &+< e e e e e e e e e e e e e e e e e e e e e e e e e e l t ) ) !                                     ",
"                                      ).6.) 7 *+=+e e e e e e e e e e e e e e e e e e e e e P -+(.) ) ^ W                                       ",
"                                          ;+V ) ) `.>+=+e e e e e e e e e e e e e e e f ,+Y.L ) ) $ '+                                          ",
"                                              )+8 ) ) ) H !+~+X.{+< [ } | 1 2 D.]+5 x.` ) ) ) - p                                               ",
"                                                    $+O ) ) ) ) ) ) ) ) ) ) ) ) ) ) ) % ^+W.                                                    ",
"                                                            ' T ' # $ % & * = /+u (+                                                            ",
"                                                                                                                                                ",
"                                                                                                                                                ",
"                                                                                                                                                ",
"                                                                                                                                                ",
"                                                                                                                                                ",
"                                                                                                                                                ",
"                      ) ) ) ) ) )           ) ) ) ) ) ) ) )       ) ) ) ) ) )           ) ) ) ) ) ) ) )     ) ) ) ) ) ) ) ) )                   ",
"                    ) ) ) ) ) ) ) )         ) ) ) ) ) ) ) )     ) ) ) ) ) ) ) )         ) ) ) ) ) ) ) )   ) ) ) ) ) ) ) ) ) )                   ",
"                    ) ) )       ) ) )       ) ) _+              ) ) )       ) ) )       ) ) )                     ) ) _+                        ",
"                    ) ) )         ) )       ) )                 ) ) )         ) )       ) ) )                     ) )                           ",
"                    ) ) )         ) )       ) )                 ) ) )       _+) )       ) ) )                     ) )                           ",
"                    ) ) )     ) ) ) _+      ) ) ) ) ) ) )       ) ) ) ) ) ) ) )         ) ) ) ) ) ) ) )           ) )                           ",
"                    ) ) ) ) ) ) )           ) ) ) ) ) ) )       ) ) ) ) ) ) ) ) )       ) ) ) ) ) ) ) )           ) )                           ",
"                    ) ) )     ) ) )         ) )                 ) ) )         ) ) )     ) ) )                     ) )                           ",
"                    ) ) )       ) )         ) )                 ) ) )         ) ) )     ) ) )                     ) )                           ",
"                    ) ) )       ) ) )       ) )                 ) ) )         ) ) )     ) ) )                     ) )                           ",
"                    ) ) )         ) )       ) ) ) ) ) ) ) )     ) ) )       ) ) ) )     ) ) ) ) ) ) ) )           ) )                           ",
"                    ) ) )         ) )       ) ) ) ) ) ) ) )     ) ) ) ) ) ) ) ) )       ) ) ) ) ) ) ) )           ) )                           ",
"                      q.            q.      q.q.q.q.q.q.q.q.      q.q.q.q.q.              q.q.q.q.q.q.q.          q.q.                          ",
"                                                                                                                                                ",
"                                                                                                                                                "};
