/* XPM */
static char * stand_xpm[] = {
"72 86 156 2",
"  	c None",
". 	c #BFACAC",
"+ 	c #FFE0E0",
"@ 	c #FFECEC",
"# 	c #FFF2F2",
"$ 	c #FFF7F7",
"% 	c #FFFDFD",
"& 	c #FFFCFC",
"* 	c #FFF6F6",
"= 	c #FFF1F1",
"- 	c #FFE9E9",
"; 	c #FFDEDE",
"> 	c #FFD7D7",
", 	c #FFEDED",
"' 	c #FFFFFF",
") 	c #FFE7E7",
"! 	c #BFA7A7",
"~ 	c #FFAEAE",
"{ 	c #FFEAEA",
"] 	c #FFF5F5",
"^ 	c #FFCBCB",
"/ 	c #FFABAB",
"( 	c #FF8F8F",
"_ 	c #FF7474",
": 	c #FF6767",
"< 	c #FF6060",
"[ 	c #FF5959",
"} 	c #FF5B5B",
"| 	c #FF6262",
"1 	c #FF6868",
"2 	c #FF7979",
"3 	c #FF9696",
"4 	c #FFB2B2",
"5 	c #FFD4D4",
"6 	c #FFFAFA",
"7 	c #BFA5A5",
"8 	c #FFB7B7",
"9 	c #FFE5E5",
"0 	c #FFA9A9",
"a 	c #FF7878",
"b 	c #FF5858",
"c 	c #FF5757",
"d 	c #FF5D5D",
"e 	c #FF8383",
"f 	c #FFB8B8",
"g 	c #FFF8F8",
"h 	c #FFBDBD",
"i 	c #FFADAD",
"j 	c #FFFBFB",
"k 	c #FFBEBE",
"l 	c #FF8989",
"m 	c #FFD3D3",
"n 	c #BF9F9F",
"o 	c #FFE8E8",
"p 	c #FFB4B4",
"q 	c #FF7A7A",
"r 	c #FFCFCF",
"s 	c #FFDCDC",
"t 	c #FF7575",
"u 	c #FF9191",
"v 	c #BF9B9B",
"w 	c #FFD9D9",
"x 	c #FF6464",
"y 	c #FFCDCD",
"z 	c #FFEBEB",
"A 	c #FF7F7F",
"B 	c #FFA2A2",
"C 	c #FFE2E2",
"D 	c #FFF4F4",
"E 	c #FF6666",
"F 	c #FF8282",
"G 	c #FFE6E6",
"H 	c #FFF3F3",
"I 	c #FF7272",
"J 	c #FFEFEF",
"K 	c #FF5A5A",
"L 	c #FF6E6E",
"M 	c #FFC2C2",
"N 	c #FFE1E1",
"O 	c #FFF9F9",
"P 	c #BF9A9A",
"Q 	c #BFA0A0",
"R 	c #FF6B6B",
"S 	c #FF9292",
"T 	c #FF8A8A",
"U 	c #FFB9B9",
"V 	c #BFA2A2",
"W 	c #FFEEEE",
"X 	c #FF5F5F",
"Y 	c #FFC7C7",
"Z 	c #FF7676",
"` 	c #FFC4C4",
" .	c #FFD8D8",
"..	c #BFA8A8",
"+.	c #FFA0A0",
"@.	c #FF7B7B",
"#.	c #FFBABA",
"$.	c #FF5C5C",
"%.	c #FFD2D2",
"&.	c #FF8181",
"*.	c #FFC0C0",
"=.	c #FF6161",
"-.	c #FF6969",
";.	c #FF6C6C",
">.	c #FF9090",
",.	c #FFA5A5",
"'.	c #FF6D6D",
").	c #FF9F9F",
"!.	c #FF8686",
"~.	c #FFD1D1",
"{.	c #FFDDDD",
"].	c #FFD5D5",
"^.	c #FFF0F0",
"/.	c #FFACAC",
"(.	c #FFBFBF",
"_.	c #FFDADA",
":.	c #7F7F7F",
"<.	c #FFA3A3",
"[.	c #FF9898",
"}.	c #FF9E9E",
"|.	c #FFC8C8",
"1.	c #FF9C9C",
"2.	c #FFC5C5",
"3.	c #BF9595",
"4.	c #FFA8A8",
"5.	c #FFCECE",
"6.	c #FFE4E4",
"7.	c #FFD0D0",
"8.	c #FF7C7C",
"9.	c #FFA4A4",
"0.	c #FFDFDF",
"a.	c #FF8D8D",
"b.	c #FF8484",
"c.	c #FFCCCC",
"d.	c #BF9797",
"e.	c #FFB5B5",
"f.	c #FFCACA",
"g.	c #FFE3E3",
"h.	c #BFA3A3",
"i.	c #BFA1A1",
"j.	c #FF8E8E",
"k.	c #FF7777",
"l.	c #FF5E5E",
"m.	c #FF7070",
"n.	c #FFDBDB",
"o.	c #FF6363",
"p.	c #FFB3B3",
"q.	c #FFB0B0",
"r.	c #FFBCBC",
"s.	c #FFBBBB",
"t.	c #FFA7A7",
"u.	c #FFAAAA",
"v.	c #FF7373",
"w.	c #FF9797",
"x.	c #FFD6D6",
"y.	c #BFBFBF",
"                                                            . + @ # $ % & * = - ; .                                                             ",
"                                                    > , ' ' ' ' ' ' ' ' ' ' ' ' ' ' ' ' ) !                                                     ",
"                                              ~ { ' ' ' ] ^ / ( _ : < [ } | 1 2 3 4 5 6 ' ' ' @ 7                                               ",
"                                          8 $ ' ' 9 0 a b c c c c c c c c c c c c c c d e f # ' ' g h                                           ",
"                                      i g ' j k 2 c c c c c c c c c c c c c c c c c c c c c [ l m ' ' $ n                                       ",
"                                    o ' & p : c c c c c c c c c c c c c c c c c c c c c c c c c c q r ' ' {                                     ",
"                                ~ % ' s t c c c c c c c c c c c c c c c c c c c c c c c c c c c c c c u = ' 6 v                                 ",
"                              w ' % 0 [ c c c c c c c c c c c c c c c c c c c c c c c c c c c c c c c c x y ' ' 5                               ",
"                            z ' , A c c c c c c c c c c c c c c c c c c c c c c c c c c c c c c c c c c c c B & ' C                             ",
"                          D ' s E c c c c c c c c c c c c c c c c c c c c c c c c c c c c c c c c c c c c c c F D ' G                           ",
"                        H ' ^ d c c c c c c c c c c c c c c c c c c c c c c c c c c c c c c c c c c c c c c c c I - ' ;                         ",
"                      J ' m K c c c c c c c c c c c c c c c c c c c c c c c c c c c c c c c c c c c c c c c c c c L = ' M                       ",
"                    N ' C < c c c c c c c c c c c c c c c c c c c c c c c c c c c c c c c c c c c c c c c c c c c c q O ' P                     ",
"                  Q ' D R c c c c c c c c c c c c c c c c c c c c c c c c c c c c c c c c c c c c c c c c c c c c c c S ' 6                     ",
"                  j ' T c c c c c c c c c c c c c c c c c c c c c c c c c c c c c c c c c c c c c c c c c c c c c c c c k ' @                   ",
"                { ' U c c c c c c c c c c c c c c c c c c c c c c c c c c c c c c c c c c c c c c c c c c c c c c c c c d G ' V                 ",
"                ' W X c c c c c c c c c c c c c c c c c c c c c c c c } c c c c c c c c c c c c c c c c c c c c c c c c c F ' j                 ",
"              * ' u c c c c c c c c c c c c c c c c c c c c c c c c Y ' @ Z c c c c c c c c c c c c c c c c c c c c c c c c ` '  .              ",
"            ..' s c c c c c c c c c c c c c c c c c c c c +.$ - @.2 ' ' ' #.c [ L $.c c c c c c c c c c c c c c c c c c c c R j '               ",
"            D ' T c c c c c c c c c c c c c c c c c c c X & ' ' %.&.' ' ' *.=.C ' @ -.c c c c c c c c c c c c c c c c c c c c h ' 5             ",
"            ' + c c c c c c c c c c c c c c c c c c c c ;.' ' ' { &.' ' ' *.>.' ' ' ,.c c c c c c c c c c c c c c c c c c c c '.' 6             ",
"          { ' ).c c c c c c c c c c c c c c c c &.{ @ !.;.' ' ' { &.' ' ' *.3 ' ' ' / c c c c c c c c c c c c c c c c c c c c c ~.'             ",
"          & j | c c c c c c c c c c c c c c c c {.' ' { ;.' ' ' { &.' ' ' *.3 ' ' ' / c c c c c c c c c c c c c c c c c c c c c S ' N           ",
"          ' ^ c c c c c c c c c c c c c c c c c { ' ' ' ;.' ' ' { &.' ' ' *.3 ' ' ' / c c c c c c c c c c c c c c c c c c c c c d j %           ",
"        o ' +.c c c c c c c c c c c c c c c c c { ' ' ' ;.' ' ' { &.' ' ' *.3 ' ' ' / c c c c c c c c c c c c c c c c c c c c c c ].'           ",
"        ^.' t c c c c c c c c c c c c c c c c c { ' ' ' ;.' ' ' { &.' ' ' *.3 ' ' ' / c c c c c c c c c c c c c c c c c c c c c c /.' (.        ",
"        ' * c c c c c c c c c c c c c c c c c c { ' ' ' ;.' ' ' { &.' ' ' *.3 ' ' ' / c c c c c c c c c c c c c c c c c c c c c c e ' +         ",
"        ' _.c c c c c c c c c c c c c c c c c c { ' ' ' ;.' ' ' { &.' ' ' *.3 ' ' ' / c c c c c c c c c c c c c c c c c c c c c c 1 ' D         ",
"        ' *.c c c c c c c c c c c c c c c c c c { ' ' ' ;.' ' ' { &.' ' ' *.3 ' ' ' / c c c c c c c c c c c c c c c c c c c c c c c g '         ",
"      :.' 0 c c c c c c c c c c c c c c c c c c { ' ' ' ;.' ' ' $ Y ' ' ' *.3 ' ' ' / c c c c c c c c c c c c c c c c c c c c c c c + '         ",
"      H ' <.c c c c c c c c c c c c c c c c c c { ' ' ' ;.' ' ' ' ' ' ' ' M [.' ' ' / c c c c c c c c c c c c c c c c c c c c c c c m '         ",
"      _.' }.c c c c c c c c c c c c c c c c c c { ' ' ' ) ' ' ' ' ' ' ' ' $ @ ' ' ' / c c c c c c c c c c c c c c c c c c c c c c c |.'         ",
"      > ' 1.c c c c c c c c c c c c c c c c c c { ' ' ' ' ' ' ' ' ' ' ' ' ' ' ' ' ' / c c c c c c c c c c c c c c c c c c c c c c c (.'         ",
"      ~.' <.c c c c c c c c c c c c c c c c c c { ' ' ' ' ' ' ' ' ' ' ' ' ' ' ' ' ' / c c =.$.c c c c c c c c c c c c c c c c c c c 2.'         ",
"      3.' / c c c c c c c c c c c c c c c c c c { ' ' ' ' ' ' ' ' ' ' ' ' ' ' ' ' ' / c i & & 4.c c c c c c c c c c c c c c c c c c 5.'         ",
"        ' p c c c c c c c c c c c c c c c c c c { ' ' ' ' ' ' ' ' ' ' ' ' ' ' ' ' ' / 4.' ' ' ' ;.c c c c c c c c c c c c c c c c c  .'         ",
"        ' ^ c c c c c c c c c c c c c c c c c c { ' ' ' ' ' ' ' ' ' ' ' ' ' ' ' ' ' 6.' ' ' ' ' Z c c c c c c c c c c c c c c c c c J '         ",
"        ' 9 c c c c c c c c c c c c c c c c c c J ' ' ' ' ' ' ' ' ' ' ' ' ' ' ' ' ' ' ' ' ' ' 7.c c c c c c c c c c c c c c c c c =.' O         ",
"        ' & } c c c c c c c c c c c c c c c c c ' ' ' ' ' ' ' ' ' ' ' ' ' ' ' ' ' ' ' ' ' '  .X c c c c c c c c c c c c c c c c c 8.' )         ",
"        { ' A c c c c c c c c c c c c c c c c c ' ' ' ' ' ' ' ' ' ' ' ' ' ' ' ' ' ' ' ' '  .X c c c c c c c c c c c c c c c c c c 9.' ~.        ",
"        w ' 4.c c c c c c c c c c c c c c c c c @ ' ' ' ' ' ' ' ' ' ' ' ' ' ' ' ' ' ' '  .X c c c c c c c c c c c c c c c c c c c 5.'           ",
"          ' 5 c c c c c c c c c c c c c c c c c C ' ' ' ' ' ' ' ' ' ' ' ' ' ' ' ' ' ' 0.X c c c c c c c c c c c c c c c c c c c } * '           ",
"          6 % 1 c c c c c c c c c c c c c c c c M ' ' ' ' ' ' ' ' ' ' ' ' ' ' ' ' ' J -.c c c c c c c c c c c c c c c c c c c c a.' 6.          ",
"          {.' ,.c c c c c c c c c c c c c c c c u ' ' ' ' ' ' ' ' ' ' ' ' ' ' ' ' & b.c c c c c c c c c c c c c c c c c c c c c c.' d.          ",
"            ' G b c c c c c c c c c c c c c c c [ C ' ' ' ' ' ' ' ' ' ' ' ' ' ' ' 4.c c c c c c c c c c c c c c c c c c c c c 1 & j             ",
"            = ' >.c c c c c c c c c c c c c c c c Z # ' ' ' ' ' ' ' ' ' ' ' ' ' e.c c c c c c c c c c c c c c c c c c c c c c 8 '  .            ",
"              ' C c c c c c c c c c c c c c c c c c ;.].' ' ' ' ' ' ' ' ' ' 6 <.c c c c c c c c c c c c c c c c c c c c c c : 6 '               ",
"              ] ' 3 c c c c c c c c c c c c c c c c c c Z ,.*.f.5.c.f.f.U }.E c c c c c c c c c c c c c c c c c c c c c c c (.' w               ",
"                ' = =.c c c c c c c c c c c c c c c c c c c c c c c c c c c c c c c c c c c c c c c c c c c c c c c c c c A ' j                 ",
"                { ' h c c c c c c c c c c c c c c c c c c c c c c c c c c c c c c c c c c c c c c c c c c c c c c c c c $.g.' h.                ",
"                  j ' ( c c c c c c c c c c c c c c c c c c c c c c c c c c c c c c c c c c c c c c c c c c c c c c c c #.' @                   ",
"                  i.' * ;.c c c c c c c c c c c c c c c c c c c c c c c c c c c c c c c c c c c c c c c c c c c c c c j.' 6                     ",
"                    N ' g.=.c c c c c c c c c c c c c c c c c c c c c c c c c c c c c c c c c c c c c c c c c c c c k.$ ' d.                    ",
"                      , ' 5 K c c c c c c c c c c c c c c c c c c c c c c c c c c c c c c c c c c c c c c c c c c R J ' (.                      ",
"                        , ' c.l.c c c c c c c c c c c c c c c c c c c c c c c c c c c c c c c c c c c c c c c c m.o ' n.                        ",
"                          @ ' ; : c c c c c c c c c c c c c c c c c c c c c c c c c c c c c c c c c c c c c c A H ' g.                          ",
"                            o ' , A c c c c c c c c c c c c c c c c c c c c c c c c c c c c c c c c c c c c +.j ' s                             ",
"                              n.' % 4.[ c c c c c c c c c c c c c c c c c c c c c c c c c c c c c c c c o.^ ' ' %.                              ",
"                                4 % ' s _ c c c c c c c c c c c c c c c c c c c c c c c c c c c c c c u ^.' O 3.                                ",
"                                    { ' j p.: c c c c c c c c c c c c c c c c c c c c c c c c c c 2 r ' ' )                                     ",
"                                      q.O ' 6 r.k.c c c c c c c c c c c c c c c c c c c c c K T m ' ' ] P                                       ",
"                                          s.O ' ' g.t.k.c c c c c c c c c c c c c c c d b.#.H ' ' $ s.                                          ",
"                                              4 , ' ' ' D f.u.j.v.: < [ } | -.@.w.4 x.j ' ' ' - n                                               ",
"                                                    ; J ' ' ' ' ' ' ' ' ' ' ' ' ' ' ' % 9 h.                                                    ",
"                                                            W C , H $ % & * = - s ..                                                            ",
"                                                                                                                                                ",
"                                                                                                                                                ",
"                                                                                                                                                ",
"                                                                                                                                                ",
"                                                                                                                                                ",
"                                                                                                                                                ",
"                    ' ' ' '         ' ' ' ' ' ' ' ' '           ' ' '             ' '             ' '       ' ' ' ' ' '                         ",
"                ' ' ' ' ' ' ' '   ' ' ' ' ' ' ' ' ' '         ' ' ' '             ' ' '         ' ' '       ' ' ' ' ' ' ' '                     ",
"                ' ' y.    ' '             ' ' y.              ' ' ' '             ' ' ' '       ' ' '       ' ' y.    y.' ' '                   ",
"              y.' '                       ' '               ' ' ' ' ' '           ' ' ' '       ' ' '       ' '           ' ' '                 ",
"                ' '                       ' '               ' '     ' '           ' ' ' ' '     ' ' '       ' '             ' '                 ",
"                ' ' ' ' ' '               ' '               ' '     ' '           ' '   ' ' '   ' ' '       ' '             ' '                 ",
"                  ' ' ' ' ' ' y.          ' '             ' ' '     ' ' '         ' '     ' '   ' ' '       ' '             ' '                 ",
"                        ' ' ' '           ' '             ' ' '     y.' '         ' '     ' ' ' ' ' '       ' '             ' '                 ",
"                            ' '           ' '             ' ' ' ' ' ' ' '         ' '       ' ' ' ' '       ' '             ' '                 ",
"                '           ' '           ' '           ' ' ' ' ' ' ' ' ' '       ' '       ' ' ' ' '       ' '           ' ' '                 ",
"              ' ' ' '     ' ' '           ' '           ' '             ' '       ' '         ' ' ' '       ' ' ' ' ' ' ' ' '                   ",
"                ' ' ' ' ' ' '             ' '           ' '             ' '       ' '           ' ' '       ' ' ' ' ' ' ' '                     ",
"                    ' ' ' y.              :.:.          :.                :.      :.              :.        :.:.:.:.                            ",
"                                                                                                                                                ",
"                                                                                                                                                "};
