/* XPM */
static const char *stand_xpm[] = {
"64 64 164 2",
"  	c None",
". 	c #FFF1F1",
"+ 	c #FFD6D6",
"@ 	c #FFC0C0",
"# 	c #FFA6A6",
"$ 	c #FF8B8B",
"% 	c #FF7676",
"& 	c #FF5F5F",
"* 	c #FF5959",
"= 	c #FFFEFE",
"- 	c #FFE5E5",
"; 	c #FFB8B8",
"> 	c #FF7F7F",
", 	c #FF5757",
"' 	c #FFE6E6",
") 	c #FFF8F8",
"! 	c #FFC9C9",
"~ 	c #FF8282",
"{ 	c #FFF7F7",
"] 	c #FF6969",
"^ 	c #FFCECE",
"/ 	c #FF6F6F",
"( 	c #FFEFEF",
"_ 	c #FF9393",
": 	c #FFD4D4",
"< 	c #FF6767",
"[ 	c #FFB7B7",
"} 	c #FFFCFC",
"| 	c #FFA5A5",
"1 	c #FF9F9F",
"2 	c #FFA2A2",
"3 	c #FE7070",
"4 	c #FEB0B0",
"5 	c #FE9D9D",
"6 	c #FFD5D5",
"7 	c #FE7B7B",
"8 	c #FEF5F5",
"9 	c #FDCBCB",
"0 	c #FDB8B8",
"a 	c #FEFCFC",
"b 	c #FE6262",
"c 	c #FFEEEE",
"d 	c #FF9292",
"e 	c #FCBCBC",
"f 	c #FEFFFF",
"g 	c #FE6868",
"h 	c #FE7474",
"i 	c #FD7C7C",
"j 	c #FFCCCC",
"k 	c #FE5D5D",
"l 	c #FDBCBC",
"m 	c #FE6767",
"n 	c #FDC1C1",
"o 	c #FFFDFD",
"p 	c #FDDADA",
"q 	c #FF5D5D",
"r 	c #FF6D6D",
"s 	c #FE8080",
"t 	c #FDE6E6",
"u 	c #FDDDDD",
"v 	c #FE6B6B",
"w 	c #FDBEBE",
"x 	c #FD7B7B",
"y 	c #FEA1A1",
"z 	c #FFBDBD",
"A 	c #FEDCDC",
"B 	c #FEC7C7",
"C 	c #FE8787",
"D 	c #FDB0B0",
"E 	c #FF6666",
"F 	c #FDECEC",
"G 	c #FEDADA",
"H 	c #FE8888",
"I 	c #FDAFAF",
"J 	c #FFC7C7",
"K 	c #FCECEC",
"L 	c #FE6C6C",
"M 	c #FDD2D2",
"N 	c #FEEDED",
"O 	c #FDCCCC",
"P 	c #FF6464",
"Q 	c #FF8080",
"R 	c #FDD1D1",
"S 	c #FDC4C4",
"T 	c #FE8686",
"U 	c #FDEBEB",
"V 	c #FDEDED",
"W 	c #FED9D9",
"X 	c #FE8585",
"Y 	c #FEDDDD",
"Z 	c #FFB9B9",
"` 	c #FF8181",
" .	c #FFF2F2",
"..	c #FF5858",
"+.	c #FFD9D9",
"@.	c #FCBBBB",
"#.	c #FEFEFE",
"$.	c #FE8484",
"%.	c #FFD7D7",
"&.	c #FFBFBF",
"*.	c #FFA3A3",
"=.	c #FCEBEB",
"-.	c #FDBDBD",
";.	c #FFA4A4",
">.	c #FF8C8C",
",.	c #FF7878",
"'.	c #FD8484",
").	c #FEDBDB",
"!.	c #FF7979",
"~.	c #FF6161",
"{.	c #FEECEC",
"].	c #FDE2E2",
"^.	c #FEE8E8",
"/.	c #FEFBFB",
"(.	c #FF6262",
"_.	c #FF5A5A",
":.	c #FEB2B2",
"<.	c #FE9696",
"[.	c #FE9898",
"}.	c #FEDFDF",
"|.	c #FE9A9A",
"1.	c #FDC6C6",
"2.	c #FDF3F3",
"3.	c #FFD8D8",
"4.	c #FDBABA",
"5.	c #FF6060",
"6.	c #FEF2F2",
"7.	c #FE8E8E",
"8.	c #FFFBFB",
"9.	c #FDD9D9",
"0.	c #FED1D1",
"a.	c #FFC8C8",
"b.	c #FDD0D0",
"c.	c #FF6868",
"d.	c #FD9E9E",
"e.	c #FE7F7F",
"f.	c #FEF6F6",
"g.	c #FF5C5C",
"h.	c #FF6E6E",
"i.	c #FE9999",
"j.	c #FFCFCF",
"k.	c #FDA9A9",
"l.	c #FDA6A6",
"m.	c #FEF9F9",
"n.	c #FF6363",
"o.	c #FEE5E5",
"p.	c #FDBFBF",
"q.	c #FF5B5B",
"r.	c #FEA2A2",
"s.	c #FEE0E0",
"t.	c #FDC7C7",
"u.	c #FE6363",
"v.	c #FE8D8D",
"w.	c #FDABAB",
"x.	c #FE9C9C",
"y.	c #FE7A7A",
"z.	c #FFBABA",
"A.	c #FF9494",
"B.	c #FF8484",
"C.	c #FFF4F4",
"D.	c #FFDADA",
"E.	c #FFC2C2",
"F.	c #FFA7A7",
"G.	c #FF9090",
"                                                . + @ # $ % & * * & % $ # @ + .                                                 ",
"                                        = - ; > , , , , , , , , , , , , , , , , > ; ' =                                         ",
"                                    ) ! ~ , , , , , , , , , , , , , , , , , , , , , , ~ ! )                                     ",
"                                { @ ] , , , , , , , , , , , , , , , , , , , , , , , , , , ] @ {                                 ",
"                            = ^ / , , , , , , , , , , , , , , , , , , , , , , , , , , , , , , / ^ =                             ",
"                          ( _ , , , , , , , , , , , , , , , , , , , , , , , , , , , , , , , , , , _ (                           ",
"                        : < , , , , , , , , , , , , , , , , , , , , , , , , , , , , , , , , , , , , < :                         ",
"                    = [ , , , , , , , , , , , , , , , , , , , , , , , , , , , , , , , , , , , , , , , , [ =                     ",
"                  } | , , , , , , , , , , , , , , , , , , , , , , , , , , , , , , , , , , , , , , , , , , | }                   ",
"                } 1 , , , , , , , , , , , , , , , , , , , , , , , , , , , , , , , , , , , , , , , , , , , , 1 }                 ",
"              = 2 , , , , , , , , , , , , , , , , , , , , , , , , , , , , , , , , , , , , , , , , , , , , , , # =               ",
"              ; , , , , , , , , , , , , , , , , , , , , , 3 4 5 * , , , , , , , , , , , , , , , , , , , , , , , ;               ",
"            6 , , , , , , , , , , , , , , , , , , , , , 7 8     9 , , , , , , , , , , , , , , , , , , , , , , , , :             ",
"          ( < , , , , , , , , , , , , , , , , , , , , , 0       a b , , , , , , , , , , , , , , , , , , , , , , , < c           ",
"        = d , , , , , , , , , , , , , , , , , , , , , , e       f g , h i , , , , , , , , , , , , , , , , , , , , , d =         ",
"        j , , , , , , , , , , , , , , , , , , , , k , , l       f m n o   p q , , , , , , , , , , , , , , , , , , , , j         ",
"      { r , , , , , , , , , , , , , , , , , , s t a u v w       f x o       y , , , , , , , , , , , , , , , , , , , , r {       ",
"      z , , , , , , , , , , , , , , , , , , , A       B e       f C         D , , , , , , , , , , , , , , , , , , , , , z       ",
"    ) E , , , , , , , , , , , , , , , , , , , F       G e       f H         I , , , , , , , , , , , , , , , , , , , , , E {     ",
"    J , , , , , , , , , , , , , , , , , , , , K       G e         H         D L M N O P , , , , , , , , , , , , , , , , , J     ",
"  = Q , , , , , , , , , , , , , , , , , , , , F       G e       f C         D R       S , , , , , , , , , , , , , , , , , Q =   ",
"  - , , , , , , , , , , , , , , , , , , , , , K       G e       f T         D U       A , , , , , , , , , , , , , , , , , , -   ",
"  ; , , , , , , , , , , , , , , , , , , , , , V       W e       f X         D F       Y , , , , , , , , , , , , , , , , , , Z   ",
"  ` , , , , , , , , , , , , , , , , , , , , , V       W w       f X         D U       A , , , , , , , , , , , , , , , , , , ~   ",
" ..., , , , , , , , , , , , , , , , , , , , , K       +.@.      #.$.        D U       A , , , , , , , , , , , , , , , , , , .. .",
"%., , , , , , , , , , , , , , , , , , , , , , K       W @.      #.$.        D U       A , , , , , , , , , , , , , , , , , , , %.",
"&., , , , , , , , , , , , , , , , , , , , , , K       W l       #.$.        D U       A , , , , , , , , , , , , , , , , , , , &.",
"*., , , , , , , , , , , , , , , , , , , , , , =.      W -.      #.$.        D F       A , , , , , , , , , , , , , , , , , , , ;.",
"$ , , , , , , , , , , , , , , , , , , , , , , F       +.@.      #.$.        D U       A , , , , , , , , , , , , , , , , , , , >.",
",., , , , , , , , , , , , , , , , , , , , , , F       W @.      #.'.        I U       )., , , , , , , , , , , , , , , , , , , !.",
"~., , , , , , , , , , , , , , , , , , , , , , =.      8 {.        ].        ^./.      )., , , , , , , , , , , , , , , , , , , (.",
"* , , , , , , , , , , , , , , , , , , , , , , U                                       )., , , , , , , , , , , , , , , , , , , _.",
"* , , , , , , , , , , , , , , , , , , , , , , =.                                      )., , , , , , , , , , , , , , , , , , , * ",
"(., , , , , , , , , , , , , , , s :.<., , , , =.                                      )., , , , , , , , , , , , , , , , , , , (.",
"!., , , , , , , , , , , , , , [.a     S .., , =.                                      )., , , , , , , , , , , , , , , , , , , !.",
">., , , , , , , , , , , , , , }.        S .., K                                       )., , , , , , , , , , , , , , , , , , , >.",
";., , , , , , , , , , , , , , }.          S , F                                       )., , , , , , , , , , , , , , , , , , , ;.",
"@ , , , , , , , , , , , , , , |.o           1.2.                                      )., , , , , , , , , , , , , , , , , , , &.",
"3., , , , , , , , , , , , , , , 4.                                                    )., , , , , , , , , , , , , , , , , , , %.",
" ..., , , , , , , , , , , , , , ..M                                                   )., , , , , , , , , , , , , , , , , , .. .",
"  ~ , , , , , , , , , , , , , , , 5.t                                                 )., , , , , , , , , , , , , , , , , , `   ",
"  Z , , , , , , , , , , , , , , , , h 6.                                              )., , , , , , , , , , , , , , , , , , Z   ",
"  - , , , , , , , , , , , , , , , , , 7.8.                                            9., , , , , , , , , , , , , , , , , , -   ",
"  = Q , , , , , , , , , , , , , , , , , D                                             0., , , , , , , , , , , , , , , , , Q =   ",
"    a., , , , , , , , , , , , , , , , , , b.                                          1., , , , , , , , , , , , , , , , , J     ",
"    ) c., , , , , , , , , , , , , , , , , (.^.                                        d., , , , , , , , , , , , , , , , E {     ",
"      &., , , , , , , , , , , , , , , , , , e.f.                                    6.g., , , , , , , , , , , , , , , , z       ",
"      { h., , , , , , , , , , , , , , , , , , i.a                                   I , , , , , , , , , , , , , , , , r {       ",
"        j., , , , , , , , , , , , , , , , , , , k.o                               9._., , , , , , , , , , , , , , , , j         ",
"        = _ , , , , , , , , , , , , , , , , , , , l.m.                          Y n., , , , , , , , , , , , , , , , d =         ",
"          ( < , , , , , , , , , , , , , , , , , , , X o.                    a p.g., , , , , , , , , , , , , , , , < c           ",
"            : , , , , , , , , , , , , , , , , , , , , q.r.s./.          6.t.7 , , , , , , , , , , , , , , , , , , :             ",
"              Z , , , , , , , , , , , , , , , , , , , , , , u.v.l.w.x.y..., , , , , , , , , , , , , , , , , , , ;               ",
"              = # , , , , , , , , , , , , , , , , , , , , , , , , , , , , , , , , , , , , , , , , , , , , , , | =               ",
"                } 1 , , , , , , , , , , , , , , , , , , , , , , , , , , , , , , , , , , , , , , , , , , , , 1 }                 ",
"                  } # , , , , , , , , , , , , , , , , , , , , , , , , , , , , , , , , , , , , , , , , , , | }                   ",
"                    = z..., , , , , , , , , , , , , , , , , , , , , , , , , , , , , , , , , , , , , , , [ =                     ",
"                        6 < , , , , , , , , , , , , , , , , , , , , , , , , , , , , , , , , , , , , < :                         ",
"                          ( A., , , , , , , , , , , , , , , , , , , , , , , , , , , , , , , , , , _ (                           ",
"                            = ^ / , , , , , , , , , , , , , , , , , , , , , , , , , , , , , , / ^ =                             ",
"                                ) @ ] , , , , , , , , , , , , , , , , , , , , , , , , , , ] @ )                                 ",
"                                    ) ! ~ , , , , , , , , , , , , , , , , , , , , , , ~ ! )                                     ",
"                                        = ' Z B..., , , , , , , , , , , , , , , > ; - =                                         ",
"                                                C.D.E.F.G.Q < q.* & % $ # @ + .                                                 "};
