/* XPM */
static const char *start_xpm[] = {
"72 86 208 2",
"  	c None",
". 	c #B0BBAC",
"+ 	c #E7F8E0",
"@ 	c #F0FAEC",
"# 	c #F5FCF2",
"$ 	c #F9FDF7",
"% 	c #FDFEFD",
"& 	c #FDFEFC",
"* 	c #F8FDF6",
"= 	c #F4FBF1",
"- 	c #EFFAE9",
"; 	c #E6F7DE",
"> 	c #E1F6D7",
", 	c #F1FBED",
"' 	c #FFFFFF",
") 	c #ECF9E7",
"! 	c #ACB9A7",
"~ 	c #C1ECAE",
"{ 	c #EFFAEA",
"] 	c #F7FCF5",
"^ 	c #D7F3CB",
"/ 	c #BEECAB",
"( 	c #A9E68F",
"_ 	c #94DF74",
": 	c #8ADC67",
"< 	c #85DB60",
"[ 	c #7FD959",
"} 	c #81DA5B",
"| 	c #86DB62",
"1 	c #8BDD68",
"2 	c #98E179",
"3 	c #AEE796",
"4 	c #C3EDB2",
"5 	c #DEF5D4",
"6 	c #FBFEFA",
"7 	c #ABB9A5",
"8 	c #C8EEB7",
"9 	c #EBF9E5",
"0 	c #BDEBA9",
"a 	c #97E078",
"b 	c #7FD958",
"c 	c #7ED957",
"d 	c #82DA5D",
"e 	c #A0E383",
"f 	c #C8EFB8",
"g 	c #FAFDF8",
"h 	c #CCF0BD",
"i 	c #C0ECAD",
"j 	c #F9FDF8",
"k 	c #FBFEFB",
"l 	c #CDF0BE",
"m 	c #80D959",
"n 	c #A4E489",
"o 	c #DDF5D3",
"p 	c #A6B89F",
"q 	c #EEFAE8",
"r 	c #C5EEB4",
"s 	c #98E17A",
"t 	c #DAF4CF",
"u 	c #E4F7DC",
"v 	c #95E075",
"w 	c #AAE691",
"x 	c #A3B79B",
"y 	c #E2F6D9",
"z 	c #88DC64",
"A 	c #D8F3CD",
"B 	c #F0FAEB",
"C 	c #9DE27F",
"D 	c #B7EAA2",
"E 	c #FCFEFC",
"F 	c #E8F8E2",
"G 	c #F7FCF4",
"H 	c #8ADC66",
"I 	c #9FE282",
"J 	c #ECF9E6",
"K 	c #F6FCF3",
"L 	c #92DF72",
"M 	c #EEFAE9",
"N 	c #F3FBEF",
"O 	c #DDF4D3",
"P 	c #80D95A",
"Q 	c #8FDE6E",
"R 	c #D0F1C2",
"S 	c #E8F8E1",
"T 	c #E9F8E2",
"U 	c #99E17A",
"V 	c #FAFDF9",
"W 	c #A3B69A",
"X 	c #A8B8A0",
"Y 	c #F6FCF4",
"Z 	c #8DDD6B",
"` 	c #ABE692",
" .	c #FCFEFB",
"..	c #A5E48A",
"+.	c #F1FBEC",
"@.	c #C9EFB9",
"#.	c #B9EAA4",
"$.	c #A9B8A2",
"%.	c #F2FBEE",
"&.	c #84DB5F",
"*.	c #8FDE6D",
"=.	c #BBEBA6",
"-.	c #D2F1C4",
";.	c #E1F6D8",
">.	c #ADBAA8",
",.	c #9AE17B",
"'.	c #FEFEFD",
").	c #CCEFBD",
"!.	c #A7E58C",
"~.	c #EEFAEA",
"{.	c #B5E99F",
"].	c #D6F3CA",
"^.	c #DBF4D1",
"/.	c #87DB62",
"(.	c #B5E99E",
"_.	c #E2F6DA",
":.	c #95DF75",
"<.	c #83DA5D",
"[.	c #EDF9E8",
"}.	c #B6E9A0",
"|.	c #C2EDB0",
"1.	c #82DA5C",
"2.	c #DEF5D5",
"3.	c #F4FBF0",
"4.	c #EDF9E7",
"5.	c #9FE382",
"6.	c #BFECAC",
"7.	c #CDF0BF",
"8.	c #CFF1C1",
"9.	c #E3F7DA",
"0.	c #ADE794",
"a.	c #CFF1C0",
"b.	c #7F7F7F",
"c.	c #B9EAA3",
"d.	c #E6F7DF",
"e.	c #BAEAA5",
"f.	c #D5F2C8",
"g.	c #E0F5D7",
"h.	c #B2E89C",
"i.	c #CAEFBA",
"j.	c #CEF0BF",
"k.	c #DCF4D1",
"l.	c #B8EAA3",
"m.	c #ADE795",
"n.	c #D2F2C5",
"o.	c #9FB595",
"p.	c #D9F4CE",
"q.	c #C6EEB4",
"r.	c #DDF5D2",
"s.	c #8EDE6C",
"t.	c #F4FCF1",
"u.	c #ACE793",
"v.	c #CEF1C0",
"w.	c #87DB63",
"x.	c #86DB61",
"y.	c #9BE17C",
"z.	c #9CE27F",
"A.	c #C2EDAF",
"B.	c #BCEBA8",
"C.	c #F8FDF5",
"D.	c #B4E99D",
"E.	c #D5F3C8",
"F.	c #A8E58D",
"G.	c #EAF9E4",
"H.	c #E5F7DD",
"I.	c #D8F3CC",
"J.	c #A0B697",
"K.	c #C7EEB7",
"L.	c #AAE690",
"M.	c #89DC66",
"N.	c #A3E487",
"O.	c #E9F8E3",
"P.	c #AAB9A3",
"Q.	c #A8E58F",
"R.	c #A7B8A1",
"S.	c #A8E58E",
"T.	c #EAF8E3",
"U.	c #97E077",
"V.	c #F2FBEF",
"W.	c #83DA5E",
"X.	c #91DE70",
"Y.	c #EDFAE8",
"Z.	c #E4F7DB",
"`.	c #E5F7DE",
" +	c #87DC63",
".+	c #DCF4D2",
"++	c #C4EDB2",
"@+	c #95DF74",
"#+	c #FBFDF9",
"$+	c #9FB695",
"%+	c #C4EDB3",
"&+	c #98E079",
"*+	c #CCF0BC",
"=+	c #96E077",
"-+	c #A3B79A",
";+	c #CBEFBB",
">+	c #BBEBA7",
",+	c #A1E384",
"'+	c #CAEFBB",
")+	c #BDEBAA",
"!+	c #93DF73",
"~+	c #8BDD69",
"{+	c #AFE797",
"]+	c #E0F6D6",
"^+	c #A7B89F",
"/+	c #F5FCF3",
"(+	c #AEBAA8",
"_+	c #BFBFBF",
"                                                            . + @ # $ % & * = - ; .                                                             ",
"                                                    > , ' ' ' ' ' ' ' ' ' ' ' ' ' ' ' ' ) !                                                     ",
"                                              ~ { ' ' ' ] ^ / ( _ : < [ } | 1 2 3 4 5 6 ' ' ' @ 7                                               ",
"                                          8 $ ' ' 9 0 a b c c c c c c c c c c c c c c d e f # ' ' g h                                           ",
"                                      i j ' k l 2 c c c c c c c c c c c c c c c c c c c c c m n o ' ' $ p                                       ",
"                                    q ' & r : c c c c c c c c c c c c c c c c c c c c c c c c c c s t ' ' {                                     ",
"                                ~ % ' u v c c c c c c c c c c c c c c c c c c c c c c c c c c c c c c w = ' 6 x                                 ",
"                              y ' % 0 [ c c c c c c c c c c c c c c c c c c c c c c c c c c c c c c c c z A ' ' 5                               ",
"                            B ' , C c c c c c c c c c c c c c c c c c c c c c c c c c c c c c c c c c c c c D E ' F                             ",
"                          G ' u H c c c c c c c c c c c c c c c c c c c c c c c c c c c c c c c c c c c c c c I G ' J                           ",
"                        K ' ^ d c c c c c c c c c c c c c c c c c c c c c c c c c c c c c c c c c c c c c c c c L M ' ;                         ",
"                      N ' O P c c c c c c c c c c c c c c c c c c c c c c c c c c c c c c c c c c c c c c c c c c Q = ' R                       ",
"                    S ' T < c c c c c c c c c c c c c c c c c c c c c c c c c c c c c c c c c c c c c c c c c c c c U V ' W                     ",
"                  X ' Y Z c c c c c c c c c c c c c c c c c c c c c c c c c c c c c c c c c c c c c c c c c c c c c c ` ' 6                     ",
"                   .' ..c c c c c c c c c c c c c c c c c c c c c c c c c c c c c c c c c c c c c c c c c c c c c c c c l ' +.                  ",
"                { ' @.c c c c c c c c c c c c c c c c I #.I c c c c c c c c c c c c c c c c c c c c c c c c c c c c c c d J ' $.                ",
"                ' %.&.c c c c c c c c c c c c c c c @.' ' ' o *.c c c c c c c c c c c c c c c c c c c c c c c c c c c c c I '  .                ",
"              * ' w c c c c c c c c c c c c c c c &.' ' ' ' ' V =.P c c c c c c c c c c c c c c c c c c c c c c c c c c c c -.' ;.              ",
"            >.' u c c c c c c c c c c c c c c c c : ' ' ' ' ' ' ' F ,.c c c c c c c c c c c c c c c c c c c c c c c c c c c Z  .'               ",
"            G ' ..c c c c c c c c c c c c c c c c : ' ' ' ' ' ' ' ' '.f &.c c c c c c c c c c c c c c c c c c c c c c c c c c ).' 5             ",
"            ' + c c c c c c c c c c c c c c c c c : ' ' ' ' ' ' ' ' ' ' , !.c c c c c c c c c c c c c c c c c c c c c c c c c *.' 6             ",
"          ~.' {.c c c c c c c c c c c c c c c c c : ' ' ' ' ' ' ' ' ' ' ' ' ].1 c c c c c c c c c c c c c c c c c c c c c c c c ^.'             ",
"          &  ./.c c c c c c c c c c c c c c c c c : ' ' ' ' ' ' ' ' ' ' ' ' ' * (.c c c c c c c c c c c c c c c c c c c c c c c ` ' S           ",
"          ' ^ c c c c c c c c c c c c c c c c c c : ' ' ' ' ' ' ' ' ' ' ' ' ' ' ' _.:.c c c c c c c c c c c c c c c c c c c c c <. .%           ",
"        [.' }.c c c c c c c c c c c c c c c c c c : ' ' ' ' ' ' ' ' ' ' ' ' ' ' ' '  .|.1.c c c c c c c c c c c c c c c c c c c c 2.'           ",
"        3.' :.c c c c c c c c c c c c c c c c c c : ' ' ' ' ' ' ' ' ' ' ' ' ' ' ' ' ' ' 4.5.c c c c c c c c c c c c c c c c c c c 6.' 7.        ",
"        ' * c c c c c c c c c c c c c c c c c c c : ' ' ' ' ' ' ' ' ' ' ' ' ' ' ' ' ' ' ' ' 8.z c c c c c c c c c c c c c c c c c e ' +         ",
"        ' 9.c c c c c c c c c c c c c c c c c c c : ' ' ' ' ' ' ' ' ' ' ' ' ' ' ' ' ' ' ' ' ' # 0.c c c c c c c c c c c c c c c c 1 ' Y         ",
"        ' a.c c c c c c c c c c c c c c c c c c c : ' ' ' ' ' ' ' ' ' ' ' ' ' ' ' ' ' ' ' ' ' ' ' 5 *.c c c c c c c c c c c c c c c j '         ",
"      b.' 0 c c c c c c c c c c c c c c c c c c c : ' ' ' ' ' ' ' ' ' ' ' ' ' ' ' ' ' ' ' ' ' ' ' ' V =.P c c c c c c c c c c c c c + '         ",
"      K ' c.c c c c c c c c c c c c c c c c c c c : ' ' ' ' ' ' ' ' ' ' ' ' ' ' ' ' ' ' ' ' ' ' ' ' ' ' d.< c c c c c c c c c c c c o '         ",
"      _.' (.c c c c c c c c c c c c c c c c c c c : ' ' ' ' ' ' ' ' ' ' ' ' ' ' ' ' ' ' ' ' ' ' ' ' ' ' ' e.c c c c c c c c c c c c f.'         ",
"      g.' h.c c c c c c c c c c c c c c c c c c c : ' ' ' ' ' ' ' ' ' ' ' ' ' ' ' ' ' ' ' ' ' ' ' ' ' ' ' i.c c c c c c c c c c c c j.'         ",
"      k.' l.c c c c c c c c c c c c c c c c c c c : ' ' ' ' ' ' ' ' ' ' ' ' ' ' ' ' ' ' ' ' ' ' ' ' ' ' ' m.c c c c c c c c c c c c n.'         ",
"      o.' / c c c c c c c c c c c c c c c c c c c : ' ' ' ' ' ' ' ' ' ' ' ' ' ' ' ' ' ' ' ' ' ' ' ' ' V D c c c c c c c c c c c c c p.'         ",
"        ' q.c c c c c c c c c c c c c c c c c c c : ' ' ' ' ' ' ' ' ' ' ' ' ' ' ' ' ' ' ' ' ' ' ' ' r.s.c c c c c c c c c c c c c c ;.'         ",
"        ' ^ c c c c c c c c c c c c c c c c c c c : ' ' ' ' ' ' ' ' ' ' ' ' ' ' ' ' ' ' ' ' ' ' t.u.c c c c c c c c c c c c c c c c N '         ",
"        ' 9 c c c c c c c c c c c c c c c c c c c : ' ' ' ' ' ' ' ' ' ' ' ' ' ' ' ' ' ' ' ' ' v.w.c c c c c c c c c c c c c c c c x.' V         ",
"        ' & } c c c c c c c c c c c c c c c c c c : ' ' ' ' ' ' ' ' ' ' ' ' ' ' ' ' ' ' ' ) I c c c c c c c c c c c c c c c c c c y.' )         ",
"        { ' z.c c c c c c c c c c c c c c c c c c : ' ' ' ' ' ' ' ' ' ' ' ' ' ' ' ' '  .A.1.c c c c c c c c c c c c c c c c c c c #.' k.        ",
"        y ' B.c c c c c c c c c c c c c c c c c c : ' ' ' ' ' ' ' ' ' ' ' ' ' ' ' ' y _ c c c c c c c c c c c c c c c c c c c c c p.'           ",
"          ' 5 c c c c c c c c c c c c c c c c c c : ' ' ' ' ' ' ' ' ' ' ' ' ' ' C.D.c c c c c c c c c c c c c c c c c c c c c c } * '           ",
"          6 % 1 c c c c c c c c c c c c c c c c c : ' ' ' ' ' ' ' ' ' ' ' ' ' E.1 c c c c c c c c c c c c c c c c c c c c c c c F.' G.          ",
"          H.' e.c c c c c c c c c c c c c c c c c : ' ' ' ' ' ' ' ' ' ' ' , ..c c c c c c c c c c c c c c c c c c c c c c c c c I.' J.          ",
"            ' J b c c c c c c c c c c c c c c c c : ' ' ' ' ' ' ' ' ' % K.&.c c c c c c c c c c c c c c c c c c c c c c c c c 1 &  .            ",
"            t.' L.c c c c c c c c c c c c c c c c : ' ' ' ' ' ' ' ' + ,.c c c c c c c c c c c c c c c c c c c c c c c c c c c 8 ' ;.            ",
"              ' T c c c c c c c c c c c c c c c c M.' ' ' ' ' ' V e.m c c c c c c c c c c c c c c c c c c c c c c c c c c c : 6 '               ",
"              ] ' 3 c c c c c c c c c c c c c c c } g ' ' ' ' r.s.c c c c c c c c c c c c c c c c c c c c c c c c c c c c c j.' y               ",
"                ' = x.c c c c c c c c c c c c c c c N.{ ' N 0.c c c c c c c c c c c c c c c c c c c c c c c c c c c c c c C '  .                ",
"                { ' h c c c c c c c c c c c c c c c c c z } c c c c c c c c c c c c c c c c c c c c c c c c c c c c c c 1.O.' P.                ",
"                   .' Q.c c c c c c c c c c c c c c c c c c c c c c c c c c c c c c c c c c c c c c c c c c c c c c c c i.' +.                  ",
"                  R.' * s.c c c c c c c c c c c c c c c c c c c c c c c c c c c c c c c c c c c c c c c c c c c c c c S.' 6                     ",
"                    S ' T.x.c c c c c c c c c c c c c c c c c c c c c c c c c c c c c c c c c c c c c c c c c c c c U.$ ' J.                    ",
"                      , ' 5 P c c c c c c c c c c c c c c c c c c c c c c c c c c c c c c c c c c c c c c c c c c Z V.' j.                      ",
"                        , ' I.W.c c c c c c c c c c c c c c c c c c c c c c c c c c c c c c c c c c c c c c c c X.Y.' Z.                        ",
"                          @ ' `.: c c c c c c c c c c c c c c c c c c c c c c c c c c c c c c c c c c c c c c C K ' T.                          ",
"                            [.' , C c c c c c c c c c c c c c c c c c c c c c c c c c c c c c c c c c c c c }. .' u                             ",
"                              Z.' % B.[ c c c c c c c c c c c c c c c c c c c c c c c c c c c c c c c c  +^ ' ' .+                              ",
"                                ++% ' u @+c c c c c c c c c c c c c c c c c c c c c c c c c c c c c c w 3.' #+$+                                ",
"                                    { '  .%+: c c c c c c c c c c c c c c c c c c c c c c c c c c &+t ' ' )                                     ",
"                                      |.V ' 6 *+=+c c c c c c c c c c c c c c c c c c c c c P ..o ' ' C.-+                                      ",
"                                          ;+V ' ' T.>+=+c c c c c c c c c c c c c c c <.,+i.K ' ' $ '+                                          ",
"                                              ++, ' ' ' Y ].)+S.!+: < [ } | ~+,.{+++]+ .' ' ' M ^+                                              ",
"                                                    `.N ' ' ' ' ' ' ' ' ' ' ' ' ' ' ' % 9 P.                                                    ",
"                                                            %.T , /+$ % & * = M u (+                                                            ",
"                                                                                                                                                ",
"                                                                                                                                                ",
"                                                                                                                                                ",
"                                                                                                                                                ",
"                                                                                                                                                ",
"                                                                                                                                                ",
"                                ' ' ' ' ' '           ' '                       ' ' '         ' ' '           ' ' '                             ",
"                                ' ' ' ' ' ' ' '       ' '                     ' ' ' '           ' '           ' '                               ",
"                                ' '       ' ' '       ' '                     ' ' ' '           ' ' '       ' ' '                               ",
"                                ' '         ' '       ' '                   ' ' ' ' ' '           ' ' _+    ' '                                 ",
"                                ' '         ' '       ' '                   ' '     ' '           ' ' '   ' ' _+                                ",
"                                ' '         ' '       ' '                   ' '     ' '             ' ' ' ' '                                   ",
"                                ' ' ' ' ' ' ' '       ' '                 ' ' '     ' ' '             ' ' '                                     ",
"                                ' ' ' ' ' ' '         ' '                 ' ' '     _+' '             ' ' '                                     ",
"                                ' '                   ' '                 ' ' ' ' ' ' ' '             ' ' '                                     ",
"                                ' '                   ' '               ' ' ' ' ' ' ' ' ' '           ' ' '                                     ",
"                                ' '                   ' ' ' ' ' ' '     ' '             ' '           ' ' '                                     ",
"                                ' '                   ' ' ' ' ' ' ' '   ' '             ' '           ' ' '                                     ",
"                                b.b.                  b.b.b.b.b.b.b.    b.                b.            b.                                      ",
"                                                                                                                                                ",
"                                                                                                                                                "};
