/* XPM */
static char * surrender_xpm[] = {
"72 86 210 2",
"  	c None",
". 	c #B9A7A7",
"+ 	c #F4D7D7",
"@ 	c #F8E6E6",
"# 	c #FBEFEF",
"$ 	c #FCF5F5",
"% 	c #FEFCFC",
"& 	c #FCF4F4",
"* 	c #FAEDED",
"= 	c #F8E4E4",
"- 	c #F4D5D5",
"; 	c #B9A6A6",
"> 	c #F2CCCC",
", 	c #F9E8E8",
"' 	c #FFFFFF",
") 	c #F7E0E0",
"! 	c #B7A0A0",
"~ 	c #E49797",
"{ 	c #FBF2F2",
"] 	c #EEBCBC",
"^ 	c #E39393",
"/ 	c #DA7070",
"( 	c #D14D4D",
"_ 	c #CD3C3C",
": 	c #CB3434",
"< 	c #C82B2B",
"[ 	c #C92D2D",
"} 	c #CB3636",
"| 	c #CE3E3E",
"1 	c #D35454",
"2 	c #DC7979",
"3 	c #E59C9C",
"4 	c #F1C8C8",
"5 	c #FDF9F9",
"6 	c #F8E7E7",
"7 	c #B69D9D",
"8 	c #E7A3A3",
"9 	c #F6DDDD",
"0 	c #E29191",
"a 	c #D35353",
"b 	c #C82A2A",
"c 	c #C82828",
"d 	c #CA3030",
"e 	c #D66161",
"f 	c #E8A4A4",
"g 	c #FDF6F6",
"h 	c #E9ABAB",
"i 	c #E49696",
"j 	c #FCF6F6",
"k 	c #E9ACAC",
"l 	c #C92B2B",
"m 	c #D86868",
"n 	c #F0C6C6",
"o 	c #B59696",
"p 	c #F7E2E2",
"q 	c #FEFBFB",
"r 	c #E69F9F",
"s 	c #CD3D3D",
"t 	c #EFC2C2",
"u 	c #F3D2D2",
"v 	c #D24F4F",
"w 	c #DB7272",
"x 	c #B39191",
"y 	c #F2CFCF",
"z 	c #FEFDFD",
"A 	c #E39191",
"B 	c #CC3939",
"C 	c #EEBFBF",
"D 	c #D55C5C",
"E 	c #E08888",
"F 	c #F5DADA",
"G 	c #CD3B3B",
"H 	c #D65F5F",
"I 	c #FBF1F1",
"J 	c #F7DFDF",
"K 	c #FBF0F0",
"L 	c #EEBDBD",
"M 	c #D04A4A",
"N 	c #F8E3E3",
"O 	c #FAEBEB",
"P 	c #C92C2C",
"Q 	c #CF4545",
"R 	c #EBB1B1",
"S 	c #F5D9D9",
"T 	c #CB3333",
"U 	c #D35555",
"V 	c #FDF7F7",
"W 	c #B39090",
"X 	c #B59898",
"Y 	c #CE4141",
"Z 	c #DB7373",
"` 	c #FEFAFA",
" .	c #D96A6A",
"..	c #EAACAC",
"+.	c #F9E7E7",
"@.	c #F8E5E5",
"#.	c #E8A5A5",
"$.	c #CA2F2F",
"%.	c #F6DFDF",
"&.	c #B69A9A",
"*.	c #F9EAEA",
"=.	c #CA3232",
"-.	c #DE8080",
";.	c #E59A9A",
">.	c #DD7C7C",
",.	c #FDFAFA",
"'.	c #FCF3F3",
").	c #E8A7A7",
"!.	c #EBB4B4",
"~.	c #F2CECE",
"{.	c #B7A1A1",
"].	c #CE4040",
"^.	c #CB3535",
"/.	c #D86969",
"(.	c #CE4343",
"_.	c #CC3838",
":.	c #E9AAAA",
"<.	c #ECB5B5",
"[.	c #D55D5D",
"}.	c #E29090",
"|.	c #EAAEAE",
"1.	c #F0C5C5",
"2.	c #ECB4B4",
"3.	c #E7A4A4",
"4.	c #DB7575",
"5.	c #C92E2E",
"6.	c #E08686",
"7.	c #CF4444",
"8.	c #DF8484",
"9.	c #FAEEEE",
"0.	c #D65E5E",
"a.	c #CF4646",
"b.	c #E6A0A0",
"c.	c #EDBBBB",
"d.	c #DC7878",
"e.	c #F0C4C4",
"f.	c #CB3737",
"g.	c #F4D3D3",
"h.	c #F5D8D8",
"i.	c #E08585",
"j.	c #F1C9C9",
"k.	c #FAECEC",
"l.	c #D24E4E",
"m.	c #E49595",
"n.	c #EAADAD",
"o.	c #D55A5A",
"p.	c #F3D0D0",
"q.	c #CE3F3F",
"r.	c #CD3E3E",
"s.	c #EAAFAF",
"t.	c #FDF8F8",
"u.	c #7F7F7F",
"v.	c #E18A8A",
"w.	c #F0C7C7",
"x.	c #DF8383",
"y.	c #E7A1A1",
"z.	c #EDB9B9",
"A.	c #E18989",
"B.	c #B18989",
"C.	c #EFC0C0",
"D.	c #D55E5E",
"E.	c #F2CDCD",
"F.	c #D96B6B",
"G.	c #E69D9D",
"H.	c #D45757",
"I.	c #F6DEDE",
"J.	c #D45858",
"K.	c #D55B5B",
"L.	c #EFC1C1",
"M.	c #D96E6E",
"N.	c #F4D4D4",
"O.	c #E18C8C",
"P.	c #EEBEBE",
"Q.	c #B28C8C",
"R.	c #DA7171",
"S.	c #EDB8B8",
"T.	c #DE7F7F",
"U.	c #D04949",
"V.	c #F5DBDB",
"W.	c #B69C9C",
"X.	c #DA6F6F",
"Y.	c #CF4343",
"Z.	c #DA6E6E",
"`.	c #F6DCDC",
" +	c #D25151",
".+	c #CE4242",
"++	c #CA3131",
"@+	c #D04848",
"#+	c #F7E1E1",
"$+	c #F3D3D3",
"%+	c #F3D1D1",
"&+	c #D14E4E",
"*+	c #DA7272",
"=+	c #E9A9A9",
"-+	c #F1C7C7",
";+	c #E8A8A8",
">+	c #F6DBDB",
",+	c #E28E8E",
"'+	c #D76262",
")+	c #E39292",
"!+	c #D14C4C",
"~+	c #D35656",
"{+	c #DD7A7A",
"]+	c #F2CBCB",
"^+	c #B59797",
"/+	c #B69B9B",
"(+	c #F9E9E9",
"_+	c #F7E3E3",
":+	c #B7A2A2",
"<+	c #BFBFBF",
"                                                            . + @ # $ % % & * = - ;                                                             ",
"                                                    > , ' ' ' ' ' ' ' ' ' ' ' ' ' ' ' ' ) !                                                     ",
"                                              ~ = ' ' ' { ] ^ / ( _ : < [ } | 1 2 3 4 5 ' ' ' 6 7                                               ",
"                                          8 $ ' ' 9 0 a b c c c c c c c c c c c c c c d e f # ' ' g h                                           ",
"                                      i j ' 5 k 1 c c c c c c c c c c c c c c c c c c c c c l m n ' ' $ o                                       ",
"                                    p ' q r s c c c c c c c c c c c c c c c c c c c c c c c c c c 1 t ' ' =                                     ",
"                                ~ % ' u v c c c c c c c c c c c c c c c c c c c c c c c c c c c c c c w * ' 5 x                                 ",
"                              y ' z A b c c c c c c c c c c c c c c c c c c c c c c c c c c c c c c c c B C ' ' 4                               ",
"                            @ ' , D c c c c c c c c c c c c c c c c c c c c c c c c c c c c c c c c c c c c E q ' F                             ",
"                          { ' u G c c c c c c c c c c c c c c c c c c c c c c c c c c c c c c c c c c c c c c H I ' J                           ",
"                        K ' L d c c c c c c c c c c c c c c c c c c c c c c c c c c c c c c c c c c c c c c c c M N ' -                         ",
"                      O ' n P c c c c c c c c c c c c c c c c c c c c c c c c c c c c c c c c c c c c c c c c c c Q * ' R                       ",
"                    S ' F T c c c c c c c c c c c c c c c c c c c c c c c c c c c c c c c c c c c c c c c c c c c c U V ' W                     ",
"                  X ' I Y c c c c c c c c c c c c c c c c c c c c c c c c c c c c c c c c c c c c c c c c c c c c c c Z ' 5                     ",
"                  ` '  .c c c c c c c c c c c c c c c c c c c c c c c c c c c c c c c c c c c c c c c c c c c c c c c c ..' +.                  ",
"                @.' #.c c c c c c c c c c c c c c c c c c c c c c c c c c c c c c c c c c c c c c c c c c c c c c c c c $.%.' &.                ",
"                ' *.=.c c c c c c c c c c c < -.;.>.< c c c c c c c c c c c c c c c c c c c c c c c c c c c c c c c c c c H ' ,.                ",
"              '.' w c c c c c c c c c c c c C ' ' ' ).c c c c c c c c c c c c c c c c c c c c c c c c c c c c c c c c c c c !.' ~.              ",
"            {.' u c c c c c c c c c c c c ].' ' ' ' q ^.c c c c c c c c c c c c c c c c c c c c c c c c c c c c c c c c c c Y ` '               ",
"            I ' /.c c c c c c c c c c c c (.' ' ' ' ' _.c c c c c c c c c c c c c c c c c c c c c c c c c c c c c c c c c c c :.' 4             ",
"            ' + c c c c c c c c c c c c c c > ' ' ' <.c c c < [.}.|.1.2.3.4._.c c c c c c c c 5.6.<._.c c c c c c c c c c c c 7.' 5             ",
"          = ' 8.c c c c c c c c c c c c c c =.9.' ' 0.c a.b.9.' ' ' ' ' ' ' q c.e c c c c 5.d.= ' ' 4.c c c c c c c c c c c c c e.'             ",
"          % ,.f.c c c c c c c c c c c c c c c g.' ' ~ |.q ' ' ' ' ' ' ' ' ' ' ' ' F ;.^ <.9.' ' ' ' 2 c c c c c c c c c c c c c Z ' h.          ",
"          ' L c c c c c c c c c c c c c c c c <.' ' ' ' ' ' ' ' ' ' ' ' ' ' ' ' ' ' ' ' ' ' ' ' ' ' 2 c c c c c c c c c c c c c d ,.z           ",
"        p ' i.c c c c c c c c c c c c c c c c i ' ' ' ' ' ' ' ' ' ' ' ' ' ' ' ' ' ' ' ' ' ' ' ' ' ' 2 c c c c c c c c c c c c c c j.'           ",
"        k.' l.c c c c c c c c c c c c c c c c >.' ' ' ' ' ' ' ' ' ' ' ' ' ' ' ' ' ' ' ' ' ' ' ' ' ' 2 c c c c c c c c c c c c c c m.' n.        ",
"        ' & c c c c c c c c c c c c c c c c c o.' ' ' ' ' ' ' ' ' ' ' ' ' ' ' ' ' ' ' ' ' ' ' ' ' ' 2 c c c c c c c c c c c c c c e ' h.        ",
"        ' p.c c c c c c c c c c c c c c c c c q.' ' ' ' ' ' ' ' ' ' ' ' ' ' ' ' ' ' ' ' ' ' ' ' ' ' 2 c c c c c c c c c c c c c c r.' I         ",
"        ' s.c c c c c c c c c c c c c c c c c c t.' ' ' ' ' ' ' ' ' ' ' ' ' ' ' ' ' ' ' ' ' ' ' ' ' 2 c c c c c c c c c c c c c c c j '         ",
"      u.' A c c c c c c c c c c c c c c c c c c 9 ' ' ' ' ' ' ' ' ' ' ' ' ' ' ' ' ' ' ' ' ' ' ' ' ' 2 c c c c c c c c c c c c c c c + '         ",
"      # ' v.c c c c c c c c c c c c c c c c c c C ' ' ' ' ' ' ' ' ' ' ' ' ' ' ' ' ' ' ' ' ' ' ' ' ' 2 c c c c c c c c c c c c c c c w.'         ",
"      p.' x.c c c c c c c c c c c c c c c c c c y.' ' ' ' ' ' ' ' ' ' ' ' ' ' ' ' ' ' ' ' ' ' ' ' ' 2 c c c c c c c c c c c c c c c z.'         ",
"      > ' -.c c c c c c c c c c c c c c c c c c 6.' ' ' ' ' ' ' ' ' ' ' ' ' ' ' ' ' ' ' ' ' ' ' ' ' 2 c c c c c c c c c c c c c c c n.'         ",
"      e.' A.c c c c c c c c c c c c c c c c c c m ' ' ' ' ' ' ' ' ' ' ' ' ' ' ' ' ' ' ' ' ' ' ' ' ' 2 c c c c c c c c c c c c c c c <.'         ",
"      B.' ^ c c c c c c c c c c c c c c c c c c ( ' ' ' ' ' ' ' ' ' I +.' ' ' ' ' ' ' ' ' ' ' ' ' ' e c c c c c c c c c c c c c c c C.'         ",
"        ' b.c c c c c c c c c c c c c c c c c c 5.' ' ' ' ' +.y.e =.c c 5.0.h t.' ' ' ' ' ' ' ' j.D.c c c c c c c c c c c c c c c c E.'         ",
"        ' L c c c c c c c c c c c c c c c c c c c +.' ' + F.< c c c c c c c c _ G.9.' ' ' O h H.c c c c c c c c c c c c c c c c c c *.'         ",
"        ' I.c c c c c c c c c c c c c c c c c c c > ' ' x.c c c c c c c c c c c c c a.o.q.c c c c c c c c c c c c c c c c c c c c ^.' V         ",
"        ' % [ c c c c c c c c c c c c c c c c c c h ' ' G.c c c c c c c c c c c c c c c c c c c c c c c c c c c c c c c c c c c c J.' )         ",
"        = ' K.c c c c c c c c c c c c c c c c c c }.' ' ] c c c c c c c c c c c c c c c c c c c c c c c c c c c c c c c c c c c c v.' 1.        ",
"        ~.' }.c c c c c c c c c c c c c c c c c c w ' ' F c c c c c c c c c c c c c c c c c c c c c c c c c c c c c c c c c c c c L.'           ",
"          ' 4 c c c c c c c c c c c c c c c c c c H.' ' $ c c c c c c c c c c c c c c c c c c c c c c c c c c c c c c c c c c c [ & '           ",
"          5 z | c c c c c c c c c c c c c c c c c _.' ' ' _ c c c c c c c c c c c c c c c c c c c c c c c c c c c c c c c c c c M.' 9           ",
"          N.' O.c c c c c c c c c c c c c c c c c c I ' ' H.c c c c c c c c c c c c c c c c c c c c c c c c c c c c c c c c c c P.' Q.          ",
"            ' J b c c c c c c c c c c c c c c c c c + ' ' 4.c c c c c c c c c c c c c c c c c c c c c c c c c c c c c c c c c r.q q             ",
"            * ' R.c c c c c c c c c c c c c c c c c S.' ' ^ c c c c c c c c c c c c c c c c c c c c c c c c c c c c c c c c c 8 ' ~.            ",
"              ' F c c c c c c c c c c c c c c c c c G.' ' R c c c c c c c c c c c c c c c c c c c c c c c c c c c c c c c c _ t.'               ",
"              { ' 2 c c c c c c c c c c c c c c c c T.' ' j.c c c c c c c c c c c c c c c c c c c c c c c c c c c c c c c c |.' y               ",
"                ' * ^.c c c c c c c c c c c c c c c U.q ' G.c c c c c c c c c c c c c c c c c c c c c c c c c c c c c c c D ' ,.                ",
"                @.' :.c c c c c c c c c c c c c c c c Y o.b c c c c c c c c c c c c c c c c c c c c c c c c c c c c c c 5.V.' W.                ",
"                  ,.' X.c c c c c c c c c c c c c c c c c c c c c c c c c c c c c c c c c c c c c c c c c c c c c c c c ).' +.                  ",
"                  X ' '.Y.c c c c c c c c c c c c c c c c c c c c c c c c c c c c c c c c c c c c c c c c c c c c c c Z.' t.                    ",
"                    S ' `.^.c c c c c c c c c c c c c c c c c c c c c c c c c c c c c c c c c c c c c c c c c c c c  +$ ' Q.                    ",
"                      , ' 4 P c c c c c c c c c c c c c c c c c c c c c c c c c c c c c c c c c c c c c c c c c c .+*.' |.                      ",
"                        , ' P.++c c c c c c c c c c c c c c c c c c c c c c c c c c c c c c c c c c c c c c c c @+p ' u                         ",
"                          @ ' - _ c c c c c c c c c c c c c c c c c c c c c c c c c c c c c c c c c c c c c c K.K ' `.                          ",
"                            #+' , D c c c c c c c c c c c c c c c c c c c c c c c c c c c c c c c c c c c c 6.,.' $+                            ",
"                              %+' % }.b c c c c c c c c c c c c c c c c c c c c c c c c c c c c c c c c _.L ' ' 1.                              ",
"                                G.% ' u &+c c c c c c c c c c c c c c c c c c c c c c c c c c c c c c *+k.' t.B.                                ",
"                                    = ' ` G._ c c c c c c c c c c c c c c c c c c c c c c c c c c 1 t ' ' )                                     ",
"                                      ;.t.' 5 =+ +c c c c c c c c c c c c c c c c c c c c c l /.-+' ' '.W                                       ",
"                                          ;+V ' ' >+,+ +c c c c c c c c c c c c c c c d '+).# ' ' $ ;+                                          ",
"                                              G.+.' ' ' I c.)+X.!+_ : < [ } q.~+{+G.]+,.' ' ' N ^+                                              ",
"                                                    N.O ' ' ' ' ' ' ' ' ' ' ' ' ' ' ' z 9 /+                                                    ",
"                                                            (+F , # $ z % '.* _+$+:+                                                            ",
"                                                                                                                                                ",
"                                                                                                                                                ",
"                                                                                                                                                ",
"                                                                                                                                                ",
"                                                                                                                                                ",
"                                                                                                                                                ",
"      ' ' ' ' ' ' '           ' ' ' '               ' ' ' ' ' '           ' ' ' ' ' ' '       ' ' ' ' ' ' ' '     ' '       ' ' ' ' ' ' ' ' '   ",
"    ' ' ' ' ' ' ' '       ' ' ' ' ' ' ' '         ' ' ' ' ' ' ' '         ' ' ' ' ' ' ' '     ' ' ' ' ' ' ' '     ' ' '   ' ' ' ' ' ' ' ' ' '   ",
"    ' ' '                 ' ' '       ' ' '       ' ' '       ' ' '       ' ' <+              ' '                 ' ' '           ' ' <+        ",
"    ' ' '               ' ' '           ' '       ' ' '         ' '       ' '                 ' '                 ' ' '           ' '           ",
"    ' ' '               ' '             ' ' '     ' ' '         ' '       ' '                 ' '                 ' ' '           ' '           ",
"    ' ' '               ' '             ' ' '     ' ' '     ' ' ' <+      ' ' <+              ' ' ' ' ' ' '       ' ' '           ' '           ",
"    ' ' ' ' ' ' ' '     ' '             ' ' '     ' ' ' ' ' ' '           ' ' ' ' ' ' '       ' ' ' ' ' ' '       ' ' '           ' '           ",
"    ' ' ' ' ' ' '       ' '             ' ' '     ' ' '     ' ' '         ' ' ' ' ' ' '       ' '                 ' ' '           ' '           ",
"    ' ' '               ' '             ' ' '     ' ' '       ' '         ' '                 ' '                 ' ' '           ' '           ",
"    ' ' '               ' ' '           ' '       ' ' '       ' ' '       ' '                 ' '                 ' ' '           ' '           ",
"    ' ' '                 ' ' ' <+  ' ' ' '       ' ' '         ' '       ' '                 ' ' ' ' ' ' '       ' ' '           ' '           ",
"    ' ' '                   ' ' ' ' ' ' '         ' ' '         ' '       ' '                 ' ' ' ' ' ' ' '     ' ' '           ' '           ",
"      u.                        ' ' '               u.            u.      u.u.                u.u.u.u.u.u.u.        u.            u.u.          ",
"                                                                                                                                                ",
"                                                                                                                                                "};
