/* XPM */
static const char *surrender_xpm[] = {
"64 64 134 2",
"  	c None",
". 	c #FFEFEF",
"+ 	c #FFD2D2",
"@ 	c #FFBABA",
"# 	c #FF9C9C",
"$ 	c #FF7D7D",
"% 	c #FF6161",
"& 	c #FF3C3C",
"* 	c #FF3434",
"= 	c #FFFEFE",
"- 	c #FFE3E3",
"; 	c #FFB0B0",
"> 	c #FF6D6D",
", 	c #FF3232",
"' 	c #FF3131",
") 	c #FFF8F8",
"! 	c #FFC3C3",
"~ 	c #FF7171",
"{ 	c #FFF6F6",
"] 	c #FF4E4E",
"^ 	c #FFB9B9",
"/ 	c #FFC9C9",
"( 	c #FF5858",
"_ 	c #FFEDED",
": 	c #FF8686",
"< 	c #FFD0D0",
"[ 	c #FF4C4C",
"} 	c #FFFDFD",
"| 	c #FFAFAF",
"1 	c #FFFCFC",
"2 	c #FF9B9B",
"3 	c #FFFBFB",
"4 	c #FF9393",
"5 	c #FF9494",
"6 	c #FF9898",
"7 	c #FFB1B1",
"8 	c #FF7C7C",
"9 	c #FFB2B2",
"0 	c #FFAAAA",
"a 	c #FF5454",
"b 	c #FF8585",
"c 	c #FFA8A8",
"d 	c #FFF1F1",
"e 	c #FF6969",
"f 	c #FFC7C7",
"g 	c #FFF9F9",
"h 	c #FFCFCF",
"i 	c #FF5555",
"j 	c #FF7979",
"k 	c #FFE8E8",
"l 	c #FFB6B6",
"m 	c #FFFAFA",
"n 	c #FF3636",
"o 	c #FF5C5C",
"p 	c #FF5050",
"q 	c #FF3333",
"r 	c #FF4545",
"s 	c #FF3E3E",
"t 	c #FFF7F7",
"u 	c #FF4A4A",
"v 	c #FF6C6C",
"w 	c #FF7777",
"x 	c #FFE1E1",
"y 	c #FFDCDC",
"z 	c #FF5B5B",
"A 	c #FFC2C2",
"B 	c #FFECEC",
"C 	c #FF3A3A",
"D 	c #FFDADA",
"E 	c #FFA5A5",
"F 	c #FFE6E6",
"G 	c #FFD4D4",
"H 	c #FF8787",
"I 	c #FF5F5F",
"J 	c #FF6E6E",
"K 	c #FFC5C5",
"L 	c #FFEEEE",
"M 	c #FFC8C8",
"N 	c #FFE2E2",
"O 	c #FFAEAE",
"P 	c #FF9595",
"Q 	c #FF6F6F",
"R 	c #FF7070",
"S 	c #FF4242",
"T 	c #FFD3D3",
"U 	c #FF3030",
"V 	c #FFDEDE",
"W 	c #FF9999",
"X 	c #FFCDCD",
"Y 	c #FFB5B5",
"Z 	c #FF6363",
"` 	c #FF9E9E",
" .	c #FF6565",
"..	c #FF3F3F",
"+.	c #FF7E7E",
"@.	c #FF4141",
"#.	c #FF4B4B",
"$.	c #FF3535",
"%.	c #FFF5F5",
"&.	c #FFE4E4",
"*.	c #FF5353",
"=.	c #FFC4C4",
"-.	c #FFA3A3",
";.	c #FF9696",
">.	c #FFABAB",
",.	c #FFB4B4",
"'.	c #FFBFBF",
").	c #FF4F4F",
"!.	c #FF5959",
"~.	c #FFA4A4",
"{.	c #FFB3B3",
"].	c #FF3838",
"^.	c #FF4646",
"/.	c #FFD7D7",
"(.	c #FFEBEB",
"_.	c #FFE5E5",
":.	c #FF8A8A",
"<.	c #FFB8B8",
"[.	c #FFCECE",
"}.	c #FFDFDF",
"|.	c #FF9090",
"1.	c #FF7272",
"2.	c #FFC6C6",
"3.	c #FF5656",
"4.	c #FFCACA",
"5.	c #FFA0A0",
"6.	c #FFD1D1",
"7.	c #FF4D4D",
"8.	c #FF7373",
"9.	c #FFF3F3",
"0.	c #FFBCBC",
"a.	c #FF9D9D",
"b.	c #FF8282",
"c.	c #FF3737",
"                                                . + @ # $ % & * * & % $ # @ + .                                                 ",
"                                        = - ; > , ' ' ' ' ' ' ' ' ' ' ' ' ' ' , > ; - =                                         ",
"                                    ) ! ~ ' ' ' ' ' ' ' ' ' ' ' ' ' ' ' ' ' ' ' ' ' ' ~ ! )                                     ",
"                                { @ ] ' ' ' ' ' ' ' ' ' ' ' ' ' ' ' ' ' ' ' ' ' ' ' ' ' ' ] ^ {                                 ",
"                            = / ( ' ' ' ' ' ' ' ' ' ' ' ' ' ' ' ' ' ' ' ' ' ' ' ' ' ' ' ' ' ' ( / =                             ",
"                          _ : ' ' ' ' ' ' ' ' ' ' ' ' ' ' ' ' ' ' ' ' ' ' ' ' ' ' ' ' ' ' ' ' ' ' : _                           ",
"                        < [ ' ' ' ' ' ' ' ' ' ' ' ' ' ' ' ' ' ' ' ' ' ' ' ' ' ' ' ' ' ' ' ' ' ' ' ' [ <                         ",
"                    } | , ' ' ' ' ' ' ' ' ' ' ' ' ' ' ' ' ' ' ' ' ' ' ' ' ' ' ' ' ' ' ' ' ' ' ' ' ' ' , | }                     ",
"                  1 2 ' ' ' ' ' ' ' ' ' ' ' ' ' ' ' ' ' ' ' ' ' ' ' ' ' ' ' ' ' ' ' ' ' ' ' ' ' ' ' ' ' ' 2 3                   ",
"                3 4 ' ' ' ' ' ' ' ' ' ' ' ' ' ' ' ' ' ' ' ' ' ' ' ' ' ' ' ' ' ' ' ' ' ' ' ' ' ' ' ' ' ' ' ' 5 1                 ",
"              } 6 ' ' ' ' ' ' ' ' ' ' ' ' ' ' ' ' ' ' ' ' ' ' ' ' ' ' ' ' ' ' ' ' ' ' ' ' ' ' ' ' ' ' ' ' ' ' 2 =               ",
"              ; ' ' ' ' ' ' ' ' ' ' ' ' ' ' ' ' ' ' ' ' ' ' ' ' ' ' ' ' ' ' ' ' ' ' ' ' ' ' ' ' ' ' ' ' ' ' ' ' 7               ",
"            < , ' ' ' ' ' ' ' ' ' ' ' ' ' ' ' ' ' ' ' ' ' ' ' ' ' ' ' ' ' ' ' ' ' ' ' ' ' ' ' ' ' ' ' ' ' ' ' ' , <             ",
"          _ [ ' ' ' ' ' ' ' ' ' ' 8 9 0 a ' ' ' ' ' ' ' ' ' ' ' ' ' ' ' ' ' ' ' ' ' ' ' ' ' ' ' ' ' ' ' ' ' ' ' ' [ _           ",
"        } b ' ' ' ' ' ' ' ' ' ' c =     d e ' ' ' ' ' ' ' ' ' ' ' ' ' ' ' ' ' ' ' ' ' ' ' ' ' ' ' ' ' ' ' ' ' ' ' ' b }         ",
"        f ' ' ' ' ' ' ' ' ' ' ] g         h ' ' ' ' ' ' ' ' ' ' ' ' ' ' ' ' ' ' ' ' ' ' ' ' ' ' ' ' ' ' ' ' ' ' ' ' ' f         ",
"      { i ' ' ' ' ' ' ' ' ' ' j           k ' ' ' ' ' ' ' ' ' ' ' ' ' ' ' ' ' ' ' ' ' ' ' ' ' ' ' ' ' ' ' ' ' ' ' ' ' a {       ",
"      l ' ' ' ' ' ' ' ' ' ' ' ] m         + ' ' ' ' ' ' n a o p q ' ' ' ' ' ' ' ' ' ' ' ' ' r s ' ' ' ' ' ' ' ' ' ' ' ' l       ",
"    t u ' ' ' ' ' ' ' ' ' ' ' ' 0 =     t v ' ' ' w @ x g     = { y 7 z ' ' ' ' ' ' ' ' i A ) B C ' ' ' ' ' ' ' ' ' ' ' u {     ",
"    A ' ' ' ' ' ' ' ' ' ' ' ' ' ' D     . ' C E F                     1 G H , ' ' ' I ^ {       z ' ' ' ' ' ' ' ' ' ' ' ' A     ",
"  = J ' ' ' ' ' ' ' ' ' ' ' ' ' ' K     = E L                               F f M N }           z ' ' ' ' ' ' ' ' ' ' ' ' J =   ",
"  N ' ' ' ' ' ' ' ' ' ' ' ' ' ' ' O                                                             z ' ' ' ' ' ' ' ' ' ' ' ' ' N   ",
"  ; ' ' ' ' ' ' ' ' ' ' ' ' ' ' ' P                                                             z ' ' ' ' ' ' ' ' ' ' ' ' ' 7   ",
"  Q ' ' ' ' ' ' ' ' ' ' ' ' ' ' ' J                                                             z ' ' ' ' ' ' ' ' ' ' ' ' ' R   ",
"d , ' ' ' ' ' ' ' ' ' ' ' ' ' ' ' S }                                                           z ' ' ' ' ' ' ' ' ' ' ' ' ' , d ",
"T ' ' ' ' ' ' ' ' ' ' ' ' ' ' ' ' U .                                                           z ' ' ' ' ' ' ' ' ' ' ' ' ' ' T ",
"^ ' ' ' ' ' ' ' ' ' ' ' ' ' ' ' ' ' V                                                           z ' ' ' ' ' ' ' ' ' ' ' ' ' ' ^ ",
"W ' ' ' ' ' ' ' ' ' ' ' ' ' ' ' ' ' X                                                           z ' ' ' ' ' ' ' ' ' ' ' ' ' ' W ",
"8 ' ' ' ' ' ' ' ' ' ' ' ' ' ' ' ' ' Y                                                           z ' ' ' ' ' ' ' ' ' ' ' ' ' ' $ ",
"Z ' ' ' ' ' ' ' ' ' ' ' ' ' ' ' ' ' `                                                           z ' ' ' ' ' ' ' ' ' ' ' ' ' '  .",
"..' ' ' ' ' ' ' ' ' ' ' ' ' ' ' ' ' +.                                                          z ' ' ' ' ' ' ' ' ' ' ' ' ' ' @.",
"* ' ' ' ' ' ' ' ' ' ' ' ' ' ' ' ' ' #.=                                                         z ' ' ' ' ' ' ' ' ' ' ' ' ' ' $.",
"* ' ' ' ' ' ' ' ' ' ' ' ' ' ' ' ' ' , %.                                                        z ' ' ' ' ' ' ' ' ' ' ' ' ' ' * ",
"@.' ' ' ' ' ' ' ' ' ' ' ' ' ' ' ' ' ' &.                                                        *.' ' ' ' ' ' ' ' ' ' ' ' ' ' @.",
" .' ' ' ' ' ' ' ' ' ' ' ' ' ' ' ' ' ' +             = &.=.-.;.W >.G m                       g ,.' ' ' ' ' ' ' ' ' ' ' ' ' ' '  .",
"$ ' ' ' ' ' ' ' ' ' ' ' ' ' ' ' ' ' ' '.        . l % ' ' ' ' ' ' ' ).,.%.              %.'.!.' ' ' ' ' ' ' ' ' ' ' ' ' ' ' ' $ ",
"W ' ' ' ' ' ' ' ' ' ' ' ' ' ' ' ' ' ' ~.      {.].' ' ' ' ' ' ' ' ' ' ' ^.~./.(.. _./ ;.S ' ' ' ' ' ' ' ' ' ' ' ' ' ' ' ' ' ' W ",
"@ ' ' ' ' ' ' ' ' ' ' ' ' ' ' ' ' ' ' :.      ` ' ' ' ' ' ' ' ' ' ' ' ' ' ' ' ' ' ' ' ' ' ' ' ' ' ' ' ' ' ' ' ' ' ' ' ' ' ' ' ^ ",
"G ' ' ' ' ' ' ' ' ' ' ' ' ' ' ' ' ' ' I       <.' ' ' ' ' ' ' ' ' ' ' ' ' ' ' ' ' ' ' ' ' ' ' ' ' ' ' ' ' ' ' ' ' ' ' ' ' ' ' T ",
"d , ' ' ' ' ' ' ' ' ' ' ' ' ' ' ' ' ' $.g     [.' ' ' ' ' ' ' ' ' ' ' ' ' ' ' ' ' ' ' ' ' ' ' ' ' ' ' ' ' ' ' ' ' ' ' ' ' ' , d ",
"  R ' ' ' ' ' ' ' ' ' ' ' ' ' ' ' ' ' ' (.    }.' ' ' ' ' ' ' ' ' ' ' ' ' ' ' ' ' ' ' ' ' ' ' ' ' ' ' ' ' ' ' ' ' ' ' ' ' ' R   ",
"  7 ' ' ' ' ' ' ' ' ' ' ' ' ' ' ' ' ' ' /.    d U ' ' ' ' ' ' ' ' ' ' ' ' ' ' ' ' ' ' ' ' ' ' ' ' ' ' ' ' ' ' ' ' ' ' ' ' ' 7   ",
"  N ' ' ' ' ' ' ' ' ' ' ' ' ' ' ' ' ' ' K     } S ' ' ' ' ' ' ' ' ' ' ' ' ' ' ' ' ' ' ' ' ' ' ' ' ' ' ' ' ' ' ' ' ' ' ' ' ' N   ",
"  = J ' ' ' ' ' ' ' ' ' ' ' ' ' ' ' ' ' |       ~ ' ' ' ' ' ' ' ' ' ' ' ' ' ' ' ' ' ' ' ' ' ' ' ' ' ' ' ' ' ' ' ' ' ' ' ' J =   ",
"    A ' ' ' ' ' ' ' ' ' ' ' ' ' ' ' ' ' |.      ;.' ' ' ' ' ' ' ' ' ' ' ' ' ' ' ' ' ' ' ' ' ' ' ' ' ' ' ' ' ' ' ' ' ' ' ' A     ",
"    t ] ' ' ' ' ' ' ' ' ' ' ' ' ' ' ' ' 1.      O ' ' ' ' ' ' ' ' ' ' ' ' ' ' ' ' ' ' ' ' ' ' ' ' ' ' ' ' ' ' ' ' ' ' ' u {     ",
"      <.' ' ' ' ' ' ' ' ' ' ' ' ' ' ' ' C }     2.' ' ' ' ' ' ' ' ' ' ' ' ' ' ' ' ' ' ' ' ' ' ' ' ' ' ' ' ' ' ' ' ' ' ' l       ",
"      { 3.' ' ' ' ' ' ' ' ' ' ' ' ' ' ' ' L     D ' ' ' ' ' ' ' ' ' ' ' ' ' ' ' ' ' ' ' ' ' ' ' ' ' ' ' ' ' ' ' ' ' ' a {       ",
"        4.' ' ' ' ' ' ' ' ' ' ' ' ' ' ' ' }.    k ' ' ' ' ' ' ' ' ' ' ' ' ' ' ' ' ' ' ' ' ' ' ' ' ' ' ' ' ' ' ' ' ' ' f         ",
"        = : ' ' ' ' ' ' ' ' ' ' ' ' ' ' ' l     + ' ' ' ' ' ' ' ' ' ' ' ' ' ' ' ' ' ' ' ' ' ' ' ' ' ' ' ' ' ' ' ' ' b }         ",
"          _ [ ' ' ' ' ' ' ' ' ' ' ' ' ' ' $.5.>.#.' ' ' ' ' ' ' ' ' ' ' ' ' ' ' ' ' ' ' ' ' ' ' ' ' ' ' ' ' ' ' ' [ _           ",
"            < , ' ' ' ' ' ' ' ' ' ' ' ' ' ' ' ' ' ' ' ' ' ' ' ' ' ' ' ' ' ' ' ' ' ' ' ' ' ' ' ' ' ' ' ' ' ' ' ' , <             ",
"              7 ' ' ' ' ' ' ' ' ' ' ' ' ' ' ' ' ' ' ' ' ' ' ' ' ' ' ' ' ' ' ' ' ' ' ' ' ' ' ' ' ' ' ' ' ' ' ' ' ;               ",
"              = # ' ' ' ' ' ' ' ' ' ' ' ' ' ' ' ' ' ' ' ' ' ' ' ' ' ' ' ' ' ' ' ' ' ' ' ' ' ' ' ' ' ' ' ' ' ' 2 =               ",
"                1 5 ' ' ' ' ' ' ' ' ' ' ' ' ' ' ' ' ' ' ' ' ' ' ' ' ' ' ' ' ' ' ' ' ' ' ' ' ' ' ' ' ' ' ' ' 4 1                 ",
"                  3 # ' ' ' ' ' ' ' ' ' ' ' ' ' ' ' ' ' ' ' ' ' ' ' ' ' ' ' ' ' ' ' ' ' ' ' ' ' ' ' ' ' ' 2 3                   ",
"                    = {., ' ' ' ' ' ' ' ' ' ' ' ' ' ' ' ' ' ' ' ' ' ' ' ' ' ' ' ' ' ' ' ' ' ' ' ' ' ' , | }                     ",
"                        6.7.' ' ' ' ' ' ' ' ' ' ' ' ' ' ' ' ' ' ' ' ' ' ' ' ' ' ' ' ' ' ' ' ' ' ' ' [ <                         ",
"                          _ H ' ' ' ' ' ' ' ' ' ' ' ' ' ' ' ' ' ' ' ' ' ' ' ' ' ' ' ' ' ' ' ' ' ' : _                           ",
"                            = 4.( ' ' ' ' ' ' ' ' ' ' ' ' ' ' ' ' ' ' ' ' ' ' ' ' ' ' ' ' ' ' ( 4.=                             ",
"                                t ^ ] ' ' ' ' ' ' ' ' ' ' ' ' ' ' ' ' ' ' ' ' ' ' ' ' ' ' ] ^ t                                 ",
"                                    ) ! ~ ' ' ' ' ' ' ' ' ' ' ' ' ' ' ' ' ' ' ' ' ' ' ~ ! )                                     ",
"                                        = - 9 8., ' ' ' ' ' ' ' ' ' ' ' ' ' ' , > 7 - =                                         ",
"                                                9./.0.a.b.J u c.q & % $ # @ + .                                                 "};
